<?xml version="1.0" encoding="UTF-8" standalone="no"?>
<svg width="177px" height="81px" viewBox="0 0 177 81" version="1.1" xmlns="http://www.w3.org/2000/svg" xmlns:xlink="http://www.w3.org/1999/xlink">
    <!-- Generator: Sketch 50.2 (55047) - http://www.bohemiancoding.com/sketch -->
    <title>Classes</title>
    <desc>Created with Sketch.</desc>
    <defs></defs>
    <g id="Page-1" stroke="none" stroke-width="1" fill="none" fill-rule="evenodd">
        <g id="Fonts-and-colors" transform="translate(-480.000000, -585.000000)" fill="#FFFFFF">
            <path d="M524.84,631.488593 C524.818667,631.509333 524.797333,631.530667 524.776,631.552 L524.584,631.552 C523.944,631.936 523.368,632.512 522.92,633.088 C522.472,633.408 522.024,633.728 521.64,634.112 C521.32,634.496 521,634.944 520.68,635.328 C520.424,635.52 520.232,635.712 520.04,635.968 L519.016,636.864 L519.208,636.864 L518.888,637.248 L519.016,636.864 L518.696,637.184 C518.632,637.312 518.504,637.376 518.376,637.504 L518.632,637.504 L517.992,638.144 L518.12,637.76 C517.928,637.888 517.8,638.08 517.736,638.208 L517.48,638.4 L517.16,638.72 C517.032,638.848 516.904,638.912 516.84,639.04 L517.032,639.04 L516.904,639.488 L517.48,638.848 L518.248,638.656 L514.408,642.496 C509.48,647.168 503.976,650.944 497.896,653.824 C496.552,654.464 495.144,654.976 493.8,655.36 C492.456,655.808 491.048,656 489.704,656.064 C487.336,656.128 485.288,655.68 483.56,654.656 C481.832,653.696 480.808,651.968 480.424,649.536 C480.232,648.512 480.168,647.552 480.168,646.528 C480.232,645.568 480.296,644.48 480.488,643.392 C480.68,641.984 481,640.64 481.32,639.232 C481.704,637.888 482.152,636.48 482.664,635.136 C483.496,632.896 484.52,630.784 485.736,628.672 C486.952,626.624 488.36,624.576 489.896,622.592 C490.664,621.568 491.432,620.672 492.264,619.712 L494.76,617.024 C496.744,614.976 498.728,612.992 500.712,611.136 C502.76,609.216 504.936,607.424 507.24,605.76 C508.776,604.608 510.312,603.52 511.848,602.496 C513.448,601.536 515.048,600.576 516.776,599.744 C518.568,598.784 520.36,598.08 522.216,597.568 C524.072,597.056 525.928,596.672 527.784,596.48 C530.408,596.288 532.584,596.928 534.376,598.4 C534.952,598.912 535.4,599.552 535.656,600.256 C535.912,600.96 536.104,601.728 536.168,602.496 C535.72,601.92 535.208,601.344 534.632,600.96 L534.632,600.768 C534.696,600.64 534.632,600.512 534.568,600.384 C534.376,600.128 534.248,599.936 534.056,599.808 C533.928,599.616 533.736,599.488 533.48,599.424 C532.2,598.656 530.664,598.4 528.872,598.656 C526.44,598.848 524.072,599.424 521.704,600.32 C519.336,601.216 517.032,602.368 514.792,603.776 C512.104,605.44 509.544,607.232 507.112,609.216 C504.68,611.2 502.312,613.312 500.008,615.616 C498.92,616.704 497.832,617.792 496.808,618.88 C495.784,619.968 494.76,621.12 493.8,622.272 C492.008,624.32 490.408,626.368 489.064,628.544 C487.72,630.656 486.568,632.896 485.672,635.2 C484.904,637.12 484.264,638.976 483.688,640.832 C483.112,642.688 482.792,644.544 482.6,646.464 C482.536,647.424 482.472,648.384 482.536,649.344 C482.6,650.24 482.856,651.136 483.176,652.032 C484.008,653.952 485.672,654.848 488.168,654.784 C489.896,654.72 491.624,654.4 493.288,653.824 C494.952,653.248 496.616,652.544 498.344,651.712 C501.16,650.176 503.848,648.512 506.344,646.72 C508.904,644.864 511.4,642.88 513.768,640.704 C514.216,640.32 514.6,639.936 515.048,639.552 C515.496,639.168 515.88,638.784 516.328,638.464 C516.328,638.527465 516.328,638.653866 516.26559,638.780793 C516.520012,638.527991 516.776003,638.335997 516.904,638.208 L516.392,638.4 C516.52,638.208 516.648,638.08 516.84,637.952 C517.032,637.824 517.16,637.696 517.288,637.568 L517.16,637.952 L517.8,637.312 C518.504,636.928 519.016,636.416 519.4,635.776 C519.592,635.648 519.784,635.52 519.912,635.392 C520.104,635.264 520.232,635.072 520.36,634.88 L519.656,635.264 C519.784,635.136 519.912,635.008 520.04,634.816 C520.168,634.688 520.36,634.56 520.552,634.432 L520.424,634.816 L521.064,634.176 C521.768,633.792 522.28,633.28 522.664,632.64 L523.752,631.744 C524.2,631.36 524.584,630.912 524.968,630.528 C525.416,630.08 525.8,629.696 526.248,629.312 C526.44,628.992 526.76,628.736 527.08,628.608 L525.864,630.272 L525.544,630.592 C525.48,630.72 525.352,630.784 525.224,630.912 C525.096,631.104 524.904,631.296 524.648,631.488 L524.84,631.488 L524.84,631.488593 Z M516.392,639.936 L516.648,639.744 L516.456,639.744 L516.392,639.936 Z M516.2,638.848 L515.944,639.104 L516.2,638.848 Z M516.52,639.296 L515.944,639.936 L516.136,639.936 L516.392,639.744 L516.52,639.296 Z M516.136,640 L515.88,640.192 L515.752,640.576 L516.328,640 L516.136,640 Z M515.752,640.192 L515.816,640 L515.56,640.192 L515.752,640.192 Z M515.534,640.694 C515.534,640.694 515.534,640.694 515.534,640.694 Z M515.534,640.694 C515.564,640.676 515.576,640.64 515.624,640.64 L515.534,640.694 Z M515.413319,640.766408 L515.304,640.832 C515.24,640.832 515.24,640.896 515.24,640.896 C515.24,640.96 515.24,640.96 515.176,641.024 L515.304,640.896 C515.34044,640.82312 515.37688,640.791736 515.413319,640.766408 Z M514.993245,639.908503 L514.856,640 L514.984,640 C514.984,639.96642 514.984,639.932839 514.993245,639.908503 Z M514.888503,641.367622 C514.920335,641.343665 514.952168,641.311832 514.984,641.28 C514.963022,641.28 514.935169,641.293752 514.902693,641.316748 L514.888503,641.367622 Z M514.088,641.984 L514.344,641.792 C514.408,641.664 514.472,641.6 514.472,641.6 L514.088,641.984 Z M512.872,643.136 C512.808,643.2 512.808,643.2 512.744,643.328 C512.808,643.264 512.936,643.2 513.064,643.072 C513,643.072 512.936,643.136 512.872,643.136 Z M512.330802,643.599183 C512.256869,643.639188 512.205965,643.679193 512.162459,643.719198 C512.208727,643.677752 512.252364,643.648 512.296,643.648 C512.296,643.608952 512.319824,643.593728 512.338401,643.587793 L512.330802,643.599183 Z M512.162459,643.719198 C512.141868,643.738132 512.122934,643.757066 512.104,643.776 C512.124364,643.755636 512.144727,643.735273 512.165091,643.716971 L512.162459,643.719198 Z M511.464,644.416 L511.208,644.672 C511.336,644.544 511.464,644.416 511.528,644.416 L511.464,644.416 Z M517.050963,601.66163 C517.117333,601.614222 517.202667,601.557333 517.288,601.472 L517.050963,601.661629 L517.050963,601.66163 Z M516.456,601.92 L516.2,602.176 C516.328,602.048 516.456,601.92 516.52,601.92 L516.584,601.856 C516.52,601.856 516.52,601.92 516.456,601.92 Z M515.624,602.368 L515.24,602.624 L515.304,602.624 L515.624,602.368 Z M512.04,603.072 L511.784,603.2 C511.848,603.2 511.976,603.136 512.04,603.072 Z M511.272,604.992 L511.016,605.184 L506.984,608.064 C506.792,608.192 506.536,608.384 506.344,608.576 C506.152,608.768 505.896,608.96 505.704,609.152 C505.128,609.536 504.552,609.92 504.04,610.432 C503.528,610.88 503.016,611.328 502.568,611.84 C501.992,612.416 501.416,612.992 500.84,613.504 C500.264,614.08 499.688,614.592 499.112,615.168 L496.424,617.856 C495.912,618.304 495.4,618.752 494.952,619.264 C494.504,619.712 494.12,620.224 493.8,620.8 L493.416,621.312 L493.8,620.928 L496.616,618.048 L499.24,615.36 L502.76,612.032 L505.832,609.344 L511.464,605.12 C511.784,604.864 512.04,604.672 512.296,604.544 C512.552,604.352 512.808,604.16 513.128,604.032 L513.384,603.776 C513.576,603.648 513.704,603.584 513.832,603.52 L514.216,603.328 L514.472,603.072 L514.92,602.816 L514.472,603.008 L514.152,603.2 L513.32,603.648 L513,603.84 L511.272,604.992 Z M497.291833,616.134957 C497.278234,616.152494 497.26629,616.17142 497.256,616.192 C497.277675,616.170325 497.29935,616.14865 497.321025,616.129461 L497.291833,616.134957 Z M503.784,610.112 L504.04,609.92 L504.104,609.856 C504.04,609.856 504.04,609.92 503.976,609.92 L503.784,610.112 Z M504.296,609.728 L504.36,609.664 L504.296,609.728 Z M504.488,609.6 L504.68,609.472 L504.552,609.472 C504.552,609.472 504.552,609.536 504.488,609.6 Z M509.998125,605.2303 L509.416,605.696 L509.736,605.504 L509.992,605.312 C509.992,605.282725 509.992,605.253449 509.998126,605.2303 L509.998125,605.2303 Z M510.056,604.352 C509.992,604.352 509.928,604.416 509.864,604.48 L510.056,604.352 Z M509.416,604.8 C509.352,604.8 509.352,604.864 509.352,604.928 L509.416,604.864 C509.48,604.8 509.608,604.736 509.736,604.608 L509.416,604.8 Z M508.84,605.248 L508.648,605.44 L508.904,605.312 L509.16,605.056 L508.84,605.248 Z M508.776,606.144 L508.52,606.4 L508.264,606.528 C508.328,606.528 508.456,606.464 508.52,606.4 L508.776,606.208 L508.904,606.08 L508.776,606.144 Z M508.226397,605.720512 C508.158663,605.751614 508.090929,605.809075 508.023195,605.873928 C508.053232,605.85076 508.094616,605.824 508.136,605.824 C508.181093,605.778907 508.226186,605.733814 508.271279,605.711107 L508.226397,605.720512 Z M507.592503,606.231622 C507.624335,606.207665 507.656168,606.175832 507.688,606.144 C507.667022,606.144 507.639169,606.157752 507.606693,606.180748 L507.592503,606.231622 Z M506.92,606.656 C506.856,606.72 506.856,606.72 506.792,606.848 L507.112,606.592 C507.048,606.592 506.984,606.656 506.92,606.656 Z M506.408,607.936 C506.536,607.872 506.6,607.808 506.664,607.744 L506.408,607.936 Z M506.344,607.104 C506.28,607.168 506.28,607.168 506.216,607.296 C506.28,607.232 506.408,607.168 506.536,607.04 C506.472,607.04 506.408,607.104 506.344,607.104 Z M506.152,608.128 C506.088,608.192 506.024,608.256 505.96,608.256 L505.832,608.384 L506.152,608.192 L506.28,608.064 L506.152,608.128 Z M505,608.128 C505,608.128 505,608.192 504.936,608.256 L505,608.192 L505.384,608 L505.576,607.744 L505.96,607.488 C505.768,607.552 505.64,607.616 505.576,607.744 L505.256,607.936 L505,608.128 Z M503.72,609.28 L503.656,609.344 C503.72,609.344 503.72,609.28 503.784,609.28 C504.104,609.088 504.424,608.832 504.744,608.448 L503.72,609.28 Z M503.528,610.304 L503.4,610.368 L503.208,610.624 L503.528,610.304 Z M503.208,609.664 L502.44,610.432 L503.272,609.792 C503.336,609.664 503.336,609.664 503.336,609.6 C503.4,609.6 503.4,609.536 503.464,609.472 L503.208,609.664 Z M501.8,611.904 L501.672,612.032 L501.8,611.968 C501.992,611.712 502.12,611.584 502.184,611.52 L502.44,611.264 L502.12,611.52 L501.8,611.904 Z M501.224,612.352 C501.224,612.352 501.224,612.416 501.16,612.416 C501.096,612.416 501.096,612.416 501.096,612.48 L501.224,612.416 C501.288,612.288 501.288,612.288 501.352,612.224 L501.224,612.352 Z M500.328,612.352 L500.2,612.48 L500.328,612.416 L500.584,612.032 L500.328,612.352 Z M500.328,613.248 L500.2,613.248 L499.88,613.696 C499.752,613.824 499.624,613.888 499.56,613.952 L499.176,614.4 L498.728,614.784 C498.792,614.784 498.856,614.72 498.92,614.656 C499.048,614.528 499.176,614.4 499.24,614.4 L499.624,613.952 L499.944,613.696 L500.264,613.312 L500.328,613.248 Z M499.368,613.248 L499.048,613.504 L499.368,613.312 L500.072,612.608 C499.944,612.672 499.816,612.8 499.688,612.928 L499.368,613.248 Z M498.408,614.144 L498.344,614.208 L498.728,613.952 L498.408,614.144 Z M496.808,615.744 C496.936,615.616 497.064,615.488 497.128,615.488 L497.256,615.36 C497.192,615.36 497.192,615.424 497.128,615.424 L496.808,615.744 Z M496.488,616.128 L496.232,616.32 C496.296,616.32 496.36,616.256 496.424,616.192 L496.552,616.064 L496.488,616.128 Z M495.464,617.024 L495.336,617.152 L495.464,617.088 L495.784,616.832 L495.464,617.024 Z M495.144,617.536 C494.952,617.664 494.76,617.856 494.504,618.112 L495.144,617.536 Z M494.44,618.176 C494.248,618.304 494.12,618.496 494.056,618.624 C494.248,618.496 494.376,618.368 494.44,618.176 Z M493.288,619.392 C493.288,619.456 493.288,619.456 493.224,619.52 L493.416,619.328 L493.8,618.816 L493.416,619.264 L493.288,619.392 Z M493.224,621.504 L493.032,621.696 C493.16,621.632 493.224,621.568 493.224,621.504 Z M490.728,624.64 L490.728,624.704 L490.792,624.64 L491.176,624.192 L491.176,624.128 L490.728,624.64 Z M548.776,626.048 C549.736,626.24 549.8,626.24 549.032,627.264 C545.832,631.872 548.136,629.056 544.488,633.472 C542.12,636.416 539.688,639.232 536.936,641.856 C535.464,643.264 533.928,644.48 532.136,645.504 C530.728,646.336 529.256,646.72 527.784,646.784 C525.672,646.912 524.328,645.824 523.688,644.16 C523.112,642.688 523.048,641.024 523.176,639.36 C523.496,636.352 523.944,633.472 525.288,629.504 C527.08,623.616 529.768,617.92 533.032,612.352 C536.936,605.44 541.736,598.976 547.176,592.896 C548.712,591.232 550.184,589.696 551.976,588.224 C552.616,587.712 553.384,587.2 554.088,586.688 C557.416,584.704 560.744,585.6 561.384,588.608 C561.64,589.888 561.512,591.36 561.128,592.768 C559.4,599.872 555.176,606.144 549.288,611.712 C545.896,614.912 542.12,617.408 538.024,619.328 C536.424,620.096 534.888,620.48 533.352,620.16 C532.712,620.096 532.584,620.16 532.136,620.928 C531.688,621.952 531.176,622.976 530.792,624 C529.512,627.008 528.36,629.952 527.528,632.896 C526.76,635.52 526.184,638.08 526.056,640.64 C526.056,641.536 526.12,642.496 526.248,643.328 C526.504,643.968 526.76,644.544 527.08,645.12 C527.592,645.824 528.488,646.144 529.32,645.44 C530.536,644.416 532.136,643.776 533.416,642.688 C538.792,638.272 543.528,632 547.56,627.072 L547.496,626.688 C547.944,625.984 548.136,625.984 548.776,626.048 Z M557.416,599.744 C556.008,602.112 554.472,604.416 552.808,606.656 C552.616,606.912 552.488,607.104 552.36,607.424 C554.024,605.632 555.368,603.712 556.648,601.664 C557.032,601.024 557.352,600.32 557.672,599.68 C557.992,599.232 558.184,598.784 558.248,598.336 L557.544,599.552 C557.544,599.616 557.416,599.68 557.416,599.744 Z M553.791598,603.236706 C553.784903,603.245804 553.777098,603.254902 553.768,603.264 C553.777763,603.254237 553.786036,603.244474 553.793275,603.234712 L553.791598,603.236706 Z M554.664,601.856 C554.856,601.664 554.984,601.472 555.048,601.28 L554.664,601.856 Z M554.344,603.712 C554.344,603.776 554.344,603.776 554.216,603.776 L554.344,603.776 L554.344,603.712 Z M555.378665,600.702839 C555.4393,600.689794 555.503103,600.568897 555.624,600.448 L555.624,600.384 L555.56,600.448 C555.439872,600.568128 555.432484,600.688257 555.379126,600.702577 L555.378665,600.702839 Z M555.112,602.496 L554.664,603.072 C554.856,602.944 554.984,602.752 555.112,602.496 Z M555.96,601.168 C555.944,601.2 555.944,601.216 555.944,601.216 C555.944,601.184 555.96,601.168 555.984,601.144 L555.96,601.168 Z M555.688,601.472 L555.752,601.472 C555.816,601.472 555.88,601.408 555.88,601.344 C555.816,601.344 555.816,601.408 555.688,601.472 Z M556.2,599.36 L556.2,599.232 L556.2,599.36 Z M555.304,588.992 C553.192,590.656 551.4,592.576 549.672,594.496 C543.848,601.344 538.856,608.512 534.696,616.128 C534.44,616.64 534.12,617.216 533.864,617.792 C533.544,618.624 533.864,618.88 534.696,618.56 C534.824,618.56 535.016,618.56 535.144,618.432 C539.368,616.256 543.272,613.696 546.92,610.24 C552.168,605.312 555.88,599.68 558.248,592.896 C558.376,592.192 558.632,590.976 558.824,589.76 C558.888,589.12 558.76,588.544 558.696,587.968 C558.632,587.328 558.376,587.328 557.672,587.584 C556.84,587.968 556.072,588.416 555.304,588.992 Z M551.464,591.36 L551.016,591.808 C551.208,591.68 551.4,591.488 551.464,591.36 Z M546.856,596.224 C541.608,602.624 537,609.28 533.288,616.256 C532.968,616.832 532.712,617.344 532.456,617.856 C532.392,617.984 532.456,618.048 532.52,618.112 C532.584,618.048 532.712,618.048 532.776,617.92 L533.224,617.152 C536.808,610.368 541.096,603.84 546.088,597.632 C547.368,596.096 548.648,594.624 549.928,593.088 L550.504,592.448 C550.696,592.256 550.824,592.128 550.952,591.936 L550.376,592.384 L549.8,592.96 C548.84,594.048 547.752,595.136 546.856,596.224 Z M534.77024,612.351391 C534.767007,612.351797 534.763605,612.352 534.76,612.352 C534.763542,612.352 534.767083,612.351804 534.770636,612.351412 L534.77024,612.351391 Z M536.008,610.368 L535.72,610.752 C535.848,610.624 535.944,610.496 536.032,610.368 L536.008,610.368 Z M536.336,609.784 C536.312,609.84 536.296,609.888 536.296,609.92 C536.328,609.856 536.344,609.808 536.36,609.76 L536.336,609.784 Z M540.776,603.2 L540.84,603.136 C540.776,603.136 540.776,603.2 540.776,603.2 Z M545.96,595.264 L545.576,595.712 C545.768,595.584 545.832,595.456 545.96,595.328 L545.96,595.264 Z M544.616,596.928 C544.488,597.12 544.424,597.248 544.232,597.376 L544.296,597.376 L544.616,596.992 L544.616,596.928 Z M543.272,598.592 L542.952,598.976 L543.272,598.656 L543.272,598.592 Z M541.682149,601.994987 C541.710431,601.957633 541.736,601.913209 541.736,601.856 C541.736,601.898276 541.722037,601.93357 541.701029,601.964188 L541.682149,601.994987 Z M541.576,600.864 L541.608,600.832 L541.576,600.864 Z M541.576,600.864 L541.16,601.28 C541.16,601.303426 541.16,601.326851 541.156862,601.350277 L541.16,601.344 C541.288,601.152 541.48,601.024 541.544,600.896 L541.576,600.864 Z M540.688,602 C540.76,601.904 540.84,601.792 540.904,601.664 C540.808,601.76 540.728,601.856 540.664,601.952 L540.688,602 Z M538.216,606.784 C538.216,606.848 538.152,606.848 538.152,606.912 L538.216,606.848 C538.344,606.592 538.536,606.4 538.664,606.208 C538.472,606.4 538.344,606.592 538.216,606.784 Z M538.728,604.736 C538.664,604.736 538.664,604.8 538.664,604.8 L538.728,604.736 Z M538.020883,607.139671 C538.022892,607.127815 538.024,607.115908 538.024,607.104 C538.024,607.115592 538.02295,607.12666 538.020993,607.137297 L538.020883,607.139671 Z M537.448,608 C537.448,608.064 537.384,608.064 537.384,608.128 L537.448,608.064 L537.448,608 Z M536.872,608.928 L536.68,609.216 L536.872,608.928 Z M536.872,608.928 L537.064,608.64 C537.064,608.576 537.192,608.448 537.192,608.384 C537.192,608.448 537.064,608.512 537.064,608.64 L536.872,608.928 Z M537.512,606.336 L537.512,606.464 L537.512,606.4 C537.64,606.144 537.832,606.016 537.96,605.824 C537.768,606.016 537.64,606.144 537.512,606.336 Z M536.68,609.216 C536.616,609.28 536.552,609.28 536.552,609.344 L536.68,609.216 Z M537.264,606.872 C537.304,606.832 537.352,606.784 537.384,606.72 C537.352,606.784 537.32,606.832 537.288,606.872 L537.264,606.872 Z M536.808,607.616 C536.744,607.68 536.68,607.68 536.68,607.68 L536.744,607.68 L536.808,607.616 Z M536.432,608.12 C536.472,608.064 536.52,608 536.552,607.936 C536.52,608 536.488,608.048 536.456,608.096 L536.432,608.12 Z M535.211957,610.066695 L535.144,610.112 L534.888,610.56 L535.208,610.112 C535.208,610.091913 535.208,610.07813 535.211957,610.066695 Z M534.19476,613.41839 C534.222798,613.361593 534.248,613.304797 534.248,613.248 C534.248,613.29451 534.2311,613.34102 534.206512,613.387529 L534.19476,613.41839 Z M533.224,615.232 C533.48,614.976 533.48,614.72 533.608,614.464 L533.224,615.232 L533.16,615.232 L533.096,615.296 C532.712,615.808 532.328,616.384 532.2,617.024 C532.712,616.512 533.032,615.936 533.096,615.296 L533.16,615.296 L533.224,615.232 Z M531.112,619.2 C530.664,619.52 530.664,619.968 530.472,620.352 C530.92,620.032 530.984,619.584 531.112,619.2 Z M530.472,620.416 L530.152,620.992 L530.152,621.184 C530.216,621.184 530.28,621.12 530.28,621.056 L530.472,620.416 Z M531.112,619.136 C531.496,618.816 531.496,618.496 531.624,618.112 C531.304,618.432 531.176,618.752 531.112,619.136 Z M531.624,618.048 C532.008,617.792 532.072,617.472 532.136,617.088 L531.624,618.048 Z M534.312,611.584 L533.928,612.224 L534.376,611.584 L534.568,611.072 L534.312,611.584 Z M533.563069,612.887527 C533.51118,612.983486 533.450565,613.070718 533.352,613.12 C533.306772,613.210456 533.293506,613.300912 533.267028,613.391368 C533.304101,613.322552 533.333398,613.266602 533.416,613.184 C533.416,613.132751 533.498078,612.999423 533.563646,612.882606 L533.563069,612.887527 Z M533.267028,613.391368 C533.256038,613.428912 533.242772,613.466456 533.224,613.504 C533.246699,613.458602 533.261347,613.421255 533.276511,613.386248 L533.267028,613.391368 Z M532.904,614.016 C532.648,614.272 532.584,614.528 532.52,614.784 L532.904,614.016 Z M532.52,614.848 C532.136,615.104 532.136,615.36 532.008,615.616 C532.328,615.488 532.392,615.168 532.52,614.848 Z M532.008,615.68 C531.496,616.256 531.112,616.96 530.92,617.664 C531.496,617.024 531.816,616.32 532.008,615.68 Z M530.92,617.792 C530.408,618.368 530.088,619.008 529.896,619.712 C530.472,619.136 530.728,618.432 530.92,617.792 Z M525.672,630.656 L526.12,629.248 L526.056,629.312 L525.608,630.656 L525.672,630.656 Z M524.904,633.792 L525.224,632.64 L525.096,632.64 L524.776,633.792 L524.904,633.792 Z M527.016,627.072 L527.656,624.96 C527.144,625.6 527.016,626.368 526.76,627.136 L526.76,627.264 C526.824,627.2 526.952,627.136 527.016,627.072 Z M528.552,622.848 C529.064,622.336 529.128,621.76 529.256,621.248 C528.68,621.696 528.68,622.336 528.552,622.848 L528.488,622.848 L528.488,622.912 C527.912,623.552 527.848,624.192 527.656,624.896 C528.168,624.256 528.36,623.552 528.488,622.912 C528.552,622.912 528.552,622.912 528.552,622.848 Z M529.256,621.184 C529.704,620.8 529.768,620.224 529.896,619.776 C529.448,620.224 529.384,620.736 529.256,621.184 Z M525.567068,633.821886 C525.562702,633.833257 525.555371,633.844629 525.544,633.856 C525.556654,633.843346 525.568683,633.830692 525.580086,633.818099 L525.567068,633.821886 Z M527.4,628.16 L527.976,626.304 L527.912,626.304 L527.272,628.16 L527.4,628.16 Z M528.488,624.832 L528.68,624.832 C528.808,624.512 528.872,624.192 528.936,623.936 L528.872,623.936 L528.488,624.832 Z M529.384,622.848 C529.448,622.784 529.576,622.656 529.704,622.592 L529.64,622.208 C529.576,622.336 529.448,622.4 529.448,622.464 C529.384,622.592 529.384,622.72 529.384,622.848 Z M525.544,637.76 L525.608,637.696 C525.608,637.632 525.608,637.568 525.544,637.568 L525.544,637.632 C525.48,637.696 525.544,637.696 525.544,637.76 Z M528.104,628.608 C529.128,625.92 530.216,623.232 531.496,620.672 C531.624,620.288 531.944,619.968 531.688,619.584 C531.496,619.968 531.176,620.224 531.048,620.544 C529.704,623.36 528.488,626.24 527.592,629.056 C526.824,631.04 526.44,633.024 525.928,635.008 C525.736,635.52 525.8,635.904 525.672,636.416 L525.864,636.416 L526.12,635.648 C526.184,635.264 526.248,634.944 526.376,634.496 C526.952,632.576 527.336,630.592 528.104,628.608 Z M576.380758,628.845982 C576.333314,628.899807 576.30992,628.938751 576.289051,628.962814 C576.311122,628.961755 576.32711,628.92978 576.36,628.864 C576.36,628.864 576.367833,628.856167 576.380758,628.845982 Z M576.289051,628.962814 C576.272176,628.982271 576.256952,628.992 576.232,628.992 C576.26311,628.992 576.279098,628.992 576.294664,628.977298 L576.289051,628.962814 Z M576.380758,628.845982 C576.393345,628.831702 576.407625,628.816375 576.424,628.8 L576.488,628.8 C576.44639,628.8 576.404779,628.827053 576.380758,628.845982 Z M572.84,634.56 C572.84,634.496 572.968,634.304 572.968,634.24 L572.84,634.56 Z M573.736,633.024 L573.288,633.856 L572.968,634.24 L573.224,633.856 L573.672,633.024 L574.504,632.064 L573.736,633.024 Z M579.460708,626.590112 C579.425679,626.709333 579.403556,626.858667 579.304,627.008 L579.460708,626.590113 Z M579.460708,626.590112 C579.470716,626.556049 579.481778,626.524444 579.496,626.496 L579.460708,626.590113 Z M578.984,625.216 L579.176,624.96 L579.24,624.96 L578.984,625.216 Z M576.424,628.672 L576.68,628.352 C576.552,628.48 576.488,628.544 576.424,628.672 Z M578.307338,626.600321 C578.30463,626.588958 578.296643,626.576643 578.28,626.56 C578.296716,626.576716 578.3047,626.589066 578.306233,626.60047 L578.307338,626.600321 Z M578.307338,626.600321 C578.315042,626.632656 578.28,626.657286 578.28,626.752 C577.96,627.2 577.704,627.648 577.512,627.968 L578.216,626.752 C578.263284,626.657431 578.310569,626.632732 578.306233,626.60047 L578.307338,626.600321 Z M577.597786,626.840059 L577.96,626.176 L577.64,626.816 C577.623961,626.82402 577.609932,626.832039 577.597786,626.840059 Z M577.597786,626.840059 C577.513005,626.896039 577.52002,626.95202 577.576,627.008 C577.512,626.944 577.512,626.944 577.576,626.88 L577.597786,626.840059 Z M577.3584,628.2752 C577.22528,628.4288 577.0512,628.5824 577,628.736 L577.3584,628.2752 Z M577.3584,628.2752 C577.39168,628.2368 577.4224,628.1984 577.448,628.16 L577.3584,628.2752 Z M577.769592,629.651211 C577.750311,629.685235 577.729517,629.712668 577.705891,629.736145 L577.769592,629.651211 Z M577.705891,629.736145 L577.64,629.824 L577.384,630.336 C577.333449,630.361276 577.29288,630.376569 577.258351,630.397649 L577.32,630.336 L577.576,629.824 C577.628636,629.797682 577.67045,629.771364 577.705891,629.736145 Z M577.258351,630.397649 L577.178588,630.477412 C577.202292,630.4392 577.227986,630.416187 577.258351,630.397649 Z M577.178589,630.477411 C577.160995,630.505773 577.144497,630.542508 577.128,630.592 L576.936,631.04 L576.68,631.232 L576.872,631.04 L577.064,630.592 L577.178588,630.477412 L577.178589,630.477411 Z M577.769592,629.651211 C577.791724,629.612155 577.811862,629.564414 577.832,629.504 L578.024,628.992 L578.6,628.288 L578.088,628.992 L577.832,629.568 L577.769592,629.651211 Z M577.384,627.392 C577.32,627.456 577.256,627.648 577.192,627.776 L576.936,627.84 L577.064,627.584 L577.384,627.392 Z M572.136,638.592 L572.52,637.888 C572.264,638.016 572.136,638.272 572.136,638.592 Z M568.808,642.88 L568.744,643.072 L568.936,643.072 C568.232,644.48 567.144,645.568 565.992,646.656 C564.84,647.68 563.752,647.68 562.728,647.36 C561.768,646.976 561.384,645.888 561.256,644.736 C561.064,643.136 561.448,641.472 561.832,639.936 C562.344,637.44 563.368,634.944 564.392,632.512 C564.52,632.128 564.904,631.68 564.584,631.36 C564.328,631.552 564.072,631.872 563.816,632.192 C561.512,634.816 559.336,637.312 557.032,639.872 C556.008,640.896 554.728,641.984 553.576,642.816 C551.016,644.608 549.928,644.48 548.136,643.008 C546.664,641.92 546.6,640.064 547.048,637.952 C547.368,636.352 548.008,634.752 548.84,633.28 C552.232,627.776 556.264,623.232 561.576,620.032 C563.432,618.944 565.224,618.048 567.208,617.472 C568.808,617.024 570.216,617.088 571.624,617.728 C572.008,617.984 572.456,618.368 572.904,618.752 C573.096,618.88 573.096,619.2 573.16,619.456 C572.904,619.456 572.712,619.392 572.456,619.328 C570.984,618.624 569.32,619.008 567.592,619.648 C565.096,620.48 562.792,621.952 560.616,623.552 C556.648,626.624 553.448,630.464 550.888,634.88 C550.056,636.288 549.352,637.696 549.032,639.232 C548.904,640.064 548.84,640.832 548.968,641.6 C548.968,642.24 549.224,642.304 549.736,642.176 C550.056,642.112 550.312,641.984 550.632,641.792 C552.04,641.28 553.256,640.384 554.408,639.232 C555.752,637.888 557.16,636.544 558.44,635.072 L567.08,624.768 L568.744,622.72 C569,622.4 569.384,622.272 569.704,622.464 C569.896,622.528 570.152,622.656 570.344,622.784 C571.048,623.424 570.984,623.552 570.536,624.64 C568.552,628.416 566.76,632.256 565.224,636.096 C564.264,638.592 563.368,641.024 562.984,643.52 C562.984,644.224 562.984,644.928 563.048,645.568 C563.048,646.08 563.24,646.144 563.752,645.888 C564.136,645.632 564.52,645.312 564.712,644.992 C565.8,643.968 566.696,642.944 567.592,641.92 L568.424,640.96 L567.784,642.048 C567.528,642.432 567.336,642.752 567.144,643.072 C567.144,643.072 567.08,643.072 567.016,643.136 L567.144,643.136 C567.656,642.688 567.976,642.176 568.488,641.536 C571.24,637.888 573.736,634.048 576.104,630.144 C576.424,629.696 576.616,629.248 577,628.8 L576.488,630.016 C573.864,634.112 571.304,638.208 568.488,642.176 C568.168,642.624 567.592,643.136 567.656,643.776 C567.4,644.224 567.08,644.608 566.696,644.992 L566.696,645.056 L566.76,644.992 C567.4,644.736 567.976,644.16 568.104,643.456 L568.36,643.2 L568.552,643.2 L568.552,643.136 L568.616,643.136 L568.808,642.88 Z M558.12,624.768 L557.608,625.088 C556.904,625.536 554.856,627.84 554.856,627.84 L554.664,628.096 C554.536,628.16 554.472,628.288 554.344,628.416 L554.088,628.672 L552.552,630.784 C552.488,630.912 552.36,631.04 552.232,631.104 L551.656,632.256 C551.336,632.448 551.208,632.64 551.144,633.024 C551.144,633.088 550.952,633.216 551.016,633.216 C551.144,633.28 551.144,633.216 551.208,633.024 L551.72,632.384 L552.424,631.232 L552.616,630.976 C553.192,630.208 553.768,629.504 554.28,628.8 L554.472,628.544 C554.6,628.416 554.728,628.352 554.792,628.224 L555.048,628.032 L556.84,626.048 L557.736,625.152 C557.8,625.024 557.928,624.896 558.12,624.768 Z M557.352,624.512 C556.456,625.216 553.96,627.904 553.32,628.928 C553.64,628.608 556.84,625.024 557.352,624.512 Z M548.648,634.688 C550.696,631.744 553,628.352 553,628.352 L553.192,628.032 L553.768,627.456 L553.96,627.2 L554.152,627.008 L554.344,626.624 L554.088,626.88 L553.896,627.2 L553.448,627.712 L553.128,628.032 L552.936,628.288 C552.872,628.352 549.864,632.064 548.648,634.688 Z M567.848,624.512 C567.4,624.896 563.816,629.312 563.56,629.888 C564.072,629.568 567.592,625.088 567.848,624.512 Z M558.632,635.456 C558.568,635.52 558.504,635.584 558.504,635.648 L558.632,635.52 C558.696,635.328 562.6,631.232 563.048,630.656 C562.984,630.528 558.632,635.456 558.632,635.456 Z M557.672,636.544 C557.672,636.608 557.544,636.736 557.544,636.8 L557.992,636.288 L557.672,636.544 Z M557.096,637.376 L557.48,636.864 L557.096,637.376 Z M556.264,639.808 C556.264,639.744 556.392,639.744 556.328,639.68 C556.264,639.68 556.264,639.744 556.2,639.744 L556.072,640 L556.264,639.808 Z M556.712,639.296 C556.712,639.296 557.672,638.464 557.544,638.4 C557.48,638.4 556.648,639.232 556.648,639.232 C556.584,639.36 556.584,639.36 556.584,639.424 C556.648,639.424 556.648,639.424 556.712,639.296 Z M561.512,634.112 C562.6,632.768 563.752,631.36 564.84,629.952 L565.16,629.696 L565.352,629.504 C565.416,629.312 565.544,629.248 565.608,629.184 L565.928,628.544 C565.864,628.672 565.736,628.736 565.672,628.736 C565.544,628.928 565.48,628.992 565.416,629.056 L565.224,629.312 L564.968,629.632 L564.712,629.888 C564.264,630.4 563.88,630.912 563.368,631.36 L558.504,637.248 L558.312,637.568 L557.992,637.824 L557.736,638.144 L557.608,638.4 L557.8,638.144 L558.12,637.952 C558.12,637.824 558.248,637.696 558.376,637.632 L558.568,637.376 C559.592,636.224 560.552,635.2 561.512,634.112 Z M566.264,644.128 C566.216,644.192 566.184,644.256 566.184,644.288 C566.216,644.224 566.248,644.176 566.288,644.128 L566.264,644.128 Z M566.568,643.712 C566.696,643.648 566.76,643.52 566.824,643.392 L566.568,643.712 Z M571.368,639.68 L571.816,638.912 C571.56,639.104 571.368,639.36 571.368,639.68 Z M570.268995,638.333009 L570.344,638.208 C570.30233,638.24967 570.281009,638.291339 570.268995,638.333009 Z M570.268995,638.333009 C570.244104,638.419339 570.259165,638.50567 570.216,638.592 L569.448,639.552 L570.152,638.528 L570.268995,638.333009 Z M569.128,642.56 L569.768,641.792 L569.96,641.728 L569,642.944 L569.128,642.56 Z M569.96,641.728 L569.768,641.536 L570.6,640.704 C570.408,641.024 570.216,641.408 569.96,641.728 Z M571.816,638.912 L572.136,638.592 C572.072,638.656 571.944,638.72 571.816,638.912 Z M576.168,632.256 L576.36,631.872 C576.424,631.68 576.488,631.488 576.68,631.36 L576.168,632.256 Z M575.976,632.512 L576.04,632.448 L575.976,632.512 Z M575.976,632.512 L575.912,632.576 L575.528,633.408 C575.336,633.6 575.336,633.728 575.208,633.856 L575.464,633.408 L575.848,632.64 L575.976,632.512 Z M574.312,635.2 L574.504,634.944 L574.568,634.944 C574.504,634.944 574.504,635.008 574.504,635.008 L574.312,635.2 Z M573.288,636.736 L573.736,636.096 C573.544,636.224 573.288,636.48 573.288,636.736 Z M570.664,640.64 L570.664,640.448 L571.304,639.744 L570.664,640.64 Z M573.15998,636.99201 C573.159993,636.992003 573.16,636.992 573.16,636.992 C573.16,636.992 573.159993,636.992003 573.159979,636.99201 Z M573.159979,636.99201 C573.158129,636.992939 573.032,637.056469 573.032,637.12 C573.032,637.312 572.968,637.44 572.84,637.568 L572.968,637.056 C573.031532,637.056 573.15813,636.992933 573.15998,636.99201 Z M599.336,627.136 C600.488,626.56 601.256,626.688 601.64,627.584 C601.64,627.712 601.512,627.84 601.384,627.904 C600.872,628.224 600.424,628.544 599.912,628.864 C599.4,629.184 598.888,629.504 598.44,629.824 C597.928,630.208 597.224,630.72 596.328,631.36 C595.432,632.064 594.472,632.704 593.576,633.408 C592.616,634.112 591.72,634.816 590.824,635.456 C589.928,636.16 589.288,636.672 588.776,637.056 C588.264,637.376 587.944,637.632 587.88,637.824 C587.816,638.016 587.816,638.336 587.944,638.784 C588.264,640.128 588.392,641.6 588.328,643.072 C588.264,644.544 588.072,646.08 587.752,647.616 C587.24,649.984 586.344,652.288 585.192,654.528 C584.04,656.768 582.44,658.88 580.456,660.928 C579.048,662.272 577.64,663.424 576.232,664.256 C575.208,664.832 574.184,665.28 573.16,665.472 C572.136,665.664 571.176,665.664 570.216,665.472 C569.768,665.344 569.32,665.216 568.872,665.024 C568.424,664.896 568.04,664.704 567.656,664.512 C565.736,663.488 565.096,661.696 565.864,659.136 L566.184,658.112 C566.568,656.896 567.144,655.616 567.848,654.4 C568.488,653.184 569.256,652.032 570.152,650.944 C571.432,649.344 572.776,647.808 574.248,646.336 C575.656,644.864 577.192,643.52 578.856,642.176 C579.688,641.472 580.584,640.768 581.48,640.064 C582.376,639.36 583.336,638.656 584.296,637.952 C584.872,637.504 585.192,637.248 585.32,637.056 C585.384,636.928 585.32,636.544 585.192,635.968 C584.936,635.2 584.616,634.432 584.36,633.728 C584.104,633.024 583.848,632.256 583.656,631.488 L582.888,628.992 C582.632,628.16 582.44,627.328 582.248,626.496 C581.992,625.6 581.928,624.64 582.056,623.68 C582.056,623.424 582.12,623.168 582.184,622.976 L582.12,622.976 C582.44,621.952 583.08,621.184 583.912,620.544 L584.04,620.544 C585.512,620.096 586.92,619.776 588.328,619.584 C589.736,619.392 591.144,619.392 592.488,619.584 C593.448,619.712 594.408,619.904 595.24,620.224 C595.496,620.352 595.752,620.48 595.944,620.608 C596.072,620.736 596.136,620.864 596.264,620.992 C596.072,621.056 595.944,621.12 595.816,621.12 L595.048,621.312 C594.664,621.248 594.28,621.12 593.768,621.056 C592.232,620.864 590.76,620.864 589.224,621.12 C589.032,621.184 588.84,621.184 588.648,621.248 C587.88,621.44 587.176,621.632 586.472,621.824 C585.768,622.08 585.192,622.4 584.68,622.784 C584.168,623.168 583.912,623.616 583.912,624.128 C583.912,624.448 583.848,624.704 583.848,625.024 C583.848,625.344 583.848,625.6 583.976,625.92 C584.296,627.52 584.68,629.056 585.192,630.4 C585.384,631.168 585.64,631.936 585.896,632.64 C586.152,633.408 586.472,634.176 586.792,634.88 L586.984,635.456 C587.112,635.776 587.368,635.776 587.752,635.456 L588.968,634.56 L598.248,627.776 C598.376,627.648 598.568,627.52 598.76,627.392 C598.888,627.328 599.08,627.2 599.336,627.136 Z M583.08,640.576 L582.824,640.832 C582.952,640.704 583.016,640.64 583.144,640.576 L583.4,640.384 C583.528,640.256 583.592,640.192 583.72,640.128 L583.976,639.936 C584.104,639.808 584.168,639.744 584.296,639.68 L584.552,639.488 L584.872,639.232 C584.744,639.296 584.68,639.296 584.68,639.36 C584.616,639.424 584.552,639.424 584.488,639.488 L583.976,639.872 C583.912,639.936 583.784,640.064 583.656,640.128 L583.4,640.32 C583.336,640.384 583.208,640.512 583.08,640.576 Z M582.632,640.96 L582.376,641.088 C582.44,641.088 582.504,641.024 582.568,641.024 L582.632,640.96 Z M582.254277,641.212862 C582.294851,641.177723 582.335426,641.152 582.376,641.152 L582.254277,641.212862 Z M582.254277,641.212862 L582.248,641.216 C582.12,641.344 581.992,641.408 581.864,641.472 L581.608,641.664 C581.544,641.728 581.416,641.856 581.288,641.92 L580.392,642.816 L581.352,641.92 L581.608,641.728 C581.736,641.6 581.8,641.536 581.928,641.472 L582.184,641.28 C582.207426,641.256574 582.230851,641.233149 582.254277,641.212862 Z M580.328,641.472 L579.752,641.92 L580.072,641.728 L580.328,641.472 Z M579.258963,642.30163 C579.325333,642.254222 579.410667,642.197333 579.496,642.112 L579.258963,642.301629 L579.258963,642.30163 Z M578.856,644.16 C578.728,644.16 578.664,644.224 578.6,644.288 L578.856,644.16 Z M577.896,643.456 L577.704,643.648 L578.024,643.392 L577.896,643.456 Z M577.32,643.968 C577.192,644.032 577.128,644.16 577.064,644.224 L577.64,643.712 C577.512,643.776 577.384,643.904 577.32,643.968 Z M577,644.352 L576.552,644.608 L576.68,644.608 L577,644.352 Z M575.784,645.44 L575.784,645.504 L576.104,645.248 L575.784,645.44 Z M574.568,646.592 L574.824,646.4 C574.888,646.336 574.952,646.272 574.952,646.208 L574.568,646.592 Z M574.446277,646.777723 L574.44,646.784 C574.376,646.848 574.248,646.976 574.12,647.04 C574.12,647.104 574.056,647.104 574.056,647.104 C574.011932,647.148068 573.998208,647.192136 573.993933,647.236203 C574.013076,647.210924 574.066538,647.157462 574.12,647.104 C574.12,647.104 574.184,647.104 574.184,647.04 L574.44,646.848 C574.44,646.824574 574.44,646.801149 574.446277,646.777723 Z M573.672,647.552 L573.096,648.128 C573.224,648.064 573.288,647.936 573.416,647.808 C573.48,647.744 573.544,647.616 573.672,647.552 Z M570.984,650.752 C570.92,650.752 570.92,650.752 570.92,650.816 C570.92,650.816 570.984,650.816 572.392,649.088 L572.776,648.64 L572.968,648.384 L572.776,648.576 L572.392,649.024 L572.392,649.088 C572.008,649.28 571.688,649.536 571.496,649.792 C571.24,650.112 571.112,650.432 570.984,650.752 Z M571.24,651.456 L571.112,651.52 L571.112,651.584 L571.24,651.456 Z M570.984,652.544 C570.536,652.864 570.28,653.312 570.152,653.888 C570.28,653.696 570.472,653.44 570.6,653.248 C570.728,653.056 570.92,652.8 571.112,652.608 L572.264,651.072 C572.712,650.496 573.16,649.984 573.672,649.408 C574.12,648.896 574.568,648.32 575.08,647.744 L575.784,647.104 L576.36,646.4 L576.616,646.208 C576.744,646.08 576.808,645.952 576.936,645.824 C577.064,645.696 577.192,645.568 577.32,645.504 L577.704,645.12 C577.832,644.992 577.96,644.864 578.088,644.672 L577.256,645.44 L576.552,646.08 C576.424,646.208 576.36,646.272 576.36,646.336 L575.656,646.976 L575.016,647.68 C574.44,648.128 573.928,648.64 573.416,649.216 C572.904,649.792 572.456,650.368 572.136,650.944 C571.944,651.136 571.816,651.328 571.752,651.392 L570.984,652.544 Z M569.32,652.992 L569.32,653.056 C569.448,652.8 569.64,652.544 569.768,652.352 L569.32,652.992 Z M569.829519,654.424641 L569.704,654.592 L569.64,654.656 L569.704,654.656 C569.76058,654.59942 569.81716,654.49282 569.829519,654.424641 Z M569.576,654.72 L569.576,654.784 L569.576,654.72 Z M569.512,654.784 L569.512,654.848 L569.512,654.784 Z M579.51061,658.885146 C579.540106,658.862097 579.577903,658.839049 579.624,658.816 L579.688,658.752 C579.624,658.816 579.56,658.816 579.56,658.816 L579.51061,658.885146 Z M579.688,658.752 C580.072,658.432 580.456,658.048 580.712,657.536 C580.456,657.728 580.264,657.92 580.136,658.112 C580.008,658.304 579.816,658.56 579.688,658.752 Z M580.712,657.536 C580.712,657.490014 580.712,657.444028 580.759483,657.398043 C580.712,657.399555 580.712,657.435778 580.712,657.472 L580.712,657.536 Z M579.433063,658.993711 L579.24,659.264 C579.304,659.2 579.368,659.072 579.432,659.008 C579.432,659.003237 579.432354,658.998474 579.433063,658.993711 Z M580.52,658.816 L580.136,659.2 L580.52,658.88 L580.52,658.816 Z M583.54,655.76 C583.564,655.712 583.624,655.664 583.72,655.616 L583.54,655.76 Z M583.54,655.76 L583.4,655.872 C582.888,656.448 582.44,657.024 581.992,657.6 C581.544,658.176 581.096,658.816 580.648,659.392 L579.688,660.608 L580.776,659.584 C581.928,658.496 582.824,657.28 583.464,655.936 C583.464,655.872 583.528,655.872 583.528,655.808 C583.528,655.792 583.532,655.776 583.54,655.76 Z M581.096,657.024 L581.48,656.576 L581.032,657.024 L580.84,657.28 L581.096,657.024 Z M581.608,657.472 C581.48,657.536 581.416,657.6 581.416,657.664 C581.352,657.728 581.288,657.856 581.224,657.92 L581.032,658.176 L581.224,657.984 L581.608,657.472 Z M581.991209,655.693233 C581.99173,655.688576 581.992,655.684153 581.992,655.68 C581.992,655.68419 581.991726,655.68838 581.991195,655.69257 L581.991209,655.693233 Z M585.896,642.496 L585.896,639.936 C585.832,639.488 585.576,639.424 585.064,639.744 L584.424,640.192 L580.648,643.2 C578.856,644.672 577.128,646.272 575.592,647.936 C573.992,649.6 572.584,651.392 571.304,653.312 C570.536,654.4 569.896,655.424 569.384,656.512 C568.808,657.6 568.424,658.752 568.168,659.84 C568.04,660.16 567.976,660.48 567.976,660.8 C567.912,661.12 567.912,661.44 567.912,661.76 C568.04,663.36 568.936,664.064 570.664,663.936 C571.304,663.872 571.88,663.68 572.456,663.488 C573.032,663.296 573.608,663.04 574.248,662.72 C575.016,662.272 575.72,661.76 576.36,661.184 C577,660.672 577.576,660.096 578.216,659.456 C579.752,657.856 581.032,656.128 582.12,654.272 C583.208,652.48 584.168,650.496 584.936,648.256 L585.64,645.184 C585.768,644.288 585.896,643.392 585.896,642.496 Z M588.648,636.608 L588.712,636.544 L588.584,636.544 L588.648,636.608 Z M589.224,636.16 L589.352,636.032 L589.224,636.096 C589.096,636.16 589.096,636.16 589.096,636.224 C589.096,636.224 589.16,636.224 589.224,636.16 Z M590.376,635.264 C590.44,635.2 590.568,635.136 590.696,635.008 L590.376,635.2 C590.312,635.264 590.184,635.392 590.056,635.456 L589.8,635.648 L589.672,635.776 C589.672,635.776 589.736,635.776 589.864,635.712 L590.12,635.456 L590.376,635.264 Z M592.616,632.32 C592.744,632.256 592.808,632.192 592.936,632.128 C593.32,631.808 593.704,631.488 594.152,631.104 L592.616,632.32 Z M590.952,634.816 C591.016,634.752 591.144,634.688 591.272,634.56 L590.952,634.752 C590.888,634.816 590.888,634.816 590.888,634.88 L590.952,634.816 Z M591.464,633.216 L591.272,633.408 L591.784,633.024 L591.464,633.216 Z M591.564857,634.337313 C591.616571,634.301642 591.668286,634.291714 591.72,634.24 C591.72,634.198847 591.746462,634.184156 591.799385,634.161896 C591.708509,634.203531 591.625962,634.273609 591.569781,634.327014 L591.564857,634.337313 Z M591.799385,634.161896 C591.828767,634.149538 591.866306,634.134847 591.912,634.112 C591.878529,634.123157 591.847004,634.136259 591.817423,634.150627 L591.799385,634.161896 Z M592.71298,633.64751 C592.737535,633.619396 592.772767,633.6 592.808,633.6 L592.71298,633.64751 Z M592.71298,633.64751 L592.68,633.664 L592.68,633.728 C592.68,633.699233 592.692931,633.670465 592.71298,633.64751 Z M593.384,633.152 C593.384,633.152 593.448,633.088 593.576,633.024 L594.024,632.64 C593.704,632.896 593.512,633.024 593.512,633.024 L593.384,633.152 Z M594.856,632 L597.288,630.08 L597.352,630.016 C597.288,630.016 597.096,630.144 596.712,630.464 C596.328,630.784 595.88,631.168 595.432,631.488 C595.24,631.68 595.048,631.808 594.856,632 Z M599.08,628.736 L599.08,628.672 C599.016,628.736 598.888,628.864 598.76,628.928 L598.504,629.184 L598.184,629.376 L597.928,629.568 C597.864,629.632 597.8,629.632 597.8,629.696 L597.864,629.632 C597.992,629.504 598.12,629.44 598.248,629.376 L598.504,629.184 C598.632,629.056 598.696,628.992 598.824,628.928 L599.08,628.736 Z M616.104,627.136 C617.256,626.56 618.024,626.688 618.408,627.584 C618.408,627.712 618.28,627.84 618.152,627.904 C617.64,628.224 617.192,628.544 616.68,628.864 C616.168,629.184 615.656,629.504 615.208,629.824 C614.696,630.208 613.992,630.72 613.096,631.36 C612.2,632.064 611.24,632.704 610.344,633.408 C609.384,634.112 608.488,634.816 607.592,635.456 C606.696,636.16 606.056,636.672 605.544,637.056 C605.032,637.376 604.712,637.632 604.648,637.824 C604.584,638.016 604.584,638.336 604.712,638.784 C605.032,640.128 605.16,641.6 605.096,643.072 C605.032,644.544 604.84,646.08 604.52,647.616 C604.008,649.984 603.112,652.288 601.96,654.528 C600.808,656.768 599.208,658.88 597.224,660.928 C595.816,662.272 594.408,663.424 593,664.256 C591.976,664.832 590.952,665.28 589.928,665.472 C588.904,665.664 587.944,665.664 586.984,665.472 C586.536,665.344 586.088,665.216 585.64,665.024 C585.192,664.896 584.808,664.704 584.424,664.512 C582.504,663.488 581.864,661.696 582.632,659.136 L582.952,658.112 C583.336,656.896 583.912,655.616 584.616,654.4 C585.256,653.184 586.024,652.032 586.92,650.944 C588.2,649.344 589.544,647.808 591.016,646.336 C592.424,644.864 593.96,643.52 595.624,642.176 C596.456,641.472 597.352,640.768 598.248,640.064 C599.144,639.36 600.104,638.656 601.064,637.952 C601.64,637.504 601.96,637.248 602.088,637.056 C602.152,636.928 602.088,636.544 601.96,635.968 C601.704,635.2 601.384,634.432 601.128,633.728 C600.872,633.024 600.616,632.256 600.424,631.488 L599.656,628.992 C599.4,628.16 599.208,627.328 599.016,626.496 C598.76,625.6 598.696,624.64 598.824,623.68 C598.824,623.424 598.888,623.168 598.952,622.976 L598.888,622.976 C599.208,621.952 599.848,621.184 600.68,620.544 L600.808,620.544 C602.28,620.096 603.688,619.776 605.096,619.584 C606.504,619.392 607.912,619.392 609.256,619.584 C610.216,619.712 611.176,619.904 612.008,620.224 C612.264,620.352 612.52,620.48 612.712,620.608 C612.84,620.736 612.904,620.864 613.032,620.992 C612.84,621.056 612.712,621.12 612.584,621.12 L611.816,621.312 C611.432,621.248 611.048,621.12 610.536,621.056 C609,620.864 607.528,620.864 605.992,621.12 C605.8,621.184 605.608,621.184 605.416,621.248 C604.648,621.44 603.944,621.632 603.24,621.824 C602.536,622.08 601.96,622.4 601.448,622.784 C600.936,623.168 600.68,623.616 600.68,624.128 C600.68,624.448 600.616,624.704 600.616,625.024 C600.616,625.344 600.616,625.6 600.744,625.92 C601.064,627.52 601.448,629.056 601.96,630.4 C602.152,631.168 602.408,631.936 602.664,632.64 C602.92,633.408 603.24,634.176 603.56,634.88 L603.752,635.456 C603.88,635.776 604.136,635.776 604.52,635.456 L605.736,634.56 L615.016,627.776 C615.144,627.648 615.336,627.52 615.528,627.392 C615.656,627.328 615.848,627.2 616.104,627.136 Z M599.848,640.576 L599.592,640.832 C599.72,640.704 599.784,640.64 599.912,640.576 L600.168,640.384 C600.296,640.256 600.36,640.192 600.488,640.128 L600.744,639.936 C600.872,639.808 600.936,639.744 601.064,639.68 L601.32,639.488 L601.64,639.232 C601.512,639.296 601.448,639.296 601.448,639.36 C601.384,639.424 601.32,639.424 601.256,639.488 L600.744,639.872 C600.68,639.936 600.552,640.064 600.424,640.128 L600.168,640.32 C600.104,640.384 599.976,640.512 599.848,640.576 Z M599.4,640.96 L599.144,641.088 C599.208,641.088 599.272,641.024 599.336,641.024 L599.4,640.96 Z M599.022277,641.212862 L599.016,641.216 C598.888,641.344 598.76,641.408 598.632,641.472 L598.376,641.664 C598.312,641.728 598.184,641.856 598.056,641.92 L597.16,642.816 L598.12,641.92 L598.376,641.728 C598.504,641.6 598.568,641.536 598.696,641.472 L598.952,641.28 C598.975426,641.256574 598.998851,641.233149 599.022277,641.212862 Z M597.096,641.472 L596.52,641.92 L596.84,641.728 L597.096,641.472 Z M596.026963,642.30163 C596.093333,642.254222 596.178667,642.197333 596.264,642.112 L596.026963,642.301629 L596.026963,642.30163 Z M595.624,644.16 C595.496,644.16 595.432,644.224 595.368,644.288 L595.624,644.16 Z M594.664,643.456 L594.472,643.648 L594.792,643.392 L594.664,643.456 Z M594.088,643.968 C593.96,644.032 593.896,644.16 593.832,644.224 L594.408,643.712 C594.28,643.776 594.152,643.904 594.088,643.968 Z M593.768,644.352 L593.32,644.608 L593.448,644.608 L593.768,644.352 Z M592.552,645.44 L592.552,645.504 L592.872,645.248 L592.552,645.44 Z M591.336,646.592 L591.592,646.4 C591.656,646.336 591.72,646.272 591.72,646.208 L591.336,646.592 Z M591.214277,646.777723 L591.208,646.784 C591.144,646.848 591.016,646.976 590.888,647.04 C590.888,647.104 590.824,647.104 590.824,647.104 C590.779932,647.148068 590.766208,647.192136 590.761933,647.236203 C590.781076,647.210924 590.834538,647.157462 590.888,647.104 C590.888,647.104 590.952,647.104 590.952,647.04 L591.208,646.848 C591.208,646.824574 591.208,646.801149 591.214277,646.777723 Z M590.44,647.552 L589.864,648.128 C589.992,648.064 590.056,647.936 590.184,647.808 C590.248,647.744 590.312,647.616 590.44,647.552 Z M587.752,650.752 C587.688,650.752 587.688,650.752 587.688,650.816 C587.688,650.816 587.752,650.816 589.16,649.088 L589.544,648.64 L589.736,648.384 L589.544,648.576 L589.16,649.024 L589.16,649.088 C588.776,649.28 588.456,649.536 588.264,649.792 C588.008,650.112 587.88,650.432 587.752,650.752 Z M588.008,651.456 L587.88,651.52 L587.88,651.584 L588.008,651.456 Z M587.752,652.544 C587.304,652.864 587.048,653.312 586.92,653.888 C587.048,653.696 587.24,653.44 587.368,653.248 C587.496,653.056 587.688,652.8 587.88,652.608 L589.032,651.072 C589.48,650.496 589.928,649.984 590.44,649.408 C590.888,648.896 591.336,648.32 591.848,647.744 L592.552,647.104 L593.128,646.4 L593.384,646.208 C593.512,646.08 593.576,645.952 593.704,645.824 C593.832,645.696 593.96,645.568 594.088,645.504 L594.472,645.12 C594.6,644.992 594.728,644.864 594.856,644.672 L594.024,645.44 L593.32,646.08 C593.192,646.208 593.128,646.272 593.128,646.336 L592.424,646.976 L591.784,647.68 C591.208,648.128 590.696,648.64 590.184,649.216 C589.672,649.792 589.224,650.368 588.904,650.944 C588.712,651.136 588.584,651.328 588.52,651.392 L587.752,652.544 Z M586.088,652.992 L586.088,653.056 C586.216,652.8 586.408,652.544 586.536,652.352 L586.088,652.992 Z M586.597519,654.424641 L586.472,654.592 L586.408,654.656 L586.472,654.656 C586.52858,654.59942 586.58516,654.49282 586.597519,654.424641 Z M586.344,654.72 L586.344,654.784 L586.344,654.72 Z M586.28,654.784 L586.28,654.848 L586.28,654.784 Z M596.27861,658.885146 C596.308106,658.862097 596.345903,658.839049 596.392,658.816 L596.456,658.752 C596.392,658.816 596.328,658.816 596.328,658.816 L596.27861,658.885146 Z M596.456,658.752 C596.84,658.432 597.224,658.048 597.48,657.536 C597.224,657.728 597.032,657.92 596.904,658.112 C596.776,658.304 596.584,658.56 596.456,658.752 Z M597.48,657.536 C597.48,657.490014 597.48,657.444028 597.527483,657.398043 C597.48,657.399555 597.48,657.435778 597.48,657.472 L597.48,657.536 Z M596.201063,658.993711 L596.008,659.264 C596.072,659.2 596.136,659.072 596.2,659.008 C596.2,659.003237 596.200354,658.998474 596.201063,658.993711 Z M597.288,658.816 L596.904,659.2 L597.288,658.88 L597.288,658.816 Z M600.308,655.76 L600.168,655.872 C599.656,656.448 599.208,657.024 598.76,657.6 C598.312,658.176 597.864,658.816 597.416,659.392 L596.456,660.608 L597.544,659.584 C598.696,658.496 599.592,657.28 600.232,655.936 C600.232,655.872 600.296,655.872 600.296,655.808 C600.296,655.792 600.3,655.776 600.308,655.76 Z M597.864,657.024 L598.248,656.576 L597.8,657.024 L597.608,657.28 L597.864,657.024 Z M598.376,657.472 C598.248,657.536 598.184,657.6 598.184,657.664 C598.12,657.728 598.056,657.856 597.992,657.92 L597.8,658.176 L597.992,657.984 L598.376,657.472 Z M598.759209,655.693233 C598.75973,655.688576 598.76,655.684153 598.76,655.68 C598.76,655.68419 598.759726,655.68838 598.759195,655.69257 L598.759209,655.693233 Z M602.664,642.496 L602.664,639.936 C602.6,639.488 602.344,639.424 601.832,639.744 L601.192,640.192 L597.416,643.2 C595.624,644.672 593.896,646.272 592.36,647.936 C590.76,649.6 589.352,651.392 588.072,653.312 C587.304,654.4 586.664,655.424 586.152,656.512 C585.576,657.6 585.192,658.752 584.936,659.84 C584.808,660.16 584.744,660.48 584.744,660.8 C584.68,661.12 584.68,661.44 584.68,661.76 C584.808,663.36 585.704,664.064 587.432,663.936 C588.072,663.872 588.648,663.68 589.224,663.488 C589.8,663.296 590.376,663.04 591.016,662.72 C591.784,662.272 592.488,661.76 593.128,661.184 C593.768,660.672 594.344,660.096 594.984,659.456 C596.52,657.856 597.8,656.128 598.888,654.272 C599.976,652.48 600.936,650.496 601.704,648.256 L602.408,645.184 C602.536,644.288 602.664,643.392 602.664,642.496 Z M605.416,636.608 L605.48,636.544 L605.352,636.544 L605.416,636.608 Z M605.992,636.16 L606.12,636.032 L605.992,636.096 C605.864,636.16 605.864,636.16 605.864,636.224 C605.864,636.224 605.928,636.224 605.992,636.16 Z M607.144,635.264 C607.208,635.2 607.336,635.136 607.464,635.008 L607.144,635.2 C607.08,635.264 606.952,635.392 606.824,635.456 L606.568,635.648 L606.44,635.776 C606.44,635.776 606.504,635.776 606.632,635.712 L606.888,635.456 L607.144,635.264 Z M609.384,632.32 C609.512,632.256 609.576,632.192 609.704,632.128 C610.088,631.808 610.472,631.488 610.92,631.104 L609.384,632.32 Z M607.72,634.816 C607.784,634.752 607.912,634.688 608.04,634.56 L607.72,634.752 C607.656,634.816 607.656,634.816 607.656,634.88 L607.72,634.816 Z M608.232,633.216 L608.04,633.408 L608.552,633.024 L608.232,633.216 Z M608.332857,634.337313 C608.384571,634.301642 608.436286,634.291714 608.488,634.24 C608.488,634.198847 608.514462,634.184156 608.567385,634.161896 C608.476509,634.203531 608.393962,634.273609 608.337781,634.327014 L608.332857,634.337313 Z M608.567385,634.161896 C608.596767,634.149538 608.634306,634.134847 608.68,634.112 C608.646529,634.123157 608.615004,634.136259 608.585423,634.150627 L608.567385,634.161896 Z M609.48098,633.64751 L609.448,633.664 L609.448,633.728 C609.448,633.699233 609.460931,633.670465 609.48098,633.64751 Z M610.152,633.152 C610.152,633.152 610.216,633.088 610.344,633.024 L610.792,632.64 C610.472,632.896 610.28,633.024 610.28,633.024 L610.152,633.152 Z M611.624,632 C611.816,631.808 612.008,631.68 612.2,631.488 C612.648,631.168 613.096,630.784 613.48,630.464 C613.864,630.144 614.056,630.016 614.12,630.016 L614.056,630.08 L611.624,632 Z M615.848,628.736 L615.592,628.928 C615.464,628.992 615.4,629.056 615.272,629.184 L615.016,629.376 C614.888,629.44 614.76,629.504 614.632,629.632 L614.568,629.696 C614.568,629.632 614.632,629.632 614.696,629.568 L614.952,629.376 L615.272,629.184 L615.528,628.928 C615.656,628.864 615.784,628.736 615.848,628.672 L615.848,628.736 Z M627.944,637.312 L628.52,636.736 L627.944,637.312 Z M627.944,637.376 L627.88,637.376 L627.944,637.376 Z M628.584,636.544 L629.096,636.032 L628.84,636.352 L628.584,636.544 Z M629.224,635.904 L629.096,636.032 C629.16,635.968 629.224,635.968 629.224,635.904 Z M626.472,638.976 L627.112,638.4 C626.856,638.592 626.664,638.784 626.472,638.976 Z M628.008,636.544 L627.688,636.928 L627.816,636.544 L628.008,636.544 Z M633.192,630.208 C633.128,630.336 633.192,630.4 633.064,630.528 C632.872,630.784 632.616,631.04 632.488,631.232 C632.488,631.04 632.488,630.848 632.424,630.72 L632.424,630.656 C632.296,630.912 630.44,633.92 630.248,634.112 L629.8,634.56 C629.8,634.688 629.672,634.752 629.608,634.88 C629.992,634.688 630.12,634.432 630.248,634.176 L632.488,631.232 L629.416,635.648 L629.608,634.944 L629.48,634.944 L629.224,635.264 L629.224,634.944 C628.584,635.328 628.264,635.968 627.816,636.544 L627.56,636.928 L627.688,636.928 L627.432,637.312 C627.432,637.44 627.368,637.504 627.24,637.696 L627.304,637.632 L627.304,637.696 L627.624,637.696 L627.112,638.4 C626.984,638.272 626.984,638.144 626.984,638.016 L625.704,639.168 L625.576,639.488 L625.192,639.616 L625,639.616 L625,639.68 L625.192,639.68 C625,640.192 625,640.192 625.32,640.064 C624.36,641.088 623.336,642.176 622.312,643.136 C620.456,644.8 618.408,646.208 616.168,647.04 C613.416,648.128 611.24,648 609.32,646.848 C607.848,645.952 607.336,644.352 607.336,642.496 C607.272,640.768 607.848,638.912 608.616,637.056 C610.024,633.664 612.328,630.528 614.824,627.584 C617.576,624.384 620.52,621.504 624.04,619.2 C625,618.496 625.96,617.92 627.112,617.408 C629.8,616.128 632.68,617.408 632.808,619.904 C632.808,620.864 632.488,621.824 631.912,622.784 C630.312,625.6 628.072,627.968 625.256,629.824 C622.76,631.488 620.136,632.768 617.448,633.728 C616.168,634.176 614.824,634.496 613.48,634.432 C613.096,634.432 612.776,634.56 612.584,635.008 C611.048,637.632 609.896,640.32 609.704,643.008 C609.64,643.968 609.832,644.864 610.28,645.568 C610.664,646.592 611.56,647.04 612.968,646.784 C614.696,646.528 616.296,645.76 617.896,644.736 C619.88,643.392 621.736,641.92 623.528,640.256 C623.784,639.936 624.04,639.744 624.296,639.552 C624.232,639.616 624.168,639.744 624.232,639.872 L624.68,639.36 L624.744,639.36 C624.744,639.296 624.872,639.232 624.872,639.104 C624.808,639.232 624.68,639.296 624.68,639.36 L624.296,639.552 L626.472,637.184 L626.472,637.44 L626.792,637.12 C626.92,636.928 627.112,636.736 627.304,636.544 L626.856,636.736 L629.8,633.024 C629.992,632.832 631.72,629.824 631.912,630.08 C632.424,629.888 632.488,629.888 632.744,630.336 L633.192,630.208 Z M628.2,625.344 C628.2,625.28 628.264,625.216 628.328,625.152 L628.136,625.344 L628.2,625.344 Z M628.656245,624.631158 C628.668568,624.598974 628.69931,624.576 628.776,624.576 L628.968,624.256 L628.712,624.576 C628.712,624.60901 628.694974,624.624994 628.678485,624.641516 L628.656245,624.631158 Z M628.584,626.24 L628.648,626.176 L628.584,626.24 Z M629.52,623.56 C629.464,623.648 629.416,623.744 629.352,623.872 C629.416,623.744 629.48,623.648 629.544,623.56 L629.52,623.56 Z M630.632,623.616 L629.672,624.896 L629.352,625.28 L629.096,625.664 L628.648,626.112 L629.16,625.792 L629.8,625.024 L630.76,623.68 C630.824,623.616 630.952,623.36 631.016,623.168 C630.888,623.296 630.76,623.488 630.632,623.616 Z M629.736,624.256 C629.672,624.256 629.608,624.384 629.48,624.448 L629.48,624.512 L629.736,624.256 Z M630.12,622.72 L629.864,623.04 L630.12,622.784 L630.12,622.72 Z M625.064,620.864 C620.904,623.936 617.512,627.648 614.632,631.808 C614.376,632.128 614.248,632.512 614.056,632.832 C614.376,633.088 614.824,632.832 615.272,632.704 C618.408,631.616 621.48,630.208 624.424,628.16 C626.408,626.688 628.136,624.96 629.416,622.976 C629.928,622.208 630.312,621.44 630.696,620.608 C630.76,620.096 630.952,619.52 630.824,619.008 C630.824,618.304 630.504,618.048 629.736,618.304 C629.096,618.432 628.456,618.688 627.816,619.008 C626.856,619.584 625.96,620.16 625.064,620.864 Z M621.672,622.912 L621.416,623.04 C621.48,623.04 621.544,622.976 621.608,622.976 L621.672,622.912 Z M621.224,623.224 C621.272,623.184 621.32,623.136 621.352,623.104 C621.32,623.136 621.272,623.168 621.224,623.2 L621.224,623.224 Z M614.888,628.224 L614.952,628.288 L614.696,628.544 C614.76,628.48 614.824,628.352 614.888,628.224 Z M613.416,631.168 L613.288,631.296 C613.288,631.296 613.352,631.296 613.416,631.232 C613.544,631.04 613.672,630.848 613.8,630.72 C613.608,630.848 613.544,631.04 613.416,631.168 Z M620.2,624.128 L620.328,624.064 C620.36,624.032 620.376,624 620.4,623.976 L620.328,624 C620.328,624.064 620.328,624.064 620.2,624.128 Z M620.4,623.976 C620.424,623.952 620.456,623.936 620.52,623.936 L620.4,623.976 Z M620.2,624.128 L619.752,624.576 L619.176,625.088 L618.664,625.664 L617.512,626.944 C615.72,628.672 614.312,630.656 612.968,632.576 C612.904,632.64 612.904,632.704 612.84,632.768 C612.904,632.832 612.904,632.96 612.84,633.088 L613.096,632.896 C613.544,632.384 613.864,631.872 614.248,631.36 C615.336,629.888 616.488,628.48 617.576,627.008 C617.96,626.624 618.408,626.176 618.728,625.792 L619.304,625.152 L619.816,624.64 L620.2,624.128 Z M612.712,632.224 L612.712,632.256 L612.712,632.224 Z M612.712,632.224 L612.712,632.192 C612.904,631.936 613.032,631.808 613.096,631.616 C613.032,631.808 612.84,631.936 612.712,632.128 L612.712,632.224 Z M612.456,632.6 C612.488,632.56 612.52,632.512 612.52,632.448 C612.52,632.512 612.488,632.544 612.456,632.576 L612.456,632.6 Z M612.628774,631.257058 C612.604323,631.298835 612.584,631.334498 612.584,631.36 C612.584,631.339451 612.597196,631.312304 612.617231,631.280678 L612.628774,631.257058 Z M612.628774,631.257058 C612.665684,631.193992 612.712,631.116996 612.712,631.04 L613.032,630.72 C612.904,630.848 612.84,631.04 612.776,631.04 C612.732549,631.126902 612.659598,631.213804 612.617231,631.280678 L612.628774,631.257058 Z M609.896,635.648 L609.96,635.584 L609.768,635.648 L609.832,635.712 C609.896,635.712 609.896,635.648 609.896,635.648 Z M610.344,634.88 C610.344,634.816 610.408,634.752 610.344,634.752 L610.344,634.816 C610.28,634.88 610.344,634.88 610.344,634.88 Z M610.888,633.888 C610.872,633.92 610.856,633.952 610.856,633.984 C610.888,633.952 610.904,633.92 610.912,633.888 L610.888,633.888 Z M611.192856,633.436939 C611.251237,633.311275 611.309619,633.146381 611.368,633.088 L611.688,632.64 L611.304,633.088 C611.304,633.146376 611.250754,633.311243 611.192829,633.436902 L611.192856,633.436939 Z M612.328,631.616 C612.072,631.872 611.816,632.128 611.752,632.448 L612.328,631.616 Z M611.112,634.816 L611.112,634.752 L611.048,634.816 L611.112,634.816 Z M610.382077,637.598894 C610.389061,637.588596 610.397702,637.578298 610.408,637.568 C610.400967,637.575033 610.393934,637.582066 610.386986,637.589099 L610.382077,637.598894 Z M611.496,635.648 L612.008,634.56 C612.072,634.496 612.008,634.432 612.008,634.432 C611.944,634.432 611.816,634.432 611.816,634.496 L610.856,636.16 L610.792,636.48 L610.856,636.736 C610.856,636.672 610.92,636.544 610.984,636.544 C611.176,636.224 611.304,635.968 611.496,635.648 Z M627.368,637.312 L627.496,636.928 L627.176,637.312 L627.368,637.312 Z M627.816,635.84 C628.328,635.584 628.584,635.136 628.776,634.688 C628.52,635.072 628.2,635.456 627.816,635.84 Z M629.48,634.88 L629.544,634.56 L629.288,634.88 L629.48,634.88 Z M625.448,640 L625.576,639.488 C625.896,639.36 626.216,639.168 626.472,638.976 L625.448,640 Z M626.536,637.12 C626.6,636.992 626.728,636.864 626.856,636.8 L626.792,637.12 L626.536,637.12 Z M627.752,637.568 L627.752,637.504 L627.752,637.568 Z M627.691138,637.628862 C627.688,637.649149 627.688,637.672574 627.688,637.696 L627.624,637.696 L627.691138,637.628862 Z M627.691138,637.628862 C627.696574,637.593723 627.711426,637.568 627.752,637.568 L627.691138,637.628862 Z M632.923397,628.557589 C632.879635,628.600365 632.839854,628.640146 632.808,628.672 L632.88313,628.396522 L632.923397,628.557589 Z M632.88313,628.396522 L632.808,628.096 C632.808,628.096 632.936,628.096 633,627.968 L632.88313,628.396522 Z M632.923397,628.557589 C633.055488,628.428475 633.223854,628.272073 633.32,628.224 C633.384,628.16 633.512,628.096 633.64,628.096 C633.576,628.16 633.64,628.224 633.64,628.288 L633.064,629.12 L632.923397,628.557589 Z M633.041372,630.177097 L633,630.144 C633.013791,630.157791 633.027581,630.168609 633.041372,630.177097 Z M633.041372,630.177097 C633.091581,630.208 633.141791,630.208 633.192,630.208 L633.192,630.144 L633.96,629.12 C634.216,628.864 634.408,628.672 634.472,628.544 L634.28,629.12 C634.28,629.184 634.216,629.248 634.152,629.312 L633.32,630.4 L633.041372,630.177097 Z M635.496,627.008 C635.368,627.072 635.304,627.136 635.304,627.2 L635.496,627.008 Z M636.712,624.768 L637.032,624.384 L636.84,624.384 L636.712,624.768 Z M636.072,625.472 L635.752,625.856 L635.88,625.472 L636.072,625.472 Z M636.456,625.984 C636.392,625.984 636.392,625.92 636.328,625.92 L636.584,625.728 C636.584,625.856 636.456,625.92 636.456,625.984 Z M635.496,627.008 C635.56,627.008 635.496,626.944 635.496,626.944 L635.496,627.008 Z M634.856,627.712 L635.24,627.2 L635.304,627.2 L635.304,627.264 C635.176,627.392 635.048,627.584 634.856,627.712 Z M637.416,623.936 L637.224,623.936 L637.096,624.32 L637.416,623.936 Z M635.688,625.92 L635.304,626.304 L635.432,625.92 L635.688,625.92 Z M634.6,627.264 L634.92,626.752 L634.984,626.752 L634.6,627.264 Z M635.304,626.368 L634.984,626.752 L635.112,626.368 L635.304,626.368 Z M634.536848,625.819626 C634.539583,625.788417 634.551142,625.776858 634.6,625.728 L634.649311,625.671645 C634.554979,625.722804 634.539179,625.773963 634.536532,625.825122 L634.536848,625.819626 Z M634.649311,625.671645 L635.048,625.216 L634.664,625.664 C634.658903,625.666548 634.654009,625.669097 634.649311,625.671645 Z M634.536848,625.819626 C634.536,625.829298 634.536,625.840858 634.536,625.856 C634.536,625.845707 634.536,625.835414 634.536532,625.825122 L634.536848,625.819626 Z M634.372794,626.054198 C634.322459,626.071743 634.28,626.123872 634.28,626.176 L633.896,626.624 L633.896,626.56 C634.024,626.432 634.152,626.304 634.28,626.112 C634.28,626.112 634.321954,626.070046 634.371895,626.054074 L634.372794,626.054198 Z M634.372794,626.054198 C634.384257,626.050202 634.396128,626.048 634.408,626.048 C634.395818,626.048 634.383636,626.050319 634.371895,626.054074 L634.372794,626.054198 Z M636.776,623.232 C636.968,623.04 637.096,622.784 637.288,623.04 L636.776,623.232 Z M637.16,625.024 L637.416,624.768 L637.352,624.768 L637.16,625.024 Z M635.112,626.368 L635.56,625.024 L635.048,625.216 L636.392,623.744 L636.264,624.128 L637.288,623.04 C637.608,623.04 637.672,623.168 637.608,623.488 L637.288,623.872 L637.224,623.936 L637.16,623.936 L636.84,624.384 C636.52,624.704 636.2,625.088 635.816,625.472 L635.88,625.472 C635.688,625.6 635.56,625.792 635.432,625.92 L635.112,626.368 Z M637.8,623.488 L637.608,623.488 L637.48,623.872 L637.8,623.488 Z M637.032,624.384 L637.096,624.384 L637.096,624.32 L637.032,624.32 L637.032,624.384 Z M637.416,624.768 C637.608,624.256 637.928,623.936 638.376,623.616 C638.248,624.064 637.864,624.448 637.416,624.768 Z M653.992,627.136 C655.144,626.56 655.912,626.688 656.296,627.584 C656.296,627.712 656.168,627.84 656.04,627.904 C655.528,628.224 655.08,628.544 654.568,628.864 C654.056,629.184 653.544,629.504 653.096,629.824 C652.584,630.208 651.88,630.72 650.984,631.36 C650.088,632.064 649.128,632.704 648.232,633.408 C647.272,634.112 646.376,634.816 645.48,635.456 C644.584,636.16 643.944,636.672 643.432,637.056 C642.92,637.376 642.6,637.632 642.536,637.824 C642.472,638.016 642.472,638.336 642.6,638.784 C642.92,640.128 643.048,641.6 642.984,643.072 C642.92,644.544 642.728,646.08 642.408,647.616 C641.896,649.984 641,652.288 639.848,654.528 C638.696,656.768 637.096,658.88 635.112,660.928 C633.704,662.272 632.296,663.424 630.888,664.256 C629.864,664.832 628.84,665.28 627.816,665.472 C626.792,665.664 625.832,665.664 624.872,665.472 C624.424,665.344 623.976,665.216 623.528,665.024 C623.08,664.896 622.696,664.704 622.312,664.512 C620.392,663.488 619.752,661.696 620.52,659.136 L620.84,658.112 C621.224,656.896 621.8,655.616 622.504,654.4 C623.144,653.184 623.912,652.032 624.808,650.944 C626.088,649.344 627.432,647.808 628.904,646.336 C630.312,644.864 631.848,643.52 633.512,642.176 C634.344,641.472 635.24,640.768 636.136,640.064 C637.032,639.36 637.992,638.656 638.952,637.952 C639.528,637.504 639.848,637.248 639.976,637.056 C640.04,636.928 639.976,636.544 639.848,635.968 C639.592,635.2 639.272,634.432 639.016,633.728 C638.76,633.024 638.504,632.256 638.312,631.488 L637.544,628.992 C637.288,628.16 637.096,627.328 636.904,626.496 C636.648,625.6 636.584,624.64 636.712,623.68 C636.712,623.424 636.776,623.168 636.84,622.976 L636.776,622.976 C637.096,621.952 637.736,621.184 638.568,620.544 L638.696,620.544 C640.168,620.096 641.576,619.776 642.984,619.584 C644.392,619.392 645.8,619.392 647.144,619.584 C648.104,619.712 649.064,619.904 649.896,620.224 C650.152,620.352 650.408,620.48 650.6,620.608 C650.728,620.736 650.792,620.864 650.92,620.992 C650.728,621.056 650.6,621.12 650.472,621.12 L649.704,621.312 C649.32,621.248 648.936,621.12 648.424,621.056 C646.888,620.864 645.416,620.864 643.88,621.12 C643.688,621.184 643.496,621.184 643.304,621.248 C642.536,621.44 641.832,621.632 641.128,621.824 C640.424,622.08 639.848,622.4 639.336,622.784 C638.824,623.168 638.568,623.616 638.568,624.128 C638.568,624.448 638.504,624.704 638.504,625.024 C638.504,625.344 638.504,625.6 638.632,625.92 C638.952,627.52 639.336,629.056 639.848,630.4 C640.04,631.168 640.296,631.936 640.552,632.64 C640.808,633.408 641.128,634.176 641.448,634.88 L641.64,635.456 C641.768,635.776 642.024,635.776 642.408,635.456 L643.624,634.56 L652.904,627.776 C653.032,627.648 653.224,627.52 653.416,627.392 C653.544,627.328 653.736,627.2 653.992,627.136 Z M637.736,640.576 L637.48,640.832 C637.608,640.704 637.672,640.64 637.8,640.576 L638.056,640.384 C638.184,640.256 638.248,640.192 638.376,640.128 L638.632,639.936 C638.76,639.808 638.824,639.744 638.952,639.68 L639.208,639.488 L639.528,639.232 C639.4,639.296 639.336,639.296 639.336,639.36 C639.272,639.424 639.208,639.424 639.144,639.488 L638.632,639.872 C638.568,639.936 638.44,640.064 638.312,640.128 L638.056,640.32 C637.992,640.384 637.864,640.512 637.736,640.576 Z M637.288,640.96 L637.032,641.088 C637.096,641.088 637.16,641.024 637.224,641.024 L637.288,640.96 Z M636.910277,641.212862 C636.950851,641.177723 636.991426,641.152 637.032,641.152 L636.910277,641.212862 Z M636.910277,641.212862 L636.904,641.216 C636.776,641.344 636.648,641.408 636.52,641.472 L636.264,641.664 C636.2,641.728 636.072,641.856 635.944,641.92 L635.048,642.816 L636.008,641.92 L636.264,641.728 C636.392,641.6 636.456,641.536 636.584,641.472 L636.84,641.28 C636.863426,641.256574 636.886851,641.233149 636.910277,641.212862 Z M634.984,641.472 L634.408,641.92 L634.728,641.728 L634.984,641.472 Z M633.914963,642.30163 C633.981333,642.254222 634.066667,642.197333 634.152,642.112 L633.914963,642.301629 L633.914963,642.30163 Z M633.512,644.16 C633.384,644.16 633.32,644.224 633.256,644.288 L633.512,644.16 Z M632.552,643.456 L632.36,643.648 L632.68,643.392 L632.552,643.456 Z M631.976,643.968 C631.848,644.032 631.784,644.16 631.72,644.224 L632.296,643.712 C632.168,643.776 632.04,643.904 631.976,643.968 Z M631.656,644.352 L631.208,644.608 L631.336,644.608 L631.656,644.352 Z M630.44,645.44 L630.44,645.504 L630.76,645.248 L630.44,645.44 Z M629.224,646.592 L629.48,646.4 C629.544,646.336 629.608,646.272 629.608,646.208 L629.224,646.592 Z M629.102277,646.777723 L629.096,646.784 C629.032,646.848 628.904,646.976 628.776,647.04 C628.776,647.104 628.712,647.104 628.712,647.104 C628.667932,647.148068 628.654208,647.192136 628.649933,647.236203 C628.669076,647.210924 628.722538,647.157462 628.776,647.104 C628.776,647.104 628.84,647.104 628.84,647.04 L629.096,646.848 C629.096,646.824574 629.096,646.801149 629.102277,646.777723 Z M628.328,647.552 L627.752,648.128 C627.88,648.064 627.944,647.936 628.072,647.808 C628.136,647.744 628.2,647.616 628.328,647.552 Z M625.64,650.752 C625.576,650.752 625.576,650.752 625.576,650.816 C625.576,650.816 625.64,650.816 627.048,649.088 L627.432,648.64 L627.624,648.384 L627.432,648.576 L627.048,649.024 L627.048,649.088 C626.664,649.28 626.344,649.536 626.152,649.792 C625.896,650.112 625.768,650.432 625.64,650.752 Z M625.896,651.456 L625.768,651.52 L625.768,651.584 L625.896,651.456 Z M625.64,652.544 C625.192,652.864 624.936,653.312 624.808,653.888 C624.936,653.696 625.128,653.44 625.256,653.248 C625.384,653.056 625.576,652.8 625.768,652.608 L626.92,651.072 C627.368,650.496 627.816,649.984 628.328,649.408 C628.776,648.896 629.224,648.32 629.736,647.744 L630.44,647.104 L631.016,646.4 L631.272,646.208 C631.4,646.08 631.464,645.952 631.592,645.824 C631.72,645.696 631.848,645.568 631.976,645.504 L632.36,645.12 C632.488,644.992 632.616,644.864 632.744,644.672 L631.912,645.44 L631.208,646.08 C631.08,646.208 631.016,646.272 631.016,646.336 L630.312,646.976 L629.672,647.68 C629.096,648.128 628.584,648.64 628.072,649.216 C627.56,649.792 627.112,650.368 626.792,650.944 C626.6,651.136 626.472,651.328 626.408,651.392 L625.64,652.544 Z M623.976,652.992 L623.976,653.056 C624.104,652.8 624.296,652.544 624.424,652.352 L623.976,652.992 Z M624.485519,654.424641 L624.36,654.592 L624.296,654.656 L624.36,654.656 C624.41658,654.59942 624.47316,654.49282 624.485519,654.424641 Z M624.232,654.72 L624.232,654.784 L624.232,654.72 Z M624.168,654.784 L624.168,654.848 L624.168,654.784 Z M634.16661,658.885146 C634.196106,658.862097 634.233903,658.839049 634.28,658.816 L634.344,658.752 C634.28,658.816 634.216,658.816 634.216,658.816 L634.16661,658.885146 Z M634.344,658.752 C634.728,658.432 635.112,658.048 635.368,657.536 C635.112,657.728 634.92,657.92 634.792,658.112 C634.664,658.304 634.472,658.56 634.344,658.752 Z M635.368,657.536 C635.368,657.490014 635.368,657.444028 635.415483,657.398043 C635.368,657.399555 635.368,657.435778 635.368,657.472 L635.368,657.536 Z M634.089063,658.993711 L633.896,659.264 C633.96,659.2 634.024,659.072 634.088,659.008 C634.088,659.003237 634.088354,658.998474 634.089063,658.993711 Z M635.176,658.816 L634.792,659.2 L635.176,658.88 L635.176,658.816 Z M638.196,655.76 L638.056,655.872 C637.544,656.448 637.096,657.024 636.648,657.6 C636.2,658.176 635.752,658.816 635.304,659.392 L634.344,660.608 L635.432,659.584 C636.584,658.496 637.48,657.28 638.12,655.936 C638.12,655.872 638.184,655.872 638.184,655.808 C638.184,655.792 638.188,655.776 638.196,655.76 Z M635.752,657.024 L636.136,656.576 L635.688,657.024 L635.496,657.28 L635.752,657.024 Z M636.264,657.472 C636.136,657.536 636.072,657.6 636.072,657.664 C636.008,657.728 635.944,657.856 635.88,657.92 L635.688,658.176 L635.88,657.984 L636.264,657.472 Z M636.647209,655.693233 C636.64773,655.688576 636.648,655.684153 636.648,655.68 C636.648,655.68419 636.647726,655.68838 636.647195,655.69257 L636.647209,655.693233 Z M640.552,642.496 L640.552,639.936 C640.488,639.488 640.232,639.424 639.72,639.744 L639.08,640.192 L635.304,643.2 C633.512,644.672 631.784,646.272 630.248,647.936 C628.648,649.6 627.24,651.392 625.96,653.312 C625.192,654.4 624.552,655.424 624.04,656.512 C623.464,657.6 623.08,658.752 622.824,659.84 C622.696,660.16 622.632,660.48 622.632,660.8 C622.568,661.12 622.568,661.44 622.568,661.76 C622.696,663.36 623.592,664.064 625.32,663.936 C625.96,663.872 626.536,663.68 627.112,663.488 C627.688,663.296 628.264,663.04 628.904,662.72 C629.672,662.272 630.376,661.76 631.016,661.184 C631.656,660.672 632.232,660.096 632.872,659.456 C634.408,657.856 635.688,656.128 636.776,654.272 C637.864,652.48 638.824,650.496 639.592,648.256 L640.296,645.184 C640.424,644.288 640.552,643.392 640.552,642.496 Z M643.304,636.608 L643.368,636.544 L643.24,636.544 L643.304,636.608 Z M643.88,636.16 L644.008,636.032 L643.88,636.096 C643.752,636.16 643.752,636.16 643.752,636.224 C643.752,636.224 643.816,636.224 643.88,636.16 Z M645.032,635.264 C645.096,635.2 645.224,635.136 645.352,635.008 L645.032,635.2 C644.968,635.264 644.84,635.392 644.712,635.456 L644.456,635.648 L644.328,635.776 C644.328,635.776 644.392,635.776 644.52,635.712 L644.776,635.456 L645.032,635.264 Z M647.272,632.32 C647.4,632.256 647.464,632.192 647.592,632.128 C647.976,631.808 648.36,631.488 648.808,631.104 L647.272,632.32 Z M645.608,634.816 C645.672,634.752 645.8,634.688 645.928,634.56 L645.608,634.752 C645.544,634.816 645.544,634.816 645.544,634.88 L645.608,634.816 Z M646.12,633.216 L645.928,633.408 L646.44,633.024 L646.12,633.216 Z M646.220857,634.337313 C646.272571,634.301642 646.324286,634.291714 646.376,634.24 C646.376,634.198847 646.402462,634.184156 646.455385,634.161896 C646.364509,634.203531 646.281962,634.273609 646.225781,634.327014 L646.220857,634.337313 Z M646.455385,634.161896 C646.484767,634.149538 646.522306,634.134847 646.568,634.112 C646.534529,634.123157 646.503004,634.136259 646.473423,634.150627 L646.455385,634.161896 Z M647.36898,633.64751 C647.393535,633.619396 647.428767,633.6 647.464,633.6 L647.36898,633.64751 Z M647.36898,633.64751 L647.336,633.664 L647.336,633.728 C647.336,633.699233 647.348931,633.670465 647.36898,633.64751 Z M648.04,633.152 C648.04,633.152 648.104,633.088 648.232,633.024 L648.68,632.64 C648.36,632.896 648.168,633.024 648.168,633.024 L648.04,633.152 Z M649.512,632 L651.944,630.08 L652.008,630.016 C651.944,630.016 651.752,630.144 651.368,630.464 C650.984,630.784 650.536,631.168 650.088,631.488 C649.896,631.68 649.704,631.808 649.512,632 Z M653.736,628.736 L653.736,628.672 C653.672,628.736 653.544,628.864 653.416,628.928 L653.16,629.184 L652.84,629.376 L652.584,629.568 C652.52,629.632 652.456,629.632 652.456,629.696 L652.52,629.632 C652.648,629.504 652.776,629.44 652.904,629.376 L653.16,629.184 C653.288,629.056 653.352,628.992 653.48,628.928 L653.736,628.736 Z" id="Classes"></path>
        </g>
    </g>
</svg>