<?xml version="1.0" encoding="UTF-8" standalone="no"?>
<svg width="330px" height="93px" viewBox="0 0 330 93" version="1.1" xmlns="http://www.w3.org/2000/svg" xmlns:xlink="http://www.w3.org/1999/xlink">
    <!-- Generator: Sketch 50.2 (55047) - http://www.bohemiancoding.com/sketch -->
    <title>serv-banner</title>
    <desc>Created with Sketch.</desc>
    <defs></defs>
    <g id="Page-1" stroke="none" stroke-width="1" fill="none" fill-rule="evenodd">
        <g id="Fonts-and-colors" transform="translate(-688.000000, -1519.000000)">
            <g id="serv-banner" transform="translate(688.000000, 1511.000000)">
                <path d="M33.5,58.5 L296.507604,58.5" id="Line-3-Copy" stroke="#805278" stroke-linecap="round" stroke-linejoin="round"></path>
                <path d="M300.75,63.9673112 C300.75,63.8752297 300.770566,63.779313 300.811698,63.679558 C300.85283,63.5798031 300.914527,63.4915596 300.996792,63.414825 L312.744077,52.4571823 C312.908606,52.3190601 313.106037,52.25 313.336377,52.25 C313.566717,52.25 313.764149,52.3190601 313.928677,52.4571823 L325.503208,63.2767035 C325.667737,63.4301727 325.75,63.6143329 325.75,63.8291897 C325.75,64.0440465 325.667737,64.2282067 325.503208,64.3816759 C325.33868,64.535145 325.141248,64.6118785 324.910908,64.6118785 C324.680568,64.6118785 324.483137,64.535145 324.318608,64.3816759 L313.336377,54.1376611 L302.181392,64.5197974 C302.016863,64.6732666 301.819432,64.75 301.589092,64.75 C301.358752,64.75 301.16132,64.6732666 300.996792,64.5197974 C300.914527,64.4430628 300.85283,64.3586561 300.811698,64.2665746 C300.770566,64.1744931 300.75,64.0747396 300.75,63.9673112 Z" id="Swipe-Up-Copy" fill="#805278" transform="translate(313.250000, 58.500000) rotate(-270.000000) translate(-313.250000, -58.500000) "></path>
                <path d="M-5.77705832,63.9673112 C-5.77705832,63.8752297 -5.75649255,63.779313 -5.71536039,63.679558 C-5.67422824,63.5798031 -5.61253093,63.4915596 -5.53026661,63.414825 L6.21701868,52.4571823 C6.38154731,52.3190601 6.5789787,52.25 6.80931878,52.25 C7.03965886,52.25 7.23709025,52.3190601 7.40161888,52.4571823 L18.97615,63.2767035 C19.1406786,63.4301727 19.2229417,63.6143329 19.2229417,63.8291897 C19.2229417,64.0440465 19.1406786,64.2282067 18.97615,64.3816759 C18.8116213,64.535145 18.61419,64.6118785 18.3838499,64.6118785 C18.1535098,64.6118785 17.9560784,64.535145 17.7915498,64.3816759 L6.80931878,54.1376611 L-4.34566642,64.5197974 C-4.51019504,64.6732666 -4.70762644,64.75 -4.93796651,64.75 C-5.16830659,64.75 -5.36573799,64.6732666 -5.53026661,64.5197974 C-5.61253093,64.4430628 -5.67422824,64.3586561 -5.71536039,64.2665746 C-5.75649255,64.1744931 -5.77705832,64.0747396 -5.77705832,63.9673112 Z" id="Swipe-Up-Copy-2" fill="#805278" transform="translate(6.722942, 58.500000) scale(-1, 1) rotate(-270.000000) translate(-6.722942, -58.500000) "></path>
                <path d="M310.75,63.9673112 C310.75,63.8752297 310.770566,63.779313 310.811698,63.679558 C310.85283,63.5798031 310.914527,63.4915596 310.996792,63.414825 L322.744077,52.4571823 C322.908606,52.3190601 323.106037,52.25 323.336377,52.25 C323.566717,52.25 323.764149,52.3190601 323.928677,52.4571823 L335.503208,63.2767035 C335.667737,63.4301727 335.75,63.6143329 335.75,63.8291897 C335.75,64.0440465 335.667737,64.2282067 335.503208,64.3816759 C335.33868,64.535145 335.141248,64.6118785 334.910908,64.6118785 C334.680568,64.6118785 334.483137,64.535145 334.318608,64.3816759 L323.336377,54.1376611 L312.181392,64.5197974 C312.016863,64.6732666 311.819432,64.75 311.589092,64.75 C311.358752,64.75 311.16132,64.6732666 310.996792,64.5197974 C310.914527,64.4430628 310.85283,64.3586561 310.811698,64.2665746 C310.770566,64.1744931 310.75,64.0747396 310.75,63.9673112 Z" id="Swipe-Up-Copy" fill="#805278" transform="translate(323.250000, 58.500000) rotate(-270.000000) translate(-323.250000, -58.500000) "></path>
                <path d="M4.22294168,63.9673112 C4.22294168,63.8752297 4.24350745,63.779313 4.28463961,63.679558 C4.32577176,63.5798031 4.38746907,63.4915596 4.46973339,63.414825 L16.2170187,52.4571823 C16.3815473,52.3190601 16.5789787,52.25 16.8093188,52.25 C17.0396589,52.25 17.2370902,52.3190601 17.4016189,52.4571823 L28.97615,63.2767035 C29.1406786,63.4301727 29.2229417,63.6143329 29.2229417,63.8291897 C29.2229417,64.0440465 29.1406786,64.2282067 28.97615,64.3816759 C28.8116213,64.535145 28.61419,64.6118785 28.3838499,64.6118785 C28.1535098,64.6118785 27.9560784,64.535145 27.7915498,64.3816759 L16.8093188,54.1376611 L5.65433358,64.5197974 C5.48980496,64.6732666 5.29237356,64.75 5.06203349,64.75 C4.83169341,64.75 4.63426201,64.6732666 4.46973339,64.5197974 C4.38746907,64.4430628 4.32577176,64.3586561 4.28463961,64.2665746 C4.24350745,64.1744931 4.22294168,64.0747396 4.22294168,63.9673112 Z" id="Swipe-Up-Copy-3" fill="#805278" transform="translate(16.722942, 58.500000) scale(-1, 1) rotate(-270.000000) translate(-16.722942, -58.500000) "></path>
                <path d="M163.576,38.992 L164.152,39.44 L163.384,40.08 C162.296,40.848 161.144,41.68 160.056,42.512 C158.968,43.28 157.816,44.112 156.728,44.944 C155.512,45.776 154.232,46.48 153.016,47.12 C151.8,47.696 150.52,48.272 149.176,48.912 C146.936,49.872 144.504,50.64 142.008,51.28 C141.304,51.408 140.728,51.792 140.152,52.304 C138.104,54.096 135.992,55.76 133.752,57.232 C131.512,58.64 129.144,59.856 126.648,60.816 C125.56,61.2 124.408,61.584 123.32,61.84 C122.232,62.096 121.144,62.224 120.12,62.224 C116.984,62.096 114.36,61.456 112.248,60.176 C110.136,58.896 108.728,56.912 108.024,54.096 C107.704,52.944 107.512,51.792 107.576,50.576 C107.576,49.296 107.704,48.08 107.96,46.8 C108.088,46.032 108.28,45.2 108.472,44.432 L109.048,42.128 C110.008,39.504 111.288,37.072 112.888,34.768 C114.744,32.08 116.856,29.52 119.096,27.152 C121.336,24.72 123.832,22.608 126.648,20.688 C127.096,20.368 127.416,20.048 127.736,19.728 C128.056,19.408 128.376,19.088 128.696,18.704 C131.192,15.632 134.008,13.136 137.272,11.216 C139.064,10.128 140.856,9.36 142.648,8.912 C144.44,8.4 146.104,8.208 147.704,8.336 C149.304,8.464 150.712,8.784 152.056,9.424 C153.4,10 154.488,10.832 155.448,11.856 C157.432,14.032 158.392,16.848 158.328,20.368 C158.264,23.44 157.624,26.448 156.536,29.456 C155.384,32.464 153.848,35.472 151.928,38.544 C149.752,41.68 147.384,44.752 144.76,47.824 C144.632,47.952 144.504,48.016 144.376,48.144 C144.312,48.272 144.184,48.4 144.12,48.528 L143.736,49.04 L144.376,49.04 L145.4,48.656 C147.768,47.76 150.008,46.8 152.248,45.648 C154.424,44.496 156.536,43.088 158.648,41.552 L161.72,39.312 L162.872,38.544 C163.192,38.672 163.448,38.864 163.576,38.992 Z M133.368,15.632 L133.304,15.632 L133.112,15.76 C133.176,15.76 133.304,15.696 133.368,15.632 Z M136.056,14.288 C136.077333,14.2666667 136.105778,14.2453333 136.138963,14.2216296 L136.056,14.288 Z M136.138963,14.2216296 C136.205333,14.1742222 136.290667,14.1173333 136.376,14.032 L136.138964,14.2216292 L136.138963,14.2216296 Z M136.056,14.288 C135.672,14.352 135.416,14.48 135.224,14.672 C134.968,14.864 134.776,15.056 134.584,15.312 C134.392,15.376 134.264,15.44 134.2,15.568 C133.688,15.952 133.304,16.336 132.92,16.848 L132.92,16.912 C133.24,16.784 133.496,16.656 133.688,16.4 C133.88,16.144 134.136,15.888 134.392,15.696 L134.648,15.44 L136.056,14.288 Z M119.224,29.264 C119.032,29.456 118.776,29.648 118.584,29.84 C118.52,29.904 118.52,29.968 118.456,30.032 C118.648,29.904 118.84,29.776 119.032,29.584 C119.096,29.456 119.16,29.392 119.224,29.264 Z M114.021065,37.209185 C114.006043,37.2304307 113.991022,37.2489783 113.976,37.264 C114.006962,37.2330384 114.034179,37.2020768 114.057651,37.1729267 L114.021065,37.209185 Z M114.057651,37.1729267 C114.131217,37.081566 114.168,37.008 114.168,37.008 C114.36,36.816 114.552,36.624 114.68,36.368 C114.872,36.112 115,35.92 115.128,35.792 C115.256,35.6 115.384,35.408 115.512,35.28 C116.344,34.256 117.112,33.296 117.88,32.336 C118.648,31.312 119.48,30.352 120.312,29.392 C120.824,28.752 121.4,28.176 121.976,27.664 C122.36,27.216 122.808,26.768 123.192,26.384 C122.68,26.704 122.168,27.024 121.656,27.408 C121.272,27.792 120.888,28.112 120.568,28.56 C119.608,29.52 118.776,30.544 117.88,31.632 C117.24,32.336 116.664,33.04 116.088,33.808 C115.576,34.576 115.064,35.344 114.552,36.24 L114.168,36.944 C114.119022,37.0419566 114.070043,37.1399131 114.021065,37.209185 L114.057651,37.1729267 Z M132.664,15.312 L132.152,15.824 C132.344,15.696 132.536,15.504 132.664,15.312 Z M132.344,16.656 C132.024,16.784 131.832,16.976 131.768,17.168 L132.344,16.656 Z M116.28,31.44 L116.536,31.184 L116.856,30.736 C117.048,30.608 117.176,30.416 117.304,30.288 L117.496,30.032 C117.816,29.584 118.136,29.2 118.456,28.752 C118.264,28.88 118.136,29.008 118.008,29.2 C117.816,29.392 117.688,29.584 117.56,29.84 L117.24,30.288 L116.856,30.672 L116.28,31.44 Z M116.28,32.72 L116.216,32.72 C116.088,32.848 115.96,33.04 115.832,33.168 C115.704,33.296 115.576,33.488 115.512,33.68 L116.216,32.784 C116.216,32.72 116.216,32.72 116.28,32.72 Z M114.971214,33.1492635 C115.056347,32.9836535 115.228688,32.811312 115.448,32.592 L115.768,32.08 C115.832,32.016 115.896,31.888 116.024,31.696 L115.704,32.08 L115.448,32.464 C115.275092,32.5792719 115.154089,32.7983533 114.991504,33.1212442 L114.971214,33.1492635 Z M114.68,33.552 L114.68,33.488 L114.68,33.552 Z M114.168,34.064 L113.784,34.64 C113.976,34.384 114.168,34.192 114.232,34.064 L114.616,33.616 L114.424,33.808 C114.36,33.872 114.232,33.936 114.168,34.064 Z M113.420353,35.2621004 C113.364118,35.3231583 113.336,35.3655791 113.336,35.408 L113.272,35.472 L113.4,35.408 C113.4,35.3297778 113.423901,35.2754568 113.457097,35.2304307 L113.420353,35.2621004 Z M135.672,52.432 C135.864,52.176 135.864,51.984 135.672,51.92 C135.544,51.856 135.416,51.856 135.224,51.856 C132.856,51.536 130.616,50.832 128.504,49.808 C124.536,47.76 122.168,44.432 121.464,39.824 C121.272,38.224 121.272,36.624 121.464,34.96 C121.656,33.296 122.04,31.632 122.616,29.904 C122.68,29.648 122.744,29.456 122.808,29.264 C122.872,29.072 122.872,28.88 122.936,28.688 C123,28.432 123,28.176 123,27.856 C122.872,27.92 122.744,27.984 122.616,28.112 C122.424,28.24 122.296,28.304 122.232,28.432 C119.352,31.376 116.856,34.576 114.744,37.904 C114.168,38.736 113.656,39.632 113.272,40.528 C112.824,41.424 112.44,42.32 112.12,43.216 C111.48,45.008 111.032,46.736 110.776,48.528 C110.52,50.256 110.52,51.92 110.712,53.584 C110.904,54.864 111.352,56.08 111.928,57.104 C112.504,58.128 113.4,58.896 114.552,59.536 C115.256,59.856 115.96,60.112 116.664,60.368 C117.368,60.56 118.2,60.624 119.032,60.56 L121.336,60.176 C122.04,59.984 122.808,59.792 123.576,59.536 C125.688,58.768 127.672,57.872 129.592,56.72 C131.512,55.568 133.368,54.288 135.16,52.88 L135.672,52.432 Z M148.283253,31.2970302 C148.282178,31.3234273 148.281094,31.349751 148.28,31.376 L148.28,31.312 C148.281085,31.3070093 148.282169,31.3020194 148.283253,31.2970302 Z M148.283253,31.2970302 C148.40793,28.2340962 148.399797,24.1839384 147.448,21.392 C147.064,19.024 145.912,17.552 144.12,17.104 C143.928,17.04 143.736,17.04 143.544,16.976 C143.544,17.04 143.608,17.104 143.608,17.168 C143.672,17.232 143.672,17.36 143.544,17.488 L143.288,17.488 C142.968,17.36 142.776,17.296 142.712,17.232 C142.52,17.04 142.264,16.976 142.008,16.912 L141.56,16.912 C140.728,17.04 139.832,17.168 139,17.424 C138.552,17.552 138.168,17.68 137.784,17.808 C136.632,18.256 135.48,18.768 134.392,19.408 C132.856,20.176 131.384,21.072 129.976,22.096 C129.464,22.288 129.208,22.608 129.08,22.992 C128.184,24.336 127.352,25.744 126.648,27.152 C125.944,28.56 125.368,29.968 124.984,31.504 C124.728,32.208 124.6,32.912 124.408,33.68 C124.28,34.448 124.152,35.152 124.088,35.92 C123.576,38.928 123.896,41.616 124.984,43.92 C127.032,48.208 130.808,50.448 136.376,50.704 C137.336,50.704 138.232,50.256 139,49.488 C140.856,47.632 142.584,45.712 144.12,43.792 C145.72,41.872 147.256,39.824 148.728,37.776 C149.944,35.92 151.096,34.064 152.056,32.208 C153.016,30.352 153.848,28.432 154.488,26.512 C154.616,25.872 154.744,25.296 154.872,24.656 C155.064,24.016 155.192,23.44 155.384,22.864 C155.704,21.456 155.896,20.176 155.896,18.96 C155.96,17.68 155.768,16.528 155.448,15.376 C155.064,13.968 154.424,12.816 153.464,11.92 C152.504,11.024 151.224,10.576 149.56,10.448 C145.848,10.064 142.072,11.152 138.296,13.584 C137.464,14.096 136.632,14.736 135.736,15.504 C135.608,15.504 135.608,15.568 135.608,15.632 C135.608,15.696 135.544,15.76 135.544,15.888 L135.864,15.888 C136.824,15.504 137.784,15.248 138.68,15.056 C139.576,14.864 140.472,14.8 141.368,14.8 C143.672,14.8 145.4,15.504 146.616,17.04 C147.768,18.64 148.536,20.56 148.856,22.864 C149.112,24.208 149.112,25.616 148.984,27.024 C148.856434,28.4272263 148.601734,29.8304527 148.283253,31.2970302 Z M148.728,38.864 L148.408,39.184 L148.728,38.928 L148.728,38.864 Z M147.938149,39.9551026 C147.926798,39.9711456 147.914322,39.9875616 147.90072,40.0042013 C147.905793,39.9804313 147.916317,39.9621125 147.938149,39.9551026 Z M147.90072,40.0042013 C147.88034,40.0291328 147.857434,40.0545664 147.832,40.08 L147.64,40.336 L147.896,40.08 C147.896,40.0531603 147.896,40.0263206 147.90072,40.0042013 Z M148.020387,39.8336511 C148.024,39.8091007 148.024,39.7845504 148.024,39.76 C148.024,39.7760894 148.019955,39.7962237 148.011865,39.8193859 L148.020387,39.8336511 Z M145.656,44.112 L144.952,44.944 C145.144,44.816 145.336,44.752 145.4,44.624 C145.464,44.496 145.592,44.304 145.656,44.112 Z M145.016,43.728 L145.144,43.664 L145.144,43.6 L145.016,43.728 Z M145.208,43.6 C145.848,42.96 146.36,42.32 146.68,41.68 L147.064,41.168 L146.68,41.616 L146.68,41.68 C145.976,42.256 145.528,42.896 145.208,43.6 Z M146.424,43.216 C146.424,43.216 146.36,43.216 146.36,43.28 C146.36,43.28 146.36,43.216 146.424,43.216 C146.424,43.152 146.424,43.088 146.488,43.088 C146.552,43.088 146.552,43.024 146.552,42.96 C146.552,42.96 146.552,43.024 146.488,43.088 C146.424,43.088 146.424,43.152 146.424,43.216 Z M146.131112,43.5337265 C146.202634,43.4373665 146.249317,43.3906832 146.296,43.344 L146.232,43.408 C146.19744,43.4425599 146.16288,43.4771199 146.12832,43.5217574 L146.131112,43.5337265 Z M147.128,42.32 C146.936,42.448 146.872,42.576 146.808,42.704 L147,42.512 C147.064,42.448 147.064,42.384 147.128,42.32 Z M144.56493,44.3934266 L144.44,44.56 L144.327295,44.6952459 C144.386197,44.632454 144.445098,44.5894508 144.504,44.56 C144.504,44.5044755 144.552171,44.4489511 144.56493,44.3934266 Z M144.327295,44.6952459 L144.259567,44.7765194 C144.282143,44.7462871 144.304719,44.7193129 144.327295,44.6952459 Z M144.259567,44.7765194 L144.12,44.944 L144.12,45.008 C144.166522,44.9149552 144.213045,44.8388193 144.259567,44.7765194 Z M143.084807,46.007923 C143.091464,45.9975413 143.096,45.9850388 143.096,45.968 C143.096,45.9838066 143.092096,45.9957093 143.085253,46.0056365 L143.084807,46.007923 Z M150.648,38.8 L150.712,38.736 L150.648,38.8 Z M150.648,38.8 L150.456,38.992 L149.496,40.144 C147.512,42.768 145.464,45.328 143.352,47.824 C143.16,47.952 143.032,48.08 142.904,48.208 C142.84,48.336 142.712,48.528 142.584,48.72 C142.584,48.72 142.584,48.784 142.52,48.784 C142.456,48.784 142.456,48.848 142.392,48.976 L141.944,49.424 L142.008,49.424 L142.392,48.976 L142.712,48.784 L143.032,48.464 C144.376,47.056 145.656,45.648 146.808,44.176 C148.024,42.64 149.112,41.168 150.2,39.632 C150.264,39.44 150.392,39.248 150.456,38.992 L150.52,38.992 C150.584,38.928 150.584,38.864 150.584,38.864 L150.648,38.8 Z M199.288,46.608 L199.224,46.672 C199.288,46.672 199.288,46.672 199.288,46.608 Z M204.408,40.336 C205.048,40.336 205.112,40.464 204.792,40.848 L201.72,43.92 L201.976,43.088 L201.464,43.28 L201.144,43.728 L201.016,44.176 L201.72,43.984 L199.672,46.16 L199.608,45.712 C199.608,45.712 199.544,45.776 199.48,45.776 L199.096,45.968 C199.096,45.84 199.16,45.712 199.096,45.584 L199.224,45.52 L199.16,45.52 L199.096,45.584 L198.84,45.968 L198.456,46.416 L198.648,46.416 L198.52,46.864 L199.224,46.672 C198.84,47.312 198.328,47.888 197.56,48.4 L197.496,47.952 L196.856,48.592 L197.56,48.4 C196.856,49.232 196.152,50.064 195.384,50.768 C193.592,52.496 191.864,54.224 189.816,55.696 C189.24,56.144 188.664,56.464 188.088,56.848 C185.784,58.512 182.84,57.104 182.712,55.312 C182.584,54.096 182.712,52.88 183.096,51.6 C183.736,49.296 184.632,46.992 185.656,44.688 C186.936,41.744 187.192,40.976 188.792,38.096 C188.792,37.968 188.92,37.904 188.92,37.776 L188.92,37.456 C188.856,37.456 188.664,37.456 188.536,37.52 C183.672,43.472 176.504,55.632 169.4,57.168 C167.352,57.616 165.752,57.488 164.344,56.72 C161.208,55.056 162.104,50.832 163.384,48.336 C165.944,43.152 169.784,36.176 174.392,32.272 C175.352,31.44 175.928,31.376 176.76,31.888 L177.208,32.272 C177.4,32.464 177.272,32.656 176.952,32.912 C172.536,37.328 168.504,44.24 166.008,50.192 C165.56,51.152 164.536,54.992 167.096,55.504 C173.112,56.656 183.16,38.928 191.288,31.44 C191.928,30.928 192.44,30.928 192.952,31.12 L193.528,31.504 C194.04,31.76 194.168,32.272 193.912,32.912 L192.76,35.472 C191.672,37.776 190.392,40.144 189.368,42.448 C187.832,45.84 186.168,49.232 185.272,52.624 C185.016,53.392 184.888,54.096 184.76,54.864 C184.696,55.248 184.696,55.632 184.824,55.952 C184.952,56.592 185.272,56.72 185.976,56.336 C186.744,55.888 187.576,55.376 188.28,54.8 C189.88,53.456 191.416,52.112 192.952,50.64 C194.936,48.72 196.856,46.736 198.776,44.752 L199.8,43.728 C199.608,44.048 199.416,44.304 199.288,44.56 C199.736,44.368 200.056,43.984 200.248,43.536 L199.8,43.728 C200.568,42.704 201.464,41.616 202.36,40.592 C203.256,39.504 203.832,39.44 204.408,40.4 L204.408,40.336 Z M173.368,33.936 L172.984,34.32 L173.368,34 L173.368,33.936 Z M172.931174,35.4176274 C172.959046,35.3805559 172.984,35.3365164 172.984,35.28 C172.984,35.2982708 172.973568,35.3217576 172.957171,35.3474823 L172.931174,35.4176274 Z M172.740634,34.6682407 C172.756874,34.6414316 172.774437,34.6111256 172.792,34.576 C172.792,34.5934676 172.782465,34.6157027 172.767299,34.6401029 L172.740634,34.6682407 Z M172.088,36.624 C171.896,36.816 171.768,37.008 171.64,37.2 L172.088,36.624 Z M169.566687,38.9784789 C169.575125,38.9617504 169.583562,38.9448752 169.592,38.928 C169.592,38.9404499 169.587156,38.9553217 169.578411,38.9721443 L169.566687,38.9784789 Z M169.848,38.608 L170.296,37.968 C170.104,38.16 169.976,38.352 169.848,38.608 Z M170.928,37.064 C171,36.992 171.064,36.912 171.128,36.816 C171.032,36.88 170.952,36.96 170.88,37.04 L170.928,37.064 Z M166.968,46.288 L169.72,41.488 L169.656,41.552 C169.592,41.616 166.968,46.224 166.968,46.288 Z M171.971174,35.6096274 C171.999046,35.5725559 172.024,35.5285164 172.024,35.472 C172.024,35.4902708 172.013568,35.5137576 171.997171,35.5394823 L171.971174,35.6096274 Z M170.168,40.4 L170.104,40.592 C170.232,40.592 170.36,40.528 170.424,40.464 L170.808,39.824 C172.088,37.84 173.496,35.856 175.096,34 L175.48,33.296 C175.352,33.424 175.096,33.552 174.968,33.744 C172.984,35.792 171.512,38.096 170.168,40.4 Z M187.128,36.816 L187.448,36.624 L187.384,36.624 L187.128,36.816 Z M188.52,35.592 C188.552,35.568 188.6,35.536 188.664,35.472 C188.6,35.504 188.552,35.536 188.52,35.568 L188.52,35.592 Z M188.536,36.816 L189.88,34.384 L188.536,36.752 L188.536,36.816 Z M195.512,48.656 C195.512,48.656 195.512,48.592 195.576,48.592 L195.512,48.592 L195.512,48.656 Z M196.016,48.08 C196.072,48.032 196.12,47.984 196.152,47.952 C196.12,47.984 196.072,48.016 196.016,48.056 L196.016,48.08 Z M196.472,47.568 L196.856,47.312 L196.536,47.504 C196.408,47.568 196.408,47.632 196.408,47.696 L196.472,47.568 Z M197.116741,46.9277037 C197.131556,46.9262222 197.176,46.9173333 197.176,46.864 C197.304,46.672 197.496,46.544 197.56,46.416 L197.176,46.8 C197.120272,46.8557276 197.113069,46.9114551 197.112138,46.9249304 L197.116741,46.9277037 Z M197.736,46.28 C197.768,46.256 197.816,46.224 197.88,46.16 C197.944,46.096 198.008,46.032 198.072,45.96 C197.96,46.016 197.912,46.096 197.88,46.16 C197.816,46.192 197.768,46.224 197.736,46.256 L197.736,46.28 Z M198.072,45.96 C198.136,45.888 198.2,45.808 198.264,45.712 C198.168,45.776 198.088,45.856 198.024,45.936 L198.072,45.96 Z M198.616,45.384 C198.712,45.296 198.808,45.2 198.904,45.072 C198.776,45.168 198.664,45.264 198.568,45.36 L198.616,45.384 Z M200.376,43.432 C200.408,43.392 200.44,43.344 200.44,43.28 L201.208,42.512 L200.632,43.024 L200.44,43.28 C200.44,43.312 200.408,43.36 200.376,43.408 L200.376,43.432 Z M199.864,44.816 L200.056,44.816 L200.184,44.432 L199.864,44.816 Z M200.568,44.624 L200.952,44.176 L200.76,44.176 L200.888,43.792 C200.696,43.984 200.504,44.176 200.248,44.368 L200.76,44.176 L200.568,44.624 L200.056,44.88 L199.928,45.328 L200.568,44.624 Z M201.08,43.728 L201.208,43.28 L200.888,43.728 L201.08,43.728 Z M202.232,41.296 L202.424,41.104 L202.424,41.04 C202.296,41.168 202.296,41.232 202.232,41.296 Z M203.192,41.712 C203.256,41.632 203.32,41.552 203.384,41.488 C203.32,41.584 203.272,41.664 203.216,41.736 L203.192,41.712 Z M203.192,41.712 C203.128,41.792 203.064,41.872 203,41.936 C203.096,41.872 203.16,41.808 203.216,41.736 L203.192,41.712 Z M203.512,41.424 C203.64,41.232 203.832,41.04 204.088,40.848 L203.512,41.424 Z M198.648,46.416 L198.84,45.968 L199.096,45.968 L198.648,46.416 Z M214.84,34.832 L214.712,34.832 L215.032,34.448 C215.032,34.576 214.968,34.704 214.84,34.832 Z M215.416,34 L215.032,34.448 L215.224,34 L215.416,34 Z M215.16,34.896 L215.096,34.832 C215.096,34.896 215.16,34.896 215.16,34.896 Z M209.144,42.192 L208.824,42 C208.824,42.256 208.952,42.256 209.144,42.192 Z M204.024028,47.1199724 C204.088074,47.0559816 204.344,46.9919816 204.344,46.864 L206.648,43.344 C209.272,39.376 212.28,35.6 215.736,32.08 C216.184,31.632 216.632,31.312 217.08,30.864 L217.016,31.248 L217.848,30.48 L217.08,30.864 C218.872,29.008 220.856,27.472 223.032,26.384 C225.144,25.36 227.064,26.448 226.808,28.432 C226.68,29.136 226.488,29.776 226.296,30.416 C225.4,33.104 224.632,35.792 224.12,38.416 C224.056,38.8 224.056,39.184 223.992,39.504 C223.864,40.144 223.736,40.272 223.096,40.144 C222.136,39.952 221.688,39.376 221.88,38.288 C222.264,35.6 222.776,32.912 223.8,30.224 C223.928,29.776 224.12,29.328 224.248,28.88 C224.248,28.496 224.44,27.92 224.312,27.728 C224.056,27.472 223.48,27.92 223.096,28.176 L220.856,29.712 C220.216,30.224 219.64,30.8 218.936,31.312 L218.808,31.12 L218.744,31.312 L218.552,31.12 L218.36,31.12 L218.488,30.672 L217.848,31.312 L218.104,31.312 C218.04,31.44 217.976,31.568 217.912,31.76 L218.744,31.312 L218.936,31.312 L217.336,32.848 C217.144,33.104 216.888,33.296 216.696,33.488 L216.952,32.656 L217.208,32.656 L217.656,32.016 L217.4,32.016 L217.528,31.568 L216.952,32.208 L217.144,32.208 L216.952,32.656 L216.696,32.656 L216.888,32.208 L216.248,32.848 L216.44,32.848 L216.056,33.36 L216.184,32.912 L215.864,33.36 L215.224,34 C214.904,34.256 214.584,34.512 214.392,34.768 C212.984,36.496 211.512,38.16 210.232,39.888 C209.656,40.592 209.272,41.296 208.824,42 C207.928,43.024 207.224,44.176 206.648,45.328 C206.968,45.136 206.968,45.264 206.968,45.52 L206.584,46.16 C206.392,46.096 206.264,46.032 206.136,46.032 C206.008,46.224 205.88,46.48 205.688,46.672 L205.304,47.312 C205.624,47.312 205.624,47.568 205.624,47.76 L205.112,48.4 C205.049692,48.4671011 204.996716,48.516973 204.951917,48.5522501 C204.816323,49.0442445 204.582476,49.7085296 204.92,49.296 L204.856,49.36 C204.984,49.04 205.112,48.72 205.176,48.464 L205.624,47.76 C206.136,47.312 206.456,46.8 206.584,46.224 L207.032,45.584 L209.272,42.256 C209.784,41.552 210.36,40.848 210.808,40.144 C211.128,39.76 211.384,39.312 211.64,38.864 L211.64,38.928 L212.216,38.416 C212.6,37.904 212.984,37.456 213.432,36.944 C213.88,36.24 214.392,35.6 214.968,34.96 C215.032,34.896 215.096,34.896 215.16,34.896 C215.48,34.576 215.736,34.256 216.12,34 L216.184,33.744 L216.696,33.552 L216.312,34 L215.288,35.088 L212.344,38.672 C212.216,38.864 212.152,39.12 211.96,39.312 C208.888,43.344 207.864,44.496 205.304,48.72 C204.472,50 203.704,51.344 202.936,52.688 C202.68,53.072 201.016,56.272 200.696,56.72 C200.248,57.36 200.184,57.424 199.416,57.296 L198.968,57.168 C197.816,56.784 197.688,56.592 198.136,55.312 L202.104,44.112 L203.704,40.016 C205.432,35.536 207.48,31.12 209.656,26.704 C209.976,26 209.976,25.936 210.616,26.128 C210.808,26.192 211.064,26.256 211.192,26.384 C212.088,26.832 212.152,27.088 211.64,28.176 C210.808,30.224 209.848,32.208 208.952,34.256 C208.504,35.344 208.056,36.368 207.608,37.456 L204.024,46.8 C203.960961,46.8630388 204.022107,46.9881698 204.023957,47.1142332 L204.024028,47.1199724 Z M204.732519,48.4498877 C204.735783,48.3767819 204.75182,48.288842 204.772953,48.2035651 C204.183048,48.6373433 203.834818,49.1321844 203.896,49.744 L202.936,51.28 C202.872,51.408 202.808,51.472 202.744,51.6 L203.064,51.344 L203.896,49.808 C204.22056,49.375254 204.499399,48.896788 204.732519,48.4498877 Z M203.32,49.232 C204.28,48.208 204.984,47.056 205.56,45.84 C204.6,46.928 203.896,48.08 203.32,49.232 Z M205.688,45.64 C205.72,45.584 205.752,45.52 205.752,45.456 C205.752,45.52 205.72,45.568 205.688,45.616 L205.688,45.64 Z M208.184,41.808 C207.288,42.832 206.52,43.856 206.008,45.072 C206.968,44.048 207.672,42.96 208.184,41.808 Z M206.008,45.072 C206.008,45.136 205.944,45.136 205.944,45.2 L206.008,45.136 L206.008,45.072 Z M208.184,41.808 C208.184,41.808 208.248,41.8079986 208.248,41.744 C208.952,41.104 209.464,40.336 209.784,39.568 L209.848,39.568 L209.912,39.504 C209.848,39.568 209.784,39.568 209.784,39.568 C209.08,40.208 208.568,40.912 208.248,41.744 L208.184,41.744 L208.184,41.808 Z M209.912,39.504 C210.488,38.992 211.064,38.288 211.32,37.584 C210.616,38.16 210.168,38.8 209.912,39.504 Z M212.088,36.688 L212.088,36.624 C212.024,36.688 212.024,36.752 211.96,36.816 L212.088,36.688 Z M214.648,33.744 C215.096,33.488 215.416,33.168 215.608,32.72 L214.584,33.744 C213.688,34.448 212.984,35.28 212.472,36.176 C213.368,35.536 214.008,34.704 214.648,33.744 Z M215.608,32.656 C215.864,32.464 216.12,32.208 216.312,31.952 L215.608,32.656 Z M218.872,29.584 C219,29.456 219.064,29.392 219.192,29.328 L219.32,29.2 C219.32,29.2 219.256,29.264 219.192,29.264 L218.872,29.52 L218.232,30.16 C218.104,30.288 217.976,30.352 217.912,30.416 L218.232,30.224 C218.424,29.968 218.68,29.776 218.872,29.584 Z M220.152,29.776 L220.152,29.712 C220.088,29.84 219.896,29.904 219.832,29.968 L219.512,30.224 L219.064,30.416 L218.872,30.864 L218.616,31.056 L218.808,31.056 L218.872,30.864 L219.512,30.224 L219.576,30.224 L219.832,29.968 L220.152,29.776 Z" id="Our" fill="#805278"></path>
                <path d="M85.336,100.456 C83.5879913,100.456 81.9666741,100.12667 80.472,99.468 C78.9773259,98.80933 77.6853388,97.9100057 76.596,96.77 L78.496,94.566 C79.3826711,95.503338 80.4276607,96.2569972 81.631,96.827 C82.8343393,97.3970029 84.0819935,97.682 85.374,97.682 C87.0206749,97.682 88.2999954,97.3083371 89.212,96.561 C90.1240046,95.8136629 90.58,94.8320061 90.58,93.616 C90.58,92.9826635 90.4723344,92.4443356 90.257,92.001 C90.0416656,91.5576645 89.7503352,91.1776682 89.383,90.861 C89.0156648,90.5443317 88.5786692,90.2593346 88.072,90.006 C87.5653308,89.7526654 87.0206696,89.4866681 86.438,89.208 L82.866,87.65 C82.2833304,87.3966654 81.688003,87.0926684 81.08,86.738 C80.471997,86.3833316 79.9273357,85.9526692 79.446,85.446 C78.9646643,84.9393308 78.5720015,84.3376702 78.268,83.641 C77.9639985,82.9443299 77.812,82.1400046 77.812,81.228 C77.812,80.290662 78.0083314,79.4166707 78.401,78.606 C78.7936686,77.7953293 79.3383298,77.0923363 80.035,76.497 C80.7316701,75.9016637 81.5549953,75.439335 82.505,75.11 C83.4550048,74.780665 84.4999943,74.616 85.64,74.616 C87.1346741,74.616 88.515327,74.9009971 89.782,75.471 C91.048673,76.0410028 92.1253289,76.7819954 93.012,77.694 L91.302,79.746 C90.5419962,79.0113297 89.6996713,78.4350021 88.775,78.017 C87.8503287,77.5989979 86.8053392,77.39 85.64,77.39 C84.2466597,77.39 83.1256709,77.7129968 82.277,78.359 C81.4283291,79.0050032 81.004,79.8979943 81.004,81.038 C81.004,81.646003 81.1243321,82.1589979 81.365,82.577 C81.6056679,82.9950021 81.9286646,83.3623318 82.334,83.679 C82.7393354,83.9956682 83.1826643,84.2743321 83.664,84.515 C84.1453357,84.7556679 84.6393308,84.9773323 85.146,85.18 L88.68,86.7 C89.3893369,87.0040015 90.0606635,87.3523314 90.694,87.745 C91.3273365,88.1376686 91.8719977,88.5936641 92.328,89.113 C92.7840023,89.6323359 93.1449987,90.2403298 93.411,90.937 C93.6770013,91.6336702 93.81,92.4379954 93.81,93.35 C93.81,94.3380049 93.6136686,95.2626624 93.221,96.124 C92.8283314,96.9853376 92.2646703,97.7389968 91.53,98.385 C90.7953297,99.0310032 89.9086719,99.5376648 88.87,99.905 C87.8313281,100.272335 86.6533399,100.456 85.336,100.456 Z M101.878667,100 L101.878667,75.072 L116.242667,75.072 L116.242667,77.732 L105.032667,77.732 L105.032667,85.56 L114.494667,85.56 L114.494667,88.258 L105.032667,88.258 L105.032667,97.302 L116.622667,97.302 L116.622667,100 L101.878667,100 Z M125.071333,100 L125.071333,75.072 L132.861333,75.072 C134.128006,75.072 135.299661,75.1923321 136.376333,75.433 C137.453006,75.6736679 138.377663,76.0726639 139.150333,76.63 C139.923004,77.1873361 140.524665,77.9093289 140.955333,78.796 C141.386002,79.6826711 141.601333,80.7719935 141.601333,82.064 C141.601333,84.0146764 141.094672,85.5726608 140.081333,86.738 C139.067995,87.9033392 137.700009,88.7013312 135.977333,89.132 L142.323333,100 L138.751333,100 L132.747333,89.474 L128.225333,89.474 L128.225333,100 L125.071333,100 Z M128.225333,86.89 L132.405333,86.89 C134.35601,86.89 135.850662,86.491004 136.889333,85.693 C137.928005,84.894996 138.447333,83.6853414 138.447333,82.064 C138.447333,80.4173251 137.928005,79.26467 136.889333,78.606 C135.850662,77.94733 134.35601,77.618 132.405333,77.618 L128.225333,77.618 L128.225333,86.89 Z M154.61,100 L146.63,75.072 L150.012,75.072 L154.002,88.524 C154.458003,90.0186741 154.856999,91.399327 155.199,92.666 C155.541002,93.932673 155.952664,95.3006593 156.434,96.77 L156.586,96.77 C157.042003,95.3006593 157.447332,93.932673 157.802,92.666 C158.156669,91.399327 158.549331,90.0186741 158.98,88.524 L162.97,75.072 L166.2,75.072 L158.296,100 L154.61,100 Z M172.786667,100 L172.786667,75.072 L175.940667,75.072 L175.940667,100 L172.786667,100 Z M195.371334,100.456 C193.800659,100.456 192.356674,100.16467 191.039334,99.582 C189.721994,98.9993304 188.575672,98.1570055 187.600334,97.055 C186.624996,95.9529945 185.865003,94.5976747 185.320334,92.989 C184.775664,91.3803253 184.503334,89.5626768 184.503334,87.536 C184.503334,85.5346567 184.781998,83.736008 185.339334,82.14 C185.89667,80.543992 186.669329,79.1886722 187.657334,78.074 C188.645339,76.9593278 189.81066,76.1043363 191.153334,75.509 C192.496007,74.9136637 193.965326,74.616 195.561334,74.616 C197.081341,74.616 198.417661,74.9263302 199.570334,75.547 C200.723006,76.1676698 201.666663,76.8833293 202.401334,77.694 L200.691334,79.746 C200.032664,79.0366631 199.285338,78.4666688 198.449334,78.036 C197.61333,77.6053312 196.663339,77.39 195.599334,77.39 C194.408661,77.39 193.332005,77.624331 192.369334,78.093 C191.406662,78.561669 190.583337,79.2329956 189.899334,80.107 C189.21533,80.9810044 188.689669,82.0386605 188.322334,83.28 C187.954999,84.5213395 187.771334,85.9146589 187.771334,87.46 C187.771334,89.0306745 187.954999,90.4429937 188.322334,91.697 C188.689669,92.9510063 189.202664,94.0213289 189.861334,94.908 C190.520004,95.7946711 191.324329,96.4786643 192.274334,96.96 C193.224338,97.4413357 194.294661,97.682 195.485334,97.682 C196.70134,97.682 197.765329,97.4350025 198.677334,96.941 C199.589338,96.4469975 200.450663,95.7566711 201.261334,94.87 L203.009334,96.846 C202.021329,97.9860057 200.906673,98.8726635 199.665334,99.506 C198.423994,100.139336 196.992675,100.456 195.371334,100.456 Z M210.812,100 L210.812,75.072 L225.176,75.072 L225.176,77.732 L213.966,77.732 L213.966,85.56 L223.428,85.56 L223.428,88.258 L213.966,88.258 L213.966,97.302 L225.556,97.302 L225.556,100 L210.812,100 Z M240.920667,100.456 C239.172658,100.456 237.551341,100.12667 236.056667,99.468 C234.561993,98.80933 233.270006,97.9100057 232.180667,96.77 L234.080667,94.566 C234.967338,95.503338 236.012328,96.2569972 237.215667,96.827 C238.419007,97.3970029 239.666661,97.682 240.958667,97.682 C242.605342,97.682 243.884663,97.3083371 244.796667,96.561 C245.708672,95.8136629 246.164667,94.8320061 246.164667,93.616 C246.164667,92.9826635 246.057002,92.4443356 245.841667,92.001 C245.626333,91.5576645 245.335002,91.1776682 244.967667,90.861 C244.600332,90.5443317 244.163336,90.2593346 243.656667,90.006 C243.149998,89.7526654 242.605337,89.4866681 242.022667,89.208 L238.450667,87.65 C237.867998,87.3966654 237.27267,87.0926684 236.664667,86.738 C236.056664,86.3833316 235.512003,85.9526692 235.030667,85.446 C234.549331,84.9393308 234.156669,84.3376702 233.852667,83.641 C233.548666,82.9443299 233.396667,82.1400046 233.396667,81.228 C233.396667,80.290662 233.592999,79.4166707 233.985667,78.606 C234.378336,77.7953293 234.922997,77.0923363 235.619667,76.497 C236.316337,75.9016637 237.139662,75.439335 238.089667,75.11 C239.039672,74.780665 240.084662,74.616 241.224667,74.616 C242.719341,74.616 244.099994,74.9009971 245.366667,75.471 C246.63334,76.0410028 247.709996,76.7819954 248.596667,77.694 L246.886667,79.746 C246.126663,79.0113297 245.284339,78.4350021 244.359667,78.017 C243.434996,77.5989979 242.390006,77.39 241.224667,77.39 C239.831327,77.39 238.710338,77.7129968 237.861667,78.359 C237.012996,79.0050032 236.588667,79.8979943 236.588667,81.038 C236.588667,81.646003 236.708999,82.1589979 236.949667,82.577 C237.190335,82.9950021 237.513332,83.3623318 237.918667,83.679 C238.324003,83.9956682 238.767331,84.2743321 239.248667,84.515 C239.730003,84.7556679 240.223998,84.9773323 240.730667,85.18 L244.264667,86.7 C244.974004,87.0040015 245.645331,87.3523314 246.278667,87.745 C246.912004,88.1376686 247.456665,88.5936641 247.912667,89.113 C248.36867,89.6323359 248.729666,90.2403298 248.995667,90.937 C249.261669,91.6336702 249.394667,92.4379954 249.394667,93.35 C249.394667,94.3380049 249.198336,95.2626624 248.805667,96.124 C248.412999,96.9853376 247.849338,97.7389968 247.114667,98.385 C246.379997,99.0310032 245.493339,99.5376648 244.454667,99.905 C243.415995,100.272335 242.238007,100.456 240.920667,100.456 Z" id="SERVICES" fill="#424242"></path>
            </g>
        </g>
    </g>
</svg>