<?xml version="1.0" encoding="UTF-8" standalone="no"?>
<svg width="158px" height="92px" viewBox="0 0 158 92" version="1.1" xmlns="http://www.w3.org/2000/svg" xmlns:xlink="http://www.w3.org/1999/xlink">
    <!-- Generator: Sketch 50.2 (55047) - http://www.bohemiancoding.com/sketch -->
    <title>Shop</title>
    <desc>Created with Sketch.</desc>
    <defs></defs>
    <g id="Page-1" stroke="none" stroke-width="1" fill="none" fill-rule="evenodd">
        <g id="Fonts-and-colors" transform="translate(-653.000000, -651.000000)" fill="#FFFFFF">
            <path d="M712.824,657.36 C712.888,657.424 712.888,657.552 712.696,657.744 L712.376,657.744 C712.312,657.744 712.248,657.68 712.184,657.68 L711.992,657.68 C711.672,657.552 711.16,657.424 710.456,657.296 C709.752,657.168 708.984,657.04 708.152,656.976 C707.32,656.848 706.488,656.784 705.72,656.784 C704.952,656.72 704.376,656.72 703.992,656.848 C701.432,657.36 699,658.384 696.696,659.984 C694.392,661.584 692.536,663.76 691.192,666.512 C690.616,667.664 690.168,668.752 689.976,669.904 C689.784,671.056 689.72,672.144 689.848,673.296 C689.912,673.936 690.04,674.64 690.168,675.344 C690.296,675.984 690.488,676.624 690.68,677.264 C691.384,679.184 692.088,681.04 692.792,682.96 C693.496,684.88 694.136,686.8 694.84,688.72 C695.544,690.512 696.248,692.368 696.888,694.224 C697.464,696.08 697.912,698.064 698.168,700.112 C698.36,701.264 698.552,702.416 698.616,703.568 C698.68,704.72 698.616,705.936 698.424,707.216 C698.36,707.728 698.232,708.24 698.168,708.752 C698.104,709.264 697.976,709.648 697.912,710.032 C697.08,712.848 695.864,715.344 694.136,717.648 C691.256,721.552 687.672,724.816 683.384,727.504 C682.04,728.272 680.696,729.04 679.352,729.744 C678.008,730.384 676.6,731.024 675.192,731.536 C672.056,732.688 669.112,733.072 666.296,732.816 L663.416,732.432 C662.456,732.304 661.496,732.048 660.536,731.792 C659.704,731.536 658.872,731.216 658.168,730.832 C657.464,730.448 656.76,730 656.184,729.424 C655.288,728.528 654.648,727.568 654.264,726.48 C653.88,725.392 653.752,724.176 653.816,722.832 C653.88,721.36 654.264,719.952 654.904,718.544 C655.48,717.136 656.248,715.728 657.208,714.32 C658.552,712.208 660.088,710.288 661.752,708.496 C661.752,708.368 661.688,708.24 661.624,708.048 C661.688,707.984 661.752,707.92 661.88,707.856 C662.648,707.024 663.48,706.256 664.312,705.488 C666.104,704.016 667.896,702.672 669.688,701.52 C671.48,700.368 673.336,699.344 675.32,698.576 C676.472,698.128 677.688,697.744 678.904,697.424 C680.12,697.104 681.272,696.848 682.488,696.72 C683.448,696.592 684.408,696.528 685.24,696.528 C686.136,696.592 686.968,696.72 687.864,696.912 C689.976,697.424 691.448,698.64 692.344,700.432 C693.176,702.288 693.56,704.464 693.496,706.896 C693.496,708.304 693.24,709.712 692.92,711.056 C692.536,712.464 692.088,713.872 691.512,715.28 L691.576,715.28 C692.536,713.744 693.24,712.144 693.816,710.544 C694.264,709.2 694.52,707.92 694.712,706.704 C694.84,705.424 694.84,704.208 694.776,703.056 C694.712,701.904 694.648,700.88 694.52,699.856 C694.328,698.832 694.2,697.744 694.008,696.72 C693.88,696.08 693.752,695.568 693.624,695.056 C693.432,694.544 693.304,693.968 693.112,693.456 C693.048,693.264 692.984,693.136 692.92,693.008 C692.856,692.368 692.6,691.792 692.216,691.216 C692.28,691.088 692.216,690.768 692.024,690.256 L690.296,685.52 C689.784,683.856 689.272,682.256 688.76,680.592 C688.184,678.928 687.672,677.328 687.16,675.728 C686.84,674.704 686.648,673.68 686.584,672.656 C686.456,671.632 686.456,670.544 686.648,669.392 C687.352,664.656 689.976,660.752 694.392,657.552 C695.864,656.528 697.208,655.824 698.488,655.376 C699.704,654.864 701.112,654.544 702.648,654.416 C703.16,654.352 703.864,654.352 704.76,654.416 C705.656,654.48 706.552,654.608 707.512,654.8 C708.408,654.928 709.24,655.12 710.072,655.376 C710.904,655.632 711.48,655.824 711.8,656.08 C711.992,656.208 712.184,656.4 712.376,656.656 C712.504,656.912 712.632,657.104 712.824,657.36 Z M656.056,717.712 L656.12,717.584 L655.992,717.584 L655.928,717.712 L656.056,717.712 Z M694.008,714.32 L693.624,715.024 L694.072,714.32 C694.136,714.256 694.136,714.256 694.2,714.256 C694.2,714.256 694.2,714.192 694.264,714.192 L694.328,714 C694.328,713.936 694.264,713.936 694.2,713.936 L694.136,714.128 C694.072,714.128 694.072,714.192 694.136,714.192 C694.136,714.192 694.136,714.256 694.072,714.32 L694.008,714.32 Z M693.112,714 C692.984,714.256 692.856,714.512 692.792,714.768 C693.048,714.512 693.24,714.32 693.368,714.064 C693.432,713.808 693.56,713.552 693.624,713.296 C693.368,713.488 693.176,713.744 693.112,714 Z M693.112,715.92 C693.048,715.984 692.984,716.048 692.92,716.176 C692.856,716.304 692.728,716.432 692.664,716.56 C692.792,716.304 692.92,716.048 693.112,715.92 Z M692.024,716.048 C691.96,716.048 691.96,716.048 691.896,716.112 L692.024,716.048 C692.408,715.728 692.664,715.344 692.792,714.832 L692.024,716.048 Z M661.624,711.44 L661.624,711.504 C661.624,711.44 661.624,711.44 661.688,711.44 L662.008,710.992 L661.624,711.44 Z M658.744,714.384 L658.488,714.768 L658.808,714.384 L659.064,713.872 C658.872,714 658.808,714.192 658.744,714.384 Z M657.592,717.328 C657.528,717.456 657.4,717.712 657.336,718.096 L657.4,718.096 L660.984,712.4 L661.304,711.888 C661.432,711.76 661.496,711.632 661.496,711.568 L661.304,711.888 C661.112,712.016 660.984,712.144 660.92,712.272 C660.216,713.04 659.576,713.808 659.064,714.704 C658.552,715.536 658.04,716.432 657.592,717.328 Z M656.568,716.56 C656.696,716.432 656.76,716.304 656.76,716.304 L656.824,716.112 L657.272,715.408 C657.208,715.472 657.144,715.536 657.08,715.664 C657.016,715.792 656.888,715.92 656.824,716.112 L656.632,716.304 L656.568,716.56 Z M657.208,716.88 C657.144,716.88 657.144,716.944 657.08,717.072 C657.016,717.072 657.016,717.072 657.08,717.136 L657.144,717.072 L657.208,716.88 Z M688.184,719.696 C686.392,721.68 684.472,723.408 682.424,724.88 C680.312,726.288 678.136,727.568 675.768,728.72 C674.68,729.232 673.656,729.616 672.632,730 C671.608,730.384 670.584,730.64 669.496,730.896 C667.576,731.216 665.784,731.28 664.184,731.088 C662.584,730.832 661.048,730.384 659.576,729.68 C658.616,729.168 657.912,728.4 657.528,727.44 C657.144,726.48 656.888,725.392 656.824,724.24 C656.76,722.896 656.952,721.552 657.464,720.272 C657.912,718.928 658.552,717.584 659.32,716.24 C660.792,713.68 662.52,711.376 664.568,709.328 C666.552,707.28 668.792,705.36 671.288,703.632 C671.544,703.44 671.736,703.248 671.992,703.12 C672.312,702.928 672.568,702.8 672.824,702.608 C673.912,702.032 675.64,700.944 677.176,700.944 C677.56,700.624 677.944,700.432 678.392,700.304 C679.096,700.048 680.12,699.984 680.696,699.408 C681.272,698.832 681.976,698.96 682.424,699.408 C683.32,699.216 684.28,699.088 685.176,699.024 C686.008,699.024 686.84,699.024 687.672,699.152 C688.504,699.28 689.272,699.536 690.04,699.92 C691.64,700.816 692.408,702.544 692.408,705.04 C692.856,708.112 692.152,712.272 691.512,715.344 C690.552,716.816 689.464,718.288 688.184,719.696 Z M695.224,713.552 C694.776,714.448 694.264,715.28 693.688,716.176 C693.112,717.008 692.536,717.84 691.96,718.736 C691.896,718.8 691.832,718.928 691.768,719.056 C691.704,719.184 691.576,719.312 691.512,719.44 C692.024,718.928 692.536,718.416 692.984,717.776 C693.432,717.136 693.88,716.56 694.328,715.92 C694.712,715.28 695.032,714.704 695.352,714.128 C695.608,713.552 695.8,713.04 695.864,712.656 L695.224,713.552 Z M693.496,659.152 L693.304,659.344 L693.56,659.152 L693.496,659.152 Z M693.624,660.304 L693.304,660.496 L692.664,661.2 L693.368,660.56 L693.624,660.304 Z M690.872,662.032 L690.808,662.032 L690.744,662.16 L690.872,662.032 Z M690.872,661.968 C691.192,661.584 691.448,661.328 691.576,661.2 L691.96,660.816 L692.6,660.112 C692.792,659.984 692.92,659.792 693.048,659.536 L691.448,661.136 L690.872,661.968 Z M692.344,661.52 L692.152,661.712 L692.28,661.648 L692.344,661.52 Z M694.584,660.688 L696.44,659.024 C695.48,659.472 694.584,660.048 693.88,660.816 C693.176,661.52 692.472,662.288 691.896,663.184 L691.896,663.376 L692.216,663.248 L694.584,660.688 Z M741.944,699.792 C742.072,699.536 742.328,699.344 742.648,699.152 C742.456,699.408 742.264,699.6 742.072,699.856 C741.816,700.112 741.624,700.368 741.432,700.56 C741.624,700.304 741.752,700.048 741.944,699.792 Z M734.040122,708.856292 C734.106299,708.813079 734.163537,708.760927 734.2,708.688 L734.040122,708.856292 L734.040122,708.856292 Z M734.040122,708.856292 L732.984,709.968 L733.432,709.136 C733.56,709.072 733.688,709.008 733.88,708.944 C733.935073,708.916463 733.990147,708.888927 734.040122,708.856292 Z M739.192,703.056 L740.216,701.968 L740.536,701.648 C740.408,701.776 740.344,701.904 740.28,701.968 L739.192,703.12 L739.192,703.056 Z M737.144,705.488 L738.424,704.016 C737.976,704.4 737.528,704.848 737.144,705.488 Z M742.008,697.36 L744.632,696.976 L743.48,698.192 C743.416,698.128 743.416,698.064 743.416,698 C743.416,698 743.416,697.936 743.352,697.808 L743.416,697.68 L743.352,697.744 L743.352,697.808 L743.032,698.192 L743.48,698.192 L742.712,699.088 C742.712,698.896 742.648,698.768 742.584,698.64 L742.072,698.896 L741.752,699.28 L741.88,698.896 L741.624,699.28 L741.752,699.28 L741.496,699.728 L741.112,700.176 L741.24,699.792 L740.92,700.176 L741.112,700.176 L740.728,700.624 C740.664,700.752 740.536,700.88 740.344,701.008 L740.472,700.688 L740.088,701.072 L740.344,701.072 L739.96,701.52 C739.96,701.456 739.96,701.392 740.024,701.328 L740.024,701.136 C739.64,701.392 739.32,701.712 739.064,702.032 C738.808,702.416 738.552,702.736 738.36,703.056 C738.296,703.184 738.296,703.184 738.296,703.248 C738.232,703.248 738.232,703.312 738.168,703.376 L738.296,703.056 C738.232,703.12 738.104,703.184 738.04,703.184 C737.976,703.248 737.848,703.312 737.784,703.312 C738.104,702.928 738.36,702.544 738.616,702.224 C738.872,701.84 739.128,701.52 739.384,701.136 L738.872,701.328 L739.64,700.432 L739.448,701.008 L739.768,700.688 C739.896,700.496 740.024,700.368 740.152,700.176 C740.088,700.24 740.024,700.24 740.024,700.176 C740.024,700.112 740.216,699.792 740.664,699.152 L740.472,699.792 C740.536,699.792 740.536,699.792 740.536,699.728 L740.472,699.792 L741.176,698.96 L740.792,699.088 L741.432,698.256 L741.304,698.832 L741.944,698 L741.496,698.192 C741.624,697.936 741.816,697.616 742.008,697.36 Z M740.6,700.624 L740.728,700.24 L740.408,700.624 L740.6,700.624 Z M741.432,699.728 L741.56,699.344 L741.24,699.728 L741.432,699.728 Z M742.392,698.32 C742.392,698.32 742.392,698.256 742.456,698.192 L742.2,698.448 L741.88,698.832 L742.072,698.832 L742.2,698.448 L742.264,698.448 C742.328,698.448 742.328,698.384 742.392,698.32 Z M744.184,696.784 C744.248,696.784 744.312,696.72 744.376,696.656 L744.184,696.784 Z M737.4,703.12 L737.272,703.504 L737.784,703.312 C737.592,703.568 737.464,703.76 737.336,704.016 C737.208,704.208 737.08,704.464 736.888,704.656 L736.568,705.104 L736.12,705.552 L735.16,706.64 C735.096,706.768 735.032,706.832 734.968,706.896 C734.904,706.96 734.776,707.024 734.712,707.088 L733.624,707.984 C733.368,708.368 733.304,708.752 733.432,709.072 L732.664,709.52 C732.472,709.84 732.408,710.032 732.472,710.096 C732.536,710.16 732.664,710.16 732.92,710.032 C732.472,710.544 732.024,711.056 731.576,711.504 C731.064,711.952 730.552,712.336 729.976,712.72 C729.272,713.232 728.44,713.424 727.544,713.296 C726.584,713.168 726.008,712.784 725.816,712.08 C725.624,711.44 725.624,710.608 725.752,709.712 C725.88,708.88 726.072,708.048 726.392,707.216 C726.648,706.448 726.968,705.616 727.288,704.72 C728.248,702.032 729.464,699.344 730.936,696.72 C732.408,694.096 733.88,691.472 735.352,688.784 C735.672,688.272 735.992,687.696 736.248,687.184 C736.568,686.608 736.824,686.096 737.144,685.52 C737.208,685.456 737.272,685.392 737.272,685.264 C737.208,685.2 737.208,685.136 737.272,685.008 C737.144,685.072 737.016,685.072 736.952,685.072 C736.888,685.008 736.76,685.072 736.696,685.136 C736.184,685.456 735.672,685.712 735.096,686.032 C734.584,686.288 734.072,686.608 733.56,686.928 C731.64,688.208 729.784,689.616 727.992,691.024 C726.2,692.496 724.408,694.032 722.68,695.568 C721.208,696.976 719.736,698.384 718.328,699.856 C716.92,701.328 715.512,702.8 714.168,704.272 C714.04,704.464 713.912,704.592 713.784,704.784 C713.656,704.912 713.528,705.04 713.4,705.104 C713.08,705.36 712.824,705.488 712.632,705.488 C712.184,705.552 711.736,705.552 711.288,705.488 C710.84,705.424 710.392,705.296 710.008,705.04 C709.688,704.848 709.496,704.592 709.56,704.272 C709.624,703.888 709.688,703.504 709.752,703.184 C709.752,702.8 709.816,702.416 709.88,702.032 C710.2,700.688 710.456,699.28 710.776,697.872 C711.096,696.464 711.416,695.056 711.8,693.648 C712.184,691.856 712.632,690.064 713.144,688.272 C713.656,686.48 714.296,684.688 715,682.896 L717.112,677.456 C718.52,674.064 720.184,670.736 722.104,667.536 C724.024,664.336 726.328,661.264 729.016,658.192 C729.592,657.552 730.168,656.912 730.616,656.4 C730.936,656.016 731.256,655.696 731.64,655.312 C731.768,655.184 731.896,655.12 732.024,654.992 C732.792,654.608 733.496,654.096 734.2,653.584 C734.904,653.136 735.672,652.752 736.376,652.368 C737.272,651.984 738.04,651.664 738.872,651.728 C739.064,651.856 739.192,651.92 739.384,651.984 L739.448,651.984 C739.64,652.112 739.896,652.24 740.088,652.432 C740.152,652.496 740.216,652.496 740.28,652.56 C740.28,652.624 740.344,652.624 740.344,652.688 C740.216,653.2 740.024,653.712 739.896,654.224 C739.256,656.016 738.552,657.744 737.784,659.408 C737.016,661.072 736.12,662.672 735.224,664.336 C733.752,667.088 732.216,669.712 730.552,672.272 C728.888,674.832 727.096,677.392 725.304,679.824 C723.576,682 721.848,684.112 720.12,686.16 C718.968,687.504 717.752,688.848 716.536,690.128 C716.536,690.192 716.472,690.192 716.472,690.256 C716.344,690.64 716.216,690.96 716.152,691.28 C716.088,691.6 715.96,691.92 715.896,692.24 L714.04,699.6 L713.912,699.92 C714.04,700.048 714.104,700.112 714.04,700.112 C714.104,700.112 714.232,700.112 714.424,699.984 L715.192,699.216 C716.344,698.064 717.496,696.912 718.712,695.824 C719.928,694.672 721.144,693.584 722.36,692.56 C724.152,691.152 725.88,689.808 727.608,688.464 C729.336,687.12 731.128,685.904 732.984,684.752 C733.688,684.368 734.328,684.048 735.032,683.728 C735.672,683.408 736.376,683.088 737.08,682.832 C737.784,682.64 738.424,682.576 739.128,682.704 C740.536,683.152 740.984,684.112 740.408,685.52 C740.216,686.096 739.96,686.608 739.704,687.12 C739.448,687.632 739.192,688.208 738.872,688.72 C737.912,690.448 736.952,692.176 735.992,693.84 C734.968,695.568 734.008,697.296 733.048,698.96 C732.152,700.624 731.32,702.224 730.552,703.824 C729.784,705.488 729.144,707.088 728.568,708.752 C728.44,709.2 728.376,709.584 728.312,709.968 C728.248,710.352 728.12,710.8 728.056,711.184 C727.992,711.376 727.992,711.568 728.056,711.696 C728.056,711.888 728.12,712.016 728.184,712.016 C728.376,712.144 728.568,712.08 728.76,711.952 L729.208,711.504 L731.128,709.84 L732.152,708.88 L732.472,708.496 C732.472,708.688 732.472,708.816 732.408,708.88 L733.048,708.24 L733.56,707.984 C733.752,707.728 733.944,707.472 734.072,707.088 L734.456,706.64 L734.264,706.64 L734.584,706.256 C734.52,706.384 734.52,706.512 734.52,706.64 L735.48,705.552 L734.968,705.744 C735.032,705.68 735.16,705.552 735.288,705.488 L735.672,705.104 L735.544,705.488 L735.864,705.104 L735.672,705.104 L735.992,704.72 C735.928,704.912 735.864,705.04 735.928,705.104 C736.44,704.72 736.888,704.208 737.208,703.568 L736.76,703.76 L737.4,703.12 Z M739.32,685.648 L739.192,686.16 L739.384,685.968 C739.448,685.904 739.448,685.84 739.512,685.712 C739.64,685.712 739.64,685.648 739.512,685.52 C739.512,685.584 739.448,685.584 739.384,685.584 C739.32,685.584 739.32,685.648 739.32,685.648 Z M724.856,678.992 L724.856,678.928 C724.792,678.992 724.728,679.056 724.728,679.12 C724.792,679.12 724.856,679.056 724.856,678.992 Z M727.48,675.472 L727.544,675.408 L727.416,675.408 L727.288,675.6 L727.48,675.472 Z M737.336,658.704 L737.336,658.64 L736.12,660.944 C735.672,661.712 735.288,662.416 734.904,663.12 C734.52,663.888 734.072,664.592 733.624,665.296 C732.92,666.512 732.216,667.664 731.512,668.816 C730.744,669.968 730.04,671.184 729.336,672.4 C729.208,672.656 729.016,672.912 728.888,673.168 C728.696,673.424 728.504,673.68 728.376,673.936 L728.12,674.256 C728.12,674.384 728.056,674.512 727.992,674.64 L727.8,675.024 L728.248,674.448 L729.528,672.528 L729.976,671.888 C730.872,670.416 731.832,668.944 732.792,667.408 C733.688,665.936 734.584,664.4 735.48,662.864 L736.248,661.072 C736.376,660.688 736.568,660.24 736.76,659.856 C736.888,659.472 737.08,659.088 737.336,658.704 Z M729.72,669.648 L729.784,669.648 L729.976,669.072 L729.72,669.648 Z M730.36,669.968 L730.104,670.16 L730.168,670.224 L730.36,669.968 Z M730.168,669.008 C730.168,669.008 730.232,669.008 730.232,668.944 C730.36,668.816 730.424,668.688 730.424,668.56 C730.36,668.688 730.296,668.752 730.232,668.816 C730.168,668.88 730.168,668.944 730.168,669.008 Z M730.616,668.176 C730.68,668.176 730.744,668.112 730.808,667.984 C730.808,667.984 730.808,667.92 730.872,667.92 L730.872,667.728 C730.872,667.856 730.808,667.92 730.808,667.92 C730.744,667.92 730.744,667.984 730.744,667.984 L730.616,668.176 Z M731.957387,667.218111 C731.96,667.196074 731.96,667.174037 731.96,667.152 C731.96,667.173009 731.96,667.194019 731.955472,667.215028 L731.957387,667.218111 Z M731.832,666.192 L732.28,665.552 L732.6,664.848 L732.28,665.488 L731.832,666.192 Z M732.792,665.808 L732.92,665.552 L733.176,665.232 C733.048,665.36 732.984,665.488 732.856,665.552 L732.792,665.808 Z M734.456,661.584 C734.712,661.328 734.904,661.008 734.968,660.624 C734.84,660.752 734.776,660.944 734.712,661.072 C734.584,661.264 734.52,661.456 734.456,661.584 C734.392,661.712 734.264,661.84 734.136,662.096 C734.136,662.16 734.072,662.224 734.072,662.224 L734.2,662.096 L734.456,661.584 Z M735.032,661.904 L734.968,661.968 C734.968,662.096 734.904,662.16 734.904,662.16 L734.904,662.288 L735.032,661.904 Z M734.84,662.416 C734.776,662.48 734.776,662.48 734.712,662.48 C734.712,662.544 734.648,662.608 734.584,662.672 L734.84,662.416 Z M734.234782,663.494382 C734.244367,663.47776 734.254184,663.459633 734.264,663.44 C734.254525,663.458951 734.245049,663.476498 734.235574,663.492643 L734.234782,663.494382 Z M733.624,663.184 L733.944,662.608 C733.816,662.736 733.752,662.8 733.752,662.864 C733.688,662.992 733.624,663.056 733.56,663.184 L733.304,663.568 C733.432,663.44 733.56,663.312 733.624,663.184 Z M733.432,664.656 L733.24,664.976 L733.496,664.656 L733.752,664.208 C733.624,664.336 733.56,664.4 733.56,664.464 C733.56,664.592 733.496,664.656 733.432,664.656 Z M735.416,659.536 L735.608,659.344 C735.608,659.28 735.672,659.216 735.8,659.088 L735.8,658.96 L735.736,659.088 L735.416,659.536 Z M737.592,658.256 L737.848,657.424 L737.592,658.192 L737.464,658.384 L737.592,658.256 Z M729.528,658.576 C729.144,659.024 728.824,659.408 728.632,659.664 C728.952,659.408 729.336,659.088 729.784,658.576 C730.232,658.128 730.616,657.68 731.064,657.168 C731.512,656.72 731.896,656.272 732.216,655.952 C732.536,655.568 732.664,655.376 732.728,655.248 C732.792,655.184 732.6,655.312 732.28,655.632 C731.96,656.016 731.32,656.592 730.488,657.488 C730.168,657.744 729.848,658.128 729.528,658.576 Z M731.384,657.68 L730.936,658.128 L731.192,657.936 C731.192,657.936 731.192,657.872 731.256,657.872 C731.32,657.808 731.32,657.808 731.384,657.68 Z M730.744,658.32 L730.488,658.576 C730.424,658.64 730.424,658.704 730.424,658.704 C730.36,658.768 730.36,658.832 730.296,658.832 L730.488,658.64 L730.744,658.32 Z M729.848,659.472 L729.464,659.92 C729.464,659.984 729.464,659.984 729.4,659.984 C729.336,659.984 729.336,660.048 729.336,660.048 L729.464,659.984 L729.848,659.536 L729.848,659.472 Z M728.972263,660.557694 L729.08,660.432 C729.038102,660.473898 728.996204,660.515796 728.972263,660.557694 Z M728.845404,660.705695 C728.79066,660.742464 728.732768,660.779232 728.696,660.816 C728.696,660.839426 728.696,660.862851 728.692862,660.883138 L728.696,660.88 L728.845404,660.705695 Z M728.312,660.176 C727.736,660.56 727.352,661.072 727.16,661.712 C727.352,661.52 727.608,661.264 727.8,661.008 C727.992,660.752 728.184,660.496 728.312,660.176 Z M726.2,662.928 C726.136,662.992 726.136,663.056 726.136,663.056 L726.328,662.864 L726.648,662.352 L726.264,662.8 C726.264,662.864 726.264,662.928 726.2,662.928 Z M725.957205,663.207369 C725.944,663.225653 725.944,663.248 725.944,663.248 L725.432,663.952 L725.944,663.312 C725.944,663.267662 725.944,663.223324 725.96528,663.200266 L725.957205,663.207369 Z M725.382733,667.009141 C725.566646,666.822094 725.692953,666.635047 725.88,666.448 C726.008,666.32 726.136,666.128 726.264,665.872 C727.352,664.336 728.44,662.8 729.592,661.328 C730.68,659.856 731.96,658.448 733.304,657.04 L734.712,655.568 L734.968,655.312 L735.288,655.056 L734.648,655.44 C734.2,655.824 733.816,656.144 733.432,656.528 C732.984,656.848 732.6,657.232 732.28,657.616 C730.936,659.024 729.72,660.432 728.696,661.904 C727.608,663.376 726.584,664.848 725.624,666.384 C725.56,666.512 725.496,666.576 725.496,666.704 C725.443499,666.809002 725.434066,666.914003 725.397042,666.983675 L725.382733,667.009141 Z M724.664,668.112 L724.664,668.176 L724.792,668.112 L724.856,667.984 C724.792,667.984 724.728,668.048 724.664,668.112 Z M723.96,669.456 L723.832,669.712 C723.896,669.712 723.96,669.648 724.024,669.584 C724.024,669.584 724.024,669.52 724.088,669.456 L724.088,669.328 L723.96,669.456 Z M723.64,669.904 L723.64,670.16 C723.64,670.16 723.64,670.096 723.704,670.096 C723.768,670.032 723.768,670.032 723.768,669.968 L723.832,669.776 L723.768,669.84 C723.704,669.84 723.704,669.904 723.64,669.904 Z M722.936,671.312 L722.936,671.376 L723.064,671.376 L723,671.312 L722.936,671.312 Z M722.168,672.912 L722.104,673.04 L722.168,673.04 C722.232,672.976 722.232,672.976 722.232,672.912 C722.296,672.848 722.36,672.784 722.36,672.72 L722.296,672.656 C722.296,672.72 722.296,672.784 722.232,672.784 C722.168,672.848 722.168,672.912 722.168,672.912 Z M721.912,673.36 L721.784,673.616 C721.848,673.552 721.912,673.488 721.912,673.424 C721.976,673.296 722.04,673.232 722.104,673.168 L721.912,673.36 Z M725.432,667.536 C723.64,670.672 722.168,673.872 720.952,677.136 C720.056,679.504 719.224,681.744 718.52,683.92 C720.504,681.552 722.488,679.12 724.28,676.624 C726.968,672.976 729.528,669.136 731.896,665.104 C732.856,663.44 733.816,661.712 734.712,659.984 C735.608,658.256 736.376,656.464 737.016,654.608 C737.016,654.544 737.08,654.416 737.08,654.288 C735.224,655.632 733.496,657.04 732.024,658.64 C729.4,661.456 727.224,664.4 725.432,667.536 Z M739.064,686.224 L737.72,688.4 C736.568,690.576 735.352,692.752 734.136,694.864 C732.92,696.976 731.768,699.088 730.68,701.264 L729.656,703.568 C729.592,703.696 729.528,703.76 729.592,703.888 C729.592,704.016 729.592,704.144 729.528,704.208 L729.784,703.952 C729.848,703.824 729.848,703.76 729.912,703.632 L732.856,697.872 L738.552,687.632 C738.68,687.44 738.808,687.184 738.872,686.928 C738.936,686.672 739,686.48 739.064,686.224 Z M731.768,697.936 C731.832,698 731.832,698.064 731.832,698.064 L731.96,698 L731.832,697.872 L731.768,697.936 Z M737.272,686.736 C737.208,686.864 737.144,686.928 737.144,686.992 L737.336,686.8 L737.4,686.672 C737.336,686.672 737.336,686.736 737.272,686.736 Z M736.888,687.248 L736.888,687.44 C736.952,687.376 737.016,687.312 737.016,687.248 L737.08,687.056 L736.888,687.248 Z M736.376,688.464 L736.184,688.592 L736.248,688.592 C736.312,688.592 736.312,688.592 736.376,688.528 L736.376,688.464 Z M735.224,690.256 C735.16,690.384 735.16,690.384 735.224,690.384 L735.352,690.32 L735.416,690 L735.608,689.808 C735.672,689.808 735.672,689.744 735.672,689.744 C735.672,689.68 735.672,689.68 735.736,689.616 C735.8,689.616 735.8,689.552 735.736,689.552 C735.608,689.616 735.544,689.68 735.48,689.808 L735.416,690 C735.352,690.128 735.352,690.128 735.288,690.192 C735.224,690.192 735.224,690.256 735.224,690.256 Z M734.968,692.496 L734.904,692.624 L735.032,692.496 C735.096,692.496 735.096,692.432 735.096,692.432 C735.096,692.368 735.096,692.368 735.16,692.304 C735.16,692.304 735.16,692.24 735.096,692.24 C735.096,692.304 735.096,692.304 735.032,692.368 C734.968,692.368 734.968,692.432 734.968,692.496 Z M734.584,693.072 C734.52,693.2 734.392,693.392 734.328,693.52 L734.136,693.712 L734.072,693.904 C734.008,693.904 734.008,693.968 734.072,693.968 L734.264,693.712 L734.328,693.52 L734.904,692.688 C734.776,692.816 734.648,692.944 734.584,693.072 Z M733.944,692.688 C733.88,692.752 733.88,692.816 733.88,692.88 C733.88,692.88 733.944,692.816 734.008,692.688 C734.072,692.688 734.072,692.624 734.072,692.624 C734.072,692.56 734.072,692.56 734.136,692.496 C734.136,692.496 734.136,692.432 734.072,692.432 C734.072,692.496 734.072,692.496 734.008,692.56 C733.944,692.56 733.944,692.624 733.944,692.688 Z M733.56,693.392 C733.624,693.264 733.752,693.136 733.816,692.944 C733.752,693.2 733.56,693.456 733.304,693.776 C733.368,693.648 733.496,693.52 733.56,693.392 Z M732.984,696.08 C733.048,696.08 733.048,696.016 732.984,695.952 L732.792,696.336 L732.856,696.336 L732.856,696.272 C732.92,696.272 732.984,696.208 732.984,696.08 Z M732.664,694.864 L732.6,695.056 C732.664,695.056 732.728,695.056 732.728,694.928 L732.856,694.8 C732.792,694.736 732.792,694.736 732.856,694.672 L732.664,694.864 Z M732.468862,696.787138 C732.463426,696.822277 732.448574,696.848 732.408,696.848 L732.468862,696.787138 Z M732.468862,696.787138 L732.6,696.656 L732.664,696.464 L732.536,696.592 C732.472,696.656 732.408,696.72 732.472,696.72 C732.472,696.743426 732.472,696.766851 732.468862,696.787138 Z M731.832,696.528 C731.832,696.528 731.832,696.592 731.768,696.656 C731.832,696.656 731.896,696.592 731.96,696.528 C731.96,696.528 731.96,696.464 732.024,696.4 C732.088,696.4 732.088,696.336 732.088,696.336 C732.024,696.272 732.024,696.272 732.088,696.208 L731.896,696.336 C731.832,696.464 731.768,696.464 731.832,696.528 Z M731.576,696.848 C731.512,696.912 731.512,696.976 731.512,697.04 L731.576,697.104 C731.64,697.04 731.704,696.976 731.704,696.848 L731.768,696.72 C731.704,696.72 731.64,696.784 731.576,696.848 Z M731.256,699.024 L731.256,699.152 L731.384,699.152 L731.384,699.024 L731.256,699.024 Z M730.808,698.32 L730.808,698.512 L731,698.32 L731,698.128 L730.808,698.32 Z M730.232,699.6 C730.168,699.664 730.168,699.728 730.168,699.792 C730.232,699.792 730.296,699.792 730.296,699.664 C730.36,699.664 730.36,699.6 730.296,699.472 C730.296,699.536 730.296,699.6 730.232,699.6 Z M730.04,701.712 L729.912,701.776 C729.976,701.776 729.976,701.776 729.976,701.84 L730.04,701.84 L730.04,701.776 C730.104,701.776 730.104,701.712 730.04,701.712 Z M729.509114,701.263982 C729.515071,701.264 729.521363,701.264 729.528,701.264 C729.528,701.264 729.528,701.263056 729.528115,701.261284 L729.509114,701.263982 Z M728.696,702.672 L728.696,703.056 C728.696,703.056 728.696,702.992 728.76,702.992 C728.824,702.928 728.824,702.928 728.888,702.8 L728.888,702.48 L728.696,702.672 Z M728.568,706.32 L728.248,707.408 C728.376,707.408 728.504,707.408 728.568,707.344 C728.76,706.96 728.824,706.64 728.888,706.256 C728.952,705.936 729.016,705.616 729.016,705.36 C728.952,705.552 728.888,705.68 728.824,705.872 C728.76,706 728.632,706.192 728.568,706.32 Z M727.544,705.872 L727.864,705.488 L727.736,705.232 C727.672,705.36 727.608,705.424 727.608,705.488 C727.544,705.616 727.544,705.744 727.544,705.872 Z M732.664,708.432 L732.536,708.496 L732.6,708.432 L732.664,708.432 Z M735.288,707.536 L734.904,707.984 C734.968,707.92 735.096,707.792 735.288,707.536 Z M737.752,702.8 L737.72,702.8 L737.752,702.8 Z M737.752,702.8 L737.784,702.8 C737.784,702.736 737.848,702.736 737.848,702.672 C737.848,702.736 737.784,702.736 737.784,702.8 L737.752,702.8 Z M737.69254,702.859433 C737.706891,702.844821 737.72,702.828965 737.72,702.8 C737.709513,702.820974 737.699026,702.840229 737.688258,702.858329 L737.69254,702.859433 Z M737.69254,702.859433 C737.675179,702.877109 737.656,702.892965 737.656,702.928 L737.464,703.12 C737.571026,703.012974 737.633308,702.950692 737.688258,702.858329 L737.69254,702.859433 Z M739.128,703.184 C739.192,703.184 739.192,703.12 739.256,703.12 L739.128,703.184 Z M740.728,699.152 L740.728,699.088 L740.792,699.088 L740.728,699.152 Z M775.544,696.656 C775.736,696.656 775.8,696.72 775.928,696.72 C775.928,696.848 775.8,697.104 775.736,697.168 C774.2,698.32 772.792,699.408 771.32,700.304 C769.144,701.648 767.032,702.608 764.728,703.376 C763.832,703.696 763.064,704.272 762.424,705.04 C760.248,707.6 757.752,709.648 754.872,711.248 C752.952,712.336 751.096,713.168 749.24,712.976 C747.064,712.848 745.272,712.016 744.056,710.48 C742.904,709.008 742.776,707.088 743.288,704.912 C743.672,702.608 744.696,700.304 745.848,698.064 C746.168,697.424 746.552,696.656 746.616,695.952 C746.872,694.096 747.704,692.304 748.856,690.576 C750.584,688.144 752.824,686.032 755.448,684.368 C760.12,681.296 764.6,681.808 766.776,683.728 C767.672,684.624 768.248,685.648 768.504,686.928 C769.08,689.04 769.016,691.344 768.504,693.84 C768.12,695.952 767.16,698 766.008,700.048 L765.688,700.688 C765.624,700.944 765.688,701.072 766.008,701.008 L766.52,700.816 C768.76,699.728 770.872,698.512 772.856,696.848 C773.176,696.592 773.432,696.272 773.816,696.08 C774.776,695.376 775.16,695.44 775.48,696.208 C775.544,696.336 775.48,696.464 775.544,696.656 L775.224,696.848 C775.096,696.912 775.096,696.912 775.096,696.976 L775.544,696.656 Z M755.576,686.032 C755.448,686.096 755.384,686.16 755.192,686.288 L755.576,686.032 Z M754.74344,686.640466 L754.936,686.48 C754.862857,686.516571 754.810612,686.574041 754.74344,686.640466 Z M753.784,686.032 L753.528,686.288 C753.592,686.224 753.72,686.096 753.848,686.032 L753.784,686.032 Z M752.312,687.312 C752.376,687.312 752.376,687.312 752.504,687.248 L752.696,686.928 L752.312,687.312 Z M750.264,689.616 L750.264,689.552 L750.136,689.616 L750.072,689.68 C749.688,690 749.432,690.384 749.304,690.832 L749.24,690.832 L748.856,691.408 C749.048,691.216 749.112,691.088 749.304,690.896 L749.304,690.832 L750.072,689.68 L750.264,689.616 Z M750.584,689.168 C751.224,688.72 751.736,688.144 752.056,687.568 C751.352,687.952 750.904,688.528 750.584,689.168 Z M757.688,706.256 C758.072,705.936 758.328,705.488 758.648,705.104 C758.2,705.04 757.88,704.912 757.432,704.912 C755.64,704.912 753.912,704.72 752.44,704.08 C750.968,703.44 749.688,702.608 748.536,701.648 C748.088,701.264 747.832,701.328 747.448,702.032 C747.192,702.736 746.936,703.44 746.68,704.208 L746.552,704.208 L745.848,707.984 C745.848,708.816 745.912,709.584 746.296,710.224 C746.744,711.056 747.576,711.312 748.792,711.056 C749.496,710.928 750.328,710.736 750.968,710.416 C753.464,709.52 755.64,707.984 757.688,706.256 Z M750.296677,694.065259 C750.315409,694.033556 750.328,694.000778 750.328,693.968 C750.316695,693.99061 750.301396,694.011224 750.283866,694.030193 L750.296677,694.065259 Z M749.720342,696.080952 C749.758262,696.037968 749.816,695.994984 749.816,695.952 L749.816,695.888 L751.928,693.328 L752.568,692.624 C752.376,692.816 752.184,693.008 751.864,693.136 C750.904,693.968 750.072,694.8 749.816,695.888 C749.779607,695.960787 749.743213,696.012878 749.718588,696.056043 L749.720342,696.080952 Z M750.392,693.904 L750.52,693.776 L750.52,693.712 C750.456,693.776 750.456,693.84 750.392,693.904 Z M758.6,707.816 C758.568,707.84 758.552,707.856 758.52,707.856 C758.552,707.856 758.584,707.84 758.624,707.816 L758.6,707.816 Z M758.888,707.592 C758.92,707.568 758.968,707.536 759.032,707.472 C759,707.504 758.952,707.536 758.912,707.568 L758.888,707.592 Z M760.568,706.128 L761.848,704.72 L761.784,704.656 C761.144,704.976 760.824,705.488 760.504,705.936 L759.8,706.768 L760.568,706.128 Z M762.552,701.648 L762.936,701.264 L763,701.136 L762.808,701.2 L762.552,701.648 Z M751.672,690.384 C751.64,690.352 751.624,690.304 751.592,690.256 L751.672,690.384 Z M751.672,690.384 C751.608,690.64 751.16,691.152 751.928,690.896 C752.184,690.832 752.376,690.64 752.568,690.512 C753.656,690.064 754.424,690.192 755,690.832 C755.448,691.152 755.384,691.344 754.808,691.856 C754.104,692.496 753.208,693.072 752.568,693.776 C751.224,695.12 750.456,696.656 749.496,698.064 C748.664,699.344 748.728,700.24 749.496,701.008 C749.752,701.136 749.88,701.328 750.072,701.52 C752.44,703.568 755.768,703.824 759.544,703.312 C760.44,703.184 761.08,702.736 761.72,701.904 C765.112,697.488 766.84,693.008 766.776,688.464 C766.776,687.184 766.456,686.096 765.944,685.072 C765.688,684.432 765.24,683.856 764.408,683.792 C762.616,683.6 760.824,683.792 758.968,684.688 C756.6,685.84 754.552,687.376 752.696,689.296 C752.44,689.616 752.056,690.064 751.672,690.384 Z M764.28,701.52 C764.28,701.392 764.344,701.392 764.408,701.328 L764.28,701.392 L764.28,701.52 Z M771.896,698.064 L772.152,697.808 C772.088,697.872 771.96,698 771.832,698.064 L771.896,698.064 Z M772.712,697.472 C772.744,697.44 772.792,697.392 772.856,697.296 C772.792,697.36 772.744,697.408 772.712,697.448 L772.712,697.472 Z M773,697.192 C772.968,697.216 772.952,697.232 772.92,697.232 C772.952,697.232 773,697.216 773.048,697.192 L773,697.192 Z M773.496,696.848 C773.368,696.912 773.304,696.976 773.304,697.04 L773.496,696.848 Z M773.30163,698.303407 C773.282667,698.312889 773.261333,698.32 773.24,698.32 L772.92,698.576 L773.30163,698.303407 Z M773.716486,697.947151 L774.072,697.744 C774.072,697.744 773.944,697.808 773.88,697.808 C773.833616,697.854384 773.787233,697.900767 773.716486,697.947151 Z M774.392,697.552 L774.712,697.232 C774.712,697.232 774.648,697.296 774.584,697.296 C774.456,697.424 774.392,697.488 774.392,697.552 Z M809.656,692.752 C809.912,692.752 809.976,693.008 810.168,693.136 C809.912,693.328 809.656,693.52 809.4,693.584 C806.84,694.672 804.408,695.76 801.912,696.784 C801.272,697.04 800.76,697.488 800.376,698.128 C797.944,701.712 795.128,704.976 791.672,707.792 C789.944,709.2 788.152,710.544 786.296,711.568 C784.12,712.72 782.264,712.784 780.664,711.888 C780.28,711.696 779.896,711.376 779.768,710.864 C779.576,710.288 779.704,709.584 780.024,708.88 C780.536,708.048 781.24,707.28 781.88,706.576 C783.672,704.912 785.528,703.504 787.512,702.352 C789.56,701.2 791.544,700.176 793.592,699.216 C795.128,698.384 796.792,697.68 798.456,696.976 C799.032,696.72 799.48,696.336 799.8,695.824 C801.016,693.712 802.168,691.536 802.936,689.296 C803.448,688.144 803.896,686.928 804.088,685.776 C804.344,684.56 804.344,683.472 804.024,682.448 C803.768,681.744 803.32,681.488 802.552,681.68 C800.44,682.256 798.456,683.216 796.536,684.56 C793.08,686.928 789.944,689.808 787,692.944 C781.944,698.256 777.912,704.144 774.52,710.288 C773.112,712.784 761.72,739.216 760.568,741.84 C760.504,741.968 760.504,742.096 760.376,742.224 C760.184,742.608 759.928,742.672 759.736,742.416 C759.608,742.288 759.544,742.288 759.288,742.288 C759.032,742.416 758.776,742.288 758.52,742.224 C758.072,741.968 758.072,741.904 758.264,741.2 L771.32,708.624 C772.216,705.808 772.728,703.824 773.496,701.968 C774.264,699.472 775.224,697.04 776.248,694.544 C776.888,692.816 777.528,691.152 778.232,689.488 C779,687.76 779.768,685.968 780.664,684.24 C780.92,683.664 781.368,683.088 781.816,682.448 C782.392,681.68 782.84,681.552 783.416,681.872 C783.736,682 783.864,682.192 784.056,682.448 C784.056,682.448 784.056,682.704 783.992,682.768 C783.16,683.792 782.52,684.88 782.072,685.968 C781.496,687.12 780.984,688.464 780.472,689.68 C779.192,692.944 777.912,696.272 776.632,699.536 C775.992,701.328 775.352,703.248 774.712,705.104 C774.648,705.232 774.648,705.296 774.648,705.488 C774.584,705.552 774.648,705.616 774.648,705.616 C774.776,705.616 774.84,705.552 774.904,705.488 C775.096,705.296 775.288,704.976 775.416,704.784 C777.528,701.392 779.896,698.192 782.52,695.12 C786.168,690.96 790.136,687.184 794.616,683.92 C796.536,682.512 798.584,681.552 800.696,680.848 C802.68,680.208 804.024,680.656 804.984,681.872 C806.008,683.344 806.008,685.264 805.432,687.312 C804.984,689.424 804.088,691.472 803.064,693.584 L802.68,694.288 C802.552,694.544 802.552,694.864 802.488,695.12 C802.68,695.056 802.936,695.056 803.192,694.928 L806.712,693.392 C807.288,693.136 807.864,692.88 808.44,692.752 C808.888,692.624 809.336,692.624 809.656,692.752 Z M783.16,682.768 C783.16,682.832 783.16,682.896 783.096,682.96 C783.096,682.96 783.16,682.96 783.16,683.024 L783.288,682.832 C783.288,682.832 783.224,682.832 783.16,682.768 Z M782.52,682.256 L782.456,682.256 C782.392,682.32 782.392,682.32 782.456,682.384 C782.456,682.32 782.52,682.32 782.52,682.32 L782.52,682.256 Z M784.608145,693.393891 L784.696,693.328 C784.76,693.136 784.952,693.072 785.016,692.944 L784.952,692.944 L784.696,693.264 C784.669682,693.316636 784.643364,693.35845 784.608145,693.393891 Z M784.523211,693.457592 C784.484155,693.479724 784.436414,693.499862 784.376,693.52 L784.12,693.84 C784.248,693.776 784.376,693.584 784.44,693.52 L784.523211,693.457592 Z M783.592,694.48 C783.512,694.56 783.448,694.64 783.416,694.736 C783.48,694.64 783.56,694.576 783.64,694.504 L783.592,694.48 Z M782.968,695.184 C782.968,695.248 782.904,695.248 782.904,695.248 L782.968,695.248 L783.352,694.8 C783.16,694.928 783.096,695.056 782.968,695.184 Z M782.712,695.568 C782.584,695.696 782.456,695.824 782.392,695.952 C782.52,695.824 782.584,695.696 782.712,695.632 L782.712,695.568 Z M781.208,697.424 L781.176,697.424 L781.208,697.424 Z M781.208,697.424 L781.24,697.424 L781.752,696.72 L781.816,696.72 C781.88,696.656 781.88,696.592 782.008,696.464 L781.752,696.72 C781.432,696.912 781.304,697.104 781.24,697.424 L781.208,697.424 Z M780.720483,697.961397 L780.536,698.192 L780.344,698.448 L780.6,698.192 C780.648962,698.143038 780.660467,698.056618 780.720483,697.961397 Z M780.061428,698.799052 C780.022326,698.852702 780.013649,698.906351 779.96,698.96 L779.896,699.024 C779.96,698.96 780.024,698.96 780.024,698.96 C780.024,698.906389 780.024,698.852778 780.061619,698.799166 L780.061428,698.799052 Z M779.896,699.024 C779.448,699.344 779.192,699.792 779,700.24 C779.448,699.92 779.768,699.472 779.896,699.024 Z M778.808,701.328 L778.808,701.392 L778.808,701.328 Z M778.936,700.304 L779,700.304 L778.936,700.304 Z M778.936,700.304 L778.872,700.304 C778.616,700.56 778.488,700.816 778.296,701.2 L778.872,700.304 L778.936,700.304 Z M777.912,701.712 L777.656,702.096 C777.784,702.032 777.848,701.84 777.912,701.712 Z M777.528,702.416 C777.336,702.608 777.144,702.8 776.952,703.12 L777.528,702.416 Z M777.016,703.952 L776.76,704.336 C776.888,704.208 776.952,704.08 777.016,703.952 Z M776.726645,704.49872 C776.609763,704.624872 776.492882,704.795118 776.376,704.912 L776.376,704.976 C776.49291,704.800635 776.60982,704.62527 776.72673,704.49867 L776.726645,704.49872 Z M775.420372,705.582114 C775.435834,705.513868 775.489917,705.414083 775.544,705.36 L775.928,704.784 C775.736,704.976 775.672,705.168 775.48,705.36 C775.431537,705.408463 775.419772,705.493624 775.416916,705.559905 L775.420372,705.582114 Z M775.16,706 C774.776,706.32 774.52,706.768 774.392,707.216 C774.84,706.832 775.032,706.384 775.16,706 Z M774.2,707.408 L774.264,707.408 C774.328,707.408 774.392,707.344 774.392,707.28 C774.328,707.344 774.264,707.344 774.2,707.408 Z M786.808,692.432 L787.128,692.048 L786.808,692.304 L786.232,692.88 L785.656,693.52 L784.888,694.416 L783.416,696.08 L783.096,696.464 C782.712,696.976 782.264,697.424 781.88,697.936 L781.56,698.32 C781.24,698.768 780.792,699.216 780.408,699.664 C778.616,702.096 776.952,704.592 775.416,707.216 C774.968,707.92 774.584,708.752 774.2,709.52 C773.944,709.968 773.688,710.48 773.368,710.992 L772.28,712.848 C772.28,712.912 772.28,713.04 772.344,713.104 L772.536,712.848 L773.432,711.056 C773.752,710.608 774.008,710.032 774.2,709.584 C774.456,709.264 774.712,709.008 774.84,708.688 C776.376,706.064 777.976,703.504 779.768,701.008 C780.344,700.176 781.048,699.28 781.688,698.448 L781.944,698.128 L783.16,696.592 L783.416,696.208 L784.952,694.48 L785.72,693.52 C785.912,693.328 786.168,693.136 786.296,692.944 C786.552,692.752 786.68,692.56 786.808,692.432 Z M787.448,691.728 L787.96,691.216 C787.768,691.408 787.576,691.536 787.448,691.728 Z M788.984,688.976 L789.112,688.848 L788.984,688.976 Z M788.984,690.192 L789.24,689.936 L788.984,690.192 Z M788.984,690.192 L788.728,690.448 C788.664,690.512 788.6,690.576 788.6,690.64 C788.6,690.576 788.664,690.576 788.728,690.448 L788.984,690.192 Z M789.56,689.744 C789.56,689.68 789.624,689.616 789.624,689.616 L789.304,689.872 C789.368,689.872 789.496,689.808 789.56,689.744 Z M790.121,689.119 C790.092,689.136 790.056,689.152 790.008,689.168 L789.88,689.36 L790.121,689.119 Z M790.295939,688.945464 C790.403581,688.847519 790.4671,688.84245 790.584,688.784 L790.84,688.592 L790.84,688.528 C790.712,688.656 790.648,688.72 790.52,688.784 L790.328,688.912 C790.31633,688.92367 790.305723,688.934809 790.295939,688.945464 Z M791.224,688.136 C791.272,688.112 791.32,688.08 791.352,688.016 C791.288,688.048 791.24,688.08 791.2,688.112 L791.224,688.136 Z M791.608,687.824 L791.864,687.632 L791.48,687.888 C791.544,687.888 791.544,687.888 791.608,687.824 Z M791.992,687.504 C792.056,687.504 792.056,687.504 792.12,687.44 L792.056,687.44 L791.992,687.504 Z M794.512,685.448 C794.536,685.424 794.552,685.392 794.552,685.328 C794.552,685.36 794.536,685.392 794.512,685.424 L794.512,685.448 Z M780.856,708.432 L781.176,707.984 L780.792,708.432 L780.728,708.496 C780.792,708.496 780.792,708.432 780.856,708.432 Z M800.824,694.8 L800.504,695.248 C800.568,695.184 800.696,694.992 800.824,694.8 Z M800.329705,695.632897 C800.281137,695.635721 800.232568,695.647432 800.184,695.696 L800.248,695.76 C800.248,695.705467 800.294467,695.650934 800.347807,695.635994 L800.329705,695.632897 Z M796.837924,700.605557 C796.810978,700.635913 796.780087,700.661957 796.728,700.688 L796.837924,700.605557 L796.837924,700.605557 Z M796.837924,700.605557 L796.984,700.496 L796.984,700.432 C797.56,699.92 797.944,699.408 798.2,698.832 L798.264,698.832 L798.2,698.768 L798.2,698.832 C797.688,699.28 797.24,699.856 796.984,700.432 C796.908087,700.507913 796.877196,700.561315 796.837924,700.605557 Z M782.805479,707.435617 L782.84,707.408 C782.830857,707.417143 782.819102,707.426286 782.805481,707.435615 L782.805479,707.435617 Z M781.432,709.2 C781.496,709.136 781.496,709.072 781.56,709.008 L781.432,709.072 L781.432,709.2 Z M781.56,708.944 C781.88,708.688 782.136,708.432 782.2,708.048 C781.88,708.24 781.624,708.56 781.56,708.944 Z M786.872,709.456 C790.904,706.832 794.232,703.504 797.112,699.664 C797.24,699.536 797.368,699.344 797.496,699.152 C797.496,699.088 797.368,698.96 797.304,698.96 C797.176,698.96 796.984,699.088 796.856,699.152 C795.576,699.728 794.36,700.304 793.144,700.944 C790.392,702.224 787.768,703.76 785.272,705.744 C784.504,706.448 783.672,707.216 782.904,708.048 C782.392,708.56 781.88,709.2 781.752,709.904 C781.688,710.032 781.624,710.16 781.624,710.288 C781.432,711.184 781.624,711.568 782.584,711.376 C783.16,711.312 783.736,711.184 784.184,710.928 C785.08,710.48 785.976,710.032 786.872,709.456 Z M794.36,704.784 L794.616,704.464 L794.168,704.912 L794.36,704.784 Z M795.255486,702.4806 C795.426324,702.310454 795.597162,702.145892 795.768,702.032 C795.512,702.16 795.384,702.352 795.256,702.48 L795.255486,702.4806 Z M795.128,703.824 L795.512,703.44 C795.384,703.504 795.256,703.696 795.128,703.824 C795.064,703.952 794.936,704.144 794.808,704.208 C795,704.144 795.128,703.952 795.128,703.824 Z M796.6,700.943971 C796.6,700.94399 796.6,700.944 796.6,700.944 C796.6,700.944 796.600027,700.944 796.600078,700.943999 L796.6,700.943971 Z M796.224,702.672 C796.136,702.752 796.056,702.832 796.024,702.928 C796.088,702.832 796.168,702.752 796.248,702.672 L796.224,702.672 Z M796.536,702.352 C796.536,702.352 796.6,702.352 796.664,702.288 L796.536,702.352 Z M799.8,698.256 C799.8,698.128 799.864,698.128 799.864,698.064 L799.672,698.128 C799.288,698.384 798.904,698.64 799.032,699.088 L798.008,700.432 L797.752,700.816 L797.112,701.584 L796.856,701.968 L796.664,702.224 L796.856,702.032 C796.984,701.84 797.048,701.712 797.24,701.648 L797.496,701.264 C797.624,701.136 797.688,701.008 797.816,700.88 L798.136,700.496 L799.096,699.216 L799.8,698.256 Z M801.784,695.12 L801.784,695.056 C801.72,695.056 801.656,695.056 801.656,695.12 C801.592,695.184 801.592,695.248 801.528,695.312 L801.784,695.12 Z" id="Shop"></path>
        </g>
    </g>
</svg>