<?xml version="1.0" encoding="UTF-8" standalone="no"?>
<svg width="150px" height="150px" viewBox="0 0 150 150" version="1.1" xmlns="http://www.w3.org/2000/svg" xmlns:xlink="http://www.w3.org/1999/xlink">
    <!-- Generator: Sketch 50.2 (55047) - http://www.bohemiancoding.com/sketch -->
    <title>shop-ban</title>
    <desc>Created with Sketch.</desc>
    <defs></defs>
    <g id="Page-1" stroke="none" stroke-width="1" fill="none" fill-rule="evenodd">
        <g id="Fonts-and-colors" transform="translate(-52.000000, -704.000000)">
            <g id="shop-ban" transform="translate(52.000000, 704.000000)">
                <g id="Group-6-Copy-3">
                    <path d="M146.424801,74.8330158 C146.023665,114.279444 113.720442,145.932613 74.2743613,145.531952 C34.827334,145.130818 3.17406409,112.827698 3.57519945,73.3812699 C3.97586178,33.9348414 36.2795575,2.28167241 75.7256387,2.68233346 C115.172666,3.08346754 146.825936,35.3865873 146.424801,74.8330158" id="Fill-1293" fill="#FFFFFE"></path>
                    <polyline id="Fill-1294" fill="#B684AC" points="147.966545 75.2949758 146.268808 74.5293634 142.257762 83.4198315 143.713954 92.2342172 138.195642 99.2577402 137.485369 108.162041 130.437975 113.653276 127.616038 122.131409 119.462002 125.783896 114.703441 133.345849 105.914682 134.948899 99.4855179 141.150413 90.5701334 140.59283 82.8364085 145.063071 74.3104769 142.382629 65.7329375 144.889092 58.0901913 140.262431 49.1657622 140.638586 42.8632233 134.308318 34.1095788 132.527032 29.5053098 124.868779 21.4268233 121.050826 18.7783311 112.517892 11.8442614 106.884602 11.3154142 97.9675316 5.94075209 90.8338754 7.57624125 82.0503483 4.06744132 73.8329168 7.74223754 65.6873114 6.28604567 56.8729257 11.8048905 49.8494027 12.5151631 40.9451014 19.5620252 35.4538673 22.3834302 26.9757339 30.5379983 23.3232466 35.2976228 15.7612943 44.0853178 14.1577113 50.5144821 7.95672953 59.4298666 8.51431245 67.1635915 4.04407229 75.6895231 6.72451384 84.2670625 4.21805093 91.9098087 8.84471225 100.834238 8.46802456 107.136245 14.7988253 115.890421 16.5801112 120.49469 24.2378315 128.573177 28.0563168 131.221669 36.5892509 138.155739 42.2225409 138.684054 51.1396112 144.059248 58.2732675 142.423759 67.0562626 146.25391 76.0265374 147.966545 75.2949758 146.268808 74.5293634 147.966545 75.2949758 149.678648 74.5634143 146.291153 66.6306267 148.020813 57.3421891 142.33544 49.7967302 141.776267 40.3657046 134.444764 34.4089314 131.644108 25.3886444 123.105408 21.3525527 118.238311 13.2574916 108.981889 11.373521 102.3165 4.67773762 92.8765243 5.07623915 84.7948456 0.183555446 75.728894 2.8331384 66.7182745 0 58.5397646 4.72721778 49.1098981 4.13718013 42.3099023 10.6962281 33.017834 12.3913227 27.9863372 20.3852954 19.3667667 24.2463442 16.3841537 33.2086384 8.93294175 39.014843 8.1817021 48.4325674 2.34416566 55.8615086 3.88388772 65.1829329 0 73.7914173 3.70884675 82.4765161 1.97865458 91.7649537 7.66455979 99.3104126 8.22373321 108.741438 15.5552363 114.698211 18.3553598 123.718498 26.8940603 127.754058 31.7616889 135.849651 41.0181106 137.733622 47.6840324 144.428873 57.1234757 144.030904 65.2051544 148.923587 74.271106 146.274004 83.2817255 149.107143 91.4602354 144.379925 100.890102 144.969963 107.690098 138.410915 116.98323 136.71582 122.013663 128.721848 130.632701 124.860799 133.615846 115.898504 141.06759 110.0923 141.818298 100.674575 147.655834 93.2451023 146.116112 83.9242099 150 75.3157256 149.678648 74.5634143 147.966545 75.2949758"></polyline>
                    <polyline id="Fill-1295" fill="#B684AC" points="143.760433 75.2426668 143.039032 74.8995752 139.17876 82.894988 140.769256 91.2424934 135.32862 97.7988272 134.847152 106.280287 127.978109 111.345125 125.465733 119.46655 117.578303 122.758747 113.190711 130.052622 104.741835 131.382103 98.7242908 137.420622 90.2007692 136.692611 82.8955791 141.114152 74.7938081 138.377361 66.6381853 140.950019 59.4247033 136.382346 50.8878521 136.937752 44.9950734 130.779574 36.5739236 129.279607 32.3366894 121.897312 24.5185737 118.446805 22.1725525 110.276669 15.4090801 105.074701 15.1008982 96.5858287 9.79622432 89.9214845 11.557873 81.6073353 8.01538096 73.8734769 11.715163 66.2116254 10.1241341 57.86412 15.5647705 51.3083156 16.0467713 42.8268562 22.9158147 37.7620182 25.4281901 29.6405933 33.3150869 26.3483956 37.7032129 19.0545205 46.1520884 17.7250402 52.1696327 11.6865207 60.6931543 12.4145316 67.9988776 7.99299047 76.1001154 10.729782 84.2557382 8.15712384 91.4692202 12.7247966 100.006071 12.1693905 105.898317 18.3275685 114.32 19.8275357 118.557234 27.2087721 126.374817 30.660338 128.721371 38.8304735 135.48431 44.0324423 135.792492 52.5213142 141.097699 59.1856583 139.336051 67.4998076 143.0321 75.571463 143.760433 75.2426668 143.039032 74.8995752 143.760433 75.2426668 144.488233 74.9138706 141.009723 67.3166136 142.817226 58.7843258 137.371791 51.9442001 137.056144 43.231895 130.115654 37.8938543 127.708316 29.5103455 119.686523 25.9693005 115.33892 18.3953397 106.697031 16.8561923 100.649095 10.5359987 91.8877717 11.1057004 84.4844753 6.41836907 76.1171774 9.05773951 67.8053309 6.25 60.3081936 10.786964 51.5602004 10.0404219 45.3837664 16.2377801 36.7136185 17.6016755 32.2113905 25.086157 24.1186838 28.4641276 21.5407264 36.7973375 14.491999 41.9950707 13.9972018 50.6994338 8.41313819 57.4283724 10.0457557 65.9950752 6.25 73.8554752 9.88420012 81.7899998 8.07669742 90.3228171 13.5210662 97.1624133 13.837779 105.875248 20.7782695 111.213289 23.185074 119.596268 31.2074001 123.137313 35.5550039 130.711803 44.196893 132.250951 50.244829 138.571144 59.0061518 138.001442 66.4094483 142.688774 74.7767462 140.049403 83.0891258 142.857143 90.5857299 138.319649 99.3337231 139.066721 105.509624 132.869363 114.180305 131.504938 118.682533 124.020986 126.77524 120.643015 129.353197 112.309805 136.401924 107.112072 136.896188 98.4077091 142.480785 91.6787705 140.848168 83.1115382 144.642857 75.2516677 144.488233 74.9138706 143.760433 75.2426668"></polyline>
                </g>
                <g id="Group-5-Copy" transform="translate(36.000000, 24.000000)" fill="#B684AC">
                    <path d="M42,63.910652 C36.063227,57.8301583 26.3445035,60.6305339 19.012234,58 L19,58.0434666 C26.4962057,60.8663805 35.206844,59.0834451 41.9306738,64 L42,63.910652" id="Fill-21434"></path>
                    <path d="M69.7376066,51.1044446 C68.000795,56.2129414 63.8410241,60.708671 58.6924417,61.0249671 C54.0823864,61.3079214 49.1226595,61.2646672 45.0511312,58.6198554 L45,58.715375 C49.3181127,61.9215898 55.3252045,62.5028177 60.3954407,61.6404378 C64.6789161,60.9114249 69.3994809,55.9065578 69.9982108,51.1837439 C70.022127,50.9972103 69.7994588,50.9224166 69.7376066,51.1044446" id="Fill-21435"></path>
                    <path d="M68.5255754,32.0542774 C68.3915438,31.9183569 68.1143232,32.0583227 68.1867502,32.2468315 C69.0425543,34.4870935 70.5843335,36.401308 70.9298186,38.8284607 C71.3627156,41.8745374 69.7859716,45.1066958 66.218734,45.1762742 C63.6654743,45.2256263 61.0880723,44.0727288 58.6297169,43.520956 C56.0564774,42.9432937 53.7254937,42.7539758 51.101472,43.0298621 C50.9691054,43.0444251 50.963278,43.2418335 51.101472,43.234552 C55.3405324,43.0177264 59.2474276,44.5395512 63.2667096,45.5654277 C65.5111139,46.1382358 68.0227489,46.3760967 69.9041857,44.7871207 C73.8527057,41.453831 71.5466968,35.1367614 68.5255754,32.0542774" id="Fill-21436"></path>
                    <path d="M73.4438074,56.5750115 C74.4570128,54.434745 74.9262099,52.0713993 74.7099076,49.7169444 C74.9481654,50.2730257 75.1343805,50.8549713 75.1791047,51.5080436 C75.3059587,53.3743108 74.7603239,55.2769496 73.4438074,56.5750115 Z M65.5658503,48.7793654 C63.4776388,48.2143932 61.5927188,47.0707085 59.5158916,46.4556243 C57.5114362,45.8623631 55.4183456,45.6004876 53.3366393,45.4533847 C48.4430034,45.1090669 43.6071022,45.3014322 38.8208042,44.0146858 C38.7037082,43.9823555 38.6207652,44.1577475 38.7362348,44.2151338 C43.4078764,46.5453409 48.6666241,46.1969818 53.7505411,46.6269749 C54.443359,46.8282311 55.1459348,46.9818001 55.8476975,47.1466847 C57.3414844,47.9767654 58.7019119,49.2497714 58.2319017,50.2859579 C58.1879907,50.3829488 58.1863643,50.4742819 58.2034408,50.559149 C54.8483159,52.1514168 51.655011,54.4258541 48.2128772,55.4620406 C41.7051057,57.4220657 34.9948558,56.1401688 28.5708404,54.5495176 C28.4017018,54.5074882 28.2325632,54.4678835 28.0634245,54.4266624 C23.9113964,52.3397408 19.128351,51.6696951 14.5607948,51.2170708 C11.7952156,50.9422632 8.8011365,50.3110138 6.37790034,48.8949462 C4.77027017,47.9557507 2.49584347,45.7378914 3.35536046,43.5863092 C3.54482825,43.1118619 3.78064654,42.726323 4.04899148,42.4054446 C5.30533372,41.6464906 6.67226661,41.1663855 8.10425281,41.0483798 C8.47749624,41.061312 8.85561866,41.0904093 9.23292792,41.1259726 C13.6955857,43.7689755 18.6762305,44.3654697 24.0480084,43.8368691 C27.6625335,43.4812357 31.1941156,42.6366064 34.7484663,41.9285726 C39.2509692,41.0305982 43.5257855,40.6798143 48.0965944,40.9400733 C50.199443,41.4193702 52.4185744,41.8210743 54.4994674,41.9649442 C56.7324226,42.7020752 58.9995308,43.1280271 61.4487883,42.3141115 C61.6878593,42.2349022 61.6553326,41.8679532 61.388614,41.867145 C58.4221826,41.8639119 55.9550355,41.7305494 53.193522,40.4526939 C51.4517194,39.6460526 49.8709237,38.8588096 47.9274558,38.6260313 C43.3664049,38.0804573 38.8321885,39.8052794 34.4199471,40.6604161 C29.1872206,41.6747796 23.2031284,42.4992025 17.8898985,41.6117355 C15.6219771,41.2326626 13.2507836,40.1900101 11.4683226,38.6591699 C10.7763179,37.9309296 10.1013897,37.1978399 9.55656818,36.4162546 C8.49863857,34.6235389 8.20915129,32.4719567 9.28009157,30.0827467 L9.18820376,30.0285935 C8.9881648,30.3761443 8.82959733,30.7277364 8.69135903,31.0809451 C8.72144619,30.9904202 8.74014902,30.9047449 8.77430201,30.8126035 C9.94607494,27.6676725 13.0060205,25.7965558 16.1855015,25.3592884 C18.0907506,25.9323431 19.9650994,26.4463951 21.7963503,27.3476025 C23.7129838,28.2916475 25.5011369,29.4587717 27.3315747,30.5523445 C30.0947145,32.2019986 32.9424235,33.7659774 36.0918174,34.3818698 C40.265801,36.0428395 44.6666581,37.1250967 49.0943497,36.7840119 C49.5334596,36.7500651 49.5383386,36.1293231 49.0943497,36.1018423 C48.6243395,36.0735533 48.1665267,36.0185918 47.703835,35.9741376 C50.6092789,35.8359255 53.6407636,35.5821326 56.1997986,34.1361594 C56.3884532,34.0294694 56.2510281,33.7821425 56.0615603,33.8104316 C53.198401,34.2452742 50.4011083,34.8223703 47.5013565,35.0163521 C46.2084218,35.1028357 44.7992043,35.2766111 43.3981184,35.3242984 C39.0419855,34.4214744 34.976153,32.8574957 30.9623631,30.8570577 C28.5871038,28.9592684 25.94106,27.3176969 23.4153648,25.6680428 C21.6621779,24.5227416 19.8569482,23.3944137 19.0226394,21.391551 C18.3403927,19.7540208 18.4916417,18.2450035 18.9413228,16.6874908 C20.4164068,15.1509928 22.4533889,14.3071717 24.5302161,13.8375739 C28.5740931,12.9226261 32.8066247,13.1473218 36.8927864,12.4570696 C41.3570705,11.7029652 46.751617,9.53521782 49.442385,5.65234752 C49.3285417,5.96514327 49.2114457,6.27632251 49.0764601,6.58022743 L49.0878444,6.61821555 C46.2401353,10.7419467 41.7725986,13.8294913 37.4058945,16.1823297 C32.1601574,19.0096154 26.3029191,20.1880552 20.949844,17.0528233 C20.8262427,16.9800801 20.6985756,17.1473895 20.7977819,17.2492299 C24.6635754,21.2193921 31.8560331,19.491337 36.2284294,17.4577604 C39.3265937,16.0174451 42.2076426,14.0703521 44.8959711,11.9777728 C46.8321205,10.4711803 48.5706705,8.83284183 49.5846891,6.60447517 C48.7186668,9.60796102 47.8241836,12.524155 46.1775215,15.2665736 C44.1429789,18.6531737 41.3684548,21.4529786 38.1954791,23.7961178 C38.12636,23.8470381 38.1865343,23.9593859 38.2645983,23.9133152 C44.5853415,20.1945212 50.2319697,12.5734588 50.1579715,5.02352298 L50.145774,5.00978259 C50.3140995,4.6307097 50.4791723,4.20556612 50.4490851,3.80386201 C50.5417861,3.57835809 50.6377397,3.35366243 50.7125511,3.11845942 C50.8654264,4.22415605 51.0776628,5.33146919 51.166298,6.43069975 C51.2411093,7.36423747 51.2817676,8.30100822 51.2915256,9.23858722 C51.2638779,9.62089315 51.2630648,10.0023908 51.2809544,10.3830802 C51.2638779,11.1703233 51.2272854,11.9559498 51.1500346,12.7391516 C50.7263749,17.0099856 49.1878639,20.6406795 47.0126435,24.307745 C46.8866027,24.5211251 47.1842216,24.7563281 47.3598656,24.5744701 C48.7601383,23.1284969 49.7619594,21.3567959 50.5011278,19.4687058 C51.4907514,18.7469316 52.3705975,18.3153219 53.7838809,18.9780933 C54.0798735,19.1163054 54.365295,19.2884643 54.6490901,19.463048 C54.9930595,19.8194896 55.3589844,20.1621909 55.7566228,20.4895353 C57.6269058,22.0292664 61.4487883,22.9401729 62.2635812,25.3027103 C60.2778286,30.6315538 52.0713523,32.1931078 47.1313658,32.0557039 C41.4920561,31.8980937 35.9218656,30.5733592 30.2971929,30.1369 L30.2955666,30.1514487 C36.9017312,31.7437165 44.5235408,33.6350396 51.3541394,32.7209001 C55.8037865,32.1252141 61.6577721,29.9396851 63.2377546,25.3835361 L63.2841051,25.2428992 C63.3288293,25.1046872 63.3841246,24.9713246 63.4207171,24.828263 C65.6317168,27.5391596 63.9012985,30.1465991 61.9293697,32.2933317 C59.4475856,34.9929127 56.4437485,36.7161182 53.3130575,38.5387395 C53.0935026,38.6664442 53.2390594,39.0123785 53.486262,38.9469097 C56.7836521,38.076416 59.7500835,35.9684798 62.1172112,33.570379 C62.8002711,32.8785104 63.5126049,32.1041994 64.113535,31.2676526 C64.3477269,31.0057771 64.5965559,30.7665328 64.8697798,30.5571941 C66.0488712,30.1409413 67.4280016,30.1191183 68.5330949,30.4602031 C69.5723217,30.7810815 70.2732712,31.4996226 71.0953825,32.0936921 C72.7607475,33.7603196 74.0634403,35.7357016 74.667623,38.0990473 C76.1264437,43.8045388 72.1272908,50.5559159 65.5658503,48.7793654 Z M11.7935892,52.0334111 C13.5435235,52.4254162 15.3178528,52.6202063 17.0320078,52.5280649 C17.4516017,52.594342 17.8695693,52.6654687 18.2834711,52.7462945 C16.1562275,52.6008081 14.0167864,52.5288732 11.9155642,52.1910214 C11.9114984,52.1255525 11.8732795,52.0641249 11.7935892,52.0334111 Z M6.5267098,50.3530432 C7.80988654,50.8687117 9.17275359,51.3439673 10.5770921,51.7246567 C9.86557145,51.5856363 9.14510593,51.4870289 8.44009058,51.2946635 C7.81964454,51.0594605 7.21220916,50.794352 6.63892678,50.4718571 L6.5267098,50.3530432 Z M71.9532732,57.0292524 C70.8912777,58.9044104 69.373909,60.5443654 67.5052524,61.7413952 C62.5449368,64.9178482 56.2347648,64.8224738 50.7971204,63.0507727 C45.1944032,61.2249185 40.0316091,58.6902221 34.1825025,57.5926081 C31.4836028,57.0866387 28.7611214,56.7988989 26.019124,56.6582621 C22.5981325,56.4828701 18.9218068,56.6049171 15.7276887,55.2139054 L15.6780856,55.2987725 C21.8215585,58.4259218 29.0611798,57.4665198 35.6722235,59.0005931 C42.3637706,60.552448 48.514562,64.4143036 55.3500396,65.2249861 C60.6575773,65.8554272 66.4782231,64.6260671 70.4074437,60.83453 L70.4172017,60.8248309 C70.3610932,61.0810486 70.2936004,61.329992 70.2252944,61.5781271 C70.1699991,61.6662272 70.1220222,61.7599851 70.0626611,61.8448522 C69.9854103,61.8577843 69.9105989,61.8876898 69.8512378,61.9483092 C69.0762901,62.7395935 68.2322233,63.3975153 67.3344875,63.9649123 C64.8990538,65.1813402 61.8382951,65.6937756 59.3678953,65.9718163 C56.1786563,66.331491 53.0634154,65.7956161 49.8871871,65.9443355 C47.0069513,66.0793146 45.0586044,67.8784964 42.3694628,68.5372265 C38.8858575,69.3915549 34.6378757,68.3804245 31.1843576,67.8413165 C28.1423017,67.3668692 25.1100038,66.8188704 22.0492451,66.4713196 C20.2391365,66.2668304 18.3403927,66.2522818 16.4335173,66.2320753 C13.8411425,65.6097168 11.0788159,65.7729849 8.48725424,65.0649511 C7.08616836,64.6818369 5.81437595,64.0546289 4.68244818,63.1509967 C3.19272716,61.9620495 0.547496534,58.8607645 2.28116751,56.9645918 C3.3179548,57.040568 4.35474208,57.3339656 5.38583721,57.739711 C7.60903442,59.2454952 10.288418,60.4126194 12.8433872,60.9670842 C16.3424426,62.088946 19.9512755,63.1962591 23.5836903,63.6860633 L23.6080853,63.5987715 C20.7319154,62.5051988 17.7662972,61.7397786 14.8421504,60.8167483 C12.5173074,59.8330986 10.1135872,59.0838436 7.8643687,57.9045956 C6.8812504,57.3889271 5.91602176,56.8239549 5.00202262,56.1935139 C4.7718965,55.9259805 4.49948572,55.7255326 4.19942728,55.5905536 C3.73917504,55.2001651 3.25940681,54.7168269 2.85363673,54.1914594 C2.66660843,53.8245104 2.54544662,53.4349301 2.55683095,53.0122113 C2.58773128,51.8038659 3.46188527,51.3229526 4.42386124,50.9778265 C5.31590489,51.1806992 6.18599304,51.5589638 7.18130884,51.9550101 C7.40899546,52.045535 7.64318741,52.1304021 7.87900569,52.2112279 C11.4292906,53.582033 15.7528969,53.7380268 19.2519524,54.0572886 C27.4039465,54.801694 35.0444589,58.2739694 43.3598996,57.5538117 C46.8573287,57.250715 50.0929182,56.2137203 53.2146644,54.6424672 C56.3160814,53.0817215 59.4004219,51.5104684 62.5026521,49.9642713 C62.5302998,50.0362062 62.5823424,50.0976338 62.6831751,50.0992503 C63.2255571,50.1073329 63.9045512,50.2964652 64.4005827,50.0370145 C64.5168655,49.9763951 64.5168655,49.7904958 64.4005827,49.7298765 C64.0444158,49.543169 63.5914821,49.5900479 63.1637565,49.6328856 C63.3304556,49.5504433 63.4955284,49.464768 63.6622276,49.3823257 C64.059866,49.524579 64.4615702,49.6619829 64.8714061,49.7888793 C66.9352227,50.4298277 69.0380713,50.4362938 71.0059342,49.4801249 C71.3377061,49.3192816 71.6369514,49.1252997 71.9353835,48.9313178 C72.0630507,50.4362938 72.5037869,51.9267211 72.4858972,53.4672604 C72.4712602,54.70147 72.191531,55.8605117 71.9532732,57.0292524 Z M64.7656945,79.413143 C63.1987227,83.8811919 61.413009,88.9538176 61.0064258,93.7920486 L60.9454383,93.8300367 C60.0029783,94.6989138 58.9735095,95.4126054 57.8936244,96.0333474 C57.696025,96.1101319 57.5024913,96.1941907 57.3048919,96.2693587 C58.5376523,91.3842487 59.5980214,86.4765076 61.1527957,81.6706069 C62.6425168,77.0643459 64.5672819,72.6367098 66.2757447,68.1177407 C67.5922612,66.9651651 69.5430477,65.597593 69.9959814,66.8916136 L70.0724191,67.0314422 C67.8240137,70.8868318 66.2017465,75.3193174 64.7656945,79.413143 Z M54.3319551,97.3451497 C54.7198356,95.3964403 54.8239209,93.3596307 55.1312978,91.413346 C55.5460127,88.7857 56.0672525,86.1750274 56.6925775,83.5894108 C57.7757153,79.1124711 59.2906445,74.8060737 60.7567837,70.4568387 L60.8039473,70.3913698 C61.1747512,70.0648336 61.559379,69.7544627 61.9708412,69.454599 C62.0863109,69.3705402 62.5815293,69.0957326 63.1304167,68.8079928 C63.3914431,68.7554561 63.6597881,68.745757 63.8516954,68.987426 C64.0785688,69.2735493 64.0655581,69.8554949 64.0663713,70.1933466 C64.0679976,70.8884483 63.8899142,71.7007474 63.6719856,72.3602857 L63.7289072,72.3982738 C62.4245881,75.355689 61.3243739,78.4133281 60.3412556,81.448336 C58.7572072,86.3374872 57.334979,91.3818239 56.704775,96.4932461 C55.9176298,96.7874519 55.127232,97.0727669 54.3319551,97.3451497 Z M45.3082465,99.8232681 C45.7725646,95.4918147 45.4546165,90.9938602 45.8555076,86.650283 C46.1092155,83.9046314 46.4418006,81.1646375 46.8695262,78.4408089 C47.1720241,76.5187719 47.6485397,74.581378 47.8217441,72.6359016 C47.9071266,72.5397189 47.9860038,72.4378784 48.0868364,72.3570527 C48.2063719,72.2600617 48.338918,72.1905516 48.4747168,72.1266992 C49.3179705,72.0862863 50.1669163,72.0377908 51.0158622,71.9763633 C51.6509452,72.5987217 51.801381,73.298673 51.7777992,74.4043696 C51.7631622,75.0913887 51.7534042,75.7743665 51.7607227,76.4573443 C51.034565,79.2636153 50.5588626,82.1741515 50.0945445,84.9165701 C49.388716,89.0839471 48.1884822,94.1751628 48.9992092,98.3522389 C49.0358017,98.5429878 49.3171573,98.521973 49.3659473,98.3522389 C49.9660642,96.2790577 49.8831212,94.0199773 50.1034893,91.8789025 C50.3498788,89.4808017 50.6767717,87.0899752 51.0744101,84.7112726 C51.606221,81.5259288 52.4763092,78.3971629 53.1992142,75.2514237 C53.6724771,74.3849714 54.184772,73.5330677 54.8369315,72.8508982 C55.4150929,72.2455131 56.3112024,71.533438 57.1731589,71.408158 C58.2302753,71.2537808 58.3140315,71.6764996 58.7279332,72.2350057 C58.7027251,72.3796839 58.6791432,72.5122382 58.6693853,72.6092291 C58.5953871,73.3689914 58.4164905,74.1473436 58.3254158,74.9216545 C57.3488029,77.6939787 56.5397022,80.5293469 55.8566423,83.3598656 C54.8084707,87.7058676 53.3561553,92.9700505 53.5952263,97.5892436 C50.8751844,98.4912593 48.1120446,99.2542546 45.3082465,99.8232681 Z M44.7089428,99.9348076 C43.2541879,100.215273 41.7896751,100.44401 40.3178437,100.617785 L40.2202637,100.556358 C40.1365076,100.538576 40.0503119,100.530494 39.9657426,100.515945 L39.9958298,100.402789 C40.3227227,95.4910064 40.5455303,90.5687166 40.7715906,85.6512764 C40.9325976,82.1482872 41.2676222,78.2056059 41.2399745,74.6880681 C41.3042147,74.5644046 41.3652021,74.4391247 41.437574,74.321119 C42.2881461,72.5356776 43.635563,72.6884383 45.4781983,74.7794012 C45.5692729,75.3799367 45.6229419,75.9837053 45.6400184,76.5915151 C45.7497959,78.999315 45.4220898,81.4038818 45.349718,83.8068322 L45.3586628,83.8165313 C45.2984885,84.4631375 45.2399405,85.1016611 45.1797662,85.7240196 C44.7414694,90.2340979 44.0608491,95.3560274 44.7089428,99.9348076 Z M39.0525566,85.787872 C38.9582293,90.3618026 38.5695357,95.0715206 38.8826048,99.6486844 C38.8744732,99.8960113 38.8606493,100.143338 38.8533308,100.390665 C37.5221773,100.313881 36.1446732,100.464216 34.7996958,100.557166 C34.7403347,98.6593769 34.5280982,96.7607794 34.2686981,94.8621819 C34.189821,91.7681712 33.8759387,88.6313228 33.799501,85.6205626 C33.7425794,83.3695647 33.7011079,81.1185668 33.6718339,78.867569 C33.6596364,77.9138248 33.6824051,76.9309834 33.6848446,75.9481419 C33.7059869,75.8050803 33.7303819,75.6636352 33.7612822,75.5246148 C33.8987073,74.8957903 34.160547,74.3308181 34.4158812,73.7658459 C34.5167139,73.6462238 34.6435679,73.5492329 34.756598,73.4401181 C35.0899963,73.273617 35.4608002,73.1337884 35.8340436,73.0489213 C36.1202782,73.0279066 36.4065128,73.0052754 36.6935606,72.9834524 C36.8643256,73.0004258 37.0310247,73.0303314 37.1863395,73.0941837 C38.7378612,73.7270496 38.8045408,75.3548807 38.8411333,76.7709483 C38.8817917,78.3688739 38.8167383,79.9724573 39.0793911,81.5526013 C39.0785779,82.9743267 39.0810174,84.3920108 39.0525566,85.787872 Z M33.4864319,100.619402 C31.9284049,100.645266 30.3646857,100.612128 28.8099114,100.490889 C28.5805984,98.8089046 28.3529118,97.1261119 28.1235989,95.4441275 C27.9430759,91.9969081 27.6657861,88.5521135 27.3697935,85.117018 C27.0721746,81.6722234 26.8566855,78.1078067 26.2915347,74.6541212 C26.3964332,74.2014969 26.5476822,73.772312 26.8729488,73.4498172 C27.0884379,73.2364371 27.3210035,73.0974168 27.5592613,73.0206323 C27.9577129,73.0537709 28.3561645,73.0828681 28.7554292,73.1071159 C29.0693115,73.2396701 29.3661173,73.4425428 29.6181989,73.6995688 C29.9125652,74.001049 30.1825364,74.3437502 30.4264864,74.7050415 C30.6761285,75.283754 30.8607173,75.851151 30.9786264,76.2415395 C31.3258485,77.3916903 31.3811439,78.5903365 31.6885208,79.7453369 L31.7169816,79.7663516 C31.8064299,82.1272725 31.9227127,84.4873852 32.1040489,86.8434566 C32.3309223,89.7887479 32.6757049,92.7332309 33.0709038,95.6696314 C33.1733628,97.1899643 33.3457541,98.6908989 33.6604496,100.138489 L33.7206239,100.229013 C33.7393267,100.354293 33.7572164,100.480382 33.7759192,100.605662 C33.6799656,100.608895 33.5815724,100.617785 33.4864319,100.619402 Z M24.0423162,101.020298 C22.3330402,100.635567 18.9413228,99.7553744 16.3749693,98.3142508 C18.3534034,99.3415464 20.5554583,100.025332 22.644483,100.579797 L22.8315113,100.625868 C23.0803402,100.695378 23.3242902,100.760847 23.5584821,100.81985 C23.7373788,100.864304 23.9195281,100.89421 24.0992379,100.935431 C24.2675633,100.973419 24.436702,101.008174 24.6058406,101.043737 C24.9262282,101.110823 25.2449895,101.184374 25.5670034,101.240144 C27.0705482,101.527075 28.5911696,101.726715 30.1174831,101.862502 C28.0739957,101.739647 26.0402663,101.469689 24.0423162,101.020298 Z M16.3692771,72.3101737 C17.1954543,72.7773467 17.785,73.5128613 18.2672077,74.3081869 C18.9079829,76.0766549 19.4284095,77.8709871 19.9805495,79.6863341 C20.2594656,81.4119644 20.5221184,83.1400195 20.7489919,84.8721159 C20.9766785,86.6090618 21.1295538,88.3524738 21.2604736,90.0975024 C21.3060109,90.7683563 21.3539878,91.4400185 21.4052172,92.1108725 C21.5686637,94.4750264 21.7304838,96.8375639 22.0037078,99.1871692 C20.8693405,98.8194119 19.7601814,98.3764867 18.7055045,97.8317209 C18.5802768,97.7670603 18.4696862,97.6838097 18.3477112,97.6142996 C18.1045744,93.4897602 17.5272262,89.3821942 16.6587644,85.3392889 C16.4798678,84.2489492 16.2960921,83.1618425 16.1041848,82.0852431 C15.5674949,79.0672086 14.8510953,75.9109621 13.5687317,73.0521543 C13.7744628,71.7330777 15.2828867,71.6950895 16.3692771,72.3101737 Z M18.4672467,70.1901136 C16.9710203,69.9985565 15.484552,69.7633535 14.0159733,69.4594486 C13.7199807,69.398021 13.443504,69.3115374 13.1588958,69.2355612 C13.7874735,69.3616494 14.4168643,69.4885458 15.0478816,69.5928111 C16.1863147,69.7819434 17.3336926,69.9557188 18.4859495,70.1165621 L18.4664335,70.1674824 L18.4672467,70.1901136 Z M21.6800675,83.9466608 C21.2580341,80.8574996 20.959602,77.3334957 20.163512,74.0996564 L20.1529408,73.9881168 C20.3326506,73.3697996 20.6709279,72.856556 21.3580536,72.9187918 C22.1191774,72.9866855 22.8404561,73.6777458 23.3145322,74.2192786 C23.8715512,74.8537609 24.1935652,75.5666442 24.4749208,76.2989258 C24.9124044,79.337975 25.4043701,82.3762159 25.8020085,85.4087991 C26.3809831,89.8243112 26.9575181,94.2390151 27.53324,98.6537191 C27.5511296,98.9155946 27.567393,99.1766618 27.5860958,99.4385374 C27.591788,99.5169384 27.6218751,99.5767494 27.6609071,99.6276697 C27.694247,99.8814626 27.7275868,100.135256 27.7601134,100.389048 C26.8233456,100.288016 25.8898305,100.161928 24.9652602,99.9711792 C24.2992768,99.8345837 23.6381725,99.6656578 22.9803208,99.4805668 C23.1803597,94.3570208 22.3720722,89.0103957 21.6800675,83.9466608 Z M57.4829753,68.4111382 C54.6352662,69.1846409 51.6289897,69.4077201 48.7080956,69.7342562 C48.3259074,69.7770939 47.9437191,69.8134655 47.5615309,69.8538784 C50.8093179,69.1709005 54.0603575,68.5291439 57.383769,68.4176043 L57.4829753,68.4111382 Z M54.4449853,67.4315298 C49.0479992,68.078136 43.874634,69.8053829 38.4752084,70.3937945 C35.7860668,70.3905615 33.096112,70.257199 30.4085967,70.050285 C26.5208477,69.2800153 22.7599526,67.9520478 18.7258336,67.8849624 C15.6496248,67.8340422 12.6758749,68.0134754 9.66878516,67.1898608 C8.84992649,66.9659734 8.07416565,66.6838914 7.32279981,66.3654378 C10.8373054,67.4080904 15.0584527,67.0912533 18.4330937,67.2529049 C25.7564712,67.604497 33.0481352,70.0923144 40.397534,69.8013416 C43.8998421,69.6631295 46.4466796,67.1268167 49.8871871,66.9441504 C52.7039958,66.7946227 55.4484327,67.190669 58.2489782,67.0952946 C57.0040203,67.215725 55.7484912,67.2755361 54.4449853,67.4315298 Z M6.79424158,69.6219084 C6.89914006,69.586345 7.01217021,69.5645221 7.12926618,69.5499734 C8.57751572,69.87166 9.84198962,70.1012052 10.8909744,71.1406247 C11.0877607,71.3588543 11.2723495,71.5892078 11.4512461,71.825219 C11.8838507,73.0594287 12.4701437,74.2742401 12.8872982,75.465612 C13.726486,77.8669458 14.4575227,80.3046513 15.0730897,82.7722622 C15.1796145,83.1965976 15.2593048,83.6249742 15.357698,84.0501178 C16.0448237,88.287005 16.4814941,92.5998684 17.2824631,96.9579943 C16.5693161,96.461724 15.8862562,95.9274656 15.186933,95.4198797 C13.7663311,86.9784356 11.973299,76.9188595 6.79424158,69.6219084 Z M2.64709244,63.8557975 C2.46169047,63.572099 2.31450734,63.2722354 2.23806969,62.944891 L2.25433302,62.8608322 C2.68531126,63.4977393 3.17890333,64.0400803 3.72372488,64.5024037 C3.36511845,64.2906402 3.00651203,64.0748353 2.64709244,63.8557975 Z M7.3642713,30.1441743 C8.29046794,27.1115912 10.8893481,25.1224688 13.8321976,24.6569124 C11.1682642,25.5944914 8.6458217,28.1639428 7.77410722,30.3098672 C6.78692308,32.7411065 7.48055411,35.6201207 9.01662563,37.9074902 L8.92799048,37.8484874 L8.90115598,37.8428296 C7.15366118,35.9523146 6.36245017,33.4240843 7.3642713,30.1441743 Z M16.9775257,20.7853577 C17.0702266,21.4174152 17.2621339,22.0357324 17.570324,22.6233358 C17.4076907,22.4333952 17.2491233,22.2402216 17.1165771,22.0260333 C17.0547765,21.9258094 17.0189971,21.8263937 16.9718335,21.726978 C16.9425595,21.6316035 16.9100328,21.5378456 16.881572,21.4424712 C16.9043407,21.2210086 16.9433727,21.0035873 16.9775257,20.7853577 Z M74.448068,46.4588573 C76.0313032,44.1076355 76.5126977,41.0588872 75.8418354,38.1944217 C74.6058223,32.9156902 70.2545684,29.3084358 65.6740015,26.8246597 L65.4739625,26.7632321 C65.4308647,26.5126722 65.373943,26.2604958 65.2844947,26.0050863 C64.9169435,24.9583925 64.2842999,24.1396274 63.5134181,23.4429092 L63.4906494,23.4210862 C61.6024768,21.726978 58.8743032,20.7764668 57.0023939,19.1704586 C54.1481795,16.7198211 52.9772198,13.6807719 52.2047116,10.3022544 C52.2258539,9.01065853 52.1803166,7.71663785 52.0746049,6.43069975 C51.9201033,4.55715825 51.8265892,2.45003025 51.132145,0.668630135 L51.146782,0.515869418 C51.1492215,0.405946361 51.0727838,0.342902256 50.985775,0.325928843 C50.9499957,0.245103066 50.9207217,0.159427743 50.8816897,0.0802184819 C50.8044389,-0.0749670091 50.5970814,0.0187908917 50.5832576,0.160236001 C50.5547968,0.44635925 50.5450388,0.732482499 50.5442256,1.01941401 C49.2163247,4.9273403 46.5686546,7.96477299 42.7451457,9.71950059 C38.0060113,11.893714 32.7505162,11.8371359 27.6674125,12.3511879 C24.4635365,12.674491 21.0978403,13.3340293 18.6510223,15.568862 C16.5400421,17.4957486 15.182054,20.8128384 16.041571,23.6288085 C14.3192844,23.4097706 12.5571526,23.633658 10.7568019,24.5744701 C6.29739685,26.9046772 4.67675602,32.7055432 7.177243,37.0345718 C7.25368066,37.1671261 7.3398763,37.2907895 7.42444562,37.4160695 C7.221154,37.3869722 7.01135704,37.3902052 6.79830742,37.4144529 C4.98494612,36.4008977 1.93638492,39.7939638 1.43628752,41.1510286 C0.60197869,43.4141503 1.22161156,46.705376 3.00163303,48.6160973 C3.09433401,48.7462268 3.17483749,48.8909049 3.27323064,49.0145684 C0.353149741,49.5092221 0.962211449,53.5884991 2.59992878,55.4151616 C1.72008263,55.5711554 0.875202634,56.102989 0.40681873,56.9160963 C-0.469774757,58.4388539 0.197021773,60.0497117 1.20697457,61.3995021 C0.154737115,62.5981484 0.264514592,64.5929286 1.27446738,65.6986252 C1.32651004,65.8554272 1.3834317,66.0065714 1.45092452,66.1318513 C1.97785641,67.112268 3.07807068,67.8243431 4.20349312,67.8833459 C6.75114376,72.3311884 9.06704195,76.5987894 10.410393,81.6237279 C11.2032303,84.5924587 11.8000946,87.6145345 12.3571136,90.6422681 C12.4563199,91.8344483 12.5311312,93.0339028 12.6986435,94.2115344 C12.6002504,94.5437283 12.5750422,94.8589489 12.5921187,95.163662 C12.5051099,95.213774 12.4571331,95.3228888 12.5482077,95.4271541 L12.6197664,95.499089 C13.0702606,97.9270953 16.8775062,99.4595521 18.9153014,100.316305 C23.3893435,102.198738 28.2496397,103.034476 33.0952988,102.998913 C38.5361959,102.9585 43.9283029,101.916656 49.1520845,100.465833 C52.2551279,99.6042302 55.3752478,98.6529108 58.160343,97.0921651 C59.2995893,96.6395407 60.4315171,96.1707512 61.5504342,95.6736727 C61.7423415,95.5879974 61.8139001,95.4449357 61.8130869,95.2962163 C61.9163591,95.2558034 62.0025547,95.1677033 62.0131259,95.028683 C62.0537842,94.511398 62.0643554,93.9933048 62.0570369,93.4744033 L62.0570369,93.4178253 C62.5286735,91.4650745 62.8661376,89.4646365 63.3581033,87.5248179 C64.0289656,84.8753489 64.8161108,82.2549773 65.7162861,79.6742102 C67.5288343,74.4811541 70.2171627,69.7504214 72.2899241,64.691536 L72.3118796,64.5614065 L72.3988884,64.4918963 C73.2584054,64.2081979 73.9561023,63.3207308 74.3935859,62.2473645 C74.5789878,61.8658669 74.6993365,61.461738 74.7538186,61.0349779 C74.9351547,60.1507439 74.9375942,59.254386 74.7253578,58.5164467 C76.1947496,57.5012749 76.8591067,54.6893462 76.9737632,53.2538804 C77.1672968,50.822641 76.2866375,48.1303344 74.448068,46.4588573 Z" id="Fill-21437"></path>
                    <path d="M15.2367507,28.1868973 C14.7433305,28.3499383 15.0979333,28.8597951 15.5996001,28.7759184 C16.354162,28.6496323 16.9589111,28.9323625 17.6832355,28.9983328 C17.9072675,29.0190664 18.0295918,28.8418888 17.9938566,28.71843 C17.7492081,27.8683546 16.1328788,27.8890881 15.2367507,28.1868973" id="Fill-21438"></path>
                    <path d="M19.5575039,29.0877755 C19.2416589,28.9675829 18.9357061,28.9770587 18.6219808,29.0782997 L18.6212742,29.0782997 C17.7599429,29.2074694 16.9777495,29.448852 16.1446817,29.6363724 C15.9546095,29.6792627 15.9489567,29.8712716 16.1446817,29.912167 C16.5728743,30.0024361 17.2370675,30.0682678 17.6150923,29.8737652 C17.7274399,29.8159132 17.7316794,29.713176 17.6150923,29.6558227 C17.5083974,29.6029579 17.3783852,29.5740318 17.2398938,29.5565765 C17.6772721,29.4348877 18.1351414,29.3451173 18.5852382,29.2723036 L18.662963,29.2882627 C18.9173348,29.2668176 19.1695869,29.3336467 19.3476472,29.4613201 C19.4854319,29.5600676 19.5214679,29.6603112 19.7207259,29.6992117 C19.8055165,29.7156696 19.8910137,29.687741 19.9376485,29.6368711 C20.1354933,29.4194273 19.8224746,29.1890166 19.5575039,29.0877755" id="Fill-21439"></path>
                    <path d="M24.9447832,32.3816354 C24.4510973,31.8736354 23.5334952,31.9636354 22.8031227,32.1346354 C22.6591678,32.1066354 22.504615,32.1146354 22.3394643,32.1276354 C21.8872869,32.1616354 21.8864038,32.8896354 22.3394643,32.9246354 C22.6662331,32.9496354 22.9541429,32.9616354 23.1952453,32.6946354 L23.2173243,32.6346354 C23.4186845,32.6166354 23.6218111,32.6076354 23.8284703,32.6366354 C24.1887991,32.6866354 24.5023205,32.8286354 24.8608831,32.7426354 C24.9986559,32.7096354 25.0481128,32.4876354 24.9447832,32.3816354" id="Fill-21440"></path>
                    <path d="M27,33.1837511 C26.7380127,32.9007511 26.5527443,33.0157511 26.2173026,33.0667511 C25.9275658,33.1107511 25.9275658,33.5757511 26.2173026,33.6197511 C26.5527443,33.6707511 26.7380127,33.7857511 27,33.5017511 L27,33.1837511" id="Fill-21441"></path>
                    <path d="M22.6422376,29.0637526 C22.5308262,29.0036366 22.4168827,28.9808078 22.2999007,29.0180949 C22.2249511,29.0416847 22.1976047,29.0645136 22.1363284,29.1246295 L22.102905,29.1885503 C22.0912574,29.2791047 22.0806227,29.2905192 22.0715072,29.2220326 C21.9231274,29.3217186 22.0294747,29.6466492 22.1743096,29.6055573 C22.2538168,29.6755658 22.3500358,29.6801315 22.441697,29.7349208 C22.5683009,29.809495 22.6766739,29.9555996 22.8098612,29.9951696 C22.88633,30.0172375 22.96685,29.9632093 22.9881195,29.8429773 C23.050915,29.4860863 22.8544258,29.1786578 22.6422376,29.0637526" id="Fill-21442"></path>
                    <path d="M27.9795061,32.3423248 C27.7815461,31.8823248 27.2937726,31.9293248 27,32.2273248 L27.024547,32.3453248 C27.2985237,32.4383248 27.5519125,32.6533248 27.8345994,32.6603248 C27.965253,32.6633248 28.0381023,32.4793248 27.9795061,32.3423248" id="Fill-21444"></path>
                    <path d="M30.9493076,34.5173575 C30.8250548,34.3480682 30.6250214,34.3472175 30.5178362,34.1524072 C30.3205336,33.7942624 29.8487824,34.1328411 30.0481331,34.4943886 C30.2345124,34.8321165 30.6625703,35.2327963 30.9493076,34.8329672 C31.016213,34.7402409 31.0175784,34.6109345 30.9493076,34.5173575" id="Fill-21445"></path>
                    <path d="M34.900596,34.462708 C34.7334376,34.4425135 34.5073488,34.3617354 34.4053539,34.143986 C34.2472617,33.8050695 33.8806465,34.1255475 34.0387387,34.4758783 C34.2580278,34.9614245 34.6784737,35.2362454 34.9719925,34.7296267 C35.0326228,34.6251421 34.988425,34.4741223 34.900596,34.462708" id="Fill-21446"></path>
                    <path d="M40.7023596,18.0026513 C39.8132687,17.9655432 38.8542643,18.3254918 38.1669997,18.610482 C37.8424947,18.7455554 38.0192576,19.0535526 38.45325,18.9919532 C39.3185966,18.8694965 40.4213858,18.6743079 40.9529935,18.2490491 C41.0901826,18.1392091 40.9028667,18.0115573 40.7023596,18.0026513" id="Fill-21448"></path>
                    <path d="M41.3258751,17 C40.8918751,17 40.8908751,17.675 41.3258751,17.675 C41.7598751,17.675 41.7608751,17 41.3258751,17" id="Fill-21449"></path>
                    <path d="M40.943669,18.0705775 L40.749984,18 C40.4297931,18.0961716 40.3329506,18.4071782 40.0799387,18.5979702 C39.8548453,18.7678217 40.15148,19.1129536 40.3975123,18.9632672 C40.7203206,18.7662705 41.156548,18.4444059 40.943669,18.0705775" id="Fill-21452"></path>
                    <path d="M36.6173015,21.0009899 C36.3628812,21.0189899 36.2366204,21.0359899 36.0676397,21.2399899 C35.9774534,21.3479899 35.9774534,21.4889899 36.0676397,21.5979899 C36.2404177,21.8049899 36.3609825,21.8179899 36.6173015,21.8359899 C37.1270914,21.8709899 37.1280407,20.9659899 36.6173015,21.0009899" id="Fill-21453"></path>
                    <path d="M32.7514048,22.0003202 C32.5244048,22.0113202 32.5194048,22.0073202 32.3084048,22.0853202 L32.1994048,22.2553202 L32.1094048,22.2903202 C31.9224048,22.3633202 31.9914048,22.6533202 32.1934048,22.5973202 C32.3344048,22.5583202 32.4754048,22.5193202 32.6164048,22.4813202 L32.7514048,22.4873202 C33.0654048,22.5023202 33.0654048,21.9853202 32.7514048,22.0003202" id="Fill-21454"></path>
                    <path d="M45.8160504,19.0069301 C45.4349722,19.1201802 45.1830731,19.390537 45.0196616,19.7019748 C44.9382788,19.857416 45.1230048,20.0883574 45.3264618,19.9651147 C45.6481176,19.7702579 45.9400623,19.5076731 45.9981928,19.1640368 C46.0130484,19.0763235 45.9348951,18.9719558 45.8160504,19.0069301" id="Fill-21455"></path>
                    <path d="M47.3184339,18.0870406 C47.1944339,18.249558 47.1214339,18.4048525 47.0334339,18.5845245 C46.8464339,18.9664405 47.5004339,19.1813247 47.5984339,18.7994087 C47.6524339,18.588136 47.7014339,18.3994352 47.7114339,18.1836482 C47.7204339,17.9814043 47.4294339,17.9416778 47.3184339,18.0870406" id="Fill-21456"></path>
                    <path d="M48.4423355,17.0499531 C48.2543355,17.3023468 48.1173355,17.5547405 48.0083355,17.845964 C47.9553355,17.9886635 48.1693355,18.0556449 48.2483355,17.9440092 C48.4293355,17.6877325 48.5563355,17.4295144 48.6573355,17.1373201 C48.7023355,17.0072403 48.5153355,16.9519078 48.4423355,17.0499531" id="Fill-21457"></path>
                    <path d="M32.9287904,14.1093778 C32.6684744,13.9593778 32.4226205,14.0013778 32.1478426,14.0193778 C31.9510337,14.0323778 31.9504049,14.4933778 32.1478426,14.5073778 C32.4201054,14.5253778 32.6691032,14.5653778 32.9287904,14.4163778 C33.0237365,14.3623778 33.0237365,14.1643778 32.9287904,14.1093778" id="Fill-21460"></path>
                    <path d="M37.8068471,14.0014514 C37.5688471,13.9924514 37.3798471,14.0254514 37.1498471,14.0964514 C36.8828471,14.1774514 37.0048471,14.6064514 37.2638471,14.5124514 C37.5008471,14.4264514 37.6838471,14.3334514 37.8798471,14.1774514 L37.8068471,14.0014514" id="Fill-21461"></path>
                    <path d="M38.886232,12.0003349 C38.593232,12.0263349 38.340232,12.1313349 38.063232,12.2283349 C37.953232,12.2673349 37.998232,12.4183349 38.110232,12.4003349 C38.403232,12.3543349 38.671232,12.3273349 38.943232,12.2103349 C39.045232,12.1663349 38.993232,11.9913349 38.886232,12.0003349" id="Fill-21462"></path>
                    <path d="M38.847506,12.005159 C38.5316159,12.106159 38.3307307,12.353159 38.0633817,12.603159 C37.9199989,12.738159 38.0432185,13.026159 38.2015369,12.919159 C38.4808345,12.731159 38.7556514,12.597159 38.9669916,12.279159 C39.0476444,12.157159 38.9699788,11.966159 38.847506,12.005159" id="Fill-21463"></path>
                    <path d="M33.8113047,15.0170861 C33.5758887,15.1818716 33.3681687,15.3517015 33.1183918,15.4584758 C32.970167,15.5215314 32.9511901,15.9410617 33.1183918,15.9822581 C33.4758754,16.0722175 33.8569519,15.8191541 33.9918416,15.2440865 C34.0349243,15.0591233 33.8974701,14.9573935 33.8113047,15.0170861" id="Fill-21464"></path>
                    <path d="M41.4713309,11.0342563 C41.2173309,11.2574204 41.1383309,11.515057 41.0113309,11.8126091 C40.9403309,11.9795286 41.2223309,12.07206 41.3203309,11.9305413 C41.5083309,11.6565757 41.6743309,11.4479263 41.7193309,11.1276949 C41.7363309,11.0079483 41.5533309,10.9625897 41.4713309,11.0342563" id="Fill-21465"></path>
                    <path d="M52.9192727,19.1116342 C52.6254551,18.8081437 52.2967037,19.1877389 52.0683868,19.4856609 C51.8656464,19.750171 52.1588402,20.1752434 52.3615806,19.9227986 C52.5505971,19.6879879 52.7764187,19.7436742 52.952335,19.4940138 C53.0334311,19.3789287 53.0034879,19.1979481 52.9192727,19.1116342" id="Fill-21466"></path>
                    <path d="M54.4266948,22.0247528 C54.1616948,21.9085978 53.8386948,22.2268039 54.0916948,22.4483768 C54.2396948,22.5781971 54.4206948,22.7695112 54.5376948,22.9286143 C54.6186948,23.0379367 54.7726948,23.0184148 54.8206948,22.8924989 C54.9736948,22.4981576 54.8246948,22.1984972 54.4266948,22.0247528" id="Fill-21467"></path>
                    <path d="M55.0236681,23.4702512 L55.0816681,23.6542512 C55.1816681,23.9652512 55.6146681,23.9662512 55.7146681,23.6542512 L55.7736681,23.4702512 C55.9736681,22.8452512 54.8226681,22.8412512 55.0236681,23.4702512" id="Fill-21468"></path>
                    <path d="M52.8416257,22.1782796 C52.6696257,22.0702796 52.6336257,22.0582796 52.4316257,22.0122796 C51.8576257,21.8822796 51.8546257,22.8302796 52.4316257,22.6992796 C52.6336257,22.6532796 52.6696257,22.6412796 52.8416257,22.5342796 C52.9746257,22.4512796 52.9746257,22.2612796 52.8416257,22.1782796" id="Fill-21469"></path>
                    <path d="M55.3570862,22.0229817 C55.1332513,21.9169817 54.8665957,22.2009817 55.0758327,22.3989817 C55.3152388,22.6249817 55.4865212,22.8189817 55.8242201,22.8079817 C55.9264056,22.8039817 56.032484,22.6949817 55.9906366,22.5819817 C55.8699603,22.2559817 55.6685088,22.1699817 55.3570862,22.0229817" id="Fill-21470"></path>
                    <path d="M58.4863486,23.2891695 C58.5783486,23.0021695 58.1133486,22.8731695 58.0353486,23.1651695 C57.9453486,23.5001695 58.0143486,23.8981695 58.3923486,23.9821695 C58.5003486,24.0061695 58.6233486,23.9101695 58.5833486,23.7921695 C58.5313486,23.6411695 58.4373486,23.4461695 58.4863486,23.2891695" id="Fill-21471"></path>
                    <path d="M60.6159941,25.0380056 C60.0987388,25.1192691 59.6595436,25.3176693 59.3232847,25.6449197 L59.2023345,25.6434555 C58.9329843,25.6412591 58.9321264,26.0021863 59.2023345,25.99999 L59.2117703,25.99999 L59.4099228,25.9970616 C59.6415297,25.9955974 59.8705632,25.9897406 60.0918764,25.9209228 C60.2059642,25.8857818 60.2059642,25.7576637 60.0918764,25.7225227 C59.9966602,25.6932385 59.8988707,25.6859175 59.8019389,25.6749359 C60.0670001,25.4941063 60.3903919,25.3777018 60.7352288,25.3813623 C61.1186668,25.3850228 61.4652193,25.5987971 61.8435105,25.5746377 C61.9318643,25.5687809 62.0305116,25.4941063 61.9910527,25.4091822 C61.7817487,24.9582063 61.0912171,24.963331 60.6159941,25.0380056" id="Fill-21472"></path>
                    <path d="M11.9643774,44.3852656 C11.6770754,44.1052656 11.4013386,44.0342656 11.0708196,44.0002656 C11.0014289,43.9922656 10.971603,44.1672656 11.0342982,44.2182656 C11.3319479,44.4572656 11.5936848,44.6212656 11.9272473,44.6122656 C12.0002901,44.6102656 12.0282899,44.4472656 11.9643774,44.3852656" id="Fill-21474"></path>
                    <path d="M21.8672632,45.0762153 C21.0855183,44.8672153 20.0526246,45.1452153 19.2472977,45.2302153 L19.1859844,45.2452153 L19.1836262,45.2532153 C18.9336564,45.3232153 18.9301191,45.6642153 19.2272529,45.6462153 C20.0514455,45.5932153 21.173951,45.7002153 21.9120691,45.3582153 C22.0547405,45.2922153 22.0122928,45.1142153 21.8672632,45.0762153" id="Fill-21476"></path>
                    <path d="M22.9036111,45.1141123 C22.6474182,44.8931123 22.4453798,45.0341123 22.1801611,45.1921123 C21.9336882,45.3391123 21.9246625,45.9861123 22.2495901,45.9381123 C22.5446633,45.8951123 22.8112706,45.8911123 22.9737344,45.4991123 C23.0285833,45.3681123 22.9938688,45.1921123 22.9036111,45.1141123" id="Fill-21477"></path>
                    <path d="M25.9173647,45.1851725 C25.6673647,44.9091725 25.3567977,44.9751725 25.0913338,45.1651725 C24.9695554,45.2531725 24.9695554,45.5791725 25.0913338,45.6671725 C25.3561534,45.8571725 25.6692977,45.9211725 25.9173647,45.6471725 C26.0275451,45.5251725 26.0275451,45.3071725 25.9173647,45.1851725" id="Fill-21478"></path>
                    <path d="M27.5134329,45.2028604 C27.5014329,44.9328377 27.0654329,44.9319224 27.0544329,45.2028604 C27.0524329,45.3639586 27.0364329,45.5232262 27.0084329,45.6824938 C26.9134329,46.1044613 27.6544329,46.1072073 27.5594329,45.6824938 C27.5304329,45.5232262 27.5154329,45.3639586 27.5134329,45.2028604" id="Fill-21479"></path>
                    <path d="M27.8294545,45.0712139 C27.6474348,45.0942139 27.4733985,45.1402139 27.2913788,45.0282139 C27.0678459,44.8922139 26.8794396,45.2832139 27.0949892,45.4492139 C27.359237,45.6542139 27.6562165,45.7262139 27.9204643,45.4902139 C28.0481974,45.3752139 28.0250458,45.0452139 27.8294545,45.0712139" id="Fill-21480"></path>
                    <path d="M29.0163264,44.5986266 C28.9073701,45.0088619 29.3751309,45.1656668 29.4916015,44.7757737 C29.5560986,44.5621801 29.7489638,44.5689608 29.8829676,44.5579421 C29.9480909,44.5528565 30.0232332,44.4613164 29.9931763,44.362148 C29.7871612,43.6874634 29.1578444,44.0663378 29.0163264,44.5986266" id="Fill-21481"></path>
                    <path d="M32.3039004,44.0005491 C31.8901062,43.9765491 31.9073856,44.7475491 32.3039004,44.6945491 C32.5167089,44.6655491 32.6258414,44.7575491 32.7749892,44.8805491 L32.982341,44.7885491 C33.0860169,44.2905491 32.7167852,44.0245491 32.3039004,44.0005491" id="Fill-21482"></path>
                    <path d="M34.727475,43.0052975 C34.5180784,42.9912975 34.4723279,43.0012975 34.2717295,43.0812975 C33.7139252,43.3012975 34.1160018,44.2442975 34.5735069,43.8952975 C34.7573888,43.7542975 34.838332,43.6722975 34.958867,43.4642975 C35.0785222,43.2592975 34.9175156,43.0182975 34.727475,43.0052975" id="Fill-21485"></path>
                    <path d="M36.8496629,44.8832679 C36.6056629,44.6275455 36.4216629,44.3865505 36.3396629,44.0832986 C36.3006629,43.9380322 35.9516629,43.9982809 36.0056629,44.1448862 C36.1196629,44.4601879 36.3176629,44.7487124 36.6656629,44.978327 C36.7586629,45.0392452 36.9236629,44.9602524 36.8496629,44.8832679" id="Fill-21486"></path>
                    <path d="M38.9517617,45.3722662 C38.6900209,45.0262662 38.517021,45.1852662 38.1288917,45.0082662 C38.0168452,44.9572662 37.9487208,45.1562662 38.0482182,45.2222662 C38.41842,45.4692662 38.3951143,45.7052662 38.8182022,45.7322662 C38.9956839,45.7432662 39.0494663,45.5012662 38.9517617,45.3722662" id="Fill-21487"></path>
                    <path d="M38.9135094,41.1143286 C38.6692262,40.8923286 38.4628966,41.0423286 38.1992915,41.1563286 C37.8514985,41.3063286 37.9957222,42.0643286 38.3490358,41.9433286 C38.6154011,41.8523286 38.8431227,41.8343286 38.9776855,41.4673286 C39.0232298,41.3413286 38.9976974,41.1913286 38.9135094,41.1143286" id="Fill-21488"></path>
                    <path d="M41.9507571,43.264644 C41.701215,42.992644 41.5526582,43.084644 41.207973,43.004644 C40.9959875,42.955644 40.9125286,43.308644 41.118672,43.393644 C41.4416579,43.525644 41.5443123,43.697644 41.8739749,43.609644 C41.9983286,43.576644 42.0433964,43.367644 41.9507571,43.264644" id="Fill-21489"></path>
                    <path d="M44.9618175,43.5250288 C44.7851879,43.2460288 44.5724295,43.1880288 44.319528,43.0300288 C44.0778666,42.8800288 43.8643053,43.3330288 44.1067696,43.4840288 C44.3709112,43.6480288 44.5563723,43.8370288 44.8558398,43.8450288 C44.9987492,43.8480288 45.0380894,43.6440288 44.9618175,43.5250288" id="Fill-21490"></path>
                    <path d="M47.9488875,43.0579544 C47.3928458,42.8237977 46.9496904,43.3424373 47.0046081,43.8401077 C47.0282533,44.0518972 47.3936085,44.0546931 47.3699634,43.8401077 C47.3371653,43.550033 47.6498911,43.3312537 47.9237168,43.2319992 C47.9969404,43.2054382 48.0388915,43.095699 47.9488875,43.0579544" id="Fill-21492"></path>
                    <path d="M60.8729302,36.0272319 C60.5623255,35.9426906 60.3411954,36.0598766 60.0983358,36.3109893 C59.848446,36.5704725 60.1213435,37.0902758 60.3987148,36.9864825 C60.6722515,36.8835263 60.8627046,36.719466 60.9802998,36.3729304 C61.024398,36.2448629 60.9969165,36.0615507 60.8729302,36.0272319" id="Fill-21494"></path>
                    <path d="M65.2752824,33.0922572 C65.1502824,33.2920358 65.0872824,33.4840935 65.0132824,33.7070349 C64.9152824,34.0033249 65.3882824,34.1239642 65.4922824,33.83443 C65.5732824,33.6114886 65.6342824,33.4252216 65.6592824,33.1926291 C65.6822824,32.9870597 65.3732824,32.9339785 65.2752824,33.0922572" id="Fill-21495"></path>
                    <path d="M65.4862881,32.0000307 C65.2842881,32.0030307 65.2122881,32.0450307 65.0802881,32.1960307 C64.8332881,32.4780307 65.2092881,32.8540307 65.4912881,32.6070307 C65.6402881,32.4760307 65.6842881,32.3970307 65.6872881,32.2010307 C65.6892881,32.0940307 65.5932881,31.9980307 65.4862881,32.0000307" id="Fill-21496"></path>
                    <path d="M67.8894173,34.0842967 C67.7955401,33.9891676 67.5861218,33.9704006 67.4571696,34.0493513 C67.2632255,34.1677774 67.1445895,34.3412102 66.9031911,34.4272794 C66.6236228,34.5269386 66.278031,34.5075244 65.9541031,34.4686962 C65.8107083,34.3528587 65.552804,34.2868507 65.3464805,34.3832741 L65.231971,34.4363394 C64.6511704,34.7074898 65.2866467,35.1617801 65.7663488,34.9398121 C66.3192957,35.0168214 66.8959698,35.047884 67.4035255,34.8589199 C67.8316467,34.6997242 68.1885863,34.3884512 67.8894173,34.0842967" id="Fill-21497"></path>
                    <path d="M63.3580476,39.0018944 C62.8810207,38.9482599 62.8802811,40.0517401 63.3580476,39.9981056 C63.5976704,39.9712883 64,39.9494373 64,39.4995034 C64,39.0535424 63.5969308,39.0287117 63.3580476,39.0018944" id="Fill-21498"></path>
                    <path d="M66.6680876,37.1956599 C66.5670876,36.93478 66.2070876,36.93478 66.1070876,37.1956599 C66.0390876,37.3730582 66.0280876,37.4603344 66.0030876,37.6481679 C65.9410876,38.1168029 66.8340876,38.1177516 66.7720876,37.6481679 C66.7470876,37.4603344 66.7360876,37.3730582 66.6680876,37.1956599" id="Fill-21499"></path>
                    <path d="M71.370792,32.0228207 C71.081044,31.9102651 70.8500618,32.2420849 71.119405,32.4072639 C71.3528358,32.5490548 71.3887482,32.8202115 71.6197304,32.9722347 C71.7144086,33.0343595 71.8572421,32.9839287 71.9127431,32.902801 C72.1886158,32.5037402 71.7560344,32.1726513 71.370792,32.0228207" id="Fill-21500"></path>
                    <path d="M73.0014849,36.2909628 C73.0214849,36.483106 73.0344849,36.6557093 73.1054849,36.8397109 C73.1864849,37.0530224 73.5564849,37.0538366 73.6384849,36.8397109 C73.7084849,36.6557093 73.7214849,36.483106 73.7424849,36.2909628 C73.7824849,35.9034196 72.9604849,35.9026054 73.0014849,36.2909628" id="Fill-21501"></path>
                    <path d="M55.978919,55.4943525 C55.8077785,55.0494489 55.5097132,55.0503758 55.2319351,55.0021779 C54.9603992,54.9539801 54.9120221,55.7205118 55.1684727,55.8382259 C55.4160802,55.9522325 55.7001005,56.1329745 55.9274208,55.845641 C55.9872419,55.7696366 56.0262557,55.616701 55.978919,55.4943525" id="Fill-21502"></path>
                    <path d="M58.8953328,54.0032347 C58.6108653,53.9635588 58.3337592,54.2980986 58.0834698,54.5009866 C57.8947012,54.6533781 58.059808,55.1105525 58.2454218,54.9752938 C58.5072792,54.7850299 58.8059438,54.6632971 58.9826186,54.2647348 C59.033623,54.1502158 58.9626376,54.0131537 58.8953328,54.0032347" id="Fill-21503"></path>
                    <path d="M59.530852,55.0859847 C59.222852,54.8219847 58.821852,55.2219847 59.085852,55.5299847 C59.218852,55.6839847 59.306852,55.7319847 59.508852,55.7329847 C59.629852,55.7329847 59.733852,55.6299847 59.733852,55.5079847 C59.732852,55.3009847 59.685852,55.2199847 59.530852,55.0859847" id="Fill-21504"></path>
                    <path d="M59.9670644,58.2933656 C59.7643996,57.985121 59.5206822,57.9816281 59.2925544,58.1597638 C59.2281174,57.9274889 59.011422,57.9414603 59.0010289,58.2479585 C58.9953127,58.4208548 59.0140203,58.5527102 59.0420815,58.7203673 C59.0743,58.915094 59.2026544,59.0443297 59.3200961,58.9858244 C59.5425077,58.8749262 59.7472511,58.7954637 59.9447193,58.588512 C60.0029205,58.527387 60.0226673,58.3771941 59.9670644,58.2933656" id="Fill-21505"></path>
                    <path d="M60.651004,58.0656876 C60.4855197,58.2361905 60.3949984,58.3974996 60.1665734,58.4643635 C59.8745007,58.5504507 59.9989675,59.0636309 60.2896259,58.9934239 C60.6071577,58.9156946 60.9239824,58.698387 60.9947021,58.3022186 C61.0378412,58.059837 60.8080019,57.9052143 60.651004,58.0656876" id="Fill-21506"></path>
                    <path d="M62.9107851,52.0244959 C62.5223056,51.897194 62.1974845,52.2917154 62.0315373,52.6162781 C61.8835451,52.905288 62.2959646,53.1616123 62.4499417,52.8743227 C62.5903167,52.6105438 62.849303,52.4740669 62.9842371,52.214302 C63.0228674,52.1391824 62.9875016,52.049727 62.9107851,52.0244959" id="Fill-21507"></path>
                    <path d="M65.2633688,52.0045716 C64.9948652,51.9509594 64.8892489,52.3843247 65.1503147,52.4969103 C65.3719603,52.5934123 65.5311286,52.7989257 65.7185604,52.9624429 C65.8583905,53.0848575 66.0309468,52.8838117 65.9952455,52.7068914 C65.906736,52.2788874 65.6084814,52.0733739 65.2633688,52.0045716" id="Fill-21508"></path>
                    <path d="M65.817819,55.0176315 C65.608398,55.1521541 65.4465988,55.3697153 65.2050475,55.3846623 C64.9330871,55.4021004 64.9302183,56.0041306 65.2050475,55.9999786 C65.5636451,55.9941659 65.9710119,55.7566754 65.9996997,55.1687618 C66.0065848,55.0226138 65.8935548,54.9686387 65.817819,55.0176315" id="Fill-21509"></path>
                    <path d="M68.427968,51.0198955 C67.6146095,51.2589062 67.003198,52.0492856 66.4461031,52.6967643 L66.2970803,52.7713762 C66.1745194,52.9193352 66.1299518,53.0103869 66.086777,53.1317891 C65.9990345,53.2683667 65.9809289,53.4100027 66.0185328,53.5427864 L66.0324602,53.5883123 C66.1675557,53.9436668 66.6550137,54.1801483 67.0157326,53.8222645 C67.6619626,53.1811088 68.7970433,52.4096986 68.9906338,51.5307967 C69.0546997,51.2374079 68.7817232,50.9161977 68.427968,51.0198955" id="Fill-21510"></path>
                    <path d="M66.9048935,40.0318903 C66.6394101,39.9138903 66.4370005,40.1648903 66.1778244,40.1168903 C65.9731212,40.0778903 65.9295429,40.6668903 66.1296589,40.7428903 C66.4524822,40.8658903 66.8194572,41.0248903 66.9851693,40.3758903 C67.0189998,40.2428903 66.9960639,40.0718903 66.9048935,40.0318903" id="Fill-21511"></path>
                    <path d="M67.6281136,39.0836973 C67.5361136,38.9209038 67.2481136,39.0210844 67.2351136,39.167442 C67.2181136,39.3568459 67.1661136,39.5305967 67.0361136,39.6918248 C66.8841136,39.8827941 67.2491136,40.1136791 67.4411136,39.9367977 C67.7241136,39.6769543 67.8061136,39.3991096 67.6281136,39.0836973" id="Fill-21512"></path>
                    <path d="M67.6050644,36.4467202 C67.4860644,36.2667202 67.4460644,36.2137202 67.3000644,36.0557202 C67.1700644,35.9147202 66.9730644,36.0667202 67.0030644,36.2297202 C67.0180644,36.3767202 67.0560644,36.5177202 67.1170644,36.6527202 C67.2520644,37.0307202 67.8130644,36.7617202 67.6050644,36.4467202" id="Fill-21513"></path>
                    <path d="M61.8911292,39.3843221 C61.5464929,39.1646645 61.155429,39.2624808 60.7822218,39.1312011 C60.6724025,39.0925894 60.5786543,39.1191886 60.5054414,39.1732449 C60.306338,39.0411072 59.9831299,39.2744933 59.7750982,39.106318 C59.3411779,38.7553808 58.7099399,39.3560069 59.1483244,39.7095182 C59.580459,40.0587394 60.0911636,40.0939189 60.5349051,39.7446978 L60.5402621,39.7361174 C61.0081103,39.9892384 61.6134559,40.2020316 61.9696991,39.6700485 C62.0357693,39.5713742 61.9866631,39.4443847 61.8911292,39.3843221" id="Fill-21514"></path>
                    <path d="M63.3080969,39.03727 C63.1370969,39.14627 63.0890969,39.21327 63.0130969,39.39727 C62.9470969,39.55327 63.1440969,39.75127 63.3010969,39.68527 C63.4880969,39.60727 63.5520969,39.56127 63.6610969,39.38927 C63.7990969,39.17327 63.5240969,38.89927 63.3080969,39.03727" id="Fill-21515"></path>
                    <path d="M31.9290561,48.3489751 C31.215229,47.862817 30.1386373,47.9779145 29.3038886,48.1393946 C28.8991915,48.2175578 28.8982164,48.7827382 29.3038886,48.8609014 C30.1386373,49.0223815 31.2162042,49.1366201 31.9290561,48.6513208 C32.023648,48.5860417 32.023648,48.4133954 31.9290561,48.3489751" id="Fill-21516"></path>
                    <path d="M34.9142742,49.1458583 C34.4575354,48.4673195 33.5235707,48.5124614 32.7980911,48.4771943 L32.870398,48.3502328 C33.0282682,47.3500582 34.1960253,48.3502328 34.6129953,48.5378537 C34.7997882,48.6224947 34.9190947,48.3502328 34.849198,48.1781294 C34.5647907,47.4840731 34.0007965,46.9296745 33.3090601,47.0072621 C32.7679632,47.0679215 32.2774811,47.4826625 32.1955332,48.1329876 C32.1762513,48.2867521 32.2316867,48.4024281 32.3088141,48.4927118 C31.8231524,48.6775114 31.9195617,49.6790967 32.5329656,49.7736125 C33.3126755,49.8921099 34.2502555,50.2828692 34.9142742,49.6410082 C35.0492472,49.5112253 35.005863,49.2826946 34.9142742,49.1458583" id="Fill-21517"></path>
                    <path d="M37.9124763,48.1839316 C37.705866,48.0649316 37.5103044,48.2809316 37.312533,48.0529316 C37.120286,47.8309316 36.8838443,48.3619316 37.0644902,48.6349316 C37.3235817,49.0239316 37.9660624,49.2869316 37.9997609,48.3919316 C38.0036279,48.2949316 37.9599857,48.2109316 37.9124763,48.1839316" id="Fill-21518"></path>
                    <path d="M38.6336114,47.385 C38.5956114,47.275 38.5436114,47.173 38.4766114,47.078 C38.4136114,46.974 38.2636114,46.974 38.2006114,47.078 C38.1336114,47.173 38.0816114,47.275 38.0436114,47.385 C37.7666114,48.031 38.9106114,48.031 38.6336114,47.385" id="Fill-21519"></path>
                    <path d="M38.9659728,47.201757 C38.6643952,46.969757 38.3223761,46.965757 38,47.050757 L38.008666,47.161757 C38.3391304,47.114757 38.6025775,47.245757 38.9139766,47.415757 C38.9856158,47.454757 39.0370342,47.255757 38.9659728,47.201757" id="Fill-21520"></path>
                    <path d="M43.834,47.475 L43.698,47.237 C43.546,47.014 43.323,47.048 43.188,47.175 L43.014,47 L43,47.014 L43.175,47.189 C43.047,47.322 43.012,47.545 43.236,47.698 L43.474,47.834 C43.718,47.947 43.947,47.719 43.834,47.475" id="Fill-21521"></path>
                    <path d="M41.8235646,45.1133268 C41.5694905,44.9373268 41.3069158,44.9663268 41.0991228,45.2003268 C40.9820032,45.3323268 40.9527233,45.5833268 41.0991228,45.7113268 C41.1945187,45.7943268 41.2738578,45.8743268 41.3796433,45.9403268 C41.4722056,45.9983268 41.574213,45.8643268 41.500541,45.7833268 L41.5562673,45.7853268 L41.782006,45.7663268 L41.9482403,45.6163268 C42.0663045,45.4533268 41.964297,45.2103268 41.8235646,45.1133268" id="Fill-21522"></path>
                    <path d="M38.9443091,45.314741 C38.7036403,45.0936255 38.5272201,45 38.2549536,45 C37.9152788,45 37.9147522,46 38.2549536,46 C38.5272201,46 38.7036403,45.9063745 38.9443091,45.685259 C39.0185636,45.6175299 39.0185636,45.3824701 38.9443091,45.314741" id="Fill-21523"></path>
                    <path d="M46,47.5543329 C45.8244246,47.296661 45.5706226,47.34182 45.3794019,47.0859191 C45.1684796,46.8034541 44.8578908,47.2851499 45.0722898,47.5552184 C45.3023341,47.8456526 45.7548898,48.2467707 46,47.8004936 L46,47.5543329" id="Fill-21524"></path>
                    <path d="M47.8841252,47.1022281 C47.6381252,46.9882281 47.4861252,46.9872281 47.2081252,47.0152281 C46.9311252,47.0432281 46.9301252,47.4192281 47.2081252,47.4472281 C47.4851252,47.4752281 47.6411252,47.4732281 47.8841252,47.3612281 C47.9821252,47.3152281 47.9821252,47.1472281 47.8841252,47.1022281" id="Fill-21525"></path>
                    <path d="M21.9864132,47.6804004 C21.8088389,47.3444199 21.1307271,47.2949578 20.5691484,47.2273998 C19.8355446,47.1387299 19.0642063,47.1152052 18.3428108,47.0066298 C17.9898819,46.9535485 17.8589208,47.2346381 18.1940923,47.3009898 C18.9343551,47.4487729 19.6169063,47.6894484 20.3527297,47.8511051 C20.8998805,47.9711412 21.3826606,48.0978125 21.8854178,47.8866936 C21.9908525,47.8426603 22.0208182,47.7455456 21.9864132,47.6804004" id="Fill-21526"></path>
                    <path d="M23.9408155,48.5282997 C23.7588719,48.35714 23.5122371,48.2740053 23.3559004,48.0715479 C23.1955204,47.8642002 22.8929549,48.1458801 23.0385098,48.42756 C23.2662763,48.8686628 23.5924271,49.2178285 23.9408155,48.8373651 C24.0149407,48.7561865 24.0243748,48.6075221 23.9408155,48.5282997" id="Fill-21527"></path>
                    <path d="M27.8862157,47.6297214 L27.7930696,47.5930136 C27.6146332,47.4429051 27.3441729,47.383255 27.0232118,47.3150835 C26.5215697,47.2082377 26.0087052,47.1164683 25.5059409,47.0122446 C25.0839781,46.9250637 24.7843395,47.3281934 25.1973245,47.4389722 C25.6821329,47.5694158 26.1602079,47.7090363 26.6450163,47.8388244 C26.9401659,47.9181394 27.1691032,47.9863109 27.4361967,47.973201 L27.5226093,47.9941769 C27.869382,48.0420281 28.1723873,47.7837628 27.8862157,47.6297214" id="Fill-21528"></path>
                    <path d="M16,45.1718166 C15.6936426,44.8058166 15.4760554,45.1368166 15.1056232,45.1468166 C14.9647923,45.1508166 14.9647923,45.4708166 15.1056232,45.4748166 C15.4760554,45.4848166 15.6936426,45.8158166 16,45.4498166 L16,45.1718166" id="Fill-21529"></path>
                    <path d="M12.9552801,45.2354102 C12.7098698,44.9244102 12.4531618,44.9844102 12.1600502,45.0634102 C11.9466499,45.1224102 11.9466499,45.6924102 12.1600502,45.7514102 C12.4544171,45.8314102 12.7111251,45.8894102 12.9552801,45.5794102 C13.0149066,45.5044102 13.0149066,45.3104102 12.9552801,45.2354102" id="Fill-21530"></path>
                    <path d="M11.5741855,44.1221338 C11.4871855,43.9592887 11.2011855,43.9592887 11.1131855,44.1221338 C10.9571855,44.4113243 10.9511855,44.6340664 11.1661855,44.9073467 C11.2621855,45.0308844 11.4251855,45.0308844 11.5221855,44.9073467 C11.7361855,44.6340664 11.7301855,44.4113243 11.5741855,44.1221338" id="Fill-21531"></path>
                    <path d="M8.65392746,45.1224992 L8.46621444,45.1224992 L8.45546435,45.1084992 C8.21234705,44.7864992 7.85015188,45.2524992 8.06598051,45.5794992 C8.24128958,45.8434992 8.32398254,46.0374992 8.65392746,45.9914992 C9.11287339,45.9274992 9.11783497,45.1804992 8.65392746,45.1224992" id="Fill-21532"></path>
                    <path d="M8.91491701,43.1854032 C8.71353196,43.0224032 8.54204687,42.9794032 8.2984501,43.0084032 C7.90095646,43.0544032 7.90007705,43.6644032 8.2984501,43.7114032 C8.54204687,43.7394032 8.71617019,43.6944032 8.91491701,43.5334032 C9.028361,43.4424032 9.028361,43.2774032 8.91491701,43.1854032" id="Fill-21533"></path>
                    <path d="M7.8724912,43.3736785 C7.59700642,43.1637892 7.45333587,42.891218 7.13809758,43.0450735 C7.04533941,43.0906604 6.97629386,43.2179235 7.0076782,43.3575332 C7.1081081,43.807703 7.31315247,43.7830101 7.61792931,43.9663071 C7.9073627,44.1401068 8.16192459,43.5959142 7.8724912,43.3736785" id="Fill-21534"></path>
                </g>
            </g>
        </g>
    </g>
</svg>