<?xml version="1.0" encoding="UTF-8" standalone="no"?>
<svg width="306px" height="415px" viewBox="0 0 306 415" version="1.1" xmlns="http://www.w3.org/2000/svg" xmlns:xlink="http://www.w3.org/1999/xlink">
    <!-- Generator: Sketch 50.2 (55047) - http://www.bohemiancoding.com/sketch -->
    <title>contact-pin</title>
    <desc>Created with Sketch.</desc>
    <defs>
        <path d="M294.524345,160.025328 C294.524345,89.8822622 235.771396,33.015 163.262172,33.015 C90.7739503,33.015 32,89.8822622 32,160.025328 C32,289.706237 163.262172,383.485 163.262172,383.485 C163.262172,383.485 294.524345,289.709742 294.524345,160.025328 Z" id="path-1"></path>
        <filter x="-15.2%" y="-4.6%" width="130.5%" height="127.4%" filterUnits="objectBoundingBox" id="filter-2">
            <feOffset dx="0" dy="20" in="SourceAlpha" result="shadowOffsetOuter1"></feOffset>
            <feGaussianBlur stdDeviation="6" in="shadowOffsetOuter1" result="shadowBlurOuter1"></feGaussianBlur>
            <feColorMatrix values="0 0 0 0 0   0 0 0 0 0   0 0 0 0 0  0 0 0 0.5 0" type="matrix" in="shadowBlurOuter1" result="shadowMatrixOuter1"></feColorMatrix>
            <feOffset dx="0" dy="20" in="SourceAlpha" result="shadowOffsetOuter2"></feOffset>
            <feGaussianBlur stdDeviation="6" in="shadowOffsetOuter2" result="shadowBlurOuter2"></feGaussianBlur>
            <feColorMatrix values="0 0 0 0 0.71372549   0 0 0 0 0.517647059   0 0 0 0 0.674509804  0 0 0 0.504896966 0" type="matrix" in="shadowBlurOuter2" result="shadowMatrixOuter2"></feColorMatrix>
            <feMerge>
                <feMergeNode in="shadowMatrixOuter1"></feMergeNode>
                <feMergeNode in="shadowMatrixOuter2"></feMergeNode>
            </feMerge>
        </filter>
    </defs>
    <g id="Page-1" stroke="none" stroke-width="1" fill="none" fill-rule="evenodd">
        <g id="misc-font" transform="translate(-93.000000, -1626.000000)">
            <g id="contact-pin" transform="translate(93.000000, 1626.000000)">
                <g id="map-pin">
                    <g id="Shape" fill-rule="nonzero">
                        <use fill="black" fill-opacity="1" filter="url(#filter-2)" xlink:href="#path-1"></use>
                        <use fill="#805278" fill-rule="evenodd" xlink:href="#path-1"></use>
                    </g>
                    <path d="M300,145.1412 C300,64.98513 232.86,0 150,0 C67.164,0 0,64.98513 0,145.1412 C0,293.33421 150,400.5 150,400.5 C150,400.5 300,293.338215 300,145.1412 Z" id="Shape" fill="#B684AC" fill-rule="nonzero"></path>
                    <circle id="Oval-2" fill="#FFFFFF" cx="150" cy="145.5" r="126"></circle>
                </g>
                <g id="Group" transform="translate(76.000000, 75.000000)">
                    <path d="M41.592,20.502 C41.6400002,19.3379942 41.7389992,18.2730048 41.889,17.307 C42.0390008,16.3409952 42.2519986,15.4290043 42.528,14.571 C42.8040014,13.7129957 43.1519979,12.8910039 43.572,12.105 C43.9920021,11.3189961 44.4899971,10.5180041 45.066,9.702 L39,9.702 L39,9 L46.074,9 L46.074,9.468 C45.3899966,10.3800046 44.8230023,11.2559958 44.373,12.096 C43.9229978,12.9360042 43.5630014,13.7909956 43.293,14.661 C43.0229987,15.5310043 42.8280006,16.4399953 42.708,17.388 C42.5879994,18.3360047 42.5040002,19.3739944 42.456,20.502 L41.592,20.502 Z M51.7139999,20.502 C51.7620001,19.3379942 51.8609991,18.2730048 52.0109999,17.307 C52.1610006,16.3409952 52.3739985,15.4290043 52.6499999,14.571 C52.9260012,13.7129957 53.2739977,12.8910039 53.6939998,12.105 C54.114002,11.3189961 54.611997,10.5180041 55.1879999,9.702 L49.1219998,9.702 L49.1219998,9 L56.1959999,9 L56.1959999,9.468 C55.5119964,10.3800046 54.9450021,11.2559958 54.4949999,12.096 C54.0449976,12.9360042 53.6850012,13.7909956 53.4149999,14.661 C53.1449985,15.5310043 52.9500005,16.4399953 52.8299999,17.388 C52.7099993,18.3360047 52.6260001,19.3739944 52.5779998,20.502 L51.7139999,20.502 Z M61.8359997,20.502 C61.8839999,19.3379942 61.982999,18.2730048 62.1329997,17.307 C62.2830005,16.3409952 62.4959983,15.4290043 62.7719997,14.571 C63.0480011,13.7129957 63.3959976,12.8910039 63.8159997,12.105 C64.2360018,11.3189961 64.7339968,10.5180041 65.3099997,9.702 L59.2439997,9.702 L59.2439997,9 L66.3179997,9 L66.3179997,9.468 C65.6339963,10.3800046 65.067002,11.2559958 64.6169997,12.096 C64.1669975,12.9360042 63.807001,13.7909956 63.5369997,14.661 C63.2669984,15.5310043 63.0720003,16.4399953 62.9519997,17.388 C62.8319991,18.3360047 62.7479999,19.3739944 62.6999997,20.502 L61.8359997,20.502 Z M69.2939996,16.362 L69.2939996,15.66 L73.2539996,15.66 L73.2539996,16.362 L69.2939996,16.362 Z M78.8399994,20.502 C78.8879996,19.3379942 78.9869987,18.2730048 79.1369994,17.307 C79.2870002,16.3409952 79.499998,15.4290043 79.7759994,14.571 C80.0520008,13.7129957 80.3999973,12.8910039 80.8199994,12.105 C81.2400015,11.3189961 81.7379965,10.5180041 82.3139994,9.702 L76.2479994,9.702 L76.2479994,9 L83.3219994,9 L83.3219994,9.468 C82.637996,10.3800046 82.0710016,11.2559958 81.6209994,12.096 C81.1709972,12.9360042 80.8110008,13.7909956 80.5409994,14.661 C80.2709981,15.5310043 80.076,16.4399953 79.9559994,17.388 C79.8359988,18.3360047 79.7519996,19.3739944 79.7039994,20.502 L78.8399994,20.502 Z M88.9619993,20.502 C89.0099995,19.3379942 89.1089985,18.2730048 89.2589993,17.307 C89.409,16.3409952 89.6219979,15.4290043 89.8979993,14.571 C90.1740006,13.7129957 90.5219972,12.8910039 90.9419993,12.105 C91.3620014,11.3189961 91.8599964,10.5180041 92.4359993,9.702 L86.3699993,9.702 L86.3699993,9 L93.4439993,9 L93.4439993,9.468 C92.7599958,10.3800046 92.1930015,11.2559958 91.7429993,12.096 C91.292997,12.9360042 90.9330006,13.7909956 90.6629993,14.661 C90.3929979,15.5310043 90.1979999,16.4399953 90.0779993,17.388 C89.9579987,18.3360047 89.8739995,19.3739944 89.8259993,20.502 L88.9619993,20.502 Z M99.0839991,20.502 C99.1319993,19.3379942 99.2309984,18.2730048 99.3809991,17.307 C99.5309998,16.3409952 99.7439977,15.4290043 100.019999,14.571 C100.296,13.7129957 100.643997,12.8910039 101.063999,12.105 C101.484001,11.3189961 101.981996,10.5180041 102.557999,9.702 L96.4919991,9.702 L96.4919991,9 L103.565999,9 L103.565999,9.468 C102.881996,10.3800046 102.315001,11.2559958 101.864999,12.096 C101.414997,12.9360042 101.055,13.7909956 100.784999,14.661 C100.514998,15.5310043 100.32,16.4399953 100.199999,17.388 C100.079999,18.3360047 99.9959993,19.3739944 99.9479991,20.502 L99.0839991,20.502 Z M106.541999,16.362 L106.541999,15.66 L110.501999,15.66 L110.501999,16.362 L106.541999,16.362 Z M116.087999,20.502 C116.135999,19.3379942 116.234998,18.2730048 116.384999,17.307 C116.535,16.3409952 116.747997,15.4290043 117.023999,14.571 C117.3,13.7129957 117.647997,12.8910039 118.067999,12.105 C118.488001,11.3189961 118.985996,10.5180041 119.561999,9.702 L113.495999,9.702 L113.495999,9 L120.569999,9 L120.569999,9.468 C119.885995,10.3800046 119.319001,11.2559958 118.868999,12.096 C118.418997,12.9360042 118.059,13.7909956 117.788999,14.661 C117.518997,15.5310043 117.323999,16.4399953 117.203999,17.388 C117.083998,18.3360047 116.999999,19.3739944 116.951999,20.502 L116.087999,20.502 Z M126.209999,20.502 C126.257999,19.3379942 126.356998,18.2730048 126.506999,17.307 C126.656999,16.3409952 126.869997,15.4290043 127.145999,14.571 C127.422,13.7129957 127.769997,12.8910039 128.189999,12.105 C128.610001,11.3189961 129.107996,10.5180041 129.683999,9.702 L123.617999,9.702 L123.617999,9 L130.691999,9 L130.691999,9.468 C130.007995,10.3800046 129.441001,11.2559958 128.990999,12.096 C128.540996,12.9360042 128.181,13.7909956 127.910999,14.661 C127.640997,15.5310043 127.445999,16.4399953 127.325999,17.388 C127.205998,18.3360047 127.121999,19.3739944 127.073999,20.502 L126.209999,20.502 Z M136.331999,20.502 C136.379999,19.3379942 136.478998,18.2730048 136.628998,17.307 C136.778999,16.3409952 136.991997,15.4290043 137.267998,14.571 C137.544,13.7129957 137.891996,12.8910039 138.311999,12.105 C138.732001,11.3189961 139.229996,10.5180041 139.805998,9.702 L133.739999,9.702 L133.739999,9 L140.813999,9 L140.813999,9.468 C140.129995,10.3800046 139.563001,11.2559958 139.112999,12.096 C138.662996,12.9360042 138.303,13.7909956 138.032999,14.661 C137.762997,15.5310043 137.567999,16.4399953 137.447998,17.388 C137.327998,18.3360047 137.243999,19.3739944 137.195998,20.502 L136.331999,20.502 Z M146.453998,20.502 C146.501999,19.3379942 146.600998,18.2730048 146.750998,17.307 C146.900999,16.3409952 147.113997,15.4290043 147.389998,14.571 C147.666,13.7129957 148.013996,12.8910039 148.433998,12.105 C148.854,11.3189961 149.351995,10.5180041 149.927998,9.702 L143.861998,9.702 L143.861998,9 L150.935998,9 L150.935998,9.468 C150.251995,10.3800046 149.685001,11.2559958 149.234998,12.096 C148.784996,12.9360042 148.425,13.7909956 148.154998,14.661 C147.884997,15.5310043 147.689999,16.4399953 147.569998,17.388 C147.449998,18.3360047 147.365999,19.3739944 147.317998,20.502 L146.453998,20.502 Z" id="777-777-7777" fill="#424242"></path>
                    <path d="M9.22952786,7.83202913 C9.22952786,7.83202913 5.66017802,9.74610676 5.48568111,10.9677694 C5.31118421,12.1873402 12.757082,21.5098396 15.5427632,21.1625862 C18.3284443,20.8132409 19.1591331,17.5969629 19.1591331,17.5969629 L27,19.6783916 L27,27 C9.23684211,27 0,12.5513287 0,0 L7.13974458,0 L9.22952786,7.83202913 L9.22952786,7.83202913 Z" id="Shape" fill="#805278"></path>
                </g>
                <g id="Group-3" transform="translate(60.000000, 163.000000)">
                    <path d="M26.7857143,5.35714286 L3.21428571,5.35714286 L0,13.9285714 L2.47714286,13.9285714 L2.47714286,25.7142857 L18.5485714,25.7142857 L18.5485714,13.9285714 L24.9771429,13.9285714 L24.9771429,25.7142857 L28.1914286,25.7142857 L28.1914286,13.9285714 L30,13.9285714 L26.7857143,5.35714286 L26.7857143,5.35714286 Z M15.3342857,21.4285714 L5.69142857,21.4285714 L5.69142857,13.9285714 L15.3342857,13.9285714 L15.3342857,21.4285714 Z M3.54857143,0 L28.1914286,0 L28.1914286,3.21428571 L3.54857143,3.21428571 L3.54857143,0 Z" id="Shape" fill="#805278"></path>
                    <path d="M42,16.862 L42,16.16 L44.7,16.16 L44.7,6.62 L42.648,6.62 L42.648,6.08 C43.1160023,5.99599958 43.5329982,5.8940006 43.899,5.774 C44.2650018,5.6539994 44.5859986,5.51600078 44.862,5.36 L45.51,5.36 L45.51,16.16 L48.012,16.16 L48.012,16.862 L42,16.862 Z M51.3479998,16.862 L51.3479998,16.358 C52.2960046,15.3979952 53.1239963,14.5370038 53.8319998,13.775 C54.5400034,13.0129962 55.1309975,12.3170032 55.6049999,11.687 C56.0790022,11.0569968 56.4329987,10.4750027 56.6669999,9.941 C56.901001,9.40699733 57.0179998,8.88800252 57.0179998,8.384 C57.0179998,7.6639964 56.8170019,7.05800246 56.4149998,6.566 C56.0129978,6.07399754 55.3800042,5.828 54.5159999,5.828 C53.9879972,5.828 53.4960021,5.97199856 53.0399998,6.26 C52.5839976,6.54800144 52.1820016,6.90799784 51.8339998,7.34 L51.3119998,6.836 C51.744002,6.3559976 52.2209972,5.95400162 52.7429998,5.63 C53.2650025,5.30599838 53.8799963,5.144 54.5879999,5.144 C55.620005,5.144 56.417997,5.43799706 56.9819999,6.026 C57.5460027,6.61400294 57.8279999,7.39399514 57.8279999,8.366 C57.8279999,8.94200288 57.7020011,9.51499715 57.4499998,10.085 C57.1979986,10.6550028 56.8440021,11.2549968 56.3879998,11.885 C55.9319976,12.5150031 55.3770031,13.1869964 54.7229998,13.901 C54.0689966,14.6150036 53.3460038,15.3919958 52.5539998,16.232 C52.8660014,16.2079999 53.1869982,16.1870001 53.5169999,16.169 C53.8470015,16.1509999 54.1679983,16.142 54.4799998,16.142 L58.4039998,16.142 L58.4039998,16.862 L51.3479998,16.862 Z M64.9079997,17.078 C64.4519974,17.078 64.0380016,17.0300005 63.6659997,16.934 C63.2939978,16.8379995 62.9610012,16.7120008 62.6669997,16.556 C62.3729982,16.3999992 62.1090009,16.226001 61.8749997,16.034 C61.6409985,15.841999 61.4340006,15.650001 61.2539997,15.458 L61.7219997,14.9 C61.8900005,15.092001 62.0759987,15.2749991 62.2799997,15.449 C62.4840007,15.6230009 62.7149984,15.7789993 62.9729997,15.917 C63.231001,16.0550007 63.5189981,16.1659996 63.8369997,16.25 C64.1550013,16.3340004 64.5119977,16.376 64.9079997,16.376 C65.2920016,16.376 65.648998,16.3160006 65.9789997,16.196 C66.3090013,16.0759994 66.5939985,15.9050011 66.8339997,15.683 C67.0740009,15.4609989 67.259999,15.1940016 67.3919997,14.882 C67.5240004,14.5699984 67.5899997,14.2220019 67.5899997,13.838 C67.5899997,13.441998 67.5150005,13.0820016 67.3649997,12.758 C67.2149989,12.4339984 66.9810013,12.1550012 66.6629997,11.921 C66.3449981,11.6869988 65.9310022,11.5040007 65.4209997,11.372 C64.9109972,11.2399993 64.2960033,11.174 63.5759997,11.174 L63.5759997,10.472 C64.236003,10.472 64.7969974,10.4060007 65.2589997,10.274 C65.721002,10.1419993 66.0929983,9.96500111 66.3749997,9.743 C66.6570011,9.52099889 66.8609991,9.25700153 66.9869997,8.951 C67.1130003,8.64499847 67.1759997,8.31800174 67.1759997,7.97 C67.1759997,7.32199676 66.9660018,6.80300195 66.5459997,6.413 C66.1259976,6.02299805 65.5620032,5.828 64.8539997,5.828 C64.313997,5.828 63.8220019,5.95099877 63.3779997,6.197 C62.9339975,6.44300123 62.5440014,6.73999826 62.2079997,7.088 L61.7399997,6.548 C62.1360017,6.16399808 62.5859972,5.83400138 63.0899997,5.558 C63.5940022,5.28199862 64.1819963,5.144 64.8539997,5.144 C65.2980019,5.144 65.7119978,5.20699937 66.0959997,5.333 C66.4800016,5.45900063 66.8129983,5.63899883 67.0949997,5.873 C67.3770011,6.10700117 67.5989989,6.39499829 67.7609997,6.737 C67.9230005,7.07900171 68.0039997,7.47199778 68.0039997,7.916 C68.0039997,8.67200378 67.7970018,9.28099769 67.3829997,9.743 C66.9689976,10.2050023 66.4440029,10.5439989 65.8079997,10.76 L65.8079997,10.832 C66.1680015,10.9040004 66.5039981,11.0269991 66.8159997,11.201 C67.1280013,11.3750009 67.4039985,11.5879987 67.6439997,11.84 C67.8840009,12.0920013 68.072999,12.3829983 68.2109997,12.713 C68.3490004,13.0430016 68.4179997,13.411998 68.4179997,13.82 C68.4179997,14.3240025 68.3280006,14.776998 68.1479997,15.179 C67.9679988,15.581002 67.7190013,15.9229986 67.4009997,16.205 C67.0829981,16.4870014 66.7110018,16.7029992 66.2849997,16.853 C65.8589976,17.0030007 65.4000022,17.078 64.9079997,17.078 Z M76.4339995,16.862 L76.4339995,13.424 L71.1419995,13.424 L71.1419995,12.956 L76.4879995,5.36 L77.2079996,5.36 L77.2079996,12.74 L78.9179995,12.74 L78.9179995,13.424 L77.2079996,13.424 L77.2079996,16.862 L76.4339995,16.862 Z M72.1139995,12.74 L76.4339995,12.74 L76.4339995,8.528 C76.4339995,8.26399868 76.4399995,7.93400198 76.4519995,7.538 C76.4639996,7.14199802 76.4819994,6.81200132 76.5059995,6.548 L76.4339995,6.548 C76.2899988,6.7880012 76.1400003,7.02199886 75.9839996,7.25 C75.8279988,7.47800114 75.6660004,7.72399868 75.4979995,7.988 L72.1139995,12.74 Z M89.0639993,16.862 L86.5079993,8.222 L87.3719992,8.222 L88.9199993,13.82 C89.0279998,14.216002 89.1299988,14.6029981 89.2259992,14.981 C89.3219997,15.3590019 89.4179988,15.7399981 89.5139992,16.124 L89.5859992,16.124 C89.6819997,15.7399981 89.7839987,15.3590019 89.8919992,14.981 C89.9999998,14.6029981 90.1079987,14.216002 90.2159992,13.82 L91.7819992,8.222 L92.7359992,8.222 L94.3019992,13.82 C94.4099998,14.216002 94.5179987,14.6029981 94.6259992,14.981 C94.7339998,15.3590019 94.8419987,15.7399981 94.9499992,16.124 L95.0219992,16.124 C95.1179997,15.7399981 95.2199987,15.3590019 95.3279993,14.981 C95.4359998,14.6029981 95.5379988,14.216002 95.6339993,13.82 L97.1639992,8.222 L97.9739993,8.222 L95.4899993,16.862 L94.4459992,16.862 L92.9339992,11.498 C92.8019986,11.0779979 92.6909997,10.667002 92.6009992,10.265 C92.5109988,9.86299799 92.3999999,9.4520021 92.2679992,9.032 L92.1959992,9.032 C92.0999988,9.4520021 91.9949998,9.86899793 91.8809993,10.283 C91.7669987,10.6970021 91.6439999,11.1139979 91.5119992,11.534 L90.0179992,16.862 L89.0639993,16.862 Z M106.751999,16.862 L106.751999,5 L107.579999,5 L107.579999,10.202 L113.933999,10.202 L113.933999,5 L114.761999,5 L114.761999,16.862 L113.933999,16.862 L113.933999,10.922 L107.579999,10.922 L107.579999,16.862 L106.751999,16.862 Z M121.553999,17.078 C121.205997,17.078 120.882,17.0300005 120.581999,16.934 C120.281997,16.8379995 120.018,16.694001 119.789999,16.502 C119.561998,16.309999 119.381999,16.0640015 119.249999,15.764 C119.117998,15.4639985 119.051999,15.110002 119.051999,14.702 C119.051999,13.7419952 119.498994,13.0130025 120.392999,12.515 C121.287003,12.0169975 122.699989,11.6600011 124.631999,11.444 C124.631999,11.1199984 124.607999,10.7930016 124.559999,10.463 C124.511999,10.1329983 124.41,9.83900129 124.253999,9.581 C124.097998,9.32299871 123.888,9.11300081 123.623999,8.951 C123.359997,8.78899919 123.012001,8.708 122.579999,8.708 C122.003996,8.708 121.476001,8.82199886 120.995999,9.05 C120.515996,9.27800114 120.126,9.49999892 119.825999,9.716 L119.465999,9.122 C119.622,9.01399946 119.810998,8.89400066 120.032999,8.762 C120.255,8.62999934 120.503997,8.51000054 120.779999,8.402 C121.056,8.29399946 121.355997,8.20100039 121.679999,8.123 C122.004,8.04499961 122.339997,8.006 122.687999,8.006 C123.192001,8.006 123.617997,8.09299913 123.965999,8.267 C124.314001,8.44100087 124.595998,8.6779985 124.811999,8.978 C125.028,9.2780015 125.183998,9.62899799 125.279999,10.031 C125.375999,10.433002 125.423999,10.8679977 125.423999,11.336 L125.423999,16.862 L124.739999,16.862 L124.667999,15.746 L124.613999,15.746 C124.169997,16.0940017 123.693001,16.4029986 123.182999,16.673 C122.672996,16.9430013 122.130002,17.078 121.553999,17.078 Z M121.697999,16.394 C122.202001,16.394 122.681997,16.2740012 123.137999,16.034 C123.594001,15.7939988 124.091996,15.4460023 124.631999,14.99 L124.631999,12.056 C123.743994,12.1640005 122.994002,12.2959992 122.381999,12.452 C121.769996,12.6080008 121.278001,12.7939989 120.905999,13.01 C120.533997,13.2260011 120.267,13.4719986 120.104999,13.748 C119.942998,14.0240014 119.861999,14.3299983 119.861999,14.666 C119.861999,14.9780016 119.909998,15.2419989 120.005999,15.458 C120.101999,15.6740011 120.233998,15.8509993 120.401999,15.989 C120.57,16.1270007 120.764998,16.2289997 120.986999,16.295 C121.209,16.3610003 121.445998,16.394 121.697999,16.394 Z M130.001999,20.768 L130.001999,8.222 L130.685999,8.222 L130.757999,9.302 L130.811999,9.302 C131.232001,8.96599832 131.690996,8.66600132 132.188999,8.402 C132.687001,8.13799868 133.205996,8.006 133.745999,8.006 C134.898004,8.006 135.761996,8.40499601 136.337999,9.203 C136.914002,10.001004 137.201999,11.0719933 137.201999,12.416 C137.201999,13.1480037 137.1,13.8019971 136.895999,14.378 C136.691998,14.9540029 136.413,15.442998 136.058999,15.845 C135.704997,16.247002 135.297001,16.5529989 134.834999,16.763 C134.372996,16.973001 133.890001,17.078 133.385999,17.078 C132.977997,17.078 132.558001,16.9850009 132.125999,16.799 C131.693996,16.6129991 131.250001,16.3520017 130.793999,16.016 L130.793999,20.768 L130.001999,20.768 Z M133.349999,16.376 C133.782001,16.376 134.183997,16.280001 134.555999,16.088 C134.928001,15.895999 135.245997,15.6260017 135.509999,15.278 C135.774,14.9299983 135.980998,14.5130024 136.130999,14.027 C136.280999,13.5409976 136.355999,13.0040029 136.355999,12.416 C136.355999,11.8879974 136.304999,11.3960023 136.202999,10.94 C136.100998,10.4839977 135.942,10.0910016 135.725999,9.761 C135.509998,9.43099835 135.228,9.17300093 134.879999,8.987 C134.531997,8.80099907 134.112001,8.708 133.619999,8.708 C133.187996,8.708 132.741001,8.83099877 132.278999,9.077 C131.816996,9.32300123 131.322001,9.67399772 130.793999,10.13 L130.793999,15.26 C131.298001,15.668002 131.765996,15.9559992 132.197999,16.124 C132.630001,16.2920008 133.013997,16.376 133.349999,16.376 Z M141.293999,20.768 L141.293999,8.222 L141.977999,8.222 L142.049999,9.302 L142.103998,9.302 C142.524001,8.96599832 142.982996,8.66600132 143.480998,8.402 C143.979001,8.13799868 144.497996,8.006 145.037998,8.006 C146.190004,8.006 147.053996,8.40499601 147.629998,9.203 C148.206001,10.001004 148.493998,11.0719933 148.493998,12.416 C148.493998,13.1480037 148.392,13.8019971 148.187999,14.378 C147.983997,14.9540029 147.705,15.442998 147.350999,15.845 C146.996997,16.247002 146.589001,16.5529989 146.126998,16.763 C145.664996,16.973001 145.182001,17.078 144.677998,17.078 C144.269996,17.078 143.850001,16.9850009 143.417999,16.799 C142.985996,16.6129991 142.542001,16.3520017 142.085999,16.016 L142.085999,20.768 L141.293999,20.768 Z M144.641998,16.376 C145.074001,16.376 145.475997,16.280001 145.847999,16.088 C146.22,15.895999 146.537997,15.6260017 146.801998,15.278 C147.066,14.9299983 147.272998,14.5130024 147.422998,14.027 C147.572999,13.5409976 147.647998,13.0040029 147.647998,12.416 C147.647998,11.8879974 147.596999,11.3960023 147.494998,10.94 C147.392998,10.4839977 147.234,10.0910016 147.017998,9.761 C146.801997,9.43099835 146.52,9.17300093 146.171998,8.987 C145.823997,8.80099907 145.404001,8.708 144.911998,8.708 C144.479996,8.708 144.033001,8.83099877 143.570998,9.077 C143.108996,9.32300123 142.614001,9.67399772 142.085998,10.13 L142.085998,15.26 C142.590001,15.668002 143.057996,15.9559992 143.489999,16.124 C143.922001,16.2920008 144.305997,16.376 144.641998,16.376 Z M152.243998,20.804 C151.919997,20.804 151.626,20.7440006 151.361998,20.624 L151.541998,19.922 C151.637999,19.9580002 151.745998,19.9909998 151.865998,20.021 C151.985999,20.0510001 152.111998,20.066 152.243998,20.066 C152.784001,20.066 153.233997,19.8500022 153.593998,19.418 C153.954,18.9859978 154.241997,18.4400033 154.457998,17.78 L154.691998,17.024 L151.145998,8.222 L152.009998,8.222 L154.097998,13.658 C154.229999,14.0180018 154.376998,14.4139978 154.538998,14.846 C154.700999,15.2780022 154.865998,15.6859981 155.033998,16.07 L155.105998,16.07 C155.237999,15.6859981 155.372998,15.2780022 155.510998,14.846 C155.648999,14.4139978 155.777998,14.0180018 155.897998,13.658 L157.751998,8.222 L158.561998,8.222 L155.141998,17.942 C155.021998,18.3020018 154.874999,18.6559983 154.700998,19.004 C154.526997,19.3520017 154.323,19.6579987 154.088998,19.922 C153.854997,20.1860013 153.585,20.3989992 153.278998,20.561 C152.972997,20.7230008 152.628,20.804 152.243998,20.804 Z M169.121998,17.078 C168.473995,17.078 167.880001,16.9610012 167.339998,16.727 C166.799995,16.4929988 166.338,16.2140016 165.953998,15.89 L166.421998,15.296 C166.794,15.6080016 167.189996,15.8689989 167.609998,16.079 C168.03,16.289001 168.551995,16.394 169.175998,16.394 C169.860001,16.394 170.372996,16.2230017 170.714998,15.881 C171.057,15.5389983 171.227998,15.1400023 171.227998,14.684 C171.227998,14.4199987 171.164999,14.186001 171.038998,13.982 C170.912997,13.777999 170.747999,13.6040007 170.543998,13.46 C170.339997,13.3159993 170.114999,13.1900005 169.868998,13.082 C169.622997,12.9739995 169.373999,12.8720005 169.121998,12.776 C168.797996,12.6559994 168.471,12.5300007 168.140998,12.398 C167.810996,12.2659993 167.513999,12.1070009 167.249998,11.921 C166.985997,11.7349991 166.772999,11.5130013 166.610998,11.255 C166.448997,10.9969987 166.367998,10.6820019 166.367998,10.31 C166.367998,9.99799844 166.427997,9.70100141 166.547998,9.419 C166.667999,9.13699859 166.847997,8.89100105 167.087998,8.681 C167.327999,8.47099895 167.618996,8.3060006 167.960998,8.186 C168.303,8.0659994 168.701996,8.006 169.157998,8.006 C169.614,8.006 170.060996,8.08999916 170.498998,8.258 C170.937,8.42600084 171.311996,8.64199868 171.623998,8.906 L171.191998,9.464 C170.903997,9.24799892 170.598,9.06500075 170.273998,8.915 C169.949996,8.76499925 169.566,8.69 169.121998,8.69 C168.785996,8.69 168.497999,8.73499955 168.257998,8.825 C168.017997,8.91500045 167.816999,9.03199928 167.654998,9.176 C167.492997,9.32000072 167.372998,9.48799904 167.294998,9.68 C167.216998,9.87200096 167.177998,10.063999 167.177998,10.256 C167.177998,10.5080013 167.234997,10.7209991 167.348998,10.895 C167.462999,11.0690009 167.615997,11.2219993 167.807998,11.354 C167.999999,11.4860007 168.218997,11.6029995 168.464998,11.705 C168.710999,11.8070005 168.959997,11.9059995 169.211998,12.002 L170.219998,12.398 C170.556,12.5300007 170.858997,12.691999 171.128998,12.884 C171.398999,13.076001 171.617997,13.3129986 171.785998,13.595 C171.953999,13.8770014 172.037998,14.2279979 172.037998,14.648 C172.037998,14.9720016 171.974999,15.2809985 171.848998,15.575 C171.722997,15.8690015 171.533999,16.1269989 171.281998,16.349 C171.029997,16.5710011 170.724,16.7479993 170.363998,16.88 C170.003996,17.0120007 169.59,17.078 169.121998,17.078 Z M177.821998,17.078 C177.401996,17.078 177.053999,17.0150006 176.777998,16.889 C176.501997,16.7629994 176.279999,16.5860011 176.111998,16.358 C175.943997,16.1299989 175.826998,15.8540016 175.760998,15.53 C175.694998,15.2059984 175.661998,14.8520019 175.661998,14.468 L175.661998,8.906 L174.311998,8.906 L174.311998,8.294 L175.679998,8.222 L175.787998,5.72 L176.471998,5.72 L176.471998,8.222 L178.973998,8.222 L178.973998,8.906 L176.471998,8.906 L176.471998,14.54 C176.471998,14.8160014 176.492998,15.0649989 176.534998,15.287 C176.576998,15.5090011 176.651997,15.7009992 176.759998,15.863 C176.867998,16.0250008 177.014997,16.1509995 177.200998,16.241 C177.386999,16.3310004 177.629996,16.376 177.929998,16.376 C178.097999,16.376 178.280997,16.3490003 178.478998,16.295 C178.676999,16.2409997 178.853997,16.1780004 179.009998,16.106 L179.225998,16.754 C178.973997,16.8500005 178.721999,16.9279997 178.469998,16.988 C178.217997,17.0480003 178.001999,17.078 177.821998,17.078 Z" id="1234-w-Happy-st" fill="#424242"></path>
                    <path d="M46.302,44 L46.302,32.858 L42.522,32.858 L42.522,32.138 L50.91,32.138 L50.91,32.858 L47.13,32.858 L47.13,44 L46.302,44 Z M56.7839998,44.216 C56.2319971,44.216 55.7130023,44.114001 55.2269998,43.91 C54.7409974,43.705999 54.3180016,43.4090019 53.9579998,43.019 C53.597998,42.628998 53.3130009,42.1550028 53.1029998,41.597 C52.8929988,41.0389972 52.7879998,40.4060035 52.7879998,39.698 C52.7879998,38.9899965 52.8929988,38.3540028 53.1029998,37.79 C53.3130009,37.2259972 53.5949981,36.749002 53.9489998,36.359 C54.3030016,35.9689981 54.7049976,35.6690011 55.1549998,35.459 C55.6050021,35.248999 56.0699974,35.144 56.5499998,35.144 C57.582005,35.144 58.3919969,35.4919965 58.9799998,36.188 C59.5680028,36.8840035 59.8619998,37.8679936 59.8619998,39.14 L59.8619998,39.464 C59.8619998,39.5720005 59.85,39.6799995 59.8259998,39.788 L53.5979998,39.788 C53.6099999,40.3280027 53.6939991,40.8289977 53.8499998,41.291 C54.0060006,41.7530023 54.2249984,42.1489983 54.5069998,42.479 C54.7890013,42.8090017 55.1279979,43.0669991 55.5239998,43.253 C55.9200018,43.4390009 56.3639974,43.532 56.8559998,43.532 C57.3240022,43.532 57.746998,43.4630007 58.1249998,43.325 C58.5030017,43.1869993 58.8539982,42.9980012 59.1779998,42.758 L59.5019998,43.37 C59.1539981,43.574001 58.7730019,43.7659991 58.3589998,43.946 C57.9449978,44.1260009 57.420003,44.216 56.7839998,44.216 Z M53.5979998,39.14 L59.1059998,39.14 C59.1059998,38.0239944 58.8780021,37.1930027 58.4219998,36.647 C57.9659976,36.1009973 57.3480037,35.828 56.5679998,35.828 C56.195998,35.828 55.8420015,35.9029992 55.5059998,36.053 C55.1699982,36.2030008 54.8670012,36.4219986 54.5969998,36.71 C54.3269985,36.9980014 54.1050007,37.345998 53.9309998,37.754 C53.756999,38.162002 53.6460001,38.6239974 53.5979998,39.14 Z M63.7019997,44 L63.7019997,35.36 L64.3859997,35.36 L64.4579997,36.692 L64.5119997,36.692 C64.8960016,36.2479978 65.3249973,35.8790015 65.7989997,35.585 C66.2730021,35.2909985 66.7499973,35.144 67.2299997,35.144 C67.9260032,35.144 68.4599978,35.3029984 68.8319997,35.621 C69.2040016,35.9390016 69.4679989,36.3679973 69.6239997,36.908 C70.1280022,36.3679973 70.6169973,35.9390016 71.0909997,35.621 C71.5650021,35.3029984 72.0539972,35.144 72.5579997,35.144 C74.2860083,35.144 75.1499997,36.247989 75.1499997,38.456 L75.1499997,44 L74.3399997,44 L74.3399997,38.564 C74.3399997,37.6399954 74.1840013,36.9590022 73.8719997,36.521 C73.5599981,36.0829978 73.074003,35.864 72.4139997,35.864 C71.6339958,35.864 70.7700044,36.4039946 69.8219997,37.484 L69.8219997,44 L69.0299997,44 L69.0299997,38.564 C69.0299997,37.6399954 68.8740013,36.9590022 68.5619997,36.521 C68.2499981,36.0829978 67.7580031,35.864 67.0859997,35.864 C66.3059958,35.864 65.4420044,36.4039946 64.4939997,37.484 L64.4939997,44 L63.7019997,44 Z M79.8179995,47.906 L79.8179995,35.36 L80.5019995,35.36 L80.5739995,36.44 L80.6279995,36.44 C81.0480016,36.1039983 81.5069971,35.8040013 82.0049995,35.54 C82.503002,35.2759987 83.0219968,35.144 83.5619995,35.144 C84.7140053,35.144 85.5779967,35.542996 86.1539995,36.341 C86.7300024,37.139004 87.0179995,38.2099933 87.0179995,39.554 C87.0179995,40.2860037 86.9160006,40.9399971 86.7119995,41.516 C86.5079985,42.0920029 86.2290013,42.580998 85.8749995,42.983 C85.5209978,43.385002 85.1130019,43.6909989 84.6509995,43.901 C84.1889972,44.111001 83.7060021,44.216 83.2019995,44.216 C82.7939975,44.216 82.3740017,44.1230009 81.9419995,43.937 C81.5099974,43.7509991 81.0660018,43.4900017 80.6099995,43.154 L80.6099995,47.906 L79.8179995,47.906 Z M83.1659995,43.514 C83.5980017,43.514 83.9999977,43.418001 84.3719995,43.226 C84.7440014,43.033999 85.0619982,42.7640017 85.3259995,42.416 C85.5900009,42.0679983 85.7969988,41.6510024 85.9469995,41.165 C86.0970003,40.6789976 86.1719995,40.1420029 86.1719995,39.554 C86.1719995,39.0259974 86.1210001,38.5340023 86.0189995,38.078 C85.916999,37.6219977 85.7580006,37.2290017 85.5419995,36.899 C85.3259985,36.5689984 85.0440013,36.3110009 84.6959995,36.125 C84.3479978,35.9389991 83.928002,35.846 83.4359995,35.846 C83.0039974,35.846 82.5570019,35.9689988 82.0949995,36.215 C81.6329972,36.4610012 81.1380022,36.8119977 80.6099995,37.268 L80.6099995,42.398 C81.1140021,42.806002 81.5819974,43.0939992 82.0139995,43.262 C82.4460017,43.4300008 82.8299979,43.514 83.1659995,43.514 Z M94.3859994,44.216 C93.8339966,44.216 93.3150018,44.114001 92.8289994,43.91 C92.342997,43.705999 91.9200012,43.4090019 91.5599994,43.019 C91.1999976,42.628998 90.9150004,42.1550028 90.7049994,41.597 C90.4949983,41.0389972 90.3899994,40.4060035 90.3899994,39.698 C90.3899994,38.9899965 90.4949983,38.3540028 90.7049994,37.79 C90.9150004,37.2259972 91.1969976,36.749002 91.5509994,36.359 C91.9050012,35.9689981 92.3069971,35.6690011 92.7569994,35.459 C93.2070016,35.248999 93.671997,35.144 94.1519994,35.144 C95.1840046,35.144 95.9939965,35.4919965 96.5819994,36.188 C97.1700023,36.8840035 97.4639994,37.8679936 97.4639994,39.14 L97.4639994,39.464 C97.4639994,39.5720005 97.4519995,39.6799995 97.4279994,39.788 L91.1999994,39.788 C91.2119995,40.3280027 91.2959986,40.8289977 91.4519994,41.291 C91.6080002,41.7530023 91.826998,42.1489983 92.1089994,42.479 C92.3910008,42.8090017 92.7299974,43.0669991 93.1259994,43.253 C93.5220014,43.4390009 93.9659969,43.532 94.4579994,43.532 C94.9260017,43.532 95.3489975,43.4630007 95.7269994,43.325 C96.1050013,43.1869993 96.4559978,42.9980012 96.7799994,42.758 L97.1039994,43.37 C96.7559977,43.574001 96.3750015,43.7659991 95.9609994,43.946 C95.5469973,44.1260009 95.0220026,44.216 94.3859994,44.216 Z M91.1999994,39.14 L96.7079994,39.14 C96.7079994,38.0239944 96.4800017,37.1930027 96.0239994,36.647 C95.5679971,36.1009973 94.9500033,35.828 94.1699994,35.828 C93.7979975,35.828 93.4440011,35.9029992 93.1079994,36.053 C92.7719977,36.2030008 92.4690007,36.4219986 92.1989994,36.71 C91.928998,36.9980014 91.7070003,37.345998 91.5329994,37.754 C91.3589985,38.162002 91.2479996,38.6239974 91.1999994,39.14 Z M108.293999,44.216 C107.945997,44.216 107.622001,44.1680005 107.321999,44.072 C107.021998,43.9759995 106.758,43.832001 106.529999,43.64 C106.301998,43.447999 106.122,43.2020015 105.989999,42.902 C105.857998,42.6019985 105.791999,42.248002 105.791999,41.84 C105.791999,40.8799952 106.238995,40.1510025 107.132999,39.653 C108.027004,39.1549975 109.439989,38.7980011 111.371999,38.582 C111.371999,38.2579984 111.347999,37.9310016 111.299999,37.601 C111.251999,37.2709983 111.15,36.9770013 110.993999,36.719 C110.837998,36.4609987 110.628,36.2510008 110.363999,36.089 C110.099998,35.9269992 109.752001,35.846 109.319999,35.846 C108.743996,35.846 108.216001,35.9599989 107.735999,36.188 C107.255997,36.4160011 106.866001,36.6379989 106.565999,36.854 L106.205999,36.26 C106.362,36.1519995 106.550998,36.0320007 106.772999,35.9 C106.995,35.7679993 107.243998,35.6480005 107.519999,35.54 C107.796,35.4319995 108.095997,35.3390004 108.419999,35.261 C108.744001,35.1829996 109.079997,35.144 109.427999,35.144 C109.932002,35.144 110.357997,35.2309991 110.705999,35.405 C111.054001,35.5790009 111.335998,35.8159985 111.551999,36.116 C111.768,36.4160015 111.923999,36.766998 112.019999,37.169 C112.116,37.571002 112.163999,38.0059977 112.163999,38.474 L112.163999,44 L111.479999,44 L111.407999,42.884 L111.353999,42.884 C110.909997,43.2320017 110.433002,43.5409986 109.922999,43.811 C109.412997,44.0810013 108.870002,44.216 108.293999,44.216 Z M108.437999,43.532 C108.942002,43.532 109.421997,43.4120012 109.877999,43.172 C110.334001,42.9319988 110.831996,42.5840023 111.371999,42.128 L111.371999,39.194 C110.483995,39.3020005 109.734002,39.4339992 109.121999,39.59 C108.509996,39.7460008 108.018001,39.9319989 107.645999,40.148 C107.273997,40.3640011 107.007,40.6099986 106.844999,40.886 C106.682998,41.1620014 106.601999,41.4679983 106.601999,41.804 C106.601999,42.1160016 106.649999,42.3799989 106.745999,42.596 C106.842,42.8120011 106.973998,42.9889993 107.141999,43.127 C107.31,43.2650007 107.504998,43.3669997 107.726999,43.433 C107.949,43.4990003 108.185998,43.532 108.437999,43.532 Z M115.571999,44 L115.571999,43.568 L120.683999,36.044 L116.129999,36.044 L116.129999,35.36 L121.709999,35.36 L121.709999,35.774 L116.615999,43.298 L121.889999,43.298 L121.889999,44 L115.571999,44 Z M133.331999,44.216 C132.803996,44.216 132.318001,44.1350008 131.873999,43.973 C131.429996,43.8109992 131.046,43.5890014 130.721999,43.307 C130.397997,43.0249986 130.143,42.6920019 129.956999,42.308 C129.770998,41.9239981 129.677999,41.5040023 129.677999,41.048 C129.677999,40.6639981 129.746998,40.3040017 129.884999,39.968 C130.022999,39.6319983 130.202998,39.3290013 130.424999,39.059 C130.647,38.7889987 130.892997,38.5490011 131.162999,38.339 C131.433,38.1289989 131.705997,37.9520007 131.981999,37.808 L131.981999,37.736 C131.765998,37.5919993 131.559,37.4330009 131.360999,37.259 C131.162998,37.0849991 130.988999,36.8870011 130.838999,36.665 C130.688998,36.4429989 130.565999,36.2030013 130.469999,35.945 C130.373998,35.6869987 130.325999,35.4020016 130.325999,35.09 C130.325999,34.681998 130.403998,34.3040017 130.559999,33.956 C130.715999,33.6079983 130.928997,33.3110012 131.198999,33.065 C131.469,32.8189988 131.786997,32.6270007 132.152999,32.489 C132.519,32.3509993 132.911997,32.282 133.331999,32.282 C133.824001,32.282 134.261997,32.3569992 134.645999,32.507 C135.030001,32.6570008 135.356997,32.8669986 135.626999,33.137 C135.897,33.4070013 136.100998,33.7249982 136.238999,34.091 C136.376999,34.4570018 136.445999,34.8559978 136.445999,35.288 C136.445999,35.6000016 136.391999,35.9029985 136.283999,36.197 C136.175998,36.4910015 136.040999,36.7639987 135.878999,37.016 C135.716998,37.2680013 135.54,37.495999 135.347999,37.7 C135.155998,37.904001 134.975999,38.0719993 134.807999,38.204 L134.807999,38.276 C135.06,38.4320008 135.305997,38.5999991 135.545999,38.78 C135.786,38.9600009 135.998998,39.1639989 136.184999,39.392 C136.371,39.6200011 136.523998,39.8839985 136.643999,40.184 C136.763999,40.4840015 136.823999,40.8259981 136.823999,41.21 C136.823999,41.6300021 136.739999,42.0229982 136.571999,42.389 C136.403998,42.7550018 136.167,43.0729987 135.860999,43.343 C135.554997,43.6130013 135.186001,43.8259992 134.753999,43.982 C134.321996,44.1380008 133.848001,44.216 133.331999,44.216 Z M134.177999,37.97 C134.670001,37.573998 135.044997,37.1570022 135.302999,36.719 C135.561,36.2809978 135.689999,35.8100025 135.689999,35.306 C135.689999,34.9819984 135.635999,34.6790014 135.527999,34.397 C135.419998,34.1149986 135.267,33.8660011 135.068999,33.65 C134.870998,33.4339989 134.625,33.2630006 134.330999,33.137 C134.036997,33.0109994 133.704001,32.948 133.331999,32.948 C133.007997,32.948 132.711,33.0019995 132.440999,33.11 C132.170997,33.2180005 131.937,33.3649991 131.738999,33.551 C131.540998,33.7370009 131.387999,33.9619987 131.279999,34.226 C131.171998,34.4900013 131.117999,34.7779984 131.117999,35.09 C131.117999,35.498002 131.204998,35.8489985 131.378999,36.143 C131.553,36.4370015 131.783997,36.6949989 132.071999,36.917 C132.36,37.1390011 132.686997,37.3339992 133.052999,37.502 C133.419,37.6700008 133.793997,37.8259993 134.177999,37.97 Z M133.331999,43.55 C133.740001,43.55 134.108997,43.4900006 134.438999,43.37 C134.769,43.2499994 135.050997,43.0820011 135.284999,42.866 C135.519,42.6499989 135.698998,42.3980014 135.824999,42.11 C135.950999,41.8219986 136.013999,41.5160016 136.013999,41.192 C136.013999,40.7479978 135.915,40.3730015 135.716999,40.067 C135.518998,39.7609985 135.255,39.4910012 134.924999,39.257 C134.594997,39.0229988 134.220001,38.8190009 133.799999,38.645 C133.379997,38.4709991 132.948001,38.2940009 132.503999,38.114 C131.915996,38.4620017 131.430001,38.8729976 131.045999,39.347 C130.661997,39.8210024 130.469999,40.3759968 130.469999,41.012 C130.469999,41.3720018 130.541998,41.7049985 130.685999,42.011 C130.829999,42.3170015 131.027997,42.5839989 131.279999,42.812 C131.532,43.0400011 131.831997,43.2199993 132.179999,43.352 C132.528,43.4840007 132.911997,43.55 133.331999,43.55 Z M143.165998,44.216 C142.709996,44.216 142.299,44.1710005 141.932998,44.081 C141.566997,43.9909995 141.237,43.8710007 140.942998,43.721 C140.648997,43.5709992 140.388,43.4030009 140.159998,43.217 C139.931997,43.0309991 139.727999,42.8480009 139.547998,42.668 L139.997998,42.11 C140.165999,42.2900009 140.351997,42.4639992 140.555998,42.632 C140.76,42.8000008 140.987997,42.9499993 141.239998,43.082 C141.492,43.2140007 141.773997,43.3189996 142.085998,43.397 C142.398,43.4750004 142.751997,43.514 143.147998,43.514 C143.532,43.514 143.897997,43.4390007 144.245998,43.289 C144.594,43.1389992 144.896997,42.9290014 145.154998,42.659 C145.413,42.3889986 145.619998,42.0650019 145.775998,41.687 C145.931999,41.3089981 146.009998,40.8860023 146.009998,40.418 C146.009998,39.4819953 145.758001,38.7530026 145.253998,38.231 C144.749996,37.7089974 144.066003,37.448 143.201998,37.448 C142.757996,37.448 142.377,37.5169993 142.058998,37.655 C141.740997,37.7930007 141.408,37.9819988 141.059998,38.222 L140.501998,37.88 L140.915998,32.498 L146.225998,32.498 L146.225998,33.2 L141.635998,33.2 L141.275998,37.358 C141.576,37.1779991 141.887997,37.0310006 142.211998,36.917 C142.536,36.8029994 142.907996,36.746 143.327998,36.746 C143.808001,36.746 144.263996,36.8179993 144.695998,36.962 C145.128001,37.1060007 145.499997,37.3249985 145.811998,37.619 C146.124,37.9130015 146.372998,38.2909977 146.558998,38.753 C146.744999,39.2150023 146.837998,39.7579969 146.837998,40.382 C146.837998,40.9940031 146.733,41.5369976 146.522998,42.011 C146.312997,42.4850024 146.037,42.8869984 145.694998,43.217 C145.352997,43.5470017 144.963001,43.7959992 144.524998,43.964 C144.086996,44.1320008 143.634001,44.216 143.165998,44.216 Z M149.939998,44 L149.939998,43.496 C150.888003,42.5359952 151.715995,41.6750038 152.423998,40.913 C153.132002,40.1509962 153.722996,39.4550032 154.196998,38.825 C154.671001,38.1949969 155.024997,37.6130027 155.258998,37.079 C155.493,36.5449973 155.609998,36.0260025 155.609998,35.522 C155.609998,34.8019964 155.409,34.1960025 155.006998,33.704 C154.604996,33.2119975 153.972003,32.966 153.107998,32.966 C152.579996,32.966 152.088001,33.1099986 151.631998,33.398 C151.175996,33.6860014 150.774,34.0459978 150.425998,34.478 L149.903998,33.974 C150.336001,33.4939976 150.812996,33.0920016 151.334998,32.768 C151.857001,32.4439984 152.471995,32.282 153.179998,32.282 C154.212004,32.282 155.009996,32.5759971 155.573998,33.164 C156.138001,33.7520029 156.419998,34.5319951 156.419998,35.504 C156.419998,36.0800029 156.294,36.6529971 156.041998,37.223 C155.789997,37.7930028 155.436001,38.3929969 154.979998,39.023 C154.523996,39.6530031 153.969002,40.3249964 153.314998,41.039 C152.660995,41.7530036 151.938002,42.5299958 151.145998,43.37 C151.458,43.3459999 151.778997,43.3250001 152.108998,43.307 C152.439,43.2889999 152.759997,43.28 153.071998,43.28 L156.995998,43.28 L156.995998,44 L149.939998,44 Z M163.697998,44.216 C163.169996,44.216 162.684,44.1350008 162.239998,43.973 C161.795996,43.8109992 161.412,43.5890014 161.087998,43.307 C160.763997,43.0249986 160.508999,42.6920019 160.322998,42.308 C160.136997,41.9239981 160.043998,41.5040023 160.043998,41.048 C160.043998,40.6639981 160.112998,40.3040017 160.250998,39.968 C160.388999,39.6319983 160.568997,39.3290013 160.790998,39.059 C161.012999,38.7889987 161.258997,38.5490011 161.528998,38.339 C161.799,38.1289989 162.071997,37.9520007 162.347998,37.808 L162.347998,37.736 C162.131997,37.5919993 161.924999,37.4330009 161.726998,37.259 C161.528997,37.0849991 161.354999,36.8870011 161.204998,36.665 C161.054997,36.4429989 160.931999,36.2030013 160.835998,35.945 C160.739998,35.6869987 160.691998,35.4020016 160.691998,35.09 C160.691998,34.681998 160.769997,34.3040017 160.925998,33.956 C161.081999,33.6079983 161.294997,33.3110012 161.564998,33.065 C161.835,32.8189988 162.152996,32.6270007 162.518998,32.489 C162.885,32.3509993 163.277996,32.282 163.697998,32.282 C164.190001,32.282 164.627996,32.3569992 165.011998,32.507 C165.396,32.6570008 165.722997,32.8669986 165.992998,33.137 C166.263,33.4070013 166.466998,33.7249982 166.604998,34.091 C166.742999,34.4570018 166.811998,34.8559978 166.811998,35.288 C166.811998,35.6000016 166.757999,35.9029985 166.649998,36.197 C166.541998,36.4910015 166.406999,36.7639987 166.244998,37.016 C166.082997,37.2680013 165.905999,37.495999 165.713998,37.7 C165.521997,37.904001 165.341999,38.0719993 165.173998,38.204 L165.173998,38.276 C165.425999,38.4320008 165.671997,38.5999991 165.911998,38.78 C166.151999,38.9600009 166.364997,39.1639989 166.550998,39.392 C166.736999,39.6200011 166.889998,39.8839985 167.009998,40.184 C167.129999,40.4840015 167.189998,40.8259981 167.189998,41.21 C167.189998,41.6300021 167.105999,42.0229982 166.937998,42.389 C166.769997,42.7550018 166.533,43.0729987 166.226998,43.343 C165.920997,43.6130013 165.552,43.8259992 165.119998,43.982 C164.687996,44.1380008 164.214001,44.216 163.697998,44.216 Z M164.543998,37.97 C165.036001,37.573998 165.410997,37.1570022 165.668998,36.719 C165.926999,36.2809978 166.055998,35.8100025 166.055998,35.306 C166.055998,34.9819984 166.001999,34.6790014 165.893998,34.397 C165.785998,34.1149986 165.632999,33.8660011 165.434998,33.65 C165.236997,33.4339989 164.991,33.2630006 164.696998,33.137 C164.402997,33.0109994 164.07,32.948 163.697998,32.948 C163.373997,32.948 163.077,33.0019995 162.806998,33.11 C162.536997,33.2180005 162.302999,33.3649991 162.104998,33.551 C161.906997,33.7370009 161.753999,33.9619987 161.645998,34.226 C161.537998,34.4900013 161.483998,34.7779984 161.483998,35.09 C161.483998,35.498002 161.570997,35.8489985 161.744998,36.143 C161.918999,36.4370015 162.149997,36.6949989 162.437998,36.917 C162.726,37.1390011 163.052996,37.3339992 163.418998,37.502 C163.785,37.6700008 164.159996,37.8259993 164.543998,37.97 Z M163.697998,43.55 C164.106,43.55 164.474997,43.4900006 164.804998,43.37 C165.135,43.2499994 165.416997,43.0820011 165.650998,42.866 C165.884999,42.6499989 166.064998,42.3980014 166.190998,42.11 C166.316999,41.8219986 166.379998,41.5160016 166.379998,41.192 C166.379998,40.7479978 166.280999,40.3730015 166.082998,40.067 C165.884997,39.7609985 165.621,39.4910012 165.290998,39.257 C164.960997,39.0229988 164.586,38.8190009 164.165998,38.645 C163.745996,38.4709991 163.314,38.2940009 162.869998,38.114 C162.281995,38.4620017 161.796,38.8729976 161.411998,39.347 C161.027996,39.8210024 160.835998,40.3759968 160.835998,41.012 C160.835998,41.3720018 160.907997,41.7049985 161.051998,42.011 C161.195999,42.3170015 161.393997,42.5839989 161.645998,42.812 C161.897999,43.0400011 162.197996,43.2199993 162.545998,43.352 C162.894,43.4840007 163.277996,43.55 163.697998,43.55 Z M170.183998,44 L170.183998,43.496 C171.132003,42.5359952 171.959995,41.6750038 172.667998,40.913 C173.376002,40.1509962 173.966996,39.4550032 174.440998,38.825 C174.915,38.1949969 175.268997,37.6130027 175.502998,37.079 C175.736999,36.5449973 175.853998,36.0260025 175.853998,35.522 C175.853998,34.8019964 175.653,34.1960025 175.250998,33.704 C174.848996,33.2119975 174.216002,32.966 173.351998,32.966 C172.823995,32.966 172.332,33.1099986 171.875998,33.398 C171.419996,33.6860014 171.018,34.0459978 170.669998,34.478 L170.147998,33.974 C170.58,33.4939976 171.056995,33.0920016 171.578998,32.768 C172.101001,32.4439984 172.715995,32.282 173.423998,32.282 C174.456003,32.282 175.253995,32.5759971 175.817998,33.164 C176.382001,33.7520029 176.663998,34.5319951 176.663998,35.504 C176.663998,36.0800029 176.537999,36.6529971 176.285998,37.223 C176.033997,37.7930028 175.68,38.3929969 175.223998,39.023 C174.767996,39.6530031 174.213001,40.3249964 173.558998,41.039 C172.904995,41.7530036 172.182002,42.5299958 171.389998,43.37 C171.702,43.3459999 172.022996,43.3250001 172.352998,43.307 C172.683,43.2889999 173.003996,43.28 173.315998,43.28 L177.239998,43.28 L177.239998,44 L170.183998,44 Z" id="Tempe-az-85282" fill="#424242"></path>
                </g>
                <g id="Group-2" transform="translate(45.000000, 123.000000)">
                    <path d="M30,3 C30,1.343 28.657,0 27,0 L3,0 C1.343,0 0,1.343 0,3 L0,19 C0,20.657 1.343,22 3,22 L27,22 C28.657,22 30,20.657 30,19 L30,3 L30,3 Z M28,5.475 L15,13.475 L2,5.475 L2,2.475 L15,10.239 L28,2.475 L28,5.475 L28,5.475 Z" id="Shape" fill="#805278"></path>
                    <path d="M42,15.942 L42,7.302 L42.684,7.302 L42.756,8.634 L42.81,8.634 C43.1940019,8.18999778 43.6229976,7.82100147 44.097,7.527 C44.5710024,7.23299853 45.0479976,7.086 45.528,7.086 C46.2240035,7.086 46.7579981,7.24499841 47.13,7.563 C47.5020019,7.88100159 47.7659992,8.3099973 47.922,8.85 C48.4260025,8.3099973 48.9149976,7.88100159 49.389,7.563 C49.8630024,7.24499841 50.3519975,7.086 50.856,7.086 C52.5840086,7.086 53.448,8.18998896 53.448,10.398 L53.448,15.942 L52.638,15.942 L52.638,10.506 C52.638,9.58199538 52.4820016,8.90100219 52.17,8.463 C51.8579984,8.02499781 51.3720033,7.806 50.712,7.806 C49.9319961,7.806 49.0680047,8.3459946 48.12,9.426 L48.12,15.942 L47.328,15.942 L47.328,10.506 C47.328,9.58199538 47.1720016,8.90100219 46.86,8.463 C46.5479984,8.02499781 46.0560034,7.806 45.384,7.806 C44.6039961,7.806 43.7400047,8.3459946 42.792,9.426 L42.792,15.942 L42,15.942 Z M60.0059999,16.158 C59.6579982,16.158 59.3340014,16.1100005 59.0339999,16.014 C58.7339984,15.9179995 58.4700011,15.774001 58.2419999,15.582 C58.0139988,15.389999 57.8340006,15.1440015 57.7019999,14.844 C57.5699993,14.5439985 57.5039999,14.190002 57.5039999,13.782 C57.5039999,12.8219952 57.9509954,12.0930025 58.8449999,11.595 C59.7390044,11.0969975 61.1519903,10.7400011 63.0839999,10.524 C63.0839999,10.1999984 63.0600002,9.87300165 63.0119999,9.543 C62.9639997,9.21299835 62.8620007,8.91900129 62.7059999,8.661 C62.5499991,8.40299871 62.3400012,8.19300081 62.0759999,8.031 C61.8119986,7.86899919 61.4640021,7.788 61.0319999,7.788 C60.455997,7.788 59.9280023,7.90199886 59.4479999,8.13 C58.9679975,8.35800114 58.5780014,8.57999892 58.2779999,8.796 L57.9179999,8.202 C58.0740007,8.09399946 58.2629988,7.97400066 58.4849999,7.842 C58.707001,7.70999934 58.9559985,7.59000054 59.2319999,7.482 C59.5080013,7.37399946 59.8079983,7.28100039 60.1319999,7.203 C60.4560015,7.12499961 60.7919982,7.086 61.1399999,7.086 C61.6440024,7.086 62.0699982,7.17299913 62.4179999,7.347 C62.7660017,7.52100087 63.0479988,7.7579985 63.2639999,8.058 C63.480001,8.3580015 63.6359994,8.70899799 63.7319999,9.111 C63.8280004,9.51300201 63.8759999,9.94799766 63.8759999,10.416 L63.8759999,15.942 L63.1919999,15.942 L63.1199999,14.826 L63.0659999,14.826 C62.6219977,15.1740017 62.1450025,15.4829986 61.6349999,15.753 C61.1249974,16.0230013 60.5820028,16.158 60.0059999,16.158 Z M60.1499999,15.474 C60.6540024,15.474 61.1339976,15.3540012 61.5899999,15.114 C62.0460022,14.8739988 62.5439972,14.5260023 63.0839999,14.07 L63.0839999,11.136 C62.1959955,11.2440005 61.446003,11.3759992 60.8339999,11.532 C60.2219969,11.6880008 59.7300018,11.8739989 59.3579999,12.09 C58.9859981,12.3060011 58.7190007,12.5519986 58.5569999,12.828 C58.3949991,13.1040014 58.3139999,13.4099983 58.3139999,13.746 C58.3139999,14.0580016 58.3619994,14.3219989 58.4579999,14.538 C58.5540004,14.7540011 58.6859991,14.9309993 58.8539999,15.069 C59.0220008,15.2070007 59.2169988,15.3089997 59.4389999,15.375 C59.661001,15.4410003 59.8979987,15.474 60.1499999,15.474 Z M68.4539998,15.942 L68.4539998,7.302 L69.1379998,7.302 L69.2099998,8.634 L69.2639998,8.634 C69.708002,8.18999778 70.1639975,7.82100147 70.6319998,7.527 C71.1000022,7.23299853 71.6339968,7.086 72.2339998,7.086 C73.1340043,7.086 73.7939977,7.3559973 74.2139998,7.896 C74.6340019,8.4360027 74.8439998,9.26999436 74.8439998,10.398 L74.8439998,15.942 L74.0519998,15.942 L74.0519998,10.506 C74.0519998,9.58199538 73.8990014,8.90100219 73.5929998,8.463 C73.2869983,8.02499781 72.7800034,7.806 72.0719998,7.806 C71.5559972,7.806 71.0880019,7.94099865 70.6679998,8.211 C70.2479977,8.48100135 69.7740025,8.8859973 69.2459998,9.426 L69.2459998,15.942 L68.4539998,15.942 Z M82.3919997,16.158 C81.2999943,16.158 80.430003,15.7710039 79.7819997,14.997 C79.1339965,14.2229961 78.8099997,13.1040073 78.8099997,11.64 C78.8099997,10.9439965 78.9119987,10.3140028 79.1159997,9.75 C79.3200008,9.18599718 79.598998,8.70600198 79.9529997,8.31 C80.3070015,7.91399802 80.7149974,7.61100105 81.1769997,7.401 C81.639002,7.19099895 82.1279972,7.086 82.6439997,7.086 C83.1720024,7.086 83.6309978,7.17899907 84.0209997,7.365 C84.4110017,7.55100093 84.8219976,7.81199832 85.2539997,8.148 L85.2179997,6.564 L85.2179997,3 L86.0099997,3 L86.0099997,15.942 L85.3259997,15.942 L85.2539997,14.826 L85.1999997,14.826 C84.851998,15.1740017 84.4410021,15.4829986 83.9669997,15.753 C83.4929974,16.0230013 82.9680026,16.158 82.3919997,16.158 Z M82.4999997,15.456 C82.9800021,15.456 83.4389975,15.3330012 83.8769997,15.087 C84.3150019,14.8409988 84.7619975,14.4900023 85.2179997,14.034 L85.2179997,8.904 C84.7619975,8.49599796 84.3330017,8.20800084 83.9309997,8.04 C83.5289977,7.87199916 83.1180018,7.788 82.6979997,7.788 C82.2659976,7.788 81.8640016,7.88699901 81.4919997,8.085 C81.1199979,8.28300099 80.7990011,8.55299829 80.5289997,8.895 C80.2589984,9.23700171 80.0460005,9.64499763 79.8899997,10.119 C79.733999,10.5930024 79.6559997,11.0999973 79.6559997,11.64 C79.6559997,12.2160029 79.7189991,12.7379977 79.8449997,13.206 C79.9710004,13.6740023 80.1539985,14.0729983 80.3939997,14.403 C80.6340009,14.7330016 80.930998,14.9909991 81.2849997,15.177 C81.6390015,15.3630009 82.0439975,15.456 82.4999997,15.456 Z M90.4799996,19.884 C90.155998,19.884 89.862001,19.8240006 89.5979996,19.704 L89.7779996,19.002 C89.8740001,19.0380002 89.981999,19.0709998 90.1019996,19.101 C90.2220002,19.1310001 90.347999,19.146 90.4799996,19.146 C91.0200023,19.146 91.4699978,18.9300022 91.8299996,18.498 C92.1900014,18.0659978 92.4779986,17.5200033 92.6939996,16.86 L92.9279996,16.104 L89.3819996,7.302 L90.2459996,7.302 L92.3339996,12.738 C92.4660003,13.0980018 92.6129988,13.4939978 92.7749996,13.926 C92.9370005,14.3580022 93.1019988,14.7659981 93.2699996,15.15 L93.3419996,15.15 C93.4740003,14.7659981 93.608999,14.3580022 93.7469996,13.926 C93.8850003,13.4939978 94.013999,13.0980018 94.1339996,12.738 L95.9879996,7.302 L96.7979996,7.302 L93.3779996,17.022 C93.257999,17.3820018 93.1110005,17.7359983 92.9369996,18.084 C92.7629988,18.4320017 92.5590008,18.7379987 92.3249996,19.002 C92.0909985,19.2660013 91.8210012,19.4789992 91.5149996,19.641 C91.2089981,19.8030008 90.8640016,19.884 90.4799996,19.884 Z M102.258,16.158 C101.609996,16.158 101.016002,16.0410012 100.476,15.807 C99.9359969,15.5729988 99.4740015,15.2940016 99.0899996,14.97 L99.5579996,14.376 C99.9300014,14.6880016 100.325997,14.948999 100.746,15.159 C101.166002,15.369001 101.687996,15.474 102.312,15.474 C102.996003,15.474 103.508998,15.3030017 103.851,14.961 C104.193001,14.6189983 104.364,14.2200023 104.364,13.764 C104.364,13.4999987 104.301,13.266001 104.175,13.062 C104.048999,12.857999 103.884001,12.6840007 103.68,12.54 C103.475999,12.3959993 103.251001,12.2700005 103.005,12.162 C102.758998,12.0539995 102.510001,11.9520005 102.258,11.856 C101.933998,11.7359994 101.607001,11.6100007 101.277,11.478 C100.946998,11.3459993 100.650001,11.1870009 100.386,11.001 C100.121998,10.8149991 99.9090004,10.5930013 99.7469996,10.335 C99.5849987,10.0769987 99.5039996,9.76200186 99.5039996,9.39 C99.5039996,9.07799844 99.563999,8.78100141 99.6839996,8.499 C99.8040002,8.21699859 99.9839984,7.97100105 100.224,7.761 C100.464001,7.55099895 100.754998,7.3860006 101.097,7.266 C101.439001,7.1459994 101.837997,7.086 102.294,7.086 C102.750002,7.086 103.196997,7.16999916 103.635,7.338 C104.073002,7.50600084 104.447998,7.72199868 104.76,7.986 L104.328,8.544 C104.039998,8.32799892 103.734001,8.14500075 103.41,7.995 C103.085998,7.84499925 102.702002,7.77 102.258,7.77 C101.921998,7.77 101.634001,7.81499955 101.394,7.905 C101.153998,7.99500045 100.953,8.11199928 100.791,8.256 C100.628999,8.40000072 100.509,8.56799904 100.431,8.76 C100.352999,8.95200096 100.314,9.14399904 100.314,9.336 C100.314,9.58800126 100.370999,9.80099913 100.485,9.975 C100.599,10.1490009 100.751999,10.3019993 100.944,10.434 C101.136001,10.5660007 101.354998,10.6829995 101.601,10.785 C101.847001,10.8870005 102.095998,10.9859995 102.348,11.082 L103.356,11.478 C103.692001,11.6100007 103.994998,11.771999 104.265,11.964 C104.535001,12.156001 104.753999,12.3929986 104.922,12.675 C105.09,12.9570014 105.174,13.3079979 105.174,13.728 C105.174,14.0520016 105.111,14.3609985 104.985,14.655 C104.858999,14.9490015 104.670001,15.2069989 104.418,15.429 C104.165998,15.6510011 103.860001,15.8279993 103.5,15.96 C103.139998,16.0920007 102.726002,16.158 102.258,16.158 Z M114.287999,18.57 C113.423995,18.57 112.623003,18.4290014 111.884999,18.147 C111.146996,17.8649986 110.508002,17.4570027 109.967999,16.923 C109.427997,16.3889973 109.005001,15.7350039 108.698999,14.961 C108.392998,14.1869961 108.239999,13.302005 108.239999,12.306 C108.239999,11.1299941 108.434998,10.0650048 108.824999,9.111 C109.215001,8.15699523 109.736996,7.34100339 110.390999,6.663 C111.045003,5.98499661 111.803995,5.46300183 112.667999,5.097 C113.532004,4.73099817 114.437995,4.548 115.385999,4.548 C116.250004,4.548 117.032996,4.68599862 117.734999,4.962 C118.437003,5.23800138 119.030997,5.62499751 119.516999,6.123 C120.003002,6.62100249 120.377998,7.22099649 120.641999,7.923 C120.906001,8.62500351 121.037999,9.40199574 121.037999,10.254 C121.037999,11.0220038 120.936,11.6969971 120.731999,12.279 C120.527998,12.8610029 120.264001,13.349998 119.939999,13.746 C119.615998,14.142002 119.259001,14.438999 118.868999,14.637 C118.478998,14.835001 118.098001,14.934 117.725999,14.934 C117.245997,14.934 116.847001,14.8230011 116.528999,14.601 C116.210998,14.3789989 116.028,14.0340023 115.979999,13.566 L115.943999,13.566 C115.631998,13.9140017 115.293001,14.2109988 114.926999,14.457 C114.560998,14.7030012 114.168002,14.826 113.747999,14.826 C113.471998,14.826 113.208001,14.7750005 112.955999,14.673 C112.703998,14.5709995 112.485,14.418001 112.298999,14.214 C112.112999,14.009999 111.966,13.7550015 111.857999,13.449 C111.749999,13.1429985 111.695999,12.786002 111.695999,12.378 C111.695999,11.9459978 111.770999,11.4900024 111.920999,11.01 C112.071,10.5299976 112.289998,10.092002 112.577999,9.696 C112.866001,9.29999802 113.216997,8.97300129 113.630999,8.715 C114.045002,8.45699871 114.515997,8.328 115.043999,8.328 C115.680003,8.328 116.177998,8.61599712 116.537999,9.192 L116.573999,9.192 L116.735999,8.472 L117.347999,8.472 L116.699999,11.874 C116.291997,13.4940081 116.651994,14.304 117.779999,14.304 C118.068001,14.304 118.364998,14.2140009 118.670999,14.034 C118.977001,13.8539991 119.252998,13.5930017 119.498999,13.251 C119.745001,12.9089983 119.948999,12.4920025 120.110999,12 C120.273,11.5079975 120.353999,10.9440032 120.353999,10.308 C120.353999,9.53999616 120.237001,8.83800318 120.002999,8.202 C119.768998,7.56599682 119.436002,7.02600222 119.003999,6.582 C118.571997,6.13799778 118.047003,5.79300123 117.428999,5.547 C116.810996,5.30099877 116.112003,5.178 115.331999,5.178 C114.503995,5.178 113.706003,5.34599832 112.937999,5.682 C112.169996,6.01800168 111.489002,6.49499691 110.894999,7.113 C110.300996,7.73100309 109.824001,8.47499565 109.463999,9.345 C109.103998,10.2150043 108.923999,11.1839947 108.923999,12.252 C108.923999,13.1280044 109.055998,13.9169965 109.319999,14.619 C109.584001,15.3210035 109.952997,15.9149976 110.426999,16.401 C110.901002,16.8870024 111.470996,17.2619987 112.136999,17.526 C112.803003,17.7900013 113.537995,17.922 114.341999,17.922 C114.942002,17.922 115.487997,17.8440008 115.979999,17.688 C116.472002,17.5319992 116.933997,17.3220013 117.365999,17.058 L117.653999,17.598 C116.621994,18.2460032 115.500006,18.57 114.287999,18.57 Z M113.855999,14.178 C114.456002,14.178 115.103996,13.776004 115.799999,12.972 L116.357999,9.858 C116.141998,9.52199832 115.935,9.29100063 115.736999,9.165 C115.538998,9.03899937 115.302001,8.976 115.025999,8.976 C114.617997,8.976 114.252001,9.08099895 113.927999,9.291 C113.603998,9.50100105 113.331001,9.76799838 113.108999,10.092 C112.886998,10.4160016 112.716,10.775998 112.595999,11.172 C112.475999,11.568002 112.415999,11.9519981 112.415999,12.324 C112.415999,13.0080034 112.553998,13.4879986 112.829999,13.764 C113.106001,14.0400014 113.447997,14.178 113.855999,14.178 Z M127.937999,20.1 C126.845994,20.1 125.982003,19.8840022 125.345999,19.452 C124.709996,19.0199978 124.391999,18.4380037 124.391999,17.706 C124.391999,17.3219981 124.505998,16.9500018 124.733999,16.59 C124.962001,16.2299982 125.273997,15.9060014 125.669999,15.618 L125.669999,15.546 C125.453998,15.4139993 125.274,15.2340011 125.129999,15.006 C124.985999,14.7779989 124.913999,14.4960017 124.913999,14.16 C124.913999,13.7759981 125.021998,13.4490013 125.237999,13.179 C125.454,12.9089986 125.657998,12.7080007 125.849999,12.576 L125.849999,12.504 C125.573998,12.2639988 125.325,11.940002 125.102999,11.532 C124.880998,11.123998 124.769999,10.6560026 124.769999,10.128 C124.769999,9.68399778 124.847999,9.27600186 125.003999,8.904 C125.16,8.53199814 125.375998,8.21100135 125.651999,7.941 C125.928001,7.67099865 126.251998,7.46100075 126.623999,7.311 C126.996001,7.16099925 127.391997,7.086 127.811999,7.086 C128.052001,7.086 128.267998,7.10699979 128.459999,7.149 C128.652,7.19100021 128.813999,7.2419997 128.945999,7.302 L131.879999,7.302 L131.879999,7.968 L129.863999,7.968 C130.140001,8.2080012 130.367998,8.51699811 130.547999,8.895 C130.728,9.27300189 130.817999,9.68999772 130.817999,10.146 C130.817999,10.5900022 130.74,10.9979981 130.583999,11.37 C130.427999,11.7420019 130.215001,12.0629986 129.944999,12.333 C129.674998,12.6030013 129.357001,12.8129992 128.990999,12.963 C128.624998,13.1130007 128.232001,13.188 127.811999,13.188 C127.571998,13.188 127.323001,13.1580003 127.064999,13.098 C126.806998,13.0379997 126.576,12.9480006 126.371999,12.828 C126.179998,12.9840008 126.015,13.157999 125.876999,13.35 C125.738999,13.542001 125.669999,13.7819986 125.669999,14.07 C125.669999,14.3820016 125.783998,14.6489989 126.011999,14.871 C126.240001,15.0930011 126.677996,15.204 127.325999,15.204 L129.179999,15.204 C130.152004,15.204 130.868997,15.3629984 131.330999,15.681 C131.793002,15.9990016 132.023999,16.4999966 132.023999,17.184 C132.023999,17.5560019 131.928,17.9189982 131.735999,18.273 C131.543998,18.6270018 131.271001,18.9389986 130.916999,19.209 C130.562998,19.4790013 130.134002,19.6949992 129.629999,19.857 C129.125997,20.0190008 128.562002,20.1 127.937999,20.1 Z M127.811999,12.558 C128.112001,12.558 128.396998,12.5010006 128.666999,12.387 C128.937001,12.2729994 129.173998,12.1080011 129.377999,11.892 C129.582,11.6759989 129.743999,11.4180015 129.863999,11.118 C129.984,10.8179985 130.043999,10.4880018 130.043999,10.128 C130.043999,9.7679982 129.984,9.4380015 129.863999,9.138 C129.743999,8.8379985 129.585,8.58600102 129.386999,8.382 C129.188998,8.17799898 128.952001,8.01900057 128.675999,7.905 C128.399998,7.79099943 128.112001,7.734 127.811999,7.734 C127.499998,7.734 127.209001,7.79099943 126.938999,7.905 C126.668998,8.01900057 126.432,8.17799898 126.227999,8.382 C126.023998,8.58600102 125.862,8.83499853 125.741999,9.129 C125.621999,9.42300147 125.561999,9.75599814 125.561999,10.128 C125.561999,10.4880018 125.621999,10.8179985 125.741999,11.118 C125.862,11.4180015 126.026998,11.6759989 126.236999,11.892 C126.447,12.1080011 126.686998,12.2729994 126.956999,12.387 C127.227001,12.5010006 127.511998,12.558 127.811999,12.558 Z M128.027999,19.452 C128.508002,19.452 128.945997,19.3890006 129.341999,19.263 C129.738001,19.1369994 130.073998,18.972001 130.349999,18.768 C130.626001,18.563999 130.838999,18.3330013 130.988999,18.075 C131.139,17.8169987 131.213999,17.5500014 131.213999,17.274 C131.213999,16.7939976 131.043001,16.455001 130.700999,16.257 C130.358998,16.058999 129.864003,15.96 129.215999,15.96 L127.361999,15.96 C127.265999,15.96 127.119,15.9510001 126.920999,15.933 C126.722998,15.9149999 126.510001,15.8760003 126.281999,15.816 C125.885997,16.0920014 125.598,16.3859984 125.417999,16.698 C125.237998,17.0100016 125.147999,17.3219984 125.147999,17.634 C125.147999,18.1740027 125.396997,18.6119983 125.894999,18.948 C126.393002,19.2840017 127.103995,19.452 128.027999,19.452 Z M135.377999,15.942 L135.377999,7.302 L136.061999,7.302 L136.133999,8.634 L136.187999,8.634 C136.572001,8.18999778 137.000997,7.82100147 137.474999,7.527 C137.949002,7.23299853 138.425997,7.086 138.905999,7.086 C139.602003,7.086 140.135997,7.24499841 140.507999,7.563 C140.880001,7.88100159 141.143999,8.3099973 141.299999,8.85 C141.804002,8.3099973 142.292997,7.88100159 142.766999,7.563 C143.241002,7.24499841 143.729997,7.086 144.233999,7.086 C145.962008,7.086 146.825999,8.18998896 146.825999,10.398 L146.825999,15.942 L146.015999,15.942 L146.015999,10.506 C146.015999,9.58199538 145.860001,8.90100219 145.547999,8.463 C145.235998,8.02499781 144.750003,7.806 144.089999,7.806 C143.309995,7.806 142.446004,8.3459946 141.497999,9.426 L141.497999,15.942 L140.705999,15.942 L140.705999,10.506 C140.705999,9.58199538 140.550001,8.90100219 140.237999,8.463 C139.925998,8.02499781 139.434003,7.806 138.761999,7.806 C137.981995,7.806 137.118004,8.3459946 136.169999,9.426 L136.169999,15.942 L135.377999,15.942 Z M153.383999,16.158 C153.035997,16.158 152.712001,16.1100005 152.411999,16.014 C152.111998,15.9179995 151.848,15.774001 151.619999,15.582 C151.391998,15.389999 151.212,15.1440015 151.079999,14.844 C150.947999,14.5439985 150.881999,14.190002 150.881999,13.782 C150.881999,12.8219952 151.328995,12.0930025 152.222999,11.595 C153.117004,11.0969975 154.52999,10.7400011 156.461999,10.524 C156.461999,10.1999984 156.437999,9.87300165 156.389999,9.543 C156.341999,9.21299835 156.24,8.91900129 156.083999,8.661 C155.927998,8.40299871 155.718001,8.19300081 155.453999,8.031 C155.189998,7.86899919 154.842001,7.788 154.409999,7.788 C153.833996,7.788 153.306002,7.90199886 152.825999,8.13 C152.345997,8.35800114 151.956001,8.57999892 151.655999,8.796 L151.295999,8.202 C151.452,8.09399946 151.640998,7.97400066 151.862999,7.842 C152.085,7.70999934 152.333998,7.59000054 152.609999,7.482 C152.886001,7.37399946 153.185998,7.28100039 153.509999,7.203 C153.834001,7.12499961 154.169997,7.086 154.517999,7.086 C155.022002,7.086 155.447997,7.17299913 155.795999,7.347 C156.144001,7.52100087 156.425998,7.7579985 156.641999,8.058 C156.858,8.3580015 157.013999,8.70899799 157.109999,9.111 C157.206,9.51300201 157.253999,9.94799766 157.253999,10.416 L157.253999,15.942 L156.569999,15.942 L156.497999,14.826 L156.443999,14.826 C155.999997,15.1740017 155.523002,15.4829986 155.012999,15.753 C154.502997,16.0230013 153.960002,16.158 153.383999,16.158 Z M153.527999,15.474 C154.032002,15.474 154.511997,15.3540012 154.967999,15.114 C155.424001,14.8739988 155.921996,14.5260023 156.461999,14.07 L156.461999,11.136 C155.573995,11.2440005 154.824002,11.3759992 154.211999,11.532 C153.599996,11.6880008 153.108001,11.8739989 152.735999,12.09 C152.363997,12.3060011 152.097,12.5519986 151.934999,12.828 C151.772998,13.1040014 151.691999,13.4099983 151.691999,13.746 C151.691999,14.0580016 151.739999,14.3219989 151.835999,14.538 C151.932,14.7540011 152.063998,14.9309993 152.231999,15.069 C152.4,15.2070007 152.594998,15.3089997 152.816999,15.375 C153.039,15.4410003 153.275998,15.474 153.527999,15.474 Z M161.831999,15.942 L161.831999,7.302 L162.623999,7.302 L162.623999,15.942 L161.831999,15.942 Z M162.245999,5.214 C162.041998,5.214 161.871,5.14800066 161.732999,5.016 C161.594998,4.88399934 161.525999,4.71600102 161.525999,4.512 C161.525999,4.28399886 161.594998,4.10700063 161.732999,3.981 C161.871,3.85499937 162.041998,3.792 162.245999,3.792 C162.45,3.792 162.620998,3.85499937 162.758999,3.981 C162.897,4.10700063 162.965999,4.28399886 162.965999,4.512 C162.965999,4.71600102 162.897,4.88399934 162.758999,5.016 C162.620998,5.14800066 162.45,5.214 162.245999,5.214 Z M168.515999,16.158 C167.807995,16.158 167.453999,15.7020046 167.453999,14.79 L167.453999,3 L168.245999,3 L168.245999,14.898 C168.245999,15.090001 168.281999,15.2309995 168.353999,15.321 C168.425999,15.4110004 168.515998,15.456 168.623999,15.456 L168.740999,15.456 C168.782999,15.456 168.851999,15.4440001 168.947999,15.42 L169.091999,16.068 C169.007999,16.0920001 168.923999,16.1129999 168.839999,16.131 C168.755999,16.1490001 168.648,16.158 168.515999,16.158 Z M173.543999,16.158 C173.339998,16.158 173.16,16.0860007 173.003999,15.942 C172.847998,15.7979993 172.769999,15.6000013 172.769999,15.348 C172.769999,15.0839987 172.847998,14.8800007 173.003999,14.736 C173.16,14.5919993 173.339998,14.52 173.543999,14.52 C173.748,14.52 173.924998,14.5919993 174.074999,14.736 C174.225,14.8800007 174.299999,15.0839987 174.299999,15.348 C174.299999,15.6000013 174.225,15.7979993 174.074999,15.942 C173.924998,16.0860007 173.748,16.158 173.543999,16.158 Z M181.649999,16.158 C181.085996,16.158 180.567001,16.056001 180.092999,15.852 C179.618996,15.647999 179.205001,15.3540019 178.850999,14.97 C178.496997,14.5859981 178.221,14.1150028 178.022999,13.557 C177.824998,12.9989972 177.725999,12.3600036 177.725999,11.64 C177.725999,10.9199964 177.833998,10.2750028 178.049999,9.705 C178.266,9.13499715 178.553997,8.65800192 178.913999,8.274 C179.274001,7.88999808 179.690996,7.59600102 180.164999,7.392 C180.639001,7.18799898 181.139996,7.086 181.667999,7.086 C182.268002,7.086 182.765997,7.19399892 183.161999,7.41 C183.558001,7.62600108 183.905997,7.87199862 184.205999,8.148 L183.737999,8.706 C183.461997,8.44199868 183.156001,8.22300087 182.819999,8.049 C182.483997,7.87499913 182.106001,7.788 181.685999,7.788 C181.241997,7.788 180.831001,7.88099907 180.452999,8.067 C180.074997,8.25300093 179.745,8.51699829 179.462999,8.859 C179.180997,9.20100171 178.959,9.60599766 178.796999,10.074 C178.634998,10.5420023 178.553999,11.0639971 178.553999,11.64 C178.553999,12.2040028 178.628998,12.7199977 178.778999,13.188 C178.929,13.6560023 179.138997,14.0579983 179.408999,14.394 C179.679,14.7300017 180.008997,14.9909991 180.398999,15.177 C180.789001,15.3630009 181.217996,15.456 181.685999,15.456 C182.142001,15.456 182.564997,15.360001 182.954999,15.168 C183.345001,14.975999 183.689997,14.7420014 183.989999,14.466 L184.403999,15.024 C184.031997,15.3480016 183.618001,15.6179989 183.161999,15.834 C182.705997,16.0500011 182.202002,16.158 181.649999,16.158 Z M190.871999,16.158 C190.355996,16.158 189.864001,16.056001 189.395999,15.852 C188.927996,15.647999 188.517001,15.3540019 188.162999,14.97 C187.808997,14.5859981 187.527,14.1150028 187.316999,13.557 C187.106998,12.9989972 187.001999,12.3600036 187.001999,11.64 C187.001999,10.9199964 187.106998,10.2750028 187.316999,9.705 C187.527,9.13499715 187.808997,8.65800192 188.162999,8.274 C188.517001,7.88999808 188.927996,7.59600102 189.395999,7.392 C189.864001,7.18799898 190.355996,7.086 190.871999,7.086 C191.388001,7.086 191.882996,7.18799898 192.356999,7.392 C192.831001,7.59600102 193.244997,7.88999808 193.598999,8.274 C193.953001,8.65800192 194.234998,9.13499715 194.444999,9.705 C194.655,10.2750028 194.759999,10.9199964 194.759999,11.64 C194.759999,12.3600036 194.655,12.9989972 194.444999,13.557 C194.234998,14.1150028 193.953001,14.5859981 193.598999,14.97 C193.244997,15.3540019 192.831001,15.647999 192.356999,15.852 C191.882996,16.056001 191.388001,16.158 190.871999,16.158 Z M190.871999,15.456 C191.304001,15.456 191.708997,15.3630009 192.086999,15.177 C192.465001,14.9909991 192.788997,14.7300017 193.058999,14.394 C193.329,14.0579983 193.541998,13.6560023 193.697999,13.188 C193.854,12.7199977 193.931999,12.2040028 193.931999,11.64 C193.931999,11.0639971 193.854,10.5420023 193.697999,10.074 C193.541998,9.60599766 193.329,9.20100171 193.058999,8.859 C192.788997,8.51699829 192.465001,8.25300093 192.086999,8.067 C191.708997,7.88099907 191.304001,7.788 190.871999,7.788 C190.439997,7.788 190.038001,7.88099907 189.665999,8.067 C189.293997,8.25300093 188.973,8.51699829 188.702999,8.859 C188.432997,9.20100171 188.22,9.60599766 188.063999,10.074 C187.907998,10.5420023 187.829999,11.0639971 187.829999,11.64 C187.829999,12.2040028 187.907998,12.7199977 188.063999,13.188 C188.22,13.6560023 188.432997,14.0579983 188.702999,14.394 C188.973,14.7300017 189.293997,14.9909991 189.665999,15.177 C190.038001,15.3630009 190.439997,15.456 190.871999,15.456 Z M198.851999,15.942 L198.851999,7.302 L199.535999,7.302 L199.607999,8.634 L199.661999,8.634 C200.046001,8.18999778 200.474996,7.82100147 200.948999,7.527 C201.423001,7.23299853 201.899996,7.086 202.379999,7.086 C203.076002,7.086 203.609997,7.24499841 203.981999,7.563 C204.354001,7.88100159 204.617998,8.3099973 204.773999,8.85 C205.278001,8.3099973 205.766996,7.88100159 206.240999,7.563 C206.715001,7.24499841 207.203996,7.086 207.707999,7.086 C209.436007,7.086 210.299999,8.18998896 210.299999,10.398 L210.299999,15.942 L209.489999,15.942 L209.489999,10.506 C209.489999,9.58199538 209.334,8.90100219 209.021999,8.463 C208.709997,8.02499781 208.224002,7.806 207.563999,7.806 C206.783995,7.806 205.920003,8.3459946 204.971999,9.426 L204.971999,15.942 L204.179999,15.942 L204.179999,10.506 C204.179999,9.58199538 204.024,8.90100219 203.711999,8.463 C203.399997,8.02499781 202.908002,7.806 202.235999,7.806 C201.455995,7.806 200.592003,8.3459946 199.643999,9.426 L199.643999,15.942 L198.851999,15.942 Z" id="mandys@gmail.com" fill="#424242"></path>
                </g>
            </g>
        </g>
    </g>
</svg>