<?xml version="1.0" encoding="UTF-8" standalone="no"?>
<svg width="265px" height="110px" viewBox="0 0 265 110" version="1.1" xmlns="http://www.w3.org/2000/svg" xmlns:xlink="http://www.w3.org/1999/xlink">
    <!-- Generator: Sketch 50.2 (55047) - http://www.bohemiancoding.com/sketch -->
    <title>menu-banner copy</title>
    <desc>Created with Sketch.</desc>
    <defs></defs>
    <g id="Page-1" stroke="none" stroke-width="1" fill="none" fill-rule="evenodd">
        <g id="Fonts-and-colors" transform="translate(-297.000000, -860.000000)">
            <g id="menu-banner-copy" transform="translate(297.000000, 860.000000)">
                <path d="M0.5,67.5 L263.507604,67.5" id="Line-3-Copy" stroke="#805278" stroke-linecap="round" stroke-linejoin="round"></path>
                <path d="M130.368,8.12 C130.816,10.168 131.136,12.28 131.328,14.392 C131.52,16.504 131.648,18.616 131.712,20.856 C131.712,22.328 131.712,23.864 131.648,25.336 C131.584,26.808 131.456,28.28 131.264,29.816 C131.136,31.288 130.88,32.76 130.56,34.232 C130.24,35.704 129.856,37.112 129.408,38.584 C128.832,40.76 128.128,42.936 127.36,45.048 C126.528,47.16 125.632,49.336 124.672,51.512 C123.456,54.008 122.112,56.376 120.768,58.744 C119.36,61.048 117.76,63.288 115.904,65.528 C114.56,67.064 113.152,68.472 111.68,69.688 C110.208,70.904 108.672,71.992 107.008,72.952 C105.152,74.04 103.296,74.744 101.376,75.064 C97.856,75.896 95.36,74.808 94.016,71.928 C93.44,70.776 92.992,69.56 92.736,68.28 C92.48,67 92.288,65.656 92.096,64.248 C92.032,62.776 92.032,61.304 92.096,59.832 C92.16,58.36 92.288,56.952 92.48,55.48 C92.672,53.688 92.928,51.96 93.248,50.296 C93.568,48.568 93.888,46.904 94.272,45.176 L96.512,35.64 L96.512,35.384 C96.448,35.32 96.448,35.192 96.448,35.128 C96.384,35.192 96.32,35.32 96.256,35.384 L96.064,35.576 L93.952,39.032 C93.568,39.672 93.056,40.568 92.352,41.784 C91.648,42.936 90.816,44.216 89.984,45.624 C89.088,47.032 88.128,48.504 87.168,50.104 C86.208,51.64 85.248,53.112 84.352,54.52 C83.456,55.928 82.624,57.208 81.92,58.36 C81.152,59.512 80.576,60.408 80.128,61.048 C79.552,61.752 78.976,62.52 78.4,63.224 C77.824,63.928 77.12,64.632 76.416,65.272 C75.712,65.976 74.944,66.424 74.112,66.744 C73.28,67.064 72.512,67.192 71.808,67.128 C71.104,67.064 70.464,66.808 69.888,66.424 C69.312,66.04 68.864,65.464 68.672,64.76 C68.352,63.736 68.096,62.648 68.032,61.56 C67.968,60.472 67.968,59.32 68.032,58.168 C68.16,56.312 68.416,54.52 68.8,52.728 L69.76,48.696 C69.696,48.696 69.696,48.632 69.696,48.632 C67.584,47.864 65.92,46.776 64.704,45.304 C63.552,43.896 63.168,42.168 63.68,40.12 C63.808,39.288 64.064,38.456 64.448,37.688 C64.768,36.92 65.216,36.088 65.728,35.32 C66.368,34.296 67.136,33.336 67.904,32.376 C68.672,31.416 69.504,30.52 70.4,29.624 C71.936,28.152 73.536,26.872 75.328,25.72 C77.056,24.504 78.976,23.416 80.96,22.392 C81.792,22.008 82.624,21.624 83.456,21.304 C84.352,20.664 85.12,20.536 85.888,20.92 L86.528,21.432 C86.592,21.496 86.656,21.56 86.656,21.624 C86.656,21.688 86.72,21.816 86.848,21.88 C86.656,22.008 86.464,22.072 86.272,22.072 C86.016,22.136 85.824,22.264 85.632,22.456 C85.568,22.456 85.504,22.52 85.504,22.52 C85.504,22.584 85.504,22.648 85.568,22.648 C85.44,22.712 85.376,22.776 85.248,22.776 C85.184,22.904 85.12,22.968 84.992,23.096 C84.48,23.672 83.968,24.312 83.52,24.952 C83.008,25.592 82.496,26.232 82.048,26.872 C81.152,28.216 80.384,29.56 79.68,30.904 C78.976,32.248 78.336,33.656 77.76,35 C76.8,37.304 75.904,39.608 75.136,41.848 C74.368,44.088 73.664,46.328 73.088,48.568 C73.088,48.632 73.024,48.76 73.024,48.824 C74.624,49.272 76.288,49.656 77.76,49.912 L77.632,49.912 C76.224,49.912 74.88,49.784 73.536,49.656 C73.28,49.592 73.088,49.528 72.896,49.528 C72.576,50.744 72.32,51.896 72.064,53.112 C71.744,54.584 71.552,56.056 71.424,57.528 C71.296,58.616 71.232,59.64 71.232,60.664 C71.232,61.688 71.36,62.648 71.552,63.608 C71.616,63.928 71.68,64.184 71.808,64.44 C71.936,64.632 72.064,64.888 72.128,65.144 C72.192,65.336 72.32,65.464 72.512,65.464 C72.704,65.464 72.832,65.336 73.024,65.144 C73.344,64.952 73.664,64.696 73.984,64.44 C74.24,64.12 74.496,63.864 74.816,63.608 C75.712,62.712 76.544,61.752 77.248,60.728 C77.952,59.64 78.656,58.616 79.36,57.528 C79.936,56.696 80.64,55.544 81.536,54.2 C82.368,52.792 83.328,51.256 84.416,49.656 C85.44,47.992 86.528,46.264 87.616,44.472 C88.704,42.616 89.728,40.888 90.752,39.224 C91.776,37.56 92.736,36.024 93.568,34.616 C94.4,33.208 95.04,32.056 95.552,31.16 C96,30.328 96.512,29.432 97.024,28.6 L98.56,25.912 C99.008,25.208 99.392,24.696 99.776,24.504 C100.16,24.312 100.672,24.248 101.312,24.44 C101.504,24.504 101.632,24.504 101.76,24.568 C101.824,24.632 101.952,24.696 102.08,24.76 C102.272,24.952 102.464,25.08 102.528,25.272 C102.592,25.464 102.592,25.656 102.528,25.912 L102.208,27.512 C101.632,29.816 100.992,32.12 100.416,34.36 C99.776,36.6 99.136,38.904 98.56,41.144 C97.856,43.832 97.28,46.52 96.768,49.144 C96.256,51.768 95.872,54.328 95.68,56.952 C95.488,58.872 95.36,60.728 95.424,62.584 C95.488,64.376 95.68,66.104 96.128,67.704 C96.256,68.536 96.448,69.368 96.768,70.072 C97.088,70.776 97.408,71.416 97.856,72.056 C99.072,73.848 100.928,74.168 103.488,73.08 C104.384,72.632 105.28,72.12 106.112,71.608 C106.944,71.032 107.776,70.456 108.608,69.752 C110.08,68.408 111.488,67 112.704,65.528 C113.92,64.056 115.072,62.456 116.16,60.856 C118.208,57.784 120,54.648 121.472,51.384 C122.944,48.12 124.288,44.792 125.376,41.4 C125.888,39.8 126.4,38.136 126.976,36.536 C127.488,34.872 127.872,33.208 128.192,31.48 C128.384,30.392 128.512,29.304 128.64,28.216 C128.704,27.128 128.832,26.104 128.896,25.016 C128.96,23.8 128.96,22.648 128.96,21.496 C128.96,20.28 128.896,19.128 128.832,17.976 C128.768,15.8 128.64,13.688 128.448,11.704 C128.192,9.656 127.808,7.672 127.296,5.752 C127.04,4.792 126.72,3.96 126.272,3.128 C125.824,2.296 125.312,1.592 124.736,1.016 C124.672,0.952 124.544,0.824 124.48,0.696 C124.352,0.504 124.352,0.376 124.416,0.312 C124.48,0.12 124.608,0.056 124.8,0.056 C124.992,0.056 125.12,0.056 125.248,0.12 C126.336,0.44 127.296,1.08 128,2.04 C128.576,2.936 129.088,3.896 129.472,4.92 C129.792,5.944 130.112,7.032 130.368,8.12 Z M82.944,24.44 L83.136,24.184 L82.816,24.312 C82.624,24.632 82.368,24.952 82.048,25.272 C81.728,25.592 81.472,25.912 81.28,26.232 C80.448,27.384 79.68,28.6 79.04,29.88 C78.4,31.16 77.76,32.44 77.184,33.784 C76.224,35.896 75.328,38.072 74.56,40.248 C73.728,42.424 73.024,44.6 72.384,46.776 C72.256,47.352 72.128,47.928 71.936,48.504 C72.064,48.568 72.192,48.568 72.256,48.632 C72.896,46.328 73.536,44.088 74.304,41.976 C75.136,39.608 76.096,37.24 77.056,35 C78.016,32.696 79.168,30.392 80.512,28.152 C81.216,26.872 82.048,25.656 82.944,24.44 Z M71.0833262,46.7100213 L71.104,46.648 C71.104,46.691913 71.104,46.7056955 71.0833262,46.7100213 Z M71.0833262,46.7100213 C71.0738695,46.712 71.060087,46.712 71.04,46.712 L70.976,46.904 L71.04,46.84 L71.0833262,46.7100213 Z M71.36,45.688 L71.424,45.688 C71.424,45.56 71.424,45.496 71.488,45.496 L71.424,45.432 L71.36,45.688 Z M71.744,44.216 C71.68,44.28 71.68,44.344 71.744,44.344 C71.744,44.28 71.808,44.28 71.872,44.28 L71.872,44.024 C71.808,44.088 71.744,44.152 71.744,44.216 Z M72.957052,40.766057 C72.9218161,40.8067047 72.896,40.8473523 72.896,40.888 C72.896,40.952 72.896,40.952 72.832,41.016 C72.768,41.208 72.768,41.336 72.704,41.4 C72.64,41.464 72.64,41.592 72.64,41.656 L72.896,41.016 C72.896,40.9211299 72.9311576,40.8262597 72.9754149,40.7574475 L72.957052,40.766057 Z M73.152,40.056 L73.216,40.248 L73.216,40.12 L73.28,40.056 L73.344,39.928 C73.28,39.928 73.28,39.928 73.28,39.992 L73.216,39.992 L73.152,40.056 Z M73.6,41.4 C73.536,41.464 73.536,41.464 73.6,41.464 L73.6,41.4 Z M73.7280045,38.7677763 C73.728,38.7706201 73.728,38.7733643 73.728,38.776 C73.728,38.7728687 73.728,38.7698906 73.728,38.7670581 L73.7280045,38.7677763 Z M74.048,40.12 L73.984,40.184 C74.048,40.184 74.048,40.184 74.048,40.12 Z M74.3046416,37.3455951 C74.3470944,37.2745568 74.3895472,37.1753584 74.432,37.048 C74.496,36.984 74.496,36.856 74.496,36.664 L74.432,37.048 C74.3717363,37.1082637 74.3114725,37.2252731 74.3046416,37.3455951 Z M74.624,38.456 L74.496,38.584 L74.56,38.648 C74.624,38.584 74.624,38.52 74.624,38.456 Z M74.104,39.96 C74.112,39.944 74.112,39.928 74.112,39.928 C74.112,39.928 74.096,39.928 74.08,39.936 L74.104,39.96 Z M74.84,35.904 C74.88,35.768 74.912,35.64 74.944,35.512 C74.912,35.608 74.864,35.736 74.816,35.88 L74.84,35.904 Z M75.648,36.024 L75.584,36.088 C75.648,36.088 75.648,36.088 75.648,36.024 Z M75.328,36.664 C75.264,36.728 75.264,36.792 75.2,36.856 L75.072,37.24 L75.264,36.856 C75.264,36.792 75.264,36.792 75.328,36.728 C75.392,36.664 75.392,36.536 75.392,36.472 C75.328,36.536 75.328,36.6 75.328,36.664 Z M76.16,33.016 C76.544,32.504 76.8,31.928 76.928,31.352 C76.48,31.8 76.224,32.312 76.096,33.144 C76.16,33.144 76.16,33.08 76.16,33.08 L76.16,33.016 Z M76.992,32.952 L76.672,33.656 L77.056,32.888 L77.056,32.824 C77.056,32.824 77.056,32.888 76.992,32.952 Z M76.1698078,34.6516446 C76.1395787,34.6947948 76.1149761,34.7250239 76.096,34.744 C76.1279134,34.7120866 76.1598268,34.6642597 76.1917402,34.6163897 L76.1698078,34.6516446 Z M78.336,28.728 L78.592,28.216 C78.4,28.472 78.336,28.6 78.272,28.664 L78.144,28.984 L78.336,28.728 Z M78.976,29.048 C78.784,29.24 78.656,29.368 78.592,29.56 C78.656,29.496 78.784,29.304 78.976,29.048 Z M78.4,30.136 L78.08,30.648 L77.824,31.16 C77.888,31.096 77.952,30.968 78.016,30.904 C78.08,30.84 78.144,30.712 78.208,30.648 L78.4,30.136 Z M77.76,29.752 L77.952,29.432 C77.888,29.496 77.824,29.56 77.76,29.752 Z M77.76,31.352 L77.504,31.864 C77.44,32.056 77.376,32.184 77.312,32.312 C77.376,32.248 77.44,32.184 77.44,32.12 C77.44,32.056 77.504,31.928 77.568,31.864 L77.76,31.352 Z M77.376,30.52 L77.3176179,30.6367642 C77.3319457,30.5890318 77.3477285,30.5482715 77.376,30.52 Z M77.3176179,30.6367642 L77.248,30.776 L77.248,30.84 C77.2837285,30.768543 77.2995113,30.6970861 77.317618,30.6367639 L77.3176179,30.6367642 Z M77.376,30.52 C77.44,30.456 77.44,30.328 77.504,30.264 L77.376,30.52 Z M79.104,28.792 C79.168,28.792 79.168,28.728 79.232,28.728 L79.424,28.344 C79.36,28.408 79.296,28.536 79.232,28.664 L79.104,28.792 Z M83.136,24.12 L83.456,23.8 L83.392,23.8 C83.328,23.8 83.328,23.8 83.264,23.864 C83.264,23.928 83.2,24.056 83.136,24.12 Z M68.608,47.032 C68.992,47.288 69.504,47.544 69.952,47.736 C70.016,47.544 70.016,47.416 70.08,47.224 C70.912,44.472 71.808,41.72 72.832,39.032 C73.856,36.28 75.072,33.592 76.416,30.904 C77.12,29.56 77.888,28.216 78.72,26.936 C78.976,26.552 79.232,26.168 79.424,25.784 C77.824,26.68 76.352,27.832 74.88,28.92 C73.984,29.624 72.32,30.776 71.616,32.12 C71.232,32.312 70.848,32.632 70.528,32.952 C70.016,33.464 69.568,34.424 68.8,34.68 C68.096,35 67.904,35.64 68.032,36.216 C67.52,36.92 67.008,37.688 66.624,38.52 C66.176,39.224 65.856,39.992 65.6,40.76 C65.344,41.528 65.216,42.296 65.28,43.064 C65.344,44.856 66.432,46.136 68.608,47.032 Z M72.064,49.336 C72,49.336 71.872,49.336 71.808,49.272 C71.616,49.912 71.552,50.552 71.488,51.192 L71.808,50.36 C71.872,50.04 72,49.72 72.064,49.336 Z M70.272,49.656 L70.336,49.592 C70.336,49.528 70.336,49.464 70.272,49.4 L70.208,49.528 C70.272,49.592 70.272,49.592 70.272,49.656 Z M71.488,51.256 C71.296,51.512 71.168,51.768 71.168,52.088 C71.168,52.344 71.232,52.6 71.296,52.792 L71.488,51.256 Z M93.12,56.632 L93.44,53.944 L93.312,54.008 L93.056,56.696 L93.12,56.632 Z M93.76,50.872 C93.696,51.192 93.696,51.512 93.76,51.832 C93.952,51.256 94.08,50.616 94.08,49.912 L94.016,49.912 C93.888,50.232 93.824,50.552 93.76,50.872 Z M93.952,56.248 L94.272,53.816 L94.208,53.816 L93.888,56.248 L93.952,56.248 Z M98.112,32.568 L98.048,32.696 L98.176,32.696 L98.176,32.632 L98.112,32.568 Z M97.92,36.664 C97.856,36.728 97.856,36.728 97.856,36.664 L97.792,36.728 L97.792,36.856 C97.856,36.792 97.92,36.728 97.92,36.664 Z M97.728,33.848 C97.664,33.912 97.664,33.976 97.664,34.04 L97.728,34.168 C97.728,34.104 97.728,34.104 97.792,34.104 C97.856,34.04 97.856,34.04 97.856,33.976 C97.792,33.912 97.728,33.912 97.792,33.848 C97.856,33.784 97.792,33.784 97.728,33.848 Z M97.5917257,38.0968229 C97.572419,38.108419 97.5222095,38.0582095 97.472,38.008 L97.408,38.136 C97.408,38.2 97.408,38.264 97.472,38.264 C97.472,38.2 97.472,38.2 97.536,38.264 L97.5917257,38.0968229 Z M97.216,36.024 L97.152,36.024 L97.216,36.152 L97.216,36.024 Z M97.216,36.152 L97.2085021,36.1757432 C97.2108984,36.1677286 97.2133962,36.1598114 97.216,36.152 Z M97.2085021,36.1757432 L96.832,37.368 C97.024,37.176 97.088,36.984 97.152,36.792 C97.152,36.6078114 97.152,36.3647244 97.2085021,36.1757432 Z M97.216,36.024 C97.28,35.96 97.344,35.832 97.344,35.768 C97.344,35.704 97.344,35.576 97.408,35.512 L97.408,35.32 C97.344,35.384 97.28,35.448 97.28,35.512 C97.216,35.576 97.216,35.704 97.28,35.768 C97.28,35.832 97.28,35.96 97.216,36.024 Z M97.104907,39.6786396 C97.0999036,39.6600964 97.1156013,39.6443987 97.152,39.608 L97.104907,39.6786396 Z M97.104907,39.6786396 L97.024,39.8 C96.96,39.864 97.024,39.864 97.088,39.864 C97.088,39.8 97.088,39.8 97.152,39.8 L97.152,39.736 C97.1243987,39.7083987 97.108701,39.692701 97.104907,39.6786396 Z M96.768,38.072 C96.832,38.008 96.768,37.816 96.704,37.496 C96.64,37.624 96.64,37.752 96.64,37.88 C96.64,37.944 96.64,38.072 96.576,38.136 C96.512,38.2 96.512,38.2 96.576,38.264 C96.64,38.264 96.64,38.328 96.576,38.392 C96.704,38.328 96.768,38.2 96.768,38.072 Z M96.832,41.4 L96.704,41.144 L96.704,41.336 C96.64,41.4 96.64,41.4 96.64,41.464 C96.576,41.528 96.64,41.656 96.704,41.72 L96.832,41.4 Z M96.704,33.016 L96.704,33.08 L96.704,33.016 Z M97.152,32.12 L96.768,32.888 C96.896,32.76 96.96,32.632 97.024,32.568 L97.216,32.184 C97.28,32.12 97.28,32.056 97.28,31.992 L97.152,32.12 Z M91.136,42.232 C91.264,42.104 91.392,41.912 91.456,41.72 C91.392,41.784 91.328,41.912 91.264,41.976 C91.2,42.04 91.2,42.168 91.136,42.232 Z M91.712,41.464 C91.712,41.4 91.712,41.4 91.776,41.336 L91.648,41.464 L91.584,41.592 L91.712,41.464 Z M92.608,39.8 L92.224,40.376 L92.224,40.44 L92.608,39.8 Z M93.824,37.816 L93.952,37.496 L93.696,37.944 C93.632,38.072 93.632,38.2 93.568,38.328 L93.312,38.584 L93.568,38.328 C93.632,38.2 93.76,38.008 93.824,37.816 Z M95.68,34.808 C95.616,34.744 95.616,34.744 95.68,34.68 L95.68,34.616 C95.68,34.68 95.616,34.68 95.552,34.68 L95.616,34.808 L94.848,36.024 C95.04,35.832 95.232,35.64 95.36,35.448 C95.424,35.256 95.552,35 95.616,34.808 L95.68,34.808 Z M95.808,34.424 C95.872,34.424 95.872,34.36 95.872,34.36 L95.808,34.424 Z M95.872,34.296 L95.936,34.232 L95.936,34.168 L95.872,34.232 L95.872,34.296 Z M96,34.168 L96.064,34.04 C96,34.104 96,34.168 96,34.168 Z M96.24,43.448 C96.24,43.464 96.224,43.48 96.192,43.512 L96.24,43.448 Z M96.24,43.448 L96.384,43.256 C96.384,43.192 96.32,43.128 96.192,43.128 L96.192,43.32 C96.128,43.32 96.128,43.32 96.192,43.384 C96.224,43.416 96.24,43.432 96.24,43.448 Z M96.192,39.8 C96.192,39.8 96.192,39.864 96.128,39.928 C96.128,39.992 96.192,40.056 96.256,40.056 C96.192,39.992 96.192,39.928 96.32,39.8 L96.32,39.736 C96.256,39.672 96.256,39.672 96.256,39.608 C96.192,39.672 96.192,39.736 96.192,39.8 Z M95.744,41.528 L95.744,41.72 C95.808,41.72 95.872,41.656 95.936,41.528 L95.872,41.272 C95.808,41.336 95.744,41.464 95.744,41.528 Z M95.744,45.432 L95.744,45.56 C95.808,45.432 95.872,45.304 95.872,45.112 C95.936,45.048 96,45.048 95.936,45.048 L95.872,44.984 L95.744,45.432 Z M95.296,43.704 C95.232,43.768 95.296,43.832 95.36,43.896 C95.36,43.832 95.36,43.832 95.424,43.768 L95.488,43.768 L95.488,43.32 C95.552,43.256 95.552,43.128 95.488,43 C95.424,43.064 95.36,43.192 95.296,43.256 L95.296,43.704 Z M95.2790204,48.0377143 C95.275102,48.0651429 95.2594286,48.0925714 95.232,48.12 L95.2790208,48.0377136 L95.2790204,48.0377143 Z M95.2790208,48.0377136 L95.488,47.672 L95.36,47.352 C95.296,47.544 95.232,47.672 95.232,47.736 C95.168,47.8 95.168,47.864 95.232,47.928 C95.2685714,47.9645714 95.2842449,48.0011429 95.2790204,48.0377143 L95.2790208,48.0377136 Z M94.912,45.112 C94.976,45.24 94.912,45.368 94.72,45.56 L94.976,45.816 C94.912,45.752 94.912,45.688 94.976,45.624 C95.04,45.56 95.04,45.432 95.04,45.368 C95.104,45.304 95.04,45.24 94.912,45.112 Z M94.848,49.464 L94.72,50.744 C95.04,50.232 95.04,49.784 94.848,49.464 Z M94.464,47.288 C94.4,47.48 94.336,47.736 94.336,47.928 C94.336,48.12 94.4,48.248 94.528,48.376 L94.528,47.288 L94.464,47.288 Z M94.528,60.792 C94.528,60.728 94.528,60.6 94.592,60.536 L94.464,60.408 L94.4,60.728 C94.4,60.792 94.4,60.792 94.464,60.792 L94.528,60.792 Z M95.104,54.712 C95.168,53.624 95.36,52.472 95.552,51.384 C95.744,50.04 96,48.76 96.32,47.416 L97.28,43.384 C97.664,41.592 98.112,39.864 98.56,38.136 C99.008,36.408 99.456,34.616 99.904,32.824 C100.096,32.248 100.224,31.608 100.352,31.032 C100.416,30.456 100.544,29.816 100.736,29.24 L100.8,29.176 C100.928,28.984 100.992,28.792 100.992,28.6 C100.992,28.408 101.056,28.216 101.12,28.024 C101.184,27.896 101.248,27.832 101.312,27.832 L101.248,27.768 C101.184,27.768 101.184,27.768 101.12,27.704 L101.12,28.024 C100.928,28.216 100.864,28.408 100.864,28.6 C100.8,28.792 100.8,28.984 100.8,29.176 L100.736,29.176 L100.736,29.24 L100.352,29.944 C99.904,31.48 99.52,33.016 99.072,34.616 C98.624,36.152 98.24,37.688 97.856,39.16 C97.6,40.248 97.344,41.272 97.152,42.296 C96.896,43.256 96.64,44.28 96.384,45.24 C96.192,46.328 96,47.352 95.808,48.376 C95.616,49.4 95.36,50.424 95.168,51.384 C94.976,52.6 94.848,53.752 94.784,54.968 C94.656,56.184 94.528,57.336 94.4,58.488 C94.4,58.68 94.4,58.872 94.464,59 C94.528,58.808 94.592,58.616 94.656,58.488 C94.72,58.36 94.72,58.232 94.72,58.04 C94.848,56.952 94.976,55.8 95.104,54.712 Z M128.384,36.6 C128.384,36.728 128.32,36.792 128.192,36.792 L128.32,36.792 L128.384,36.728 L128.384,36.6 Z M128.128,34.616 C128.064,34.616 128.064,34.616 128.128,34.68 L128,34.808 L128.192,34.744 L128.128,34.616 Z M128,37.816 L127.936,37.816 C127.936,37.88 127.872,38.008 127.808,38.072 L127.936,38.008 C128,38.008 128,38.008 128,37.944 L128,37.816 Z M127.552,36.664 C127.488,36.856 127.424,36.984 127.488,37.048 L127.616,36.728 L127.68,36.6 C127.68,36.536 127.68,36.472 127.744,36.408 C127.808,36.344 127.808,36.28 127.744,36.216 L127.808,36.024 L127.552,36.28 C127.552,36.472 127.616,36.536 127.68,36.6 L127.552,36.664 Z M127.68,38.968 L127.616,38.968 L127.616,39.096 L127.68,38.968 Z M127.36,40.056 L127.296,39.992 C127.232,40.056 127.232,40.056 127.232,40.12 L127.168,40.184 C127.168,40.248 127.168,40.248 127.232,40.248 L127.36,40.248 L127.36,40.056 Z M127.104729,38.3793281 C127.111972,38.3123042 127.171986,38.196014 127.232,38.136 L127.232,37.816 L127.04,38.136 C126.976,38.2 126.976,38.2 127.04,38.264 C127.097227,38.3212271 127.103283,38.3272833 127.103924,38.37368 L127.104729,38.3793281 Z M126.912,41.144 L126.912,41.208 L126.976,41.144 L126.912,41.144 Z M126.592,39.608 L126.592,39.992 C126.592,40.056 126.656,39.992 126.72,39.8 L126.72,39.544 L126.592,39.608 Z M126.72,42.104 L126.592,42.168 L126.656,42.168 L126.72,42.104 Z M125.44,43.32 L125.504,43.256 L125.312,43.384 L125.44,43.32 Z M125.76,42.424 L125.824,42.296 L125.632,42.36 L125.76,42.424 Z M126.144,41.08 L126.08,41.208 C126.144,41.144 126.144,41.144 126.144,41.08 Z M129.792,34.552 L129.792,33.656 C129.728,33.848 129.664,34.04 129.664,34.104 C129.6,34.168 129.6,34.232 129.536,34.296 L126.336,44.536 L126.144,45.56 C126.4,45.24 126.528,44.984 126.592,44.792 C127.232,43.064 127.808,41.4 128.32,39.672 C128.832,37.944 129.344,36.28 129.792,34.552 Z M130.176,32.376 C130.112,32.376 130.112,32.376 130.176,32.312 L129.984,32.376 C129.984,32.44 129.984,32.44 130.048,32.44 L130.048,32.568 L130.112,32.504 C130.112,32.44 130.112,32.44 130.176,32.376 Z M156.672,52.792 C156.8,52.536 157.056,52.344 157.376,52.152 C157.184,52.408 156.992,52.6 156.8,52.856 C156.544,53.112 156.352,53.368 156.16,53.56 C156.352,53.304 156.48,53.048 156.672,52.792 Z M148.768122,61.8562923 C148.834299,61.8130787 148.891537,61.7609267 148.928,61.688 L148.768122,61.8562925 L148.768122,61.8562923 Z M148.768122,61.8562923 L147.712,62.968 L148.16,62.136 C148.288,62.072 148.416,62.008 148.608,61.944 C148.663073,61.9164633 148.718147,61.8889267 148.768122,61.8562923 Z M153.92,56.056 L154.944,54.968 L155.264,54.648 C155.136,54.776 155.072,54.904 155.008,54.968 L153.92,56.12 L153.92,56.056 Z M151.872,58.488 L153.152,57.016 C152.704,57.4 152.256,57.848 151.872,58.488 Z M156.736,50.36 L159.36,49.976 L158.208,51.192 C158.144,51.128 158.144,51.064 158.144,51 C158.144,51 158.144,50.936 158.08,50.808 L158.144,50.68 L158.08,50.744 L158.08,50.808 L157.76,51.192 L158.208,51.192 L157.44,52.088 C157.44,51.896 157.376,51.768 157.312,51.64 L156.8,51.896 L156.48,52.28 L156.608,51.896 L156.352,52.28 L156.48,52.28 L156.224,52.728 L155.84,53.176 L155.968,52.792 L155.648,53.176 L155.84,53.176 L155.456,53.624 C155.392,53.752 155.264,53.88 155.072,54.008 L155.2,53.688 L154.816,54.072 L155.072,54.072 L154.688,54.52 C154.688,54.456 154.688,54.392 154.752,54.328 L154.752,54.136 C154.368,54.392 154.048,54.712 153.792,55.032 C153.536,55.416 153.28,55.736 153.088,56.056 C153.024,56.184 153.024,56.184 153.024,56.248 C152.96,56.248 152.96,56.312 152.896,56.376 L153.024,56.056 C152.96,56.12 152.832,56.184 152.768,56.184 C152.704,56.248 152.576,56.312 152.512,56.312 C152.832,55.928 153.088,55.544 153.344,55.224 C153.6,54.84 153.856,54.52 154.112,54.136 L153.6,54.328 L154.368,53.432 L154.176,54.008 L154.496,53.688 C154.624,53.496 154.752,53.368 154.88,53.176 C154.816,53.24 154.752,53.24 154.752,53.176 C154.752,53.112 154.944,52.792 155.392,52.152 L155.2,52.792 C155.264,52.792 155.264,52.792 155.264,52.728 L155.2,52.792 L155.904,51.96 L155.52,52.088 L156.16,51.256 L156.032,51.832 L156.672,51 L156.224,51.192 C156.352,50.936 156.544,50.616 156.736,50.36 Z M155.328,53.624 L155.456,53.24 L155.136,53.624 L155.328,53.624 Z M156.16,52.728 L156.288,52.344 L155.968,52.728 L156.16,52.728 Z M157.12,51.32 C157.12,51.32 157.12,51.256 157.184,51.192 L156.928,51.448 L156.608,51.832 L156.8,51.832 L156.928,51.448 L156.992,51.448 C157.056,51.448 157.056,51.384 157.12,51.32 Z M158.912,49.784 C158.976,49.784 159.04,49.72 159.104,49.656 L158.912,49.784 Z M152.128,56.12 L152,56.504 L152.512,56.312 C152.32,56.568 152.192,56.76 152.064,57.016 C151.936,57.208 151.808,57.464 151.616,57.656 L151.296,58.104 L150.848,58.552 L149.888,59.64 C149.824,59.768 149.76,59.832 149.696,59.896 C149.632,59.96 149.504,60.024 149.44,60.088 L148.352,60.984 C148.096,61.368 148.032,61.752 148.16,62.072 L147.392,62.52 C147.2,62.84 147.136,63.032 147.2,63.096 C147.264,63.16 147.392,63.16 147.648,63.032 C147.2,63.544 146.752,64.056 146.304,64.504 C145.792,64.952 145.28,65.336 144.704,65.72 C144,66.232 143.168,66.424 142.272,66.296 C141.312,66.168 140.736,65.784 140.544,65.08 C140.352,64.44 140.352,63.608 140.48,62.712 C140.608,61.88 140.8,61.048 141.12,60.216 C141.376,59.448 141.696,58.616 142.016,57.72 C142.976,55.032 144.192,52.344 145.664,49.72 C147.136,47.096 148.608,44.472 150.08,41.784 C150.4,41.272 150.72,40.696 150.976,40.184 C151.296,39.608 151.552,39.096 151.872,38.52 C151.936,38.456 152,38.392 152,38.264 C151.936,38.2 151.936,38.136 152,38.008 C151.872,38.072 151.744,38.072 151.68,38.072 C151.616,38.008 151.488,38.072 151.424,38.136 C150.912,38.456 150.4,38.712 149.824,39.032 C149.312,39.288 148.8,39.608 148.288,39.928 C146.368,41.208 144.512,42.616 142.72,44.024 C140.928,45.496 139.136,47.032 137.408,48.568 C135.936,49.976 134.464,51.384 133.056,52.856 C131.648,54.328 130.24,55.8 128.896,57.272 C128.768,57.464 128.64,57.592 128.512,57.784 C128.384,57.912 128.256,58.04 128.128,58.104 C127.808,58.36 127.552,58.488 127.36,58.488 C126.912,58.552 126.464,58.552 126.016,58.488 C125.568,58.424 125.12,58.296 124.736,58.04 C124.416,57.848 124.224,57.592 124.288,57.272 C124.352,56.888 124.416,56.504 124.48,56.184 C124.48,55.8 124.544,55.416 124.608,55.032 C124.928,53.688 125.184,52.28 125.504,50.872 C125.824,49.464 126.144,48.056 126.528,46.648 C126.912,44.856 127.36,43.064 127.872,41.272 C128.384,39.48 129.024,37.688 129.728,35.896 L131.84,30.456 C133.248,27.064 134.912,23.736 136.832,20.536 C138.752,17.336 141.056,14.264 143.744,11.192 C144.32,10.552 144.896,9.912 145.344,9.4 C145.664,9.016 145.984,8.696 146.368,8.312 C146.496,8.184 146.624,8.12 146.752,7.992 C147.52,7.608 148.224,7.096 148.928,6.584 C149.632,6.136 150.4,5.752 151.104,5.368 C152,4.984 152.768,4.664 153.6,4.728 C153.792,4.856 153.92,4.92 154.112,4.984 L154.176,4.984 C154.368,5.112 154.624,5.24 154.816,5.432 C154.88,5.496 154.944,5.496 155.008,5.56 C155.008,5.624 155.072,5.624 155.072,5.688 C154.944,6.2 154.752,6.712 154.624,7.224 C153.984,9.016 153.28,10.744 152.512,12.408 C151.744,14.072 150.848,15.672 149.952,17.336 C148.48,20.088 146.944,22.712 145.28,25.272 C143.616,27.832 141.824,30.392 140.032,32.824 C138.304,35 136.576,37.112 134.848,39.16 C133.696,40.504 132.48,41.848 131.264,43.128 C131.264,43.192 131.2,43.192 131.2,43.256 C131.072,43.64 130.944,43.96 130.88,44.28 C130.816,44.6 130.688,44.92 130.624,45.24 L128.768,52.6 L128.64,52.92 C128.768,53.048 128.832,53.112 128.768,53.112 C128.832,53.112 128.96,53.112 129.152,52.984 L129.92,52.216 C131.072,51.064 132.224,49.912 133.44,48.824 C134.656,47.672 135.872,46.584 137.088,45.56 C138.88,44.152 140.608,42.808 142.336,41.464 C144.064,40.12 145.856,38.904 147.712,37.752 C148.416,37.368 149.056,37.048 149.76,36.728 C150.4,36.408 151.104,36.088 151.808,35.832 C152.512,35.64 153.152,35.576 153.856,35.704 C155.264,36.152 155.712,37.112 155.136,38.52 C154.944,39.096 154.688,39.608 154.432,40.12 C154.176,40.632 153.92,41.208 153.6,41.72 C152.64,43.448 151.68,45.176 150.72,46.84 C149.696,48.568 148.736,50.296 147.776,51.96 C146.88,53.624 146.048,55.224 145.28,56.824 C144.512,58.488 143.872,60.088 143.296,61.752 C143.168,62.2 143.104,62.584 143.04,62.968 C142.976,63.352 142.848,63.8 142.784,64.184 C142.72,64.376 142.72,64.568 142.784,64.696 C142.784,64.888 142.848,65.016 142.912,65.016 C143.104,65.144 143.296,65.08 143.488,64.952 L143.936,64.504 L145.856,62.84 L146.88,61.88 L147.2,61.496 C147.2,61.688 147.2,61.816 147.136,61.88 L147.776,61.24 L148.288,60.984 C148.48,60.728 148.672,60.472 148.8,60.088 L149.184,59.64 L148.992,59.64 L149.312,59.256 C149.248,59.384 149.248,59.512 149.248,59.64 L150.208,58.552 L149.696,58.744 C149.76,58.68 149.888,58.552 150.016,58.488 L150.4,58.104 L150.272,58.488 L150.592,58.104 L150.4,58.104 L150.72,57.72 C150.656,57.912 150.592,58.04 150.656,58.104 C151.168,57.72 151.616,57.208 151.936,56.568 L151.488,56.76 L152.128,56.12 Z M154.048,38.648 L153.92,39.16 L154.112,38.968 C154.176,38.904 154.176,38.84 154.24,38.712 C154.368,38.712 154.368,38.648 154.24,38.52 C154.24,38.584 154.176,38.584 154.112,38.584 C154.048,38.584 154.048,38.648 154.048,38.648 Z M139.584,31.992 L139.584,31.928 C139.52,31.992 139.456,32.056 139.456,32.12 C139.52,32.12 139.584,32.056 139.584,31.992 Z M142.208,28.472 L142.272,28.408 L142.144,28.408 L142.016,28.6 L142.208,28.472 Z M152.064,11.704 L152.064,11.64 L150.848,13.944 C150.4,14.712 150.016,15.416 149.632,16.12 C149.248,16.888 148.8,17.592 148.352,18.296 C147.648,19.512 146.944,20.664 146.24,21.816 C145.472,22.968 144.768,24.184 144.064,25.4 C143.936,25.656 143.744,25.912 143.616,26.168 C143.424,26.424 143.232,26.68 143.104,26.936 L142.848,27.256 C142.848,27.384 142.784,27.512 142.72,27.64 L142.528,28.024 L142.976,27.448 L144.256,25.528 L144.704,24.888 C145.6,23.416 146.56,21.944 147.52,20.408 C148.416,18.936 149.312,17.4 150.208,15.864 L150.976,14.072 C151.104,13.688 151.296,13.24 151.488,12.856 C151.616,12.472 151.808,12.088 152.064,11.704 Z M144.448,22.648 L144.512,22.648 L144.704,22.072 L144.448,22.648 Z M145.088,22.968 L144.832,23.16 L144.896,23.224 L145.088,22.968 Z M144.896,22.008 C144.896,22.008 144.96,22.008 144.96,21.944 C145.088,21.816 145.152,21.688 145.152,21.56 C145.088,21.688 145.024,21.752 144.96,21.816 C144.896,21.88 144.896,21.944 144.896,22.008 Z M145.344,21.176 C145.408,21.176 145.472,21.112 145.536,20.984 C145.536,20.984 145.536,20.92 145.6,20.92 L145.6,20.728 C145.6,20.856 145.536,20.92 145.536,20.92 C145.472,20.92 145.472,20.984 145.472,20.984 L145.344,21.176 Z M146.685387,20.2181109 C146.688,20.1960739 146.688,20.174037 146.688,20.152 C146.688,20.1730094 146.688,20.1940189 146.683472,20.2150283 L146.685387,20.2181109 Z M146.56,19.192 L147.008,18.552 L147.328,17.848 L147.008,18.488 L146.56,19.192 Z M147.52,18.808 L147.648,18.552 L147.904,18.232 C147.776,18.36 147.712,18.488 147.584,18.552 L147.52,18.808 Z M149.184,14.584 C149.44,14.328 149.632,14.008 149.696,13.624 C149.568,13.752 149.504,13.944 149.44,14.072 C149.312,14.264 149.248,14.456 149.184,14.584 C149.12,14.712 148.992,14.84 148.864,15.096 C148.864,15.16 148.8,15.224 148.8,15.224 L148.928,15.096 L149.184,14.584 Z M149.76,14.904 L149.696,14.968 C149.696,15.096 149.632,15.16 149.632,15.16 L149.632,15.288 L149.76,14.904 Z M149.568,15.416 C149.504,15.48 149.504,15.48 149.44,15.48 C149.44,15.544 149.376,15.608 149.312,15.672 L149.568,15.416 Z M148.962782,16.4943818 C148.972367,16.4777602 148.982184,16.4596329 148.992,16.44 C148.982525,16.4589506 148.973049,16.4764984 148.963574,16.4926433 L148.962782,16.4943818 Z M148.352,16.184 L148.672,15.608 C148.544,15.736 148.48,15.8 148.48,15.864 C148.416,15.992 148.352,16.056 148.288,16.184 L148.032,16.568 C148.16,16.44 148.288,16.312 148.352,16.184 Z M148.16,17.656 L147.968,17.976 L148.224,17.656 L148.48,17.208 C148.352,17.336 148.288,17.4 148.288,17.464 C148.288,17.592 148.224,17.656 148.16,17.656 Z M150.144,12.536 L150.336,12.344 C150.336,12.28 150.4,12.216 150.528,12.088 L150.528,11.96 L150.464,12.088 L150.144,12.536 Z M152.32,11.256 L152.576,10.424 L152.32,11.192 L152.192,11.384 L152.32,11.256 Z M144.256,11.576 C143.872,12.024 143.552,12.408 143.36,12.664 C143.68,12.408 144.064,12.088 144.512,11.576 C144.96,11.128 145.344,10.68 145.792,10.168 C146.24,9.72 146.624,9.272 146.944,8.952 C147.264,8.568 147.392,8.376 147.456,8.248 C147.52,8.184 147.328,8.312 147.008,8.632 C146.688,9.016 146.048,9.592 145.216,10.488 C144.896,10.744 144.576,11.128 144.256,11.576 Z M146.112,10.68 L145.664,11.128 L145.92,10.936 C145.92,10.936 145.92,10.872 145.984,10.872 C146.048,10.808 146.048,10.808 146.112,10.68 Z M145.152,11.704 L145.216,11.64 L145.472,11.32 L145.216,11.576 C145.152002,11.6399981 145.152,11.7039961 145.152,11.704 Z M144.576,12.472 L144.192,12.92 C144.192,12.984 144.192,12.984 144.128,12.984 C144.064,12.984 144.064,13.048 144.064,13.048 L144.192,12.984 L144.576,12.536 L144.576,12.472 Z M143.573404,13.7056954 C143.51866,13.7424636 143.460768,13.7792318 143.424,13.816 C143.424,13.8394256 143.424,13.8628513 143.420862,13.8831384 L143.424,13.88 L143.573404,13.7056954 Z M143.420862,13.8831384 C143.415426,13.9182769 143.400574,13.944 143.36,13.944 L143.420862,13.8831384 Z M143.04,13.176 C142.464,13.56 142.08,14.072 141.888,14.712 C142.08,14.52 142.336,14.264 142.528,14.008 C142.72,13.752 142.912,13.496 143.04,13.176 Z M140.928,15.928 C140.864,15.992 140.864,16.056 140.864,16.056 L141.056,15.864 L141.376,15.352 L140.992,15.8 C140.992,15.864 140.992,15.928 140.928,15.928 Z M140.685205,16.2073687 C140.672,16.2256527 140.672,16.248 140.672,16.248 L140.16,16.952 L140.672,16.312 C140.672,16.2676621 140.672,16.2233242 140.69328,16.200266 L140.685205,16.2073687 Z M140.110733,20.0091415 C140.294646,19.8220943 140.420953,19.6350472 140.608,19.448 C140.736,19.32 140.864,19.128 140.992,18.872 C142.08,17.336 143.168,15.8 144.32,14.328 C145.408,12.856 146.688,11.448 148.032,10.04 L149.44,8.568 L149.696,8.312 L150.016,8.056 L149.376,8.44 C148.928,8.824 148.544,9.144 148.16,9.528 C147.712,9.848 147.328,10.232 147.008,10.616 C145.664,12.024 144.448,13.432 143.424,14.904 C142.336,16.376 141.312,17.848 140.352,19.384 C140.288,19.512 140.224,19.576 140.224,19.704 C140.171499,19.8090017 140.162066,19.9140033 140.125042,19.9836754 L140.110733,20.0091415 Z M139.392,21.112 L139.392,21.176 L139.52,21.112 L139.584,20.984 C139.52,20.984 139.456,21.048 139.392,21.112 Z M138.688,22.456 L138.56,22.712 C138.624,22.712 138.688,22.648 138.752,22.584 C138.752,22.584 138.752,22.52 138.816,22.456 L138.816,22.328 L138.688,22.456 Z M138.368,22.904 L138.368,23.16 C138.368,23.16 138.368,23.096 138.432,23.096 C138.496,23.032 138.496,23.032 138.496,22.968 L138.56,22.776 L138.496,22.84 C138.432,22.84 138.432,22.904 138.368,22.904 Z M137.664,24.312 L137.664,24.376 L137.792,24.376 L137.728,24.312 L137.664,24.312 Z M136.896,25.912 L136.832,26.04 L136.896,26.04 C136.96,25.976 136.96,25.976 136.96,25.912 C137.024,25.848 137.088,25.784 137.088,25.72 L137.024,25.656 C137.024,25.72 137.024,25.784 136.96,25.784 C136.896,25.848 136.896,25.912 136.896,25.912 Z M136.64,26.36 L136.512,26.616 C136.576,26.552 136.64,26.488 136.64,26.424 C136.704,26.296 136.768,26.232 136.832,26.168 L136.64,26.36 Z M140.16,20.536 C138.368,23.672 136.896,26.872 135.68,30.136 C134.784,32.504 133.952,34.744 133.248,36.92 C135.232,34.552 137.216,32.12 139.008,29.624 C141.696,25.976 144.256,22.136 146.624,18.104 C147.584,16.44 148.544,14.712 149.44,12.984 C150.336,11.256 151.104,9.464 151.744,7.608 C151.744,7.544 151.808,7.416 151.808,7.288 C149.952,8.632 148.224,10.04 146.752,11.64 C144.128,14.456 141.952,17.4 140.16,20.536 Z M153.792,39.224 L152.448,41.4 C151.296,43.576 150.08,45.752 148.864,47.864 C147.648,49.976 146.496,52.088 145.408,54.264 L144.384,56.568 C144.32,56.696 144.256,56.76 144.32,56.888 C144.32,57.016 144.32,57.144 144.256,57.208 L144.512,56.952 C144.576,56.824 144.576,56.76 144.64,56.632 L147.584,50.872 L153.28,40.632 C153.408,40.44 153.536,40.184 153.6,39.928 C153.664,39.672 153.728,39.48 153.792,39.224 Z M146.496,50.936 C146.56,51 146.56,51.064 146.56,51.064 L146.688,51 L146.56,50.872 L146.496,50.936 Z M152,39.736 C151.936,39.864 151.872,39.928 151.872,39.992 L152.064,39.8 L152.128,39.672 C152.064,39.672 152.064,39.736 152,39.736 Z M151.616,40.248 L151.616,40.44 C151.68,40.376 151.744,40.312 151.744,40.248 L151.808,40.056 L151.616,40.248 Z M151.104,41.464 L150.912,41.592 L150.976,41.592 C151.04,41.592 151.04,41.592 151.104,41.528 L151.104,41.464 Z M149.952,43.256 C149.888,43.384 149.888,43.384 149.952,43.384 L150.08,43.32 L150.144,43 L150.336,42.808 C150.4,42.808 150.4,42.744 150.4,42.744 C150.4,42.68 150.4,42.68 150.464,42.616 C150.528,42.616 150.528,42.552 150.464,42.552 C150.336,42.616 150.272,42.68 150.208,42.808 L150.144,43 C150.08,43.128 150.08,43.128 150.016,43.192 C149.952,43.192 149.952,43.256 149.952,43.256 Z M149.696,45.496 L149.632,45.624 L149.76,45.496 C149.824,45.496 149.824,45.432 149.824,45.432 C149.824,45.368 149.824,45.368 149.888,45.304 C149.888,45.304 149.888,45.24 149.824,45.24 C149.824,45.304 149.824,45.304 149.76,45.368 C149.696,45.368 149.696,45.432 149.696,45.496 Z M149.312,46.072 C149.248,46.2 149.12,46.392 149.056,46.52 L148.864,46.712 L148.8,46.904 C148.736,46.904 148.736,46.968 148.8,46.968 L148.992,46.712 L149.056,46.52 L149.632,45.688 C149.504,45.816 149.376,45.944 149.312,46.072 Z M148.672,45.688 C148.608,45.752 148.608,45.816 148.608,45.88 C148.608,45.88 148.672,45.816 148.736,45.688 C148.8,45.688 148.8,45.624 148.8,45.624 C148.8,45.56 148.8,45.56 148.864,45.496 C148.864,45.496 148.864,45.432 148.8,45.432 C148.8,45.496 148.8,45.496 148.736,45.56 C148.672,45.56 148.672,45.624 148.672,45.688 Z M148.288,46.392 C148.352,46.264 148.48,46.136 148.544,45.944 C148.48,46.2 148.288,46.456 148.032,46.776 C148.096,46.648 148.224,46.52 148.288,46.392 Z M147.712,49.08 C147.776,49.08 147.776,49.016 147.712,48.952 L147.52,49.336 L147.584,49.336 L147.584,49.272 C147.648,49.272 147.712,49.208 147.712,49.08 Z M147.392,47.864 L147.328,48.056 C147.392,48.056 147.456,48.056 147.456,47.928 L147.584,47.8 C147.52,47.736 147.52,47.736 147.584,47.672 L147.392,47.864 Z M147.196862,49.7871384 C147.191426,49.8222769 147.176574,49.848 147.136,49.848 L147.196862,49.7871384 Z M147.196862,49.7871384 L147.328,49.656 L147.392,49.464 L147.264,49.592 C147.2,49.656 147.136,49.72 147.2,49.72 C147.2,49.7434256 147.2,49.7668513 147.196862,49.7871384 Z M146.56,49.528 C146.56,49.528 146.56,49.592 146.496,49.656 C146.56,49.656 146.624,49.592 146.688,49.528 C146.688,49.528 146.688,49.464 146.752,49.4 C146.816,49.4 146.816,49.336 146.816,49.336 C146.752,49.272 146.752,49.272 146.816,49.208 L146.624,49.336 C146.56,49.464 146.496,49.464 146.56,49.528 Z M146.304,49.848 C146.24,49.912 146.24,49.976 146.24,50.04 L146.304,50.104 C146.368,50.04 146.432,49.976 146.432,49.848 L146.496,49.72 C146.432,49.72 146.368,49.784 146.304,49.848 Z M145.984,52.024 L145.984,52.152 L146.112,52.152 L146.112,52.024 L145.984,52.024 Z M145.536,51.32 L145.536,51.512 L145.728,51.32 L145.728,51.128 L145.536,51.32 Z M144.96,52.6 C144.896,52.664 144.896,52.728 144.896,52.792 C144.96,52.792 145.024,52.792 145.024,52.664 C145.088,52.664 145.088,52.6 145.024,52.472 C145.024,52.536 145.024,52.6 144.96,52.6 Z M144.768,54.712 L144.64,54.776 C144.704,54.776 144.704,54.776 144.704,54.84 L144.768,54.84 L144.768,54.776 C144.832,54.776 144.832,54.712 144.768,54.712 Z M144.237114,54.2639822 C144.243071,54.264 144.249363,54.264 144.256,54.264 C144.256,54.264 144.256,54.2630565 144.256115,54.2612841 L144.237114,54.2639822 Z M143.424,55.672 L143.424,56.056 C143.424,56.056 143.424,55.992 143.488,55.992 C143.552,55.928 143.552,55.928 143.616,55.8 L143.616,55.48 L143.424,55.672 Z M143.296,59.32 L142.976,60.408 C143.104,60.408 143.232,60.408 143.296,60.344 C143.488,59.96 143.552,59.64 143.616,59.256 C143.68,58.936 143.744,58.616 143.744,58.36 C143.68,58.552 143.616,58.68 143.552,58.872 C143.488,59 143.36,59.192 143.296,59.32 Z M142.272,58.872 L142.592,58.488 L142.464,58.232 C142.4,58.36 142.336,58.424 142.336,58.488 C142.272,58.616 142.272,58.744 142.272,58.872 Z M147.392,61.432 L147.264,61.496 L147.328,61.432 L147.392,61.432 Z M150.016,60.536 L149.632,60.984 C149.696,60.92 149.824,60.792 150.016,60.536 Z M152.512,55.8 C152.512,55.736 152.576,55.736 152.576,55.672 C152.576,55.736 152.512,55.736 152.512,55.8 L152.448,55.8 L152.512,55.8 Z M152.416258,55.8583292 C152.427026,55.840229 152.437513,55.8209737 152.448,55.8 C152.448,55.8289645 152.434891,55.8448206 152.42054,55.8594332 L152.416258,55.8583292 Z M152.42054,55.8594332 C152.403179,55.8771085 152.384,55.8929645 152.384,55.928 L152.192,56.12 C152.299026,56.0129737 152.361308,55.950692 152.416258,55.8583292 L152.42054,55.8594332 Z M153.92,56.152 C153.936,56.136 153.952,56.12 153.984,56.12 L153.92,56.152 Z M153.92,56.152 C153.904,56.168 153.888,56.184 153.856,56.184 L153.92,56.152 Z M155.456,52.152 L155.456,52.088 L155.52,52.088 L155.456,52.152 Z M185.044758,47.8459821 C184.997314,47.8998066 184.97392,47.9387507 184.953051,47.9628144 C184.975122,47.9617555 184.99111,47.9297802 185.024,47.864 C185.024,47.864 185.031833,47.8561672 185.044758,47.8459821 Z M184.953051,47.9628144 C184.936176,47.9822715 184.920952,47.992 184.896,47.992 C184.92711,47.992 184.943098,47.992 184.958664,47.9772984 L184.953051,47.9628144 Z M185.044758,47.8459821 C185.057345,47.8317021 185.071625,47.8163748 185.088,47.8 L185.152,47.8 C185.11039,47.8 185.068779,47.8270534 185.044758,47.8459821 Z M181.504,53.56 C181.504,53.496 181.632,53.304 181.632,53.24 L181.504,53.56 Z M182.4,52.024 L181.952,52.856 L181.632,53.24 L181.888,52.856 L182.336,52.024 L183.168,51.064 L182.4,52.024 Z M188.124708,45.5901125 L188.16,45.496 C188.145778,45.5244444 188.134716,45.5560494 188.124708,45.5901125 Z M187.648,44.216 L187.904,43.96 L187.84,43.96 L187.648,44.216 Z M185.088,47.672 L185.344,47.352 C185.216,47.48 185.152,47.544 185.088,47.672 Z M186.970233,45.6004704 C186.9687,45.5890655 186.960716,45.5767157 186.944,45.56 C186.960643,45.5766429 186.96863,45.588958 186.971338,45.6003214 L186.970233,45.6004704 Z M186.261786,45.8400586 L186.624,45.176 L186.304,45.816 C186.287961,45.8240195 186.273932,45.8320391 186.261786,45.8400586 Z M186.261786,45.8400586 C186.177005,45.8960391 186.18402,45.9520195 186.24,46.008 C186.176,45.944 186.176,45.944 186.24,45.88 L186.261786,45.8400586 Z M186.0224,47.2752 L185.664,47.736 C185.7152,47.5824 185.88928,47.4288 186.0224,47.2752 Z M186.0224,47.2752 C186.05568,47.2368 186.0864,47.1984 186.112,47.16 L186.0224,47.2752 Z M186.433592,48.6512106 L186.369891,48.736145 C186.393517,48.7126677 186.414311,48.6852351 186.433592,48.6512106 Z M185.922351,49.3976494 C185.891986,49.4161871 185.866292,49.4391999 185.842589,49.4774114 L185.922351,49.3976494 Z M186.048,46.392 C185.984,46.456 185.92,46.648 185.856,46.776 L185.6,46.84 L185.728,46.584 L186.048,46.392 Z M180.8,57.592 L181.184,56.888 C180.928,57.016 180.8,57.272 180.8,57.592 Z M177.472,61.88 L177.408,62.072 L177.6,62.072 C176.896,63.48 175.808,64.568 174.656,65.656 C173.504,66.68 172.416,66.68 171.392,66.36 C170.432,65.976 170.048,64.888 169.92,63.736 C169.728,62.136 170.112,60.472 170.496,58.936 C171.008,56.44 172.032,53.944 173.056,51.512 C173.184,51.128 173.568,50.68 173.248,50.36 C172.992,50.552 172.736,50.872 172.48,51.192 C170.176,53.816 168,56.312 165.696,58.872 C164.672,59.896 163.392,60.984 162.24,61.816 C159.68,63.608 158.592,63.48 156.8,62.008 C155.328,60.92 155.264,59.064 155.712,56.952 C156.032,55.352 156.672,53.752 157.504,52.28 C160.896,46.776 164.928,42.232 170.24,39.032 C172.096,37.944 173.888,37.048 175.872,36.472 C177.472,36.024 178.88,36.088 180.288,36.728 C180.672,36.984 181.12,37.368 181.568,37.752 C181.76,37.88 181.76,38.2 181.824,38.456 C181.568,38.456 181.376,38.392 181.12,38.328 C179.648,37.624 177.984,38.008 176.256,38.648 C173.76,39.48 171.456,40.952 169.28,42.552 C165.312,45.624 162.112,49.464 159.552,53.88 C158.72,55.288 158.016,56.696 157.696,58.232 C157.568,59.064 157.504,59.832 157.632,60.6 C157.632,61.24 157.888,61.304 158.4,61.176 C158.72,61.112 158.976,60.984 159.296,60.792 C160.704,60.28 161.92,59.384 163.072,58.232 C164.416,56.888 165.824,55.544 167.104,54.072 L175.744,43.768 L177.408,41.72 C177.664,41.4 178.048,41.272 178.368,41.464 C178.56,41.528 178.816,41.656 179.008,41.784 C179.712,42.424 179.648,42.552 179.2,43.64 C177.216,47.416 175.424,51.256 173.888,55.096 C172.928,57.592 172.032,60.024 171.648,62.52 C171.648,63.224 171.648,63.928 171.712,64.568 C171.712,65.08 171.904,65.144 172.416,64.888 C172.8,64.632 173.184,64.312 173.376,63.992 C174.464,62.968 175.36,61.944 176.256,60.92 L177.088,59.96 L176.448,61.048 C176.192,61.432 176,61.752 175.808,62.072 C175.808,62.072 175.744,62.072 175.68,62.136 L175.808,62.136 C176.32,61.688 176.64,61.176 177.152,60.536 C179.904,56.888 182.4,53.048 184.768,49.144 C185.088,48.696 185.28,48.248 185.664,47.8 L185.152,49.016 C182.528,53.112 179.968,57.208 177.152,61.176 C176.832,61.624 176.256,62.136 176.32,62.776 C176.064,63.224 175.744,63.608 175.36,63.992 L175.36,64.056 L175.424,63.992 C176.064,63.736 176.64,63.16 176.768,62.456 L177.024,62.2 L177.216,62.2 L177.216,62.136 L177.28,62.136 L177.472,61.88 Z M166.784,43.768 L166.272,44.088 C165.568,44.536 163.52,46.84 163.52,46.84 L163.328,47.096 C163.2,47.16 163.136,47.288 163.008,47.416 L162.752,47.672 L161.216,49.784 C161.152,49.912 161.024,50.04 160.896,50.104 L160.32,51.256 C160,51.448 159.872,51.64 159.808,52.024 C159.808,52.088 159.616,52.216 159.68,52.216 C159.808,52.28 159.808,52.216 159.872,52.024 L160.384,51.384 L161.088,50.232 L161.28,49.976 C161.856,49.208 162.432,48.504 162.944,47.8 L163.136,47.544 C163.264,47.416 163.392,47.352 163.456,47.224 L163.712,47.032 L165.504,45.048 L166.4,44.152 C166.464,44.024 166.592,43.896 166.784,43.768 Z M166.016,43.512 C165.12,44.216 162.624,46.904 161.984,47.928 C162.304,47.608 165.504,44.024 166.016,43.512 Z M157.312,53.688 C159.36,50.744 161.664,47.352 161.664,47.352 L161.856,47.032 L162.432,46.456 L162.624,46.2 L162.816,46.008 L163.008,45.624 L162.752,45.88 L162.56,46.2 L162.112,46.712 L161.792,47.032 L161.6,47.288 C161.536,47.352 158.528,51.064 157.312,53.688 Z M176.512,43.512 C176.064,43.896 172.48,48.312 172.224,48.888 C172.736,48.568 176.256,44.088 176.512,43.512 Z M167.296,54.456 C167.232,54.52 167.168,54.584 167.168,54.648 L167.296,54.52 C167.36,54.328 171.264,50.232 171.712,49.656 C171.648,49.528 167.296,54.456 167.296,54.456 Z M166.336,55.544 C166.336,55.608 166.208,55.736 166.208,55.8 L166.656,55.288 L166.336,55.544 Z M165.76,56.376 L166.144,55.864 L165.76,56.376 Z M164.928,58.808 C164.928,58.744 165.056,58.744 164.992,58.68 C164.928,58.68 164.928,58.744 164.864,58.744 L164.736,59 L164.928,58.808 Z M165.376,58.296 C165.376,58.296 166.336,57.464 166.208,57.4 C166.144,57.4 165.312,58.232 165.312,58.232 C165.248,58.36 165.248,58.36 165.248,58.424 C165.312,58.424 165.312,58.424 165.376,58.296 Z M170.176,53.112 C171.264,51.768 172.416,50.36 173.504,48.952 L173.824,48.696 L174.016,48.504 C174.08,48.312 174.208,48.248 174.272,48.184 L174.592,47.544 C174.528,47.672 174.4,47.736 174.336,47.736 C174.208,47.928 174.144,47.992 174.08,48.056 L173.888,48.312 L173.632,48.632 L173.376,48.888 C172.928,49.4 172.544,49.912 172.032,50.36 L167.168,56.248 L166.976,56.568 L166.656,56.824 L166.4,57.144 L166.272,57.4 L166.464,57.144 L166.784,56.952 C166.784,56.824 166.912,56.696 167.04,56.632 L167.232,56.376 C168.256,55.224 169.216,54.2 170.176,53.112 Z M174.928,63.128 C174.88,63.192 174.848,63.256 174.848,63.288 C174.88,63.224 174.912,63.176 174.952,63.128 L174.928,63.128 Z M175.232,62.712 C175.36,62.648 175.424,62.52 175.488,62.392 L175.232,62.712 Z M180.032,58.68 L180.48,57.912 C180.224,58.104 180.032,58.36 180.032,58.68 Z M178.932995,57.3330088 L179.008,57.208 C178.96633,57.2496696 178.945009,57.2913392 178.932995,57.3330088 Z M178.932995,57.3330088 C178.908104,57.4193392 178.923165,57.5056696 178.88,57.592 L178.112,58.552 L178.816,57.528 L178.932995,57.3330088 Z M177.792,61.56 L178.432,60.792 L178.624,60.728 L177.664,61.944 L177.792,61.56 Z M178.624,60.728 L178.432,60.536 L179.264,59.704 C179.072,60.024 178.88,60.408 178.624,60.728 Z M180.48,57.912 L180.8,57.592 C180.736,57.656 180.608,57.72 180.48,57.912 Z M184.832,51.256 L185.344,50.36 C185.152,50.488 185.088,50.68 185.024,50.872 L184.832,51.256 Z M182.976,54.2 L183.168,53.944 L183.232,53.944 C183.168,53.944 183.168,54.008 183.168,54.008 L182.976,54.2 Z M181.952,55.736 L182.4,55.096 C182.208,55.224 181.952,55.48 181.952,55.736 Z M179.328,59.64 L179.328,59.448 L179.968,58.744 L179.328,59.64 Z M181.823979,55.9920107 C181.823993,55.9920036 181.824,55.992 181.824,55.992 C181.824,55.992 181.823993,55.9920036 181.823978,55.9920108 L181.823979,55.9920107 Z M181.823978,55.9920108 C181.822083,55.9929623 181.696,56.0564811 181.696,56.12 C181.696,56.312 181.632,56.44 181.504,56.568 L181.632,56.056 C181.695521,56.056 181.822086,55.9929553 181.823979,55.9920107 L181.823978,55.9920108 Z M202.112,49.08 L201.728,49.528 L201.92,49.08 L202.112,49.08 Z M200.96,48.952 L201.088,48.824 L201.472,48.376 L201.472,48.44 C201.344,48.568 201.216,48.696 201.088,48.888 C201.024,48.888 200.96,48.952 200.96,48.952 Z M201.216,50.616 L202.304,49.784 C200.832,51.896 190.848,63.992 188.928,65.784 C188.096,66.552 187.2,66.872 186.304,66.808 C184.448,66.744 183.232,65.976 183.04,64.12 C182.848,61.752 183.04,59.256 183.488,56.76 C183.936,53.688 184.704,50.552 185.856,47.416 C186.88,44.344 188.096,41.336 189.376,38.264 C190.72,34.808 192.256,31.416 193.984,28.024 C193.984,27.96 193.984,27.96 194.048,27.896 C194.368,27.192 194.176,27.064 193.472,27.256 C192.768,27.448 191.936,27.704 191.232,27.96 L189.376,28.6 C188.992,28.792 188.672,28.792 188.416,28.6 L187.392,27.896 C187.904,27.64 188.288,27.256 188.8,27.128 C190.592,26.552 192.32,26.04 194.048,25.592 C195.328,25.272 195.328,25.336 195.904,24.184 C198.272,19.64 200.768,15.16 203.584,10.744 L203.904,10.296 C204.608,9.208 204.864,9.144 205.76,9.72 C206.4,10.36 206.528,10.488 205.888,11.64 L201.216,20.216 C200.576,21.496 199.936,22.712 199.296,23.928 C198.848,24.696 198.976,24.824 199.808,24.888 C205.504,25.144 206.208,25.784 207.168,30.584 C205.12,26.36 204.096,25.592 199.296,26.104 C198.208,26.232 198.144,26.232 197.568,27.32 C196.288,30.008 195.008,32.696 193.792,35.384 C191.744,40.056 190.016,44.728 188.352,49.464 C186.752,53.88 185.856,58.296 185.664,62.648 C185.6,63.416 185.6,64.184 185.664,64.952 C185.728,65.528 186.752,66.552 199.808,50.232 C200.128,49.976 200.448,49.656 200.704,49.336 L200.512,49.912 L201.92,49.08 L201.536,49.528 L201.472,49.528 L201.152,49.976 C201.344,49.848 201.472,49.656 201.536,49.528 L201.216,50.616 Z M199.488,51.064 C199.616,50.936 199.744,50.808 199.872,50.616 L199.488,51.064 Z M199.872,50.552 L200.512,49.976 C200.32,50.104 200.128,50.296 199.872,50.552 Z M200.162519,51.7403848 L200.128,51.768 C200.137143,51.7588571 200.148898,51.7497143 200.162519,51.7403848 Z" id="What" fill="#805278"></path>
                <path d="M34.156,109 L28.874,84.072 L32.142,84.072 L34.764,97.638 C34.9920011,99.0060068 35.2326654,100.34866 35.486,101.666 C35.7393346,102.98334 35.9799989,104.325993 36.208,105.694 L36.36,105.694 C36.6386681,104.325993 36.9299985,102.977007 37.234,101.647 C37.5380015,100.316993 37.8293319,98.9806734 38.108,97.638 L41.566,84.072 L44.454,84.072 L47.912,97.638 C48.2160015,98.9553399 48.5199985,100.285327 48.824,101.628 C49.1280015,102.970673 49.4319985,104.325993 49.736,105.694 L49.888,105.694 C50.1160011,104.325993 50.3439989,102.977007 50.572,101.647 C50.8000011,100.316993 51.0406654,98.9806734 51.294,97.638 L53.916,84.072 L56.956,84.072 L51.788,109 L47.988,109 L44.226,93.99 C43.9979989,93.0273285 43.789001,92.0836713 43.599,91.159 C43.4089991,90.2343287 43.2126677,89.2906715 43.01,88.328 L42.858,88.328 C42.6553323,89.2906715 42.4463344,90.2343287 42.231,91.159 C42.0156656,92.0836713 41.8066677,93.0273285 41.604,93.99 L37.918,109 L34.156,109 Z M64.4546667,109 L64.4546667,84.072 L78.8186667,84.072 L78.8186667,86.732 L67.6086667,86.732 L67.6086667,94.56 L77.0706667,94.56 L77.0706667,97.258 L67.6086667,97.258 L67.6086667,106.302 L79.1986667,106.302 L79.1986667,109 L64.4546667,109 Z M107.838,109.456 C106.267326,109.456 104.82334,109.16467 103.506,108.582 C102.18866,107.99933 101.042338,107.157006 100.067,106.055 C99.091662,104.952994 98.3316696,103.597675 97.7870002,101.989 C97.2423308,100.380325 96.9700002,98.5626768 96.9700002,96.536 C96.9700002,94.5346567 97.2486641,92.736008 97.8060002,91.14 C98.3633364,89.543992 99.1359953,88.1886722 100.124,87.074 C101.112005,85.9593278 102.277327,85.1043363 103.62,84.509 C104.962674,83.9136637 106.431992,83.616 108.028,83.616 C109.548008,83.616 110.884328,83.9263302 112.037,84.547 C113.189673,85.1676698 114.13333,85.8833293 114.868,86.694 L113.158,88.746 C112.49933,88.0366631 111.752004,87.4666688 110.916,87.036 C110.079996,86.6053312 109.130006,86.39 108.066,86.39 C106.875328,86.39 105.798672,86.624331 104.836,87.093 C103.873329,87.561669 103.050004,88.2329956 102.366,89.107 C101.681997,89.9810044 101.156335,91.0386605 100.789,92.28 C100.421665,93.5213395 100.238,94.9146589 100.238,96.46 C100.238,98.0306745 100.421665,99.4429937 100.789,100.697 C101.156335,101.951006 101.66933,103.021329 102.328,103.908 C102.98667,104.794671 103.790995,105.478664 104.741,105.96 C105.691005,106.441336 106.761328,106.682 107.952,106.682 C109.168006,106.682 110.231996,106.435002 111.144,105.941 C112.056005,105.446998 112.91733,104.756671 113.728,103.87 L115.476,105.846 C114.487995,106.986006 113.37334,107.872663 112.132,108.506 C110.890661,109.139336 109.459342,109.456 107.838,109.456 Z M123.278667,109 L123.278667,84.072 L131.068667,84.072 C132.33534,84.072 133.506995,84.1923321 134.583667,84.433 C135.660339,84.6736679 136.584996,85.0726639 137.357667,85.63 C138.130338,86.1873361 138.731998,86.9093289 139.162667,87.796 C139.593336,88.6826711 139.808667,89.7719935 139.808667,91.064 C139.808667,93.0146764 139.302005,94.5726608 138.288667,95.738 C137.275329,96.9033392 135.907342,97.7013312 134.184667,98.132 L140.530667,109 L136.958667,109 L130.954667,98.474 L126.432667,98.474 L126.432667,109 L123.278667,109 Z M126.432667,95.89 L130.612667,95.89 C132.563343,95.89 134.057995,95.491004 135.096667,94.693 C136.135339,93.894996 136.654667,92.6853414 136.654667,91.064 C136.654667,89.4173251 136.135339,88.26467 135.096667,87.606 C134.057995,86.94733 132.563343,86.618 130.612667,86.618 L126.432667,86.618 L126.432667,95.89 Z M148.067334,109 L148.067334,84.072 L162.431334,84.072 L162.431334,86.732 L151.221334,86.732 L151.221334,94.56 L160.683334,94.56 L160.683334,97.258 L151.221334,97.258 L151.221334,106.302 L162.811334,106.302 L162.811334,109 L148.067334,109 Z M175.554,95.054 L174.376,98.854 L181.862,98.854 L180.684,95.054 C180.227998,93.6606597 179.797336,92.2736736 179.392,90.893 C178.986665,89.5123264 178.581336,88.1000072 178.176,86.656 L178.024,86.656 C177.643999,88.1000072 177.251336,89.5123264 176.846,90.893 C176.440665,92.2736736 176.010003,93.6606597 175.554,95.054 Z M167.954,109 L176.39,84.072 L179.962,84.072 L188.398,109 L185.016,109 L182.66,101.4 L173.578,101.4 L171.184,109 L167.954,109 Z M198.176667,109 L198.176667,86.732 L190.652667,86.732 L190.652667,84.072 L208.892667,84.072 L208.892667,86.732 L201.368667,86.732 L201.368667,109 L198.176667,109 Z M216.543334,109 L216.543334,84.072 L230.907334,84.072 L230.907334,86.732 L219.697334,86.732 L219.697334,94.56 L229.159334,94.56 L229.159334,97.258 L219.697334,97.258 L219.697334,106.302 L231.287334,106.302 L231.287334,109 L216.543334,109 Z" id="WE-CREATE" fill="#424242"></path>
            </g>
        </g>
    </g>
</svg>