<?xml version="1.0" encoding="UTF-8" standalone="no"?>
<svg width="330px" height="109px" viewBox="0 0 330 109" version="1.1" xmlns="http://www.w3.org/2000/svg" xmlns:xlink="http://www.w3.org/1999/xlink">
    <!-- Generator: Sketch 50.2 (55047) - http://www.bohemiancoding.com/sketch -->
    <title>about-banner</title>
    <desc>Created with Sketch.</desc>
    <defs></defs>
    <g id="Page-1" stroke="none" stroke-width="1" fill="none" fill-rule="evenodd">
        <g id="Fonts-and-colors" transform="translate(-651.000000, -848.000000)">
            <g id="about-banner" transform="translate(651.000000, 848.000000)">
                <path d="M33.5,67.5 L296.507604,67.5" id="Line-3-Copy" stroke="#805278" stroke-linecap="round" stroke-linejoin="round"></path>
                <path d="M300.75,72.9673112 C300.75,72.8752297 300.770566,72.779313 300.811698,72.679558 C300.85283,72.5798031 300.914527,72.4915596 300.996792,72.414825 L312.744077,61.4571823 C312.908606,61.3190601 313.106037,61.25 313.336377,61.25 C313.566717,61.25 313.764149,61.3190601 313.928677,61.4571823 L325.503208,72.2767035 C325.667737,72.4301727 325.75,72.6143329 325.75,72.8291897 C325.75,73.0440465 325.667737,73.2282067 325.503208,73.3816759 C325.33868,73.535145 325.141248,73.6118785 324.910908,73.6118785 C324.680568,73.6118785 324.483137,73.535145 324.318608,73.3816759 L313.336377,63.1376611 L302.181392,73.5197974 C302.016863,73.6732666 301.819432,73.75 301.589092,73.75 C301.358752,73.75 301.16132,73.6732666 300.996792,73.5197974 C300.914527,73.4430628 300.85283,73.3586561 300.811698,73.2665746 C300.770566,73.1744931 300.75,73.0747396 300.75,72.9673112 Z" id="Swipe-Up-Copy" fill="#805278" transform="translate(313.250000, 67.500000) rotate(-270.000000) translate(-313.250000, -67.500000) "></path>
                <path d="M-5.77705832,72.9673112 C-5.77705832,72.8752297 -5.75649255,72.779313 -5.71536039,72.679558 C-5.67422824,72.5798031 -5.61253093,72.4915596 -5.53026661,72.414825 L6.21701868,61.4571823 C6.38154731,61.3190601 6.5789787,61.25 6.80931878,61.25 C7.03965886,61.25 7.23709025,61.3190601 7.40161888,61.4571823 L18.97615,72.2767035 C19.1406786,72.4301727 19.2229417,72.6143329 19.2229417,72.8291897 C19.2229417,73.0440465 19.1406786,73.2282067 18.97615,73.3816759 C18.8116213,73.535145 18.61419,73.6118785 18.3838499,73.6118785 C18.1535098,73.6118785 17.9560784,73.535145 17.7915498,73.3816759 L6.80931878,63.1376611 L-4.34566642,73.5197974 C-4.51019504,73.6732666 -4.70762644,73.75 -4.93796651,73.75 C-5.16830659,73.75 -5.36573799,73.6732666 -5.53026661,73.5197974 C-5.61253093,73.4430628 -5.67422824,73.3586561 -5.71536039,73.2665746 C-5.75649255,73.1744931 -5.77705832,73.0747396 -5.77705832,72.9673112 Z" id="Swipe-Up-Copy-2" fill="#805278" transform="translate(6.722942, 67.500000) scale(-1, 1) rotate(-270.000000) translate(-6.722942, -67.500000) "></path>
                <path d="M310.75,72.9673112 C310.75,72.8752297 310.770566,72.779313 310.811698,72.679558 C310.85283,72.5798031 310.914527,72.4915596 310.996792,72.414825 L322.744077,61.4571823 C322.908606,61.3190601 323.106037,61.25 323.336377,61.25 C323.566717,61.25 323.764149,61.3190601 323.928677,61.4571823 L335.503208,72.2767035 C335.667737,72.4301727 335.75,72.6143329 335.75,72.8291897 C335.75,73.0440465 335.667737,73.2282067 335.503208,73.3816759 C335.33868,73.535145 335.141248,73.6118785 334.910908,73.6118785 C334.680568,73.6118785 334.483137,73.535145 334.318608,73.3816759 L323.336377,63.1376611 L312.181392,73.5197974 C312.016863,73.6732666 311.819432,73.75 311.589092,73.75 C311.358752,73.75 311.16132,73.6732666 310.996792,73.5197974 C310.914527,73.4430628 310.85283,73.3586561 310.811698,73.2665746 C310.770566,73.1744931 310.75,73.0747396 310.75,72.9673112 Z" id="Swipe-Up-Copy" fill="#805278" transform="translate(323.250000, 67.500000) rotate(-270.000000) translate(-323.250000, -67.500000) "></path>
                <path d="M4.22294168,72.9673112 C4.22294168,72.8752297 4.24350745,72.779313 4.28463961,72.679558 C4.32577176,72.5798031 4.38746907,72.4915596 4.46973339,72.414825 L16.2170187,61.4571823 C16.3815473,61.3190601 16.5789787,61.25 16.8093188,61.25 C17.0396589,61.25 17.2370902,61.3190601 17.4016189,61.4571823 L28.97615,72.2767035 C29.1406786,72.4301727 29.2229417,72.6143329 29.2229417,72.8291897 C29.2229417,73.0440465 29.1406786,73.2282067 28.97615,73.3816759 C28.8116213,73.535145 28.61419,73.6118785 28.3838499,73.6118785 C28.1535098,73.6118785 27.9560784,73.535145 27.7915498,73.3816759 L16.8093188,63.1376611 L5.65433358,73.5197974 C5.48980496,73.6732666 5.29237356,73.75 5.06203349,73.75 C4.83169341,73.75 4.63426201,73.6732666 4.46973339,73.5197974 C4.38746907,73.4430628 4.32577176,73.3586561 4.28463961,73.2665746 C4.24350745,73.1744931 4.22294168,73.0747396 4.22294168,72.9673112 Z" id="Swipe-Up-Copy-3" fill="#805278" transform="translate(16.722942, 67.500000) scale(-1, 1) rotate(-270.000000) translate(-16.722942, -67.500000) "></path>
                <path d="M173.368,8.12 C173.816,10.168 174.136,12.28 174.328,14.392 C174.52,16.504 174.648,18.616 174.712,20.856 C174.712,22.328 174.712,23.864 174.648,25.336 C174.584,26.808 174.456,28.28 174.264,29.816 C174.136,31.288 173.88,32.76 173.56,34.232 C173.24,35.704 172.856,37.112 172.408,38.584 C171.832,40.76 171.128,42.936 170.36,45.048 C169.528,47.16 168.632,49.336 167.672,51.512 C166.456,54.008 165.112,56.376 163.768,58.744 C162.36,61.048 160.76,63.288 158.904,65.528 C157.56,67.064 156.152,68.472 154.68,69.688 C153.208,70.904 151.672,71.992 150.008,72.952 C148.152,74.04 146.296,74.744 144.376,75.064 C140.856,75.896 138.36,74.808 137.016,71.928 C136.44,70.776 135.992,69.56 135.736,68.28 C135.48,67 135.288,65.656 135.096,64.248 C135.032,62.776 135.032,61.304 135.096,59.832 C135.16,58.36 135.288,56.952 135.48,55.48 C135.672,53.688 135.928,51.96 136.248,50.296 C136.568,48.568 136.888,46.904 137.272,45.176 L139.512,35.64 L139.512,35.384 C139.448,35.32 139.448,35.192 139.448,35.128 C139.384,35.192 139.32,35.32 139.256,35.384 L139.064,35.576 L136.952,39.032 C136.568,39.672 136.056,40.568 135.352,41.784 C134.648,42.936 133.816,44.216 132.984,45.624 C132.088,47.032 131.128,48.504 130.168,50.104 C129.208,51.64 128.248,53.112 127.352,54.52 C126.456,55.928 125.624,57.208 124.92,58.36 C124.152,59.512 123.576,60.408 123.128,61.048 C122.552,61.752 121.976,62.52 121.4,63.224 C120.824,63.928 120.12,64.632 119.416,65.272 C118.712,65.976 117.944,66.424 117.112,66.744 C116.28,67.064 115.512,67.192 114.808,67.128 C114.104,67.064 113.464,66.808 112.888,66.424 C112.312,66.04 111.864,65.464 111.672,64.76 C111.352,63.736 111.096,62.648 111.032,61.56 C110.968,60.472 110.968,59.32 111.032,58.168 C111.16,56.312 111.416,54.52 111.8,52.728 L112.76,48.696 C112.696,48.696 112.696,48.632 112.696,48.632 C110.584,47.864 108.92,46.776 107.704,45.304 C106.552,43.896 106.168,42.168 106.68,40.12 C106.808,39.288 107.064,38.456 107.448,37.688 C107.768,36.92 108.216,36.088 108.728,35.32 C109.368,34.296 110.136,33.336 110.904,32.376 C111.672,31.416 112.504,30.52 113.4,29.624 C114.936,28.152 116.536,26.872 118.328,25.72 C120.056,24.504 121.976,23.416 123.96,22.392 C124.792,22.008 125.624,21.624 126.456,21.304 C127.352,20.664 128.12,20.536 128.888,20.92 L129.528,21.432 C129.592,21.496 129.656,21.56 129.656,21.624 C129.656,21.688 129.72,21.816 129.848,21.88 C129.656,22.008 129.464,22.072 129.272,22.072 C129.016,22.136 128.824,22.264 128.632,22.456 C128.568,22.456 128.504,22.52 128.504,22.52 C128.504,22.584 128.504,22.648 128.568,22.648 C128.44,22.712 128.376,22.776 128.248,22.776 C128.184,22.904 128.12,22.968 127.992,23.096 C127.48,23.672 126.968,24.312 126.52,24.952 C126.008,25.592 125.496,26.232 125.048,26.872 C124.152,28.216 123.384,29.56 122.68,30.904 C121.976,32.248 121.336,33.656 120.76,35 C119.8,37.304 118.904,39.608 118.136,41.848 C117.368,44.088 116.664,46.328 116.088,48.568 C116.088,48.632 116.024,48.76 116.024,48.824 C117.624,49.272 119.288,49.656 120.76,49.912 L120.632,49.912 C119.224,49.912 117.88,49.784 116.536,49.656 C116.28,49.592 116.088,49.528 115.896,49.528 C115.576,50.744 115.32,51.896 115.064,53.112 C114.744,54.584 114.552,56.056 114.424,57.528 C114.296,58.616 114.232,59.64 114.232,60.664 C114.232,61.688 114.36,62.648 114.552,63.608 C114.616,63.928 114.68,64.184 114.808,64.44 C114.936,64.632 115.064,64.888 115.128,65.144 C115.192,65.336 115.32,65.464 115.512,65.464 C115.704,65.464 115.832,65.336 116.024,65.144 C116.344,64.952 116.664,64.696 116.984,64.44 C117.24,64.12 117.496,63.864 117.816,63.608 C118.712,62.712 119.544,61.752 120.248,60.728 C120.952,59.64 121.656,58.616 122.36,57.528 C122.936,56.696 123.64,55.544 124.536,54.2 C125.368,52.792 126.328,51.256 127.416,49.656 C128.44,47.992 129.528,46.264 130.616,44.472 C131.704,42.616 132.728,40.888 133.752,39.224 C134.776,37.56 135.736,36.024 136.568,34.616 C137.4,33.208 138.04,32.056 138.552,31.16 C139,30.328 139.512,29.432 140.024,28.6 L141.56,25.912 C142.008,25.208 142.392,24.696 142.776,24.504 C143.16,24.312 143.672,24.248 144.312,24.44 C144.504,24.504 144.632,24.504 144.76,24.568 C144.824,24.632 144.952,24.696 145.08,24.76 C145.272,24.952 145.464,25.08 145.528,25.272 C145.592,25.464 145.592,25.656 145.528,25.912 L145.208,27.512 C144.632,29.816 143.992,32.12 143.416,34.36 C142.776,36.6 142.136,38.904 141.56,41.144 C140.856,43.832 140.28,46.52 139.768,49.144 C139.256,51.768 138.872,54.328 138.68,56.952 C138.488,58.872 138.36,60.728 138.424,62.584 C138.488,64.376 138.68,66.104 139.128,67.704 C139.256,68.536 139.448,69.368 139.768,70.072 C140.088,70.776 140.408,71.416 140.856,72.056 C142.072,73.848 143.928,74.168 146.488,73.08 C147.384,72.632 148.28,72.12 149.112,71.608 C149.944,71.032 150.776,70.456 151.608,69.752 C153.08,68.408 154.488,67 155.704,65.528 C156.92,64.056 158.072,62.456 159.16,60.856 C161.208,57.784 163,54.648 164.472,51.384 C165.944,48.12 167.288,44.792 168.376,41.4 C168.888,39.8 169.4,38.136 169.976,36.536 C170.488,34.872 170.872,33.208 171.192,31.48 C171.384,30.392 171.512,29.304 171.64,28.216 C171.704,27.128 171.832,26.104 171.896,25.016 C171.96,23.8 171.96,22.648 171.96,21.496 C171.96,20.28 171.896,19.128 171.832,17.976 C171.768,15.8 171.64,13.688 171.448,11.704 C171.192,9.656 170.808,7.672 170.296,5.752 C170.04,4.792 169.72,3.96 169.272,3.128 C168.824,2.296 168.312,1.592 167.736,1.016 C167.672,0.952 167.544,0.824 167.48,0.696 C167.352,0.504 167.352,0.376 167.416,0.312 C167.48,0.12 167.608,0.056 167.8,0.056 C167.992,0.056 168.12,0.056 168.248,0.12 C169.336,0.44 170.296,1.08 171,2.04 C171.576,2.936 172.088,3.896 172.472,4.92 C172.792,5.944 173.112,7.032 173.368,8.12 Z M125.944,24.44 L126.136,24.184 L125.816,24.312 C125.624,24.632 125.368,24.952 125.048,25.272 C124.728,25.592 124.472,25.912 124.28,26.232 C123.448,27.384 122.68,28.6 122.04,29.88 C121.4,31.16 120.76,32.44 120.184,33.784 C119.224,35.896 118.328,38.072 117.56,40.248 C116.728,42.424 116.024,44.6 115.384,46.776 C115.256,47.352 115.128,47.928 114.936,48.504 C115.064,48.568 115.192,48.568 115.256,48.632 C115.896,46.328 116.536,44.088 117.304,41.976 C118.136,39.608 119.096,37.24 120.056,35 C121.016,32.696 122.168,30.392 123.512,28.152 C124.216,26.872 125.048,25.656 125.944,24.44 Z M114.083326,46.7100213 C114.07387,46.712 114.060087,46.712 114.04,46.712 L113.976,46.904 L114.04,46.84 L114.083326,46.7100213 Z M114.36,45.688 L114.424,45.688 C114.424,45.56 114.424,45.496 114.488,45.496 L114.424,45.432 L114.36,45.688 Z M114.744,44.216 C114.68,44.28 114.68,44.344 114.744,44.344 C114.744,44.28 114.808,44.28 114.872,44.28 L114.872,44.024 C114.808,44.088 114.744,44.152 114.744,44.216 Z M115.957052,40.766057 C115.921816,40.8067047 115.896,40.8473523 115.896,40.888 C115.896,40.952 115.896,40.952 115.832,41.016 C115.768,41.208 115.768,41.336 115.704,41.4 C115.64,41.464 115.64,41.592 115.64,41.656 L115.896,41.016 C115.896,40.9211299 115.931158,40.8262597 115.975415,40.7574475 L115.957052,40.766057 Z M116.152,40.056 L116.216,40.248 L116.216,40.12 L116.28,40.056 L116.344,39.928 C116.28,39.928 116.28,39.928 116.28,39.992 L116.216,39.992 L116.152,40.056 Z M116.6,41.4 C116.536,41.464 116.536,41.464 116.6,41.464 L116.6,41.4 Z M116.728004,38.7677763 C116.728,38.7706201 116.728,38.7733643 116.728,38.776 C116.728,38.7728687 116.728,38.7698906 116.728,38.7670581 L116.728004,38.7677763 Z M117.048,40.12 L116.984,40.184 C117.048,40.184 117.048,40.184 117.048,40.12 Z M117.304642,37.3455951 C117.347094,37.2745568 117.389547,37.1753584 117.432,37.048 C117.496,36.984 117.496,36.856 117.496,36.664 L117.432,37.048 C117.371736,37.1082637 117.311473,37.2252731 117.304642,37.3455951 Z M117.624,38.456 L117.496,38.584 L117.56,38.648 C117.624,38.584 117.624,38.52 117.624,38.456 Z M117.104,39.96 C117.112,39.944 117.112,39.928 117.112,39.928 C117.112,39.928 117.096,39.928 117.08,39.936 L117.104,39.96 Z M117.84,35.904 C117.88,35.768 117.912,35.64 117.944,35.512 C117.912,35.608 117.864,35.736 117.816,35.88 L117.84,35.904 Z M118.648,36.024 L118.584,36.088 C118.648,36.088 118.648,36.088 118.648,36.024 Z M118.328,36.664 C118.264,36.728 118.264,36.792 118.2,36.856 L118.072,37.24 L118.264,36.856 C118.264,36.792 118.264,36.792 118.328,36.728 C118.392,36.664 118.392,36.536 118.392,36.472 C118.328,36.536 118.328,36.6 118.328,36.664 Z M119.16,33.016 C119.544,32.504 119.8,31.928 119.928,31.352 C119.48,31.8 119.224,32.312 119.096,33.144 C119.16,33.144 119.16,33.08 119.16,33.08 L119.16,33.016 Z M119.992,32.952 L119.672,33.656 L120.056,32.888 L120.056,32.824 C120.056,32.824 120.056,32.888 119.992,32.952 Z M119.169808,34.6516446 C119.139579,34.6947948 119.114976,34.7250239 119.096,34.744 C119.127913,34.7120866 119.159827,34.6642597 119.19174,34.6163897 L119.169808,34.6516446 Z M121.336,28.728 L121.592,28.216 C121.4,28.472 121.336,28.6 121.272,28.664 L121.144,28.984 L121.336,28.728 Z M121.976,29.048 C121.784,29.24 121.656,29.368 121.592,29.56 C121.656,29.496 121.784,29.304 121.976,29.048 Z M121.4,30.136 L121.08,30.648 L120.824,31.16 C120.888,31.096 120.952,30.968 121.016,30.904 C121.08,30.84 121.144,30.712 121.208,30.648 L121.4,30.136 Z M120.76,29.752 L120.952,29.432 C120.888,29.496 120.824,29.56 120.76,29.752 Z M120.76,31.352 L120.504,31.864 C120.44,32.056 120.376,32.184 120.312,32.312 C120.376,32.248 120.44,32.184 120.44,32.12 C120.44,32.056 120.504,31.928 120.568,31.864 L120.76,31.352 Z M120.376,30.52 L120.317618,30.6367642 C120.331946,30.5890318 120.347728,30.5482715 120.376,30.52 Z M120.317618,30.6367642 L120.248,30.776 L120.248,30.84 C120.283728,30.768543 120.299511,30.6970861 120.317618,30.6367639 L120.317618,30.6367642 Z M120.376,30.52 C120.44,30.456 120.44,30.328 120.504,30.264 L120.376,30.52 Z M122.104,28.792 C122.168,28.792 122.168,28.728 122.232,28.728 L122.424,28.344 C122.36,28.408 122.296,28.536 122.232,28.664 L122.104,28.792 Z M126.136,24.12 L126.456,23.8 L126.392,23.8 C126.328,23.8 126.328,23.8 126.264,23.864 C126.264,23.928 126.2,24.056 126.136,24.12 Z M111.608,47.032 C111.992,47.288 112.504,47.544 112.952,47.736 C113.016,47.544 113.016,47.416 113.08,47.224 C113.912,44.472 114.808,41.72 115.832,39.032 C116.856,36.28 118.072,33.592 119.416,30.904 C120.12,29.56 120.888,28.216 121.72,26.936 C121.976,26.552 122.232,26.168 122.424,25.784 C120.824,26.68 119.352,27.832 117.88,28.92 C116.984,29.624 115.32,30.776 114.616,32.12 C114.232,32.312 113.848,32.632 113.528,32.952 C113.016,33.464 112.568,34.424 111.8,34.68 C111.096,35 110.904,35.64 111.032,36.216 C110.52,36.92 110.008,37.688 109.624,38.52 C109.176,39.224 108.856,39.992 108.6,40.76 C108.344,41.528 108.216,42.296 108.28,43.064 C108.344,44.856 109.432,46.136 111.608,47.032 Z M115.064,49.336 C115,49.336 114.872,49.336 114.808,49.272 C114.616,49.912 114.552,50.552 114.488,51.192 L114.808,50.36 C114.872,50.04 115,49.72 115.064,49.336 Z M113.272,49.656 L113.336,49.592 C113.336,49.528 113.336,49.464 113.272,49.4 L113.208,49.528 C113.272,49.592 113.272,49.592 113.272,49.656 Z M114.488,51.256 C114.296,51.512 114.168,51.768 114.168,52.088 C114.168,52.344 114.232,52.6 114.296,52.792 L114.488,51.256 Z M136.12,56.632 L136.44,53.944 L136.312,54.008 L136.056,56.696 L136.12,56.632 Z M136.76,50.872 C136.696,51.192 136.696,51.512 136.76,51.832 C136.952,51.256 137.08,50.616 137.08,49.912 L137.016,49.912 C136.888,50.232 136.824,50.552 136.76,50.872 Z M136.952,56.248 L137.272,53.816 L137.208,53.816 L136.888,56.248 L136.952,56.248 Z M141.112,32.568 L141.048,32.696 L141.176,32.696 L141.176,32.632 L141.112,32.568 Z M140.92,36.664 C140.856,36.728 140.856,36.728 140.856,36.664 L140.792,36.728 L140.792,36.856 C140.856,36.792 140.92,36.728 140.92,36.664 Z M140.728,33.848 C140.664,33.912 140.664,33.976 140.664,34.04 L140.728,34.168 C140.728,34.104 140.728,34.104 140.792,34.104 C140.856,34.04 140.856,34.04 140.856,33.976 C140.792,33.912 140.728,33.912 140.792,33.848 C140.856,33.784 140.792,33.784 140.728,33.848 Z M140.591726,38.0968229 C140.572419,38.108419 140.522209,38.0582095 140.472,38.008 L140.408,38.136 C140.408,38.2 140.408,38.264 140.472,38.264 C140.472,38.2 140.472,38.2 140.536,38.264 L140.591726,38.0968229 Z M140.216,36.024 L140.152,36.024 L140.216,36.152 L140.216,36.024 Z M140.216,36.152 L140.208502,36.1757432 C140.210898,36.1677286 140.213396,36.1598114 140.216,36.152 Z M140.208502,36.1757432 L139.832,37.368 C140.024,37.176 140.088,36.984 140.152,36.792 C140.152,36.6078114 140.152,36.3647244 140.208502,36.1757432 Z M140.216,36.024 C140.28,35.96 140.344,35.832 140.344,35.768 C140.344,35.704 140.344,35.576 140.408,35.512 L140.408,35.32 C140.344,35.384 140.28,35.448 140.28,35.512 C140.216,35.576 140.216,35.704 140.28,35.768 C140.28,35.832 140.28,35.96 140.216,36.024 Z M140.104907,39.6786396 L140.024,39.8 C139.96,39.864 140.024,39.864 140.088,39.864 C140.088,39.8 140.088,39.8 140.152,39.8 L140.152,39.736 C140.124399,39.7083987 140.108701,39.692701 140.104907,39.6786396 Z M139.768,38.072 C139.832,38.008 139.768,37.816 139.704,37.496 C139.64,37.624 139.64,37.752 139.64,37.88 C139.64,37.944 139.64,38.072 139.576,38.136 C139.512,38.2 139.512,38.2 139.576,38.264 C139.64,38.264 139.64,38.328 139.576,38.392 C139.704,38.328 139.768,38.2 139.768,38.072 Z M139.832,41.4 L139.704,41.144 L139.704,41.336 C139.64,41.4 139.64,41.4 139.64,41.464 C139.576,41.528 139.64,41.656 139.704,41.72 L139.832,41.4 Z M139.704,33.016 L139.704,33.08 L139.704,33.016 Z M140.152,32.12 L139.768,32.888 C139.896,32.76 139.96,32.632 140.024,32.568 L140.216,32.184 C140.28,32.12 140.28,32.056 140.28,31.992 L140.152,32.12 Z M134.136,42.232 C134.264,42.104 134.392,41.912 134.456,41.72 C134.392,41.784 134.328,41.912 134.264,41.976 C134.2,42.04 134.2,42.168 134.136,42.232 Z M134.712,41.464 C134.712,41.4 134.712,41.4 134.776,41.336 L134.648,41.464 L134.584,41.592 L134.712,41.464 Z M135.608,39.8 L135.224,40.376 L135.224,40.44 L135.608,39.8 Z M136.824,37.816 L136.952,37.496 L136.696,37.944 C136.632,38.072 136.632,38.2 136.568,38.328 L136.312,38.584 L136.568,38.328 C136.632,38.2 136.76,38.008 136.824,37.816 Z M138.68,34.808 C138.616,34.744 138.616,34.744 138.68,34.68 L138.68,34.616 C138.68,34.68 138.616,34.68 138.552,34.68 L138.616,34.808 L137.848,36.024 C138.04,35.832 138.232,35.64 138.36,35.448 C138.424,35.256 138.552,35 138.616,34.808 L138.68,34.808 Z M138.808,34.424 C138.872,34.424 138.872,34.36 138.872,34.36 L138.808,34.424 Z M138.872,34.296 L138.936,34.232 L138.936,34.168 L138.872,34.232 L138.872,34.296 Z M139,34.168 L139.064,34.04 C139,34.104 139,34.168 139,34.168 Z M139.24,43.448 C139.24,43.464 139.224,43.48 139.192,43.512 L139.24,43.448 Z M139.24,43.448 L139.384,43.256 C139.384,43.192 139.32,43.128 139.192,43.128 L139.192,43.32 C139.128,43.32 139.128,43.32 139.192,43.384 C139.224,43.416 139.24,43.432 139.24,43.448 Z M139.192,39.8 C139.192,39.8 139.192,39.864 139.128,39.928 C139.128,39.992 139.192,40.056 139.256,40.056 C139.192,39.992 139.192,39.928 139.32,39.8 L139.32,39.736 C139.256,39.672 139.256,39.672 139.256,39.608 C139.192,39.672 139.192,39.736 139.192,39.8 Z M138.744,41.528 L138.744,41.72 C138.808,41.72 138.872,41.656 138.936,41.528 L138.872,41.272 C138.808,41.336 138.744,41.464 138.744,41.528 Z M138.744,45.432 L138.744,45.56 C138.808,45.432 138.872,45.304 138.872,45.112 C138.936,45.048 139,45.048 138.936,45.048 L138.872,44.984 L138.744,45.432 Z M138.296,43.704 C138.232,43.768 138.296,43.832 138.36,43.896 C138.36,43.832 138.36,43.832 138.424,43.768 L138.488,43.768 L138.488,43.32 C138.552,43.256 138.552,43.128 138.488,43 C138.424,43.064 138.36,43.192 138.296,43.256 L138.296,43.704 Z M138.27902,48.0377143 C138.275102,48.0651429 138.259429,48.0925714 138.232,48.12 L138.279021,48.0377136 L138.27902,48.0377143 Z M138.279021,48.0377136 L138.488,47.672 L138.36,47.352 C138.296,47.544 138.232,47.672 138.232,47.736 C138.168,47.8 138.168,47.864 138.232,47.928 C138.268571,47.9645714 138.284245,48.0011429 138.27902,48.0377143 L138.279021,48.0377136 Z M137.912,45.112 C137.976,45.24 137.912,45.368 137.72,45.56 L137.976,45.816 C137.912,45.752 137.912,45.688 137.976,45.624 C138.04,45.56 138.04,45.432 138.04,45.368 C138.104,45.304 138.04,45.24 137.912,45.112 Z M137.848,49.464 L137.72,50.744 C138.04,50.232 138.04,49.784 137.848,49.464 Z M137.464,47.288 C137.4,47.48 137.336,47.736 137.336,47.928 C137.336,48.12 137.4,48.248 137.528,48.376 L137.528,47.288 L137.464,47.288 Z M137.528,60.792 C137.528,60.728 137.528,60.6 137.592,60.536 L137.464,60.408 L137.4,60.728 C137.4,60.792 137.4,60.792 137.464,60.792 L137.528,60.792 Z M138.104,54.712 C138.168,53.624 138.36,52.472 138.552,51.384 C138.744,50.04 139,48.76 139.32,47.416 L140.28,43.384 C140.664,41.592 141.112,39.864 141.56,38.136 C142.008,36.408 142.456,34.616 142.904,32.824 C143.096,32.248 143.224,31.608 143.352,31.032 C143.416,30.456 143.544,29.816 143.736,29.24 L143.8,29.176 C143.928,28.984 143.992,28.792 143.992,28.6 C143.992,28.408 144.056,28.216 144.12,28.024 C144.184,27.896 144.248,27.832 144.312,27.832 L144.248,27.768 C144.184,27.768 144.184,27.768 144.12,27.704 L144.12,28.024 C143.928,28.216 143.864,28.408 143.864,28.6 C143.8,28.792 143.8,28.984 143.8,29.176 L143.736,29.176 L143.736,29.24 L143.352,29.944 C142.904,31.48 142.52,33.016 142.072,34.616 C141.624,36.152 141.24,37.688 140.856,39.16 C140.6,40.248 140.344,41.272 140.152,42.296 C139.896,43.256 139.64,44.28 139.384,45.24 C139.192,46.328 139,47.352 138.808,48.376 C138.616,49.4 138.36,50.424 138.168,51.384 C137.976,52.6 137.848,53.752 137.784,54.968 C137.656,56.184 137.528,57.336 137.4,58.488 C137.4,58.68 137.4,58.872 137.464,59 C137.528,58.808 137.592,58.616 137.656,58.488 C137.72,58.36 137.72,58.232 137.72,58.04 C137.848,56.952 137.976,55.8 138.104,54.712 Z M171.384,36.6 C171.384,36.728 171.32,36.792 171.192,36.792 L171.32,36.792 L171.384,36.728 L171.384,36.6 Z M171.128,34.616 C171.064,34.616 171.064,34.616 171.128,34.68 L171,34.808 L171.192,34.744 L171.128,34.616 Z M171,37.816 L170.936,37.816 C170.936,37.88 170.872,38.008 170.808,38.072 L170.936,38.008 C171,38.008 171,38.008 171,37.944 L171,37.816 Z M170.552,36.664 C170.488,36.856 170.424,36.984 170.488,37.048 L170.616,36.728 L170.68,36.6 C170.68,36.536 170.68,36.472 170.744,36.408 C170.808,36.344 170.808,36.28 170.744,36.216 L170.808,36.024 L170.552,36.28 C170.552,36.472 170.616,36.536 170.68,36.6 L170.552,36.664 Z M170.68,38.968 L170.616,38.968 L170.616,39.096 L170.68,38.968 Z M170.36,40.056 L170.296,39.992 C170.232,40.056 170.232,40.056 170.232,40.12 L170.168,40.184 C170.168,40.248 170.168,40.248 170.232,40.248 L170.36,40.248 L170.36,40.056 Z M170.104729,38.3793281 C170.111972,38.3123042 170.171986,38.196014 170.232,38.136 L170.232,37.816 L170.04,38.136 C169.976,38.2 169.976,38.2 170.04,38.264 C170.097227,38.3212271 170.103283,38.3272833 170.103924,38.37368 L170.104729,38.3793281 Z M169.912,41.144 L169.912,41.208 L169.976,41.144 L169.912,41.144 Z M169.592,39.608 L169.592,39.992 C169.592,40.056 169.656,39.992 169.72,39.8 L169.72,39.544 L169.592,39.608 Z M169.72,42.104 L169.592,42.168 L169.656,42.168 L169.72,42.104 Z M168.44,43.32 L168.504,43.256 L168.312,43.384 L168.44,43.32 Z M168.76,42.424 L168.824,42.296 L168.632,42.36 L168.76,42.424 Z M169.144,41.08 L169.08,41.208 C169.144,41.144 169.144,41.144 169.144,41.08 Z M172.792,34.552 L172.792,33.656 C172.728,33.848 172.664,34.04 172.664,34.104 C172.6,34.168 172.6,34.232 172.536,34.296 L169.336,44.536 L169.144,45.56 C169.4,45.24 169.528,44.984 169.592,44.792 C170.232,43.064 170.808,41.4 171.32,39.672 C171.832,37.944 172.344,36.28 172.792,34.552 Z M173.176,32.376 C173.112,32.376 173.112,32.376 173.176,32.312 L172.984,32.376 C172.984,32.44 172.984,32.44 173.048,32.44 L173.048,32.568 L173.112,32.504 C173.112,32.44 173.112,32.44 173.176,32.376 Z M199.672,52.792 C199.8,52.536 200.056,52.344 200.376,52.152 C200.184,52.408 199.992,52.6 199.8,52.856 C199.544,53.112 199.352,53.368 199.16,53.56 C199.352,53.304 199.48,53.048 199.672,52.792 Z M191.768122,61.8562923 C191.834299,61.8130787 191.891537,61.7609267 191.928,61.688 L191.768122,61.8562925 L191.768122,61.8562923 Z M191.768122,61.8562923 L190.712,62.968 L191.16,62.136 C191.288,62.072 191.416,62.008 191.608,61.944 C191.663073,61.9164633 191.718147,61.8889267 191.768122,61.8562923 Z M196.92,56.056 L197.944,54.968 L198.264,54.648 C198.136,54.776 198.072,54.904 198.008,54.968 L196.92,56.12 L196.92,56.056 Z M194.872,58.488 L196.152,57.016 C195.704,57.4 195.256,57.848 194.872,58.488 Z M199.736,50.36 L202.36,49.976 L201.208,51.192 C201.144,51.128 201.144,51.064 201.144,51 C201.144,51 201.144,50.936 201.08,50.808 L201.144,50.68 L201.08,50.744 L201.08,50.808 L200.76,51.192 L201.208,51.192 L200.44,52.088 C200.44,51.896 200.376,51.768 200.312,51.64 L199.8,51.896 L199.48,52.28 L199.608,51.896 L199.352,52.28 L199.48,52.28 L199.224,52.728 L198.84,53.176 L198.968,52.792 L198.648,53.176 L198.84,53.176 L198.456,53.624 C198.392,53.752 198.264,53.88 198.072,54.008 L198.2,53.688 L197.816,54.072 L198.072,54.072 L197.688,54.52 C197.688,54.456 197.688,54.392 197.752,54.328 L197.752,54.136 C197.368,54.392 197.048,54.712 196.792,55.032 C196.536,55.416 196.28,55.736 196.088,56.056 C196.024,56.184 196.024,56.184 196.024,56.248 C195.96,56.248 195.96,56.312 195.896,56.376 L196.024,56.056 C195.96,56.12 195.832,56.184 195.768,56.184 C195.704,56.248 195.576,56.312 195.512,56.312 C195.832,55.928 196.088,55.544 196.344,55.224 C196.6,54.84 196.856,54.52 197.112,54.136 L196.6,54.328 L197.368,53.432 L197.176,54.008 L197.496,53.688 C197.624,53.496 197.752,53.368 197.88,53.176 C197.816,53.24 197.752,53.24 197.752,53.176 C197.752,53.112 197.944,52.792 198.392,52.152 L198.2,52.792 C198.264,52.792 198.264,52.792 198.264,52.728 L198.2,52.792 L198.904,51.96 L198.52,52.088 L199.16,51.256 L199.032,51.832 L199.672,51 L199.224,51.192 C199.352,50.936 199.544,50.616 199.736,50.36 Z M198.328,53.624 L198.456,53.24 L198.136,53.624 L198.328,53.624 Z M199.16,52.728 L199.288,52.344 L198.968,52.728 L199.16,52.728 Z M200.12,51.32 C200.12,51.32 200.12,51.256 200.184,51.192 L199.928,51.448 L199.608,51.832 L199.8,51.832 L199.928,51.448 L199.992,51.448 C200.056,51.448 200.056,51.384 200.12,51.32 Z M201.912,49.784 C201.976,49.784 202.04,49.72 202.104,49.656 L201.912,49.784 Z M195.128,56.12 L195,56.504 L195.512,56.312 C195.32,56.568 195.192,56.76 195.064,57.016 C194.936,57.208 194.808,57.464 194.616,57.656 L194.296,58.104 L193.848,58.552 L192.888,59.64 C192.824,59.768 192.76,59.832 192.696,59.896 C192.632,59.96 192.504,60.024 192.44,60.088 L191.352,60.984 C191.096,61.368 191.032,61.752 191.16,62.072 L190.392,62.52 C190.2,62.84 190.136,63.032 190.2,63.096 C190.264,63.16 190.392,63.16 190.648,63.032 C190.2,63.544 189.752,64.056 189.304,64.504 C188.792,64.952 188.28,65.336 187.704,65.72 C187,66.232 186.168,66.424 185.272,66.296 C184.312,66.168 183.736,65.784 183.544,65.08 C183.352,64.44 183.352,63.608 183.48,62.712 C183.608,61.88 183.8,61.048 184.12,60.216 C184.376,59.448 184.696,58.616 185.016,57.72 C185.976,55.032 187.192,52.344 188.664,49.72 C190.136,47.096 191.608,44.472 193.08,41.784 C193.4,41.272 193.72,40.696 193.976,40.184 C194.296,39.608 194.552,39.096 194.872,38.52 C194.936,38.456 195,38.392 195,38.264 C194.936,38.2 194.936,38.136 195,38.008 C194.872,38.072 194.744,38.072 194.68,38.072 C194.616,38.008 194.488,38.072 194.424,38.136 C193.912,38.456 193.4,38.712 192.824,39.032 C192.312,39.288 191.8,39.608 191.288,39.928 C189.368,41.208 187.512,42.616 185.72,44.024 C183.928,45.496 182.136,47.032 180.408,48.568 C178.936,49.976 177.464,51.384 176.056,52.856 C174.648,54.328 173.24,55.8 171.896,57.272 C171.768,57.464 171.64,57.592 171.512,57.784 C171.384,57.912 171.256,58.04 171.128,58.104 C170.808,58.36 170.552,58.488 170.36,58.488 C169.912,58.552 169.464,58.552 169.016,58.488 C168.568,58.424 168.12,58.296 167.736,58.04 C167.416,57.848 167.224,57.592 167.288,57.272 C167.352,56.888 167.416,56.504 167.48,56.184 C167.48,55.8 167.544,55.416 167.608,55.032 C167.928,53.688 168.184,52.28 168.504,50.872 C168.824,49.464 169.144,48.056 169.528,46.648 C169.912,44.856 170.36,43.064 170.872,41.272 C171.384,39.48 172.024,37.688 172.728,35.896 L174.84,30.456 C176.248,27.064 177.912,23.736 179.832,20.536 C181.752,17.336 184.056,14.264 186.744,11.192 C187.32,10.552 187.896,9.912 188.344,9.4 C188.664,9.016 188.984,8.696 189.368,8.312 C189.496,8.184 189.624,8.12 189.752,7.992 C190.52,7.608 191.224,7.096 191.928,6.584 C192.632,6.136 193.4,5.752 194.104,5.368 C195,4.984 195.768,4.664 196.6,4.728 C196.792,4.856 196.92,4.92 197.112,4.984 L197.176,4.984 C197.368,5.112 197.624,5.24 197.816,5.432 C197.88,5.496 197.944,5.496 198.008,5.56 C198.008,5.624 198.072,5.624 198.072,5.688 C197.944,6.2 197.752,6.712 197.624,7.224 C196.984,9.016 196.28,10.744 195.512,12.408 C194.744,14.072 193.848,15.672 192.952,17.336 C191.48,20.088 189.944,22.712 188.28,25.272 C186.616,27.832 184.824,30.392 183.032,32.824 C181.304,35 179.576,37.112 177.848,39.16 C176.696,40.504 175.48,41.848 174.264,43.128 C174.264,43.192 174.2,43.192 174.2,43.256 C174.072,43.64 173.944,43.96 173.88,44.28 C173.816,44.6 173.688,44.92 173.624,45.24 L171.768,52.6 L171.64,52.92 C171.768,53.048 171.832,53.112 171.768,53.112 C171.832,53.112 171.96,53.112 172.152,52.984 L172.92,52.216 C174.072,51.064 175.224,49.912 176.44,48.824 C177.656,47.672 178.872,46.584 180.088,45.56 C181.88,44.152 183.608,42.808 185.336,41.464 C187.064,40.12 188.856,38.904 190.712,37.752 C191.416,37.368 192.056,37.048 192.76,36.728 C193.4,36.408 194.104,36.088 194.808,35.832 C195.512,35.64 196.152,35.576 196.856,35.704 C198.264,36.152 198.712,37.112 198.136,38.52 C197.944,39.096 197.688,39.608 197.432,40.12 C197.176,40.632 196.92,41.208 196.6,41.72 C195.64,43.448 194.68,45.176 193.72,46.84 C192.696,48.568 191.736,50.296 190.776,51.96 C189.88,53.624 189.048,55.224 188.28,56.824 C187.512,58.488 186.872,60.088 186.296,61.752 C186.168,62.2 186.104,62.584 186.04,62.968 C185.976,63.352 185.848,63.8 185.784,64.184 C185.72,64.376 185.72,64.568 185.784,64.696 C185.784,64.888 185.848,65.016 185.912,65.016 C186.104,65.144 186.296,65.08 186.488,64.952 L186.936,64.504 L188.856,62.84 L189.88,61.88 L190.2,61.496 C190.2,61.688 190.2,61.816 190.136,61.88 L190.776,61.24 L191.288,60.984 C191.48,60.728 191.672,60.472 191.8,60.088 L192.184,59.64 L191.992,59.64 L192.312,59.256 C192.248,59.384 192.248,59.512 192.248,59.64 L193.208,58.552 L192.696,58.744 C192.76,58.68 192.888,58.552 193.016,58.488 L193.4,58.104 L193.272,58.488 L193.592,58.104 L193.4,58.104 L193.72,57.72 C193.656,57.912 193.592,58.04 193.656,58.104 C194.168,57.72 194.616,57.208 194.936,56.568 L194.488,56.76 L195.128,56.12 Z M197.048,38.648 L196.92,39.16 L197.112,38.968 C197.176,38.904 197.176,38.84 197.24,38.712 C197.368,38.712 197.368,38.648 197.24,38.52 C197.24,38.584 197.176,38.584 197.112,38.584 C197.048,38.584 197.048,38.648 197.048,38.648 Z M182.584,31.992 L182.584,31.928 C182.52,31.992 182.456,32.056 182.456,32.12 C182.52,32.12 182.584,32.056 182.584,31.992 Z M185.208,28.472 L185.272,28.408 L185.144,28.408 L185.016,28.6 L185.208,28.472 Z M195.064,11.704 L195.064,11.64 L193.848,13.944 C193.4,14.712 193.016,15.416 192.632,16.12 C192.248,16.888 191.8,17.592 191.352,18.296 C190.648,19.512 189.944,20.664 189.24,21.816 C188.472,22.968 187.768,24.184 187.064,25.4 C186.936,25.656 186.744,25.912 186.616,26.168 C186.424,26.424 186.232,26.68 186.104,26.936 L185.848,27.256 C185.848,27.384 185.784,27.512 185.72,27.64 L185.528,28.024 L185.976,27.448 L187.256,25.528 L187.704,24.888 C188.6,23.416 189.56,21.944 190.52,20.408 C191.416,18.936 192.312,17.4 193.208,15.864 L193.976,14.072 C194.104,13.688 194.296,13.24 194.488,12.856 C194.616,12.472 194.808,12.088 195.064,11.704 Z M187.448,22.648 L187.512,22.648 L187.704,22.072 L187.448,22.648 Z M188.088,22.968 L187.832,23.16 L187.896,23.224 L188.088,22.968 Z M187.896,22.008 C187.896,22.008 187.96,22.008 187.96,21.944 C188.088,21.816 188.152,21.688 188.152,21.56 C188.088,21.688 188.024,21.752 187.96,21.816 C187.896,21.88 187.896,21.944 187.896,22.008 Z M188.344,21.176 C188.408,21.176 188.472,21.112 188.536,20.984 C188.536,20.984 188.536,20.92 188.6,20.92 L188.6,20.728 C188.6,20.856 188.536,20.92 188.536,20.92 C188.472,20.92 188.472,20.984 188.472,20.984 L188.344,21.176 Z M189.686708,20.2042829 C189.688,20.1868552 189.688,20.1694276 189.688,20.152 C189.688,20.1690486 189.688,20.1860972 189.68558,20.2031458 L189.686708,20.2042829 Z M189.56,19.192 L190.008,18.552 L190.328,17.848 L190.008,18.488 L189.56,19.192 Z M190.52,18.808 L190.648,18.552 L190.904,18.232 C190.776,18.36 190.712,18.488 190.584,18.552 L190.52,18.808 Z M192.184,14.584 C192.44,14.328 192.632,14.008 192.696,13.624 C192.568,13.752 192.504,13.944 192.44,14.072 C192.312,14.264 192.248,14.456 192.184,14.584 C192.12,14.712 191.992,14.84 191.864,15.096 C191.864,15.16 191.8,15.224 191.8,15.224 L191.928,15.096 L192.184,14.584 Z M192.76,14.904 L192.696,14.968 C192.696,15.096 192.632,15.16 192.632,15.16 L192.632,15.288 L192.76,14.904 Z M192.568,15.416 C192.504,15.48 192.504,15.48 192.44,15.48 C192.44,15.544 192.376,15.608 192.312,15.672 L192.568,15.416 Z M191.962782,16.4943818 C191.972367,16.4777602 191.982184,16.4596329 191.992,16.44 C191.982525,16.4589506 191.973049,16.4764984 191.963574,16.4926433 L191.962782,16.4943818 Z M191.352,16.184 L191.672,15.608 C191.544,15.736 191.48,15.8 191.48,15.864 C191.416,15.992 191.352,16.056 191.288,16.184 L191.032,16.568 C191.16,16.44 191.288,16.312 191.352,16.184 Z M191.16,17.656 L190.968,17.976 L191.224,17.656 L191.48,17.208 C191.352,17.336 191.288,17.4 191.288,17.464 C191.288,17.592 191.224,17.656 191.16,17.656 Z M193.144,12.536 L193.336,12.344 C193.336,12.28 193.4,12.216 193.528,12.088 L193.528,11.96 L193.464,12.088 L193.144,12.536 Z M195.32,11.256 L195.576,10.424 L195.32,11.192 L195.192,11.384 L195.32,11.256 Z M187.256,11.576 C186.872,12.024 186.552,12.408 186.36,12.664 C186.68,12.408 187.064,12.088 187.512,11.576 C187.96,11.128 188.344,10.68 188.792,10.168 C189.24,9.72 189.624,9.272 189.944,8.952 C190.264,8.568 190.392,8.376 190.456,8.248 C190.52,8.184 190.328,8.312 190.008,8.632 C189.688,9.016 189.048,9.592 188.216,10.488 C187.896,10.744 187.576,11.128 187.256,11.576 Z M189.112,10.68 L188.664,11.128 L188.92,10.936 C188.92,10.936 188.92,10.872 188.984,10.872 C189.048,10.808 189.048,10.808 189.112,10.68 Z M188.472,11.32 L188.216,11.576 C188.152,11.64 188.152,11.704 188.152,11.704 C188.088,11.768 188.088,11.832 188.024,11.832 L188.216,11.64 L188.472,11.32 Z M187.576,12.472 L187.192,12.92 C187.192,12.984 187.192,12.984 187.128,12.984 C187.064,12.984 187.064,13.048 187.064,13.048 L187.192,12.984 L187.576,12.536 L187.576,12.472 Z M186.573404,13.7056954 C186.51866,13.7424636 186.460768,13.7792318 186.424,13.816 C186.424,13.8394256 186.424,13.8628513 186.420862,13.8831384 L186.424,13.88 L186.573404,13.7056954 Z M186.420862,13.8831384 C186.415426,13.9182769 186.400574,13.944 186.36,13.944 L186.420862,13.8831383 Z M186.04,13.176 C185.464,13.56 185.08,14.072 184.888,14.712 C185.08,14.52 185.336,14.264 185.528,14.008 C185.72,13.752 185.912,13.496 186.04,13.176 Z M183.928,15.928 C183.864,15.992 183.864,16.056 183.864,16.056 L184.056,15.864 L184.376,15.352 L183.992,15.8 C183.992,15.864 183.992,15.928 183.928,15.928 Z M183.685205,16.2073687 C183.672,16.2256527 183.672,16.248 183.672,16.248 L183.16,16.952 L183.672,16.312 C183.672,16.2676621 183.672,16.2233242 183.69328,16.200266 L183.685205,16.2073687 Z M183.110733,20.0091415 C183.294646,19.8220943 183.420953,19.6350472 183.608,19.448 C183.736,19.32 183.864,19.128 183.992,18.872 C185.08,17.336 186.168,15.8 187.32,14.328 C188.408,12.856 189.688,11.448 191.032,10.04 L192.44,8.568 L192.696,8.312 L193.016,8.056 L192.376,8.44 C191.928,8.824 191.544,9.144 191.16,9.528 C190.712,9.848 190.328,10.232 190.008,10.616 C188.664,12.024 187.448,13.432 186.424,14.904 C185.336,16.376 184.312,17.848 183.352,19.384 C183.288,19.512 183.224,19.576 183.224,19.704 C183.171499,19.8090017 183.162066,19.9140033 183.125042,19.9836754 L183.110733,20.0091415 Z M182.392,21.112 L182.392,21.176 L182.52,21.112 L182.584,20.984 C182.52,20.984 182.456,21.048 182.392,21.112 Z M181.688,22.456 L181.56,22.712 C181.624,22.712 181.688,22.648 181.752,22.584 C181.752,22.584 181.752,22.52 181.816,22.456 L181.816,22.328 L181.688,22.456 Z M181.368,22.904 L181.368,23.16 C181.368,23.16 181.368,23.096 181.432,23.096 C181.496,23.032 181.496,23.032 181.496,22.968 L181.56,22.776 L181.496,22.84 C181.432,22.84 181.432,22.904 181.368,22.904 Z M180.664,24.312 L180.664,24.376 L180.792,24.376 L180.728,24.312 L180.664,24.312 Z M179.896,25.912 L179.832,26.04 L179.896,26.04 C179.96,25.976 179.96,25.976 179.96,25.912 C180.024,25.848 180.088,25.784 180.088,25.72 L180.024,25.656 C180.024,25.72 180.024,25.784 179.96,25.784 C179.896,25.848 179.896,25.912 179.896,25.912 Z M179.64,26.36 L179.512,26.616 C179.576,26.552 179.64,26.488 179.64,26.424 C179.704,26.296 179.768,26.232 179.832,26.168 L179.64,26.36 Z M183.16,20.536 C181.368,23.672 179.896,26.872 178.68,30.136 C177.784,32.504 176.952,34.744 176.248,36.92 C178.232,34.552 180.216,32.12 182.008,29.624 C184.696,25.976 187.256,22.136 189.624,18.104 C190.584,16.44 191.544,14.712 192.44,12.984 C193.336,11.256 194.104,9.464 194.744,7.608 C194.744,7.544 194.808,7.416 194.808,7.288 C192.952,8.632 191.224,10.04 189.752,11.64 C187.128,14.456 184.952,17.4 183.16,20.536 Z M196.792,39.224 L195.448,41.4 C194.296,43.576 193.08,45.752 191.864,47.864 C190.648,49.976 189.496,52.088 188.408,54.264 L187.384,56.568 C187.32,56.696 187.256,56.76 187.32,56.888 C187.32,57.016 187.32,57.144 187.256,57.208 L187.512,56.952 C187.576,56.824 187.576,56.76 187.64,56.632 L190.584,50.872 L196.28,40.632 C196.408,40.44 196.536,40.184 196.6,39.928 C196.664,39.672 196.728,39.48 196.792,39.224 Z M189.496,50.936 C189.56,51 189.56,51.064 189.56,51.064 L189.688,51 L189.56,50.872 L189.496,50.936 Z M195,39.736 C194.936,39.864 194.872,39.928 194.872,39.992 L195.064,39.8 L195.128,39.672 C195.064,39.672 195.064,39.736 195,39.736 Z M194.616,40.248 L194.616,40.44 C194.68,40.376 194.744,40.312 194.744,40.248 L194.808,40.056 L194.616,40.248 Z M194.104,41.464 L193.912,41.592 L193.976,41.592 C194.04,41.592 194.04,41.592 194.104,41.528 L194.104,41.464 Z M192.952,43.256 C192.888,43.384 192.888,43.384 192.952,43.384 L193.08,43.32 L193.144,43 L193.336,42.808 C193.4,42.808 193.4,42.744 193.4,42.744 C193.4,42.68 193.4,42.68 193.464,42.616 C193.528,42.616 193.528,42.552 193.464,42.552 C193.336,42.616 193.272,42.68 193.208,42.808 L193.144,43 C193.08,43.128 193.08,43.128 193.016,43.192 C192.952,43.192 192.952,43.256 192.952,43.256 Z M192.696,45.496 L192.632,45.624 L192.76,45.496 C192.824,45.496 192.824,45.432 192.824,45.432 C192.824,45.368 192.824,45.368 192.888,45.304 C192.888,45.304 192.888,45.24 192.824,45.24 C192.824,45.304 192.824,45.304 192.76,45.368 C192.696,45.368 192.696,45.432 192.696,45.496 Z M192.312,46.072 C192.248,46.2 192.12,46.392 192.056,46.52 L191.864,46.712 L191.8,46.904 C191.736,46.904 191.736,46.968 191.8,46.968 L191.992,46.712 L192.056,46.52 L192.632,45.688 C192.504,45.816 192.376,45.944 192.312,46.072 Z M191.672,45.688 C191.608,45.752 191.608,45.816 191.608,45.88 C191.608,45.88 191.672,45.816 191.736,45.688 C191.8,45.688 191.8,45.624 191.8,45.624 C191.8,45.56 191.8,45.56 191.864,45.496 C191.864,45.496 191.864,45.432 191.8,45.432 C191.8,45.496 191.8,45.496 191.736,45.56 C191.672,45.56 191.672,45.624 191.672,45.688 Z M191.288,46.392 C191.352,46.264 191.48,46.136 191.544,45.944 C191.48,46.2 191.288,46.456 191.032,46.776 C191.096,46.648 191.224,46.52 191.288,46.392 Z M190.712,49.08 C190.776,49.08 190.776,49.016 190.712,48.952 L190.52,49.336 L190.584,49.336 L190.584,49.272 C190.648,49.272 190.712,49.208 190.712,49.08 Z M190.392,47.864 L190.328,48.056 C190.392,48.056 190.456,48.056 190.456,47.928 L190.584,47.8 C190.52,47.736 190.52,47.736 190.584,47.672 L190.392,47.864 Z M190.196862,49.7871384 C190.191426,49.8222769 190.176574,49.848 190.136,49.848 L190.196862,49.7871384 Z M190.196862,49.7871384 L190.328,49.656 L190.392,49.464 L190.264,49.592 C190.2,49.656 190.136,49.72 190.2,49.72 C190.2,49.7434256 190.2,49.7668513 190.196862,49.7871384 Z M189.56,49.528 C189.56,49.528 189.56,49.592 189.496,49.656 C189.56,49.656 189.624,49.592 189.688,49.528 C189.688,49.528 189.688,49.464 189.752,49.4 C189.816,49.4 189.816,49.336 189.816,49.336 C189.752,49.272 189.752,49.272 189.816,49.208 L189.624,49.336 C189.56,49.464 189.496,49.464 189.56,49.528 Z M189.304,49.848 C189.24,49.912 189.24,49.976 189.24,50.04 L189.304,50.104 C189.368,50.04 189.432,49.976 189.432,49.848 L189.496,49.72 C189.432,49.72 189.368,49.784 189.304,49.848 Z M188.984,52.024 L188.984,52.152 L189.112,52.152 L189.112,52.024 L188.984,52.024 Z M188.536,51.32 L188.536,51.512 L188.728,51.32 L188.728,51.128 L188.536,51.32 Z M187.96,52.6 C187.896,52.664 187.896,52.728 187.896,52.792 C187.96,52.792 188.024,52.792 188.024,52.664 C188.088,52.664 188.088,52.6 188.024,52.472 C188.024,52.536 188.024,52.6 187.96,52.6 Z M187.768,54.712 L187.64,54.776 C187.704,54.776 187.704,54.776 187.704,54.84 L187.768,54.84 L187.768,54.776 C187.832,54.776 187.832,54.712 187.768,54.712 Z M187.237114,54.2639822 C187.243071,54.264 187.249363,54.264 187.256,54.264 C187.256,54.264 187.256,54.2630565 187.256115,54.2612841 L187.237114,54.2639822 Z M186.424,55.672 L186.424,56.056 C186.424,56.056 186.424,55.992 186.488,55.992 C186.552,55.928 186.552,55.928 186.616,55.8 L186.616,55.48 L186.424,55.672 Z M186.296,59.32 L185.976,60.408 C186.104,60.408 186.232,60.408 186.296,60.344 C186.488,59.96 186.552,59.64 186.616,59.256 C186.68,58.936 186.744,58.616 186.744,58.36 C186.68,58.552 186.616,58.68 186.552,58.872 C186.488,59 186.36,59.192 186.296,59.32 Z M185.272,58.872 L185.592,58.488 L185.464,58.232 C185.4,58.36 185.336,58.424 185.336,58.488 C185.272,58.616 185.272,58.744 185.272,58.872 Z M190.392,61.432 L190.264,61.496 L190.328,61.432 L190.392,61.432 Z M193.016,60.536 L192.632,60.984 C192.696,60.92 192.824,60.792 193.016,60.536 Z M195.512,55.8 C195.512,55.736 195.576,55.736 195.576,55.672 C195.576,55.736 195.512,55.736 195.512,55.8 L195.448,55.8 L195.512,55.8 Z M195.416258,55.8583292 C195.427026,55.840229 195.437513,55.8209737 195.448,55.8 C195.448,55.8289645 195.434891,55.8448206 195.42054,55.8594332 L195.416258,55.8583292 Z M195.416258,55.8583292 C195.361308,55.950692 195.299026,56.0129737 195.192,56.12 L195.384,55.928 C195.384,55.8929645 195.403179,55.8771085 195.42054,55.8594332 L195.416258,55.8583292 Z M196.92,56.152 C196.936,56.136 196.952,56.12 196.984,56.12 L196.92,56.152 Z M196.92,56.152 L196.856,56.184 C196.888,56.184 196.904,56.168 196.92,56.152 Z M198.456,52.152 L198.456,52.088 L198.52,52.088 L198.456,52.152 Z M233.272,49.656 C233.464,49.656 233.528,49.72 233.656,49.72 C233.656,49.848 233.528,50.104 233.464,50.168 C231.928,51.32 230.52,52.408 229.048,53.304 C226.872,54.648 224.76,55.608 222.456,56.376 C221.56,56.696 220.792,57.272 220.152,58.04 C217.976,60.6 215.48,62.648 212.6,64.248 C210.68,65.336 208.824,66.168 206.968,65.976 C204.792,65.848 203,65.016 201.784,63.48 C200.632,62.008 200.504,60.088 201.016,57.912 C201.4,55.608 202.424,53.304 203.576,51.064 C203.896,50.424 204.28,49.656 204.344,48.952 C204.6,47.096 205.432,45.304 206.584,43.576 C208.312,41.144 210.552,39.032 213.176,37.368 C217.848,34.296 222.328,34.808 224.504,36.728 C225.4,37.624 225.976,38.648 226.232,39.928 C226.808,42.04 226.744,44.344 226.232,46.84 C225.848,48.952 224.888,51 223.736,53.048 L223.416,53.688 C223.352,53.944 223.416,54.072 223.736,54.008 L224.248,53.816 C226.488,52.728 228.6,51.512 230.584,49.848 C230.904,49.592 231.16,49.272 231.544,49.08 C232.504,48.376 232.888,48.44 233.208,49.208 C233.272,49.336 233.208,49.464 233.272,49.656 L232.952,49.848 C232.824,49.912 232.824,49.912 232.824,49.976 L233.272,49.656 Z M213.304,39.032 C213.176,39.096 213.112,39.16 212.92,39.288 L213.304,39.032 Z M212.47144,39.6404665 C212.421061,39.6902857 212.362286,39.7451429 212.28,39.8 L212.47144,39.6404665 Z M211.512,39.032 L211.256,39.288 C211.32,39.224 211.448,39.096 211.576,39.032 L211.512,39.032 Z M210.04,40.312 C210.104,40.312 210.104,40.312 210.232,40.248 L210.424,39.928 L210.04,40.312 Z M207.992,42.616 L207.992,42.552 L207.864,42.616 L207.8,42.68 C207.416,43 207.16,43.384 207.032,43.832 L206.968,43.832 L206.584,44.408 C206.776,44.216 206.84,44.088 207.032,43.896 L207.032,43.832 L207.8,42.68 L207.992,42.616 Z M208.312,42.168 C208.952,41.72 209.464,41.144 209.784,40.568 C209.08,40.952 208.632,41.528 208.312,42.168 Z M215.416,59.256 C215.8,58.936 216.056,58.488 216.376,58.104 C215.928,58.04 215.608,57.912 215.16,57.912 C213.368,57.912 211.64,57.72 210.168,57.08 C208.696,56.44 207.416,55.608 206.264,54.648 C205.816,54.264 205.56,54.328 205.176,55.032 C204.92,55.736 204.664,56.44 204.408,57.208 L204.28,57.208 L203.576,60.984 C203.576,61.816 203.64,62.584 204.024,63.224 C204.472,64.056 205.304,64.312 206.52,64.056 C207.224,63.928 208.056,63.736 208.696,63.416 C211.192,62.52 213.368,60.984 215.416,59.256 Z M208.024677,47.0652593 C208.043409,47.033556 208.056,47.000778 208.056,46.968 C208.044695,46.9906103 208.029396,47.0112236 208.011866,47.0301928 L208.024677,47.0652593 Z M207.448342,49.0809521 C207.486262,49.0379681 207.544,48.994984 207.544,48.952 L207.544,48.888 L209.656,46.328 L210.296,45.624 C210.104,45.816 209.912,46.008 209.592,46.136 C208.632,46.968 207.8,47.8 207.544,48.888 C207.507607,48.9607865 207.471213,49.0128782 207.446588,49.0560431 L207.448342,49.0809521 Z M208.12,46.904 L208.248,46.776 L208.248,46.712 C208.184,46.776 208.184,46.84 208.12,46.904 Z M216.328,60.816 C216.296,60.84 216.28,60.856 216.248,60.856 C216.28,60.856 216.312,60.84 216.352,60.816 L216.328,60.816 Z M216.616,60.592 C216.648,60.568 216.696,60.536 216.76,60.472 C216.728,60.504 216.68,60.536 216.64,60.568 L216.616,60.592 Z M218.296,59.128 L219.576,57.72 L219.512,57.656 C218.872,57.976 218.552,58.488 218.232,58.936 L217.528,59.768 L218.296,59.128 Z M220.28,54.648 L220.664,54.264 L220.728,54.136 L220.536,54.2 L220.28,54.648 Z M209.39999,43.3839902 C209.336,43.319987 209.33599,43.1919967 209.144,43.128 C209.464,42.744 209.592,42.488 209.784,42.168 C210.424,41.848 210.872,41.336 211.32,40.76 L212.088,39.928 L211.256,40.696 L210.68,40.952 C210.552,40.952 210.296,40.888 210.232,40.952 L208.504,42.872 C208.504,43 208.696,43.064 208.76,43.128 L208.632,43.576 L208.504,43.576 L208.504,43.64 L208.12,44.088 C208.056,44.152 208.12,44.216 208.056,44.344 C208.184,44.28 208.248,44.216 208.248,44.152 C208.376,44.024 208.44,43.832 208.504,43.64 L208.632,43.576 C208.76,43.448 208.824,43.32 209.016,43.192 C209.08,43.192 209.08,43.192 209.144,43.128 L209.399997,43.3839967 L209.39999,43.3839902 Z M209.4,43.384 C209.336,43.64 208.888,44.152 209.656,43.896 C209.912,43.832 210.104,43.64 210.296,43.512 C211.384,43.064 212.152,43.192 212.728,43.832 C213.176,44.152 213.112,44.344 212.536,44.856 C211.832,45.496 210.936,46.072 210.296,46.776 C208.952,48.12 208.184,49.656 207.224,51.064 C206.392,52.344 206.456,53.24 207.224,54.008 C207.48,54.136 207.608,54.328 207.8,54.52 C210.168,56.568 213.496,56.824 217.272,56.312 C218.168,56.184 218.808,55.736 219.448,54.904 C222.84,50.488 224.568,46.008 224.504,41.464 C224.504,40.184 224.184,39.096 223.672,38.072 C223.416,37.432 222.968,36.856 222.136,36.792 C220.344,36.6 218.552,36.792 216.696,37.688 C214.328,38.84 212.28,40.376 210.424,42.296 C210.168,42.616 209.784,43.064 209.4,43.384 Z M222.008,54.52 C222.008,54.392 222.072,54.392 222.136,54.328 L222.008,54.392 L222.008,54.52 Z M229.624,51.064 L229.88,50.808 C229.816,50.872 229.688,51 229.56,51.064 L229.624,51.064 Z M230.44,50.472 C230.472,50.44 230.52,50.392 230.584,50.296 C230.52,50.36 230.472,50.408 230.44,50.448 L230.44,50.472 Z M230.728,50.192 C230.696,50.216 230.68,50.232 230.648,50.232 C230.68,50.232 230.728,50.216 230.776,50.192 L230.728,50.192 Z M231.224,49.848 C231.096,49.912 231.032,49.976 231.032,50.04 L231.224,49.848 Z M231.02963,51.3034074 L231.096,51.256 C231.096,51.256 231.067556,51.2844444 231.02963,51.3034074 Z M231.02963,51.3034074 C231.010667,51.3128889 230.989333,51.32 230.968,51.32 L230.648,51.576 L231.02963,51.3034074 Z M231.444486,50.947151 L231.8,50.744 C231.8,50.744 231.672,50.808 231.608,50.808 C231.561616,50.8543837 231.515233,50.9007673 231.444486,50.947151 Z M231.444486,50.947151 C231.417616,50.9647673 231.387233,50.9823837 231.352,51 L231.444486,50.947151 Z M232.12,50.552 L232.44,50.232 C232.44,50.232 232.376,50.296 232.312,50.296 C232.184,50.424 232.12,50.488 232.12,50.552 Z" id="Who" fill="#805278"></path>
                <path d="M102.156,109 L96.874,84.072 L100.142,84.072 L102.764,97.638 C102.992001,99.0060068 103.232665,100.34866 103.486,101.666 C103.739335,102.98334 103.979999,104.325993 104.208,105.694 L104.36,105.694 C104.638668,104.325993 104.929998,102.977007 105.234,101.647 C105.538002,100.316993 105.829332,98.9806734 106.108,97.638 L109.566,84.072 L112.454,84.072 L115.912,97.638 C116.216002,98.9553399 116.519998,100.285327 116.824,101.628 C117.128002,102.970673 117.431998,104.325993 117.736,105.694 L117.888,105.694 C118.116001,104.325993 118.343999,102.977007 118.572,101.647 C118.800001,100.316993 119.040665,98.9806734 119.294,97.638 L121.916,84.072 L124.956,84.072 L119.788,109 L115.988,109 L112.226,93.99 C111.997999,93.0273285 111.789001,92.0836713 111.599,91.159 C111.408999,90.2343287 111.212668,89.2906715 111.01,88.328 L110.858,88.328 C110.655332,89.2906715 110.446334,90.2343287 110.231,91.159 C110.015666,92.0836713 109.806668,93.0273285 109.604,93.99 L105.918,109 L102.156,109 Z M132.454667,109 L132.454667,84.072 L146.818667,84.072 L146.818667,86.732 L135.608667,86.732 L135.608667,94.56 L145.070667,94.56 L145.070667,97.258 L135.608667,97.258 L135.608667,106.302 L147.198667,106.302 L147.198667,109 L132.454667,109 Z M170.708,95.054 L169.53,98.854 L177.016,98.854 L175.838,95.054 C175.381998,93.6606597 174.951336,92.2736736 174.546,90.893 C174.140665,89.5123264 173.735336,88.1000072 173.33,86.656 L173.178,86.656 C172.797998,88.1000072 172.405336,89.5123264 172,90.893 C171.594665,92.2736736 171.164003,93.6606597 170.708,95.054 Z M163.108,109 L171.544,84.072 L175.116,84.072 L183.552,109 L180.17,109 L177.814,101.4 L168.732,101.4 L166.338,109 L163.108,109 Z M190.252667,109 L190.252667,84.072 L198.042667,84.072 C199.30934,84.072 200.480995,84.1923321 201.557667,84.433 C202.634339,84.6736679 203.558996,85.0726639 204.331667,85.63 C205.104338,86.1873361 205.705998,86.9093289 206.136667,87.796 C206.567336,88.6826711 206.782667,89.7719935 206.782667,91.064 C206.782667,93.0146764 206.276005,94.5726608 205.262667,95.738 C204.249329,96.9033392 202.881342,97.7013312 201.158667,98.132 L207.504667,109 L203.932667,109 L197.928667,98.474 L193.406667,98.474 L193.406667,109 L190.252667,109 Z M193.406667,95.89 L197.586667,95.89 C199.537343,95.89 201.031995,95.491004 202.070667,94.693 C203.109339,93.894996 203.628667,92.6853414 203.628667,91.064 C203.628667,89.4173251 203.109339,88.26467 202.070667,87.606 C201.031995,86.94733 199.537343,86.618 197.586667,86.618 L193.406667,86.618 L193.406667,95.89 Z M215.041334,109 L215.041334,84.072 L229.405334,84.072 L229.405334,86.732 L218.195334,86.732 L218.195334,94.56 L227.657334,94.56 L227.657334,97.258 L218.195334,97.258 L218.195334,106.302 L229.785334,106.302 L229.785334,109 L215.041334,109 Z" id="WE-ARE" fill="#424242"></path>
            </g>
        </g>
    </g>
</svg>