<?xml version="1.0" encoding="UTF-8" standalone="no"?>
<svg width="265px" height="109px" viewBox="0 0 265 109" version="1.1" xmlns="http://www.w3.org/2000/svg" xmlns:xlink="http://www.w3.org/1999/xlink">
    <!-- Generator: Sketch 50.2 (55047) - http://www.bohemiancoding.com/sketch -->
    <title>about-banner copy</title>
    <desc>Created with Sketch.</desc>
    <defs></defs>
    <g id="Page-1" stroke="none" stroke-width="1" fill="none" fill-rule="evenodd">
        <g id="Fonts-and-colors" transform="translate(-316.000000, -756.000000)">
            <g id="about-banner-copy" transform="translate(316.000000, 756.000000)">
                <path d="M0.5,67.5 L263.507604,67.5" id="Line-3-Copy" stroke="#805278" stroke-linecap="round" stroke-linejoin="round"></path>
                <path d="M140.368,8.12 C140.816,10.168 141.136,12.28 141.328,14.392 C141.52,16.504 141.648,18.616 141.712,20.856 C141.712,22.328 141.712,23.864 141.648,25.336 C141.584,26.808 141.456,28.28 141.264,29.816 C141.136,31.288 140.88,32.76 140.56,34.232 C140.24,35.704 139.856,37.112 139.408,38.584 C138.832,40.76 138.128,42.936 137.36,45.048 C136.528,47.16 135.632,49.336 134.672,51.512 C133.456,54.008 132.112,56.376 130.768,58.744 C129.36,61.048 127.76,63.288 125.904,65.528 C124.56,67.064 123.152,68.472 121.68,69.688 C120.208,70.904 118.672,71.992 117.008,72.952 C115.152,74.04 113.296,74.744 111.376,75.064 C107.856,75.896 105.36,74.808 104.016,71.928 C103.44,70.776 102.992,69.56 102.736,68.28 C102.48,67 102.288,65.656 102.096,64.248 C102.032,62.776 102.032,61.304 102.096,59.832 C102.16,58.36 102.288,56.952 102.48,55.48 C102.672,53.688 102.928,51.96 103.248,50.296 C103.568,48.568 103.888,46.904 104.272,45.176 L106.512,35.64 L106.512,35.384 C106.448,35.32 106.448,35.192 106.448,35.128 C106.384,35.192 106.32,35.32 106.256,35.384 L106.064,35.576 L103.952,39.032 C103.568,39.672 103.056,40.568 102.352,41.784 C101.648,42.936 100.816,44.216 99.984,45.624 C99.088,47.032 98.128,48.504 97.168,50.104 C96.208,51.64 95.248,53.112 94.352,54.52 C93.456,55.928 92.624,57.208 91.92,58.36 C91.152,59.512 90.576,60.408 90.128,61.048 C89.552,61.752 88.976,62.52 88.4,63.224 C87.824,63.928 87.12,64.632 86.416,65.272 C85.712,65.976 84.944,66.424 84.112,66.744 C83.28,67.064 82.512,67.192 81.808,67.128 C81.104,67.064 80.464,66.808 79.888,66.424 C79.312,66.04 78.864,65.464 78.672,64.76 C78.352,63.736 78.096,62.648 78.032,61.56 C77.968,60.472 77.968,59.32 78.032,58.168 C78.16,56.312 78.416,54.52 78.8,52.728 L79.76,48.696 C79.696,48.696 79.696,48.632 79.696,48.632 C77.584,47.864 75.92,46.776 74.704,45.304 C73.552,43.896 73.168,42.168 73.68,40.12 C73.808,39.288 74.064,38.456 74.448,37.688 C74.768,36.92 75.216,36.088 75.728,35.32 C76.368,34.296 77.136,33.336 77.904,32.376 C78.672,31.416 79.504,30.52 80.4,29.624 C81.936,28.152 83.536,26.872 85.328,25.72 C87.056,24.504 88.976,23.416 90.96,22.392 C91.792,22.008 92.624,21.624 93.456,21.304 C94.352,20.664 95.12,20.536 95.888,20.92 L96.528,21.432 C96.592,21.496 96.656,21.56 96.656,21.624 C96.656,21.688 96.72,21.816 96.848,21.88 C96.656,22.008 96.464,22.072 96.272,22.072 C96.016,22.136 95.824,22.264 95.632,22.456 C95.568,22.456 95.504,22.52 95.504,22.52 C95.504,22.584 95.504,22.648 95.568,22.648 C95.44,22.712 95.376,22.776 95.248,22.776 C95.184,22.904 95.12,22.968 94.992,23.096 C94.48,23.672 93.968,24.312 93.52,24.952 C93.008,25.592 92.496,26.232 92.048,26.872 C91.152,28.216 90.384,29.56 89.68,30.904 C88.976,32.248 88.336,33.656 87.76,35 C86.8,37.304 85.904,39.608 85.136,41.848 C84.368,44.088 83.664,46.328 83.088,48.568 C83.088,48.632 83.024,48.76 83.024,48.824 C84.624,49.272 86.288,49.656 87.76,49.912 L87.632,49.912 C86.224,49.912 84.88,49.784 83.536,49.656 C83.28,49.592 83.088,49.528 82.896,49.528 C82.576,50.744 82.32,51.896 82.064,53.112 C81.744,54.584 81.552,56.056 81.424,57.528 C81.296,58.616 81.232,59.64 81.232,60.664 C81.232,61.688 81.36,62.648 81.552,63.608 C81.616,63.928 81.68,64.184 81.808,64.44 C81.936,64.632 82.064,64.888 82.128,65.144 C82.192,65.336 82.32,65.464 82.512,65.464 C82.704,65.464 82.832,65.336 83.024,65.144 C83.344,64.952 83.664,64.696 83.984,64.44 C84.24,64.12 84.496,63.864 84.816,63.608 C85.712,62.712 86.544,61.752 87.248,60.728 C87.952,59.64 88.656,58.616 89.36,57.528 C89.936,56.696 90.64,55.544 91.536,54.2 C92.368,52.792 93.328,51.256 94.416,49.656 C95.44,47.992 96.528,46.264 97.616,44.472 C98.704,42.616 99.728,40.888 100.752,39.224 C101.776,37.56 102.736,36.024 103.568,34.616 C104.4,33.208 105.04,32.056 105.552,31.16 C106,30.328 106.512,29.432 107.024,28.6 L108.56,25.912 C109.008,25.208 109.392,24.696 109.776,24.504 C110.16,24.312 110.672,24.248 111.312,24.44 C111.504,24.504 111.632,24.504 111.76,24.568 C111.824,24.632 111.952,24.696 112.08,24.76 C112.272,24.952 112.464,25.08 112.528,25.272 C112.592,25.464 112.592,25.656 112.528,25.912 L112.208,27.512 C111.632,29.816 110.992,32.12 110.416,34.36 C109.776,36.6 109.136,38.904 108.56,41.144 C107.856,43.832 107.28,46.52 106.768,49.144 C106.256,51.768 105.872,54.328 105.68,56.952 C105.488,58.872 105.36,60.728 105.424,62.584 C105.488,64.376 105.68,66.104 106.128,67.704 C106.256,68.536 106.448,69.368 106.768,70.072 C107.088,70.776 107.408,71.416 107.856,72.056 C109.072,73.848 110.928,74.168 113.488,73.08 C114.384,72.632 115.28,72.12 116.112,71.608 C116.944,71.032 117.776,70.456 118.608,69.752 C120.08,68.408 121.488,67 122.704,65.528 C123.92,64.056 125.072,62.456 126.16,60.856 C128.208,57.784 130,54.648 131.472,51.384 C132.944,48.12 134.288,44.792 135.376,41.4 C135.888,39.8 136.4,38.136 136.976,36.536 C137.488,34.872 137.872,33.208 138.192,31.48 C138.384,30.392 138.512,29.304 138.64,28.216 C138.704,27.128 138.832,26.104 138.896,25.016 C138.96,23.8 138.96,22.648 138.96,21.496 C138.96,20.28 138.896,19.128 138.832,17.976 C138.768,15.8 138.64,13.688 138.448,11.704 C138.192,9.656 137.808,7.672 137.296,5.752 C137.04,4.792 136.72,3.96 136.272,3.128 C135.824,2.296 135.312,1.592 134.736,1.016 C134.672,0.952 134.544,0.824 134.48,0.696 C134.352,0.504 134.352,0.376 134.416,0.312 C134.48,0.12 134.608,0.056 134.8,0.056 C134.992,0.056 135.12,0.056 135.248,0.12 C136.336,0.44 137.296,1.08 138,2.04 C138.576,2.936 139.088,3.896 139.472,4.92 C139.792,5.944 140.112,7.032 140.368,8.12 Z M92.944,24.44 L93.136,24.184 L92.816,24.312 C92.624,24.632 92.368,24.952 92.048,25.272 C91.728,25.592 91.472,25.912 91.28,26.232 C90.448,27.384 89.68,28.6 89.04,29.88 C88.4,31.16 87.76,32.44 87.184,33.784 C86.224,35.896 85.328,38.072 84.56,40.248 C83.728,42.424 83.024,44.6 82.384,46.776 C82.256,47.352 82.128,47.928 81.936,48.504 C82.064,48.568 82.192,48.568 82.256,48.632 C82.896,46.328 83.536,44.088 84.304,41.976 C85.136,39.608 86.096,37.24 87.056,35 C88.016,32.696 89.168,30.392 90.512,28.152 C91.216,26.872 92.048,25.656 92.944,24.44 Z M81.0833262,46.7100213 C81.0738695,46.712 81.060087,46.712 81.04,46.712 L80.976,46.904 L81.04,46.84 L81.0833262,46.7100213 Z M81.36,45.688 L81.424,45.688 C81.424,45.56 81.424,45.496 81.488,45.496 L81.424,45.432 L81.36,45.688 Z M81.744,44.216 C81.68,44.28 81.68,44.344 81.744,44.344 C81.744,44.28 81.808,44.28 81.872,44.28 L81.872,44.024 C81.808,44.088 81.744,44.152 81.744,44.216 Z M82.957052,40.766057 C82.9218161,40.8067047 82.896,40.8473523 82.896,40.888 C82.896,40.952 82.896,40.952 82.832,41.016 C82.768,41.208 82.768,41.336 82.704,41.4 C82.64,41.464 82.64,41.592 82.64,41.656 L82.896,41.016 C82.896,40.9211299 82.9311576,40.8262597 82.9754149,40.7574475 L82.957052,40.766057 Z M83.152,40.056 L83.216,40.248 L83.216,40.12 L83.28,40.056 L83.344,39.928 C83.28,39.928 83.28,39.928 83.28,39.992 L83.216,39.992 L83.152,40.056 Z M83.6,41.4 C83.536,41.464 83.536,41.464 83.6,41.464 L83.6,41.4 Z M83.7280045,38.7677763 C83.728,38.7706201 83.728,38.7733643 83.728,38.776 C83.728,38.7728687 83.728,38.7698906 83.728,38.7670581 L83.7280045,38.7677763 Z M84.048,40.12 L83.984,40.184 C84.048,40.184 84.048,40.184 84.048,40.12 Z M84.3046416,37.3455951 C84.3470944,37.2745568 84.3895472,37.1753584 84.432,37.048 C84.496,36.984 84.496,36.856 84.496,36.664 L84.432,37.048 C84.3717363,37.1082637 84.3114725,37.2252731 84.3046416,37.3455951 Z M84.624,38.456 L84.496,38.584 L84.56,38.648 C84.624,38.584 84.624,38.52 84.624,38.456 Z M84.104,39.96 C84.112,39.944 84.112,39.928 84.112,39.928 C84.112,39.928 84.096,39.928 84.08,39.936 L84.104,39.96 Z M84.84,35.904 C84.88,35.768 84.912,35.64 84.944,35.512 C84.912,35.608 84.864,35.736 84.816,35.88 L84.84,35.904 Z M85.648,36.024 L85.584,36.088 C85.648,36.088 85.648,36.088 85.648,36.024 Z M85.328,36.664 C85.264,36.728 85.264,36.792 85.2,36.856 L85.072,37.24 L85.264,36.856 C85.264,36.792 85.264,36.792 85.328,36.728 C85.392,36.664 85.392,36.536 85.392,36.472 C85.328,36.536 85.328,36.6 85.328,36.664 Z M86.16,33.016 C86.544,32.504 86.8,31.928 86.928,31.352 C86.48,31.8 86.224,32.312 86.096,33.144 C86.16,33.144 86.16,33.08 86.16,33.08 L86.16,33.016 Z M86.992,32.952 L86.672,33.656 L87.056,32.888 L87.056,32.824 C87.056,32.824 87.056,32.888 86.992,32.952 Z M86.1698078,34.6516446 C86.1395787,34.6947948 86.1149761,34.7250239 86.096,34.744 C86.1279134,34.7120866 86.1598268,34.6642597 86.1917402,34.6163897 L86.1698078,34.6516446 Z M88.336,28.728 L88.592,28.216 C88.4,28.472 88.336,28.6 88.272,28.664 L88.144,28.984 L88.336,28.728 Z M88.976,29.048 C88.784,29.24 88.656,29.368 88.592,29.56 C88.656,29.496 88.784,29.304 88.976,29.048 Z M88.4,30.136 L88.08,30.648 L87.824,31.16 C87.888,31.096 87.952,30.968 88.016,30.904 C88.08,30.84 88.144,30.712 88.208,30.648 L88.4,30.136 Z M87.76,29.752 L87.952,29.432 C87.888,29.496 87.824,29.56 87.76,29.752 Z M87.76,31.352 L87.504,31.864 C87.44,32.056 87.376,32.184 87.312,32.312 C87.376,32.248 87.44,32.184 87.44,32.12 C87.44,32.056 87.504,31.928 87.568,31.864 L87.76,31.352 Z M87.376,30.52 L87.3176179,30.6367642 C87.3319457,30.5890318 87.3477285,30.5482715 87.376,30.52 Z M87.3176179,30.6367642 L87.248,30.776 L87.248,30.84 C87.2837285,30.768543 87.2995113,30.6970861 87.317618,30.6367639 L87.3176179,30.6367642 Z M87.376,30.52 C87.44,30.456 87.44,30.328 87.504,30.264 L87.376,30.52 Z M89.104,28.792 C89.168,28.792 89.168,28.728 89.232,28.728 L89.424,28.344 C89.36,28.408 89.296,28.536 89.232,28.664 L89.104,28.792 Z M93.136,24.12 L93.456,23.8 L93.392,23.8 C93.328,23.8 93.328,23.8 93.264,23.864 C93.264,23.928 93.2,24.056 93.136,24.12 Z M78.608,47.032 C78.992,47.288 79.504,47.544 79.952,47.736 C80.016,47.544 80.016,47.416 80.08,47.224 C80.912,44.472 81.808,41.72 82.832,39.032 C83.856,36.28 85.072,33.592 86.416,30.904 C87.12,29.56 87.888,28.216 88.72,26.936 C88.976,26.552 89.232,26.168 89.424,25.784 C87.824,26.68 86.352,27.832 84.88,28.92 C83.984,29.624 82.32,30.776 81.616,32.12 C81.232,32.312 80.848,32.632 80.528,32.952 C80.016,33.464 79.568,34.424 78.8,34.68 C78.096,35 77.904,35.64 78.032,36.216 C77.52,36.92 77.008,37.688 76.624,38.52 C76.176,39.224 75.856,39.992 75.6,40.76 C75.344,41.528 75.216,42.296 75.28,43.064 C75.344,44.856 76.432,46.136 78.608,47.032 Z M82.064,49.336 C82,49.336 81.872,49.336 81.808,49.272 C81.616,49.912 81.552,50.552 81.488,51.192 L81.808,50.36 C81.872,50.04 82,49.72 82.064,49.336 Z M80.272,49.656 L80.336,49.592 C80.336,49.528 80.336,49.464 80.272,49.4 L80.208,49.528 C80.272,49.592 80.272,49.592 80.272,49.656 Z M81.488,51.256 C81.296,51.512 81.168,51.768 81.168,52.088 C81.168,52.344 81.232,52.6 81.296,52.792 L81.488,51.256 Z M103.12,56.632 L103.44,53.944 L103.312,54.008 L103.056,56.696 L103.12,56.632 Z M103.76,50.872 C103.696,51.192 103.696,51.512 103.76,51.832 C103.952,51.256 104.08,50.616 104.08,49.912 L104.016,49.912 C103.888,50.232 103.824,50.552 103.76,50.872 Z M103.952,56.248 L104.272,53.816 L104.208,53.816 L103.888,56.248 L103.952,56.248 Z M108.112,32.568 L108.048,32.696 L108.176,32.696 L108.176,32.632 L108.112,32.568 Z M107.92,36.664 C107.856,36.728 107.856,36.728 107.856,36.664 L107.792,36.728 L107.792,36.856 C107.856,36.792 107.92,36.728 107.92,36.664 Z M107.728,33.848 C107.664,33.912 107.664,33.976 107.664,34.04 L107.728,34.168 C107.728,34.104 107.728,34.104 107.792,34.104 C107.856,34.04 107.856,34.04 107.856,33.976 C107.792,33.912 107.728,33.912 107.792,33.848 C107.856,33.784 107.792,33.784 107.728,33.848 Z M107.591726,38.0968229 C107.572419,38.108419 107.522209,38.0582095 107.472,38.008 L107.408,38.136 C107.408,38.2 107.408,38.264 107.472,38.264 C107.472,38.2 107.472,38.2 107.536,38.264 L107.591726,38.0968229 Z M107.216,36.024 L107.152,36.024 L107.216,36.152 L107.216,36.024 Z M107.216,36.152 L107.208502,36.1757432 C107.210898,36.1677286 107.213396,36.1598114 107.216,36.152 Z M107.208502,36.1757432 L106.832,37.368 C107.024,37.176 107.088,36.984 107.152,36.792 C107.152,36.6078114 107.152,36.3647244 107.208502,36.1757432 Z M107.216,36.024 C107.28,35.96 107.344,35.832 107.344,35.768 C107.344,35.704 107.344,35.576 107.408,35.512 L107.408,35.32 C107.344,35.384 107.28,35.448 107.28,35.512 C107.216,35.576 107.216,35.704 107.28,35.768 C107.28,35.832 107.28,35.96 107.216,36.024 Z M107.104907,39.6786396 L107.024,39.8 C106.96,39.864 107.024,39.864 107.088,39.864 C107.088,39.8 107.088,39.8 107.152,39.8 L107.152,39.736 C107.124399,39.7083987 107.108701,39.692701 107.104907,39.6786396 Z M106.768,38.072 C106.832,38.008 106.768,37.816 106.704,37.496 C106.64,37.624 106.64,37.752 106.64,37.88 C106.64,37.944 106.64,38.072 106.576,38.136 C106.512,38.2 106.512,38.2 106.576,38.264 C106.64,38.264 106.64,38.328 106.576,38.392 C106.704,38.328 106.768,38.2 106.768,38.072 Z M106.832,41.4 L106.704,41.144 L106.704,41.336 C106.64,41.4 106.64,41.4 106.64,41.464 C106.576,41.528 106.64,41.656 106.704,41.72 L106.832,41.4 Z M106.704,33.016 L106.704,33.08 L106.704,33.016 Z M107.152,32.12 L106.768,32.888 C106.896,32.76 106.96,32.632 107.024,32.568 L107.216,32.184 C107.28,32.12 107.28,32.056 107.28,31.992 L107.152,32.12 Z M101.136,42.232 C101.264,42.104 101.392,41.912 101.456,41.72 C101.392,41.784 101.328,41.912 101.264,41.976 C101.2,42.04 101.2,42.168 101.136,42.232 Z M101.712,41.464 C101.712,41.4 101.712,41.4 101.776,41.336 L101.648,41.464 L101.584,41.592 L101.712,41.464 Z M102.608,39.8 L102.224,40.376 L102.224,40.44 L102.608,39.8 Z M103.824,37.816 L103.952,37.496 L103.696,37.944 C103.632,38.072 103.632,38.2 103.568,38.328 L103.312,38.584 L103.568,38.328 C103.632,38.2 103.76,38.008 103.824,37.816 Z M105.68,34.808 C105.616,34.744 105.616,34.744 105.68,34.68 L105.68,34.616 C105.68,34.68 105.616,34.68 105.552,34.68 L105.616,34.808 L104.848,36.024 C105.04,35.832 105.232,35.64 105.36,35.448 C105.424,35.256 105.552,35 105.616,34.808 L105.68,34.808 Z M105.808,34.424 C105.872,34.424 105.872,34.36 105.872,34.36 L105.808,34.424 Z M105.872,34.296 L105.936,34.232 L105.936,34.168 L105.872,34.232 L105.872,34.296 Z M106,34.168 L106.064,34.04 C106,34.104 106,34.168 106,34.168 Z M106.24,43.448 C106.24,43.464 106.224,43.48 106.192,43.512 L106.24,43.448 Z M106.24,43.448 L106.384,43.256 C106.384,43.192 106.32,43.128 106.192,43.128 L106.192,43.32 C106.128,43.32 106.128,43.32 106.192,43.384 C106.224,43.416 106.24,43.432 106.24,43.448 Z M106.192,39.8 C106.192,39.8 106.192,39.864 106.128,39.928 C106.128,39.992 106.192,40.056 106.256,40.056 C106.192,39.992 106.192,39.928 106.32,39.8 L106.32,39.736 C106.256,39.672 106.256,39.672 106.256,39.608 C106.192,39.672 106.192,39.736 106.192,39.8 Z M105.744,41.528 L105.744,41.72 C105.808,41.72 105.872,41.656 105.936,41.528 L105.872,41.272 C105.808,41.336 105.744,41.464 105.744,41.528 Z M105.744,45.432 L105.744,45.56 C105.808,45.432 105.872,45.304 105.872,45.112 C105.936,45.048 106,45.048 105.936,45.048 L105.872,44.984 L105.744,45.432 Z M105.296,43.704 C105.232,43.768 105.296,43.832 105.36,43.896 C105.36,43.832 105.36,43.832 105.424,43.768 L105.488,43.768 L105.488,43.32 C105.552,43.256 105.552,43.128 105.488,43 C105.424,43.064 105.36,43.192 105.296,43.256 L105.296,43.704 Z M105.27902,48.0377143 C105.275102,48.0651429 105.259429,48.0925714 105.232,48.12 L105.279021,48.0377136 L105.27902,48.0377143 Z M105.279021,48.0377136 L105.488,47.672 L105.36,47.352 C105.296,47.544 105.232,47.672 105.232,47.736 C105.168,47.8 105.168,47.864 105.232,47.928 C105.268571,47.9645714 105.284245,48.0011429 105.27902,48.0377143 L105.279021,48.0377136 Z M104.912,45.112 C104.976,45.24 104.912,45.368 104.72,45.56 L104.976,45.816 C104.912,45.752 104.912,45.688 104.976,45.624 C105.04,45.56 105.04,45.432 105.04,45.368 C105.104,45.304 105.04,45.24 104.912,45.112 Z M104.848,49.464 L104.72,50.744 C105.04,50.232 105.04,49.784 104.848,49.464 Z M104.464,47.288 C104.4,47.48 104.336,47.736 104.336,47.928 C104.336,48.12 104.4,48.248 104.528,48.376 L104.528,47.288 L104.464,47.288 Z M104.528,60.792 C104.528,60.728 104.528,60.6 104.592,60.536 L104.464,60.408 L104.4,60.728 C104.4,60.792 104.4,60.792 104.464,60.792 L104.528,60.792 Z M105.104,54.712 C105.168,53.624 105.36,52.472 105.552,51.384 C105.744,50.04 106,48.76 106.32,47.416 L107.28,43.384 C107.664,41.592 108.112,39.864 108.56,38.136 C109.008,36.408 109.456,34.616 109.904,32.824 C110.096,32.248 110.224,31.608 110.352,31.032 C110.416,30.456 110.544,29.816 110.736,29.24 L110.8,29.176 C110.928,28.984 110.992,28.792 110.992,28.6 C110.992,28.408 111.056,28.216 111.12,28.024 C111.184,27.896 111.248,27.832 111.312,27.832 L111.248,27.768 C111.184,27.768 111.184,27.768 111.12,27.704 L111.12,28.024 C110.928,28.216 110.864,28.408 110.864,28.6 C110.8,28.792 110.8,28.984 110.8,29.176 L110.736,29.176 L110.736,29.24 L110.352,29.944 C109.904,31.48 109.52,33.016 109.072,34.616 C108.624,36.152 108.24,37.688 107.856,39.16 C107.6,40.248 107.344,41.272 107.152,42.296 C106.896,43.256 106.64,44.28 106.384,45.24 C106.192,46.328 106,47.352 105.808,48.376 C105.616,49.4 105.36,50.424 105.168,51.384 C104.976,52.6 104.848,53.752 104.784,54.968 C104.656,56.184 104.528,57.336 104.4,58.488 C104.4,58.68 104.4,58.872 104.464,59 C104.528,58.808 104.592,58.616 104.656,58.488 C104.72,58.36 104.72,58.232 104.72,58.04 C104.848,56.952 104.976,55.8 105.104,54.712 Z M138.384,36.6 C138.384,36.728 138.32,36.792 138.192,36.792 L138.32,36.792 L138.384,36.728 L138.384,36.6 Z M138.128,34.616 C138.064,34.616 138.064,34.616 138.128,34.68 L138,34.808 L138.192,34.744 L138.128,34.616 Z M138,37.816 L137.936,37.816 C137.936,37.88 137.872,38.008 137.808,38.072 L137.936,38.008 C138,38.008 138,38.008 138,37.944 L138,37.816 Z M137.552,36.664 C137.488,36.856 137.424,36.984 137.488,37.048 L137.616,36.728 L137.68,36.6 C137.68,36.536 137.68,36.472 137.744,36.408 C137.808,36.344 137.808,36.28 137.744,36.216 L137.808,36.024 L137.552,36.28 C137.552,36.472 137.616,36.536 137.68,36.6 L137.552,36.664 Z M137.68,38.968 L137.616,38.968 L137.616,39.096 L137.68,38.968 Z M137.36,40.056 L137.296,39.992 C137.232,40.056 137.232,40.056 137.232,40.12 L137.168,40.184 C137.168,40.248 137.168,40.248 137.232,40.248 L137.36,40.248 L137.36,40.056 Z M137.104729,38.3793281 C137.111972,38.3123042 137.171986,38.196014 137.232,38.136 L137.232,37.816 L137.04,38.136 C136.976,38.2 136.976,38.2 137.04,38.264 C137.097227,38.3212271 137.103283,38.3272833 137.103924,38.37368 L137.104729,38.3793281 Z M136.912,41.144 L136.912,41.208 L136.976,41.144 L136.912,41.144 Z M136.592,39.608 L136.592,39.992 C136.592,40.056 136.656,39.992 136.72,39.8 L136.72,39.544 L136.592,39.608 Z M136.72,42.104 L136.592,42.168 L136.656,42.168 L136.72,42.104 Z M135.44,43.32 L135.504,43.256 L135.312,43.384 L135.44,43.32 Z M135.76,42.424 L135.824,42.296 L135.632,42.36 L135.76,42.424 Z M136.144,41.08 L136.08,41.208 C136.144,41.144 136.144,41.144 136.144,41.08 Z M139.792,34.552 L139.792,33.656 C139.728,33.848 139.664,34.04 139.664,34.104 C139.6,34.168 139.6,34.232 139.536,34.296 L136.336,44.536 L136.144,45.56 C136.4,45.24 136.528,44.984 136.592,44.792 C137.232,43.064 137.808,41.4 138.32,39.672 C138.832,37.944 139.344,36.28 139.792,34.552 Z M140.176,32.376 C140.112,32.376 140.112,32.376 140.176,32.312 L139.984,32.376 C139.984,32.44 139.984,32.44 140.048,32.44 L140.048,32.568 L140.112,32.504 C140.112,32.44 140.112,32.44 140.176,32.376 Z M166.672,52.792 C166.8,52.536 167.056,52.344 167.376,52.152 C167.184,52.408 166.992,52.6 166.8,52.856 C166.544,53.112 166.352,53.368 166.16,53.56 C166.352,53.304 166.48,53.048 166.672,52.792 Z M158.768122,61.8562923 C158.834299,61.8130787 158.891537,61.7609267 158.928,61.688 L158.768122,61.8562925 L158.768122,61.8562923 Z M158.768122,61.8562923 L157.712,62.968 L158.16,62.136 C158.288,62.072 158.416,62.008 158.608,61.944 C158.663073,61.9164633 158.718147,61.8889267 158.768122,61.8562923 Z M163.92,56.056 L164.944,54.968 L165.264,54.648 C165.136,54.776 165.072,54.904 165.008,54.968 L163.92,56.12 L163.92,56.056 Z M161.872,58.488 L163.152,57.016 C162.704,57.4 162.256,57.848 161.872,58.488 Z M166.736,50.36 L169.36,49.976 L168.208,51.192 C168.144,51.128 168.144,51.064 168.144,51 C168.144,51 168.144,50.936 168.08,50.808 L168.144,50.68 L168.08,50.744 L168.08,50.808 L167.76,51.192 L168.208,51.192 L167.44,52.088 C167.44,51.896 167.376,51.768 167.312,51.64 L166.8,51.896 L166.48,52.28 L166.608,51.896 L166.352,52.28 L166.48,52.28 L166.224,52.728 L165.84,53.176 L165.968,52.792 L165.648,53.176 L165.84,53.176 L165.456,53.624 C165.392,53.752 165.264,53.88 165.072,54.008 L165.2,53.688 L164.816,54.072 L165.072,54.072 L164.688,54.52 C164.688,54.456 164.688,54.392 164.752,54.328 L164.752,54.136 C164.368,54.392 164.048,54.712 163.792,55.032 C163.536,55.416 163.28,55.736 163.088,56.056 C163.024,56.184 163.024,56.184 163.024,56.248 C162.96,56.248 162.96,56.312 162.896,56.376 L163.024,56.056 C162.96,56.12 162.832,56.184 162.768,56.184 C162.704,56.248 162.576,56.312 162.512,56.312 C162.832,55.928 163.088,55.544 163.344,55.224 C163.6,54.84 163.856,54.52 164.112,54.136 L163.6,54.328 L164.368,53.432 L164.176,54.008 L164.496,53.688 C164.624,53.496 164.752,53.368 164.88,53.176 C164.816,53.24 164.752,53.24 164.752,53.176 C164.752,53.112 164.944,52.792 165.392,52.152 L165.2,52.792 C165.264,52.792 165.264,52.792 165.264,52.728 L165.2,52.792 L165.904,51.96 L165.52,52.088 L166.16,51.256 L166.032,51.832 L166.672,51 L166.224,51.192 C166.352,50.936 166.544,50.616 166.736,50.36 Z M165.328,53.624 L165.456,53.24 L165.136,53.624 L165.328,53.624 Z M166.16,52.728 L166.288,52.344 L165.968,52.728 L166.16,52.728 Z M167.12,51.32 C167.12,51.32 167.12,51.256 167.184,51.192 L166.928,51.448 L166.608,51.832 L166.8,51.832 L166.928,51.448 L166.992,51.448 C167.056,51.448 167.056,51.384 167.12,51.32 Z M168.912,49.784 C168.976,49.784 169.04,49.72 169.104,49.656 L168.912,49.784 Z M162.128,56.12 L162,56.504 L162.512,56.312 C162.32,56.568 162.192,56.76 162.064,57.016 C161.936,57.208 161.808,57.464 161.616,57.656 L161.296,58.104 L160.848,58.552 L159.888,59.64 C159.824,59.768 159.76,59.832 159.696,59.896 C159.632,59.96 159.504,60.024 159.44,60.088 L158.352,60.984 C158.096,61.368 158.032,61.752 158.16,62.072 L157.392,62.52 C157.2,62.84 157.136,63.032 157.2,63.096 C157.264,63.16 157.392,63.16 157.648,63.032 C157.2,63.544 156.752,64.056 156.304,64.504 C155.792,64.952 155.28,65.336 154.704,65.72 C154,66.232 153.168,66.424 152.272,66.296 C151.312,66.168 150.736,65.784 150.544,65.08 C150.352,64.44 150.352,63.608 150.48,62.712 C150.608,61.88 150.8,61.048 151.12,60.216 C151.376,59.448 151.696,58.616 152.016,57.72 C152.976,55.032 154.192,52.344 155.664,49.72 C157.136,47.096 158.608,44.472 160.08,41.784 C160.4,41.272 160.72,40.696 160.976,40.184 C161.296,39.608 161.552,39.096 161.872,38.52 C161.936,38.456 162,38.392 162,38.264 C161.936,38.2 161.936,38.136 162,38.008 C161.872,38.072 161.744,38.072 161.68,38.072 C161.616,38.008 161.488,38.072 161.424,38.136 C160.912,38.456 160.4,38.712 159.824,39.032 C159.312,39.288 158.8,39.608 158.288,39.928 C156.368,41.208 154.512,42.616 152.72,44.024 C150.928,45.496 149.136,47.032 147.408,48.568 C145.936,49.976 144.464,51.384 143.056,52.856 C141.648,54.328 140.24,55.8 138.896,57.272 C138.768,57.464 138.64,57.592 138.512,57.784 C138.384,57.912 138.256,58.04 138.128,58.104 C137.808,58.36 137.552,58.488 137.36,58.488 C136.912,58.552 136.464,58.552 136.016,58.488 C135.568,58.424 135.12,58.296 134.736,58.04 C134.416,57.848 134.224,57.592 134.288,57.272 C134.352,56.888 134.416,56.504 134.48,56.184 C134.48,55.8 134.544,55.416 134.608,55.032 C134.928,53.688 135.184,52.28 135.504,50.872 C135.824,49.464 136.144,48.056 136.528,46.648 C136.912,44.856 137.36,43.064 137.872,41.272 C138.384,39.48 139.024,37.688 139.728,35.896 L141.84,30.456 C143.248,27.064 144.912,23.736 146.832,20.536 C148.752,17.336 151.056,14.264 153.744,11.192 C154.32,10.552 154.896,9.912 155.344,9.4 C155.664,9.016 155.984,8.696 156.368,8.312 C156.496,8.184 156.624,8.12 156.752,7.992 C157.52,7.608 158.224,7.096 158.928,6.584 C159.632,6.136 160.4,5.752 161.104,5.368 C162,4.984 162.768,4.664 163.6,4.728 C163.792,4.856 163.92,4.92 164.112,4.984 L164.176,4.984 C164.368,5.112 164.624,5.24 164.816,5.432 C164.88,5.496 164.944,5.496 165.008,5.56 C165.008,5.624 165.072,5.624 165.072,5.688 C164.944,6.2 164.752,6.712 164.624,7.224 C163.984,9.016 163.28,10.744 162.512,12.408 C161.744,14.072 160.848,15.672 159.952,17.336 C158.48,20.088 156.944,22.712 155.28,25.272 C153.616,27.832 151.824,30.392 150.032,32.824 C148.304,35 146.576,37.112 144.848,39.16 C143.696,40.504 142.48,41.848 141.264,43.128 C141.264,43.192 141.2,43.192 141.2,43.256 C141.072,43.64 140.944,43.96 140.88,44.28 C140.816,44.6 140.688,44.92 140.624,45.24 L138.768,52.6 L138.64,52.92 C138.768,53.048 138.832,53.112 138.768,53.112 C138.832,53.112 138.96,53.112 139.152,52.984 L139.92,52.216 C141.072,51.064 142.224,49.912 143.44,48.824 C144.656,47.672 145.872,46.584 147.088,45.56 C148.88,44.152 150.608,42.808 152.336,41.464 C154.064,40.12 155.856,38.904 157.712,37.752 C158.416,37.368 159.056,37.048 159.76,36.728 C160.4,36.408 161.104,36.088 161.808,35.832 C162.512,35.64 163.152,35.576 163.856,35.704 C165.264,36.152 165.712,37.112 165.136,38.52 C164.944,39.096 164.688,39.608 164.432,40.12 C164.176,40.632 163.92,41.208 163.6,41.72 C162.64,43.448 161.68,45.176 160.72,46.84 C159.696,48.568 158.736,50.296 157.776,51.96 C156.88,53.624 156.048,55.224 155.28,56.824 C154.512,58.488 153.872,60.088 153.296,61.752 C153.168,62.2 153.104,62.584 153.04,62.968 C152.976,63.352 152.848,63.8 152.784,64.184 C152.72,64.376 152.72,64.568 152.784,64.696 C152.784,64.888 152.848,65.016 152.912,65.016 C153.104,65.144 153.296,65.08 153.488,64.952 L153.936,64.504 L155.856,62.84 L156.88,61.88 L157.2,61.496 C157.2,61.688 157.2,61.816 157.136,61.88 L157.776,61.24 L158.288,60.984 C158.48,60.728 158.672,60.472 158.8,60.088 L159.184,59.64 L158.992,59.64 L159.312,59.256 C159.248,59.384 159.248,59.512 159.248,59.64 L160.208,58.552 L159.696,58.744 C159.76,58.68 159.888,58.552 160.016,58.488 L160.4,58.104 L160.272,58.488 L160.592,58.104 L160.4,58.104 L160.72,57.72 C160.656,57.912 160.592,58.04 160.656,58.104 C161.168,57.72 161.616,57.208 161.936,56.568 L161.488,56.76 L162.128,56.12 Z M164.048,38.648 L163.92,39.16 L164.112,38.968 C164.176,38.904 164.176,38.84 164.24,38.712 C164.368,38.712 164.368,38.648 164.24,38.52 C164.24,38.584 164.176,38.584 164.112,38.584 C164.048,38.584 164.048,38.648 164.048,38.648 Z M149.584,31.992 L149.584,31.928 C149.52,31.992 149.456,32.056 149.456,32.12 C149.52,32.12 149.584,32.056 149.584,31.992 Z M152.208,28.472 L152.272,28.408 L152.144,28.408 L152.016,28.6 L152.208,28.472 Z M162.064,11.704 L162.064,11.64 L160.848,13.944 C160.4,14.712 160.016,15.416 159.632,16.12 C159.248,16.888 158.8,17.592 158.352,18.296 C157.648,19.512 156.944,20.664 156.24,21.816 C155.472,22.968 154.768,24.184 154.064,25.4 C153.936,25.656 153.744,25.912 153.616,26.168 C153.424,26.424 153.232,26.68 153.104,26.936 L152.848,27.256 C152.848,27.384 152.784,27.512 152.72,27.64 L152.528,28.024 L152.976,27.448 L154.256,25.528 L154.704,24.888 C155.6,23.416 156.56,21.944 157.52,20.408 C158.416,18.936 159.312,17.4 160.208,15.864 L160.976,14.072 C161.104,13.688 161.296,13.24 161.488,12.856 C161.616,12.472 161.808,12.088 162.064,11.704 Z M154.448,22.648 L154.512,22.648 L154.704,22.072 L154.448,22.648 Z M155.088,22.968 L154.832,23.16 L154.896,23.224 L155.088,22.968 Z M154.896,22.008 C154.896,22.008 154.96,22.008 154.96,21.944 C155.088,21.816 155.152,21.688 155.152,21.56 C155.088,21.688 155.024,21.752 154.96,21.816 C154.896,21.88 154.896,21.944 154.896,22.008 Z M155.344,21.176 C155.408,21.176 155.472,21.112 155.536,20.984 C155.536,20.984 155.536,20.92 155.6,20.92 L155.6,20.728 C155.6,20.856 155.536,20.92 155.536,20.92 C155.472,20.92 155.472,20.984 155.472,20.984 L155.344,21.176 Z M156.686708,20.2042829 C156.688,20.1868552 156.688,20.1694276 156.688,20.152 C156.688,20.1690486 156.688,20.1860972 156.68558,20.2031458 L156.686708,20.2042829 Z M156.56,19.192 L157.008,18.552 L157.328,17.848 L157.008,18.488 L156.56,19.192 Z M157.52,18.808 L157.648,18.552 L157.904,18.232 C157.776,18.36 157.712,18.488 157.584,18.552 L157.52,18.808 Z M159.184,14.584 C159.44,14.328 159.632,14.008 159.696,13.624 C159.568,13.752 159.504,13.944 159.44,14.072 C159.312,14.264 159.248,14.456 159.184,14.584 C159.12,14.712 158.992,14.84 158.864,15.096 C158.864,15.16 158.8,15.224 158.8,15.224 L158.928,15.096 L159.184,14.584 Z M159.76,14.904 L159.696,14.968 C159.696,15.096 159.632,15.16 159.632,15.16 L159.632,15.288 L159.76,14.904 Z M159.568,15.416 C159.504,15.48 159.504,15.48 159.44,15.48 C159.44,15.544 159.376,15.608 159.312,15.672 L159.568,15.416 Z M158.962782,16.4943818 C158.972367,16.4777602 158.982184,16.4596329 158.992,16.44 C158.982525,16.4589506 158.973049,16.4764984 158.963574,16.4926433 L158.962782,16.4943818 Z M158.352,16.184 L158.672,15.608 C158.544,15.736 158.48,15.8 158.48,15.864 C158.416,15.992 158.352,16.056 158.288,16.184 L158.032,16.568 C158.16,16.44 158.288,16.312 158.352,16.184 Z M158.16,17.656 L157.968,17.976 L158.224,17.656 L158.48,17.208 C158.352,17.336 158.288,17.4 158.288,17.464 C158.288,17.592 158.224,17.656 158.16,17.656 Z M160.144,12.536 L160.336,12.344 C160.336,12.28 160.4,12.216 160.528,12.088 L160.528,11.96 L160.464,12.088 L160.144,12.536 Z M162.32,11.256 L162.576,10.424 L162.32,11.192 L162.192,11.384 L162.32,11.256 Z M154.256,11.576 C153.872,12.024 153.552,12.408 153.36,12.664 C153.68,12.408 154.064,12.088 154.512,11.576 C154.96,11.128 155.344,10.68 155.792,10.168 C156.24,9.72 156.624,9.272 156.944,8.952 C157.264,8.568 157.392,8.376 157.456,8.248 C157.52,8.184 157.328,8.312 157.008,8.632 C156.688,9.016 156.048,9.592 155.216,10.488 C154.896,10.744 154.576,11.128 154.256,11.576 Z M156.112,10.68 L155.664,11.128 L155.92,10.936 C155.92,10.936 155.92,10.872 155.984,10.872 C156.048,10.808 156.048,10.808 156.112,10.68 Z M155.472,11.32 L155.216,11.576 C155.152,11.64 155.152,11.704 155.152,11.704 C155.088,11.768 155.088,11.832 155.024,11.832 L155.216,11.64 L155.472,11.32 Z M154.576,12.472 L154.192,12.92 C154.192,12.984 154.192,12.984 154.128,12.984 C154.064,12.984 154.064,13.048 154.064,13.048 L154.192,12.984 L154.576,12.536 L154.576,12.472 Z M153.573404,13.7056954 C153.51866,13.7424636 153.460768,13.7792318 153.424,13.816 C153.424,13.8394256 153.424,13.8628513 153.420862,13.8831384 L153.424,13.88 L153.573404,13.7056954 Z M153.420862,13.8831384 C153.415426,13.9182769 153.400574,13.944 153.36,13.944 L153.420862,13.8831383 Z M153.04,13.176 C152.464,13.56 152.08,14.072 151.888,14.712 C152.08,14.52 152.336,14.264 152.528,14.008 C152.72,13.752 152.912,13.496 153.04,13.176 Z M150.928,15.928 C150.864,15.992 150.864,16.056 150.864,16.056 L151.056,15.864 L151.376,15.352 L150.992,15.8 C150.992,15.864 150.992,15.928 150.928,15.928 Z M150.685205,16.2073687 C150.672,16.2256527 150.672,16.248 150.672,16.248 L150.16,16.952 L150.672,16.312 C150.672,16.2676621 150.672,16.2233242 150.69328,16.200266 L150.685205,16.2073687 Z M150.110733,20.0091415 C150.294646,19.8220943 150.420953,19.6350472 150.608,19.448 C150.736,19.32 150.864,19.128 150.992,18.872 C152.08,17.336 153.168,15.8 154.32,14.328 C155.408,12.856 156.688,11.448 158.032,10.04 L159.44,8.568 L159.696,8.312 L160.016,8.056 L159.376,8.44 C158.928,8.824 158.544,9.144 158.16,9.528 C157.712,9.848 157.328,10.232 157.008,10.616 C155.664,12.024 154.448,13.432 153.424,14.904 C152.336,16.376 151.312,17.848 150.352,19.384 C150.288,19.512 150.224,19.576 150.224,19.704 C150.171499,19.8090017 150.162066,19.9140033 150.125042,19.9836754 L150.110733,20.0091415 Z M149.392,21.112 L149.392,21.176 L149.52,21.112 L149.584,20.984 C149.52,20.984 149.456,21.048 149.392,21.112 Z M148.688,22.456 L148.56,22.712 C148.624,22.712 148.688,22.648 148.752,22.584 C148.752,22.584 148.752,22.52 148.816,22.456 L148.816,22.328 L148.688,22.456 Z M148.368,22.904 L148.368,23.16 C148.368,23.16 148.368,23.096 148.432,23.096 C148.496,23.032 148.496,23.032 148.496,22.968 L148.56,22.776 L148.496,22.84 C148.432,22.84 148.432,22.904 148.368,22.904 Z M147.664,24.312 L147.664,24.376 L147.792,24.376 L147.728,24.312 L147.664,24.312 Z M146.896,25.912 L146.832,26.04 L146.896,26.04 C146.96,25.976 146.96,25.976 146.96,25.912 C147.024,25.848 147.088,25.784 147.088,25.72 L147.024,25.656 C147.024,25.72 147.024,25.784 146.96,25.784 C146.896,25.848 146.896,25.912 146.896,25.912 Z M146.64,26.36 L146.512,26.616 C146.576,26.552 146.64,26.488 146.64,26.424 C146.704,26.296 146.768,26.232 146.832,26.168 L146.64,26.36 Z M150.16,20.536 C148.368,23.672 146.896,26.872 145.68,30.136 C144.784,32.504 143.952,34.744 143.248,36.92 C145.232,34.552 147.216,32.12 149.008,29.624 C151.696,25.976 154.256,22.136 156.624,18.104 C157.584,16.44 158.544,14.712 159.44,12.984 C160.336,11.256 161.104,9.464 161.744,7.608 C161.744,7.544 161.808,7.416 161.808,7.288 C159.952,8.632 158.224,10.04 156.752,11.64 C154.128,14.456 151.952,17.4 150.16,20.536 Z M163.792,39.224 L162.448,41.4 C161.296,43.576 160.08,45.752 158.864,47.864 C157.648,49.976 156.496,52.088 155.408,54.264 L154.384,56.568 C154.32,56.696 154.256,56.76 154.32,56.888 C154.32,57.016 154.32,57.144 154.256,57.208 L154.512,56.952 C154.576,56.824 154.576,56.76 154.64,56.632 L157.584,50.872 L163.28,40.632 C163.408,40.44 163.536,40.184 163.6,39.928 C163.664,39.672 163.728,39.48 163.792,39.224 Z M156.496,50.936 C156.56,51 156.56,51.064 156.56,51.064 L156.688,51 L156.56,50.872 L156.496,50.936 Z M162,39.736 C161.936,39.864 161.872,39.928 161.872,39.992 L162.064,39.8 L162.128,39.672 C162.064,39.672 162.064,39.736 162,39.736 Z M161.616,40.248 L161.616,40.44 C161.68,40.376 161.744,40.312 161.744,40.248 L161.808,40.056 L161.616,40.248 Z M161.104,41.464 L160.912,41.592 L160.976,41.592 C161.04,41.592 161.04,41.592 161.104,41.528 L161.104,41.464 Z M159.952,43.256 C159.888,43.384 159.888,43.384 159.952,43.384 L160.08,43.32 L160.144,43 L160.336,42.808 C160.4,42.808 160.4,42.744 160.4,42.744 C160.4,42.68 160.4,42.68 160.464,42.616 C160.528,42.616 160.528,42.552 160.464,42.552 C160.336,42.616 160.272,42.68 160.208,42.808 L160.144,43 C160.08,43.128 160.08,43.128 160.016,43.192 C159.952,43.192 159.952,43.256 159.952,43.256 Z M159.696,45.496 L159.632,45.624 L159.76,45.496 C159.824,45.496 159.824,45.432 159.824,45.432 C159.824,45.368 159.824,45.368 159.888,45.304 C159.888,45.304 159.888,45.24 159.824,45.24 C159.824,45.304 159.824,45.304 159.76,45.368 C159.696,45.368 159.696,45.432 159.696,45.496 Z M159.312,46.072 C159.248,46.2 159.12,46.392 159.056,46.52 L158.864,46.712 L158.8,46.904 C158.736,46.904 158.736,46.968 158.8,46.968 L158.992,46.712 L159.056,46.52 L159.632,45.688 C159.504,45.816 159.376,45.944 159.312,46.072 Z M158.672,45.688 C158.608,45.752 158.608,45.816 158.608,45.88 C158.608,45.88 158.672,45.816 158.736,45.688 C158.8,45.688 158.8,45.624 158.8,45.624 C158.8,45.56 158.8,45.56 158.864,45.496 C158.864,45.496 158.864,45.432 158.8,45.432 C158.8,45.496 158.8,45.496 158.736,45.56 C158.672,45.56 158.672,45.624 158.672,45.688 Z M158.288,46.392 C158.352,46.264 158.48,46.136 158.544,45.944 C158.48,46.2 158.288,46.456 158.032,46.776 C158.096,46.648 158.224,46.52 158.288,46.392 Z M157.712,49.08 C157.776,49.08 157.776,49.016 157.712,48.952 L157.52,49.336 L157.584,49.336 L157.584,49.272 C157.648,49.272 157.712,49.208 157.712,49.08 Z M157.392,47.864 L157.328,48.056 C157.392,48.056 157.456,48.056 157.456,47.928 L157.584,47.8 C157.52,47.736 157.52,47.736 157.584,47.672 L157.392,47.864 Z M157.196862,49.7871384 C157.191426,49.8222769 157.176574,49.848 157.136,49.848 L157.196862,49.7871384 Z M157.196862,49.7871384 L157.328,49.656 L157.392,49.464 L157.264,49.592 C157.2,49.656 157.136,49.72 157.2,49.72 C157.2,49.7434256 157.2,49.7668513 157.196862,49.7871384 Z M156.56,49.528 C156.56,49.528 156.56,49.592 156.496,49.656 C156.56,49.656 156.624,49.592 156.688,49.528 C156.688,49.528 156.688,49.464 156.752,49.4 C156.816,49.4 156.816,49.336 156.816,49.336 C156.752,49.272 156.752,49.272 156.816,49.208 L156.624,49.336 C156.56,49.464 156.496,49.464 156.56,49.528 Z M156.304,49.848 C156.24,49.912 156.24,49.976 156.24,50.04 L156.304,50.104 C156.368,50.04 156.432,49.976 156.432,49.848 L156.496,49.72 C156.432,49.72 156.368,49.784 156.304,49.848 Z M155.984,52.024 L155.984,52.152 L156.112,52.152 L156.112,52.024 L155.984,52.024 Z M155.536,51.32 L155.536,51.512 L155.728,51.32 L155.728,51.128 L155.536,51.32 Z M154.96,52.6 C154.896,52.664 154.896,52.728 154.896,52.792 C154.96,52.792 155.024,52.792 155.024,52.664 C155.088,52.664 155.088,52.6 155.024,52.472 C155.024,52.536 155.024,52.6 154.96,52.6 Z M154.768,54.712 L154.64,54.776 C154.704,54.776 154.704,54.776 154.704,54.84 L154.768,54.84 L154.768,54.776 C154.832,54.776 154.832,54.712 154.768,54.712 Z M154.237114,54.2639822 C154.243071,54.264 154.249363,54.264 154.256,54.264 C154.256,54.264 154.256,54.2630565 154.256115,54.2612841 L154.237114,54.2639822 Z M153.424,55.672 L153.424,56.056 C153.424,56.056 153.424,55.992 153.488,55.992 C153.552,55.928 153.552,55.928 153.616,55.8 L153.616,55.48 L153.424,55.672 Z M153.296,59.32 L152.976,60.408 C153.104,60.408 153.232,60.408 153.296,60.344 C153.488,59.96 153.552,59.64 153.616,59.256 C153.68,58.936 153.744,58.616 153.744,58.36 C153.68,58.552 153.616,58.68 153.552,58.872 C153.488,59 153.36,59.192 153.296,59.32 Z M152.272,58.872 L152.592,58.488 L152.464,58.232 C152.4,58.36 152.336,58.424 152.336,58.488 C152.272,58.616 152.272,58.744 152.272,58.872 Z M157.392,61.432 L157.264,61.496 L157.328,61.432 L157.392,61.432 Z M160.016,60.536 L159.632,60.984 C159.696,60.92 159.824,60.792 160.016,60.536 Z M162.512,55.8 C162.512,55.736 162.576,55.736 162.576,55.672 C162.576,55.736 162.512,55.736 162.512,55.8 L162.448,55.8 L162.512,55.8 Z M162.416258,55.8583292 C162.427026,55.840229 162.437513,55.8209737 162.448,55.8 C162.448,55.8289645 162.434891,55.8448206 162.42054,55.8594332 L162.416258,55.8583292 Z M162.416258,55.8583292 C162.361308,55.950692 162.299026,56.0129737 162.192,56.12 L162.384,55.928 C162.384,55.8929645 162.403179,55.8771085 162.42054,55.8594332 L162.416258,55.8583292 Z M163.92,56.152 C163.936,56.136 163.952,56.12 163.984,56.12 L163.92,56.152 Z M163.92,56.152 L163.856,56.184 C163.888,56.184 163.904,56.168 163.92,56.152 Z M165.456,52.152 L165.456,52.088 L165.52,52.088 L165.456,52.152 Z M200.272,49.656 C200.464,49.656 200.528,49.72 200.656,49.72 C200.656,49.848 200.528,50.104 200.464,50.168 C198.928,51.32 197.52,52.408 196.048,53.304 C193.872,54.648 191.76,55.608 189.456,56.376 C188.56,56.696 187.792,57.272 187.152,58.04 C184.976,60.6 182.48,62.648 179.6,64.248 C177.68,65.336 175.824,66.168 173.968,65.976 C171.792,65.848 170,65.016 168.784,63.48 C167.632,62.008 167.504,60.088 168.016,57.912 C168.4,55.608 169.424,53.304 170.576,51.064 C170.896,50.424 171.28,49.656 171.344,48.952 C171.6,47.096 172.432,45.304 173.584,43.576 C175.312,41.144 177.552,39.032 180.176,37.368 C184.848,34.296 189.328,34.808 191.504,36.728 C192.4,37.624 192.976,38.648 193.232,39.928 C193.808,42.04 193.744,44.344 193.232,46.84 C192.848,48.952 191.888,51 190.736,53.048 L190.416,53.688 C190.352,53.944 190.416,54.072 190.736,54.008 L191.248,53.816 C193.488,52.728 195.6,51.512 197.584,49.848 C197.904,49.592 198.16,49.272 198.544,49.08 C199.504,48.376 199.888,48.44 200.208,49.208 C200.272,49.336 200.208,49.464 200.272,49.656 L199.952,49.848 C199.824,49.912 199.824,49.912 199.824,49.976 L200.272,49.656 Z M180.304,39.032 C180.176,39.096 180.112,39.16 179.92,39.288 L180.304,39.032 Z M179.47144,39.6404665 C179.421061,39.6902857 179.362286,39.7451429 179.28,39.8 L179.47144,39.6404665 Z M178.512,39.032 L178.256,39.288 C178.32,39.224 178.448,39.096 178.576,39.032 L178.512,39.032 Z M177.04,40.312 C177.104,40.312 177.104,40.312 177.232,40.248 L177.424,39.928 L177.04,40.312 Z M174.992,42.616 L174.992,42.552 L174.864,42.616 L174.8,42.68 C174.416,43 174.16,43.384 174.032,43.832 L173.968,43.832 L173.584,44.408 C173.776,44.216 173.84,44.088 174.032,43.896 L174.032,43.832 L174.8,42.68 L174.992,42.616 Z M175.312,42.168 C175.952,41.72 176.464,41.144 176.784,40.568 C176.08,40.952 175.632,41.528 175.312,42.168 Z M182.416,59.256 C182.8,58.936 183.056,58.488 183.376,58.104 C182.928,58.04 182.608,57.912 182.16,57.912 C180.368,57.912 178.64,57.72 177.168,57.08 C175.696,56.44 174.416,55.608 173.264,54.648 C172.816,54.264 172.56,54.328 172.176,55.032 C171.92,55.736 171.664,56.44 171.408,57.208 L171.28,57.208 L170.576,60.984 C170.576,61.816 170.64,62.584 171.024,63.224 C171.472,64.056 172.304,64.312 173.52,64.056 C174.224,63.928 175.056,63.736 175.696,63.416 C178.192,62.52 180.368,60.984 182.416,59.256 Z M175.024677,47.0652593 C175.043409,47.033556 175.056,47.000778 175.056,46.968 C175.044695,46.9906103 175.029396,47.0112236 175.011866,47.0301928 L175.024677,47.0652593 Z M174.448342,49.0809521 C174.486262,49.0379681 174.544,48.994984 174.544,48.952 L174.544,48.888 L176.656,46.328 L177.296,45.624 C177.104,45.816 176.912,46.008 176.592,46.136 C175.632,46.968 174.8,47.8 174.544,48.888 C174.507607,48.9607865 174.471213,49.0128782 174.446588,49.0560431 L174.448342,49.0809521 Z M175.12,46.904 L175.248,46.776 L175.248,46.712 C175.184,46.776 175.184,46.84 175.12,46.904 Z M183.328,60.816 C183.296,60.84 183.28,60.856 183.248,60.856 C183.28,60.856 183.312,60.84 183.352,60.816 L183.328,60.816 Z M183.616,60.592 C183.648,60.568 183.696,60.536 183.76,60.472 C183.728,60.504 183.68,60.536 183.64,60.568 L183.616,60.592 Z M185.296,59.128 L186.576,57.72 L186.512,57.656 C185.872,57.976 185.552,58.488 185.232,58.936 L184.528,59.768 L185.296,59.128 Z M187.28,54.648 L187.664,54.264 L187.728,54.136 L187.536,54.2 L187.28,54.648 Z M176.39999,43.3839902 C176.336,43.319987 176.33599,43.1919967 176.144,43.128 C176.464,42.744 176.592,42.488 176.784,42.168 C177.424,41.848 177.872,41.336 178.32,40.76 L179.088,39.928 L178.256,40.696 L177.68,40.952 C177.552,40.952 177.296,40.888 177.232,40.952 L175.504,42.872 C175.504,43 175.696,43.064 175.76,43.128 L175.632,43.576 L175.504,43.576 L175.504,43.64 L175.12,44.088 C175.056,44.152 175.12,44.216 175.056,44.344 C175.184,44.28 175.248,44.216 175.248,44.152 C175.376,44.024 175.44,43.832 175.504,43.64 L175.632,43.576 C175.76,43.448 175.824,43.32 176.016,43.192 C176.08,43.192 176.08,43.192 176.144,43.128 L176.399997,43.3839967 L176.39999,43.3839902 Z M176.4,43.384 C176.336,43.64 175.888,44.152 176.656,43.896 C176.912,43.832 177.104,43.64 177.296,43.512 C178.384,43.064 179.152,43.192 179.728,43.832 C180.176,44.152 180.112,44.344 179.536,44.856 C178.832,45.496 177.936,46.072 177.296,46.776 C175.952,48.12 175.184,49.656 174.224,51.064 C173.392,52.344 173.456,53.24 174.224,54.008 C174.48,54.136 174.608,54.328 174.8,54.52 C177.168,56.568 180.496,56.824 184.272,56.312 C185.168,56.184 185.808,55.736 186.448,54.904 C189.84,50.488 191.568,46.008 191.504,41.464 C191.504,40.184 191.184,39.096 190.672,38.072 C190.416,37.432 189.968,36.856 189.136,36.792 C187.344,36.6 185.552,36.792 183.696,37.688 C181.328,38.84 179.28,40.376 177.424,42.296 C177.168,42.616 176.784,43.064 176.4,43.384 Z M189.008,54.52 C189.008,54.392 189.072,54.392 189.136,54.328 L189.008,54.392 L189.008,54.52 Z M196.624,51.064 L196.88,50.808 C196.816,50.872 196.688,51 196.56,51.064 L196.624,51.064 Z M197.44,50.472 C197.472,50.44 197.52,50.392 197.584,50.296 C197.52,50.36 197.472,50.408 197.44,50.448 L197.44,50.472 Z M197.728,50.192 C197.696,50.216 197.68,50.232 197.648,50.232 C197.68,50.232 197.728,50.216 197.776,50.192 L197.728,50.192 Z M198.224,49.848 C198.096,49.912 198.032,49.976 198.032,50.04 L198.224,49.848 Z M198.02963,51.3034074 L198.096,51.256 C198.096,51.256 198.067556,51.2844444 198.02963,51.3034074 Z M198.02963,51.3034074 C198.010667,51.3128889 197.989333,51.32 197.968,51.32 L197.648,51.576 L198.02963,51.3034074 Z M198.444486,50.947151 L198.8,50.744 C198.8,50.744 198.672,50.808 198.608,50.808 C198.561616,50.8543837 198.515233,50.9007673 198.444486,50.947151 Z M198.444486,50.947151 C198.417616,50.9647673 198.387233,50.9823837 198.352,51 L198.444486,50.947151 Z M199.12,50.552 L199.44,50.232 C199.44,50.232 199.376,50.296 199.312,50.296 C199.184,50.424 199.12,50.488 199.12,50.552 Z" id="Who" fill="#805278"></path>
                <path d="M69.156,109 L63.874,84.072 L67.142,84.072 L69.764,97.638 C69.9920011,99.0060068 70.2326654,100.34866 70.486,101.666 C70.7393346,102.98334 70.9799989,104.325993 71.208,105.694 L71.36,105.694 C71.6386681,104.325993 71.9299985,102.977007 72.234,101.647 C72.5380015,100.316993 72.8293319,98.9806734 73.108,97.638 L76.566,84.072 L79.454,84.072 L82.912,97.638 C83.2160015,98.9553399 83.5199985,100.285327 83.824,101.628 C84.1280015,102.970673 84.4319985,104.325993 84.736,105.694 L84.888,105.694 C85.1160011,104.325993 85.3439989,102.977007 85.572,101.647 C85.8000011,100.316993 86.0406654,98.9806734 86.294,97.638 L88.916,84.072 L91.956,84.072 L86.788,109 L82.988,109 L79.226,93.99 C78.9979989,93.0273285 78.789001,92.0836713 78.599,91.159 C78.4089991,90.2343287 78.2126677,89.2906715 78.01,88.328 L77.858,88.328 C77.6553323,89.2906715 77.4463344,90.2343287 77.231,91.159 C77.0156656,92.0836713 76.8066677,93.0273285 76.604,93.99 L72.918,109 L69.156,109 Z M99.4546667,109 L99.4546667,84.072 L113.818667,84.072 L113.818667,86.732 L102.608667,86.732 L102.608667,94.56 L112.070667,94.56 L112.070667,97.258 L102.608667,97.258 L102.608667,106.302 L114.198667,106.302 L114.198667,109 L99.4546667,109 Z M137.708,95.054 L136.53,98.854 L144.016,98.854 L142.838,95.054 C142.381998,93.6606597 141.951336,92.2736736 141.546,90.893 C141.140665,89.5123264 140.735336,88.1000072 140.33,86.656 L140.178,86.656 C139.797998,88.1000072 139.405336,89.5123264 139,90.893 C138.594665,92.2736736 138.164003,93.6606597 137.708,95.054 Z M130.108,109 L138.544,84.072 L142.116,84.072 L150.552,109 L147.17,109 L144.814,101.4 L135.732,101.4 L133.338,109 L130.108,109 Z M157.252667,109 L157.252667,84.072 L165.042667,84.072 C166.30934,84.072 167.480995,84.1923321 168.557667,84.433 C169.634339,84.6736679 170.558996,85.0726639 171.331667,85.63 C172.104338,86.1873361 172.705998,86.9093289 173.136667,87.796 C173.567336,88.6826711 173.782667,89.7719935 173.782667,91.064 C173.782667,93.0146764 173.276005,94.5726608 172.262667,95.738 C171.249329,96.9033392 169.881342,97.7013312 168.158667,98.132 L174.504667,109 L170.932667,109 L164.928667,98.474 L160.406667,98.474 L160.406667,109 L157.252667,109 Z M160.406667,95.89 L164.586667,95.89 C166.537343,95.89 168.031995,95.491004 169.070667,94.693 C170.109339,93.894996 170.628667,92.6853414 170.628667,91.064 C170.628667,89.4173251 170.109339,88.26467 169.070667,87.606 C168.031995,86.94733 166.537343,86.618 164.586667,86.618 L160.406667,86.618 L160.406667,95.89 Z M182.041334,109 L182.041334,84.072 L196.405334,84.072 L196.405334,86.732 L185.195334,86.732 L185.195334,94.56 L194.657334,94.56 L194.657334,97.258 L185.195334,97.258 L185.195334,106.302 L196.785334,106.302 L196.785334,109 L182.041334,109 Z" id="WE-ARE" fill="#FFFFFF"></path>
            </g>
        </g>
    </g>
</svg>