<?xml version="1.0" encoding="UTF-8" standalone="no"?>
<svg width="150px" height="150px" viewBox="0 0 150 150" version="1.1" xmlns="http://www.w3.org/2000/svg" xmlns:xlink="http://www.w3.org/1999/xlink">
    <!-- Generator: Sketch 50.2 (55047) - http://www.bohemiancoding.com/sketch -->
    <title>cat-ban</title>
    <desc>Created with Sketch.</desc>
    <defs></defs>
    <g id="Page-1" stroke="none" stroke-width="1" fill="none" fill-rule="evenodd">
        <g id="Fonts-and-colors" transform="translate(-67.000000, -423.000000)">
            <g id="cat-ban" transform="translate(67.000000, 423.000000)">
                <g id="Group-6-Copy">
                    <path d="M146.424801,74.8330158 C146.023665,114.279444 113.720442,145.932613 74.2743613,145.531952 C34.827334,145.130818 3.17406409,112.827698 3.57519945,73.3812699 C3.97586178,33.9348414 36.2795575,2.28167241 75.7256387,2.68233346 C115.172666,3.08346754 146.825936,35.3865873 146.424801,74.8330158" id="Fill-1293" fill="#FFFFFE"></path>
                    <polygon id="Fill-1294" fill="#B684AC" points="146.268808 74.5293634 142.257762 83.4198315 143.713954 92.2342172 138.195642 99.2577402 137.485369 108.162041 130.437975 113.653276 127.616038 122.131409 119.462002 125.783896 114.703441 133.345849 105.914682 134.948899 99.4855179 141.150413 90.5701334 140.59283 82.8364085 145.063071 74.3104769 142.382629 65.7329375 144.889092 58.0901913 140.262431 49.1657622 140.638586 42.8632233 134.308318 34.1095788 132.527032 29.5053098 124.868779 21.4268233 121.050826 18.7783311 112.517892 11.8442614 106.884602 11.3154142 97.9675316 5.94075209 90.8338754 7.57624125 82.0503483 4.06744132 73.8329168 7.74223754 65.6873114 6.28604567 56.8729257 11.8048905 49.8494027 12.5151631 40.9451014 19.5620252 35.4538673 22.3834302 26.9757339 30.5379983 23.3232466 35.2976228 15.7612943 44.0853178 14.1577113 50.5144821 7.95672953 59.4298666 8.51431245 67.1635915 4.04407229 75.6895231 6.72451384 84.2670625 4.21805093 91.9098087 8.84471225 100.834238 8.46802456 107.136245 14.7988253 115.890421 16.5801112 120.49469 24.2378315 128.573177 28.0563168 131.221669 36.5892509 138.155739 42.2225409 138.684054 51.1396112 144.059248 58.2732675 142.423759 67.0562626 146.25391 76.0265374 147.966545 75.2949758 146.268808 74.5293634 147.966545 75.2949758 149.678648 74.5634143 146.291153 66.6306267 148.020813 57.3421891 142.33544 49.7967302 141.776267 40.3657046 134.444764 34.4089314 131.644108 25.3886444 123.105408 21.3525527 118.238311 13.2574916 108.981889 11.373521 102.3165 4.67773762 92.8765243 5.07623915 84.7948456 0.183555446 75.728894 2.8331384 66.7182745 0 58.5397646 4.72721778 49.1098981 4.13718013 42.3099023 10.6962281 33.017834 12.3913227 27.9863372 20.3852954 19.3667667 24.2463442 16.3841537 33.2086384 8.93294175 39.014843 8.1817021 48.4325674 2.34416566 55.8615086 3.88388772 65.1829329 0 73.7914173 3.70884675 82.4765161 1.97865458 91.7649537 7.66455979 99.3104126 8.22373321 108.741438 15.5552363 114.698211 18.3553598 123.718498 26.8940603 127.754058 31.7616889 135.849651 41.0181106 137.733622 47.6840324 144.428873 57.1234757 144.030904 65.2051544 148.923587 74.271106 146.274004 83.2817255 149.107143 91.4602354 144.379925 100.890102 144.969963 107.690098 138.410915 116.98323 136.71582 122.013663 128.721848 130.632701 124.860799 133.615846 115.898504 141.06759 110.0923 141.818298 100.674575 147.655834 93.2451023 146.116112 83.9242099 150 75.3157256 149.678648 74.5634143 147.966545 75.2949758"></polygon>
                    <polygon id="Fill-1295" fill="#B684AC" points="143.039032 74.8995752 139.17876 82.894988 140.769256 91.2424934 135.32862 97.7988272 134.847152 106.280287 127.978109 111.345125 125.465733 119.46655 117.578303 122.758747 113.190711 130.052622 104.741835 131.382103 98.7242908 137.420622 90.2007692 136.692611 82.8955791 141.114152 74.7938081 138.377361 66.6381853 140.950019 59.4247033 136.382346 50.8878521 136.937752 44.9950734 130.779574 36.5739236 129.279607 32.3366894 121.897312 24.5185737 118.446805 22.1725525 110.276669 15.4090801 105.074701 15.1008982 96.5858287 9.79622432 89.9214845 11.557873 81.6073353 8.01538096 73.8734769 11.715163 66.2116254 10.1241341 57.86412 15.5647705 51.3083156 16.0467713 42.8268562 22.9158147 37.7620182 25.4281901 29.6405933 33.3150869 26.3483956 37.7032129 19.0545205 46.1520884 17.7250402 52.1696327 11.6865207 60.6931543 12.4145316 67.9988776 7.99299047 76.1001154 10.729782 84.2557382 8.15712384 91.4692202 12.7247966 100.006071 12.1693905 105.898317 18.3275685 114.32 19.8275357 118.557234 27.2087721 126.374817 30.660338 128.721371 38.8304735 135.48431 44.0324423 135.792492 52.5213142 141.097699 59.1856583 139.336051 67.4998076 143.0321 75.571463 143.760433 75.2426668 143.039032 74.8995752 143.760433 75.2426668 144.488233 74.9138706 141.009723 67.3166136 142.817226 58.7843258 137.371791 51.9442001 137.056144 43.231895 130.115654 37.8938543 127.708316 29.5103455 119.686523 25.9693005 115.33892 18.3953397 106.697031 16.8561923 100.649095 10.5359987 91.8877717 11.1057004 84.4844753 6.41836907 76.1171774 9.05773951 67.8053309 6.25 60.3081936 10.786964 51.5602004 10.0404219 45.3837664 16.2377801 36.7136185 17.6016755 32.2113905 25.086157 24.1186838 28.4641276 21.5407264 36.7973375 14.491999 41.9950707 13.9972018 50.6994338 8.41313819 57.4283724 10.0457557 65.9950752 6.25 73.8554752 9.88420012 81.7899998 8.07669742 90.3228171 13.5210662 97.1624133 13.837779 105.875248 20.7782695 111.213289 23.185074 119.596268 31.2074001 123.137313 35.5550039 130.711803 44.196893 132.250951 50.244829 138.571144 59.0061518 138.001442 66.4094483 142.688774 74.7767462 140.049403 83.0891258 142.857143 90.5857299 138.319649 99.3337231 139.066721 105.509624 132.869363 114.180305 131.504938 118.682533 124.020986 126.77524 120.643015 129.353197 112.309805 136.401924 107.112072 136.896188 98.4077091 142.480785 91.6787705 140.848168 83.1115382 144.642857 75.2516677 143.760433 75.2426668"></polygon>
                </g>
                <g id="hat-copy-3" transform="translate(25.000000, 27.000000)" fill="#B684AC">
                    <path d="M17.3007555,56.774159 C17.5400226,56.8342147 17.7799177,56.8886983 18.0198128,56.9438009 C17.8797694,57.0688654 17.7554258,57.208789 17.6386182,57.355523 C17.5601185,57.3115647 17.4791068,57.2651299 17.4012351,57.2224098 L17.3704632,57.218695 C17.3478553,57.0701036 17.3321554,56.9171783 17.3007555,56.774159 Z M96.9515872,52.9726952 C94.5162122,59.0859939 88.560282,63.3307555 82.0925337,64.4860538 C79.3230639,64.9813585 76.6559577,64.874868 74.0905871,64.3436537 L74.0145994,64.307125 L73.852576,64.297838 C69.4408922,63.3357086 65.3413232,61.1006459 61.569569,58.4099029 C60.7180042,57.4533457 59.8293874,56.5308406 58.7737233,55.8361757 C58.6525198,55.7556887 58.5137323,55.8931357 58.595372,56.0132471 C59.2177177,56.9277035 60.0171587,57.715238 60.8618156,58.4619099 L60.8950995,58.5653048 C61.3315579,59.086613 61.7962762,59.5744882 62.2760665,60.0425512 C62.2710425,60.1026069 62.2842304,60.1632817 62.3407502,60.2152887 C63.6708493,61.4362149 65.1403639,62.647235 65.952993,64.2904084 C66.6437904,65.6877869 66.5841307,66.8740418 66.2456399,68.1692637 C66.1997961,68.2379872 66.1514402,68.3060916 66.1068524,68.3748151 C65.1102201,69.537543 64.2730991,70.7881875 63.6683373,71.9143866 C62.2710425,74.517213 61.5300052,77.3775979 60.8649556,80.2305531 C60.501345,81.7882865 60.1741582,84.5793287 59.406117,87.049042 C59.2660735,87.0639011 59.126658,87.0707116 58.9872425,87.0837133 C58.8811109,87.0224194 58.7429514,87.0218002 58.6179799,87.1146699 C50.2298147,87.8204791 41.950921,85.2653258 33.9835143,82.9342979 C27.3436946,80.9920842 18.515303,78.4598387 14.986584,72.0289258 C15.0242638,71.9224353 15.0544077,71.81223 15.0914596,71.7051204 C16.5408783,73.4064921 18.5617748,74.8614498 20.5876954,75.3629458 C20.7924227,75.4137146 20.9098582,75.1010535 20.7428108,74.990229 C19.606763,74.237985 18.4091714,73.6349514 17.3459713,72.7725021 C16.608074,72.1744216 15.9863563,71.4995689 15.3878745,70.7974744 C15.4845861,70.4953385 15.5737618,70.190107 15.6660775,69.8867328 C16.9635207,71.4227967 19.0817569,72.6121472 20.701363,73.0529684 C20.9123702,73.1105475 21.1020255,72.8579421 20.9048343,72.7056359 C19.8435181,71.8852875 18.5517269,71.3992697 17.4696869,70.5950186 C16.8561331,70.1393383 16.3788549,69.5963604 15.9166486,69.0397617 C16.0152442,68.6905719 16.1063039,68.3389055 16.1961075,67.98662 C16.6815497,68.4132012 17.2335597,68.7852989 17.6065904,69.0676226 C18.9172215,70.0600895 20.3251924,70.828431 21.9152825,71.2859687 C22.071026,71.3305461 22.2374454,71.1194225 22.071654,71.0185042 C20.9952659,70.3597489 19.9050619,69.717091 18.8600738,69.0094243 C18.3118318,68.6385649 17.146896,67.9445191 16.3782269,67.2151829 C16.5138744,66.6307233 16.6350779,66.0425489 16.7537695,65.4537554 C17.1085882,65.8060409 17.5092507,66.1242742 17.8728614,66.4270292 C19.1100168,67.4585014 20.5236397,68.558697 22.067886,69.0911496 C22.2631933,69.1580157 22.4201927,68.9109825 22.2518893,68.7784885 C21.2169491,67.9606165 20.0281495,67.3352943 18.9680894,66.544045 C18.3482556,66.0815542 17.5111347,65.5391955 16.8686931,64.9002524 C17.0062246,64.1894901 17.1343361,63.4762513 17.2498877,62.7611551 C17.2593076,62.7010994 17.2674716,62.637948 17.2762636,62.5760349 C17.3748592,62.6410437 17.4659189,62.7023376 17.5387666,62.756202 C18.8776577,63.7461924 20.3057245,64.7881897 21.8819987,65.3732684 C22.0810739,65.446945 22.2242574,65.1949587 22.065374,65.0599882 C21.1572893,64.2922658 20.1179531,63.697281 19.1225768,63.0459553 C18.6566025,62.7413429 18.1975362,62.4262052 17.7365859,62.1141632 C17.6367342,62.0460588 17.5048547,61.9699057 17.3616713,61.8875613 C17.417563,61.3730635 17.4728268,60.8300857 17.5576065,60.2951566 C18.6779544,61.1885625 20.0476174,61.8993248 21.2941928,62.1766955 C21.4505643,62.2113668 21.5409959,61.9785736 21.4128844,61.8925144 C20.5632035,61.327867 19.6312549,60.8938562 18.7721541,60.3403532 C18.4016354,60.1019878 18.0505847,59.8376188 17.701418,59.5707734 C17.8037816,59.1423348 17.9507331,58.741138 18.1429004,58.3746125 C19.0867809,59.0606095 20.167565,59.6754065 21.2188331,59.994259 C21.3814845,60.0437894 21.513364,59.8475249 21.3720645,59.7323666 C20.5135917,59.0327487 19.5018874,58.4123795 18.5008591,57.8403025 C18.7068423,57.5895545 18.9404575,57.3610952 19.2450363,57.1926916 L19.3593319,57.2149803 C22.0207862,57.6558015 25.601629,57.9084069 28.4546226,57.0230497 C29.2509236,56.8886983 30.0032649,56.6329972 30.6450785,56.1469794 C30.7248342,56.0863046 30.7430462,55.9946732 30.7355102,55.9048992 C30.8014499,55.7928365 30.7399062,55.6176225 30.5942107,55.6145268 C28.8163492,55.5767598 27.0899836,55.8844679 25.339754,56.0906385 C21.240185,56.0051984 16.9779647,54.9310063 13.5403053,53.1330501 C9.11982949,50.8205961 6.41567142,46.9906522 3.35418265,43.3476859 C2.42349006,41.3014582 1.80051635,39.1196408 1.54680528,36.8895312 C0.627416653,28.8154449 4.81804528,22.5770817 12.1028185,19.0827068 C18.7752941,15.8817999 27.0033199,16.5789414 31.1261247,23.2853675 C31.3804638,23.6995661 32.0128575,23.2785571 31.8395301,22.8600246 C30.9898492,20.8150351 29.6559821,19.2647313 28.0407721,18.1341982 C29.1290921,11.5002104 33.3787525,6.24874193 39.7353452,3.61433986 C45.5776077,1.19291882 53.8885292,0.378142529 59.7603077,3.10417598 C72.0156827,8.79337002 73.8299681,24.2654517 70.1429936,35.5744972 C69.9897622,36.0437984 70.6202718,36.2561603 70.849491,35.8438191 C72.3736414,33.1035457 73.2346262,29.9447397 73.4895933,26.6658223 C80.93325,25.6708789 86.8766202,28.4928777 92.2271606,33.7232957 C97.5280891,38.9060407 99.7662729,45.9077922 96.9515872,52.9726952 Z M68.385228,64.9825968 L68.3626201,64.8971567 C68.3425242,64.8302906 68.3067283,64.7689966 68.2809804,64.7033688 C68.2571165,64.5040086 68.2276006,64.3058867 68.1943167,64.1077648 L68.1874088,64.0978587 C68.385856,64.1956814 68.5817913,64.2972189 68.7846346,64.3851355 C68.6552671,64.5869721 68.5196195,64.7844749 68.385228,64.9825968 Z M67.3509158,66.5310432 C67.3201439,65.9793976 67.2146403,65.4320859 67.0494769,64.9460681 C66.7876019,64.1771075 66.3724954,63.4867765 65.8713533,62.8540247 C66.1344843,63.0174753 66.4064073,63.1623519 66.6751903,63.3146581 C67.0821328,63.9740325 67.3546838,64.6792227 67.4670954,65.4506598 C67.5135672,65.7676548 67.4991233,66.0623611 67.4696074,66.3539718 C67.4294155,66.4121701 67.3911077,66.4722258 67.3509158,66.5310432 Z M57.7048712,90.5118412 C56.8313264,91.0696782 55.9314057,91.5470281 55.0038531,91.9308893 C54.8908136,91.9364615 54.774634,91.9358423 54.6590824,91.9358628 C56.131737,91.0170521 57.4316922,89.8239868 58.4276966,88.5039997 C58.58344,88.4922362 58.7391834,88.4879022 58.8942989,88.4742814 C58.5671121,89.2475759 58.1764975,89.9459556 57.7048712,90.5118412 Z M47.5036767,89.1924732 C49.5584851,90.3062898 51.9473884,91.1297339 54.3293836,91.1247808 C54.0813245,91.2981375 53.8332654,91.4721133 53.5644824,91.6293725 C53.2938154,91.7878701 53.0193804,91.9327467 52.7424334,92.0683364 C48.9945432,91.399675 45.4331683,91.2900888 41.8661413,89.6128631 C41.8071096,89.5856214 41.7706857,89.6760145 41.8272055,89.7051136 C44.6619871,91.1476887 48.1247664,92.6311264 51.4600621,92.6131716 C51.1309913,92.7339021 50.7994086,92.8459648 50.4628018,92.9425492 C49.1684986,93.0533737 47.8396554,93.0347997 46.4172406,92.8051022 C42.3503276,92.146966 38.6376052,90.3570585 34.9996145,88.5219544 C34.59016,88.2854464 34.1819615,88.0489384 33.772507,87.8155261 C31.1411967,86.3128953 28.4703225,85.2498475 25.6838967,84.3019581 C24.4184814,83.7831264 23.14867,83.2686286 21.8662987,82.7510351 C18.0970566,81.2279731 15.52415,79.2504689 13.1635067,76.2507796 C13.3927258,75.8031479 13.607501,75.3505632 13.8147403,74.8948829 C15.3445427,77.8153234 18.5699388,79.6169944 21.5497879,80.9239798 C21.6521515,80.9685572 21.7476072,80.8150127 21.6502675,80.7530996 C20.0438494,79.7445354 18.261592,78.9458565 16.8033813,77.728026 C15.6039057,76.7262721 14.8076046,75.5511616 14.0835233,74.2738945 C14.2248228,73.9469934 14.3680062,73.6213306 14.4992578,73.2913338 C17.4119111,79.1625523 26.0324354,81.9715493 31.7158146,83.7162602 C39.8672247,86.2181683 48.5448968,88.9318191 57.1855171,88.5838675 C56.409312,89.3893569 55.6230589,90.1614131 54.7243942,90.8430763 C52.2243353,90.5434169 49.8812759,90.1737957 47.5269126,89.1373706 L47.5036767,89.1924732 Z M93.470596,32.6094792 C88.5502341,27.8762233 80.6431151,22.9590855 73.5498811,25.5854389 C73.9172597,15.603191 68.7438147,4.80678601 59.2723535,1.35946504 C47.1733499,-3.04441321 28.3780068,3.4929902 26.967524,17.4673942 C23.149298,15.3778274 18.1184085,15.3332499 13.8473961,16.8334042 C6.05206075,19.5724394 0.130042478,25.7587955 0.00255894554,34.1542108 C-0.10482866,41.2253051 3.17331931,48.2388202 8.78008274,52.6637489 C10.607556,54.1063239 12.6912524,55.2046622 14.8873603,56.0082941 C15.1423274,58.4996769 15.4990301,60.8338005 15.1203475,63.385239 C14.697077,66.2375752 13.7312166,68.965466 12.7509122,71.6692108 C12.242862,73.0715423 11.5357366,74.5364061 11.7655838,76.0309881 L11.7461159,76.1114751 C11.720368,76.2322057 11.7743758,76.3312666 11.8572714,76.4018475 C11.8817634,76.494098 11.8943233,76.5857294 11.9263512,76.6779799 C12.2252781,77.5379528 12.8413438,78.3533482 13.5773571,79.0133418 C13.7086087,79.1693627 13.8455122,79.321669 13.9874396,79.4696412 C15.1347914,80.7846753 16.616238,81.8669162 18.1165245,82.7114107 C22.9665507,85.441159 28.4866504,87.0595672 33.4748361,89.5880979 C37.7345445,91.7476265 44.42272,94.9448186 50.2379786,94.8055142 C54.2986117,95.6722975 58.2738371,93.5635375 59.7804036,90.0375869 C60.9107995,87.8446252 61.4829054,84.9724769 61.85468,83.3491156 C62.7470647,79.4454951 63.495638,75.3877111 65.5334905,71.873524 C67.4036676,68.6490901 69.771847,67.2226125 72.7724199,65.7075991 C83.2474215,68.1934098 95.382849,63.8031524 99.0290036,52.7467124 C101.511478,45.2199378 99.0823834,38.0076817 93.470596,32.6094792 Z" id="Fill-21571"></path>
                    <path d="M10.3573982,44.7629255 C7.12177142,39.3994317 4.08667965,33.6409063 7.2841679,27.6131482 C10.1685508,22.1755859 15.2059173,18.4692259 20.9716075,16.093746 C21.022664,16.0725836 20.9999038,15.987934 20.942696,16.0014544 C14.6756682,17.5357288 9.44637859,21.842278 6.48387313,27.3168745 C3.29499681,33.2082527 5.59807415,40.1442308 10.0473686,44.942806 C10.1765476,45.082713 10.4668928,44.9439817 10.3573982,44.7629255" id="Fill-21572"></path>
                    <path d="M46.8889346,3.0659043 C43.5076444,2.72173962 40.368212,3.76421708 37.4942333,5.29115231 C34.6326424,6.81178224 31.43599,8.76274938 31.0006459,11.9148776 C30.988848,11.9999992 31.1422213,12.0373056 31.1699464,11.9506076 C32.8470239,6.69513406 41.3651381,3.64809434 46.8966033,3.28974271 C47.0428978,3.28028475 47.0281503,3.08009125 46.8889346,3.0659043" id="Fill-21573"></path>
                    <path d="M47.8434103,6.00191673 C44.0517664,6.57744269 40.5567029,8.53423096 38,10.9658281 L38.0409795,11 C41.0838796,8.90292728 44.3566815,7.51806794 47.9205072,6.22793057 C48.0642827,6.17577353 47.9976042,5.97853599 47.8434103,6.00191673" id="Fill-21574"></path>
                    <path d="M83.0348407,31 L83,31.0775418 C92.1260731,34.8190934 91.9990499,43.3707609 92.2008354,50.861429 C92.2051905,51.0265994 92.4621403,51.0549684 92.4991584,50.8872763 C94.1388466,43.4230858 91.9460631,34.099152 83.0348407,31" id="Fill-21575"></path>
                    <path d="M90.0193874,36 L90,36.0254084 C93.7928269,39.4353503 94.3970684,43.991929 94.0028574,48.79738 C93.9854087,49.0097685 94.2813901,49.0814333 94.3628173,48.8840293 C96.2666626,44.2649067 93.6357888,38.8600773 90.0193874,36" id="Fill-21576"></path>
                    <path d="M88.7887028,57.0328728 C86.5409986,57.3476078 84.4139937,57.9345793 82.1219903,57.9998668 C79.3067424,58.0799364 76.4825063,57.6574154 73.800156,56.8437854 C69.1673559,55.4376405 64.8883075,52.892044 61.0965505,50.0138509 C61.0323488,49.9651932 60.9649369,50.0563493 61.0207924,50.1080866 C64.9961664,53.7666501 69.5101933,56.6996602 74.8864501,58.0916389 C79.184117,59.2046059 84.9449424,59.6431408 88.9260946,57.3439122 C89.0885251,57.2502924 88.9562694,57.0094678 88.7887028,57.0328728" id="Fill-21577"></path>
                    <path d="M88.8239921,56.0150415 C86.0901653,57.5489163 83.4124207,58.770871 80.1042844,58.790165 C79.9864409,58.7908082 79.9552053,58.9522348 80.0801478,58.9612387 C83.288898,59.1863356 86.7887074,58.4544491 88.9737811,56.1500997 C89.0582593,56.0607041 88.9198287,55.9616614 88.8239921,56.0150415" id="Fill-21578"></path>
                    <path d="M61.0554624,9 L61,9.08793355 C65.2699135,11.9126396 68.3037081,16.046791 69.5294277,20.7563337 C70.976997,26.3184496 69.6153945,31.5078036 67.8988324,36.848174 C67.8537692,36.9870835 68.0492742,37.0622731 68.1248418,36.9341959 C73.5088567,27.8031248 71.429709,14.33591 61.0554624,9" id="Fill-21579"></path>
                    <path d="M68.173906,44.8208912 C63.6446783,39.1295301 69.9735131,31.4749275 68.8678869,25 L68.843606,25.000618 C68.6245136,29.4616316 66.8729035,33.4344612 66.1947334,37.7799174 C65.812451,40.2276353 65.7949462,43.5645897 68.0259621,44.9834133 C68.1202622,45.0433548 68.2603007,44.9296512 68.173906,44.8208912" id="Fill-21580"></path>
                    <path d="M21.8725702,47.6056321 C21.5767626,47.1576532 21.3531462,47.0317924 20.8847841,47.0019272 C19.8406538,46.9336637 19.6557741,48.6999807 20.6805361,48.949569 C21.1400943,49.0604971 21.3936436,48.9986333 21.7616423,48.6615825 C22.027517,48.4205272 22.0803398,47.9213506 21.8725702,47.6056321" id="Fill-21585"></path>
                    <path d="M26.9962137,47.9789529 C27.0936712,46.8284787 25.2793362,46.6145414 25.0633052,47.7545432 L25.0162007,48.0058821 C24.7969212,49.1593485 26.8743917,49.4032071 26.9734736,48.2347801 L26.9962137,47.9789529" id="Fill-21586"></path>
                    <path d="M19.895295,50.7112271 C20.4390706,50.1182362 18.7117835,49.6789836 18.2225736,50.3049185 C17.7615874,50.8924188 17.9422188,52.1124427 19.4757035,51.9916482 C19.72219,51.97298 19.9348081,51.8466949 19.9630318,51.7017416 C20.0326501,51.3404564 19.5735455,51.0626291 19.895295,50.7112271" id="Fill-21591"></path>
                    <path d="M22.9544086,53.727583 C22.620148,53.413554 22.2720424,53.2771828 21.7775741,53.0569872 C21.2712386,52.8330382 20.6857882,53.3272273 21.1980573,53.5361629 C21.7439503,53.7576097 22.0920559,53.9152497 22.7111302,53.996572 C22.9544086,54.0278498 23.0711031,53.8376808 22.9544086,53.727583" id="Fill-21592"></path>
                    <path d="M27.4975471,50.3050416 C26.9239915,49.4776325 25.4734776,50.5181331 26.1987345,51.2380366 C26.5852612,51.6239049 26.7411187,51.7563671 27.2606437,51.9617796 C27.6326236,52.1095998 28.054478,51.8062804 27.9942131,51.4357701 C27.9069329,50.9212791 27.8051059,50.7485022 27.4975471,50.3050416" id="Fill-21593"></path>
                    <path d="M29.9610666,47.8326561 C29.5891614,46.4872221 28.7105527,47.220535 28.1900237,47.0459367 C27.9674336,46.9719892 27.9245746,47.978497 28.1464734,48.0709314 C28.6663112,48.2886658 29.4543631,49.6484784 29.9278855,48.6193755 C30.0080732,48.4447772 30.0246638,48.062715 29.9610666,47.8326561" id="Fill-21594"></path>
                    <path d="M32.0127203,16.6998748 C31.9777296,17.2702523 32.0014733,17.5428592 32.2576553,17.9349937 L32.5725717,18 C32.8762411,17.7294901 32.9424736,17.4841439 32.99371,16.9074755 C33.0886848,15.8505995 32.077703,15.634611 32.0127203,16.6998748" id="Fill-21599"></path>
                    <path d="M32.2762359,16.0519633 L31.9792563,16.0082871 C31.5792073,15.9487286 31.2507828,16.2167417 31.0760889,16.6018865 C30.9992236,16.7726207 30.9817542,16.9334286 31.0184399,17.1200451 C31.102293,17.5429102 31.3660807,17.8962905 31.7626359,17.9498931 L32.0596155,17.991584 C33.15844,18.1424655 33.3750604,16.2167417 32.2762359,16.0519633" id="Fill-21600"></path>
                    <path d="M30.5596938,16.0422736 C29.8235853,16.5220517 29.0502055,17.167613 29.0001222,17.8773484 C28.9942986,17.9705537 29.1981261,18.0545913 29.2901396,17.9552741 C29.8282443,17.3708311 30.1846512,16.7840961 30.9370659,16.2882745 C31.1490465,16.1477025 30.7751686,15.9009377 30.5596938,16.0422736" id="Fill-21601"></path>
                    <path d="M32.7109448,20.2053297 L32.533628,20.0892569 C32.3082878,19.9441659 32.0164539,19.978305 31.839137,20.1746046 C31.5676206,20.4750283 31.5251384,20.8881109 31.1852811,21.1492747 C30.8638944,21.3967829 30.9691762,21.9686121 31.434633,21.9959233 C32.3212172,22.0488389 32.7866739,21.5828407 32.9880024,20.8181258 C33.0434139,20.6047567 32.899344,20.3282303 32.7109448,20.2053297" id="Fill-21602"></path>
                    <path d="M34.0308581,17.0162183 C33.7096507,18.1451845 36.0019938,18.4093337 35.9999987,17.2423734 C35.9999987,15.7189927 34.4478291,15.5416871 34.0308581,17.0162183" id="Fill-21603"></path>
                    <path d="M33.9059184,13.8021579 C33.9542483,13.5620495 34.065779,13.3967694 33.8613061,13.1657062 C33.74234,13.0308508 33.3482649,12.9617785 33.0527085,13.0218056 C31.487561,13.3383869 31.883495,14.4246306 32.8445179,14.8974468 C33.2720522,15.1071304 34.0694967,14.9755642 33.9951429,14.6811848 C33.922648,14.3868053 33.8464353,14.0990042 33.9059184,13.8021579" id="Fill-21604"></path>
                    <path d="M39.520718,16.0044741 C38.9124394,15.9273266 38.7922672,16.872384 39.4005459,16.9495315 C40.0088246,17.026679 40.1289967,16.0816217 39.520718,16.0044741" id="Fill-21605"></path>
                    <path d="M30.7127649,13.1176924 C30.5391333,12.9337351 30.0290902,12.9758347 29.954935,13.1716898 C29.7867294,13.6155669 29.6348016,14.2150297 29.1030546,14.5957573 C28.725044,14.8648292 29.4774479,15.1531205 29.9006751,14.9060137 C30.8122414,14.3742764 31.3711183,13.8169132 30.7127649,13.1176924" id="Fill-21606"></path>
                    <path d="M40.8629243,13.1259047 C40.4357949,12.8849848 39.95457,13.0151841 39.5713932,13.3022376 C39.1025652,13.6538782 38.9988821,14.1295669 39.000009,14.6421625 C39.000009,14.9743245 39.5116627,15.1670604 39.6694414,14.8041428 C39.9263952,14.2146578 40.6916218,14.0321738 40.9733694,13.5000995 C41.0342269,13.3852781 40.9880203,13.1956177 40.8629243,13.1259047" id="Fill-21607"></path>
                    <path d="M46.7673422,9.26964828 C46.3661585,9.14502533 45.9781824,9.07974664 45.5604891,9.00853352 C44.911661,8.89874664 44.7713293,9.88386139 45.431714,9.92243516 C45.8560112,9.94765647 46.2505911,9.96991057 46.6732374,9.93875483 C47.0513076,9.91056631 47.1256009,9.38240238 46.7673422,9.26964828" id="Fill-21608"></path>
                    <path d="M49.0170757,9.33118347 C48.9825562,9.59187288 48.9796795,9.72394021 49.2126865,9.91342811 C49.333505,10.0121915 49.4744598,10.0271208 49.6226063,9.95477092 C49.9131459,9.81466472 49.9447888,9.69063627 49.9936915,9.42994686 C50.0886203,8.92923944 49.0817999,8.82703082 49.0170757,9.33118347" id="Fill-21609"></path>
                    <path d="M80.9801324,29.0746545 C80.7002824,27.5422652 79.5836326,27.8636478 79.1105692,28.7082473 C78.918731,29.0513659 78.9813019,29.94099 79.2611519,29.951858 C79.5485654,29.9627261 79.8311658,29.9177014 80.119267,29.9503055 C80.3709257,29.9782518 80.6163961,30.0962473 80.8460519,29.8260997 C80.9691309,29.683263 81.0358274,29.3789587 80.9801324,29.0746545" id="Fill-21612"></path>
                    <path d="M81.9395154,34.2673897 C81.6213089,33.6388392 81.213569,33.3559067 80.7066164,33.0661974 C80.0581043,32.6951663 79.7156995,33.9844573 80.2988765,34.4385046 C80.7767912,34.8112299 81.1845311,35.0399478 81.7302009,34.9942042 C81.9867019,34.9738737 82.0689759,34.5249091 81.9395154,34.2673897" id="Fill-21613"></path>
                    <path d="M82.0058482,36.681471 C81.9887699,37.1651723 81.9985289,37.4139899 82.1827312,37.7921926 C82.2961803,38.0250859 82.5047802,38.0688778 82.6499462,37.8897291 C82.8914829,37.591148 82.9341788,37.3622358 82.9902934,36.8845061 C83.1122817,35.8613682 82.0448845,35.6384277 82.0058482,36.681471" id="Fill-21614"></path>
                    <path d="M83.298087,29.0901549 C82.8445298,29.2704302 82.9317124,30.4859496 83.4029137,30.3395875 C83.902138,30.182516 84.2363381,30.8036624 84.6961226,30.9892924 C84.8798288,31.0642584 85.0116407,30.7304814 84.999186,30.459176 C84.9358748,29.052672 83.9291231,28.8402684 83.298087,29.0901549" id="Fill-21615"></path>
                    <path d="M87.7044523,33.1200499 C87.4237844,32.8104866 86.7930152,33.1622003 87.0678154,33.4689996 C87.5372251,33.9955336 87.9518703,34.5849477 88.6608744,34.9719018 C88.7968076,35.0465287 89.0364021,34.9629189 88.9953288,34.8337039 C88.7938738,34.1945386 88.1953765,33.6624767 87.7044523,33.1200499" id="Fill-21616"></path>
                    <path d="M75.0273146,28.623764 C74.9900075,28.9882973 74.9874346,29.111108 75.0414655,29.4697932 C75.1353763,30.0935936 75.6512428,30.1949612 75.8442103,29.623794 C75.9561314,29.2962988 75.9741417,29.1773868 75.9972978,28.8089547 C76.0564745,27.8596085 75.1250847,27.6802659 75.0273146,28.623764" id="Fill-21618"></path>
                    <path d="M74.3022226,34.0892675 L73.9762522,34.0128299 C73.6949088,33.9498813 73.353416,34.1252382 73.1904309,34.3927699 C72.9731173,34.7479801 72.9478934,34.9705485 73.0837144,35.384211 C73.18461,35.6877134 73.4756549,35.9574933 73.760879,35.9754786 L74.0946105,35.9979603 C75.1617754,36.0676534 75.3538651,34.3298213 74.3022226,34.0892675" id="Fill-21619"></path>
                    <path d="M84.2895113,40.2315843 C83.7974528,39.686882 82.5567625,40.2174844 83.1636346,40.6508715 C83.6849823,41.0234064 83.8103401,41.5220985 84.2707663,41.9154122 C84.4277563,42.0489904 84.775712,42.0185642 84.8729521,41.8649493 C85.2384813,41.2801734 84.7440797,40.7339869 84.2895113,40.2315843" id="Fill-21620"></path>
                    <path d="M86.9220319,37.1659464 C86.4918199,36.7286071 85.7204932,37.2421 86.103611,37.7088129 C86.4918199,38.1809652 86.8634823,38.7412382 87.4998905,38.9762265 C87.7531809,39.0686987 88.0357462,38.8772268 87.9962889,38.6465902 C87.8957364,38.0612953 87.3547894,37.6076374 86.9220319,37.1659464" id="Fill-21621"></path>
                    <path d="M91.4727251,36.2558413 C91.017179,35.8712304 90.5394883,35.9473513 90.1008142,36.3039177 C89.8751501,36.4868749 90.0691791,36.8621376 90.2832436,36.8501185 C90.9001289,36.8180676 91.0372146,37.6473848 91.4779977,37.9638875 C91.6045382,38.0546984 91.764823,37.9598812 91.8502379,37.8383548 C92.2087696,37.3295467 91.8597284,36.5830276 91.4727251,36.2558413" id="Fill-21622"></path>
                    <path d="M90.4742492,43.1448404 C90.3576017,42.8544796 89.9143412,43.0439428 90.0146581,43.3331826 C90.20596,43.8825139 90.3984284,44.4576301 90.7320402,44.9419385 C90.8195259,45.068621 91.0143272,44.9677234 90.999163,44.8331933 C90.9350069,44.2547138 90.6923801,43.6840819 90.4742492,43.1448404" id="Fill-21623"></path>
                    <path d="M88.9850804,44.6646732 C88.7669663,44.0326247 88.3902237,43.6334978 87.8661833,43.1512682 C87.4370367,42.7568231 86.7557841,43.2086207 87.0886206,43.6510547 C87.5007713,44.19883 87.8619343,44.6061502 88.5332726,44.9537768 C88.7952928,45.0907207 89.0672273,44.9022766 88.9850804,44.6646732" id="Fill-21624"></path>
                    <path d="M93.9652285,47.9555523 C93.8091982,47.5015734 93.3181132,47.2814624 92.5609555,47.0284876 C92.3014524,46.9413604 91.8711371,47.0682299 92.037022,47.2180276 C92.5905191,47.7125131 92.2735312,48.2979471 92.4788342,48.8237678 C92.5428888,48.9827368 92.9173616,49.0499929 93.1982162,48.9590443 C93.8814648,48.738169 94.0916952,48.325461 93.9652285,47.9555523" id="Fill-21625"></path>
                    <path d="M96.0244399,40.0364373 C95.7726369,39.9488018 95.4176103,40.0292202 95.253391,40.171499 L95.2158551,40.1415999 C95.0125359,40.1415999 94.9014924,40.3251188 95.1173235,40.3849172 L95.1376554,40.3900722 C95.1267075,40.5519401 95.2627749,40.6797847 95.3456666,40.8519627 C95.483298,41.1427062 95.489554,41.3736515 95.4301222,41.6695501 C95.3910224,41.8551311 95.6490814,42.027309 95.9321642,41.9963788 C97.5149259,41.8242009 97.1598994,40.4302814 96.0244399,40.0364373" id="Fill-21626"></path>
                    <path d="M88.4293077,47.209526 C87.8914086,46.7511188 86.5670358,47.1224487 87.1416098,47.5808559 C87.642834,47.9792098 87.3861094,48.3695566 87.5491092,48.78993 C87.6122715,48.9570785 88.0442208,49.0731817 88.3355829,48.9460688 C89.3543312,48.5026749 89.0507442,47.7379955 88.4293077,47.209526" id="Fill-21627"></path>
                    <path d="M87.044927,47.4512882 C86.9951101,47.9677771 86.9599452,48.2907876 87.0903484,48.7777628 C87.1577477,49.0302685 87.5328399,49.0827372 87.6544518,48.8564659 C87.8903497,48.4186801 87.9269797,48.1005885 87.9943791,47.5857393 C88.0822914,46.9036461 87.1108612,46.764276 87.044927,47.4512882" id="Fill-21628"></path>
                    <path d="M84.982823,35.743965 C84.6502715,35.0007045 83.9519985,34.5721921 83.3915089,34.0649926 C83.1372048,33.8355678 82.8531327,34.2688204 83.0870244,34.5077256 C83.6007356,35.0348338 84.0770242,35.7382768 84.7633901,35.9904545 C84.8918179,36.0378563 85.0534158,35.9013391 84.982823,35.743965" id="Fill-21629"></path>
                    <path d="M87.8828798,31.3114948 C87.4691599,31.01782 87.2269301,30.9746735 86.6074221,31.0108609 C85.9043127,31.0512238 85.7671206,31.7554865 86.4316448,31.9085871 C87.0104239,32.0408104 87.2633718,32.043594 87.7821294,31.8236859 C88.0222155,31.7206909 88.0758062,31.4478935 87.8828798,31.3114948" id="Fill-21630"></path>
                    <path d="M81.9651325,29.2926976 C81.6531837,28.5108059 81.248262,28.2688753 80.6402678,28.0269447 C80.1680631,27.8411139 79.7447915,28.6598212 80.1851897,29.1542011 C80.670851,29.7029278 81.0721027,30.0903674 81.6960002,29.981674 C81.8990727,29.9448584 82.0776787,29.5731969 81.9651325,29.2926976" id="Fill-21631"></path>
                    <path d="M80.93608,35.3392636 C80.5680599,34.6936538 80.1768776,34.3839864 79.6428624,34.0630583 C79.0548023,33.710225 78.740827,34.9338807 79.2709819,35.3617849 C79.7458051,35.7427697 80.1344138,35.9829966 80.6774365,35.9998875 C80.9051972,36.0073946 81.1072223,35.6376704 80.93608,35.3392636" id="Fill-21632"></path>
                    <path d="M83.0089555,44.2593669 C83.0059882,44.4117617 83.003021,44.5654932 83.0000538,44.7192247 C82.9941194,45.0520868 83.4807423,45.1082322 83.5667915,44.7833909 C83.6068489,44.6350065 83.6469063,44.4852854 83.6854801,44.3355643 C83.7893325,43.9492303 83.0163735,43.8610018 83.0089555,44.2593669" id="Fill-21633"></path>
                    <path d="M96.9822165,49.5448806 C97.0411712,49.3743848 96.9457207,49.1818104 96.810967,49.156052 C96.5508175,49.1069885 96.2981544,49.2087953 96.0520417,49.3559859 L96.059528,49.2860704 C96.0688859,49.0885896 95.8854712,48.9021482 95.7544606,49.0579249 C95.5046048,49.3547594 95.3239975,49.6565001 95.1518122,50.0244767 C94.8308364,50.3654683 95.063848,51.1001948 95.432549,50.9885752 C95.5495227,51.0045209 95.6636891,50.944418 95.7469743,50.8021338 C96.2148691,50.4856739 96.7679207,50.1704407 96.9822165,49.5448806" id="Fill-21634"></path>
                    <path d="M86.243135,47.2971103 C86.0026967,47.8269529 85.8889178,48.2950662 86.1465303,48.8274809 C86.2452817,49.0298156 86.9150741,49.0641096 87.1361915,48.8772072 C87.7179662,48.3876601 87.9004417,47.9229761 87.9970464,47.3854174 C88.0786237,46.931879 86.4449314,46.848716 86.243135,47.2971103" id="Fill-21635"></path>
                    <path d="M84.0393726,53.2338178 C83.6957836,53.6331469 83.4323139,53.7814692 83.1102955,54.1716708 C82.9238637,54.3998589 82.973168,55.0022754 83.2628305,54.9999935 C83.6911613,54.9954298 84.0732693,54.8585169 84.5000593,54.8425438 C85.4507071,54.8037518 84.9037379,52.2252265 84.0393726,53.2338178" id="Fill-21636"></path>
                    <path d="M52.8302968,9.28607946 C52.2529312,8.59419319 51.8216954,9.33741295 51.2473955,9.63202259 C50.8682758,9.82842901 50.946961,10.9644616 51.3332339,10.9332151 C51.9157089,10.8863454 52.4256299,11.3483469 52.8946756,10.3506916 C53.0571554,10.0069803 53.0285426,9.52489181 52.8302968,9.28607946" id="Fill-21637"></path>
                    <path d="M51.0106073,11.3782688 C51.0476974,11.5259608 51.0773696,11.6750332 51.0966565,11.8268661 C51.1278122,12.0283898 51.4364024,12.0656578 51.5209679,11.8765569 C51.5803122,11.734386 51.6485581,11.5963561 51.724222,11.4610868 C52.0031401,10.9338125 50.8800499,10.7971628 51.0106073,11.3782688" id="Fill-21638"></path>
                    <path d="M46.6025097,13.0100476 C45.9394728,13.2248931 45.5563847,13.6697942 45.0865289,14.2534894 C44.8229512,14.582412 45.2142249,15.1699097 45.5547476,14.953163 C46.1572108,14.5710043 46.6254295,14.2496868 46.9675894,13.555717 C47.090374,13.3066484 46.8415305,12.9339961 46.6025097,13.0100476" id="Fill-21639"></path>
                    <path d="M53.9556929,10.2741258 C53.6422226,9.57256473 53.4949866,9.54917936 52.89496,9.1087549 C52.3028494,8.67417678 51.6442451,9.6466184 52.2252734,10.1844819 C52.704978,10.6307527 52.9250405,10.9133259 53.5139848,10.9971235 C53.8068737,11.0380479 54.1171777,10.6346503 53.9556929,10.2741258" id="Fill-21640"></path>
                    <path d="M53.3743328,6.05676087 L52.8490622,6 C52.4631491,6.09460146 52.0086293,6.34624134 52.0043413,6.75870369 L52.0000534,7.08413271 C51.9893336,8.17015745 53.5951609,8.35179225 53.8910276,7.29603998 L53.97893,6.97817908 C54.09256,6.57328484 53.7259425,6.23650365 53.3743328,6.05676087" id="Fill-21641"></path>
                    <path d="M51.9120596,6.27386726 C51.7264871,6.06022792 51.6515207,6.04094103 51.3946686,6.00385087 C50.9325806,5.93560496 50.8428667,6.79609677 51.3049547,6.8702771 C51.5605778,6.91033447 51.6367732,6.91478529 51.8604434,6.76345742 C52.0238948,6.65218693 52.047245,6.42964595 51.9120596,6.27386726" id="Fill-21642"></path>
                    <path d="M59.9275197,6.34492036 C59.4280616,5.84609492 59.1188732,6.05010333 58.4316488,6.00283309 C57.9234282,5.96924634 57.8307969,6.68949554 58.3327586,6.78279207 C59.0099688,6.90718744 59.2578202,7.18085726 59.8674345,6.82135463 C60.0138922,6.73552183 60.0464383,6.46433992 59.9275197,6.34492036" id="Fill-21644"></path>
                    <path d="M62.1295437,6.00937296 C60.8092779,5.84769793 60.5491794,7.828952 61.8709663,7.99062704 C63.1897111,8.15230207 63.4513306,6.171048 62.1295437,6.00937296" id="Fill-21645"></path>
                    <path d="M61.7015383,61 L61.667066,61.0284877 C62.5645145,62.1605656 63.1055544,63.3304206 63.3912655,64.5194739 L63.345692,64.5832617 C63.4841655,65.0997567 63.5653799,65.6174904 63.6208862,66.1364626 C63.8031804,69.3970697 62.3623549,72.755526 61.0056652,75.8978471 C60.9741142,75.9715436 61.0827896,76.0415244 61.123689,75.970305 C63.8902376,71.2116146 65.6401452,65.575378 61.7015383,61" id="Fill-21646"></path>
                    <path d="M11.871949,43.6425591 L11.678671,43.3770454 C11.1761482,42.6875439 10.1092535,42.9975416 10.0074605,43.8705395 C9.90566737,44.7421472 10.8681919,45.3301697 11.5124519,44.7963621 L11.7598478,44.5920138 C12.0278599,44.3709841 12.0806893,43.9289247 11.871949,43.6425591" id="Fill-21581"></path>
                    <path d="M14.8801029,48.169425 C14.6406673,47.8835953 14.5078013,47.5905975 14.3624792,47.2805754 C14.1188916,46.7626771 12.9286339,47.0305864 13.003371,47.5269803 C13.0462756,47.8020577 13.0988684,48.0565267 13.0531957,48.3351883 C12.8774251,49.433706 15.5942575,49.0233299 14.8801029,48.169425" id="Fill-21582"></path>
                    <path d="M17.4437974,47.0200195 L17.1634439,47.0024707 C16.735536,46.9743926 16.4191136,47.1867329 16.2256533,47.5833353 L16.0649829,47.9132524 C15.8174193,48.4204121 16.320744,49.1153438 16.8404636,48.983728 L17.1781993,48.8994938 C17.5897124,48.795956 17.8569499,48.5169304 17.9372851,48.0711914 L17.9913884,47.7763719 C18.0536892,47.4341707 17.7684172,47.041078 17.4437974,47.0200195" id="Fill-21583"></path>
                    <path d="M16.9754059,43.0000838 L16.7651471,43.0028146 C15.8888593,43.0123728 15.6987451,44.6440807 16.5448161,44.889861 L16.7475207,44.9485752 C18.2243679,45.3773252 18.5126867,42.9836984 16.9754059,43.0000838" id="Fill-21584"></path>
                    <path d="M17.116931,43.0056715 C16.8044024,43.0297879 16.6333962,43.0575217 16.3424891,43.1250475 C15.9493714,43.2166897 15.8766446,43.5736119 16.218657,43.7219276 C16.472218,43.8316571 16.629465,43.8847131 16.9203721,43.9558564 C18.172452,44.2585167 18.459428,42.9019712 17.116931,43.0056715" id="Fill-21587"></path>
                    <path d="M17.9956021,38.5139872 C17.9002653,37.9981468 17.9250529,37.5076294 17.2024001,37.0996465 C16.9259235,36.9430186 16.4625867,36.9767827 16.2757267,37.1606095 C15.7837889,37.6454995 16.0659857,38.1266379 16.2375919,38.6387268 C16.424452,39.1958344 18.0966591,39.0729706 17.9956021,38.5139872" id="Fill-21588"></path>
                    <path d="M12.9791534,48.7652783 C12.5772023,48.038079 12.0146109,47.4129174 11.5698692,46.7108682 C11.0472625,45.886661 10.5583271,44.989159 10.2124948,44.0700997 C10.1591819,43.9292587 9.96487043,44.0219551 10.0055566,44.1606404 C10.4994023,45.8536065 11.2443799,47.9087352 12.7210068,48.9707912 C12.8472742,49.0613319 13.0689436,48.9269581 12.9791534,48.7652783" id="Fill-21589"></path>
                    <path d="M15.9382914,50.2670963 C15.6679455,49.7379079 15.3844121,49.4682834 14.9492213,49.1242103 C14.3277556,48.6312401 13.618922,49.7298594 14.2403877,50.2509993 C14.6920631,50.6312906 15.058019,50.8848181 15.5987106,50.9934728 C15.9432367,51.061885 16.0948941,50.5769633 15.9382914,50.2670963" id="Fill-21590"></path>
                    <path d="M12.959319,38.3410108 C12.7279303,37.8552881 12.415761,37.3765292 11.7681465,37.0596779 C11.4847296,36.9212731 11.0821955,37.0387866 11.0287981,37.2564043 C10.902835,37.7717229 11.2095277,38.2626684 11.5709869,38.7179246 C12.0159651,39.2776372 13.2372592,38.9268375 12.959319,38.3410108" id="Fill-21595"></path>
                    <path d="M11.7308175,34.7084704 C11.2699039,34.413411 10.8644008,34.1040458 10.3644481,34.0056926 C10.0080586,33.9341631 9.88842261,34.5546819 10.1163607,34.8586824 C10.4815655,35.3450833 10.9286264,35.6061661 11.3731687,35.9280491 C11.9020859,36.3107321 12.2798839,35.0589651 11.7308175,34.7084704" id="Fill-21596"></path>
                    <path d="M8.96299287,36.5622152 C8.74134299,36.2175699 8.70440135,36.1465361 8.28326657,36.0123612 C8.13254465,35.96369 7.98625573,36.0649788 8.00103239,36.2070464 C8.04240704,36.6043092 8.108902,36.6503496 8.43103316,36.9305384 C8.67632569,37.1423242 9.13292445,36.8266186 8.96299287,36.5622152" id="Fill-21597"></path>
                    <path d="M6.98142706,38.8525254 C6.30403718,38.2668324 5.86294609,37.7086476 6.39630623,37.1006043 C6.48632482,36.9980221 5.85394423,36.9596254 5.7031631,37.0536113 C4.70845769,37.6736894 4.65669701,38.4037998 6.28153253,38.9573999 C6.58084434,39.0594091 7.10520261,38.9596923 6.98142706,38.8525254" id="Fill-21598"></path>
                    <path d="M9.68178057,31.0005026 C8.46287674,30.970169 7.28682499,32.3204773 8.52953554,32.9620806 C8.68665986,33.0429704 8.97591146,32.9942527 8.97829213,32.8177658 C8.98781482,32.3094469 9.12113242,31.7827439 9.78176878,31.5557009 C10.1007788,31.4463158 10.0722107,31.0106139 9.68178057,31.0005026" id="Fill-21610"></path>
                    <path d="M9.79215944,40.3450653 C9.59038399,39.8119298 7.9205892,39.9316715 8.00294653,40.4638566 C8.07706812,40.9580285 8.17795585,41.4835613 8.79357686,41.8988558 C9.03653097,42.0613623 9.62950372,42.0185974 9.77568797,41.8380346 C10.1586495,41.370472 9.97334556,40.8278332 9.79215944,40.3450653" id="Fill-21611"></path>
                </g>
            </g>
        </g>
    </g>
</svg>