<?xml version="1.0" encoding="UTF-8" standalone="no"?>
<svg width="217px" height="78px" viewBox="0 0 217 78" version="1.1" xmlns="http://www.w3.org/2000/svg" xmlns:xlink="http://www.w3.org/1999/xlink">
    <!-- Generator: Sketch 50.2 (55047) - http://www.bohemiancoding.com/sketch -->
    <title>Catering</title>
    <desc>Created with Sketch.</desc>
    <defs></defs>
    <g id="Page-1" stroke="none" stroke-width="1" fill="none" fill-rule="evenodd">
        <g id="Fonts-and-colors" transform="translate(-242.000000, -731.000000)" fill="#FFFFFF">
            <path d="M286.84,772.488593 C286.818667,772.509333 286.797333,772.530667 286.776,772.552 L286.584,772.552 C285.944,772.936 285.368,773.512 284.92,774.088 C284.472,774.408 284.024,774.728 283.64,775.112 C283.32,775.496 283,775.944 282.68,776.328 C282.424,776.52 282.232,776.712 282.04,776.968 L281.016,777.864 L281.208,777.864 L280.888,778.248 L281.016,777.864 L280.696,778.184 C280.632,778.312 280.504,778.376 280.376,778.504 L280.632,778.504 L279.992,779.144 L280.12,778.76 C279.928,778.888 279.8,779.08 279.736,779.208 L279.48,779.4 L279.16,779.72 C279.032,779.848 278.904,779.912 278.84,780.04 L279.032,780.04 L278.904,780.488 L279.48,779.848 L280.248,779.656 L276.408,783.496 C271.48,788.168 265.976,791.944 259.896,794.824 C258.552,795.464 257.144,795.976 255.8,796.36 C254.456,796.808 253.048,797 251.704,797.064 C249.336,797.128 247.288,796.68 245.56,795.656 C243.832,794.696 242.808,792.968 242.424,790.536 C242.232,789.512 242.168,788.552 242.168,787.528 C242.232,786.568 242.296,785.48 242.488,784.392 C242.68,782.984 243,781.64 243.32,780.232 C243.704,778.888 244.152,777.48 244.664,776.136 C245.496,773.896 246.52,771.784 247.736,769.672 C248.952,767.624 250.36,765.576 251.896,763.592 C252.664,762.568 253.432,761.672 254.264,760.712 L256.76,758.024 C258.744,755.976 260.728,753.992 262.712,752.136 C264.76,750.216 266.936,748.424 269.24,746.76 C270.776,745.608 272.312,744.52 273.848,743.496 C275.448,742.536 277.048,741.576 278.776,740.744 C280.568,739.784 282.36,739.08 284.216,738.568 C286.072,738.056 287.928,737.672 289.784,737.48 C292.408,737.288 294.584,737.928 296.376,739.4 C296.952,739.912 297.4,740.552 297.656,741.256 C297.912,741.96 298.104,742.728 298.168,743.496 C297.72,742.92 297.208,742.344 296.632,741.96 L296.632,741.768 C296.696,741.64 296.632,741.512 296.568,741.384 C296.376,741.128 296.248,740.936 296.056,740.808 C295.928,740.616 295.736,740.488 295.48,740.424 C294.2,739.656 292.664,739.4 290.872,739.656 C288.44,739.848 286.072,740.424 283.704,741.32 C281.336,742.216 279.032,743.368 276.792,744.776 C274.104,746.44 271.544,748.232 269.112,750.216 C266.68,752.2 264.312,754.312 262.008,756.616 C260.92,757.704 259.832,758.792 258.808,759.88 C257.784,760.968 256.76,762.12 255.8,763.272 C254.008,765.32 252.408,767.368 251.064,769.544 C249.72,771.656 248.568,773.896 247.672,776.2 C246.904,778.12 246.264,779.976 245.688,781.832 C245.112,783.688 244.792,785.544 244.6,787.464 C244.536,788.424 244.472,789.384 244.536,790.344 C244.6,791.24 244.856,792.136 245.176,793.032 C246.008,794.952 247.672,795.848 250.168,795.784 C251.896,795.72 253.624,795.4 255.288,794.824 C256.952,794.248 258.616,793.544 260.344,792.712 C263.16,791.176 265.848,789.512 268.344,787.72 C270.904,785.864 273.4,783.88 275.768,781.704 C276.216,781.32 276.6,780.936 277.048,780.552 C277.496,780.168 277.88,779.784 278.328,779.464 C278.328,779.527465 278.328,779.653866 278.26559,779.780793 C278.520012,779.527991 278.776003,779.335997 278.904,779.208 L278.392,779.4 C278.52,779.208 278.648,779.08 278.84,778.952 C279.032,778.824 279.16,778.696 279.288,778.568 L279.16,778.952 L279.8,778.312 C280.504,777.928 281.016,777.416 281.4,776.776 C281.592,776.648 281.784,776.52 281.912,776.392 C282.104,776.264 282.232,776.072 282.36,775.88 L281.656,776.264 C281.784,776.136 281.912,776.008 282.04,775.816 C282.168,775.688 282.36,775.56 282.552,775.432 L282.424,775.816 L283.064,775.176 C283.768,774.792 284.28,774.28 284.664,773.64 L285.752,772.744 C286.2,772.36 286.584,771.912 286.968,771.528 C287.416,771.08 287.8,770.696 288.248,770.312 C288.44,769.992 288.76,769.736 289.08,769.608 L287.864,771.272 L287.544,771.592 C287.48,771.72 287.352,771.784 287.224,771.912 C287.096,772.104 286.904,772.296 286.648,772.488 L286.84,772.488 L286.84,772.488593 Z M278.392,780.936 L278.648,780.744 L278.456,780.744 L278.392,780.936 Z M278.2,779.848 L277.944,780.104 L278.2,779.848 Z M278.52,780.296 L277.944,780.936 L278.136,780.936 L278.392,780.744 L278.52,780.296 Z M278.136,781 L277.88,781.192 L277.752,781.576 L278.328,781 L278.136,781 Z M277.752,781.192 L277.816,781 L277.56,781.192 L277.752,781.192 Z M277.413319,781.766408 L277.304,781.832 C277.24,781.832 277.24,781.896 277.24,781.896 C277.24,781.96 277.24,781.96 277.176,782.024 L277.304,781.896 C277.34044,781.82312 277.37688,781.791736 277.413319,781.766408 Z M276.993245,780.908503 L276.856,781 L276.984,781 C276.984,780.96642 276.984,780.932839 276.993245,780.908503 Z M276.993245,780.908503 C277.00162,780.886459 277.01758,780.872 277.048,780.872 L276.993245,780.908503 Z M276.888503,782.367622 C276.920335,782.343665 276.952168,782.311832 276.984,782.28 C276.963022,782.28 276.935169,782.293752 276.902693,782.316748 L276.888503,782.367622 Z M276.088,782.984 L276.344,782.792 C276.408,782.664 276.472,782.6 276.472,782.6 L276.088,782.984 Z M274.872,784.136 C274.808,784.2 274.808,784.2 274.744,784.328 C274.808,784.264 274.936,784.2 275.064,784.072 C275,784.072 274.936,784.136 274.872,784.136 Z M274.330802,784.599183 C274.256869,784.639188 274.205965,784.679193 274.162459,784.719198 C274.208727,784.677752 274.252364,784.648 274.296,784.648 C274.296,784.608952 274.319824,784.593728 274.338401,784.587793 L274.330802,784.599183 Z M274.162459,784.719198 C274.141868,784.738132 274.122934,784.757066 274.104,784.776 C274.124364,784.755636 274.144727,784.735273 274.165091,784.716971 L274.162459,784.719198 Z M273.464,785.416 L273.208,785.672 C273.336,785.544 273.464,785.416 273.528,785.416 L273.464,785.416 Z M279.050963,742.66163 C279.117333,742.614222 279.202667,742.557333 279.288,742.472 L279.050963,742.661629 L279.050963,742.66163 Z M278.456,742.92 L278.2,743.176 C278.328,743.048 278.456,742.92 278.52,742.92 L278.584,742.856 C278.52,742.856 278.52,742.92 278.456,742.92 Z M277.624,743.368 L277.24,743.624 L277.304,743.624 L277.624,743.368 Z M274.04,744.072 L273.784,744.2 C273.848,744.2 273.976,744.136 274.04,744.072 Z M273.272,745.992 L273.016,746.184 L268.984,749.064 C268.792,749.192 268.536,749.384 268.344,749.576 C268.152,749.768 267.896,749.96 267.704,750.152 C267.128,750.536 266.552,750.92 266.04,751.432 C265.528,751.88 265.016,752.328 264.568,752.84 C263.992,753.416 263.416,753.992 262.84,754.504 C262.264,755.08 261.688,755.592 261.112,756.168 L258.424,758.856 C257.912,759.304 257.4,759.752 256.952,760.264 C256.504,760.712 256.12,761.224 255.8,761.8 L255.416,762.312 L255.8,761.928 L258.616,759.048 L261.24,756.36 L264.76,753.032 L267.832,750.344 L273.464,746.12 C273.784,745.864 274.04,745.672 274.296,745.544 C274.552,745.352 274.808,745.16 275.128,745.032 L275.384,744.776 C275.576,744.648 275.704,744.584 275.832,744.52 L276.216,744.328 L276.472,744.072 L276.92,743.816 L276.472,744.008 L276.152,744.2 L275.32,744.648 L275,744.84 L273.272,745.992 Z M259.291833,757.134957 C259.278234,757.152494 259.26629,757.17142 259.256,757.192 C259.277675,757.170325 259.29935,757.14865 259.321025,757.129461 L259.291833,757.134957 Z M265.784,751.112 L266.04,750.92 L266.104,750.856 C266.04,750.856 266.04,750.92 265.976,750.92 L265.784,751.112 Z M266.296,750.728 L266.36,750.664 L266.296,750.728 Z M266.488,750.6 L266.68,750.472 L266.552,750.472 C266.552,750.472 266.552,750.536 266.488,750.6 Z M271.998126,746.2303 C272.005391,746.202841 272.021275,746.184 272.056,746.184 L271.998126,746.2303 Z M271.998126,746.2303 L271.416,746.696 L271.736,746.504 L271.992,746.312 C271.992,746.282725 271.992,746.253449 271.998126,746.2303 Z M272.056,745.352 C271.992,745.352 271.928,745.416 271.864,745.48 L272.056,745.352 Z M271.416,745.8 C271.352,745.8 271.352,745.864 271.352,745.928 L271.416,745.864 C271.48,745.8 271.608,745.736 271.736,745.608 L271.416,745.8 Z M270.84,746.248 L270.648,746.44 L270.904,746.312 L271.16,746.056 L270.84,746.248 Z M270.776,747.144 L270.52,747.4 L270.264,747.528 C270.328,747.528 270.456,747.464 270.52,747.4 L270.776,747.208 L270.904,747.08 L270.776,747.144 Z M270.226397,746.720512 C270.158663,746.751614 270.090929,746.809075 270.023195,746.873928 C270.053232,746.85076 270.094616,746.824 270.136,746.824 C270.181093,746.778907 270.226186,746.733814 270.271279,746.711107 L270.226397,746.720512 Z M269.592503,747.231622 C269.624335,747.207665 269.656168,747.175832 269.688,747.144 C269.667022,747.144 269.639169,747.157752 269.606693,747.180748 L269.592503,747.231622 Z M268.92,747.656 C268.856,747.72 268.856,747.72 268.792,747.848 L269.112,747.592 C269.048,747.592 268.984,747.656 268.92,747.656 Z M268.408,748.936 C268.536,748.872 268.6,748.808 268.664,748.744 L268.408,748.936 Z M268.344,748.104 C268.28,748.168 268.28,748.168 268.216,748.296 C268.28,748.232 268.408,748.168 268.536,748.04 C268.472,748.04 268.408,748.104 268.344,748.104 Z M268.152,749.128 C268.088,749.192 268.024,749.256 267.96,749.256 L267.832,749.384 L268.152,749.192 L268.28,749.064 L268.152,749.128 Z M267,749.128 C267,749.128 267,749.192 266.936,749.256 L267,749.192 L267.384,749 L267.576,748.744 L267.96,748.488 C267.768,748.552 267.64,748.616 267.576,748.744 L267.256,748.936 L267,749.128 Z M265.72,750.28 L265.656,750.344 C265.72,750.344 265.72,750.28 265.784,750.28 C266.104,750.088 266.424,749.832 266.744,749.448 L265.72,750.28 Z M265.528,751.304 L265.4,751.368 L265.208,751.624 L265.528,751.304 Z M265.208,750.664 L264.44,751.432 L265.272,750.792 C265.336,750.664 265.336,750.664 265.336,750.6 C265.4,750.6 265.4,750.536 265.464,750.472 L265.208,750.664 Z M263.8,752.904 L263.672,753.032 L263.8,752.968 C263.992,752.712 264.12,752.584 264.184,752.52 L264.44,752.264 L264.12,752.52 L263.8,752.904 Z M263.224,753.352 C263.224,753.352 263.224,753.416 263.16,753.416 C263.096,753.416 263.096,753.416 263.096,753.48 L263.224,753.416 C263.288,753.288 263.288,753.288 263.352,753.224 L263.224,753.352 Z M262.328,753.352 L262.2,753.48 L262.328,753.416 L262.584,753.032 L262.328,753.352 Z M262.328,754.248 L262.2,754.248 L261.88,754.696 C261.752,754.824 261.624,754.888 261.56,754.952 L261.176,755.4 L260.728,755.784 C260.792,755.784 260.856,755.72 260.92,755.656 C261.048,755.528 261.176,755.4 261.24,755.4 L261.624,754.952 L261.944,754.696 L262.264,754.312 L262.328,754.248 Z M261.368,754.248 L261.048,754.504 L261.368,754.312 L262.072,753.608 C261.944,753.672 261.816,753.8 261.688,753.928 L261.368,754.248 Z M260.408,755.144 L260.344,755.208 L260.728,754.952 L260.408,755.144 Z M258.808,756.744 C258.936,756.616 259.064,756.488 259.128,756.488 L259.256,756.36 C259.192,756.36 259.192,756.424 259.128,756.424 L258.808,756.744 Z M258.52,757.096 L258.552,757.064 L258.52,757.096 Z M258.52,757.096 L258.488,757.128 L258.232,757.32 C258.296,757.32 258.36,757.256 258.424,757.192 L258.52,757.096 Z M257.464,758.024 L257.336,758.152 L257.464,758.088 L257.784,757.832 L257.464,758.024 Z M257.144,758.536 C256.952,758.664 256.76,758.856 256.504,759.112 L257.144,758.536 Z M256.44,759.176 C256.248,759.304 256.12,759.496 256.056,759.624 C256.248,759.496 256.376,759.368 256.44,759.176 Z M255.288,760.392 C255.288,760.456 255.288,760.456 255.224,760.52 L255.416,760.328 L255.8,759.816 L255.416,760.264 L255.288,760.392 Z M255.224,762.504 L255.032,762.696 C255.16,762.632 255.224,762.568 255.224,762.504 Z M252.728,765.64 L252.728,765.704 L252.792,765.64 L253.176,765.192 L253.176,765.128 L252.728,765.64 Z M313.228758,769.845982 C313.181314,769.899807 313.15792,769.938751 313.137051,769.962814 C313.159122,769.961755 313.17511,769.92978 313.208,769.864 C313.208,769.864 313.215833,769.856167 313.228758,769.845982 Z M313.137051,769.962814 C313.120176,769.982271 313.104952,769.992 313.08,769.992 C313.11111,769.992 313.127098,769.992 313.142664,769.977298 L313.137051,769.962814 Z M313.228758,769.845982 C313.241345,769.831702 313.255625,769.816375 313.272,769.8 L313.336,769.8 C313.29439,769.8 313.252779,769.827053 313.228758,769.845982 Z M309.688,775.56 C309.688,775.496 309.816,775.304 309.816,775.24 L309.688,775.56 Z M310.584,774.024 L310.136,774.856 L309.816,775.24 L310.072,774.856 L310.52,774.024 L311.352,773.064 L310.584,774.024 Z M316.308708,767.590113 L316.344,767.496 C316.329778,767.524444 316.318716,767.556049 316.308708,767.590112 Z M315.832,766.216 L316.088,765.96 L316.024,765.96 L315.832,766.216 Z M313.272,769.672 L313.528,769.352 C313.4,769.48 313.336,769.544 313.272,769.672 Z M315.154233,767.60047 C315.1527,767.589066 315.144716,767.576716 315.128,767.56 C315.144643,767.576643 315.15263,767.588958 315.155338,767.600321 L315.154233,767.60047 Z M314.445786,767.840059 L314.808,767.176 L314.488,767.816 C314.471961,767.82402 314.457932,767.832039 314.445786,767.840059 Z M314.445786,767.840059 C314.361005,767.896039 314.36802,767.95202 314.424,768.008 C314.36,767.944 314.36,767.944 314.424,767.88 L314.445786,767.840059 Z M314.2064,769.2752 L313.848,769.736 C313.8992,769.5824 314.07328,769.4288 314.2064,769.2752 Z M314.2064,769.2752 C314.23968,769.2368 314.2704,769.1984 314.296,769.16 L314.2064,769.2752 Z M314.106351,771.397649 C314.075986,771.416187 314.050292,771.4392 314.026589,771.477411 L314.106351,771.397649 Z M314.232,768.392 C314.168,768.456 314.104,768.648 314.04,768.776 L313.784,768.84 L313.912,768.584 L314.232,768.392 Z M308.984,779.592 L309.368,778.888 C309.112,779.016 308.984,779.272 308.984,779.592 Z M305.656,783.88 L305.592,784.072 L305.784,784.072 C305.08,785.48 303.992,786.568 302.84,787.656 C301.688,788.68 300.6,788.68 299.576,788.36 C298.616,787.976 298.232,786.888 298.104,785.736 C297.912,784.136 298.296,782.472 298.68,780.936 C299.192,778.44 300.216,775.944 301.24,773.512 C301.368,773.128 301.752,772.68 301.432,772.36 C301.176,772.552 300.92,772.872 300.664,773.192 C298.36,775.816 296.184,778.312 293.88,780.872 C292.856,781.896 291.576,782.984 290.424,783.816 C287.864,785.608 286.776,785.48 284.984,784.008 C283.512,782.92 283.448,781.064 283.896,778.952 C284.216,777.352 284.856,775.752 285.688,774.28 C289.08,768.776 293.112,764.232 298.424,761.032 C300.28,759.944 302.072,759.048 304.056,758.472 C305.656,758.024 307.064,758.088 308.472,758.728 C308.856,758.984 309.304,759.368 309.752,759.752 C309.944,759.88 309.944,760.2 310.008,760.456 C309.752,760.456 309.56,760.392 309.304,760.328 C307.832,759.624 306.168,760.008 304.44,760.648 C301.944,761.48 299.64,762.952 297.464,764.552 C293.496,767.624 290.296,771.464 287.736,775.88 C286.904,777.288 286.2,778.696 285.88,780.232 C285.752,781.064 285.688,781.832 285.816,782.6 C285.816,783.24 286.072,783.304 286.584,783.176 C286.904,783.112 287.16,782.984 287.48,782.792 C288.888,782.28 290.104,781.384 291.256,780.232 C292.6,778.888 294.008,777.544 295.288,776.072 L303.928,765.768 L305.592,763.72 C305.848,763.4 306.232,763.272 306.552,763.464 C306.744,763.528 307,763.656 307.192,763.784 C307.896,764.424 307.832,764.552 307.384,765.64 C305.4,769.416 303.608,773.256 302.072,777.096 C301.112,779.592 300.216,782.024 299.832,784.52 C299.832,785.224 299.832,785.928 299.896,786.568 C299.896,787.08 300.088,787.144 300.6,786.888 C300.984,786.632 301.368,786.312 301.56,785.992 C302.648,784.968 303.544,783.944 304.44,782.92 L305.272,781.96 L304.632,783.048 C304.376,783.432 304.184,783.752 303.992,784.072 C303.992,784.072 303.928,784.072 303.864,784.136 L303.992,784.136 C304.504,783.688 304.824,783.176 305.336,782.536 C308.088,778.888 310.584,775.048 312.952,771.144 C313.272,770.696 313.464,770.248 313.848,769.8 L313.336,771.016 C310.712,775.112 308.152,779.208 305.336,783.176 C305.016,783.624 304.44,784.136 304.504,784.776 C304.248,785.224 303.928,785.608 303.544,785.992 L303.544,786.056 L303.608,785.992 C304.248,785.736 304.824,785.16 304.952,784.456 L305.208,784.2 L305.4,784.2 L305.4,784.136 L305.464,784.136 L305.656,783.88 Z M294.968,765.768 L294.456,766.088 C293.752,766.536 291.704,768.84 291.704,768.84 L291.512,769.096 C291.384,769.16 291.32,769.288 291.192,769.416 L290.936,769.672 L289.4,771.784 C289.336,771.912 289.208,772.04 289.08,772.104 L288.504,773.256 C288.184,773.448 288.056,773.64 287.992,774.024 C287.992,774.088 287.8,774.216 287.864,774.216 C287.992,774.28 287.992,774.216 288.056,774.024 L288.568,773.384 L289.272,772.232 L289.464,771.976 C290.04,771.208 290.616,770.504 291.128,769.8 L291.32,769.544 C291.448,769.416 291.576,769.352 291.64,769.224 L291.896,769.032 L293.688,767.048 L294.584,766.152 C294.648,766.024 294.776,765.896 294.968,765.768 Z M294.2,765.512 C293.304,766.216 290.808,768.904 290.168,769.928 C290.488,769.608 293.688,766.024 294.2,765.512 Z M285.496,775.688 C287.544,772.744 289.848,769.352 289.848,769.352 L290.04,769.032 L290.616,768.456 L290.808,768.2 L291,768.008 L291.192,767.624 L290.936,767.88 L290.744,768.2 L290.296,768.712 L289.976,769.032 L289.784,769.288 C289.72,769.352 286.712,773.064 285.496,775.688 Z M304.696,765.512 C304.248,765.896 300.664,770.312 300.408,770.888 C300.92,770.568 304.44,766.088 304.696,765.512 Z M295.48,776.456 C295.416,776.52 295.352,776.584 295.352,776.648 L295.48,776.52 C295.544,776.328 299.448,772.232 299.896,771.656 C299.832,771.528 295.48,776.456 295.48,776.456 Z M294.52,777.544 C294.52,777.608 294.392,777.736 294.392,777.8 L294.84,777.288 L294.52,777.544 Z M293.944,778.376 L294.328,777.864 L293.944,778.376 Z M293.112,780.808 C293.112,780.744 293.24,780.744 293.176,780.68 C293.112,780.68 293.112,780.744 293.048,780.744 L292.92,781 L293.112,780.808 Z M293.56,780.296 C293.56,780.296 294.52,779.464 294.392,779.4 C294.328,779.4 293.496,780.232 293.496,780.232 C293.432,780.36 293.432,780.36 293.432,780.424 C293.496,780.424 293.496,780.424 293.56,780.296 Z M298.36,775.112 C299.448,773.768 300.6,772.36 301.688,770.952 L302.008,770.696 L302.2,770.504 C302.264,770.312 302.392,770.248 302.456,770.184 L302.776,769.544 C302.712,769.672 302.584,769.736 302.52,769.736 C302.392,769.928 302.328,769.992 302.264,770.056 L302.072,770.312 L301.816,770.632 L301.56,770.888 C301.112,771.4 300.728,771.912 300.216,772.36 L295.352,778.248 L295.16,778.568 L294.84,778.824 L294.584,779.144 L294.456,779.4 L294.648,779.144 L294.968,778.952 C294.968,778.824 295.096,778.696 295.224,778.632 L295.416,778.376 C296.44,777.224 297.4,776.2 298.36,775.112 Z M303.112,785.128 C303.064,785.192 303.032,785.256 303.032,785.288 C303.064,785.224 303.096,785.176 303.136,785.128 L303.112,785.128 Z M303.416,784.712 C303.544,784.648 303.608,784.52 303.672,784.392 L303.416,784.712 Z M308.216,780.68 L308.664,779.912 C308.408,780.104 308.216,780.36 308.216,780.68 Z M307.116995,779.333009 L307.192,779.208 C307.15033,779.24967 307.129009,779.291339 307.116995,779.333009 Z M307.116995,779.333009 C307.092104,779.419339 307.107165,779.50567 307.064,779.592 L306.296,780.552 L307,779.528 L307.116995,779.333009 Z M305.976,783.56 L306.616,782.792 L306.808,782.728 L305.848,783.944 L305.976,783.56 Z M306.808,782.728 L306.616,782.536 L307.448,781.704 C307.256,782.024 307.064,782.408 306.808,782.728 Z M308.664,779.912 L308.984,779.592 C308.92,779.656 308.792,779.72 308.664,779.912 Z M313.016,773.256 L313.528,772.36 C313.336,772.488 313.272,772.68 313.208,772.872 L313.016,773.256 Z M312.824,773.512 L312.888,773.448 L312.824,773.512 Z M311.16,776.2 L311.352,775.944 L311.416,775.944 C311.352,775.944 311.352,776.008 311.352,776.008 L311.16,776.2 Z M310.136,777.736 L310.584,777.096 C310.392,777.224 310.136,777.48 310.136,777.736 Z M307.512,781.64 L307.512,781.448 L308.152,780.744 L307.512,781.64 Z M310.007979,777.992011 C310.007993,777.992004 310.008,777.992 310.008,777.992 C310.008,777.992 310.007993,777.992004 310.007978,777.992011 L310.007979,777.992011 Z M310.007978,777.992011 C310.006083,777.992962 309.88,778.056481 309.88,778.12 C309.88,778.312 309.816,778.44 309.688,778.568 L309.816,778.056 C309.879521,778.056 310.006086,777.992955 310.007979,777.992011 L310.007978,777.992011 Z M330.296,771.08 L329.912,771.528 L330.104,771.08 L330.296,771.08 Z M329.144,770.952 L329.272,770.824 L329.656,770.376 L329.656,770.44 C329.528,770.568 329.4,770.696 329.272,770.888 C329.208,770.888 329.144,770.952 329.144,770.952 Z M329.4,772.616 L330.488,771.784 C329.016,773.896 319.032,785.992 317.112,787.784 C316.28,788.552 315.384,788.872 314.488,788.808 C312.632,788.744 311.416,787.976 311.224,786.12 C311.032,783.752 311.224,781.256 311.672,778.76 C312.12,775.688 312.888,772.552 314.04,769.416 C315.064,766.344 316.28,763.336 317.56,760.264 C318.904,756.808 320.44,753.416 322.168,750.024 C322.168,749.96 322.168,749.96 322.232,749.896 C322.552,749.192 322.36,749.064 321.656,749.256 C320.952,749.448 320.12,749.704 319.416,749.96 L317.56,750.6 C317.176,750.792 316.856,750.792 316.6,750.6 L315.576,749.896 C316.088,749.64 316.472,749.256 316.984,749.128 C318.776,748.552 320.504,748.04 322.232,747.592 C323.512,747.272 323.512,747.336 324.088,746.184 C326.456,741.64 328.952,737.16 331.768,732.744 L332.088,732.296 C332.792,731.208 333.048,731.144 333.944,731.72 C334.584,732.36 334.712,732.488 334.072,733.64 L329.4,742.216 C328.76,743.496 328.12,744.712 327.48,745.928 C327.032,746.696 327.16,746.824 327.992,746.888 C333.688,747.144 334.392,747.784 335.352,752.584 C333.304,748.36 332.28,747.592 327.48,748.104 C326.392,748.232 326.328,748.232 325.752,749.32 C324.472,752.008 323.192,754.696 321.976,757.384 C319.928,762.056 318.2,766.728 316.536,771.464 C314.936,775.88 314.04,780.296 313.848,784.648 C313.784,785.416 313.784,786.184 313.848,786.952 C313.912,787.528 314.936,788.552 327.992,772.232 C328.312,771.976 328.632,771.656 328.888,771.336 L328.696,771.912 L330.104,771.08 L329.72,771.528 L329.656,771.528 L329.336,771.976 C329.528,771.848 329.656,771.656 329.72,771.528 L329.4,772.616 Z M327.672,773.064 C327.8,772.936 327.928,772.808 328.056,772.616 L327.672,773.064 Z M328.056,772.552 L328.696,771.976 C328.504,772.104 328.312,772.296 328.056,772.552 Z M328.346519,773.740385 C328.428245,773.684408 328.577143,773.621714 328.632,773.512 L328.346521,773.740383 L328.346519,773.740385 Z M346.04,778.312 L346.616,777.736 L346.04,778.312 Z M346.04,778.376 L345.976,778.376 L346.04,778.376 Z M346.68,777.544 L347.192,777.032 L346.936,777.352 L346.68,777.544 Z M347.32,776.904 L347.192,777.032 C347.256,776.968 347.32,776.968 347.32,776.904 Z M344.568,779.976 L345.208,779.4 C344.952,779.592 344.76,779.784 344.568,779.976 Z M346.104,777.544 L345.784,777.928 L345.912,777.544 L346.104,777.544 Z M351.288,771.208 C351.224,771.336 351.288,771.4 351.16,771.528 C350.968,771.784 350.712,772.04 350.584,772.232 C350.584,772.04 350.584,771.848 350.52,771.72 L350.52,771.656 C350.392,771.912 348.536,774.92 348.344,775.112 L347.896,775.56 C347.896,775.688 347.768,775.752 347.704,775.88 C348.088,775.688 348.216,775.432 348.344,775.176 L350.584,772.232 L347.512,776.648 L347.704,775.944 L347.576,775.944 L347.32,776.264 L347.32,775.944 C346.68,776.328 346.36,776.968 345.912,777.544 L345.656,777.928 L345.784,777.928 L345.528,778.312 C345.528,778.44 345.464,778.504 345.336,778.696 L345.4,778.632 L345.4,778.696 L345.72,778.696 L345.208,779.4 C345.08,779.272 345.08,779.144 345.08,779.016 L343.8,780.168 L343.672,780.488 L343.288,780.616 L343.096,780.616 L343.096,780.68 L343.288,780.68 C343.096,781.192 343.096,781.192 343.416,781.064 C342.456,782.088 341.432,783.176 340.408,784.136 C338.552,785.8 336.504,787.208 334.264,788.04 C331.512,789.128 329.336,789 327.416,787.848 C325.944,786.952 325.432,785.352 325.432,783.496 C325.368,781.768 325.944,779.912 326.712,778.056 C328.12,774.664 330.424,771.528 332.92,768.584 C335.672,765.384 338.616,762.504 342.136,760.2 C343.096,759.496 344.056,758.92 345.208,758.408 C347.896,757.128 350.776,758.408 350.904,760.904 C350.904,761.864 350.584,762.824 350.008,763.784 C348.408,766.6 346.168,768.968 343.352,770.824 C340.856,772.488 338.232,773.768 335.544,774.728 C334.264,775.176 332.92,775.496 331.576,775.432 C331.192,775.432 330.872,775.56 330.68,776.008 C329.144,778.632 327.992,781.32 327.8,784.008 C327.736,784.968 327.928,785.864 328.376,786.568 C328.76,787.592 329.656,788.04 331.064,787.784 C332.792,787.528 334.392,786.76 335.992,785.736 C337.976,784.392 339.832,782.92 341.624,781.256 C341.88,780.936 342.136,780.744 342.392,780.552 C342.328,780.616 342.264,780.744 342.328,780.872 L342.776,780.36 L342.84,780.36 C342.84,780.296 342.968,780.232 342.968,780.104 C342.904,780.232 342.776,780.296 342.776,780.36 L342.392,780.552 L344.568,778.184 L344.568,778.44 L344.888,778.12 C345.016,777.928 345.208,777.736 345.4,777.544 L344.952,777.736 L347.896,774.024 C348.088,773.832 349.816,770.824 350.008,771.08 C350.52,770.888 350.584,770.888 350.84,771.336 L351.288,771.208 Z M346.296,766.344 C346.296,766.28 346.36,766.216 346.424,766.152 L346.232,766.344 L346.296,766.344 Z M346.752245,765.631158 C346.764568,765.598974 346.79531,765.576 346.872,765.576 L347.064,765.256 L346.808,765.576 C346.808,765.60901 346.790974,765.624994 346.774485,765.641516 L346.752245,765.631158 Z M346.68,767.24 L346.744,767.176 L346.68,767.24 Z M347.616,764.56 C347.56,764.648 347.512,764.744 347.448,764.872 C347.512,764.744 347.576,764.648 347.64,764.56 L347.616,764.56 Z M348.728,764.616 L347.768,765.896 L347.448,766.28 L347.192,766.664 L346.744,767.112 L347.256,766.792 L347.896,766.024 L348.856,764.68 C348.92,764.616 349.048,764.36 349.112,764.168 C348.984,764.296 348.856,764.488 348.728,764.616 Z M347.832,765.256 C347.768,765.256 347.704,765.384 347.576,765.448 L347.576,765.512 L347.832,765.256 Z M348.216,763.72 L347.96,764.04 L348.216,763.784 L348.216,763.72 Z M343.16,761.864 C339,764.936 335.608,768.648 332.728,772.808 C332.472,773.128 332.344,773.512 332.152,773.832 C332.472,774.088 332.92,773.832 333.368,773.704 C336.504,772.616 339.576,771.208 342.52,769.16 C344.504,767.688 346.232,765.96 347.512,763.976 C348.024,763.208 348.408,762.44 348.792,761.608 C348.856,761.096 349.048,760.52 348.92,760.008 C348.92,759.304 348.6,759.048 347.832,759.304 C347.192,759.432 346.552,759.688 345.912,760.008 C344.952,760.584 344.056,761.16 343.16,761.864 Z M339.768,763.912 L339.512,764.04 C339.576,764.04 339.64,763.976 339.704,763.976 L339.768,763.912 Z M339.32,764.224 C339.368,764.184 339.416,764.136 339.448,764.104 C339.416,764.136 339.368,764.168 339.32,764.2 L339.32,764.224 Z M332.984,769.224 C332.92,769.352 332.856,769.48 332.792,769.544 L333.048,769.288 L332.984,769.224 Z M331.512,772.168 L331.384,772.296 C331.384,772.296 331.448,772.296 331.512,772.232 C331.64,772.04 331.768,771.848 331.896,771.72 C331.704,771.848 331.64,772.04 331.512,772.168 Z M338.296,765.128 L338.424,765.064 C338.456,765.032 338.472,765 338.496,764.976 L338.424,765 C338.424,765.064 338.424,765.064 338.296,765.128 Z M338.496,764.976 C338.52,764.952 338.552,764.936 338.616,764.936 L338.496,764.976 Z M338.296,765.128 L337.848,765.576 L337.272,766.088 L336.76,766.664 L335.608,767.944 C333.816,769.672 332.408,771.656 331.064,773.576 C331,773.64 331,773.704 330.936,773.768 C331,773.832 331,773.96 330.936,774.088 L331.192,773.896 C331.64,773.384 331.96,772.872 332.344,772.36 C333.432,770.888 334.584,769.48 335.672,768.008 C336.056,767.624 336.504,767.176 336.824,766.792 L337.4,766.152 L337.912,765.64 L338.296,765.128 Z M330.808,773.224 L330.808,773.256 L330.808,773.224 Z M330.808,773.224 L330.808,773.192 C331,772.936 331.128,772.808 331.192,772.616 C331.128,772.808 330.936,772.936 330.808,773.128 L330.808,773.224 Z M330.552,773.6 C330.584,773.56 330.616,773.512 330.616,773.448 C330.616,773.512 330.584,773.544 330.552,773.576 L330.552,773.6 Z M330.713231,772.280678 C330.755598,772.213804 330.828549,772.126902 330.872,772.04 C330.936,772.04 331,771.848 331.128,771.72 L330.808,772.04 C330.808,772.116996 330.761684,772.193992 330.724774,772.257058 L330.713231,772.280678 Z M327.992,776.648 L328.056,776.584 L327.864,776.648 L327.928,776.712 C327.992,776.712 327.992,776.648 327.992,776.648 Z M328.44,775.88 C328.44,775.816 328.504,775.752 328.44,775.752 L328.44,775.816 C328.376,775.88 328.44,775.88 328.44,775.88 Z M328.984,774.888 C328.968,774.92 328.952,774.952 328.952,774.984 C328.984,774.952 329,774.92 329.008,774.888 L328.984,774.888 Z M329.288829,774.436902 C329.283248,774.449009 329.277624,774.460752 329.272,774.472 C329.277619,774.460763 329.283237,774.449032 329.288856,774.436939 L329.288829,774.436902 Z M329.288856,774.436939 C329.347237,774.311275 329.405619,774.146381 329.464,774.088 L329.784,773.64 L329.4,774.088 C329.4,774.146376 329.346754,774.311243 329.288829,774.436902 L329.288856,774.436939 Z M330.424,772.616 C330.168,772.872 329.912,773.128 329.848,773.448 L330.424,772.616 Z M329.208,775.816 L329.208,775.752 L329.144,775.816 L329.208,775.816 Z M328.478077,778.598894 C328.485061,778.588596 328.493702,778.578298 328.504,778.568 C328.496967,778.575033 328.489934,778.582066 328.482986,778.589099 L328.478077,778.598894 Z M329.592,776.648 L330.104,775.56 C330.168,775.496 330.104,775.432 330.104,775.432 C330.04,775.432 329.912,775.432 329.912,775.496 L328.952,777.16 L328.888,777.48 L328.952,777.736 C328.952,777.672 329.016,777.544 329.08,777.544 C329.272,777.224 329.4,776.968 329.592,776.648 Z M345.464,778.312 L345.592,777.928 L345.272,778.312 L345.464,778.312 Z M345.912,776.84 C346.424,776.584 346.68,776.136 346.872,775.688 C346.616,776.072 346.296,776.456 345.912,776.84 Z M347.576,775.88 L347.64,775.56 L347.384,775.88 L347.576,775.88 Z M343.544,781 L343.672,780.488 C343.992,780.36 344.312,780.168 344.568,779.976 L343.544,781 Z M344.632,778.12 C344.696,777.992 344.824,777.864 344.952,777.8 L344.888,778.12 L344.632,778.12 Z M345.848,778.568 L345.848,778.504 L345.848,778.568 Z M345.787138,778.628862 C345.784,778.649149 345.784,778.672574 345.784,778.696 L345.72,778.696 L345.787138,778.628862 Z M345.787138,778.628862 C345.792574,778.593723 345.807426,778.568 345.848,778.568 L345.787138,778.628862 Z M351.019397,769.557589 C350.975635,769.600365 350.935854,769.640146 350.904,769.672 L350.97913,769.396522 L351.019397,769.557589 Z M350.97913,769.396522 L350.904,769.096 C350.904,769.096 351.032,769.096 351.096,768.968 L350.97913,769.396522 Z M351.019397,769.557589 C351.151488,769.428475 351.319854,769.272073 351.416,769.224 C351.48,769.16 351.608,769.096 351.736,769.096 C351.672,769.16 351.736,769.224 351.736,769.288 L351.16,770.12 L351.019397,769.557589 Z M351.137372,771.177097 L351.096,771.144 C351.109791,771.157791 351.123581,771.168609 351.137372,771.177097 Z M351.137372,771.177097 C351.187581,771.208 351.237791,771.208 351.288,771.208 L351.288,771.144 L352.056,770.12 C352.312,769.864 352.504,769.672 352.568,769.544 L352.376,770.12 C352.376,770.184 352.312,770.248 352.248,770.312 L351.416,771.4 L351.137372,771.177097 Z M353.592,768.008 C353.464,768.072 353.4,768.136 353.4,768.2 L353.592,768.008 Z M354.808,765.768 L354.936,765.384 L355.128,765.384 L354.808,765.768 Z M354.168,766.472 L353.848,766.856 L353.976,766.472 L354.168,766.472 Z M354.552,766.984 C354.488,766.984 354.488,766.92 354.424,766.92 L354.68,766.728 C354.68,766.856 354.552,766.92 354.552,766.984 Z M353.592,768.008 C353.656,768.008 353.592,767.944 353.592,767.944 L353.592,768.008 Z M352.952,768.712 L353.336,768.2 L353.4,768.2 L353.4,768.264 C353.272,768.392 353.144,768.584 352.952,768.712 Z M355.512,764.936 L355.192,765.32 L355.32,764.936 L355.512,764.936 Z M353.784,766.92 L353.4,767.304 L353.528,766.92 L353.784,766.92 Z M352.696,768.264 L353.016,767.752 L353.08,767.752 L352.696,768.264 Z M353.4,767.368 L353.08,767.752 L353.208,767.368 L353.4,767.368 Z M352.632848,766.819626 C352.635583,766.788417 352.647142,766.776858 352.696,766.728 L352.745311,766.671645 C352.650979,766.722804 352.635179,766.773963 352.632532,766.825122 L352.632848,766.819626 Z M352.745311,766.671645 L353.144,766.216 L352.76,766.664 C352.754903,766.666548 352.750009,766.669097 352.745311,766.671645 Z M352.632848,766.819626 C352.632,766.829298 352.632,766.840858 352.632,766.856 C352.632,766.845707 352.632,766.835414 352.632532,766.825122 L352.632848,766.819626 Z M352.468794,767.054198 C352.418459,767.071743 352.376,767.123872 352.376,767.176 L351.992,767.624 L351.992,767.56 C352.12,767.432 352.248,767.304 352.376,767.112 C352.376,767.112 352.417954,767.070046 352.467895,767.054074 L352.468794,767.054198 Z M352.468794,767.054198 C352.480257,767.050202 352.492128,767.048 352.504,767.048 C352.491818,767.048 352.479636,767.050319 352.467895,767.054074 L352.468794,767.054198 Z M354.872,764.232 L355.384,764.04 C355.192,763.784 355.064,764.04 354.872,764.232 Z M355.256,766.024 L355.512,765.768 L355.448,765.768 L355.256,766.024 Z M353.208,767.368 L353.656,766.024 L353.144,766.216 L354.488,764.744 L354.36,765.128 L355.384,764.04 C355.704,764.04 355.768,764.168 355.704,764.488 L355.384,764.872 L355.32,764.936 L355.256,764.936 L354.936,765.384 C354.616,765.704 354.296,766.088 353.912,766.472 L353.976,766.472 C353.784,766.6 353.656,766.792 353.528,766.92 L353.208,767.368 Z M355.896,764.488 L355.704,764.488 L355.576,764.872 L355.896,764.488 Z M355.128,765.384 L355.128,765.32 L355.192,765.32 L355.192,765.384 L355.128,765.384 Z M355.512,765.768 C355.704,765.256 356.024,764.936 356.472,764.616 C356.344,765.064 355.96,765.448 355.512,765.768 Z M363.96,765.832 L363.832,765.832 L364.152,765.448 C364.152,765.576 364.088,765.704 363.96,765.832 Z M364.536,765 L364.152,765.448 L364.344,765 L364.536,765 Z M364.28,765.896 L364.216,765.832 C364.216,765.896 364.28,765.896 364.28,765.896 Z M358.264,773.192 L357.944,773 C357.944,773.256 358.072,773.256 358.264,773.192 Z M353.144028,778.119972 C353.208074,778.055982 353.464,777.991982 353.464,777.864 L355.768,774.344 C358.392,770.376 361.4,766.6 364.856,763.08 C365.304,762.632 365.752,762.312 366.2,761.864 L366.136,762.248 L366.968,761.48 L366.2,761.864 C367.992,760.008 369.976,758.472 372.152,757.384 C374.264,756.36 376.184,757.448 375.928,759.432 C375.8,760.136 375.608,760.776 375.416,761.416 C374.52,764.104 373.752,766.792 373.24,769.416 C373.176,769.8 373.176,770.184 373.112,770.504 C372.984,771.144 372.856,771.272 372.216,771.144 C371.256,770.952 370.808,770.376 371,769.288 C371.384,766.6 371.896,763.912 372.92,761.224 C373.048,760.776 373.24,760.328 373.368,759.88 C373.368,759.496 373.56,758.92 373.432,758.728 C373.176,758.472 372.6,758.92 372.216,759.176 L369.976,760.712 C369.336,761.224 368.76,761.8 368.056,762.312 L367.928,762.12 L367.864,762.312 L367.672,762.12 L367.48,762.12 L367.608,761.672 L366.968,762.312 L367.224,762.312 C367.16,762.44 367.096,762.568 367.032,762.76 L367.864,762.312 L368.056,762.312 L366.456,763.848 C366.264,764.104 366.008,764.296 365.816,764.488 L366.072,763.656 L366.328,763.656 L366.776,763.016 L366.52,763.016 L366.648,762.568 L366.072,763.208 L366.264,763.208 L366.072,763.656 L365.816,763.656 L366.008,763.208 L365.368,763.848 L365.56,763.848 L365.176,764.36 L365.304,763.912 L364.984,764.36 L364.344,765 C364.024,765.256 363.704,765.512 363.512,765.768 C362.104,767.496 360.632,769.16 359.352,770.888 C358.776,771.592 358.392,772.296 357.944,773 C357.048,774.024 356.344,775.176 355.768,776.328 C356.088,776.136 356.088,776.264 356.088,776.52 L355.704,777.16 C355.512,777.096 355.384,777.032 355.256,777.032 C355.128,777.224 355,777.48 354.808,777.672 L354.424,778.312 C354.744,778.312 354.744,778.568 354.744,778.76 L354.232,779.4 C354.169692,779.467101 354.116716,779.516973 354.071917,779.55225 C353.936323,780.044245 353.702476,780.70853 354.04,780.296 L353.976,780.36 C354.104,780.04 354.232,779.72 354.296,779.464 L354.744,778.76 C355.256,778.312 355.576,777.8 355.704,777.224 L356.152,776.584 L358.392,773.256 C358.904,772.552 359.48,771.848 359.928,771.144 C360.248,770.76 360.504,770.312 360.76,769.864 L360.76,769.928 L361.336,769.416 C361.72,768.904 362.104,768.456 362.552,767.944 C363,767.24 363.512,766.6 364.088,765.96 C364.152,765.896 364.216,765.896 364.28,765.896 C364.6,765.576 364.856,765.256 365.24,765 L365.304,764.744 L365.816,764.552 L365.432,765 L364.408,766.088 L361.464,769.672 C361.336,769.864 361.272,770.12 361.08,770.312 C358.008,774.344 356.984,775.496 354.424,779.72 C353.592,781 352.824,782.344 352.056,783.688 C351.8,784.072 350.136,787.272 349.816,787.72 C349.368,788.36 349.304,788.424 348.536,788.296 L348.088,788.168 C346.936,787.784 346.808,787.592 347.256,786.312 L351.224,775.112 L352.824,771.016 C354.552,766.536 356.6,762.12 358.776,757.704 C359.096,757 359.096,756.936 359.736,757.128 C359.928,757.192 360.184,757.256 360.312,757.384 C361.208,757.832 361.272,758.088 360.76,759.176 C359.928,761.224 358.968,763.208 358.072,765.256 C357.624,766.344 357.176,767.368 356.728,768.456 L353.144,777.8 C353.080961,777.863039 353.142107,777.98817 353.143957,778.114233 L353.144028,778.119972 Z M353.852519,779.449888 C353.855783,779.376782 353.87182,779.288842 353.892953,779.203565 C353.303048,779.637343 352.954818,780.132184 353.016,780.744 L352.056,782.28 C351.992,782.408 351.928,782.472 351.864,782.6 L352.184,782.344 L353.016,780.808 C353.34056,780.375254 353.619399,779.896788 353.852519,779.449888 Z M352.44,780.232 C353.4,779.208 354.104,778.056 354.68,776.84 C353.72,777.928 353.016,779.08 352.44,780.232 Z M354.808,776.64 C354.84,776.584 354.872,776.52 354.872,776.456 C354.872,776.52 354.84,776.568 354.808,776.616 L354.808,776.64 Z M357.304,772.808 C356.408,773.832 355.64,774.856 355.128,776.072 C356.088,775.048 356.792,773.96 357.304,772.808 Z M355.128,776.072 C355.128,776.136 355.064,776.136 355.064,776.2 L355.128,776.136 L355.128,776.072 Z M357.304,772.808 C357.304,772.808 357.368,772.807999 357.368,772.744 C358.072,772.104 358.584,771.336 358.904,770.568 L358.968,770.568 L359.032,770.504 C358.968,770.568 358.904,770.568 358.904,770.568 C358.2,771.208 357.688,771.912 357.368,772.744 L357.304,772.744 L357.304,772.808 Z M359.032,770.504 C359.608,769.992 360.184,769.288 360.44,768.584 C359.736,769.16 359.288,769.8 359.032,770.504 Z M361.208,767.688 L361.208,767.624 C361.144,767.688 361.144,767.752 361.08,767.816 L361.208,767.688 Z M363.768,764.744 C364.216,764.488 364.536,764.168 364.728,763.72 L363.704,764.744 C362.808,765.448 362.104,766.28 361.592,767.176 C362.488,766.536 363.128,765.704 363.768,764.744 Z M364.728,763.656 C364.984,763.464 365.24,763.208 365.432,762.952 L364.728,763.656 Z M367.992,760.584 C368.12,760.456 368.184,760.392 368.312,760.328 L368.44,760.2 C368.44,760.2 368.376,760.264 368.312,760.264 L367.992,760.52 L367.352,761.16 C367.224,761.288 367.096,761.352 367.032,761.416 L367.352,761.224 C367.544,760.968 367.8,760.776 367.992,760.584 Z M369.272,760.776 L369.272,760.712 C369.208,760.84 369.016,760.904 368.952,760.968 L368.632,761.224 L368.184,761.416 L367.992,761.864 L367.736,762.056 L367.928,762.056 L367.992,761.864 L368.632,761.224 L368.696,761.224 L368.952,760.968 L369.272,760.776 Z M390.904,765.512 L390.712,765.704 C390.712,765.64 390.776,765.576 390.904,765.512 Z M392.12,763.272 L392.44,762.888 L392.248,762.888 L392.12,763.272 Z M391.48,763.976 L391.288,763.976 L391.16,764.36 L391.48,763.976 Z M391.864,764.488 C391.864,764.424 391.992,764.36 391.992,764.232 L391.736,764.424 C391.8,764.424 391.8,764.488 391.864,764.488 Z M390.904,765.512 L390.904,765.448 C390.904,765.448 390.968,765.512 390.904,765.512 Z M390.264,766.216 C390.456,766.088 390.584,765.896 390.712,765.768 L390.712,765.704 L390.648,765.704 L390.264,766.216 Z M392.824,762.44 L392.632,762.44 L392.504,762.824 L392.824,762.44 Z M391.096,764.424 L390.84,764.424 L390.712,764.808 L391.096,764.424 Z M388.984,766.856 L388.728,766.856 L388.6,767.304 C388.728,767.112 388.856,766.984 388.984,766.856 Z M388.28,767.688 L388.408,767.304 L388.6,767.304 L388.28,767.688 Z M386.488,769.544 L386.168,769.992 L386.296,769.544 L386.488,769.544 Z M385.144,771.08 L384.76,771.528 L384.952,771.08 L385.144,771.08 Z M383.736,772.68 L383.672,772.68 L383.8,772.616 L383.736,772.68 Z M390.008,765.768 L390.392,765.256 L390.328,765.256 L390.008,765.768 Z M384.12,772.232 L383.8,772.616 L383.928,772.232 L384.12,772.232 Z M390.712,764.872 L390.52,764.872 L390.392,765.256 L390.712,764.872 Z M383.352,773.064 L383.48,772.68 L383.672,772.68 L383.352,773.064 Z M380.984,754.376 C380.152,754.184 379.96,753.608 380.216,752.712 C380.6,751.56 381.304,750.28 382.264,749 L383.416,747.336 C383.736,746.888 384.056,746.76 384.568,746.696 C385.272,746.696 385.592,747.144 385.976,747.4 C386.104,747.464 385.912,747.848 385.784,748.104 C385.528,748.488 385.08,748.872 384.824,749.32 C383.736,750.728 382.776,752.2 382.264,753.608 C381.944,754.376 381.688,754.504 380.984,754.376 Z M388.984,767.688 C389.176,767.304 389.496,766.92 389.88,766.728 L388.984,767.688 Z M385.784,769.096 L385.592,769.544 L385.144,769.736 L385.784,769.096 Z M382.008,775.408 C381.976,775.448 381.944,775.496 381.944,775.56 C381.944,775.528 381.976,775.48 382.008,775.432 L382.008,775.408 Z M382.008,775.408 C382.04,775.368 382.072,775.336 382.072,775.304 C382.072,775.336 382.04,775.384 382.008,775.432 L382.008,775.408 Z M384.76,770.12 C384.888,770.056 385.016,769.928 385.144,769.736 L384.76,770.12 Z M385.951299,768.904103 C385.910897,768.969103 385.830532,769.049468 385.784,769.096 L385.848,769.096 C385.848,769.049563 385.881694,769.003126 385.924634,768.932241 L385.951299,768.904103 Z M385.951299,768.904103 C385.966465,768.879703 385.976,768.857468 385.976,768.84 C385.958437,768.875126 385.940874,768.905432 385.924634,768.932241 L385.951299,768.904103 Z M387.319545,767.377422 C387.319846,767.374281 387.32,767.371141 387.32,767.368 C387.32,767.371483 387.31981,767.374777 387.319442,767.377902 L387.319545,767.377422 Z M387.319545,767.377422 C387.313719,767.438281 387.252859,767.499141 387.192,767.56 C386.936,767.752 386.744,768.008 386.552,768.2 L386.296,768.456 L386.488,768.2 L387.192,767.496 C387.252517,767.435483 387.313033,767.43219 387.319442,767.377902 L387.319545,767.377422 Z M381.944,775.56 L381.816,775.624 C381.88,775.624 381.944,775.56 381.944,775.56 Z M382.264,775.112 L382.072,775.304 L382.264,775.048 L382.264,775.112 Z M387.256,768.84 L387.384,768.392 C387.448,768.456 387.512,768.456 387.576,768.456 L387.256,768.84 Z M388.472,768.328 L388.344,768.456 C388.344,768.392 388.344,768.392 388.472,768.328 Z M388.472,768.328 L388.536,768.264 C388.536,768.2 388.536,768.2 388.6,768.136 L388.536,768.2 L388.472,768.328 Z M380.536,777.096 L380.472,777.16 L380.536,777.032 L380.536,777.096 Z M385.08,771.976 L385.4,771.528 L385.592,771.4 L385.464,771.528 C385.336,771.656 385.208,771.848 385.08,771.976 Z M384.792,772.392 L384.824,772.36 L384.792,772.392 Z M384.792,772.392 L384.696,772.488 L384.056,773.064 L383.672,773.576 L383.992,773.064 L384.76,772.424 L384.792,772.392 Z M380.536,777.032 L381.816,775.624 C381.304,775.944 380.856,776.456 380.536,777.032 Z M382.328,775.048 L383.288,774.024 C382.84,774.28 382.52,774.664 382.328,775.048 Z M387.128,769.736 L386.808,769.992 C386.936,769.928 387.064,769.8 387.128,769.736 Z M387.64,766.984 L387.896,766.6 L387.96,766.6 L387.96,766.664 L387.64,766.984 Z M389.944532,764.329122 C389.947179,764.277963 389.962979,764.226804 390.057311,764.175645 L390.008,764.232 C389.959142,764.280858 389.947583,764.292417 389.944848,764.323626 L389.944532,764.329122 Z M390.057311,764.175645 C390.062009,764.173097 390.066903,764.170548 390.072,764.168 L390.456,763.72 L390.057311,764.175645 Z M389.780794,764.558198 C389.730459,764.575743 389.688,764.627872 389.688,764.68 L389.304,765.128 L389.304,765.064 C389.432,764.936 389.56,764.808 389.688,764.616 C389.688,764.616 389.729954,764.574046 389.779895,764.558074 L389.780794,764.558198 Z M392.184,761.736 C392.376,761.544 392.504,761.288 392.696,761.544 L392.184,761.736 Z M384.128,770.832 C384.136,770.824 384.152,770.824 384.184,770.824 C384.152,770.824 384.136,770.84 384.128,770.856 L384.128,770.832 Z M384.128,770.832 C384.12,770.84 384.12,770.856 384.12,770.888 C384.12,770.888 384.12,770.872 384.128,770.856 L384.128,770.832 Z M380.984,774.408 L380.6,774.856 L380.536,774.92 L380.536,774.856 L380.984,774.408 Z M387.64,766.984 C387.64,766.984 387.576,767.048 387.576,767.112 L387.64,766.984 Z M384.184,770.824 L384.76,770.248 L384.632,770.632 L384.184,770.824 Z M392.568,763.528 L392.824,763.272 L392.76,763.272 L392.568,763.528 Z M377.4,779.784 L377.592,779.336 L377.848,779.336 C377.72,779.464 377.528,779.592 377.4,779.784 Z M383.927989,772.168 C383.906667,772.189333 383.885333,772.210667 383.864,772.232 L383.928,772.168 L383.927989,772.168 Z M383.928,772.168 L383.928,772.232 C383.736,772.36 383.608,772.488 383.48,772.68 L383.16,773.128 C382.84,773.448 382.52,773.832 382.136,774.216 L381.752,774.664 C381.112,775.048 380.728,775.624 380.408,776.2 L379.32,777.352 L379,777.736 L378.616,778.184 L378.808,778.184 C378.744,778.376 378.616,778.504 378.424,778.632 L378.552,778.248 L377.976,778.888 L378.168,778.888 L377.848,779.336 C377.912,779.144 377.848,779.016 377.912,778.888 L377.592,779.336 C377.4,779.528 377.144,779.784 376.888,779.976 L377.4,779.784 L377.272,780.168 C377.4,780.232 377.592,780.232 377.72,780.232 L376.76,781.256 L377.272,780.232 L376.76,780.424 L376.888,780.04 L376.568,780.424 L376.76,780.424 L376.12,781.128 L375.8,781.512 L375.928,781.128 L375.608,781.512 L375.8,781.512 L375.608,781.96 C375.736,781.96 375.864,781.96 375.992,782.024 L375.416,782.664 L375.608,782.024 L375.096,782.216 L375.224,781.768 L374.904,782.216 L375.096,782.216 C374.904,782.536 374.904,782.792 375.416,782.664 C374.136,784.136 372.664,785.352 371.128,786.504 C369.272,787.976 366.008,787.4 366.264,784.776 C366.392,783.624 366.584,782.472 366.904,781.256 C367.928,777.48 369.4,773.64 371.128,769.864 L375.928,759.88 C376.76,758.472 377.72,757.064 378.616,755.656 L378.936,755.464 C378.872,755.592 379,755.656 378.872,755.784 C378.68,756.296 378.36,756.808 378.04,757.32 L379.128,755.976 C379.256,755.784 379.448,755.528 379.64,755.656 C379.768,755.784 379.96,755.976 379.896,756.168 C379.896,756.424 379.64,756.744 379.512,757 C379.256,757.64 379,758.216 378.68,758.792 L379.896,757 L380.216,756.36 C380.344,756.232 380.536,756.168 380.664,756.104 C380.664,756.168 380.792,756.296 380.728,756.424 C380.664,756.68 380.536,756.936 380.408,757.192 C378.168,761.416 376.248,765.704 374.264,770.056 C372.408,774.088 370.744,778.12 369.4,782.216 C369.016,783.304 368.888,784.392 368.696,785.48 C368.568,786.12 368.888,786.184 369.528,785.8 C370.808,784.968 371.896,783.944 373.112,782.856 C373.368,782.536 373.752,782.28 374.008,782.024 C373.944,782.152 373.944,782.28 373.944,782.408 L374.264,781.96 L374.072,781.96 C374.584,781.384 375.16,780.808 375.736,780.232 L375.608,780.68 L376.248,779.976 L375.736,780.168 L376.76,779.144 L376.632,779.528 C376.888,779.336 377.08,779.08 377.272,778.888 L376.824,779.08 L377.784,777.992 L377.656,778.44 L378.68,777.288 C378.552,777.352 378.36,777.48 378.168,777.544 L379.128,776.456 L379,776.904 C379.384,776.52 379.768,776.136 380.088,775.752 L379.576,775.944 C379.896,775.624 380.216,775.24 380.536,774.92 L380.408,775.304 C380.792,774.92 381.112,774.536 381.496,774.216 L380.984,774.408 L381.944,773.32 L381.816,773.768 C382.456,773.384 382.904,772.808 383.224,772.168 C383.864,771.784 384.312,771.272 384.632,770.632 L385.656,769.544 C386.808,768.648 387.704,767.56 388.472,766.408 L388.408,766.408 L387.96,766.6 L389.304,765.128 L388.856,765.96 C389.752,765.32 390.328,764.424 390.968,763.528 L390.456,763.72 L391.8,762.248 L391.672,762.632 L392.696,761.544 C393.016,761.544 393.08,761.672 393.016,761.992 L392.696,762.376 L392.632,762.44 L392.568,762.44 L392.248,762.888 C391.928,763.208 391.608,763.592 391.224,763.976 L391.288,763.976 C391.096,764.104 390.968,764.296 390.84,764.424 L390.52,764.872 C389.752,765.448 389.24,766.152 388.728,766.856 L388.408,767.304 C388.024,767.688 387.704,768.072 387.32,768.392 L386.296,769.544 L385.912,769.992 L384.952,771.08 C384.649778,771.442667 384.290469,771.805333 383.927989,772.168 L383.928,772.168 Z M378.104,759.944 C377.592,760.328 377.592,760.84 377.4,761.288 C377.912,760.84 378.04,760.392 378.104,759.944 C378.488,759.624 378.616,759.24 378.68,758.856 C378.232,759.176 378.168,759.56 378.104,759.944 Z M377.4,761.352 C377.272,761.608 377.144,761.8 377.016,762.056 L377.08,762.12 C377.144,761.864 377.336,761.608 377.4,761.416 L377.4,761.352 Z M376.504,763.208 C376.44,763.272 376.376,763.336 376.376,763.4 C376.312,763.464 376.312,763.528 376.376,763.592 C376.376,763.528 376.44,763.464 376.568,763.4 L376.504,763.208 Z M375.864,764.552 C375.8,764.616 375.672,764.616 375.672,764.68 C375.672,764.744 375.608,764.872 375.608,765 L375.8,764.872 C375.864,764.744 375.864,764.68 375.864,764.552 Z M377.848,757.64 L377.784,757.768 L377.848,757.704 C377.976,757.64 377.976,757.576 377.976,757.512 L377.848,757.64 Z M375.028891,766.249799 C375.008958,766.355793 374.898104,766.413896 374.84,766.472 C374.776,766.664 374.776,766.856 374.712,767.048 C374.84,766.856 374.968,766.664 375.032,766.472 C375.093052,766.410948 375.095864,766.349896 375.040437,766.233288 L375.028891,766.249799 Z M377.272,758.664 L377.208,758.792 L377.272,758.792 L377.272,758.728 C377.336,758.664 377.272,758.664 377.272,758.664 Z M374.712,767.112 C374.328,767.432 374.072,767.752 374.328,768.328 L374.712,767.112 Z M376.638086,759.873912 C376.699994,759.811941 376.76,759.749971 376.76,759.688 L376.76,759.624 C376.696,759.688 376.632,759.752 376.632,759.816 C376.632,759.816 376.684959,759.816 376.646353,759.864174 L376.638086,759.873912 Z M373.56,769.352 C373.496,769.416 373.432,769.48 373.432,769.544 C373.432,769.608 373.496,769.672 373.496,769.736 C373.56,769.672 373.56,769.608 373.624,769.544 C373.624,769.48 373.56,769.416 373.56,769.352 Z M376.12,760.904 L376.056,760.968 L376.12,760.968 L376.12,760.904 Z M369.08,780.744 L369.4,779.912 L369.336,779.912 C369.208,780.168 369.08,780.424 369.08,780.68 L369.08,780.744 Z M370.68,776.52 L371,775.432 L370.936,775.432 L370.616,776.52 L370.68,776.52 Z M374.84,763.592 L374.84,763.464 C374.84,763.464 374.776,763.464 374.776,763.528 L374.776,763.592 L374.84,763.592 Z M371.704,773.704 L372.024,773.384 C372.024,773.256 371.96,773.128 372.024,773 C371.896,773.064 371.832,773.192 371.768,773.32 C371.768,773.448 371.704,773.576 371.704,773.704 Z M372.600852,771.774426 C372.612056,771.707944 372.73105,771.58895 372.792,771.528 L372.792,771.144 C372.728,771.208 372.6,771.336 372.6,771.4 C372.540576,771.518849 372.591503,771.637697 372.599089,771.756546 L372.600852,771.774426 Z M383.672,771.4 L383.736,771.336 C383.736,771.336 383.672,771.336 383.672,771.4 Z M383.352,773.128 L383.032,773.512 L383.16,773.128 L383.352,773.128 Z M393.208,761.992 L393.016,761.992 L392.888,762.376 L393.208,761.992 Z M392.44,762.888 L392.504,762.888 L392.504,762.824 L392.44,762.824 L392.44,762.888 Z M378.808,778.184 L379,777.736 C379.064,777.736 379.128,777.736 379.128,777.8 L379,778.184 L378.808,778.184 Z M379.128,777.8 L379.192,777.736 L379.256,777.736 L379.192,777.8 L379.128,777.8 Z M392.824,763.272 C393.016,762.76 393.336,762.44 393.784,762.12 C393.656,762.568 393.272,762.952 392.824,763.272 Z M379.576,777.352 L379.256,777.736 L379.384,777.352 L379.576,777.352 Z M380.001967,776.907529 C380.016656,776.883361 380.024,776.86168 380.024,776.84 C380.024,776.859751 380.01181,776.885596 379.994953,776.913775 L380.001967,776.907529 Z M380.001967,776.907529 C379.973295,776.954705 379.916639,777.011361 379.832,777.096 L379.576,777.288 L379.576,777.352 C379.64,777.224 379.768,777.16 379.896,777.096 C379.896,777.051751 379.957188,776.976907 379.994953,776.913775 L380.001967,776.907529 Z M379.384,777.288 L379.384,777.352 L379.32,777.352 L379.384,777.288 Z M377.72,780.232 L377.848,780.104 C377.848,780.104 377.72,780.168 377.72,780.232 Z M379.064,778.184 L380.088,777.608 L378.808,779.08 L379.064,778.184 Z M382.392,774.216 C382.2,774.344 382.072,774.472 382.008,774.6 L382.136,774.216 L382.392,774.216 Z M381.944,774.664 L381.624,775.048 L381.752,774.664 L381.944,774.664 Z M382.776,772.424 L383.672,771.4 L383.224,772.168 L382.776,772.424 Z M380.6,776.2 L380.28,776.584 L380.408,776.2 L380.6,776.2 Z M380.324564,777.324971 C380.267043,777.428957 380.209521,777.486479 380.152,777.544 L380.088,777.608 L380.216,777.544 C380.216,777.487074 380.266635,777.430147 380.322866,777.328183 L380.324564,777.324971 Z M380.324564,777.324971 C380.331043,777.313259 380.337521,777.300957 380.344,777.288 C380.336926,777.302147 380.329853,777.315513 380.322866,777.328183 L380.324564,777.324971 Z M379.255964,776.279836 C379.255565,776.338558 379.250721,776.397279 379.192,776.456 L379.128,776.456 L379.192,776.392 C379.249983,776.334017 379.255434,776.328566 379.255947,776.280461 L379.255964,776.279836 Z M379.255964,776.279836 C379.256,776.274558 379.256,776.269279 379.256,776.264 C379.256,776.270017 379.256,776.275469 379.255947,776.280461 L379.255964,776.279836 Z M379.576,776.008 C379.512,776.008 379.448,776.072 379.448,776.072 L379.576,775.944 L379.576,776.008 Z M382.088,773.216 C382.12,773.176 382.136,773.128 382.136,773.064 C382.104,773.128 382.072,773.176 382.04,773.216 L382.088,773.216 Z M382.088,773.216 C382.056,773.256 382.008,773.288 381.944,773.32 C381.976,773.288 382.008,773.256 382.04,773.216 L382.088,773.216 Z M379.256,776.264 C379.384,776.2 379.384,776.2 379.384,776.136 C379.384,776.2 379.32,776.264 379.256,776.264 Z M374.008,781.96 L374.072,781.96 L374.008,782.024 L374.008,781.96 Z M377.949299,779.952052 L377.848,780.104 C377.874043,780.051913 377.910685,779.999826 377.949299,779.952052 Z M377.949299,779.952052 L378.104,779.72 C378.36,779.528 378.552,779.272 378.744,779.08 L378.808,779.08 L378.104,779.784 C378.066043,779.821957 378.005576,779.882424 377.949299,779.952052 Z M376.538592,781.458709 C376.341785,781.626786 376.223143,781.801142 376.056,782.024 L375.992,782.024 C376.056,782.024 376.056,781.96 376.056,781.96 C376.222965,781.793035 376.341532,781.626071 376.537962,781.459106 L376.538592,781.458709 Z M376.538592,781.458709 C376.567861,781.433713 376.598858,781.408857 376.632,781.384 C376.59862,781.409035 376.567416,781.434071 376.537962,781.459106 L376.538592,781.458709 Z M428.536,765.704 C429.304,765.896 430.328,765 429.688,765.832 L420.28,776.456 C418.424,778.632 416.312,779.976 414.392,782.216 C413.048,783.752 411.384,785.096 409.72,786.504 C408.248,787.592 406.776,788.04 405.304,787.976 C404.216,787.976 404.856,787.144 404.92,786.056 C404.92,785.544 403.832,785.416 404.024,784.904 C404.6,782.344 405.496,779.784 406.776,777.288 C409.912,770.376 406.84,776.52 410.744,769.8 C412.408,767.112 414.008,764.488 415.224,761.736 C415.736,760.648 416.12,759.624 416.376,758.6 C416.76,757.448 416.44,757.192 415.224,757.704 C414.456,758.024 413.688,758.28 413.048,758.792 C411.448,759.816 409.784,760.84 408.248,761.992 C402.296,766.536 395.384,771.656 390.456,777.096 C389.176,778.504 387.896,779.912 386.488,781.32 C385.528,782.472 383.608,782.856 382.712,782.216 C382.328,781.896 382.52,781.32 382.648,780.872 C382.968,780.04 383.352,779.208 383.672,778.44 C385.016,775.368 386.232,772.296 387.64,769.224 C389.048,766.088 390.456,763.08 392.184,760.008 C392.632,759.304 393.08,758.6 393.592,757.96 C394.424,756.744 395.448,756.744 395.896,757.832 L396.536,757.64 C396.536,757.832 396.536,758.088 396.472,758.28 C395.64,759.944 394.68,761.544 393.976,763.272 C392.376,766.536 390.904,769.8 389.304,773.192 C388.984,773.832 388.728,774.536 388.536,775.24 C388.408,775.304 388.536,775.368 388.536,775.368 C388.6,775.432 388.728,775.368 388.728,775.368 L389.496,774.664 C395.192,768.392 402.296,763.784 409.336,758.856 C411.064,757.576 413.112,756.808 415.032,756.36 C416.12,756.104 417.144,756.104 417.976,756.424 C419.192,756.936 419.512,757.768 419.064,759.304 C418.616,761.224 417.72,763.144 416.76,764.936 C414.52,768.84 415.416,767.112 413.176,770.952 C410.296,775.816 411.384,773.448 409.016,778.44 C407.992,780.616 407.16,782.856 406.648,785.096 C406.52,785.544 406.52,785.992 406.52,786.376 C406.52,786.696 406.776,786.76 407.032,786.568 C407.352,786.312 407.864,786.056 408.184,785.672 C415.8,779.4 420.984,773.704 427.576,765.32 C428.408,764.552 427.704,765.512 428.536,765.704 Z M383.416,780.936 C383.48,780.872 383.544,780.808 383.544,780.68 L383.416,780.552 L383.288,780.936 L383.416,780.936 Z M384.312,778.952 L384.312,778.632 C384.248,778.696 384.184,778.76 384.12,778.888 C384.12,778.952 384.184,779.016 384.12,779.144 L384.312,778.952 Z M385.077079,776.866987 C385.063871,776.935242 385.007935,777.040065 384.952,777.096 C384.888,777.096 384.952,777.16 384.952,777.16 C385.016,777.16 385.016,777.16 385.08,777.096 C385.141312,777.034688 385.085151,776.91464 385.080325,776.848394 L385.077079,776.866987 Z M385.912,774.984 C385.912,774.92 385.848,774.92 385.784,774.92 L385.784,774.984 C385.784,775.112 385.784,775.176 385.848,775.24 L385.912,774.984 Z M386.48823,773.447539 C386.488153,773.447693 386.488077,773.447846 386.488,773.448 C386.490878,773.445122 386.493757,773.442373 386.496641,773.439742 L386.48823,773.447539 Z M392.824,761.736 L392.888,761.608 L392.888,761.736 L392.824,761.736 Z M393.4,759.304 L393.464,759.24 L393.4,759.112 L393.4,759.304 Z M392.248,762.824 L392.312,762.888 C392.312,762.824 392.376,762.824 392.376,762.824 C392.376,762.76 392.376,762.696 392.312,762.696 L392.248,762.824 Z M391.728081,763.920682 C391.73047,763.917792 391.733104,763.914896 391.736,763.912 C391.735035,763.912965 391.734069,763.913916 391.733104,763.914852 L391.728081,763.920682 Z M392.376,760.904 L392.44,760.968 L392.44,760.904 L392.376,760.904 Z M390.968,765.256 C390.968,765.32 390.904,765.384 390.904,765.384 C390.904,765.448 390.904,765.576 390.968,765.576 C390.968,765.448 391.032,765.448 391.096,765.384 C391.096,765.32 391.032,765.256 390.968,765.256 Z M391.739425,762.180444 C391.738326,762.18163 391.737185,762.182815 391.736,762.184 C391.739556,762.180444 391.743111,762.177086 391.746656,762.173915 L391.739425,762.180444 Z M390.136,767.048 L390.136,767.24 L390.392,767.112 L390.392,766.92 L390.136,767.048 Z M391.032,763.336 L391.288,763.208 L391.352,763.272 L391.096,763.4 L391.032,763.336 Z M389.56,768.904 L389.56,768.712 C389.496,768.776 389.432,768.84 389.432,768.904 C389.304,768.904 389.432,768.968 389.304,769.032 L389.56,768.904 Z M390.584,764.424 C390.648,764.488 390.648,764.488 390.648,764.552 C390.584,764.616 390.52,764.616 390.52,764.616 C390.584,764.552 390.52,764.552 390.52,764.488 C390.52,764.424 390.584,764.424 390.584,764.424 Z M388.718519,770.408296 C388.688889,770.463111 388.6,770.525333 388.6,770.632 L388.6,770.696 C388.664,770.696 388.728,770.632 388.728,770.632 C388.728,770.511111 388.785086,770.447309 388.737514,770.386678 L388.718519,770.408296 Z M385.528,777.864 L385.464,777.864 L385.464,777.928 L385.528,777.864 Z M387.64,771.272 L387.512,771.016 C387.512,771.08 387.384,771.144 387.384,771.336 C387.32,771.4 387.384,771.464 387.384,771.464 L387.64,771.272 Z M388.215942,769.729344 C388.21598,769.731543 388.216,769.733762 388.216,769.736 C388.216,769.729285 388.217409,769.72257 388.220005,769.715782 L388.215942,769.729344 Z M388.34404,769.229503 C388.344013,769.227682 388.344,769.225848 388.344,769.224 C388.343991,769.224017 388.343983,769.224035 388.343974,769.224052 L388.34404,769.229503 Z M386.232,776.008 C386.296,775.944 386.36,775.944 386.36,775.944 L386.296,775.88 C386.232,775.88 386.232,775.944 386.232,775.944 L386.232,776.008 Z M387.063654,774.093821 C387.056356,774.155881 386.936,774.21794 386.936,774.28 L387,774.344 L387.128,774.216 C387.064218,774.216 387.127566,774.152434 387.064648,774.088653 L387.063654,774.093821 Z M389.048,767.944 C389.048,767.88 389.112,767.816 389.176,767.752 C389.176,767.688 389.176,767.624 389.112,767.496 C389.112,767.56 388.984,767.688 388.984,767.752 C388.984,767.816 388.984,767.88 389.048,767.944 Z M389.944,765.768 L389.752,765.96 L389.752,766.344 L390.008,766.088 L389.944,765.768 Z M387.896,772.232 L387.832,772.424 L387.896,772.424 C387.896,772.36 387.96,772.296 388.024,772.232 L387.896,772.232 Z M389.944,769.992 C391.608,766.344 393.208,762.76 395.256,759.304 C395.512,758.856 395.64,758.344 395.896,757.96 C395.512,758.28 395.256,758.664 395,759.048 C394.36,760.008 393.784,760.904 393.4,761.928 C392.312,764.04 391.288,766.216 390.2,768.328 L386.232,777.352 L386.232,777.8 L386.616,777.352 L386.744,777.16 C387.832,774.728 388.92,772.296 389.944,769.992 Z M413.432,769.16 C413.496,769.032 413.624,768.84 413.752,768.584 L413.368,769.16 L413.368,769.352 C413.368,769.352 413.368,769.224 413.432,769.16 Z M417.272,760.264 C417.272,760.2 417.336,760.2 417.336,760.136 L417.4,760.072 C417.336,760.072 417.272,760.136 417.272,760.136 L417.272,760.264 Z M416.44,762.056 C416.504,762.056 416.504,762.056 416.632,761.992 L416.504,761.992 L416.44,762.056 Z M415.864,764.488 C415.224,765.704 414.648,766.92 414.008,768.2 C414.2,767.88 414.456,767.624 414.648,767.304 C415.928,765.192 417.016,763.016 418.04,760.712 C418.232,760.264 418.296,759.88 418.424,759.432 C418.104,759.56 418.04,759.688 417.912,759.944 C417.272,761.416 416.504,763.016 415.864,764.488 Z M416.888,759.24 C416.824,759.368 416.696,759.496 416.632,759.688 C416.632,759.816 416.632,759.944 416.696,760.008 L416.952,759.56 L416.888,759.24 Z M415.992,761.48 C415.928,761.544 415.864,761.608 415.8,761.736 C415.8,761.8 415.864,761.864 415.8,761.928 L415.992,761.736 C416.056,761.608 415.992,761.544 415.992,761.48 Z M415.224,763.016 C415.224,763.08 415.16,763.144 415.096,763.208 C415.096,763.272 415.096,763.272 415.16,763.336 C415.16,763.336 415.224,763.272 415.224,763.208 C415.288,763.144 415.288,763.08 415.224,763.016 Z M414.52,764.424 L414.584,764.424 L414.52,764.36 L414.52,764.424 Z M414.008,765.448 L414.072,765.384 L414.072,765.32 L414.008,765.448 Z M415.352,765.704 L415.352,765.768 L415.288,765.832 L415.224,765.768 L415.352,765.704 Z M405.624,781.576 L404.408,785.544 L404.408,784.648 C404.728,783.624 405.048,782.6 405.624,781.576 Z M404.408,786.056 C404.344,785.992 404.28,785.928 404.344,785.736 L404.408,785.608 C404.472,785.608 404.472,785.672 404.472,785.736 L404.408,786.056 Z M405.304,784.456 C405.368,784.456 405.432,784.392 405.432,784.392 L405.432,784.2 C405.432,784.264 405.304,784.328 405.304,784.392 L405.304,784.456 Z M407.224,781.128 C407.288,781 407.288,780.872 407.288,780.616 C407.288,780.616 407.352,780.552 407.288,780.552 L407.032,780.68 L405.816,784.776 C405.752,785.096 405.752,785.48 405.816,785.736 L407.224,781.128 Z M407.99206,778.95197 C408.12,778.888 408.12001,778.888 408.184,778.888 C408.12,778.76 408.12,778.696 408.12,778.632 C408.056,778.696 408.056,778.76 408.056,778.76 C407.992812,778.886375 408.054396,778.887979 407.994376,778.949593 L407.99206,778.95197 Z M408.76,777.16 C408.824,777.16 408.952,777.096 408.952,777.096 L408.952,776.84 C408.888,776.904 408.824,777.032 408.824,777.032 L408.76,777.16 Z M410.168,774.216 L410.168,774.28 C410.296,774.28 410.36,774.216 410.36,774.216 C410.36,774.152 410.296,774.152 410.296,774.152 L410.168,774.216 Z M409.528,775.56 C409.528,775.560001 409.528001,775.624 409.592,775.624 L409.656,775.496 C409.592015,775.496 409.528029,775.559971 409.528,775.56 Z M457.656,769.736 C457.656,770.632 459,770.184 457.336,771.08 C456.056,771.784 454.84,772.424 453.624,773.064 C450.872,774.472 448.12,776.136 445.496,777.8 C444.408,778.44 443.768,779.208 443.256,780.296 C440.952,785.224 437.944,790.024 434.488,794.696 C432.568,797.256 430.584,799.816 428.28,802.248 C426.488,804.104 424.568,805.704 422.392,807.112 C420.152,808.52 417.08,808.264 415.864,807.24 C415.224,806.664 415.032,805.896 415.288,804.936 C415.544,803.72 416.12,802.504 416.888,801.288 C418.68,798.216 421.112,795.4 423.736,792.776 C427.192,789.32 431.032,786.248 434.872,783.304 C436.6,781.96 438.328,780.68 440.12,779.4 C440.76,779.016 441.144,778.568 441.4,777.928 C442.296,775.944 443.128,774.024 443.704,772.04 C443.768,771.912 443.832,771.72 443.768,771.592 C443.832,771.336 443.64,771.336 443.448,771.528 C443.192,771.72 443,771.912 442.808,772.104 C441.336,773.448 439.992,774.856 438.52,776.2 C436.6,777.992 434.488,779.592 432.184,780.936 C430.072,782.152 428.024,782.6 426.168,781.896 C425.912,781.768 425.592,781.704 425.272,781.64 C422.584,780.552 421.816,777.864 422.52,774.792 C422.904,773.192 423.8,771.784 424.888,770.312 C427.832,766.408 431.352,763.528 435.896,762.056 C438.008,761.352 440.12,761.096 442.04,761.288 C443.32,761.416 444.216,761.928 444.856,762.888 C444.92,762.952 444.856,763.08 444.856,763.144 C444.792,763.144 444.728,763.208 444.664,763.208 L444.152,763.016 C443.384,762.696 442.552,762.632 441.592,762.76 C438.52,763.208 435.448,764.296 432.632,766.408 C429.496,768.712 427.192,771.528 425.592,774.792 C424.888,776.456 424.76,778.056 425.272,779.528 C425.528,780.232 426.168,780.616 427.128,780.424 C427.832,780.296 428.536,780.04 429.24,779.784 C430.776,779.08 432.248,778.056 433.72,777.032 C436.984,774.6 439.864,771.848 442.488,768.904 C443.064,768.2 443.64,767.624 444.28,766.984 C444.792,766.344 445.304,766.216 445.88,766.408 C446.776,766.728 447.352,767.304 447.288,768.456 C447.16,769.864 446.712,771.336 446.2,772.744 L445.496,774.984 C445.432,775.24 445.496,775.432 445.432,775.688 C445.688,775.624 445.944,775.56 446.136,775.432 L451.576,772.168 L455.48,769.8 C456.632,769.16 456.952,769.16 457.656,769.736 Z M426.168,769.736 L426.104,769.736 L426.296,769.544 C426.232,769.608 426.168,769.672 426.168,769.736 Z M429.239984,767.368 C429.239995,767.368003 429.24,767.368 429.24,767.368 C429.24,767.368 429.239995,767.368003 429.239984,767.368 Z M429.239984,767.368008 C429.238333,767.368832 429.111583,767.432 429.048,767.432 C429.004029,767.519941 428.960059,767.577673 428.936843,767.62595 C428.976723,767.593865 429.063068,767.544932 429.112,767.496 C429.112,767.432418 429.238332,767.368837 429.239984,767.368008 Z M428.6,766.984 C428.472,767.048 428.472,767.112 428.472,767.176 L428.536,767.048 C428.664,766.984 428.728,766.856 428.92,766.792 L429.24,766.536 L429.176,766.536 C429.048,766.664 428.984,766.728 428.856,766.792 L428.6,766.984 Z M428.728,767.88 C428.664,767.944 428.536,768.072 428.408,768.136 L428.088,768.584 L428.472,768.136 L428.728,767.88 Z M428.08,767.584 C428.024,767.624 427.96,767.656 427.896,767.688 C427.928,767.656 427.976,767.608 428.032,767.56 L428.08,767.584 Z M428.08,767.584 C428.136,767.544 428.184,767.496 428.216,767.432 C428.152,767.464 428.088,767.512 428.032,767.56 L428.08,767.584 Z M427.512,770.056 L426.424,771.592 L427.64,770.184 L430.648,767.048 L430.904,766.856 C430.968,766.728 431.032,766.664 431.16,766.6 L431.224,766.6 L431.16,766.536 L431.16,766.6 L430.84,766.728 L430.52,766.92 C429.24,767.816 428.344,768.904 427.512,770.056 Z M444.088,767.88 L443.96,768.008 C443.96,768.008 444.024,768.008 444.088,767.944 L444.088,767.88 Z M437.048,776.584 L437.24,776.456 C437.176,776.456 437.048,776.52 437.048,776.584 Z M438.648,775.24 L438.904,774.92 L438.584,775.24 L438.264,775.496 C438.392,775.432 438.456,775.304 438.648,775.24 Z M439.384,774.448 C439.336,774.488 439.288,774.536 439.224,774.6 C439.288,774.568 439.352,774.52 439.408,774.472 L439.384,774.448 Z M440.072,773.792 C440.04,773.816 440.024,773.832 439.992,773.832 C440.024,773.832 440.056,773.816 440.096,773.792 L440.072,773.792 Z M441.528,772.36 L441.592,772.296 L441.464,772.36 L441.464,772.424 C441.208,772.616 441.016,772.808 440.824,773 L440.44,773.512 L440.888,773.064 L441.464,772.424 C441.464,772.424 441.464,772.36 441.528,772.36 Z M442.36,769.928 L442.36,769.864 L442.36,769.928 Z M443.512,770.376 C443.768,770.184 444.024,769.928 444.216,769.736 C444.216,769.672 444.152,769.672 444.088,769.608 L442.808,771.016 L442.168,771.656 C441.976,771.848 441.784,772.04 441.656,772.232 L442.232,771.72 C442.488,771.528 442.68,771.272 442.872,771.08 L443.512,770.376 Z M438.30834,786.531788 C438.354573,786.500457 438.392,786.488942 438.392,786.44 L438.392,786.376 C438.392,786.424942 438.354573,786.473885 438.30834,786.522827 L438.30834,786.531788 Z M438.904,784.008 L438.904,784.072 L438.968,784.072 L438.968,784.008 L438.904,784.008 Z M438.2,786.696 L438.072,786.76 L438.072,786.824 C438.072,786.76 438.136,786.76 438.2,786.696 Z M438.368,784.96 C438.376,784.968 438.392,784.968 438.392,784.968 C438.392,784.968 438.392068,784.968 438.392203,784.967998 L438.368,784.96 Z M437.368,788.04 L437.24,788.104 C437.304,788.104 437.304,788.104 437.368,788.04 L437.432,787.976 L437.496,787.848 C437.432,787.912 437.368,787.976 437.368,788.04 Z M424.76,793.672 L424.568,793.928 L424.824,793.736 L424.76,793.672 Z M423.096,795.464 L422.904,795.72 L423.096,795.528 C423.16,795.4 423.352,795.336 423.416,795.272 L423.096,795.464 Z M422.328,796.424 L422.136,796.616 L422.392,796.424 L422.776,795.912 L422.328,796.424 Z M419.512,798.088 L419.768,797.896 L419.768,797.832 L419.512,798.088 Z M417.016,802.184 L417.144,801.736 L416.824,802.12 C416.76,802.184 416.824,802.248 416.76,802.312 L417.016,802.184 Z M418.423785,799.679164 C418.310825,799.833341 418.175412,800.000588 418.04,800.136 L417.656,800.84 C417.848,800.584 417.976,800.392 418.104,800.136 L418.423785,799.679164 Z M418.423785,799.679164 L418.552,799.496 L418.616,799.432 C418.552,799.432 418.552,799.496 418.552,799.496 C418.514275,799.552588 418.470991,799.614735 418.423785,799.679164 Z M417.464,804.104 L417.848,802.888 C417.592,803.144 417.4,803.464 417.464,804.104 Z M420.28,798.984 L420.92,798.28 C420.984,798.216 420.92,798.152 420.984,798.088 L420.728,798.216 L420.28,798.984 Z M420.28,798.984 C420.28,798.984 420.216,798.984 420.216,799.048 C419.832,799.368 419.576,799.688 419.384,800.136 C418.936,800.584 418.552,801.096 418.488,801.672 C418.04,802.056 417.976,802.44 417.912,802.824 C418.168,802.44 418.296,802.12 418.488,801.736 C419,801.224 419.32,800.712 419.448,800.136 C419.896,799.88 420.152,799.496 420.216,799.048 L420.28,799.048 L420.28,798.984 Z M427.832,799.048 C431.8,794.312 435.192,789.32 438.264,784.136 L438.712,783.24 C438.776,783.112 438.776,782.92 438.84,782.728 L438.264,782.92 L437.432,783.56 L430.328,789.32 C427.128,792.072 424.248,794.952 421.688,798.216 C420.088,800.136 418.808,802.184 417.912,804.36 C417.848,804.872 417.72,805.384 417.656,805.896 C417.656,806.856 417.976,806.984 419.064,806.536 C420.344,805.96 421.56,805.192 422.52,804.296 C424.504,802.696 426.232,800.968 427.832,799.048 Z M436.856,788.744 L436.792,788.808 L436.856,788.808 L436.856,788.744 Z M436.408,789.512 C436.216,789.704 436.088,789.896 435.96,790.088 L436.408,789.512 Z M436.664,787.72 L436.728,787.72 L436.792,787.656 L436.664,787.72 Z M436.92,787.336 L437.24,787.016 L437.624,786.312 L437.176,787.016 C437.112,787.08 437.048,787.208 436.92,787.336 Z M436.408,788.168 L436.28,788.36 C436.216,788.424 436.152,788.552 436.088,788.68 L436.344,788.36 C436.344,788.296 436.408,788.232 436.408,788.168 Z M435.768,789.256 C435.64,789.384 435.512,789.512 435.448,789.704 C435.32,789.832 435.128,790.088 435,790.28 L435.448,789.704 C435.512,789.576 435.64,789.448 435.768,789.256 Z M434.36,791.304 C434.296,791.4 434.232,791.496 434.168,791.56 L434.36,791.304 Z M434.36,791.304 L434.552,791.048 C434.488,791.112 434.424,791.208 434.36,791.304 Z M431.096,797.896 L431.736,797.064 C431.48,797.32 431.224,797.576 431.096,797.896 Z M440.312,784.584 L440.888,783.304 C440.568,783.688 440.248,784.072 440.056,784.456 C437.816,788.168 435.512,791.752 432.952,795.272 C432.76,795.528 432.568,795.848 432.44,796.104 C432.312,796.232 432.184,796.424 432.184,796.552 L432.44,796.168 C432.76,795.912 432.952,795.72 433.144,795.4 C435.768,791.88 438.264,788.296 440.312,784.584 Z M441.72,781.896 C441.784,781.896 441.72,781.832 441.72,781.768 C441.656,781.768 441.528,781.832 441.528,781.832 L440.888,783.176 L441.72,781.896 Z M442.296,780.488 L442.36,780.488 L442.296,780.424 L442.296,780.488 Z" id="Catering"></path>
        </g>
    </g>
</svg>