<?xml version="1.0" encoding="UTF-8" standalone="no"?>
<svg width="150px" height="150px" viewBox="0 0 150 150" version="1.1" xmlns="http://www.w3.org/2000/svg" xmlns:xlink="http://www.w3.org/1999/xlink">
    <!-- Generator: Sketch 50.2 (55047) - http://www.bohemiancoding.com/sketch -->
    <title>class-ban</title>
    <desc>Created with Sketch.</desc>
    <defs></defs>
    <g id="Page-1" stroke="none" stroke-width="1" fill="none" fill-rule="evenodd">
        <g id="Fonts-and-colors" transform="translate(-350.000000, -430.000000)">
            <g id="class-ban" transform="translate(350.000000, 430.000000)">
                <g id="Group-6-Copy-4">
                    <path d="M146.424801,74.8330158 C146.023665,114.279444 113.720442,145.932613 74.2743613,145.531952 C34.827334,145.130818 3.17406409,112.827698 3.57519945,73.3812699 C3.97586178,33.9348414 36.2795575,2.28167241 75.7256387,2.68233346 C115.172666,3.08346754 146.825936,35.3865873 146.424801,74.8330158" id="Fill-1293" fill="#FFFFFE"></path>
                    <polyline id="Fill-1294" fill="#B684AC" points="147.966545 75.2949758 146.268808 74.5293634 142.257762 83.4198315 143.713954 92.2342172 138.195642 99.2577402 137.485369 108.162041 130.437975 113.653276 127.616038 122.131409 119.462002 125.783896 114.703441 133.345849 105.914682 134.948899 99.4855179 141.150413 90.5701334 140.59283 82.8364085 145.063071 74.3104769 142.382629 65.7329375 144.889092 58.0901913 140.262431 49.1657622 140.638586 42.8632233 134.308318 34.1095788 132.527032 29.5053098 124.868779 21.4268233 121.050826 18.7783311 112.517892 11.8442614 106.884602 11.3154142 97.9675316 5.94075209 90.8338754 7.57624125 82.0503483 4.06744132 73.8329168 7.74223754 65.6873114 6.28604567 56.8729257 11.8048905 49.8494027 12.5151631 40.9451014 19.5620252 35.4538673 22.3834302 26.9757339 30.5379983 23.3232466 35.2976228 15.7612943 44.0853178 14.1577113 50.5144821 7.95672953 59.4298666 8.51431245 67.1635915 4.04407229 75.6895231 6.72451384 84.2670625 4.21805093 91.9098087 8.84471225 100.834238 8.46802456 107.136245 14.7988253 115.890421 16.5801112 120.49469 24.2378315 128.573177 28.0563168 131.221669 36.5892509 138.155739 42.2225409 138.684054 51.1396112 144.059248 58.2732675 142.423759 67.0562626 146.25391 76.0265374 147.966545 75.2949758 146.268808 74.5293634 147.966545 75.2949758 149.678648 74.5634143 146.291153 66.6306267 148.020813 57.3421891 142.33544 49.7967302 141.776267 40.3657046 134.444764 34.4089314 131.644108 25.3886444 123.105408 21.3525527 118.238311 13.2574916 108.981889 11.373521 102.3165 4.67773762 92.8765243 5.07623915 84.7948456 0.183555446 75.728894 2.8331384 66.7182745 0 58.5397646 4.72721778 49.1098981 4.13718013 42.3099023 10.6962281 33.017834 12.3913227 27.9863372 20.3852954 19.3667667 24.2463442 16.3841537 33.2086384 8.93294175 39.014843 8.1817021 48.4325674 2.34416566 55.8615086 3.88388772 65.1829329 0 73.7914173 3.70884675 82.4765161 1.97865458 91.7649537 7.66455979 99.3104126 8.22373321 108.741438 15.5552363 114.698211 18.3553598 123.718498 26.8940603 127.754058 31.7616889 135.849651 41.0181106 137.733622 47.6840324 144.428873 57.1234757 144.030904 65.2051544 148.923587 74.271106 146.274004 83.2817255 149.107143 91.4602354 144.379925 100.890102 144.969963 107.690098 138.410915 116.98323 136.71582 122.013663 128.721848 130.632701 124.860799 133.615846 115.898504 141.06759 110.0923 141.818298 100.674575 147.655834 93.2451023 146.116112 83.9242099 150 75.3157256 149.678648 74.5634143 147.966545 75.2949758"></polyline>
                    <polyline id="Fill-1295" fill="#B684AC" points="143.760433 75.2426668 143.039032 74.8995752 139.17876 82.894988 140.769256 91.2424934 135.32862 97.7988272 134.847152 106.280287 127.978109 111.345125 125.465733 119.46655 117.578303 122.758747 113.190711 130.052622 104.741835 131.382103 98.7242908 137.420622 90.2007692 136.692611 82.8955791 141.114152 74.7938081 138.377361 66.6381853 140.950019 59.4247033 136.382346 50.8878521 136.937752 44.9950734 130.779574 36.5739236 129.279607 32.3366894 121.897312 24.5185737 118.446805 22.1725525 110.276669 15.4090801 105.074701 15.1008982 96.5858287 9.79622432 89.9214845 11.557873 81.6073353 8.01538096 73.8734769 11.715163 66.2116254 10.1241341 57.86412 15.5647705 51.3083156 16.0467713 42.8268562 22.9158147 37.7620182 25.4281901 29.6405933 33.3150869 26.3483956 37.7032129 19.0545205 46.1520884 17.7250402 52.1696327 11.6865207 60.6931543 12.4145316 67.9988776 7.99299047 76.1001154 10.729782 84.2557382 8.15712384 91.4692202 12.7247966 100.006071 12.1693905 105.898317 18.3275685 114.32 19.8275357 118.557234 27.2087721 126.374817 30.660338 128.721371 38.8304735 135.48431 44.0324423 135.792492 52.5213142 141.097699 59.1856583 139.336051 67.4998076 143.0321 75.571463 143.760433 75.2426668 143.039032 74.8995752 143.760433 75.2426668 144.488233 74.9138706 141.009723 67.3166136 142.817226 58.7843258 137.371791 51.9442001 137.056144 43.231895 130.115654 37.8938543 127.708316 29.5103455 119.686523 25.9693005 115.33892 18.3953397 106.697031 16.8561923 100.649095 10.5359987 91.8877717 11.1057004 84.4844753 6.41836907 76.1171774 9.05773951 67.8053309 6.25 60.3081936 10.786964 51.5602004 10.0404219 45.3837664 16.2377801 36.7136185 17.6016755 32.2113905 25.086157 24.1186838 28.4641276 21.5407264 36.7973375 14.491999 41.9950707 13.9972018 50.6994338 8.41313819 57.4283724 10.0457557 65.9950752 6.25 73.8554752 9.88420012 81.7899998 8.07669742 90.3228171 13.5210662 97.1624133 13.837779 105.875248 20.7782695 111.213289 23.185074 119.596268 31.2074001 123.137313 35.5550039 130.711803 44.196893 132.250951 50.244829 138.571144 59.0061518 138.001442 66.4094483 142.688774 74.7767462 140.049403 83.0891258 142.857143 90.5857299 138.319649 99.3337231 139.066721 105.509624 132.869363 114.180305 131.504938 118.682533 124.020986 126.77524 120.643015 129.353197 112.309805 136.401924 107.112072 136.896188 98.4077091 142.480785 91.6787705 140.848168 83.1115382 144.642857 75.2516677 144.488233 74.9138706 143.760433 75.2426668"></polyline>
                </g>
                <g id="Group-7" transform="translate(37.000000, 25.000000)" fill="#B684AC">
                    <path d="M31.3889795,5.86116932 C33.7258724,5.73195214 35.7750368,6.74407332 37.1718887,8.60691431 C39.8531911,12.1822432 40.0650245,17.6737332 40.0981686,21.9623985 C40.1341947,26.5839543 39.6024494,31.2232834 38.9405299,35.791519 C38.7186092,37.3262732 38.2704445,38.9023385 37.8727164,40.4904129 C38.3300077,33.442072 38.1599645,26.2395352 36.8659071,19.3905443 C36.4388777,17.1304446 35.869185,14.8967647 35.1155191,12.72313 C34.5847346,11.1931794 34.0001511,9.63680886 32.7541285,8.53822265 C31.4624728,7.39976645 29.6333077,6.79499162 27.8838804,6.90739615 C28.9613009,6.35257889 30.0694637,5.93418423 31.3889795,5.86116932 Z M27.6441868,7.66012226 C30.5964054,7.43195066 33.0082325,9.10120605 34.1740371,12.2629439 C35.5425484,15.9761365 36.3408867,19.9074131 36.7904924,23.8305235 C37.3745956,28.9271565 37.2434606,33.9935268 37.0642908,39.0723864 C36.415821,33.992566 35.1428989,28.9727908 33.9578805,24.0197858 C33.0245644,20.1168506 32.3727322,15.9530791 30.9753999,12.1865664 C30.3447031,10.4851269 29.2586363,8.6194037 27.6340995,7.76772318 L27.6441868,7.66012226 Z M36.4451223,42.2379671 C35.878792,40.4995397 35.3081386,38.7630338 34.7384459,37.0260474 L31.5652672,27.3477287 C30.507541,24.1216224 29.4392471,20.8988787 28.4021759,17.6665278 C27.8435312,15.9256985 27.3108253,14.1767032 26.7497789,12.4363543 C26.3025749,11.049071 25.9884273,9.54121697 25.2544556,8.27786684 C25.5734067,8.22935035 25.8976416,8.18803929 26.2257192,8.1481693 C29.7164079,9.3485921 30.4378906,13.6045929 31.2549625,16.7898684 C32.1191085,20.1591224 32.9760492,23.5302977 33.8253044,26.9038749 C34.654385,30.1948299 35.4997975,33.4857849 36.0363461,36.840628 C36.3418474,38.7505444 36.4465633,40.6787145 36.569052,42.6035221 C36.5272618,42.4815103 36.4845108,42.3594985 36.4451223,42.2379671 Z M36.5118906,45.6658251 C34.915214,43.0272007 33.1806775,40.4697573 31.6522102,37.7850182 C29.7831763,34.5027097 28.0097316,31.1565131 26.4116139,27.7334588 C24.9004392,24.4953435 23.8038048,21.3004607 23.3210551,17.7472284 C22.9098772,14.7228739 22.3862979,11.5366377 23.5948534,8.6342949 C23.8513592,8.55599601 24.1131489,8.49450977 24.3773403,8.43734678 C24.5099163,9.92790778 25.1761589,11.3858042 25.6478606,12.7980663 C26.2276406,14.5321705 26.8343201,16.2566674 27.4160215,17.9898109 C28.4958437,21.2087117 29.5449237,24.4377001 30.604091,27.663326 C31.6637386,30.8884716 32.7233862,34.1140974 33.7825535,37.3397233 C34.3532069,39.0762293 34.9224192,40.813696 35.496435,42.5492412 C35.8346,43.5728911 36.1055162,44.6556254 36.5118906,45.6658251 Z M24.0641534,29.0443647 C22.6937206,25.9738955 21.6888327,22.7112818 21.2257772,19.3770942 C20.7708877,16.1034322 20.5158229,12.046301 22.3387435,9.14732073 C22.4352934,9.09544171 22.5347254,9.05413064 22.6327164,9.00801596 C21.8218891,11.3997347 22.0015392,13.9019365 22.2758179,16.420951 C22.6697032,20.039032 23.4469062,23.3775428 24.9624041,26.7050053 C26.5446703,30.1784976 28.3478966,33.5708089 30.2596815,36.8732925 C31.5931274,39.1751837 32.9496301,41.540963 34.4420712,43.7914555 C30.4009038,39.2851865 26.5754126,34.6713165 24.0641534,29.0443647 Z M28.0246224,38.2331953 C25.4768568,34.9768263 23.4435438,31.3452951 21.5764313,27.6666886 C19.6598429,23.8900883 17.7869661,19.7609029 18.4138202,15.4203585 C18.6876186,13.5253333 19.4825945,11.6327099 20.8491844,10.2631999 C19.980235,12.4450008 20.1104093,15.2181264 20.22185,17.3932022 C20.4154302,21.1750864 21.3698816,24.8921219 22.85848,28.3660946 C25.0512685,33.4829027 28.3137919,38.2668206 32.0955714,42.4839121 C30.6487633,41.208553 29.2812127,39.8395234 28.0246224,38.2331953 Z M39.5006157,55.5353277 C39.619742,56.2212836 39.9756798,56.9456683 40.1985613,57.6076062 C40.2269018,57.691189 40.2734956,57.7478716 40.3263338,57.7930256 C40.4891718,58.4741779 40.7202192,59.1476444 40.9128387,59.8417664 C41.2697372,61.1281739 41.6367231,62.4116992 42.0056303,63.6947441 C41.9840147,63.7653572 41.9729667,63.842215 41.9907395,63.9315622 C42.5027905,66.4765162 43.3611723,68.9921681 44.3137023,71.4765966 C44.6129591,72.4579746 44.9088535,73.4398331 45.2133941,74.41977 C45.758589,76.1745297 46.2932163,77.9475432 46.8345685,79.7239191 C46.8086297,79.6566686 46.7812498,79.5903787 46.7548307,79.5231281 C43.690691,71.6591339 41.8768971,63.3546483 39.1730184,55.3676816 L39.1547651,55.3354974 C39.2628434,55.300431 39.369961,55.2629628 39.4780393,55.2278965 C39.4737162,55.3206062 39.4799607,55.4190802 39.5006157,55.5353277 Z M51.7499692,77.5685381 C52.0775665,78.5412697 52.3907534,79.5188049 52.6981761,80.4977811 L52.6448575,80.3685639 C52.1683523,79.2084915 51.6971309,78.0488994 51.2326345,76.8878662 C51.0827659,76.1605993 50.9189672,75.434293 50.7292298,74.7103886 C51.0822855,75.657661 51.4262147,76.6087763 51.7499692,77.5685381 Z M47.5041735,83.9904879 C48.0916391,85.4128376 48.679585,86.8351873 49.2670506,88.2570566 C49.5610235,88.9684717 49.8554768,89.6794063 50.1513712,90.3893803 C50.2440783,90.6117875 51.459839,93.1495361 50.9511505,93.6481511 L50.8747752,93.6193294 C50.8051248,93.5515985 50.7301905,93.4915533 50.6658239,93.416617 C50.7863912,93.2662639 50.8349063,93.0549049 50.7186621,92.8416245 C48.5614194,88.8820066 47.2102006,84.628888 46.0122127,80.3200475 C46.4997659,81.5464098 46.9998082,82.7684488 47.5041735,83.9904879 Z M38.2055976,55.6510947 L38.2079993,55.6842397 C38.5648978,57.0124386 38.9429317,58.3382356 39.3248083,59.6635524 C38.8338927,58.3593715 38.3847674,57.0431817 38.0648556,55.6976898 C38.1119297,55.6832789 38.1580431,55.6659859 38.2055976,55.6510947 Z M25.9735366,7.10818716 C23.0458157,6.86800653 20.0157807,9.02386789 18.6554353,11.4837979 C16.5241313,15.3396578 17.236007,19.9333526 18.8144304,23.8372486 C20.7055604,28.5150065 23.5040676,33.0078255 26.2891252,37.2071436 C28.4209094,40.4207605 31.972122,44.5922177 35.3552127,45.9780599 C35.7092292,46.1231291 36.5642486,46.3296844 36.5642486,46.3301648 C37.8626291,50.2854594 39.3416205,54.1350746 38.9064252,54.2748597 C38.4885225,54.4088805 36.1117608,55.0232626 36.3014982,55.300431 C36.2851664,55.3777692 47.9850018,90.9211402 49.4169191,93.1384878 C49.6205867,93.7125195 49.9818083,94.1933611 50.442462,94.5512303 L50.4924182,94.616079 C50.5644704,94.7015834 50.6499724,94.7400123 50.7330726,94.7472177 C51.4540749,95.1939536 53.1468211,94.9628999 53.1525853,94.9619392 C54.0032815,94.9134227 55.944848,93.9887272 56.0836686,93.7744861 C56.6403919,92.9131984 56.8008281,92.3041003 56.578427,90.6727934 C56.2662008,88.2368815 44.0600786,52.5854291 43.4735737,52.7910238 C42.6300827,53.0869263 40.8090835,53.7200424 40.7956338,53.7046709 C39.8714443,50.8421981 39.3171228,48.7487837 38.4462519,45.920897 C39.5630609,43.1919646 39.5448077,41.0538766 39.6082136,39.3846212 C39.6591305,38.0492169 39.641838,36.823335 39.8291737,35.5004201 C40.7533632,28.9689479 41.5512212,22.1535823 40.5069447,15.5245969 C39.916597,11.7768183 38.7186092,7.22971856 34.8811093,5.57055076 C32.1239119,4.3782941 28.2182026,5.03014433 25.9735366,7.10818716 Z" id="Fill-21087-Copy" transform="translate(37.000000, 50.000000) rotate(-24.000000) translate(-37.000000, -50.000000) "></path>
                    <path d="M33.3889795,5.86116932 C35.7258724,5.73195214 37.7750368,6.74407332 39.1718887,8.60691431 C41.8531911,12.1822432 42.0650245,17.6737332 42.0981686,21.9623985 C42.1341947,26.5839543 41.6024494,31.2232834 40.9405299,35.791519 C40.7186092,37.3262732 40.2704445,38.9023385 39.8727164,40.4904129 C40.3300077,33.442072 40.1599645,26.2395352 38.8659071,19.3905443 C38.4388777,17.1304446 37.869185,14.8967647 37.1155191,12.72313 C36.5847346,11.1931794 36.0001511,9.63680886 34.7541285,8.53822265 C33.4624728,7.39976645 31.6333077,6.79499162 29.8838804,6.90739615 C30.9613009,6.35257889 32.0694637,5.93418423 33.3889795,5.86116932 Z M29.6441868,7.66012226 C32.5964054,7.43195066 35.0082325,9.10120605 36.1740371,12.2629439 C37.5425484,15.9761365 38.3408867,19.9074131 38.7904924,23.8305235 C39.3745956,28.9271565 39.2434606,33.9935268 39.0642908,39.0723864 C38.415821,33.992566 37.1428989,28.9727908 35.9578805,24.0197858 C35.0245644,20.1168506 34.3727322,15.9530791 32.9753999,12.1865664 C32.3447031,10.4851269 31.2586363,8.6194037 29.6340995,7.76772318 L29.6441868,7.66012226 Z M38.4451223,42.2379671 C37.878792,40.4995397 37.3081386,38.7630338 36.7384459,37.0260474 L33.5652672,27.3477287 C32.507541,24.1216224 31.4392471,20.8988787 30.4021759,17.6665278 C29.8435312,15.9256985 29.3108253,14.1767032 28.7497789,12.4363543 C28.3025749,11.049071 27.9884273,9.54121697 27.2544556,8.27786684 C27.5734067,8.22935035 27.8976416,8.18803929 28.2257192,8.1481693 C31.7164079,9.3485921 32.4378906,13.6045929 33.2549625,16.7898684 C34.1191085,20.1591224 34.9760492,23.5302977 35.8253044,26.9038749 C36.654385,30.1948299 37.4997975,33.4857849 38.0363461,36.840628 C38.3418474,38.7505444 38.4465633,40.6787145 38.569052,42.6035221 C38.5272618,42.4815103 38.4845108,42.3594985 38.4451223,42.2379671 Z M38.5118906,45.6658251 C36.915214,43.0272007 35.1806775,40.4697573 33.6522102,37.7850182 C31.7831763,34.5027097 30.0097316,31.1565131 28.4116139,27.7334588 C26.9004392,24.4953435 25.8038048,21.3004607 25.3210551,17.7472284 C24.9098772,14.7228739 24.3862979,11.5366377 25.5948534,8.6342949 C25.8513592,8.55599601 26.1131489,8.49450977 26.3773403,8.43734678 C26.5099163,9.92790778 27.1761589,11.3858042 27.6478606,12.7980663 C28.2276406,14.5321705 28.8343201,16.2566674 29.4160215,17.9898109 C30.4958437,21.2087117 31.5449237,24.4377001 32.604091,27.663326 C33.6637386,30.8884716 34.7233862,34.1140974 35.7825535,37.3397233 C36.3532069,39.0762293 36.9224192,40.813696 37.496435,42.5492412 C37.8346,43.5728911 38.1055162,44.6556254 38.5118906,45.6658251 Z M26.0641534,29.0443647 C24.6937206,25.9738955 23.6888327,22.7112818 23.2257772,19.3770942 C22.7708877,16.1034322 22.5158229,12.046301 24.3387435,9.14732073 C24.4352934,9.09544171 24.5347254,9.05413064 24.6327164,9.00801596 C23.8218891,11.3997347 24.0015392,13.9019365 24.2758179,16.420951 C24.6697032,20.039032 25.4469062,23.3775428 26.9624041,26.7050053 C28.5446703,30.1784976 30.3478966,33.5708089 32.2596815,36.8732925 C33.5931274,39.1751837 34.9496301,41.540963 36.4420712,43.7914555 C32.4009038,39.2851865 28.5754126,34.6713165 26.0641534,29.0443647 Z M30.0246224,38.2331953 C27.4768568,34.9768263 25.4435438,31.3452951 23.5764313,27.6666886 C21.6598429,23.8900883 19.7869661,19.7609029 20.4138202,15.4203585 C20.6876186,13.5253333 21.4825945,11.6327099 22.8491844,10.2631999 C21.980235,12.4450008 22.1104093,15.2181264 22.22185,17.3932022 C22.4154302,21.1750864 23.3698816,24.8921219 24.85848,28.3660946 C27.0512685,33.4829027 30.3137919,38.2668206 34.0955714,42.4839121 C32.6487633,41.208553 31.2812127,39.8395234 30.0246224,38.2331953 Z M41.5006157,55.5353277 C41.619742,56.2212836 41.9756798,56.9456683 42.1985613,57.6076062 C42.2269018,57.691189 42.2734956,57.7478716 42.3263338,57.7930256 C42.4891718,58.4741779 42.7202192,59.1476444 42.9128387,59.8417664 C43.2697372,61.1281739 43.6367231,62.4116992 44.0056303,63.6947441 C43.9840147,63.7653572 43.9729667,63.842215 43.9907395,63.9315622 C44.5027905,66.4765162 45.3611723,68.9921681 46.3137023,71.4765966 C46.6129591,72.4579746 46.9088535,73.4398331 47.2133941,74.41977 C47.758589,76.1745297 48.2932163,77.9475432 48.8345685,79.7239191 C48.8086297,79.6566686 48.7812498,79.5903787 48.7548307,79.5231281 C45.690691,71.6591339 43.8768971,63.3546483 41.1730184,55.3676816 L41.1547651,55.3354974 C41.2628434,55.300431 41.369961,55.2629628 41.4780393,55.2278965 C41.4737162,55.3206062 41.4799607,55.4190802 41.5006157,55.5353277 Z M53.7499692,77.5685381 C54.0775665,78.5412697 54.3907534,79.5188049 54.6981761,80.4977811 L54.6448575,80.3685639 C54.1683523,79.2084915 53.6971309,78.0488994 53.2326345,76.8878662 C53.0827659,76.1605993 52.9189672,75.434293 52.7292298,74.7103886 C53.0822855,75.657661 53.4262147,76.6087763 53.7499692,77.5685381 Z M49.5041735,83.9904879 C50.0916391,85.4128376 50.679585,86.8351873 51.2670506,88.2570566 C51.5610235,88.9684717 51.8554768,89.6794063 52.1513712,90.3893803 C52.2440783,90.6117875 53.459839,93.1495361 52.9511505,93.6481511 L52.8747752,93.6193294 C52.8051248,93.5515985 52.7301905,93.4915533 52.6658239,93.416617 C52.7863912,93.2662639 52.8349063,93.0549049 52.7186621,92.8416245 C50.5614194,88.8820066 49.2102006,84.628888 48.0122127,80.3200475 C48.4997659,81.5464098 48.9998082,82.7684488 49.5041735,83.9904879 Z M40.2055976,55.6510947 L40.2079993,55.6842397 C40.5648978,57.0124386 40.9429317,58.3382356 41.3248083,59.6635524 C40.8338927,58.3593715 40.3847674,57.0431817 40.0648556,55.6976898 C40.1119297,55.6832789 40.1580431,55.6659859 40.2055976,55.6510947 Z M27.9735366,7.10818716 C25.0458157,6.86800653 22.0157807,9.02386789 20.6554353,11.4837979 C18.5241313,15.3396578 19.236007,19.9333526 20.8144304,23.8372486 C22.7055604,28.5150065 25.5040676,33.0078255 28.2891252,37.2071436 C30.4209094,40.4207605 33.972122,44.5922177 37.3552127,45.9780599 C37.7092292,46.1231291 38.5642486,46.3296844 38.5642486,46.3301648 C39.8626291,50.2854594 41.3416205,54.1350746 40.9064252,54.2748597 C40.4885225,54.4088805 38.1117608,55.0232626 38.3014982,55.300431 C38.2851664,55.3777692 49.9850018,90.9211402 51.4169191,93.1384878 C51.6205867,93.7125195 51.9818083,94.1933611 52.442462,94.5512303 L52.4924182,94.616079 C52.5644704,94.7015834 52.6499724,94.7400123 52.7330726,94.7472177 C53.4540749,95.1939536 55.1468211,94.9628999 55.1525853,94.9619392 C56.0032815,94.9134227 57.944848,93.9887272 58.0836686,93.7744861 C58.6403919,92.9131984 58.8008281,92.3041003 58.578427,90.6727934 C58.2662008,88.2368815 46.0600786,52.5854291 45.4735737,52.7910238 C44.6300827,53.0869263 42.8090835,53.7200424 42.7956338,53.7046709 C41.8714443,50.8421981 41.3171228,48.7487837 40.4462519,45.920897 C41.5630609,43.1919646 41.5448077,41.0538766 41.6082136,39.3846212 C41.6591305,38.0492169 41.641838,36.823335 41.8291737,35.5004201 C42.7533632,28.9689479 43.5512212,22.1535823 42.5069447,15.5245969 C41.916597,11.7768183 40.7186092,7.22971856 36.8811093,5.57055076 C34.1239119,4.3782941 30.2182026,5.03014433 27.9735366,7.10818716 Z" id="Fill-21087-Copy" transform="translate(39.000000, 50.000000) scale(-1, 1) rotate(-24.000000) translate(-39.000000, -50.000000) "></path>
                </g>
            </g>
        </g>
    </g>
</svg>