<?xml version="1.0" encoding="UTF-8" standalone="no"?>
<svg width="330px" height="110px" viewBox="0 0 330 110" version="1.1" xmlns="http://www.w3.org/2000/svg" xmlns:xlink="http://www.w3.org/1999/xlink">
    <!-- Generator: Sketch 50.2 (55047) - http://www.bohemiancoding.com/sketch -->
    <title>menu-banner</title>
    <desc>Created with Sketch.</desc>
    <defs></defs>
    <g id="Page-1" stroke="none" stroke-width="1" fill="none" fill-rule="evenodd">
        <g id="Fonts-and-colors" transform="translate(-661.000000, -1462.000000)">
            <g id="menu-banner" transform="translate(661.000000, 1471.000000)">
                <path d="M33.5,58.5 L296.507604,58.5" id="Line-3-Copy" stroke="#805278" stroke-linecap="round" stroke-linejoin="round"></path>
                <path d="M300.75,63.9673112 C300.75,63.8752297 300.770566,63.779313 300.811698,63.679558 C300.85283,63.5798031 300.914527,63.4915596 300.996792,63.414825 L312.744077,52.4571823 C312.908606,52.3190601 313.106037,52.25 313.336377,52.25 C313.566717,52.25 313.764149,52.3190601 313.928677,52.4571823 L325.503208,63.2767035 C325.667737,63.4301727 325.75,63.6143329 325.75,63.8291897 C325.75,64.0440465 325.667737,64.2282067 325.503208,64.3816759 C325.33868,64.535145 325.141248,64.6118785 324.910908,64.6118785 C324.680568,64.6118785 324.483137,64.535145 324.318608,64.3816759 L313.336377,54.1376611 L302.181392,64.5197974 C302.016863,64.6732666 301.819432,64.75 301.589092,64.75 C301.358752,64.75 301.16132,64.6732666 300.996792,64.5197974 C300.914527,64.4430628 300.85283,64.3586561 300.811698,64.2665746 C300.770566,64.1744931 300.75,64.0747396 300.75,63.9673112 Z" id="Swipe-Up-Copy" fill="#805278" transform="translate(313.250000, 58.500000) rotate(-270.000000) translate(-313.250000, -58.500000) "></path>
                <path d="M-5.77705832,63.9673112 C-5.77705832,63.8752297 -5.75649255,63.779313 -5.71536039,63.679558 C-5.67422824,63.5798031 -5.61253093,63.4915596 -5.53026661,63.414825 L6.21701868,52.4571823 C6.38154731,52.3190601 6.5789787,52.25 6.80931878,52.25 C7.03965886,52.25 7.23709025,52.3190601 7.40161888,52.4571823 L18.97615,63.2767035 C19.1406786,63.4301727 19.2229417,63.6143329 19.2229417,63.8291897 C19.2229417,64.0440465 19.1406786,64.2282067 18.97615,64.3816759 C18.8116213,64.535145 18.61419,64.6118785 18.3838499,64.6118785 C18.1535098,64.6118785 17.9560784,64.535145 17.7915498,64.3816759 L6.80931878,54.1376611 L-4.34566642,64.5197974 C-4.51019504,64.6732666 -4.70762644,64.75 -4.93796651,64.75 C-5.16830659,64.75 -5.36573799,64.6732666 -5.53026661,64.5197974 C-5.61253093,64.4430628 -5.67422824,64.3586561 -5.71536039,64.2665746 C-5.75649255,64.1744931 -5.77705832,64.0747396 -5.77705832,63.9673112 Z" id="Swipe-Up-Copy-2" fill="#805278" transform="translate(6.722942, 58.500000) scale(-1, 1) rotate(-270.000000) translate(-6.722942, -58.500000) "></path>
                <path d="M310.75,63.9673112 C310.75,63.8752297 310.770566,63.779313 310.811698,63.679558 C310.85283,63.5798031 310.914527,63.4915596 310.996792,63.414825 L322.744077,52.4571823 C322.908606,52.3190601 323.106037,52.25 323.336377,52.25 C323.566717,52.25 323.764149,52.3190601 323.928677,52.4571823 L335.503208,63.2767035 C335.667737,63.4301727 335.75,63.6143329 335.75,63.8291897 C335.75,64.0440465 335.667737,64.2282067 335.503208,64.3816759 C335.33868,64.535145 335.141248,64.6118785 334.910908,64.6118785 C334.680568,64.6118785 334.483137,64.535145 334.318608,64.3816759 L323.336377,54.1376611 L312.181392,64.5197974 C312.016863,64.6732666 311.819432,64.75 311.589092,64.75 C311.358752,64.75 311.16132,64.6732666 310.996792,64.5197974 C310.914527,64.4430628 310.85283,64.3586561 310.811698,64.2665746 C310.770566,64.1744931 310.75,64.0747396 310.75,63.9673112 Z" id="Swipe-Up-Copy" fill="#805278" transform="translate(323.250000, 58.500000) rotate(-270.000000) translate(-323.250000, -58.500000) "></path>
                <path d="M4.22294168,63.9673112 C4.22294168,63.8752297 4.24350745,63.779313 4.28463961,63.679558 C4.32577176,63.5798031 4.38746907,63.4915596 4.46973339,63.414825 L16.2170187,52.4571823 C16.3815473,52.3190601 16.5789787,52.25 16.8093188,52.25 C17.0396589,52.25 17.2370902,52.3190601 17.4016189,52.4571823 L28.97615,63.2767035 C29.1406786,63.4301727 29.2229417,63.6143329 29.2229417,63.8291897 C29.2229417,64.0440465 29.1406786,64.2282067 28.97615,64.3816759 C28.8116213,64.535145 28.61419,64.6118785 28.3838499,64.6118785 C28.1535098,64.6118785 27.9560784,64.535145 27.7915498,64.3816759 L16.8093188,54.1376611 L5.65433358,64.5197974 C5.48980496,64.6732666 5.29237356,64.75 5.06203349,64.75 C4.83169341,64.75 4.63426201,64.6732666 4.46973339,64.5197974 C4.38746907,64.4430628 4.32577176,64.3586561 4.28463961,64.2665746 C4.24350745,64.1744931 4.22294168,64.0747396 4.22294168,63.9673112 Z" id="Swipe-Up-Copy-3" fill="#805278" transform="translate(16.722942, 58.500000) scale(-1, 1) rotate(-270.000000) translate(-16.722942, -58.500000) "></path>
                <path d="M163.368,-0.88 C163.816,1.168 164.136,3.28 164.328,5.392 C164.52,7.504 164.648,9.616 164.712,11.856 C164.712,13.328 164.712,14.864 164.648,16.336 C164.584,17.808 164.456,19.28 164.264,20.816 C164.136,22.288 163.88,23.76 163.56,25.232 C163.24,26.704 162.856,28.112 162.408,29.584 C161.832,31.76 161.128,33.936 160.36,36.048 C159.528,38.16 158.632,40.336 157.672,42.512 C156.456,45.008 155.112,47.376 153.768,49.744 C152.36,52.048 150.76,54.288 148.904,56.528 C147.56,58.064 146.152,59.472 144.68,60.688 C143.208,61.904 141.672,62.992 140.008,63.952 C138.152,65.04 136.296,65.744 134.376,66.064 C130.856,66.896 128.36,65.808 127.016,62.928 C126.44,61.776 125.992,60.56 125.736,59.28 C125.48,58 125.288,56.656 125.096,55.248 C125.032,53.776 125.032,52.304 125.096,50.832 C125.16,49.36 125.288,47.952 125.48,46.48 C125.672,44.688 125.928,42.96 126.248,41.296 C126.568,39.568 126.888,37.904 127.272,36.176 L129.512,26.64 L129.512,26.384 C129.448,26.32 129.448,26.192 129.448,26.128 C129.384,26.192 129.32,26.32 129.256,26.384 L129.064,26.576 L126.952,30.032 C126.568,30.672 126.056,31.568 125.352,32.784 C124.648,33.936 123.816,35.216 122.984,36.624 C122.088,38.032 121.128,39.504 120.168,41.104 C119.208,42.64 118.248,44.112 117.352,45.52 C116.456,46.928 115.624,48.208 114.92,49.36 C114.152,50.512 113.576,51.408 113.128,52.048 C112.552,52.752 111.976,53.52 111.4,54.224 C110.824,54.928 110.12,55.632 109.416,56.272 C108.712,56.976 107.944,57.424 107.112,57.744 C106.28,58.064 105.512,58.192 104.808,58.128 C104.104,58.064 103.464,57.808 102.888,57.424 C102.312,57.04 101.864,56.464 101.672,55.76 C101.352,54.736 101.096,53.648 101.032,52.56 C100.968,51.472 100.968,50.32 101.032,49.168 C101.16,47.312 101.416,45.52 101.8,43.728 L102.76,39.696 C102.696,39.696 102.696,39.632 102.696,39.632 C100.584,38.864 98.92,37.776 97.704,36.304 C96.552,34.896 96.168,33.168 96.68,31.12 C96.808,30.288 97.064,29.456 97.448,28.688 C97.768,27.92 98.216,27.088 98.728,26.32 C99.368,25.296 100.136,24.336 100.904,23.376 C101.672,22.416 102.504,21.52 103.4,20.624 C104.936,19.152 106.536,17.872 108.328,16.72 C110.056,15.504 111.976,14.416 113.96,13.392 C114.792,13.008 115.624,12.624 116.456,12.304 C117.352,11.664 118.12,11.536 118.888,11.92 L119.528,12.432 C119.592,12.496 119.656,12.56 119.656,12.624 C119.656,12.688 119.72,12.816 119.848,12.88 C119.656,13.008 119.464,13.072 119.272,13.072 C119.016,13.136 118.824,13.264 118.632,13.456 C118.568,13.456 118.504,13.52 118.504,13.52 C118.504,13.584 118.504,13.648 118.568,13.648 C118.44,13.712 118.376,13.776 118.248,13.776 C118.184,13.904 118.12,13.968 117.992,14.096 C117.48,14.672 116.968,15.312 116.52,15.952 C116.008,16.592 115.496,17.232 115.048,17.872 C114.152,19.216 113.384,20.56 112.68,21.904 C111.976,23.248 111.336,24.656 110.76,26 C109.8,28.304 108.904,30.608 108.136,32.848 C107.368,35.088 106.664,37.328 106.088,39.568 C106.088,39.632 106.024,39.76 106.024,39.824 C107.624,40.272 109.288,40.656 110.76,40.912 L110.632,40.912 C109.224,40.912 107.88,40.784 106.536,40.656 C106.28,40.592 106.088,40.528 105.896,40.528 C105.576,41.744 105.32,42.896 105.064,44.112 C104.744,45.584 104.552,47.056 104.424,48.528 C104.296,49.616 104.232,50.64 104.232,51.664 C104.232,52.688 104.36,53.648 104.552,54.608 C104.616,54.928 104.68,55.184 104.808,55.44 C104.936,55.632 105.064,55.888 105.128,56.144 C105.192,56.336 105.32,56.464 105.512,56.464 C105.704,56.464 105.832,56.336 106.024,56.144 C106.344,55.952 106.664,55.696 106.984,55.44 C107.24,55.12 107.496,54.864 107.816,54.608 C108.712,53.712 109.544,52.752 110.248,51.728 C110.952,50.64 111.656,49.616 112.36,48.528 C112.936,47.696 113.64,46.544 114.536,45.2 C115.368,43.792 116.328,42.256 117.416,40.656 C118.44,38.992 119.528,37.264 120.616,35.472 C121.704,33.616 122.728,31.888 123.752,30.224 C124.776,28.56 125.736,27.024 126.568,25.616 C127.4,24.208 128.04,23.056 128.552,22.16 C129,21.328 129.512,20.432 130.024,19.6 L131.56,16.912 C132.008,16.208 132.392,15.696 132.776,15.504 C133.16,15.312 133.672,15.248 134.312,15.44 C134.504,15.504 134.632,15.504 134.76,15.568 C134.824,15.632 134.952,15.696 135.08,15.76 C135.272,15.952 135.464,16.08 135.528,16.272 C135.592,16.464 135.592,16.656 135.528,16.912 L135.208,18.512 C134.632,20.816 133.992,23.12 133.416,25.36 C132.776,27.6 132.136,29.904 131.56,32.144 C130.856,34.832 130.28,37.52 129.768,40.144 C129.256,42.768 128.872,45.328 128.68,47.952 C128.488,49.872 128.36,51.728 128.424,53.584 C128.488,55.376 128.68,57.104 129.128,58.704 C129.256,59.536 129.448,60.368 129.768,61.072 C130.088,61.776 130.408,62.416 130.856,63.056 C132.072,64.848 133.928,65.168 136.488,64.08 C137.384,63.632 138.28,63.12 139.112,62.608 C139.944,62.032 140.776,61.456 141.608,60.752 C143.08,59.408 144.488,58 145.704,56.528 C146.92,55.056 148.072,53.456 149.16,51.856 C151.208,48.784 153,45.648 154.472,42.384 C155.944,39.12 157.288,35.792 158.376,32.4 C158.888,30.8 159.4,29.136 159.976,27.536 C160.488,25.872 160.872,24.208 161.192,22.48 C161.384,21.392 161.512,20.304 161.64,19.216 C161.704,18.128 161.832,17.104 161.896,16.016 C161.96,14.8 161.96,13.648 161.96,12.496 C161.96,11.28 161.896,10.128 161.832,8.976 C161.768,6.8 161.64,4.688 161.448,2.704 C161.192,0.656 160.808,-1.328 160.296,-3.248 C160.04,-4.208 159.72,-5.04 159.272,-5.872 C158.824,-6.704 158.312,-7.408 157.736,-7.984 C157.672,-8.048 157.544,-8.176 157.48,-8.304 C157.352,-8.496 157.352,-8.624 157.416,-8.688 C157.48,-8.88 157.608,-8.944 157.8,-8.944 C157.992,-8.944 158.12,-8.944 158.248,-8.88 C159.336,-8.56 160.296,-7.92 161,-6.96 C161.576,-6.064 162.088,-5.104 162.472,-4.08 C162.792,-3.056 163.112,-1.968 163.368,-0.88 Z M115.944,15.44 L116.136,15.184 L115.816,15.312 C115.624,15.632 115.368,15.952 115.048,16.272 C114.728,16.592 114.472,16.912 114.28,17.232 C113.448,18.384 112.68,19.6 112.04,20.88 C111.4,22.16 110.76,23.44 110.184,24.784 C109.224,26.896 108.328,29.072 107.56,31.248 C106.728,33.424 106.024,35.6 105.384,37.776 C105.256,38.352 105.128,38.928 104.936,39.504 C105.064,39.568 105.192,39.568 105.256,39.632 C105.896,37.328 106.536,35.088 107.304,32.976 C108.136,30.608 109.096,28.24 110.056,26 C111.016,23.696 112.168,21.392 113.512,19.152 C114.216,17.872 115.048,16.656 115.944,15.44 Z M104.083326,37.7100213 L104.104,37.648 C104.104,37.691913 104.104,37.7056955 104.083326,37.7100213 Z M104.083326,37.7100213 C104.07387,37.712 104.060087,37.712 104.04,37.712 L103.976,37.904 L104.04,37.84 L104.083326,37.7100213 Z M104.36,36.688 L104.424,36.688 C104.424,36.56 104.424,36.496 104.488,36.496 L104.424,36.432 L104.36,36.688 Z M104.744,35.216 C104.68,35.28 104.68,35.344 104.744,35.344 C104.744,35.28 104.808,35.28 104.872,35.28 L104.872,35.024 C104.808,35.088 104.744,35.152 104.744,35.216 Z M105.957052,31.766057 C105.921816,31.8067047 105.896,31.8473523 105.896,31.888 C105.896,31.952 105.896,31.952 105.832,32.016 C105.768,32.208 105.768,32.336 105.704,32.4 C105.64,32.464 105.64,32.592 105.64,32.656 L105.896,32.016 C105.896,31.9211299 105.931158,31.8262597 105.975415,31.7574475 L105.957052,31.766057 Z M106.152,31.056 L106.216,31.248 L106.216,31.12 L106.28,31.056 L106.344,30.928 C106.28,30.928 106.28,30.928 106.28,30.992 L106.216,30.992 L106.152,31.056 Z M106.6,32.4 C106.536,32.464 106.536,32.464 106.6,32.464 L106.6,32.4 Z M106.728004,29.7677763 C106.728,29.7706201 106.728,29.7733643 106.728,29.776 C106.728,29.7728687 106.728,29.7698906 106.728,29.7670581 L106.728004,29.7677763 Z M107.048,31.12 L106.984,31.184 C107.048,31.184 107.048,31.184 107.048,31.12 Z M107.304642,28.3455951 C107.347094,28.2745568 107.389547,28.1753584 107.432,28.048 C107.496,27.984 107.496,27.856 107.496,27.664 L107.432,28.048 C107.371736,28.1082637 107.311473,28.2252731 107.304642,28.3455951 Z M107.624,29.456 L107.496,29.584 L107.56,29.648 C107.624,29.584 107.624,29.52 107.624,29.456 Z M107.104,30.96 C107.112,30.944 107.112,30.928 107.112,30.928 C107.112,30.928 107.096,30.928 107.08,30.936 L107.104,30.96 Z M107.84,26.904 C107.88,26.768 107.912,26.64 107.944,26.512 C107.912,26.608 107.864,26.736 107.816,26.88 L107.84,26.904 Z M108.648,27.024 L108.584,27.088 C108.648,27.088 108.648,27.088 108.648,27.024 Z M108.328,27.664 C108.264,27.728 108.264,27.792 108.2,27.856 L108.072,28.24 L108.264,27.856 C108.264,27.792 108.264,27.792 108.328,27.728 C108.392,27.664 108.392,27.536 108.392,27.472 C108.328,27.536 108.328,27.6 108.328,27.664 Z M109.16,24.016 C109.544,23.504 109.8,22.928 109.928,22.352 C109.48,22.8 109.224,23.312 109.096,24.144 C109.16,24.144 109.16,24.08 109.16,24.08 L109.16,24.016 Z M109.992,23.952 L109.672,24.656 L110.056,23.888 L110.056,23.824 C110.056,23.824 110.056,23.888 109.992,23.952 Z M109.169808,25.6516446 C109.139579,25.6947948 109.114976,25.7250239 109.096,25.744 C109.127913,25.7120866 109.159827,25.6642597 109.19174,25.6163897 L109.169808,25.6516446 Z M111.336,19.728 L111.592,19.216 C111.4,19.472 111.336,19.6 111.272,19.664 L111.144,19.984 L111.336,19.728 Z M111.976,20.048 C111.784,20.24 111.656,20.368 111.592,20.56 C111.656,20.496 111.784,20.304 111.976,20.048 Z M111.4,21.136 L111.08,21.648 L110.824,22.16 C110.888,22.096 110.952,21.968 111.016,21.904 C111.08,21.84 111.144,21.712 111.208,21.648 L111.4,21.136 Z M110.76,20.752 L110.952,20.432 C110.888,20.496 110.824,20.56 110.76,20.752 Z M110.76,22.352 L110.504,22.864 C110.44,23.056 110.376,23.184 110.312,23.312 C110.376,23.248 110.44,23.184 110.44,23.12 C110.44,23.056 110.504,22.928 110.568,22.864 L110.76,22.352 Z M110.376,21.52 L110.317618,21.6367642 C110.331946,21.5890318 110.347728,21.5482715 110.376,21.52 Z M110.317618,21.6367642 L110.248,21.776 L110.248,21.84 C110.283728,21.768543 110.299511,21.6970861 110.317618,21.6367639 L110.317618,21.6367642 Z M110.376,21.52 C110.44,21.456 110.44,21.328 110.504,21.264 L110.376,21.52 Z M112.104,19.792 C112.168,19.792 112.168,19.728 112.232,19.728 L112.424,19.344 C112.36,19.408 112.296,19.536 112.232,19.664 L112.104,19.792 Z M116.136,15.12 L116.456,14.8 L116.392,14.8 C116.328,14.8 116.328,14.8 116.264,14.864 C116.264,14.928 116.2,15.056 116.136,15.12 Z M101.608,38.032 C101.992,38.288 102.504,38.544 102.952,38.736 C103.016,38.544 103.016,38.416 103.08,38.224 C103.912,35.472 104.808,32.72 105.832,30.032 C106.856,27.28 108.072,24.592 109.416,21.904 C110.12,20.56 110.888,19.216 111.72,17.936 C111.976,17.552 112.232,17.168 112.424,16.784 C110.824,17.68 109.352,18.832 107.88,19.92 C106.984,20.624 105.32,21.776 104.616,23.12 C104.232,23.312 103.848,23.632 103.528,23.952 C103.016,24.464 102.568,25.424 101.8,25.68 C101.096,26 100.904,26.64 101.032,27.216 C100.52,27.92 100.008,28.688 99.624,29.52 C99.176,30.224 98.856,30.992 98.6,31.76 C98.344,32.528 98.216,33.296 98.28,34.064 C98.344,35.856 99.432,37.136 101.608,38.032 Z M105.064,40.336 C105,40.336 104.872,40.336 104.808,40.272 C104.616,40.912 104.552,41.552 104.488,42.192 L104.808,41.36 C104.872,41.04 105,40.72 105.064,40.336 Z M103.272,40.656 L103.336,40.592 C103.336,40.528 103.336,40.464 103.272,40.4 L103.208,40.528 C103.272,40.592 103.272,40.592 103.272,40.656 Z M104.488,42.256 C104.296,42.512 104.168,42.768 104.168,43.088 C104.168,43.344 104.232,43.6 104.296,43.792 L104.488,42.256 Z M126.12,47.632 L126.44,44.944 L126.312,45.008 L126.056,47.696 L126.12,47.632 Z M126.76,41.872 C126.696,42.192 126.696,42.512 126.76,42.832 C126.952,42.256 127.08,41.616 127.08,40.912 L127.016,40.912 C126.888,41.232 126.824,41.552 126.76,41.872 Z M126.952,47.248 L127.272,44.816 L127.208,44.816 L126.888,47.248 L126.952,47.248 Z M131.112,23.568 L131.048,23.696 L131.176,23.696 L131.176,23.632 L131.112,23.568 Z M130.92,27.664 C130.856,27.728 130.856,27.728 130.856,27.664 L130.792,27.728 L130.792,27.856 C130.856,27.792 130.92,27.728 130.92,27.664 Z M130.728,24.848 C130.664,24.912 130.664,24.976 130.664,25.04 L130.728,25.168 C130.728,25.104 130.728,25.104 130.792,25.104 C130.856,25.04 130.856,25.04 130.856,24.976 C130.792,24.912 130.728,24.912 130.792,24.848 C130.856,24.784 130.792,24.784 130.728,24.848 Z M130.591726,29.0968229 C130.572419,29.108419 130.522209,29.0582095 130.472,29.008 L130.408,29.136 C130.408,29.2 130.408,29.264 130.472,29.264 C130.472,29.2 130.472,29.2 130.536,29.264 L130.591726,29.0968229 Z M130.216,27.024 L130.152,27.024 L130.216,27.152 L130.216,27.024 Z M130.216,27.152 L130.208502,27.1757432 C130.210898,27.1677286 130.213396,27.1598114 130.216,27.152 Z M130.208502,27.1757432 L129.832,28.368 C130.024,28.176 130.088,27.984 130.152,27.792 C130.152,27.6078114 130.152,27.3647244 130.208502,27.1757432 Z M130.216,27.024 C130.28,26.96 130.344,26.832 130.344,26.768 C130.344,26.704 130.344,26.576 130.408,26.512 L130.408,26.32 C130.344,26.384 130.28,26.448 130.28,26.512 C130.216,26.576 130.216,26.704 130.28,26.768 C130.28,26.832 130.28,26.96 130.216,27.024 Z M130.104907,30.6786396 C130.099904,30.6600964 130.115601,30.6443987 130.152,30.608 L130.104907,30.6786396 Z M130.104907,30.6786396 L130.024,30.8 C129.96,30.864 130.024,30.864 130.088,30.864 C130.088,30.8 130.088,30.8 130.152,30.8 L130.152,30.736 C130.124399,30.7083987 130.108701,30.692701 130.104907,30.6786396 Z M129.768,29.072 C129.832,29.008 129.768,28.816 129.704,28.496 C129.64,28.624 129.64,28.752 129.64,28.88 C129.64,28.944 129.64,29.072 129.576,29.136 C129.512,29.2 129.512,29.2 129.576,29.264 C129.64,29.264 129.64,29.328 129.576,29.392 C129.704,29.328 129.768,29.2 129.768,29.072 Z M129.832,32.4 L129.704,32.144 L129.704,32.336 C129.64,32.4 129.64,32.4 129.64,32.464 C129.576,32.528 129.64,32.656 129.704,32.72 L129.832,32.4 Z M129.704,24.016 L129.704,24.08 L129.704,24.016 Z M130.152,23.12 L129.768,23.888 C129.896,23.76 129.96,23.632 130.024,23.568 L130.216,23.184 C130.28,23.12 130.28,23.056 130.28,22.992 L130.152,23.12 Z M124.136,33.232 C124.264,33.104 124.392,32.912 124.456,32.72 C124.392,32.784 124.328,32.912 124.264,32.976 C124.2,33.04 124.2,33.168 124.136,33.232 Z M124.712,32.464 C124.712,32.4 124.712,32.4 124.776,32.336 L124.648,32.464 L124.584,32.592 L124.712,32.464 Z M125.608,30.8 L125.224,31.376 L125.224,31.44 L125.608,30.8 Z M126.824,28.816 L126.952,28.496 L126.696,28.944 C126.632,29.072 126.632,29.2 126.568,29.328 L126.312,29.584 L126.568,29.328 C126.632,29.2 126.76,29.008 126.824,28.816 Z M128.68,25.808 C128.616,25.744 128.616,25.744 128.68,25.68 L128.68,25.616 C128.68,25.68 128.616,25.68 128.552,25.68 L128.616,25.808 L127.848,27.024 C128.04,26.832 128.232,26.64 128.36,26.448 C128.424,26.256 128.552,26 128.616,25.808 L128.68,25.808 Z M128.808,25.424 C128.872,25.424 128.872,25.36 128.872,25.36 L128.808,25.424 Z M128.872,25.296 L128.936,25.232 L128.936,25.168 L128.872,25.232 L128.872,25.296 Z M129,25.168 L129.064,25.04 C129,25.104 129,25.168 129,25.168 Z M129.24,34.448 C129.24,34.464 129.224,34.48 129.192,34.512 L129.24,34.448 Z M129.24,34.448 L129.384,34.256 C129.384,34.192 129.32,34.128 129.192,34.128 L129.192,34.32 C129.128,34.32 129.128,34.32 129.192,34.384 C129.224,34.416 129.24,34.432 129.24,34.448 Z M129.192,30.8 C129.192,30.8 129.192,30.864 129.128,30.928 C129.128,30.992 129.192,31.056 129.256,31.056 C129.192,30.992 129.192,30.928 129.32,30.8 L129.32,30.736 C129.256,30.672 129.256,30.672 129.256,30.608 C129.192,30.672 129.192,30.736 129.192,30.8 Z M128.744,32.528 L128.744,32.72 C128.808,32.72 128.872,32.656 128.936,32.528 L128.872,32.272 C128.808,32.336 128.744,32.464 128.744,32.528 Z M128.744,36.432 L128.744,36.56 C128.808,36.432 128.872,36.304 128.872,36.112 C128.936,36.048 129,36.048 128.936,36.048 L128.872,35.984 L128.744,36.432 Z M128.296,34.704 C128.232,34.768 128.296,34.832 128.36,34.896 C128.36,34.832 128.36,34.832 128.424,34.768 L128.488,34.768 L128.488,34.32 C128.552,34.256 128.552,34.128 128.488,34 C128.424,34.064 128.36,34.192 128.296,34.256 L128.296,34.704 Z M128.27902,39.0377143 C128.275102,39.0651429 128.259429,39.0925714 128.232,39.12 L128.279021,39.0377136 L128.27902,39.0377143 Z M128.279021,39.0377136 L128.488,38.672 L128.36,38.352 C128.296,38.544 128.232,38.672 128.232,38.736 C128.168,38.8 128.168,38.864 128.232,38.928 C128.268571,38.9645714 128.284245,39.0011429 128.27902,39.0377143 L128.279021,39.0377136 Z M127.912,36.112 C127.976,36.24 127.912,36.368 127.72,36.56 L127.976,36.816 C127.912,36.752 127.912,36.688 127.976,36.624 C128.04,36.56 128.04,36.432 128.04,36.368 C128.104,36.304 128.04,36.24 127.912,36.112 Z M127.848,40.464 L127.72,41.744 C128.04,41.232 128.04,40.784 127.848,40.464 Z M127.464,38.288 C127.4,38.48 127.336,38.736 127.336,38.928 C127.336,39.12 127.4,39.248 127.528,39.376 L127.528,38.288 L127.464,38.288 Z M127.528,51.792 C127.528,51.728 127.528,51.6 127.592,51.536 L127.464,51.408 L127.4,51.728 C127.4,51.792 127.4,51.792 127.464,51.792 L127.528,51.792 Z M128.104,45.712 C128.168,44.624 128.36,43.472 128.552,42.384 C128.744,41.04 129,39.76 129.32,38.416 L130.28,34.384 C130.664,32.592 131.112,30.864 131.56,29.136 C132.008,27.408 132.456,25.616 132.904,23.824 C133.096,23.248 133.224,22.608 133.352,22.032 C133.416,21.456 133.544,20.816 133.736,20.24 L133.8,20.176 C133.928,19.984 133.992,19.792 133.992,19.6 C133.992,19.408 134.056,19.216 134.12,19.024 C134.184,18.896 134.248,18.832 134.312,18.832 L134.248,18.768 C134.184,18.768 134.184,18.768 134.12,18.704 L134.12,19.024 C133.928,19.216 133.864,19.408 133.864,19.6 C133.8,19.792 133.8,19.984 133.8,20.176 L133.736,20.176 L133.736,20.24 L133.352,20.944 C132.904,22.48 132.52,24.016 132.072,25.616 C131.624,27.152 131.24,28.688 130.856,30.16 C130.6,31.248 130.344,32.272 130.152,33.296 C129.896,34.256 129.64,35.28 129.384,36.24 C129.192,37.328 129,38.352 128.808,39.376 C128.616,40.4 128.36,41.424 128.168,42.384 C127.976,43.6 127.848,44.752 127.784,45.968 C127.656,47.184 127.528,48.336 127.4,49.488 C127.4,49.68 127.4,49.872 127.464,50 C127.528,49.808 127.592,49.616 127.656,49.488 C127.72,49.36 127.72,49.232 127.72,49.04 C127.848,47.952 127.976,46.8 128.104,45.712 Z M161.384,27.6 C161.384,27.728 161.32,27.792 161.192,27.792 L161.32,27.792 L161.384,27.728 L161.384,27.6 Z M161.128,25.616 C161.064,25.616 161.064,25.616 161.128,25.68 L161,25.808 L161.192,25.744 L161.128,25.616 Z M161,28.816 L160.936,28.816 C160.936,28.88 160.872,29.008 160.808,29.072 L160.936,29.008 C161,29.008 161,29.008 161,28.944 L161,28.816 Z M160.552,27.664 C160.488,27.856 160.424,27.984 160.488,28.048 L160.616,27.728 L160.68,27.6 C160.68,27.536 160.68,27.472 160.744,27.408 C160.808,27.344 160.808,27.28 160.744,27.216 L160.808,27.024 L160.552,27.28 C160.552,27.472 160.616,27.536 160.68,27.6 L160.552,27.664 Z M160.68,29.968 L160.616,29.968 L160.616,30.096 L160.68,29.968 Z M160.36,31.056 L160.296,30.992 C160.232,31.056 160.232,31.056 160.232,31.12 L160.168,31.184 C160.168,31.248 160.168,31.248 160.232,31.248 L160.36,31.248 L160.36,31.056 Z M160.104729,29.3793281 C160.111972,29.3123042 160.171986,29.196014 160.232,29.136 L160.232,28.816 L160.04,29.136 C159.976,29.2 159.976,29.2 160.04,29.264 C160.097227,29.3212271 160.103283,29.3272833 160.103924,29.37368 L160.104729,29.3793281 Z M159.912,32.144 L159.912,32.208 L159.976,32.144 L159.912,32.144 Z M159.592,30.608 L159.592,30.992 C159.592,31.056 159.656,30.992 159.72,30.8 L159.72,30.544 L159.592,30.608 Z M159.72,33.104 L159.592,33.168 L159.656,33.168 L159.72,33.104 Z M158.44,34.32 L158.504,34.256 L158.312,34.384 L158.44,34.32 Z M158.76,33.424 L158.824,33.296 L158.632,33.36 L158.76,33.424 Z M159.144,32.08 L159.08,32.208 C159.144,32.144 159.144,32.144 159.144,32.08 Z M162.792,25.552 L162.792,24.656 C162.728,24.848 162.664,25.04 162.664,25.104 C162.6,25.168 162.6,25.232 162.536,25.296 L159.336,35.536 L159.144,36.56 C159.4,36.24 159.528,35.984 159.592,35.792 C160.232,34.064 160.808,32.4 161.32,30.672 C161.832,28.944 162.344,27.28 162.792,25.552 Z M163.176,23.376 C163.112,23.376 163.112,23.376 163.176,23.312 L162.984,23.376 C162.984,23.44 162.984,23.44 163.048,23.44 L163.048,23.568 L163.112,23.504 C163.112,23.44 163.112,23.44 163.176,23.376 Z M189.672,43.792 C189.8,43.536 190.056,43.344 190.376,43.152 C190.184,43.408 189.992,43.6 189.8,43.856 C189.544,44.112 189.352,44.368 189.16,44.56 C189.352,44.304 189.48,44.048 189.672,43.792 Z M181.768122,52.8562923 C181.834299,52.8130787 181.891537,52.7609267 181.928,52.688 L181.768122,52.8562925 L181.768122,52.8562923 Z M181.768122,52.8562923 L180.712,53.968 L181.16,53.136 C181.288,53.072 181.416,53.008 181.608,52.944 C181.663073,52.9164633 181.718147,52.8889267 181.768122,52.8562923 Z M186.92,47.056 L187.944,45.968 L188.264,45.648 C188.136,45.776 188.072,45.904 188.008,45.968 L186.92,47.12 L186.92,47.056 Z M184.872,49.488 L186.152,48.016 C185.704,48.4 185.256,48.848 184.872,49.488 Z M189.736,41.36 L192.36,40.976 L191.208,42.192 C191.144,42.128 191.144,42.064 191.144,42 C191.144,42 191.144,41.936 191.08,41.808 L191.144,41.68 L191.08,41.744 L191.08,41.808 L190.76,42.192 L191.208,42.192 L190.44,43.088 C190.44,42.896 190.376,42.768 190.312,42.64 L189.8,42.896 L189.48,43.28 L189.608,42.896 L189.352,43.28 L189.48,43.28 L189.224,43.728 L188.84,44.176 L188.968,43.792 L188.648,44.176 L188.84,44.176 L188.456,44.624 C188.392,44.752 188.264,44.88 188.072,45.008 L188.2,44.688 L187.816,45.072 L188.072,45.072 L187.688,45.52 C187.688,45.456 187.688,45.392 187.752,45.328 L187.752,45.136 C187.368,45.392 187.048,45.712 186.792,46.032 C186.536,46.416 186.28,46.736 186.088,47.056 C186.024,47.184 186.024,47.184 186.024,47.248 C185.96,47.248 185.96,47.312 185.896,47.376 L186.024,47.056 C185.96,47.12 185.832,47.184 185.768,47.184 C185.704,47.248 185.576,47.312 185.512,47.312 C185.832,46.928 186.088,46.544 186.344,46.224 C186.6,45.84 186.856,45.52 187.112,45.136 L186.6,45.328 L187.368,44.432 L187.176,45.008 L187.496,44.688 C187.624,44.496 187.752,44.368 187.88,44.176 C187.816,44.24 187.752,44.24 187.752,44.176 C187.752,44.112 187.944,43.792 188.392,43.152 L188.2,43.792 C188.264,43.792 188.264,43.792 188.264,43.728 L188.2,43.792 L188.904,42.96 L188.52,43.088 L189.16,42.256 L189.032,42.832 L189.672,42 L189.224,42.192 C189.352,41.936 189.544,41.616 189.736,41.36 Z M188.328,44.624 L188.456,44.24 L188.136,44.624 L188.328,44.624 Z M189.16,43.728 L189.288,43.344 L188.968,43.728 L189.16,43.728 Z M190.12,42.32 C190.12,42.32 190.12,42.256 190.184,42.192 L189.928,42.448 L189.608,42.832 L189.8,42.832 L189.928,42.448 L189.992,42.448 C190.056,42.448 190.056,42.384 190.12,42.32 Z M191.912,40.784 C191.976,40.784 192.04,40.72 192.104,40.656 L191.912,40.784 Z M185.128,47.12 L185,47.504 L185.512,47.312 C185.32,47.568 185.192,47.76 185.064,48.016 C184.936,48.208 184.808,48.464 184.616,48.656 L184.296,49.104 L183.848,49.552 L182.888,50.64 C182.824,50.768 182.76,50.832 182.696,50.896 C182.632,50.96 182.504,51.024 182.44,51.088 L181.352,51.984 C181.096,52.368 181.032,52.752 181.16,53.072 L180.392,53.52 C180.2,53.84 180.136,54.032 180.2,54.096 C180.264,54.16 180.392,54.16 180.648,54.032 C180.2,54.544 179.752,55.056 179.304,55.504 C178.792,55.952 178.28,56.336 177.704,56.72 C177,57.232 176.168,57.424 175.272,57.296 C174.312,57.168 173.736,56.784 173.544,56.08 C173.352,55.44 173.352,54.608 173.48,53.712 C173.608,52.88 173.8,52.048 174.12,51.216 C174.376,50.448 174.696,49.616 175.016,48.72 C175.976,46.032 177.192,43.344 178.664,40.72 C180.136,38.096 181.608,35.472 183.08,32.784 C183.4,32.272 183.72,31.696 183.976,31.184 C184.296,30.608 184.552,30.096 184.872,29.52 C184.936,29.456 185,29.392 185,29.264 C184.936,29.2 184.936,29.136 185,29.008 C184.872,29.072 184.744,29.072 184.68,29.072 C184.616,29.008 184.488,29.072 184.424,29.136 C183.912,29.456 183.4,29.712 182.824,30.032 C182.312,30.288 181.8,30.608 181.288,30.928 C179.368,32.208 177.512,33.616 175.72,35.024 C173.928,36.496 172.136,38.032 170.408,39.568 C168.936,40.976 167.464,42.384 166.056,43.856 C164.648,45.328 163.24,46.8 161.896,48.272 C161.768,48.464 161.64,48.592 161.512,48.784 C161.384,48.912 161.256,49.04 161.128,49.104 C160.808,49.36 160.552,49.488 160.36,49.488 C159.912,49.552 159.464,49.552 159.016,49.488 C158.568,49.424 158.12,49.296 157.736,49.04 C157.416,48.848 157.224,48.592 157.288,48.272 C157.352,47.888 157.416,47.504 157.48,47.184 C157.48,46.8 157.544,46.416 157.608,46.032 C157.928,44.688 158.184,43.28 158.504,41.872 C158.824,40.464 159.144,39.056 159.528,37.648 C159.912,35.856 160.36,34.064 160.872,32.272 C161.384,30.48 162.024,28.688 162.728,26.896 L164.84,21.456 C166.248,18.064 167.912,14.736 169.832,11.536 C171.752,8.336 174.056,5.264 176.744,2.192 C177.32,1.552 177.896,0.912 178.344,0.4 C178.664,0.016 178.984,-0.304 179.368,-0.688 C179.496,-0.816 179.624,-0.88 179.752,-1.008 C180.52,-1.392 181.224,-1.904 181.928,-2.416 C182.632,-2.864 183.4,-3.248 184.104,-3.632 C185,-4.016 185.768,-4.336 186.6,-4.272 C186.792,-4.144 186.92,-4.08 187.112,-4.016 L187.176,-4.016 C187.368,-3.888 187.624,-3.76 187.816,-3.568 C187.88,-3.504 187.944,-3.504 188.008,-3.44 C188.008,-3.376 188.072,-3.376 188.072,-3.312 C187.944,-2.8 187.752,-2.288 187.624,-1.776 C186.984,0.016 186.28,1.744 185.512,3.408 C184.744,5.072 183.848,6.672 182.952,8.336 C181.48,11.088 179.944,13.712 178.28,16.272 C176.616,18.832 174.824,21.392 173.032,23.824 C171.304,26 169.576,28.112 167.848,30.16 C166.696,31.504 165.48,32.848 164.264,34.128 C164.264,34.192 164.2,34.192 164.2,34.256 C164.072,34.64 163.944,34.96 163.88,35.28 C163.816,35.6 163.688,35.92 163.624,36.24 L161.768,43.6 L161.64,43.92 C161.768,44.048 161.832,44.112 161.768,44.112 C161.832,44.112 161.96,44.112 162.152,43.984 L162.92,43.216 C164.072,42.064 165.224,40.912 166.44,39.824 C167.656,38.672 168.872,37.584 170.088,36.56 C171.88,35.152 173.608,33.808 175.336,32.464 C177.064,31.12 178.856,29.904 180.712,28.752 C181.416,28.368 182.056,28.048 182.76,27.728 C183.4,27.408 184.104,27.088 184.808,26.832 C185.512,26.64 186.152,26.576 186.856,26.704 C188.264,27.152 188.712,28.112 188.136,29.52 C187.944,30.096 187.688,30.608 187.432,31.12 C187.176,31.632 186.92,32.208 186.6,32.72 C185.64,34.448 184.68,36.176 183.72,37.84 C182.696,39.568 181.736,41.296 180.776,42.96 C179.88,44.624 179.048,46.224 178.28,47.824 C177.512,49.488 176.872,51.088 176.296,52.752 C176.168,53.2 176.104,53.584 176.04,53.968 C175.976,54.352 175.848,54.8 175.784,55.184 C175.72,55.376 175.72,55.568 175.784,55.696 C175.784,55.888 175.848,56.016 175.912,56.016 C176.104,56.144 176.296,56.08 176.488,55.952 L176.936,55.504 L178.856,53.84 L179.88,52.88 L180.2,52.496 C180.2,52.688 180.2,52.816 180.136,52.88 L180.776,52.24 L181.288,51.984 C181.48,51.728 181.672,51.472 181.8,51.088 L182.184,50.64 L181.992,50.64 L182.312,50.256 C182.248,50.384 182.248,50.512 182.248,50.64 L183.208,49.552 L182.696,49.744 C182.76,49.68 182.888,49.552 183.016,49.488 L183.4,49.104 L183.272,49.488 L183.592,49.104 L183.4,49.104 L183.72,48.72 C183.656,48.912 183.592,49.04 183.656,49.104 C184.168,48.72 184.616,48.208 184.936,47.568 L184.488,47.76 L185.128,47.12 Z M187.048,29.648 L186.92,30.16 L187.112,29.968 C187.176,29.904 187.176,29.84 187.24,29.712 C187.368,29.712 187.368,29.648 187.24,29.52 C187.24,29.584 187.176,29.584 187.112,29.584 C187.048,29.584 187.048,29.648 187.048,29.648 Z M172.584,22.992 L172.584,22.928 C172.52,22.992 172.456,23.056 172.456,23.12 C172.52,23.12 172.584,23.056 172.584,22.992 Z M175.208,19.472 L175.272,19.408 L175.144,19.408 L175.016,19.6 L175.208,19.472 Z M185.064,2.704 L185.064,2.64 L183.848,4.944 C183.4,5.712 183.016,6.416 182.632,7.12 C182.248,7.888 181.8,8.592 181.352,9.296 C180.648,10.512 179.944,11.664 179.24,12.816 C178.472,13.968 177.768,15.184 177.064,16.4 C176.936,16.656 176.744,16.912 176.616,17.168 C176.424,17.424 176.232,17.68 176.104,17.936 L175.848,18.256 C175.848,18.384 175.784,18.512 175.72,18.64 L175.528,19.024 L175.976,18.448 L177.256,16.528 L177.704,15.888 C178.6,14.416 179.56,12.944 180.52,11.408 C181.416,9.936 182.312,8.4 183.208,6.864 L183.976,5.072 C184.104,4.688 184.296,4.24 184.488,3.856 C184.616,3.472 184.808,3.088 185.064,2.704 Z M177.448,13.648 L177.512,13.648 L177.704,13.072 L177.448,13.648 Z M178.088,13.968 L177.832,14.16 L177.896,14.224 L178.088,13.968 Z M177.896,13.008 C177.896,13.008 177.96,13.008 177.96,12.944 C178.088,12.816 178.152,12.688 178.152,12.56 C178.088,12.688 178.024,12.752 177.96,12.816 C177.896,12.88 177.896,12.944 177.896,13.008 Z M178.344,12.176 C178.408,12.176 178.472,12.112 178.536,11.984 C178.536,11.984 178.536,11.92 178.6,11.92 L178.6,11.728 C178.6,11.856 178.536,11.92 178.536,11.92 C178.472,11.92 178.472,11.984 178.472,11.984 L178.344,12.176 Z M179.685387,11.2181109 C179.688,11.1960739 179.688,11.174037 179.688,11.152 C179.688,11.1730094 179.688,11.1940189 179.683472,11.2150283 L179.685387,11.2181109 Z M179.56,10.192 L180.008,9.552 L180.328,8.848 L180.008,9.488 L179.56,10.192 Z M180.52,9.808 L180.648,9.552 L180.904,9.232 C180.776,9.36 180.712,9.488 180.584,9.552 L180.52,9.808 Z M182.184,5.584 C182.44,5.328 182.632,5.008 182.696,4.624 C182.568,4.752 182.504,4.944 182.44,5.072 C182.312,5.264 182.248,5.456 182.184,5.584 C182.12,5.712 181.992,5.84 181.864,6.096 C181.864,6.16 181.8,6.224 181.8,6.224 L181.928,6.096 L182.184,5.584 Z M182.76,5.904 L182.696,5.968 C182.696,6.096 182.632,6.16 182.632,6.16 L182.632,6.288 L182.76,5.904 Z M182.568,6.416 C182.504,6.48 182.504,6.48 182.44,6.48 C182.44,6.544 182.376,6.608 182.312,6.672 L182.568,6.416 Z M181.962782,7.49438181 C181.972367,7.47776022 181.982184,7.45963294 181.992,7.44 C181.982525,7.45895059 181.973049,7.47649836 181.963574,7.49264329 L181.962782,7.49438181 Z M181.352,7.184 L181.672,6.608 C181.544,6.736 181.48,6.8 181.48,6.864 C181.416,6.992 181.352,7.056 181.288,7.184 L181.032,7.568 C181.16,7.44 181.288,7.312 181.352,7.184 Z M181.16,8.656 L180.968,8.976 L181.224,8.656 L181.48,8.208 C181.352,8.336 181.288,8.4 181.288,8.464 C181.288,8.592 181.224,8.656 181.16,8.656 Z M183.144,3.536 L183.336,3.344 C183.336,3.28 183.4,3.216 183.528,3.088 L183.528,2.96 L183.464,3.088 L183.144,3.536 Z M185.32,2.256 L185.576,1.424 L185.32,2.192 L185.192,2.384 L185.32,2.256 Z M177.256,2.576 C176.872,3.024 176.552,3.408 176.36,3.664 C176.68,3.408 177.064,3.088 177.512,2.576 C177.96,2.128 178.344,1.68 178.792,1.168 C179.24,0.72 179.624,0.272 179.944,-0.048 C180.264,-0.432 180.392,-0.624 180.456,-0.752 C180.52,-0.816 180.328,-0.688 180.008,-0.368 C179.688,0.016 179.048,0.592 178.216,1.488 C177.896,1.744 177.576,2.128 177.256,2.576 Z M179.112,1.68 L178.664,2.128 L178.92,1.936 C178.92,1.936 178.92,1.872 178.984,1.872 C179.048,1.808 179.048,1.808 179.112,1.68 Z M178.152,2.704 L178.216,2.64 L178.472,2.32 L178.216,2.576 C178.152002,2.63999807 178.152,2.70399615 178.152,2.704 Z M177.576,3.472 L177.192,3.92 C177.192,3.984 177.192,3.984 177.128,3.984 C177.064,3.984 177.064,4.048 177.064,4.048 L177.192,3.984 L177.576,3.536 L177.576,3.472 Z M176.573404,4.70569544 C176.51866,4.74246362 176.460768,4.77923181 176.424,4.816 C176.424,4.83942563 176.424,4.86285125 176.420862,4.88313844 L176.424,4.88 L176.573404,4.70569544 Z M176.420862,4.88313844 C176.415426,4.91827688 176.400574,4.944 176.36,4.944 L176.420862,4.88313844 Z M176.04,4.176 C175.464,4.56 175.08,5.072 174.888,5.712 C175.08,5.52 175.336,5.264 175.528,5.008 C175.72,4.752 175.912,4.496 176.04,4.176 Z M173.928,6.928 C173.864,6.992 173.864,7.056 173.864,7.056 L174.056,6.864 L174.376,6.352 L173.992,6.8 C173.992,6.864 173.992,6.928 173.928,6.928 Z M173.685205,7.20736869 C173.672,7.22565272 173.672,7.248 173.672,7.248 L173.16,7.952 L173.672,7.312 C173.672,7.26766211 173.672,7.22332423 173.69328,7.20026602 L173.685205,7.20736869 Z M173.110733,11.0091415 C173.294646,10.8220943 173.420953,10.6350472 173.608,10.448 C173.736,10.32 173.864,10.128 173.992,9.872 C175.08,8.336 176.168,6.8 177.32,5.328 C178.408,3.856 179.688,2.448 181.032,1.04 L182.44,-0.432 L182.696,-0.688 L183.016,-0.944 L182.376,-0.56 C181.928,-0.176 181.544,0.144 181.16,0.528 C180.712,0.848 180.328,1.232 180.008,1.616 C178.664,3.024 177.448,4.432 176.424,5.904 C175.336,7.376 174.312,8.848 173.352,10.384 C173.288,10.512 173.224,10.576 173.224,10.704 C173.171499,10.8090017 173.162066,10.9140033 173.125042,10.9836754 L173.110733,11.0091415 Z M172.392,12.112 L172.392,12.176 L172.52,12.112 L172.584,11.984 C172.52,11.984 172.456,12.048 172.392,12.112 Z M171.688,13.456 L171.56,13.712 C171.624,13.712 171.688,13.648 171.752,13.584 C171.752,13.584 171.752,13.52 171.816,13.456 L171.816,13.328 L171.688,13.456 Z M171.368,13.904 L171.368,14.16 C171.368,14.16 171.368,14.096 171.432,14.096 C171.496,14.032 171.496,14.032 171.496,13.968 L171.56,13.776 L171.496,13.84 C171.432,13.84 171.432,13.904 171.368,13.904 Z M170.664,15.312 L170.664,15.376 L170.792,15.376 L170.728,15.312 L170.664,15.312 Z M169.896,16.912 L169.832,17.04 L169.896,17.04 C169.96,16.976 169.96,16.976 169.96,16.912 C170.024,16.848 170.088,16.784 170.088,16.72 L170.024,16.656 C170.024,16.72 170.024,16.784 169.96,16.784 C169.896,16.848 169.896,16.912 169.896,16.912 Z M169.64,17.36 L169.512,17.616 C169.576,17.552 169.64,17.488 169.64,17.424 C169.704,17.296 169.768,17.232 169.832,17.168 L169.64,17.36 Z M173.16,11.536 C171.368,14.672 169.896,17.872 168.68,21.136 C167.784,23.504 166.952,25.744 166.248,27.92 C168.232,25.552 170.216,23.12 172.008,20.624 C174.696,16.976 177.256,13.136 179.624,9.104 C180.584,7.44 181.544,5.712 182.44,3.984 C183.336,2.256 184.104,0.464 184.744,-1.392 C184.744,-1.456 184.808,-1.584 184.808,-1.712 C182.952,-0.368 181.224,1.04 179.752,2.64 C177.128,5.456 174.952,8.4 173.16,11.536 Z M186.792,30.224 L185.448,32.4 C184.296,34.576 183.08,36.752 181.864,38.864 C180.648,40.976 179.496,43.088 178.408,45.264 L177.384,47.568 C177.32,47.696 177.256,47.76 177.32,47.888 C177.32,48.016 177.32,48.144 177.256,48.208 L177.512,47.952 C177.576,47.824 177.576,47.76 177.64,47.632 L180.584,41.872 L186.28,31.632 C186.408,31.44 186.536,31.184 186.6,30.928 C186.664,30.672 186.728,30.48 186.792,30.224 Z M179.496,41.936 C179.56,42 179.56,42.064 179.56,42.064 L179.688,42 L179.56,41.872 L179.496,41.936 Z M185,30.736 C184.936,30.864 184.872,30.928 184.872,30.992 L185.064,30.8 L185.128,30.672 C185.064,30.672 185.064,30.736 185,30.736 Z M184.616,31.248 L184.616,31.44 C184.68,31.376 184.744,31.312 184.744,31.248 L184.808,31.056 L184.616,31.248 Z M184.104,32.464 L183.912,32.592 L183.976,32.592 C184.04,32.592 184.04,32.592 184.104,32.528 L184.104,32.464 Z M182.952,34.256 C182.888,34.384 182.888,34.384 182.952,34.384 L183.08,34.32 L183.144,34 L183.336,33.808 C183.4,33.808 183.4,33.744 183.4,33.744 C183.4,33.68 183.4,33.68 183.464,33.616 C183.528,33.616 183.528,33.552 183.464,33.552 C183.336,33.616 183.272,33.68 183.208,33.808 L183.144,34 C183.08,34.128 183.08,34.128 183.016,34.192 C182.952,34.192 182.952,34.256 182.952,34.256 Z M182.696,36.496 L182.632,36.624 L182.76,36.496 C182.824,36.496 182.824,36.432 182.824,36.432 C182.824,36.368 182.824,36.368 182.888,36.304 C182.888,36.304 182.888,36.24 182.824,36.24 C182.824,36.304 182.824,36.304 182.76,36.368 C182.696,36.368 182.696,36.432 182.696,36.496 Z M182.312,37.072 C182.248,37.2 182.12,37.392 182.056,37.52 L181.864,37.712 L181.8,37.904 C181.736,37.904 181.736,37.968 181.8,37.968 L181.992,37.712 L182.056,37.52 L182.632,36.688 C182.504,36.816 182.376,36.944 182.312,37.072 Z M181.672,36.688 C181.608,36.752 181.608,36.816 181.608,36.88 C181.608,36.88 181.672,36.816 181.736,36.688 C181.8,36.688 181.8,36.624 181.8,36.624 C181.8,36.56 181.8,36.56 181.864,36.496 C181.864,36.496 181.864,36.432 181.8,36.432 C181.8,36.496 181.8,36.496 181.736,36.56 C181.672,36.56 181.672,36.624 181.672,36.688 Z M181.288,37.392 C181.352,37.264 181.48,37.136 181.544,36.944 C181.48,37.2 181.288,37.456 181.032,37.776 C181.096,37.648 181.224,37.52 181.288,37.392 Z M180.712,40.08 C180.776,40.08 180.776,40.016 180.712,39.952 L180.52,40.336 L180.584,40.336 L180.584,40.272 C180.648,40.272 180.712,40.208 180.712,40.08 Z M180.392,38.864 L180.328,39.056 C180.392,39.056 180.456,39.056 180.456,38.928 L180.584,38.8 C180.52,38.736 180.52,38.736 180.584,38.672 L180.392,38.864 Z M180.196862,40.7871384 C180.191426,40.8222769 180.176574,40.848 180.136,40.848 L180.196862,40.7871384 Z M180.196862,40.7871384 L180.328,40.656 L180.392,40.464 L180.264,40.592 C180.2,40.656 180.136,40.72 180.2,40.72 C180.2,40.7434256 180.2,40.7668513 180.196862,40.7871384 Z M179.56,40.528 C179.56,40.528 179.56,40.592 179.496,40.656 C179.56,40.656 179.624,40.592 179.688,40.528 C179.688,40.528 179.688,40.464 179.752,40.4 C179.816,40.4 179.816,40.336 179.816,40.336 C179.752,40.272 179.752,40.272 179.816,40.208 L179.624,40.336 C179.56,40.464 179.496,40.464 179.56,40.528 Z M179.304,40.848 C179.24,40.912 179.24,40.976 179.24,41.04 L179.304,41.104 C179.368,41.04 179.432,40.976 179.432,40.848 L179.496,40.72 C179.432,40.72 179.368,40.784 179.304,40.848 Z M178.984,43.024 L178.984,43.152 L179.112,43.152 L179.112,43.024 L178.984,43.024 Z M178.536,42.32 L178.536,42.512 L178.728,42.32 L178.728,42.128 L178.536,42.32 Z M177.96,43.6 C177.896,43.664 177.896,43.728 177.896,43.792 C177.96,43.792 178.024,43.792 178.024,43.664 C178.088,43.664 178.088,43.6 178.024,43.472 C178.024,43.536 178.024,43.6 177.96,43.6 Z M177.768,45.712 L177.64,45.776 C177.704,45.776 177.704,45.776 177.704,45.84 L177.768,45.84 L177.768,45.776 C177.832,45.776 177.832,45.712 177.768,45.712 Z M177.237114,45.2639822 C177.243071,45.264 177.249363,45.264 177.256,45.264 C177.256,45.264 177.256,45.2630565 177.256115,45.2612841 L177.237114,45.2639822 Z M176.424,46.672 L176.424,47.056 C176.424,47.056 176.424,46.992 176.488,46.992 C176.552,46.928 176.552,46.928 176.616,46.8 L176.616,46.48 L176.424,46.672 Z M176.296,50.32 L175.976,51.408 C176.104,51.408 176.232,51.408 176.296,51.344 C176.488,50.96 176.552,50.64 176.616,50.256 C176.68,49.936 176.744,49.616 176.744,49.36 C176.68,49.552 176.616,49.68 176.552,49.872 C176.488,50 176.36,50.192 176.296,50.32 Z M175.272,49.872 L175.592,49.488 L175.464,49.232 C175.4,49.36 175.336,49.424 175.336,49.488 C175.272,49.616 175.272,49.744 175.272,49.872 Z M180.392,52.432 L180.264,52.496 L180.328,52.432 L180.392,52.432 Z M183.016,51.536 L182.632,51.984 C182.696,51.92 182.824,51.792 183.016,51.536 Z M185.512,46.8 C185.512,46.736 185.576,46.736 185.576,46.672 C185.576,46.736 185.512,46.736 185.512,46.8 L185.448,46.8 L185.512,46.8 Z M185.416258,46.8583292 C185.427026,46.840229 185.437513,46.8209737 185.448,46.8 C185.448,46.8289645 185.434891,46.8448206 185.42054,46.8594332 L185.416258,46.8583292 Z M185.42054,46.8594332 C185.403179,46.8771085 185.384,46.8929645 185.384,46.928 L185.192,47.12 C185.299026,47.0129737 185.361308,46.950692 185.416258,46.8583292 L185.42054,46.8594332 Z M186.92,47.152 C186.936,47.136 186.952,47.12 186.984,47.12 L186.92,47.152 Z M186.92,47.152 C186.904,47.168 186.888,47.184 186.856,47.184 L186.92,47.152 Z M188.456,43.152 L188.456,43.088 L188.52,43.088 L188.456,43.152 Z M218.044758,38.8459821 C217.997314,38.8998066 217.97392,38.9387507 217.953051,38.9628144 C217.975122,38.9617555 217.99111,38.9297802 218.024,38.864 C218.024,38.864 218.031833,38.8561672 218.044758,38.8459821 Z M217.953051,38.9628144 C217.936176,38.9822715 217.920952,38.992 217.896,38.992 C217.92711,38.992 217.943098,38.992 217.958664,38.9772984 L217.953051,38.9628144 Z M218.044758,38.8459821 C218.057345,38.8317021 218.071625,38.8163748 218.088,38.8 L218.152,38.8 C218.11039,38.8 218.068779,38.8270534 218.044758,38.8459821 Z M214.504,44.56 C214.504,44.496 214.632,44.304 214.632,44.24 L214.504,44.56 Z M215.4,43.024 L214.952,43.856 L214.632,44.24 L214.888,43.856 L215.336,43.024 L216.168,42.064 L215.4,43.024 Z M221.124708,36.5901125 L221.16,36.496 C221.145778,36.5244444 221.134716,36.5560494 221.124708,36.5901125 Z M220.648,35.216 L220.904,34.96 L220.84,34.96 L220.648,35.216 Z M218.088,38.672 L218.344,38.352 C218.216,38.48 218.152,38.544 218.088,38.672 Z M219.970233,36.6004704 C219.9687,36.5890655 219.960716,36.5767157 219.944,36.56 C219.960643,36.5766429 219.96863,36.588958 219.971338,36.6003214 L219.970233,36.6004704 Z M219.261786,36.8400586 L219.624,36.176 L219.304,36.816 C219.287961,36.8240195 219.273932,36.8320391 219.261786,36.8400586 Z M219.261786,36.8400586 C219.177005,36.8960391 219.18402,36.9520195 219.24,37.008 C219.176,36.944 219.176,36.944 219.24,36.88 L219.261786,36.8400586 Z M219.0224,38.2752 L218.664,38.736 C218.7152,38.5824 218.88928,38.4288 219.0224,38.2752 Z M219.0224,38.2752 C219.05568,38.2368 219.0864,38.1984 219.112,38.16 L219.0224,38.2752 Z M219.433592,39.6512106 L219.369891,39.736145 C219.393517,39.7126677 219.414311,39.6852351 219.433592,39.6512106 Z M218.922351,40.3976494 C218.891986,40.4161871 218.866292,40.4391999 218.842589,40.4774114 L218.922351,40.3976494 Z M219.048,37.392 C218.984,37.456 218.92,37.648 218.856,37.776 L218.6,37.84 L218.728,37.584 L219.048,37.392 Z M213.8,48.592 L214.184,47.888 C213.928,48.016 213.8,48.272 213.8,48.592 Z M210.472,52.88 L210.408,53.072 L210.6,53.072 C209.896,54.48 208.808,55.568 207.656,56.656 C206.504,57.68 205.416,57.68 204.392,57.36 C203.432,56.976 203.048,55.888 202.92,54.736 C202.728,53.136 203.112,51.472 203.496,49.936 C204.008,47.44 205.032,44.944 206.056,42.512 C206.184,42.128 206.568,41.68 206.248,41.36 C205.992,41.552 205.736,41.872 205.48,42.192 C203.176,44.816 201,47.312 198.696,49.872 C197.672,50.896 196.392,51.984 195.24,52.816 C192.68,54.608 191.592,54.48 189.8,53.008 C188.328,51.92 188.264,50.064 188.712,47.952 C189.032,46.352 189.672,44.752 190.504,43.28 C193.896,37.776 197.928,33.232 203.24,30.032 C205.096,28.944 206.888,28.048 208.872,27.472 C210.472,27.024 211.88,27.088 213.288,27.728 C213.672,27.984 214.12,28.368 214.568,28.752 C214.76,28.88 214.76,29.2 214.824,29.456 C214.568,29.456 214.376,29.392 214.12,29.328 C212.648,28.624 210.984,29.008 209.256,29.648 C206.76,30.48 204.456,31.952 202.28,33.552 C198.312,36.624 195.112,40.464 192.552,44.88 C191.72,46.288 191.016,47.696 190.696,49.232 C190.568,50.064 190.504,50.832 190.632,51.6 C190.632,52.24 190.888,52.304 191.4,52.176 C191.72,52.112 191.976,51.984 192.296,51.792 C193.704,51.28 194.92,50.384 196.072,49.232 C197.416,47.888 198.824,46.544 200.104,45.072 L208.744,34.768 L210.408,32.72 C210.664,32.4 211.048,32.272 211.368,32.464 C211.56,32.528 211.816,32.656 212.008,32.784 C212.712,33.424 212.648,33.552 212.2,34.64 C210.216,38.416 208.424,42.256 206.888,46.096 C205.928,48.592 205.032,51.024 204.648,53.52 C204.648,54.224 204.648,54.928 204.712,55.568 C204.712,56.08 204.904,56.144 205.416,55.888 C205.8,55.632 206.184,55.312 206.376,54.992 C207.464,53.968 208.36,52.944 209.256,51.92 L210.088,50.96 L209.448,52.048 C209.192,52.432 209,52.752 208.808,53.072 C208.808,53.072 208.744,53.072 208.68,53.136 L208.808,53.136 C209.32,52.688 209.64,52.176 210.152,51.536 C212.904,47.888 215.4,44.048 217.768,40.144 C218.088,39.696 218.28,39.248 218.664,38.8 L218.152,40.016 C215.528,44.112 212.968,48.208 210.152,52.176 C209.832,52.624 209.256,53.136 209.32,53.776 C209.064,54.224 208.744,54.608 208.36,54.992 L208.36,55.056 L208.424,54.992 C209.064,54.736 209.64,54.16 209.768,53.456 L210.024,53.2 L210.216,53.2 L210.216,53.136 L210.28,53.136 L210.472,52.88 Z M199.784,34.768 L199.272,35.088 C198.568,35.536 196.52,37.84 196.52,37.84 L196.328,38.096 C196.2,38.16 196.136,38.288 196.008,38.416 L195.752,38.672 L194.216,40.784 C194.152,40.912 194.024,41.04 193.896,41.104 L193.32,42.256 C193,42.448 192.872,42.64 192.808,43.024 C192.808,43.088 192.616,43.216 192.68,43.216 C192.808,43.28 192.808,43.216 192.872,43.024 L193.384,42.384 L194.088,41.232 L194.28,40.976 C194.856,40.208 195.432,39.504 195.944,38.8 L196.136,38.544 C196.264,38.416 196.392,38.352 196.456,38.224 L196.712,38.032 L198.504,36.048 L199.4,35.152 C199.464,35.024 199.592,34.896 199.784,34.768 Z M199.016,34.512 C198.12,35.216 195.624,37.904 194.984,38.928 C195.304,38.608 198.504,35.024 199.016,34.512 Z M190.312,44.688 C192.36,41.744 194.664,38.352 194.664,38.352 L194.856,38.032 L195.432,37.456 L195.624,37.2 L195.816,37.008 L196.008,36.624 L195.752,36.88 L195.56,37.2 L195.112,37.712 L194.792,38.032 L194.6,38.288 C194.536,38.352 191.528,42.064 190.312,44.688 Z M209.512,34.512 C209.064,34.896 205.48,39.312 205.224,39.888 C205.736,39.568 209.256,35.088 209.512,34.512 Z M200.296,45.456 C200.232,45.52 200.168,45.584 200.168,45.648 L200.296,45.52 C200.36,45.328 204.264,41.232 204.712,40.656 C204.648,40.528 200.296,45.456 200.296,45.456 Z M199.336,46.544 C199.336,46.608 199.208,46.736 199.208,46.8 L199.656,46.288 L199.336,46.544 Z M198.76,47.376 L199.144,46.864 L198.76,47.376 Z M197.928,49.808 C197.928,49.744 198.056,49.744 197.992,49.68 C197.928,49.68 197.928,49.744 197.864,49.744 L197.736,50 L197.928,49.808 Z M198.376,49.296 C198.376,49.296 199.336,48.464 199.208,48.4 C199.144,48.4 198.312,49.232 198.312,49.232 C198.248,49.36 198.248,49.36 198.248,49.424 C198.312,49.424 198.312,49.424 198.376,49.296 Z M203.176,44.112 C204.264,42.768 205.416,41.36 206.504,39.952 L206.824,39.696 L207.016,39.504 C207.08,39.312 207.208,39.248 207.272,39.184 L207.592,38.544 C207.528,38.672 207.4,38.736 207.336,38.736 C207.208,38.928 207.144,38.992 207.08,39.056 L206.888,39.312 L206.632,39.632 L206.376,39.888 C205.928,40.4 205.544,40.912 205.032,41.36 L200.168,47.248 L199.976,47.568 L199.656,47.824 L199.4,48.144 L199.272,48.4 L199.464,48.144 L199.784,47.952 C199.784,47.824 199.912,47.696 200.04,47.632 L200.232,47.376 C201.256,46.224 202.216,45.2 203.176,44.112 Z M207.928,54.128 C207.88,54.192 207.848,54.256 207.848,54.288 C207.88,54.224 207.912,54.176 207.952,54.128 L207.928,54.128 Z M208.232,53.712 C208.36,53.648 208.424,53.52 208.488,53.392 L208.232,53.712 Z M213.032,49.68 L213.48,48.912 C213.224,49.104 213.032,49.36 213.032,49.68 Z M211.932995,48.3330088 L212.008,48.208 C211.96633,48.2496696 211.945009,48.2913392 211.932995,48.3330088 Z M211.932995,48.3330088 C211.908104,48.4193392 211.923165,48.5056696 211.88,48.592 L211.112,49.552 L211.816,48.528 L211.932995,48.3330088 Z M210.792,52.56 L211.432,51.792 L211.624,51.728 L210.664,52.944 L210.792,52.56 Z M211.624,51.728 L211.432,51.536 L212.264,50.704 C212.072,51.024 211.88,51.408 211.624,51.728 Z M213.48,48.912 L213.8,48.592 C213.736,48.656 213.608,48.72 213.48,48.912 Z M217.832,42.256 L218.344,41.36 C218.152,41.488 218.088,41.68 218.024,41.872 L217.832,42.256 Z M215.976,45.2 L216.168,44.944 L216.232,44.944 C216.168,44.944 216.168,45.008 216.168,45.008 L215.976,45.2 Z M214.952,46.736 L215.4,46.096 C215.208,46.224 214.952,46.48 214.952,46.736 Z M212.328,50.64 L212.328,50.448 L212.968,49.744 L212.328,50.64 Z M214.823979,46.9920107 C214.823993,46.9920036 214.824,46.992 214.824,46.992 C214.824,46.992 214.823993,46.9920036 214.823978,46.9920108 L214.823979,46.9920107 Z M214.823978,46.9920108 C214.822083,46.9929623 214.696,47.0564811 214.696,47.12 C214.696,47.312 214.632,47.44 214.504,47.568 L214.632,47.056 C214.695521,47.056 214.822086,46.9929553 214.823979,46.9920107 L214.823978,46.9920108 Z M235.112,40.08 L234.728,40.528 L234.92,40.08 L235.112,40.08 Z M233.96,39.952 L234.088,39.824 L234.472,39.376 L234.472,39.44 C234.344,39.568 234.216,39.696 234.088,39.888 C234.024,39.888 233.96,39.952 233.96,39.952 Z M234.216,41.616 L235.304,40.784 C233.832,42.896 223.848,54.992 221.928,56.784 C221.096,57.552 220.2,57.872 219.304,57.808 C217.448,57.744 216.232,56.976 216.04,55.12 C215.848,52.752 216.04,50.256 216.488,47.76 C216.936,44.688 217.704,41.552 218.856,38.416 C219.88,35.344 221.096,32.336 222.376,29.264 C223.72,25.808 225.256,22.416 226.984,19.024 C226.984,18.96 226.984,18.96 227.048,18.896 C227.368,18.192 227.176,18.064 226.472,18.256 C225.768,18.448 224.936,18.704 224.232,18.96 L222.376,19.6 C221.992,19.792 221.672,19.792 221.416,19.6 L220.392,18.896 C220.904,18.64 221.288,18.256 221.8,18.128 C223.592,17.552 225.32,17.04 227.048,16.592 C228.328,16.272 228.328,16.336 228.904,15.184 C231.272,10.64 233.768,6.16 236.584,1.744 L236.904,1.296 C237.608,0.208 237.864,0.144 238.76,0.72 C239.4,1.36 239.528,1.488 238.888,2.64 L234.216,11.216 C233.576,12.496 232.936,13.712 232.296,14.928 C231.848,15.696 231.976,15.824 232.808,15.888 C238.504,16.144 239.208,16.784 240.168,21.584 C238.12,17.36 237.096,16.592 232.296,17.104 C231.208,17.232 231.144,17.232 230.568,18.32 C229.288,21.008 228.008,23.696 226.792,26.384 C224.744,31.056 223.016,35.728 221.352,40.464 C219.752,44.88 218.856,49.296 218.664,53.648 C218.6,54.416 218.6,55.184 218.664,55.952 C218.728,56.528 219.752,57.552 232.808,41.232 C233.128,40.976 233.448,40.656 233.704,40.336 L233.512,40.912 L234.92,40.08 L234.536,40.528 L234.472,40.528 L234.152,40.976 C234.344,40.848 234.472,40.656 234.536,40.528 L234.216,41.616 Z M232.488,42.064 C232.616,41.936 232.744,41.808 232.872,41.616 L232.488,42.064 Z M232.872,41.552 L233.512,40.976 C233.32,41.104 233.128,41.296 232.872,41.552 Z M233.162519,42.7403848 L233.128,42.768 C233.137143,42.7588571 233.148898,42.7497143 233.162519,42.7403848 Z" id="What" fill="#805278"></path>
                <path d="M67.156,100 L61.874,75.072 L65.142,75.072 L67.764,88.638 C67.9920011,90.0060068 68.2326654,91.3486601 68.486,92.666 C68.7393346,93.9833399 68.9799989,95.3259932 69.208,96.694 L69.36,96.694 C69.6386681,95.3259932 69.9299985,93.9770066 70.234,92.647 C70.5380015,91.3169934 70.8293319,89.9806734 71.108,88.638 L74.566,75.072 L77.454,75.072 L80.912,88.638 C81.2160015,89.9553399 81.5199985,91.2853266 81.824,92.628 C82.1280015,93.9706734 82.4319985,95.3259932 82.736,96.694 L82.888,96.694 C83.1160011,95.3259932 83.3439989,93.9770066 83.572,92.647 C83.8000011,91.3169934 84.0406654,89.9806734 84.294,88.638 L86.916,75.072 L89.956,75.072 L84.788,100 L80.988,100 L77.226,84.99 C76.9979989,84.0273285 76.789001,83.0836713 76.599,82.159 C76.4089991,81.2343287 76.2126677,80.2906715 76.01,79.328 L75.858,79.328 C75.6553323,80.2906715 75.4463344,81.2343287 75.231,82.159 C75.0156656,83.0836713 74.8066677,84.0273285 74.604,84.99 L70.918,100 L67.156,100 Z M97.4546667,100 L97.4546667,75.072 L111.818667,75.072 L111.818667,77.732 L100.608667,77.732 L100.608667,85.56 L110.070667,85.56 L110.070667,88.258 L100.608667,88.258 L100.608667,97.302 L112.198667,97.302 L112.198667,100 L97.4546667,100 Z M140.838,100.456 C139.267326,100.456 137.82334,100.16467 136.506,99.582 C135.18866,98.9993304 134.042338,98.1570055 133.067,97.055 C132.091662,95.9529945 131.33167,94.5976747 130.787,92.989 C130.242331,91.3803253 129.97,89.5626768 129.97,87.536 C129.97,85.5346567 130.248664,83.736008 130.806,82.14 C131.363336,80.543992 132.135995,79.1886722 133.124,78.074 C134.112005,76.9593278 135.277327,76.1043363 136.62,75.509 C137.962674,74.9136637 139.431992,74.616 141.028,74.616 C142.548008,74.616 143.884328,74.9263302 145.037,75.547 C146.189673,76.1676698 147.13333,76.8833293 147.868,77.694 L146.158,79.746 C145.49933,79.0366631 144.752004,78.4666688 143.916,78.036 C143.079996,77.6053312 142.130006,77.39 141.066,77.39 C139.875328,77.39 138.798672,77.624331 137.836,78.093 C136.873329,78.561669 136.050004,79.2329956 135.366,80.107 C134.681997,80.9810044 134.156335,82.0386605 133.789,83.28 C133.421665,84.5213395 133.238,85.9146589 133.238,87.46 C133.238,89.0306745 133.421665,90.4429937 133.789,91.697 C134.156335,92.9510063 134.66933,94.0213289 135.328,94.908 C135.98667,95.7946711 136.790995,96.4786643 137.741,96.96 C138.691005,97.4413357 139.761328,97.682 140.952,97.682 C142.168006,97.682 143.231996,97.4350025 144.144,96.941 C145.056005,96.4469975 145.91733,95.7566711 146.728,94.87 L148.476,96.846 C147.487995,97.9860057 146.37334,98.8726635 145.132,99.506 C143.890661,100.139336 142.459342,100.456 140.838,100.456 Z M156.278667,100 L156.278667,75.072 L164.068667,75.072 C165.33534,75.072 166.506995,75.1923321 167.583667,75.433 C168.660339,75.6736679 169.584996,76.0726639 170.357667,76.63 C171.130338,77.1873361 171.731998,77.9093289 172.162667,78.796 C172.593336,79.6826711 172.808667,80.7719935 172.808667,82.064 C172.808667,84.0146764 172.302005,85.5726608 171.288667,86.738 C170.275329,87.9033392 168.907342,88.7013312 167.184667,89.132 L173.530667,100 L169.958667,100 L163.954667,89.474 L159.432667,89.474 L159.432667,100 L156.278667,100 Z M159.432667,86.89 L163.612667,86.89 C165.563343,86.89 167.057995,86.491004 168.096667,85.693 C169.135339,84.894996 169.654667,83.6853414 169.654667,82.064 C169.654667,80.4173251 169.135339,79.26467 168.096667,78.606 C167.057995,77.94733 165.563343,77.618 163.612667,77.618 L159.432667,77.618 L159.432667,86.89 Z M181.067334,100 L181.067334,75.072 L195.431334,75.072 L195.431334,77.732 L184.221334,77.732 L184.221334,85.56 L193.683334,85.56 L193.683334,88.258 L184.221334,88.258 L184.221334,97.302 L195.811334,97.302 L195.811334,100 L181.067334,100 Z M208.554,86.054 L207.376,89.854 L214.862,89.854 L213.684,86.054 C213.227998,84.6606597 212.797336,83.2736736 212.392,81.893 C211.986665,80.5123264 211.581336,79.1000072 211.176,77.656 L211.024,77.656 C210.643999,79.1000072 210.251336,80.5123264 209.846,81.893 C209.440665,83.2736736 209.010003,84.6606597 208.554,86.054 Z M200.954,100 L209.39,75.072 L212.962,75.072 L221.398,100 L218.016,100 L215.66,92.4 L206.578,92.4 L204.184,100 L200.954,100 Z M231.176667,100 L231.176667,77.732 L223.652667,77.732 L223.652667,75.072 L241.892667,75.072 L241.892667,77.732 L234.368667,77.732 L234.368667,100 L231.176667,100 Z M249.543334,100 L249.543334,75.072 L263.907334,75.072 L263.907334,77.732 L252.697334,77.732 L252.697334,85.56 L262.159334,85.56 L262.159334,88.258 L252.697334,88.258 L252.697334,97.302 L264.287334,97.302 L264.287334,100 L249.543334,100 Z" id="WE-CREATE" fill="#424242"></path>
            </g>
        </g>
    </g>
</svg>