<?xml version="1.0" encoding="UTF-8" standalone="no"?>
<svg width="330px" height="101px" viewBox="0 0 330 101" version="1.1" xmlns="http://www.w3.org/2000/svg" xmlns:xlink="http://www.w3.org/1999/xlink">
    <!-- Generator: Sketch 50.2 (55047) - http://www.bohemiancoding.com/sketch -->
    <title>recent-banner</title>
    <desc>Created with Sketch.</desc>
    <defs></defs>
    <g id="Page-1" stroke="none" stroke-width="1" fill="none" fill-rule="evenodd">
        <g id="Fonts-and-colors" transform="translate(-651.000000, -1185.000000)">
            <g id="recent-banner" transform="translate(651.000000, 1185.000000)">
                <path d="M33.5,58.5 L296.507604,58.5" id="Line-3-Copy" stroke="#805278" stroke-linecap="round" stroke-linejoin="round"></path>
                <path d="M300.75,63.9673112 C300.75,63.8752297 300.770566,63.779313 300.811698,63.679558 C300.85283,63.5798031 300.914527,63.4915596 300.996792,63.414825 L312.744077,52.4571823 C312.908606,52.3190601 313.106037,52.25 313.336377,52.25 C313.566717,52.25 313.764149,52.3190601 313.928677,52.4571823 L325.503208,63.2767035 C325.667737,63.4301727 325.75,63.6143329 325.75,63.8291897 C325.75,64.0440465 325.667737,64.2282067 325.503208,64.3816759 C325.33868,64.535145 325.141248,64.6118785 324.910908,64.6118785 C324.680568,64.6118785 324.483137,64.535145 324.318608,64.3816759 L313.336377,54.1376611 L302.181392,64.5197974 C302.016863,64.6732666 301.819432,64.75 301.589092,64.75 C301.358752,64.75 301.16132,64.6732666 300.996792,64.5197974 C300.914527,64.4430628 300.85283,64.3586561 300.811698,64.2665746 C300.770566,64.1744931 300.75,64.0747396 300.75,63.9673112 Z" id="Swipe-Up-Copy" fill="#805278" transform="translate(313.250000, 58.500000) rotate(-270.000000) translate(-313.250000, -58.500000) "></path>
                <path d="M-5.77705832,63.9673112 C-5.77705832,63.8752297 -5.75649255,63.779313 -5.71536039,63.679558 C-5.67422824,63.5798031 -5.61253093,63.4915596 -5.53026661,63.414825 L6.21701868,52.4571823 C6.38154731,52.3190601 6.5789787,52.25 6.80931878,52.25 C7.03965886,52.25 7.23709025,52.3190601 7.40161888,52.4571823 L18.97615,63.2767035 C19.1406786,63.4301727 19.2229417,63.6143329 19.2229417,63.8291897 C19.2229417,64.0440465 19.1406786,64.2282067 18.97615,64.3816759 C18.8116213,64.535145 18.61419,64.6118785 18.3838499,64.6118785 C18.1535098,64.6118785 17.9560784,64.535145 17.7915498,64.3816759 L6.80931878,54.1376611 L-4.34566642,64.5197974 C-4.51019504,64.6732666 -4.70762644,64.75 -4.93796651,64.75 C-5.16830659,64.75 -5.36573799,64.6732666 -5.53026661,64.5197974 C-5.61253093,64.4430628 -5.67422824,64.3586561 -5.71536039,64.2665746 C-5.75649255,64.1744931 -5.77705832,64.0747396 -5.77705832,63.9673112 Z" id="Swipe-Up-Copy-2" fill="#805278" transform="translate(6.722942, 58.500000) scale(-1, 1) rotate(-270.000000) translate(-6.722942, -58.500000) "></path>
                <path d="M310.75,63.9673112 C310.75,63.8752297 310.770566,63.779313 310.811698,63.679558 C310.85283,63.5798031 310.914527,63.4915596 310.996792,63.414825 L322.744077,52.4571823 C322.908606,52.3190601 323.106037,52.25 323.336377,52.25 C323.566717,52.25 323.764149,52.3190601 323.928677,52.4571823 L335.503208,63.2767035 C335.667737,63.4301727 335.75,63.6143329 335.75,63.8291897 C335.75,64.0440465 335.667737,64.2282067 335.503208,64.3816759 C335.33868,64.535145 335.141248,64.6118785 334.910908,64.6118785 C334.680568,64.6118785 334.483137,64.535145 334.318608,64.3816759 L323.336377,54.1376611 L312.181392,64.5197974 C312.016863,64.6732666 311.819432,64.75 311.589092,64.75 C311.358752,64.75 311.16132,64.6732666 310.996792,64.5197974 C310.914527,64.4430628 310.85283,64.3586561 310.811698,64.2665746 C310.770566,64.1744931 310.75,64.0747396 310.75,63.9673112 Z" id="Swipe-Up-Copy" fill="#805278" transform="translate(323.250000, 58.500000) rotate(-270.000000) translate(-323.250000, -58.500000) "></path>
                <path d="M4.22294168,63.9673112 C4.22294168,63.8752297 4.24350745,63.779313 4.28463961,63.679558 C4.32577176,63.5798031 4.38746907,63.4915596 4.46973339,63.414825 L16.2170187,52.4571823 C16.3815473,52.3190601 16.5789787,52.25 16.8093188,52.25 C17.0396589,52.25 17.2370902,52.3190601 17.4016189,52.4571823 L28.97615,63.2767035 C29.1406786,63.4301727 29.2229417,63.6143329 29.2229417,63.8291897 C29.2229417,64.0440465 29.1406786,64.2282067 28.97615,64.3816759 C28.8116213,64.535145 28.61419,64.6118785 28.3838499,64.6118785 C28.1535098,64.6118785 27.9560784,64.535145 27.7915498,64.3816759 L16.8093188,54.1376611 L5.65433358,64.5197974 C5.48980496,64.6732666 5.29237356,64.75 5.06203349,64.75 C4.83169341,64.75 4.63426201,64.6732666 4.46973339,64.5197974 C4.38746907,64.4430628 4.32577176,64.3586561 4.28463961,64.2665746 C4.24350745,64.1744931 4.22294168,64.0747396 4.22294168,63.9673112 Z" id="Swipe-Up-Copy-3" fill="#805278" transform="translate(16.722942, 58.500000) scale(-1, 1) rotate(-270.000000) translate(-16.722942, -58.500000) "></path>
                <g id="Group-2" transform="translate(86.000000, 0.000000)" fill="#805278">
                    <path d="M57.112,47.312 L57.688,46.736 L57.112,47.312 Z M57.112,47.376 L57.048,47.376 L57.112,47.376 Z M57.752,46.544 L58.264,46.032 L58.008,46.352 L57.752,46.544 Z M58.392,45.904 L58.264,46.032 C58.328,45.968 58.392,45.968 58.392,45.904 Z M55.64,48.976 L56.28,48.4 C56.024,48.592 55.832,48.784 55.64,48.976 Z M57.176,46.544 L56.856,46.928 L56.984,46.544 L57.176,46.544 Z M62.36,40.208 C62.296,40.336 62.36,40.4 62.232,40.528 C62.04,40.784 61.784,41.04 61.656,41.232 C61.656,41.04 61.656,40.848 61.592,40.72 L61.592,40.656 C61.464,40.912 59.608,43.92 59.416,44.112 L58.968,44.56 C58.968,44.688 58.84,44.752 58.776,44.88 C59.16,44.688 59.288,44.432 59.416,44.176 L61.656,41.232 L58.584,45.648 L58.776,44.944 L58.648,44.944 L58.392,45.264 L58.392,44.944 C57.752,45.328 57.432,45.968 56.984,46.544 L56.728,46.928 L56.856,46.928 L56.6,47.312 C56.6,47.44 56.536,47.504 56.408,47.696 L56.472,47.632 L56.472,47.696 L56.792,47.696 L56.28,48.4 C56.152,48.272 56.152,48.144 56.152,48.016 L54.872,49.168 L54.744,49.488 L54.36,49.616 L54.168,49.616 L54.168,49.68 L54.36,49.68 C54.168,50.192 54.168,50.192 54.488,50.064 C53.528,51.088 52.504,52.176 51.48,53.136 C49.624,54.8 47.576,56.208 45.336,57.04 C42.584,58.128 40.408,58 38.488,56.848 C37.016,55.952 36.504,54.352 36.504,52.496 C36.44,50.768 37.016,48.912 37.784,47.056 C39.192,43.664 41.496,40.528 43.992,37.584 C46.744,34.384 49.688,31.504 53.208,29.2 C54.168,28.496 55.128,27.92 56.28,27.408 C58.968,26.128 61.848,27.408 61.976,29.904 C61.976,30.864 61.656,31.824 61.08,32.784 C59.48,35.6 57.24,37.968 54.424,39.824 C51.928,41.488 49.304,42.768 46.616,43.728 C45.336,44.176 43.992,44.496 42.648,44.432 C42.264,44.432 41.944,44.56 41.752,45.008 C40.216,47.632 39.064,50.32 38.872,53.008 C38.808,53.968 39,54.864 39.448,55.568 C39.832,56.592 40.728,57.04 42.136,56.784 C43.864,56.528 45.464,55.76 47.064,54.736 C49.048,53.392 50.904,51.92 52.696,50.256 C52.952,49.936 53.208,49.744 53.464,49.552 C53.4,49.616 53.336,49.744 53.4,49.872 L53.848,49.36 L53.912,49.36 C53.912,49.296 54.04,49.232 54.04,49.104 C53.976,49.232 53.848,49.296 53.848,49.36 L53.464,49.552 L55.64,47.184 L55.64,47.44 L55.96,47.12 C56.088,46.928 56.28,46.736 56.472,46.544 L56.024,46.736 L58.968,43.024 C59.16,42.832 60.888,39.824 61.08,40.08 C61.592,39.888 61.656,39.888 61.912,40.336 L62.36,40.208 Z M57.368,35.344 C57.368,35.28 57.432,35.216 57.496,35.152 L57.304,35.344 L57.368,35.344 Z M57.846485,34.641516 C57.8310056,34.6570263 57.816,34.6730103 57.816,34.704 C57.816,34.678345 57.816,34.65269 57.8242449,34.6311575 L57.846485,34.641516 Z M57.752,36.24 L57.816,36.176 L57.752,36.24 Z M58.688,33.56 C58.632,33.648 58.584,33.744 58.52,33.872 C58.584,33.744 58.648,33.648 58.712,33.56 L58.688,33.56 Z M59.8,33.616 L58.84,34.896 L58.52,35.28 L58.264,35.664 L57.816,36.112 L58.328,35.792 L58.968,35.024 L59.928,33.68 C59.992,33.616 60.12,33.36 60.184,33.168 C60.056,33.296 59.928,33.488 59.8,33.616 Z M58.904,34.256 C58.84,34.256 58.776,34.384 58.648,34.448 L58.648,34.512 L58.904,34.256 Z M59.288,32.72 L59.032,33.04 L59.288,32.784 L59.288,32.72 Z M54.232,30.864 C50.072,33.936 46.68,37.648 43.8,41.808 C43.544,42.128 43.416,42.512 43.224,42.832 C43.544,43.088 43.992,42.832 44.44,42.704 C47.576,41.616 50.648,40.208 53.592,38.16 C55.576,36.688 57.304,34.96 58.584,32.976 C59.096,32.208 59.48,31.44 59.864,30.608 C59.928,30.096 60.12,29.52 59.992,29.008 C59.992,28.304 59.672,28.048 58.904,28.304 C58.264,28.432 57.624,28.688 56.984,29.008 C56.024,29.584 55.128,30.16 54.232,30.864 Z M50.84,32.912 L50.584,33.04 C50.648,33.04 50.712,32.976 50.776,32.976 L50.84,32.912 Z M50.392,33.224 C50.44,33.184 50.488,33.136 50.52,33.104 C50.488,33.136 50.44,33.168 50.392,33.2 L50.392,33.224 Z M44.056,38.224 C43.992,38.352 43.928,38.48 43.864,38.544 L44.12,38.288 L44.056,38.224 Z M42.584,41.168 L42.456,41.296 C42.456,41.296 42.52,41.296 42.584,41.232 C42.712,41.04 42.84,40.848 42.968,40.72 C42.776,40.848 42.712,41.04 42.584,41.168 Z M49.368,34.128 L49.496,34.064 C49.528,34.032 49.544,34 49.568,33.976 L49.496,34 C49.496,34.064 49.496,34.064 49.368,34.128 Z M49.368,34.128 L48.92,34.576 L48.344,35.088 L47.832,35.664 L46.68,36.944 C44.888,38.672 43.48,40.656 42.136,42.576 C42.072,42.64 42.072,42.704 42.008,42.768 C42.072,42.832 42.072,42.96 42.008,43.088 L42.264,42.896 C42.712,42.384 43.032,41.872 43.416,41.36 C44.504,39.888 45.656,38.48 46.744,37.008 C47.128,36.624 47.576,36.176 47.896,35.792 L48.472,35.152 L48.984,34.64 L49.368,34.128 Z M41.88,42.224 L41.88,42.256 L41.88,42.224 Z M41.88,42.224 L41.88,42.192 C42.072,41.936 42.2,41.808 42.264,41.616 C42.2,41.808 42.008,41.936 41.88,42.128 L41.88,42.224 Z M41.624,42.6 C41.656,42.56 41.688,42.512 41.688,42.448 C41.688,42.512 41.656,42.544 41.624,42.576 L41.624,42.6 Z M41.7852314,41.2806784 C41.8275978,41.2138044 41.9005489,41.1269022 41.944,41.04 C42.008,41.04 42.072,40.848 42.2,40.72 L41.88,41.04 C41.88,41.1169962 41.8336842,41.1939924 41.7967736,41.2570584 L41.7852314,41.2806784 Z M39.064,45.648 L39.128,45.584 L38.936,45.648 L39,45.712 C39.064,45.712 39.064,45.648 39.064,45.648 Z M39.512,44.88 C39.512,44.816 39.576,44.752 39.512,44.752 L39.512,44.816 C39.448,44.88 39.512,44.88 39.512,44.88 Z M40.056,43.888 C40.04,43.92 40.024,43.952 40.024,43.984 C40.056,43.952 40.072,43.92 40.08,43.888 L40.056,43.888 Z M40.3608557,43.4369387 C40.4192372,43.3112751 40.4776186,43.1463814 40.536,43.088 L40.856,42.64 L40.472,43.088 C40.472,43.1463758 40.4187542,43.3112433 40.3608292,43.4369023 L40.3608557,43.4369387 Z M41.496,41.616 C41.24,41.872 40.984,42.128 40.92,42.448 L41.496,41.616 Z M40.28,44.816 L40.28,44.752 L40.216,44.816 L40.28,44.816 Z M39.5500769,47.5988943 C39.5570609,47.5885962 39.5657019,47.5782981 39.576,47.568 C39.5689671,47.5750329 39.5619341,47.5820659 39.5549861,47.5890988 L39.5500769,47.5988943 Z M40.664,45.648 L41.176,44.56 C41.24,44.496 41.176,44.432 41.176,44.432 C41.112,44.432 40.984,44.432 40.984,44.496 L40.024,46.16 L39.96,46.48 L40.024,46.736 C40.024,46.672 40.088,46.544 40.152,46.544 C40.344,46.224 40.472,45.968 40.664,45.648 Z M56.536,47.312 L56.664,46.928 L56.344,47.312 L56.536,47.312 Z M56.984,45.84 C57.496,45.584 57.752,45.136 57.944,44.688 C57.688,45.072 57.368,45.456 56.984,45.84 Z M58.648,44.88 L58.712,44.56 L58.456,44.88 L58.648,44.88 Z M54.616,50 L54.744,49.488 C55.064,49.36 55.384,49.168 55.64,48.976 L54.616,50 Z M55.704,47.12 C55.768,46.992 55.896,46.864 56.024,46.8 L55.96,47.12 L55.704,47.12 Z M56.92,47.568 L56.92,47.504 L56.92,47.568 Z M56.8591384,47.6288616 C56.856,47.6491487 56.856,47.6725744 56.856,47.696 L56.792,47.696 L56.8591384,47.6288616 Z M56.8591384,47.6288616 L56.92,47.568 C56.8794256,47.568 56.8645744,47.5937231 56.8591384,47.6288616 Z M62.0913973,38.5575891 C62.0476347,38.6003653 62.0078538,38.6401462 61.976,38.672 L62.0511304,38.3965217 L62.0913973,38.5575891 Z M62.0511304,38.3965217 L61.976,38.096 C61.976,38.096 62.104,38.096 62.168,37.968 L62.0511304,38.3965217 Z M62.0913973,38.5575891 C62.2234882,38.4284753 62.3918538,38.2720731 62.488,38.224 C62.552,38.16 62.68,38.096 62.808,38.096 C62.744,38.16 62.808,38.224 62.808,38.288 L62.232,39.12 L62.0913973,38.5575891 Z M62.2093715,40.1770972 L62.168,40.144 C62.1817905,40.1577905 62.195581,40.1686095 62.2093715,40.1770972 Z M64.664,37.008 C64.536,37.072 64.472,37.136 64.472,37.2 L64.664,37.008 Z M65.88,34.768 L66.008,34.384 L66.2,34.384 L65.88,34.768 Z M65.24,35.472 L64.92,35.856 L65.048,35.472 L65.24,35.472 Z M65.624,35.984 C65.56,35.984 65.56,35.92 65.496,35.92 L65.752,35.728 C65.752,35.856 65.624,35.92 65.624,35.984 Z M64.664,37.008 C64.728,37.008 64.664,36.944 64.664,36.944 L64.664,37.008 Z M64.024,37.712 L64.408,37.2 L64.472,37.2 L64.472,37.264 C64.344,37.392 64.216,37.584 64.024,37.712 Z M66.584,33.936 L66.264,34.32 L66.392,33.936 L66.584,33.936 Z M64.856,35.92 L64.472,36.304 L64.6,35.92 L64.856,35.92 Z M63.768,37.264 L64.088,36.752 L64.152,36.752 L63.768,37.264 Z M64.472,36.368 L64.152,36.752 L64.28,36.368 L64.472,36.368 Z M63.7048476,35.8196263 C63.7075825,35.7884175 63.719142,35.776858 63.768,35.728 L63.8173105,35.6716451 C63.7229789,35.7228039 63.7071789,35.7739627 63.7045324,35.8251215 L63.7048476,35.8196263 Z M63.8173105,35.6716451 L64.216,35.216 L63.832,35.664 C63.8269033,35.6665484 63.8220095,35.6690967 63.8173105,35.6716451 Z M63.7048476,35.8196263 C63.704,35.8292985 63.704,35.840858 63.704,35.856 C63.704,35.8457072 63.704,35.8354144 63.7045324,35.8251215 L63.7048476,35.8196263 Z M63.5407938,36.0541978 C63.4904589,36.0717431 63.448,36.1238716 63.448,36.176 L63.064,36.624 L63.064,36.56 C63.192,36.432 63.32,36.304 63.448,36.112 C63.448,36.112 63.4899544,36.0700456 63.5398947,36.0540738 L63.5407938,36.0541978 Z M63.5407938,36.0541978 C63.5522569,36.0502021 63.5641284,36.048 63.576,36.048 C63.5638178,36.048 63.5516355,36.0503189 63.5398947,36.0540738 L63.5407938,36.0541978 Z M65.944,33.232 L66.456,33.04 C66.264,32.784 66.136,33.04 65.944,33.232 Z M66.328,35.024 L66.52,34.768 L66.584,34.768 L66.328,35.024 Z M64.28,36.368 L64.728,35.024 L64.216,35.216 L65.56,33.744 L65.432,34.128 L66.456,33.04 C66.776,33.04 66.84,33.168 66.776,33.488 L66.456,33.872 L66.392,33.936 L66.328,33.936 L66.008,34.384 C65.688,34.704 65.368,35.088 64.984,35.472 L65.048,35.472 C64.856,35.6 64.728,35.792 64.6,35.92 L64.28,36.368 Z M66.968,33.488 L66.648,33.872 L66.776,33.488 L66.968,33.488 Z M66.2,34.384 L66.2,34.32 L66.264,34.32 L66.264,34.384 L66.2,34.384 Z M66.584,34.768 C67.032,34.448 67.416,34.064 67.544,33.616 C67.096,33.936 66.776,34.256 66.584,34.768 Z M83.864,44.432 L83.8,44.496 L83.864,44.432 Z M81.816,45.328 C81.816,45.392 81.752,45.392 81.752,45.392 L81.752,45.328 L81.816,45.328 Z M83.1557374,45.023124 L83.8,44.496 L83.48,44.816 C83.3358833,44.9120778 83.2638834,44.9720972 83.1557374,45.023124 Z M83.1557374,45.023124 L83.096,45.072 L83.032,45.072 C83.0798833,45.0560389 83.1198055,45.0400778 83.1557374,45.023124 Z M80.472,47.952 L80.472,47.888 L80.792,47.696 L80.472,47.952 Z M84.9127329,44.8454503 C84.9042592,44.8564872 84.8960045,44.8679933 84.888,44.88 L84.696,45.008 L84.9127329,44.8454503 Z M84.9127329,44.8454503 C84.990412,44.7442746 85.0864928,44.6825327 85.1768614,44.6361109 L84.952,44.816 L84.9127329,44.8454503 Z M85.1768614,44.6361109 L85.272,44.56 C85.336,44.56 85.336,44.496 85.4,44.496 L85.336,44.56 C85.2893818,44.5833091 85.2342744,44.6066182 85.1768614,44.6361109 Z M83.992,45.52 L84.248,45.328 L84.504,45.072 L84.248,45.392 L83.992,45.52 Z M80.792,47.696 L81.88,46.992 C81.432,47.184 81.112,47.376 80.792,47.696 Z M83.416,44.368 L83.672,44.048 L83.224,44.368 L83.416,44.368 Z M82.5206306,46.5437476 C82.8402523,46.4157477 83.0321261,46.2239159 83.224,46.096 L83.608,45.904 L83.288,46.096 C82.9682103,46.2878738 82.8401683,46.4158317 82.5206307,46.5437476 Z M82.5206307,46.5437476 C82.5204205,46.5438318 82.5202103,46.5439159 82.52,46.544 C82.5202102,46.5439159 82.5204204,46.5438318 82.5206306,46.5437476 Z M80.792,46.928 C80.536,47.248 80.152,47.632 80.472,47.888 C77.016,50.768 71.064,56.016 65.88,57.36 C60.12,58.832 56.856,55.248 57.752,50.256 C58.456,45.712 60.952,41.68 64.152,37.84 C66.52,35.024 69.336,32.656 72.472,30.928 C76.056,29.072 79.832,29.392 81.752,31.696 C81.944,31.888 82.072,32.144 82.2,32.336 C82.264,32.336 82.2,32.528 82.2,32.656 C82.2,32.656 81.88,32.72 81.88,32.656 C81.624,32.528 81.176,32.464 80.984,32.272 C79.32,31.12 77.272,31.376 74.968,32.464 C72.344,33.808 70.104,35.664 68.056,37.84 C65.432,40.464 63.32,43.344 61.784,46.544 C60.824,48.848 59.928,51.216 60.248,53.328 C60.504,56.4 61.72,56.976 64.728,56.208 C70.104,55.056 77.016,48.336 81.752,45.392 L81.624,45.84 L82.264,45.392 C82.136,45.392 81.944,45.328 81.816,45.328 L82.648,44.88 L82.584,45.072 L83.032,45.072 C82.328,45.776 81.624,46.352 80.792,46.928 Z M65.624,38.096 C65.432,38.224 65.304,38.416 65.304,38.544 L65.624,38.16 L65.624,38.096 Z M65.176,37.648 C65.24,37.568 65.304,37.488 65.368,37.392 C65.272,37.456 65.192,37.536 65.128,37.624 L65.176,37.648 Z M64.664,39.312 L64.408,39.632 L64.344,39.76 L64.664,39.312 Z M64.856,37.968 L64.152,38.608 C64.472,38.48 64.664,38.224 64.856,37.968 Z M64.024,40.208 C63.832,40.336 63.704,40.464 63.512,40.72 L64.024,40.208 Z M63.832,39.12 C63.704,39.376 63.448,39.504 63.384,39.632 C63.512,39.504 63.704,39.376 63.832,39.184 L64.024,38.992 C63.896,39.056 63.896,39.12 63.832,39.12 Z M61.72,42 L61.912,41.936 L61.784,41.936 L61.72,42 Z M62.8479982,40.4745367 C62.7465285,40.6377264 62.6363745,40.8130837 62.488,40.912 L62.488,40.976 L62.36,40.976 L62.36,41.04 L62.488,40.976 C62.6369332,40.8270668 62.7473575,40.6396249 62.849144,40.4734161 L62.8479982,40.4745367 Z M61.72,44.816 C61.72,44.944 61.656,45.008 61.592,45.072 L61.528,45.264 C61.592,45.2 61.656,45.136 61.656,45.072 C61.72,45.008 61.72,44.944 61.72,44.816 Z M61.72,44.816 L61.784,44.816 L62.296,43.856 L61.72,44.816 Z M62.488,43.408 C62.36,43.536 62.36,43.664 62.36,43.728 C62.616,43.6 62.808,43.344 62.936,43.152 C64.152,41.296 65.624,39.44 67.096,37.84 L67.736,36.816 C65.56,38.672 63.832,40.912 62.488,43.408 Z M84.248,44.88 L84.952,44.432 L84.376,44.816 L84.248,44.88 Z M84.248,44.944 L84.184,44.944 L84.248,44.944 Z M85.208,44.176 L85.08,44.24 L85.208,44.176 Z M85.208,44.176 L85.336,44.112 C85.464,44.048 85.528,43.984 85.72,43.856 L85.336,44.112 L85.208,44.176 Z M85.848,43.792 C85.848,43.856 85.784,43.856 85.72,43.856 L85.848,43.792 Z M84.504,44.112 L84.12,44.432 L84.312,44.112 L84.504,44.112 Z M84.312,44.112 C84.888,43.6 85.336,43.088 86.04,42.832 C86.04,42.896 86.04,43.024 85.976,43.152 L86.296,42.896 L86.424,42.96 L86.104,43.6 L90.072,39.952 L87.256,42.32 C87.064,42.576 86.872,42.768 86.424,42.896 C86.552,42.768 86.68,42.704 86.68,42.576 L87.256,42.256 C87.448,42.128 89.944,39.632 90.136,39.376 L90.136,39.44 C90.136,39.568 90.136,39.76 90.072,39.952 C90.264,39.824 90.52,39.632 90.776,39.44 C90.968,39.312 90.904,39.248 90.968,39.12 L90.52,39.12 C90.392,38.672 90.328,38.672 89.752,38.736 C89.624,38.416 87.256,40.976 87.064,41.104 L84.312,44.112 Z M84.504,43.408 C84.952,43.088 85.336,42.832 85.656,42.512 C85.4,42.896 85.016,43.28 84.504,43.408 Z M86.296,42.832 L86.104,42.832 L86.424,42.576 L86.296,42.832 Z M84.056,45.04 L84.056,45.008 L84.056,45.04 Z M84.056,45.04 L84.056,45.072 L83.9411809,45.1485461 C83.9631894,45.1056477 84.0095947,45.072 84.056,45.072 L84.056,45.04 Z M83.9411815,45.1485457 C83.9328371,45.1648106 83.928,45.1824053 83.928,45.2 L83.864,45.2 L83.9411809,45.1485461 L83.9411815,45.1485457 Z M90.84,38.992 L91.032,39.056 L90.968,39.12 C90.904,39.12 90.84,39.12 90.84,38.992 Z M96.728,47.312 L97.304,46.736 L96.728,47.312 Z M96.728,47.376 L96.664,47.376 L96.728,47.376 Z M97.368,46.544 L97.88,46.032 L97.624,46.352 L97.368,46.544 Z M98.008,45.904 C98.008,45.968 97.944,45.968 97.88,46.032 L98.008,45.904 Z M95.256,48.976 L95.896,48.4 C95.64,48.592 95.448,48.784 95.256,48.976 Z M96.792,46.544 L96.472,46.928 L96.6,46.544 L96.792,46.544 Z M101.976,40.208 C101.912,40.336 101.976,40.4 101.848,40.528 C101.656,40.784 101.4,41.04 101.272,41.232 C101.272,41.04 101.272,40.848 101.208,40.72 L101.208,40.656 C101.08,40.912 99.224,43.92 99.032,44.112 L98.584,44.56 C98.584,44.688 98.456,44.752 98.392,44.88 C98.776,44.688 98.904,44.432 99.032,44.176 L101.272,41.232 L98.2,45.648 L98.392,44.944 L98.264,44.944 L98.008,45.264 L98.008,44.944 C97.368,45.328 97.048,45.968 96.6,46.544 L96.344,46.928 L96.472,46.928 L96.216,47.312 C96.216,47.44 96.152,47.504 96.024,47.696 L96.088,47.632 L96.088,47.696 L96.408,47.696 L95.896,48.4 C95.768,48.272 95.768,48.144 95.768,48.016 L94.488,49.168 L94.36,49.488 L93.976,49.616 L93.784,49.616 L93.784,49.68 L93.976,49.68 C93.784,50.192 93.784,50.192 94.104,50.064 C93.144,51.088 92.12,52.176 91.096,53.136 C89.24,54.8 87.192,56.208 84.952,57.04 C82.2,58.128 80.024,58 78.104,56.848 C76.632,55.952 76.12,54.352 76.12,52.496 C76.056,50.768 76.632,48.912 77.4,47.056 C78.808,43.664 81.112,40.528 83.608,37.584 C86.36,34.384 89.304,31.504 92.824,29.2 C93.784,28.496 94.744,27.92 95.896,27.408 C98.584,26.128 101.464,27.408 101.592,29.904 C101.592,30.864 101.272,31.824 100.696,32.784 C99.096,35.6 96.856,37.968 94.04,39.824 C91.544,41.488 88.92,42.768 86.232,43.728 C84.952,44.176 83.608,44.496 82.264,44.432 C81.88,44.432 81.56,44.56 81.368,45.008 C79.832,47.632 78.68,50.32 78.488,53.008 C78.424,53.968 78.616,54.864 79.064,55.568 C79.448,56.592 80.344,57.04 81.752,56.784 C83.48,56.528 85.08,55.76 86.68,54.736 C88.664,53.392 90.52,51.92 92.312,50.256 C92.568,49.936 92.824,49.744 93.08,49.552 C93.016,49.616 92.952,49.744 93.016,49.872 L93.464,49.36 L93.528,49.36 C93.528,49.296 93.656,49.232 93.656,49.104 C93.592,49.232 93.464,49.296 93.464,49.36 L93.08,49.552 L95.256,47.184 L95.256,47.44 L95.576,47.12 C95.704,46.928 95.896,46.736 96.088,46.544 L95.64,46.736 L98.584,43.024 C98.776,42.832 100.504,39.824 100.696,40.08 C101.208,39.888 101.272,39.888 101.528,40.336 L101.976,40.208 Z M96.984,35.344 C96.984,35.28 97.048,35.216 97.112,35.152 L96.92,35.344 L96.984,35.344 Z M97.462485,34.641516 C97.4470056,34.6570263 97.432,34.6730103 97.432,34.704 C97.432,34.678345 97.432,34.65269 97.4402449,34.6311575 L97.462485,34.641516 Z M97.368,36.24 L97.432,36.176 L97.368,36.24 Z M98.304,33.56 C98.248,33.648 98.2,33.744 98.136,33.872 C98.2,33.744 98.264,33.648 98.328,33.56 L98.304,33.56 Z M99.416,33.616 L98.456,34.896 L98.136,35.28 L97.88,35.664 L97.432,36.112 L97.944,35.792 L98.584,35.024 L99.544,33.68 C99.608,33.616 99.736,33.36 99.8,33.168 C99.672,33.296 99.544,33.488 99.416,33.616 Z M98.52,34.256 C98.456,34.256 98.392,34.384 98.264,34.448 L98.264,34.512 L98.52,34.256 Z M98.904,32.72 L98.648,33.04 L98.904,32.784 L98.904,32.72 Z M93.848,30.864 C89.688,33.936 86.296,37.648 83.416,41.808 C83.16,42.128 83.032,42.512 82.84,42.832 C83.16,43.088 83.608,42.832 84.056,42.704 C87.192,41.616 90.264,40.208 93.208,38.16 C95.192,36.688 96.92,34.96 98.2,32.976 C98.712,32.208 99.096,31.44 99.48,30.608 C99.544,30.096 99.736,29.52 99.608,29.008 C99.608,28.304 99.288,28.048 98.52,28.304 C97.88,28.432 97.24,28.688 96.6,29.008 C95.64,29.584 94.744,30.16 93.848,30.864 Z M90.456,32.912 L90.2,33.04 C90.264,33.04 90.328,32.976 90.392,32.976 L90.456,32.912 Z M90.008,33.224 C90.056,33.184 90.104,33.136 90.136,33.104 C90.104,33.136 90.056,33.168 90.008,33.2 L90.008,33.224 Z M83.672,38.224 C83.608,38.352 83.544,38.48 83.48,38.544 L83.736,38.288 L83.672,38.224 Z M82.2,41.168 L82.072,41.296 C82.072,41.296 82.136,41.296 82.2,41.232 C82.328,41.04 82.456,40.848 82.584,40.72 C82.392,40.848 82.328,41.04 82.2,41.168 Z M88.984,34.128 L89.112,34.064 C89.144,34.032 89.16,34 89.184,33.976 L89.112,34 C89.112,34.064 89.112,34.064 88.984,34.128 Z M89.184,33.976 C89.208,33.952 89.24,33.936 89.304,33.936 L89.184,33.976 Z M88.984,34.128 L88.536,34.576 L87.96,35.088 L87.448,35.664 L86.296,36.944 C84.504,38.672 83.096,40.656 81.752,42.576 C81.688,42.64 81.688,42.704 81.624,42.768 C81.688,42.832 81.688,42.96 81.624,43.088 L81.88,42.896 C82.328,42.384 82.648,41.872 83.032,41.36 C84.12,39.888 85.272,38.48 86.36,37.008 C86.744,36.624 87.192,36.176 87.512,35.792 L88.088,35.152 L88.6,34.64 L88.984,34.128 Z M81.496,42.224 L81.496,42.256 L81.496,42.224 Z M81.496,42.224 L81.496,42.192 C81.688,41.936 81.816,41.808 81.88,41.616 C81.816,41.808 81.624,41.936 81.496,42.128 L81.496,42.224 Z M81.24,42.6 C81.272,42.56 81.304,42.512 81.304,42.448 C81.304,42.512 81.272,42.544 81.24,42.576 L81.24,42.6 Z M81.4012314,41.2806784 C81.4435978,41.2138044 81.5165489,41.1269022 81.56,41.04 C81.624,41.04 81.688,40.848 81.816,40.72 L81.496,41.04 C81.496,41.1169962 81.4496842,41.1939924 81.4127736,41.2570584 L81.4012314,41.2806784 Z M78.68,45.648 L78.744,45.584 L78.552,45.648 L78.616,45.712 C78.68,45.712 78.68,45.648 78.68,45.648 Z M79.128,44.88 C79.128,44.816 79.192,44.752 79.128,44.752 L79.128,44.816 C79.064,44.88 79.128,44.88 79.128,44.88 Z M79.672,43.888 C79.656,43.92 79.64,43.952 79.64,43.984 C79.672,43.952 79.688,43.92 79.696,43.888 L79.672,43.888 Z M79.9768557,43.4369387 C80.0352372,43.3112751 80.0936186,43.1463814 80.152,43.088 L80.472,42.64 L80.088,43.088 C80.088,43.1463758 80.0347542,43.3112433 79.9768292,43.4369023 L79.9768557,43.4369387 Z M81.112,41.616 C80.856,41.872 80.6,42.128 80.536,42.448 L81.112,41.616 Z M79.896,44.816 L79.896,44.752 L79.832,44.816 L79.896,44.816 Z M79.1709861,47.5890988 C79.1779341,47.5820659 79.1849671,47.5750329 79.192,47.568 C79.1817019,47.5782981 79.1730609,47.5885962 79.1660769,47.5988943 L79.1709861,47.5890988 Z M79.1709861,47.5890988 C79.114707,47.6460659 79.064,47.7030329 79.064,47.76 C79,47.824 79.064,47.824 79.064,47.888 L79.192,47.76 C79.1382981,47.7062981 79.129657,47.6525962 79.1660769,47.5988943 L79.1709861,47.5890988 Z M80.28,45.648 L80.792,44.56 C80.856,44.496 80.792,44.432 80.792,44.432 C80.728,44.432 80.6,44.432 80.6,44.496 L79.64,46.16 L79.576,46.48 L79.64,46.736 C79.64,46.672 79.704,46.544 79.768,46.544 C79.96,46.224 80.088,45.968 80.28,45.648 Z M96.152,47.312 L96.28,46.928 L95.96,47.312 L96.152,47.312 Z M96.6,45.84 C97.112,45.584 97.368,45.136 97.56,44.688 C97.304,45.072 96.984,45.456 96.6,45.84 Z M98.264,44.88 L98.328,44.56 L98.072,44.88 L98.264,44.88 Z M94.232,50 L94.36,49.488 C94.68,49.36 95,49.168 95.256,48.976 L94.232,50 Z M95.32,47.12 C95.384,46.992 95.512,46.864 95.64,46.8 L95.576,47.12 L95.32,47.12 Z M96.536,47.568 L96.536,47.504 L96.536,47.568 Z M96.4751384,47.6288616 C96.472,47.6491487 96.472,47.6725744 96.472,47.696 L96.408,47.696 L96.4751384,47.6288616 Z M96.4751384,47.6288616 C96.4805744,47.5937231 96.4954256,47.568 96.536,47.568 L96.4751384,47.6288616 Z M101.707397,38.5575891 L101.66713,38.3965217 L101.592,38.672 C101.623854,38.6401462 101.663635,38.6003653 101.707397,38.5575891 Z M101.66713,38.3965217 L101.784,37.968 C101.72,38.096 101.592,38.096 101.592,38.096 L101.66713,38.3965217 Z M101.707397,38.5575891 L101.848,39.12 L102.424,38.288 C102.424,38.224 102.36,38.16 102.424,38.096 C102.296,38.096 102.168,38.16 102.104,38.224 C102.007854,38.2720731 101.839488,38.4284753 101.707397,38.5575891 Z M101.825372,40.1770972 L102.104,40.4 L102.936,39.312 C103,39.248 103.064,39.184 103.064,39.12 L103.256,38.544 C103.192,38.672 103,38.864 102.744,39.12 L101.976,40.144 L101.976,40.208 C101.925791,40.208 101.875581,40.208 101.825372,40.1770972 Z M104.28,37.008 L104.088,37.2 C104.088,37.136 104.152,37.072 104.28,37.008 Z M105.496,34.768 L105.816,34.384 L105.624,34.384 L105.496,34.768 Z M104.856,35.472 L104.536,35.856 L104.664,35.472 L104.856,35.472 Z M105.24,35.984 C105.24,35.92 105.368,35.856 105.368,35.728 L105.112,35.92 C105.176,35.92 105.176,35.984 105.24,35.984 Z M104.28,37.008 L104.28,36.944 C104.28,36.944 104.344,37.008 104.28,37.008 Z M103.64,37.712 L104.024,37.2 L104.088,37.2 L104.088,37.264 C103.96,37.392 103.832,37.584 103.64,37.712 Z M106.2,33.936 L106.008,33.936 L105.88,34.32 L106.2,33.936 Z M104.472,35.92 L104.216,35.92 L104.088,36.304 L104.472,35.92 Z M103.384,37.264 L103.768,36.752 L103.704,36.752 L103.384,37.264 Z M104.088,36.368 L103.896,36.368 L103.768,36.752 L104.088,36.368 Z M103.320532,35.8251215 C103.323179,35.7739627 103.338979,35.7228039 103.433311,35.6716451 L103.384,35.728 C103.335142,35.776858 103.323583,35.7884175 103.320848,35.8196263 L103.320532,35.8251215 Z M103.433311,35.6716451 C103.438009,35.6690967 103.442903,35.6665484 103.448,35.664 L103.832,35.216 L103.433311,35.6716451 Z M103.155895,36.0540738 C103.105954,36.0700456 103.064,36.112 103.064,36.112 C102.936,36.304 102.808,36.432 102.68,36.56 L102.68,36.624 L103.064,36.176 C103.064,36.1238716 103.106459,36.0717431 103.156794,36.0541978 L103.155895,36.0540738 Z M105.56,33.232 C105.752,33.04 105.88,32.784 106.072,33.04 L105.56,33.232 Z M105.944,35.024 L106.136,34.768 L106.2,34.768 L105.944,35.024 Z M103.896,36.368 L104.216,35.92 C104.344,35.792 104.472,35.6 104.664,35.472 L104.6,35.472 C104.984,35.088 105.304,34.704 105.624,34.384 L105.944,33.936 L106.008,33.936 L106.072,33.872 L106.392,33.488 C106.456,33.168 106.392,33.04 106.072,33.04 L105.048,34.128 L105.176,33.744 L103.832,35.216 L104.344,35.024 L103.896,36.368 Z M106.584,33.488 L106.392,33.488 L106.264,33.872 L106.584,33.488 Z M105.816,34.384 L105.88,34.384 L105.88,34.32 L105.816,34.32 L105.816,34.384 Z M106.2,34.768 C106.648,34.448 107.032,34.064 107.16,33.616 C106.712,33.936 106.392,34.256 106.2,34.768 Z M141.912,34.704 C142.68,34.896 143.704,34 143.064,34.832 L133.656,45.456 C131.8,47.632 129.688,48.976 127.768,51.216 C126.424,52.752 124.76,54.096 123.096,55.504 C121.624,56.592 120.152,57.04 118.68,56.976 C117.592,56.976 118.232,56.144 118.296,55.056 C118.296,54.544 117.208,54.416 117.4,53.904 C117.976,51.344 118.872,48.784 120.152,46.288 C123.288,39.376 120.216,45.52 124.12,38.8 C125.784,36.112 127.384,33.488 128.6,30.736 C129.112,29.648 129.496,28.624 129.752,27.6 C130.136,26.448 129.816,26.192 128.6,26.704 C127.832,27.024 127.064,27.28 126.424,27.792 C124.824,28.816 123.16,29.84 121.624,30.992 C115.672,35.536 108.76,40.656 103.832,46.096 C102.552,47.504 101.272,48.912 99.864,50.32 C98.904,51.472 96.984,51.856 96.088,51.216 C95.704,50.896 95.896,50.32 96.024,49.872 C96.344,49.04 96.728,48.208 97.048,47.44 C98.392,44.368 99.608,41.296 101.016,38.224 C102.424,35.088 103.832,32.08 105.56,29.008 C106.008,28.304 106.456,27.6 106.968,26.96 C107.8,25.744 108.824,25.744 109.272,26.832 L109.912,26.64 C109.912,26.832 109.912,27.088 109.848,27.28 C109.016,28.944 108.056,30.544 107.352,32.272 C105.752,35.536 104.28,38.8 102.68,42.192 C102.36,42.832 102.104,43.536 101.912,44.24 C101.784,44.304 101.912,44.368 101.912,44.368 C101.976,44.432 102.104,44.368 102.104,44.368 L102.872,43.664 C108.568,37.392 115.672,32.784 122.712,27.856 C124.44,26.576 126.488,25.808 128.408,25.36 C129.496,25.104 130.52,25.104 131.352,25.424 C132.568,25.936 132.888,26.768 132.44,28.304 C131.992,30.224 131.096,32.144 130.136,33.936 C127.896,37.84 128.792,36.112 126.552,39.952 C123.672,44.816 124.76,42.448 122.392,47.44 C121.368,49.616 120.536,51.856 120.024,54.096 C119.896,54.544 119.896,54.992 119.896,55.376 C119.896,55.696 120.152,55.76 120.408,55.568 C120.728,55.312 121.24,55.056 121.56,54.672 C129.176,48.4 134.36,42.704 140.952,34.32 C141.784,33.552 141.08,34.512 141.912,34.704 Z M96.792,49.936 C96.856,49.872 96.92,49.808 96.92,49.68 L96.792,49.552 L96.664,49.936 L96.792,49.936 Z M97.688,47.952 L97.688,47.632 C97.624,47.696 97.56,47.76 97.496,47.888 C97.496,47.952 97.56,48.016 97.496,48.144 L97.688,47.952 Z M98.4530794,45.8669866 C98.4398707,45.9352424 98.3839353,46.0400647 98.328,46.096 C98.264,46.096 98.328,46.16 98.328,46.16 C98.392,46.16 98.392,46.16 98.456,46.096 C98.5173118,46.0346882 98.4611506,45.91464 98.4563245,45.8483939 L98.4530794,45.8669866 Z M99.288,43.984 C99.288,43.92 99.224,43.92 99.16,43.92 L99.16,43.984 C99.16,44.112 99.16,44.176 99.224,44.24 L99.288,43.984 Z M99.8726406,42.4397419 C99.8697565,42.4423729 99.8668783,42.4451217 99.864,42.448 C99.8640768,42.4478464 99.8641534,42.4476928 99.8642299,42.4475392 L99.8726406,42.4397419 Z M99.8726406,42.4397419 C99.933886,42.3838706 99.9977565,42.3811217 100.12,42.32 L100.184,41.936 C100.12,42 99.992,42 99.992,42.064 C99.8641536,42.1918464 99.9278467,42.3196928 99.8642299,42.4475392 L99.8726406,42.4397419 Z M106.2,30.736 L106.264,30.736 L106.264,30.608 L106.2,30.736 Z M106.776,28.304 L106.84,28.24 L106.776,28.112 L106.776,28.304 Z M105.624,31.824 L105.688,31.888 C105.688,31.824 105.752,31.824 105.752,31.824 C105.752,31.76 105.752,31.696 105.688,31.696 L105.624,31.824 Z M105.104081,32.9206819 C105.10647,32.9177919 105.109104,32.9148959 105.112,32.912 C105.111035,32.9129653 105.110069,32.9139161 105.109104,32.9148525 L105.104081,32.9206819 Z M105.752,29.904 L105.816,29.968 L105.816,29.904 L105.752,29.904 Z M104.344,34.256 C104.344,34.32 104.28,34.384 104.28,34.384 C104.28,34.448 104.28,34.576 104.344,34.576 C104.344,34.448 104.408,34.448 104.472,34.384 C104.472,34.32 104.408,34.256 104.344,34.256 Z M105.115425,31.1804444 C105.114326,31.1816296 105.113185,31.1828148 105.112,31.184 C105.115556,31.1804444 105.119111,31.1770864 105.122656,31.173915 L105.115425,31.1804444 Z M103.512,36.048 L103.512,36.24 L103.768,36.112 L103.768,35.92 L103.512,36.048 Z M104.408,32.336 L104.472,32.4 L104.728,32.272 L104.664,32.208 L104.408,32.336 Z M102.936,37.904 L102.936,37.712 C102.872,37.776 102.808,37.84 102.808,37.904 C102.68,37.904 102.808,37.968 102.68,38.032 L102.936,37.904 Z M103.96,33.424 C103.96,33.424 103.896,33.424 103.896,33.488 C103.896,33.552 103.96,33.552 103.896,33.616 C103.896,33.616 103.96,33.616 104.024,33.552 C104.024,33.488 104.024,33.488 103.96,33.424 Z M102.094519,39.4082963 C102.064889,39.4631111 101.976,39.5253333 101.976,39.632 L101.976,39.696 C102.04,39.696 102.104,39.632 102.104,39.632 C102.104,39.5111111 102.161086,39.4473086 102.113514,39.3866776 L102.094519,39.4082963 Z M98.904,46.864 L98.84,46.864 L98.84,46.928 L98.904,46.864 Z M101.016,40.272 L100.76,40.464 C100.76,40.464 100.696,40.4 100.76,40.336 C100.76,40.144 100.888,40.08 100.888,40.016 L101.016,40.272 Z M101.591942,38.7293436 C101.59198,38.731543 101.592,38.7337617 101.592,38.736 C101.592,38.7292852 101.593409,38.7225704 101.596005,38.7157816 L101.591942,38.7293436 Z M101.72004,38.2295033 C101.720013,38.2276821 101.72,38.2258477 101.72,38.224 C101.719991,38.2240173 101.719983,38.2240346 101.719974,38.2240519 L101.72004,38.2295033 Z M99.608,45.008 C99.672,44.944 99.736,44.944 99.736,44.944 L99.672,44.88 C99.608,44.88 99.608,44.944 99.608,44.944 L99.608,45.008 Z M100.439654,43.0938215 C100.432356,43.155881 100.312,43.2179405 100.312,43.28 L100.376,43.344 L100.504,43.216 C100.440218,43.216 100.503566,43.1524345 100.440648,43.0886528 L100.439654,43.0938215 Z M102.424,36.944 C102.424,36.88 102.488,36.816 102.552,36.752 C102.552,36.688 102.552,36.624 102.488,36.496 C102.488,36.56 102.36,36.688 102.36,36.752 C102.36,36.816 102.36,36.88 102.424,36.944 Z M103.32,34.768 L103.128,34.96 L103.128,35.344 L103.384,35.088 L103.32,34.768 Z M101.272,41.232 L101.208,41.424 L101.272,41.424 C101.272,41.36 101.336,41.296 101.4,41.232 L101.272,41.232 Z M103.32,38.992 C104.984,35.344 106.584,31.76 108.632,28.304 C108.888,27.856 109.016,27.344 109.272,26.96 C108.888,27.28 108.632,27.664 108.376,28.048 C107.736,29.008 107.16,29.904 106.776,30.928 C105.688,33.04 104.664,35.216 103.576,37.328 L99.608,46.352 L99.608,46.8 L99.992,46.352 L100.12,46.16 C101.208,43.728 102.296,41.296 103.32,38.992 Z M126.808,38.16 C126.872,38.032 127,37.84 127.128,37.584 L126.744,38.16 L126.744,38.352 C126.744,38.352 126.744,38.224 126.808,38.16 Z M130.648,29.264 C130.648,29.2 130.712,29.2 130.712,29.136 L130.776,29.072 C130.712,29.072 130.648,29.136 130.648,29.136 L130.648,29.264 Z M129.816,31.056 C129.88,31.056 129.88,31.056 130.008,30.992 L129.88,30.992 L129.816,31.056 Z M129.24,33.488 C128.6,34.704 128.024,35.92 127.384,37.2 C127.576,36.88 127.832,36.624 128.024,36.304 C129.304,34.192 130.392,32.016 131.416,29.712 C131.608,29.264 131.672,28.88 131.8,28.432 C131.48,28.56 131.416,28.688 131.288,28.944 C130.648,30.416 129.88,32.016 129.24,33.488 Z M130.264,28.24 C130.2,28.368 130.072,28.496 130.008,28.688 C130.008,28.816 130.008,28.944 130.072,29.008 L130.328,28.56 L130.264,28.24 Z M129.368,30.48 C129.304,30.544 129.24,30.608 129.176,30.736 C129.176,30.8 129.24,30.864 129.176,30.928 L129.368,30.736 C129.432,30.608 129.368,30.544 129.368,30.48 Z M128.6,32.016 C128.6,32.08 128.536,32.144 128.472,32.208 C128.472,32.272 128.472,32.272 128.536,32.336 C128.536,32.336 128.6,32.272 128.6,32.208 C128.664,32.144 128.664,32.08 128.6,32.016 Z M127.896,33.424 L127.96,33.424 L127.896,33.36 L127.896,33.424 Z M127.384,34.448 L127.448,34.384 L127.448,34.32 L127.384,34.448 Z M128.728,34.704 L128.728,34.768 L128.664,34.832 L128.6,34.768 L128.728,34.704 Z M119,50.576 L117.784,54.544 L117.784,53.648 C118.104,52.624 118.424,51.6 119,50.576 Z M117.784,55.056 C117.72,54.992 117.656,54.928 117.72,54.736 L117.784,54.608 C117.848,54.608 117.848,54.672 117.848,54.736 L117.784,55.056 Z M118.68,53.456 C118.744,53.456 118.808,53.392 118.808,53.392 L118.808,53.2 C118.808,53.264 118.68,53.328 118.68,53.392 L118.68,53.456 Z M120.6,50.128 C120.664,50 120.664,49.872 120.664,49.616 C120.664,49.616 120.728,49.552 120.664,49.552 L120.408,49.68 L119.192,53.776 C119.128,54.096 119.128,54.48 119.192,54.736 L120.6,50.128 Z M121.36806,47.9519699 C121.496,47.888 121.49601,47.888 121.56,47.888 C121.496,47.76 121.496,47.696 121.496,47.632 C121.432,47.696 121.432,47.76 121.432,47.76 C121.368812,47.8863752 121.430396,47.8879794 121.370376,47.9495933 L121.36806,47.9519699 Z M122.136,46.16 C122.2,46.16 122.328,46.096 122.328,46.096 L122.328,45.84 C122.264,45.904 122.2,46.032 122.2,46.032 L122.136,46.16 Z M123.544,43.216 L123.544,43.28 C123.672,43.28 123.736,43.216 123.736,43.216 C123.736,43.152 123.672,43.152 123.672,43.152 L123.544,43.216 Z M122.904296,44.5647407 C122.905778,44.5795556 122.914667,44.624 122.968,44.624 L123.032,44.496 C122.969003,44.496 122.906006,44.5580095 122.904047,44.5599533 L122.904296,44.5647407 Z M152.664,40.08 L152.28,40.528 L152.472,40.08 L152.664,40.08 Z M151.512,39.952 L151.64,39.824 L152.024,39.376 L152.024,39.44 C151.896,39.568 151.768,39.696 151.64,39.888 C151.576,39.888 151.512,39.952 151.512,39.952 Z M151.768,41.616 L152.856,40.784 C151.384,42.896 141.4,54.992 139.48,56.784 C138.648,57.552 137.752,57.872 136.856,57.808 C135,57.744 133.784,56.976 133.592,55.12 C133.4,52.752 133.592,50.256 134.04,47.76 C134.488,44.688 135.256,41.552 136.408,38.416 C137.432,35.344 138.648,32.336 139.928,29.264 C141.272,25.808 142.808,22.416 144.536,19.024 C144.536,18.96 144.536,18.96 144.6,18.896 C144.92,18.192 144.728,18.064 144.024,18.256 C143.32,18.448 142.488,18.704 141.784,18.96 L139.928,19.6 C139.544,19.792 139.224,19.792 138.968,19.6 L137.944,18.896 C138.456,18.64 138.84,18.256 139.352,18.128 C141.144,17.552 142.872,17.04 144.6,16.592 C145.88,16.272 145.88,16.336 146.456,15.184 C148.824,10.64 151.32,6.16 154.136,1.744 L154.456,1.296 C155.16,0.208 155.416,0.144 156.312,0.72 C156.952,1.36 157.08,1.488 156.44,2.64 L151.768,11.216 C151.128,12.496 150.488,13.712 149.848,14.928 C149.4,15.696 149.528,15.824 150.36,15.888 C156.056,16.144 156.76,16.784 157.72,21.584 C155.672,17.36 154.648,16.592 149.848,17.104 C148.76,17.232 148.696,17.232 148.12,18.32 C146.84,21.008 145.56,23.696 144.344,26.384 C142.296,31.056 140.568,35.728 138.904,40.464 C137.304,44.88 136.408,49.296 136.216,53.648 C136.152,54.416 136.152,55.184 136.216,55.952 C136.28,56.528 137.304,57.552 150.36,41.232 C150.68,40.976 151,40.656 151.256,40.336 L151.064,40.912 L152.472,40.08 L152.088,40.528 L152.024,40.528 L151.704,40.976 C151.896,40.848 152.024,40.656 152.088,40.528 L151.768,41.616 Z M150.04,42.064 C150.168,41.936 150.296,41.808 150.424,41.616 L150.04,42.064 Z M150.424,41.552 L151.064,40.976 C150.872,41.104 150.68,41.296 150.424,41.552 Z M150.714519,42.7403848 C150.796245,42.6844082 150.945143,42.6217143 151,42.512 L150.714519,42.7403848 Z M150.714519,42.7403848 L150.68,42.768 C150.689143,42.7588571 150.700898,42.7497143 150.714519,42.7403848 Z" id="ecent"></path>
                    <path d="M3.07449178,32.189926 C3.07935103,32.1759244 3.08420714,32.1619477 3.08905991,32.147996 C3.08905991,32.1702922 3.08905991,32.1835611 3.08540488,32.1951127 L3.07449178,32.189926 Z M1.32686753,40.6285467 C1.10659349,42.6660817 1.6572786,44.1529315 3.03399139,44.9789592 C3.69481353,45.3644387 4.35563567,45.5847128 5.12659484,45.7499183 C5.84248549,45.8600553 6.55837614,45.9151239 7.38440381,45.9151239 C8.21043149,45.9701924 9.03645916,45.9151239 9.86248684,45.8049868 C10.2479664,46.1904664 10.85372,46.3006034 11.4044052,45.8600553 C12.0101588,45.4195073 12.9463235,45.4195073 13.6071456,45.2543017 C14.0476937,45.1992332 14.4331733,45.0340277 14.7635844,44.8137536 C14.9838584,44.8137536 15.2041325,44.8137536 15.4244065,44.7586851 L16.2504342,42.6110132 C16.3055027,42.4458076 16.3605712,42.2806021 16.4156397,42.1704651 C16.6359138,41.950191 16.7460508,41.7849855 16.7460508,41.729917 C17.51701,40.3532042 18.2329006,39.0315599 18.9487913,37.7099156 C19.6646819,36.3332028 20.3805726,35.0115586 21.0964632,33.6899143 C22.3079705,31.5973108 23.5194777,29.5597759 24.841122,27.5773095 C26.1076978,25.5948431 27.5945476,23.6674452 29.1364659,21.7951158 C31.6696174,18.8214161 34.3679745,16.0679906 37.2866056,13.5899075 C40.1501682,11.056756 43.2890734,8.79894701 46.5931841,6.76141208 C47.8046914,6.04552143 48.9611301,5.49483631 50.1175688,4.99921971 C51.3290761,4.5036031 52.4855148,4.06305501 53.6419536,3.78771245 C55.0737349,3.45730138 56.3953792,3.34716436 57.6619549,3.45730138 C59.8646954,3.73264394 61.2414082,4.83401417 61.7920933,6.76141208 C62.0674359,7.69757678 62.1225044,8.63374148 61.9572989,9.62497469 C61.8471618,10.5611394 61.5167508,11.6074411 61.0211342,12.6537428 C59.9748324,14.9666203 58.5981196,17.1142923 57.0011328,19.0967587 C55.3490775,21.0241566 53.4767481,22.896486 51.3841446,24.6586784 C50.0074318,25.8151171 48.5756505,26.9715559 47.0888007,28.0729261 C45.6570194,29.1192278 44.1151011,30.1655295 42.5731828,31.2118313 C40.2603053,32.7537496 37.9474278,34.2956679 35.6896188,35.8375862 C33.3767413,37.324436 31.0638638,38.8663544 28.7509863,40.4082727 C28.4205753,40.6285467 28.1452327,40.7937523 27.8148216,41.0140263 C27.4844106,41.2343004 27.1539995,41.5096429 26.8235884,41.729917 C25.5019441,42.5559447 24.2353684,43.3269038 22.9137241,44.0427945 C22.6383815,44.208 22.363039,44.3732055 22.0876964,44.4833426 C22.0326279,44.5384111 21.9224909,44.5384111 21.8674224,44.5934796 C21.7572854,44.6485481 21.7022168,44.7036166 21.5920798,44.7586851 C21.4819428,44.8137536 21.3718058,44.8137536 21.3167373,44.8688221 C20.9863262,45.0340277 20.9312577,45.1992332 21.0964632,45.3644387 L21.3167373,45.6948498 L24.951259,50.2655363 C25.5019441,50.9263584 26.3279718,51.7523861 27.3742735,52.7436193 C28.4205753,53.679784 29.577014,54.7260857 30.8435898,55.827456 C32.1101655,56.9288262 33.4318098,58.0852649 34.8085226,59.2417037 C36.2403039,60.3981424 37.5619482,61.4995127 38.8835925,62.5458144 C40.2052368,63.5921161 41.416744,64.5833493 42.5731828,65.4644455 C43.674553,66.2904732 44.6107177,67.0063638 45.3266083,67.5570489 C45.8772935,67.9425285 46.3729101,68.3280081 46.9786637,68.6584192 C47.5293488,68.9337617 48.1351024,69.2091043 48.7408561,69.4844468 C49.0161986,69.5395154 49.2364727,69.6496524 49.4567467,69.7597894 C49.6219522,69.8699264 49.8422263,69.9800634 50.0625003,70.0902005 C50.1726374,70.0902005 50.1726374,70.2003375 50.1726374,70.365543 C49.9523633,70.5307486 49.8972948,70.5307486 49.7871578,70.5307486 C49.3466097,70.5858171 48.9060616,70.5307486 48.520582,70.4756801 C48.0800339,70.4206115 47.6945543,70.3104745 47.2540062,70.2003375 C46.4279786,69.9249949 45.6019509,69.5395154 44.8309917,69.0989673 C44.0600326,68.6584192 43.3441419,68.1628026 42.6282513,67.667186 C42.2427717,67.3918434 41.6370181,66.8962268 40.7559219,66.2904732 C39.9298942,65.6847195 38.9937295,64.9688289 37.9474278,64.1978697 C36.9011261,63.4269106 35.7997558,62.6008829 34.6433171,61.7748552 C33.4868783,60.893759 32.3855081,60.0677314 31.3392064,59.2967722 C30.2929047,58.4707445 29.35674,57.7548539 28.5307123,57.1491002 C27.7597531,56.4882781 27.1539995,55.9926615 26.8235884,55.6071819 C25.9424922,54.6710172 25.0613961,53.679784 24.2353684,52.7436193 C23.3542722,51.8074546 22.5282445,50.7611529 21.6471483,49.7148512 L19.0038598,46.1353979 L18.8386542,45.9701924 C18.2879691,46.1904664 17.737284,46.355672 17.1315304,46.575946 C17.0764619,46.7411515 17.0213934,46.9063571 16.9112563,47.0715626 C16.7460508,47.5671792 16.3605712,48.6685494 15.8098861,50.4307418 C15.259201,52.1929342 14.6534474,54.2855376 13.9375567,56.7085521 C13.2767346,59.0764981 12.5057754,61.6647182 11.7348162,64.4181438 C10.9087886,67.1165008 10.1928979,69.7047209 9.53207577,72.1277354 C9.05481533,73.7063661 8.21043149,72.7885575 6.99892423,69.3743098 C7.93508893,67.5019804 8.43070553,65.409377 8.98139065,63.3718421 C9.80741833,59.8474573 11.1290626,56.5984151 12.3405699,53.1841674 C13.0564605,51.2567695 13.7723512,49.2743031 14.4882418,47.2918367 C13.9926252,47.4019737 13.4419401,47.5121107 12.891255,47.6222477 C11.7898847,47.7874533 10.6885145,47.9526588 9.58714428,48.0077273 C8.70604809,48.0627958 7.82495191,48.0627958 7.05399274,48.0077273 C6.28303358,47.8975903 5.51207442,47.7874533 4.74111525,47.5671792 C2.86878586,47.0164941 1.60221009,45.9701924 0.996456463,44.3732055 C0.390702835,42.8312872 0.2254973,41.0690948 0.500839858,39.0315599 C0.666045393,37.8751212 0.996456463,36.7186824 1.43700456,35.6173122 C1.87755265,34.4608734 2.42823777,33.3595032 3.03399139,32.258133 C2.1970784,34.7181265 1.21733711,38.0545817 1.32686753,40.6285467 Z M48.886591,25.7866388 L48.8509931,25.8151171 C48.8628591,25.8032511 48.874725,25.793942 48.886591,25.7866388 Z M48.886591,25.7866388 C48.9297936,25.7600486 48.9729961,25.7600486 49.0161986,25.7600486 C49.0712671,25.7049801 49.1263356,25.6499116 49.1263356,25.5948431 L48.886591,25.7866388 Z M56.2301736,19.0416902 C56.2301736,18.9866217 56.2852422,18.9315532 56.2852422,18.8764846 L55.9548311,19.0416902 L52.2101723,22.896486 L51.4392131,23.6674452 L51.1638706,23.8877192 L50.888528,24.0529247 C50.888528,24.1079933 50.888528,24.1630618 50.778391,24.2181303 L50.998665,24.1079933 L51.4942816,23.7225137 L52.3753778,23.006623 C52.8159259,22.6211434 53.256474,22.1805953 53.6970221,21.7951158 L54.9085294,20.5836085 C55.1838719,20.3082659 55.404146,20.0879919 55.5693515,19.8677179 C55.7896255,19.5923753 55.9548311,19.3721012 56.1200366,19.1518272 C56.2301736,19.0967587 56.2301736,19.0416902 56.2301736,19.0416902 Z M51.6044187,22.0153898 C51.7145557,21.9052528 51.8246927,21.8501843 51.9348297,21.7951158 L51.8797612,21.7951158 L51.6594872,21.9603213 L51.6044187,22.0153898 Z M52.4304463,21.2444306 C52.5405834,21.1893621 52.5956519,21.1342936 52.7057889,21.0241566 L52.4304463,21.1893621 L52.4304463,21.2444306 Z M53.3115425,20.4734715 L53.5868851,20.1430604 L53.4216795,20.3082659 C53.366611,20.3633345 53.3115425,20.418403 53.3115425,20.4734715 Z M54.3027757,20.2531974 L54.0274332,20.4734715 C53.9172962,20.5836085 53.8622276,20.6937455 53.8071591,20.748814 L54.3027757,20.2531974 Z M54.0549674,19.6199096 L54.1375702,19.5373068 C54.2477072,19.4822383 54.3027757,19.4271698 54.3027757,19.4271698 C54.3578442,19.3721012 54.4129128,19.3721012 54.4129128,19.3170327 L54.1375702,19.4822383 C54.1375702,19.5373068 54.0825017,19.5373068 54.0825017,19.5923753 L54.0549674,19.6199096 Z M54.0549674,19.6199096 L54.0274332,19.6474438 L54.0549674,19.6199096 Z M54.4955155,20.0053891 L54.6331868,19.8677179 L54.5781183,19.8677179 C54.5781183,19.9227864 54.5230498,19.9227864 54.5230498,19.9778549 L54.4955155,20.0053891 Z M54.4955155,20.0053891 L54.4679813,20.0329234 L54.4955155,20.0053891 Z M47.5681007,7.86482189 C47.5109926,7.90561338 47.4375679,7.95456317 47.3641433,8.02798785 L47.5681007,7.86482189 Z M47.3090748,8.08305636 L46.9786637,8.2482619 C46.8685267,8.30333041 46.8134582,8.35839892 46.7033211,8.41346743 C46.8134582,8.30333041 47.0337322,8.19319339 47.3090748,8.08305636 Z M43.564416,9.12935808 C43.5093475,9.18442659 43.4542789,9.18442659 43.4542789,9.23949511 C43.5093475,9.23949511 43.564416,9.23949511 43.564416,9.18442659 L43.9498955,9.01922106 L44.2252381,8.79894701 L43.9498955,8.96415255 L43.564416,9.12935808 Z M43.6194845,9.84524873 C43.564416,9.84524873 43.5093475,9.90031725 43.5093475,9.95538576 L43.6194845,9.84524873 Z M43.2890734,9.34963213 L42.9586623,9.62497469 C43.0137308,9.62497469 43.0687994,9.62497469 43.0687994,9.56990618 L43.2890734,9.34963213 Z M42.7934568,9.73511171 L42.3529087,10.0655228 L42.5731828,9.95538576 L42.7934568,9.73511171 Z M42.1326347,10.2307283 L41.8572921,10.4510024 C41.9123606,10.4510024 41.9674291,10.3959339 42.0224976,10.3408653 L42.1326347,10.2307283 Z M41.9674291,11.056756 C41.8572921,11.166893 41.8022236,11.2219615 41.6920866,11.27703 L41.4718125,11.4973041 C41.5819495,11.3871671 41.6920866,11.3320985 41.7471551,11.27703 L41.9674291,11.056756 Z M41.6370181,10.6162079 L41.306607,10.8364819 C41.416744,10.8364819 41.4718125,10.7814134 41.526881,10.7263449 L41.6370181,10.6162079 Z M40.788736,11.2500144 C40.8309336,11.2219615 40.8660589,11.2219615 40.8660589,11.2219615 L41.0312644,11.056756 C40.9822236,11.1057968 40.88951,11.1548375 40.792016,11.2427708 L40.788736,11.2500144 Z M40.9761959,11.8277152 L40.7008534,12.0479892 L40.4255108,12.2131947 C40.4255108,12.2682632 40.3704423,12.2682632 40.3704423,12.3233318 L40.4255108,12.2682632 C40.5356478,12.2131947 40.5907163,12.1581262 40.5907163,12.1581262 C40.6457848,12.1030577 40.7008534,12.1030577 40.7008534,12.0479892 C40.8109904,11.9929207 40.8660589,11.9929207 40.8660589,11.9378522 C40.9211274,11.8827837 40.9761959,11.8827837 41.0312644,11.8277152 L41.306607,11.6074411 L41.19647,11.6625096 L40.9761959,11.8277152 Z M40.5907163,11.3871671 L40.2603053,11.6625096 L40.5356478,11.4973041 C40.5356478,11.4422356 40.5907163,11.4422356 40.5907163,11.3871671 Z M39.5191837,12.9332102 C39.497988,12.9388706 39.4661328,12.9522987 39.4342776,12.9841539 L39.2140035,13.1493594 C39.2140035,13.1535955 39.2136777,13.1575057 39.2130761,13.1611151 L39.4342776,12.9841539 L39.5191837,12.9332102 Z M39.2130761,13.1611151 C39.2058573,13.2044279 39.158935,13.2044279 39.158935,13.2044279 L39.2130761,13.1611151 Z M39.5719489,12.9015511 L39.7096201,12.8189484 C39.8197572,12.7088113 39.9298942,12.6537428 39.9849627,12.5986743 L40.2052368,12.4334688 L39.9298942,12.5986743 L39.7096201,12.7638799 L39.5719489,12.9015511 Z M39.4893461,12.2131947 L39.2140035,12.4334688 C39.3792091,12.3784003 39.4893461,12.2682632 39.4893461,12.2131947 Z M38.4981129,13.1493594 C38.4981121,13.1493594 38.443044,13.1493598 38.3879759,13.2044279 L38.4981129,13.1493594 Z M38.4981129,13.1493594 C38.6633184,13.0942909 38.7734555,12.9841539 38.8835925,12.8740169 C38.9937295,12.7638799 39.1038665,12.6537428 39.2140035,12.4885373 L38.4981129,13.1493594 Z M38.0051966,13.5321387 L38.0575648,13.4797705 C38.0575648,13.5146825 38.0354315,13.5274612 38.0051967,13.5321386 Z M38.0051967,13.5321386 C37.9877407,13.534839 37.9675843,13.534839 37.9474278,13.534839 L37.7822222,13.7000445 C37.8372908,13.644976 37.8923593,13.644976 37.9474278,13.5899075 L38.0051966,13.5321387 Z M37.6498308,14.4990566 C37.6920285,14.4710037 37.7271537,14.4710037 37.7271537,14.4710037 L37.8923593,14.3057982 C37.8433185,14.354839 37.7506049,14.4038797 37.6531109,14.491813 L37.6498308,14.4990566 Z M37.1214001,14.3057982 L36.9561946,14.4159352 C37.0112631,14.4159352 37.0663316,14.4159352 37.1214001,14.3608667 L37.4518112,13.9203186 L37.1214001,14.3057982 Z M37.0112631,15.0767573 L36.8460575,15.2419629 L37.0112631,15.1318259 L37.0112631,15.0767573 Z M36.6177491,15.4282027 C36.6387834,15.4152028 36.6598177,15.4071684 36.680852,15.4071684 L36.6177491,15.4282027 Z M36.6177491,15.4282027 L36.5156465,15.4622369 C36.5156465,15.5173054 36.460578,15.5173054 36.460578,15.5723739 L36.4330437,15.5999082 L36.5156465,15.5173054 C36.5496807,15.4832712 36.5837149,15.449237 36.6177491,15.4282027 Z M36.1993236,15.8885703 C36.2121934,15.8758271 36.2257691,15.8622513 36.2403039,15.8477165 C36.2403039,15.8658175 36.2343541,15.8779687 36.2244103,15.8880815 L36.1993236,15.8885703 Z M36.0200299,15.2970314 L35.7997558,15.4071684 C35.9098928,15.4071684 35.9649614,15.3520999 36.0200299,15.2970314 Z M35.1389337,16.7838812 L35.1389337,16.8389497 C35.2490707,16.7288127 35.3592077,16.6737442 35.4142762,16.6186757 L35.6896188,16.2882646 L35.7997558,16.1781276 L35.6896188,16.2331961 L35.3592077,16.6186757 L35.1389337,16.7838812 Z M34.7809884,16.4810044 L34.8635911,16.3984016 L34.7809884,16.4810044 Z M34.7809884,16.4810044 L34.6983856,16.5636072 C34.6983856,16.5636072 34.6433171,16.5636072 34.5882486,16.6186757 L34.3679745,16.8389497 C34.3542074,16.8527168 34.3369985,16.866484 34.3163478,16.881972 L34.3679745,16.8389497 C34.4781115,16.7288127 34.5882486,16.6737442 34.6433171,16.6186757 L34.7809884,16.4810044 Z M34.1477005,18.380868 C33.8172894,18.6562106 33.5419468,18.9315532 33.3216728,19.3170327 C33.6520839,19.0416902 33.9824949,18.7663476 34.2578375,18.4910051 C34.5331801,18.2156625 34.8085226,17.8852514 35.0838652,17.6099089 L35.7446873,17.0592238 L36.5156465,16.2882646 L38.6633184,14.4159352 L40.4805793,12.8740169 L40.7008534,12.7088113 L42.7934568,11.1118245 L43.0687994,10.946619 L43.564416,10.5611394 L45.2164713,9.45976915 L45.4918139,9.29456362 C45.6019509,9.18442659 45.7120879,9.12935808 45.7671564,9.07428957 L46.3178415,8.68880999 L45.6570194,9.01922106 L45.2164713,9.34963213 L43.4542789,10.4510024 L43.2340049,10.6162079 C43.1789364,10.6712764 43.1238679,10.6712764 43.0687994,10.7263449 C43.0687994,10.7814134 43.0137308,10.7814134 42.9035938,10.8364819 L42.6833198,11.0016875 C42.3529087,11.27703 42.0224976,11.4973041 41.6920866,11.7726466 C41.306607,12.0479892 40.9761959,12.2682632 40.6457848,12.5436058 L40.3704423,12.7088113 L38.5531814,14.2507297 L36.4055094,16.1781276 L35.5794818,16.9490867 L35.0287967,17.5548404 C34.7534541,17.8301829 34.423043,18.1055255 34.1477005,18.380868 Z M32.7709877,19.8677179 L32.6057821,20.0879919 L33.3216728,19.3721012 C33.2115358,19.4822383 32.9912617,19.6474438 32.7709877,19.8677179 Z M31.1740008,20.0879919 L31.0087953,20.3082659 L31.2290694,20.0879919 L31.1740008,20.0879919 Z M30.8986583,21.9603213 L30.5682472,22.4008694 L30.9537268,21.9603213 C30.9537268,21.9052528 31.0087953,21.8501843 31.1189323,21.7400472 L30.8986583,21.9603213 Z M18.8386542,42.7762187 C18.7285172,42.9964927 18.8386542,43.1616983 19.0589283,43.2167668 C19.3893394,43.2718353 19.6096134,43.2167668 19.884956,43.1616983 C20.10523,43.0515613 20.3805726,42.9414242 20.6559151,42.7762187 C21.5370113,42.2806021 22.363039,41.729917 23.2441352,41.2343004 C24.0701628,40.7386838 24.951259,40.1879987 25.7772867,39.6373135 C27.8698901,38.2606007 29.9624936,36.9389565 32.055097,35.5622437 C34.092632,34.1855309 36.1852354,32.7537496 38.2227703,31.3770368 C39.8748257,30.2756666 41.526881,29.1742963 43.1238679,28.0178576 C44.7208547,26.8614188 46.3178415,25.6499116 47.9148284,24.4934728 C49.3466097,23.3921026 50.7233225,22.2356639 51.9898982,21.0241566 C53.3115425,19.7575808 54.5230498,18.4359366 55.6794885,17.0592238 C56.5605847,15.902785 57.3866124,14.7463463 58.102503,13.5899075 C58.8734622,12.4334688 59.4241473,11.166893 59.8646954,9.90031725 C60.0849695,9.40470064 60.1951065,8.90908404 60.3052435,8.41346743 C60.4153805,7.91785083 60.470449,7.42223422 60.360312,6.92661762 C60.250175,6.10058994 59.8096269,5.60497334 58.9835992,5.4397678 C58.2126401,5.27456227 57.3866124,5.21949376 56.5055162,5.27456227 C55.6794885,5.32963078 54.7983923,5.49483631 53.8622276,5.77017887 C52.6507204,6.15565845 51.4942816,6.59620655 50.3378429,7.14689166 C49.1814042,7.64250827 48.0249654,8.30333041 46.8134582,9.01922106 C44.5005807,10.4510024 42.2978402,12.0479892 40.0950997,13.8652501 C34.6983856,18.3257995 30.1827676,23.2819656 26.5482459,28.8438853 C25.1164646,31.0466257 23.7948203,33.3044347 22.583313,35.5622437 C21.3167373,37.8200526 20.1602985,40.0778616 19.0038598,42.3907391 C19.0038598,42.4458076 18.9487913,42.5559447 18.9487913,42.6110132 C18.8937227,42.6660817 18.8937227,42.7211502 18.8386542,42.7762187 Z" id="R"></path>
                </g>
                <path d="M72.844,100.456 C71.2733255,100.456 69.8293399,100.16467 68.512,99.582 C67.1946601,98.9993304 66.0483382,98.1570055 65.073,97.055 C64.0976618,95.9529945 63.3376694,94.5976747 62.793,92.989 C62.2483306,91.3803253 61.976,89.5626768 61.976,87.536 C61.976,85.5346567 62.2546639,83.736008 62.812,82.14 C63.3693361,80.543992 64.1419951,79.1886722 65.13,78.074 C66.1180049,76.9593278 67.2833266,76.1043363 68.626,75.509 C69.9686734,74.9136637 71.437992,74.616 73.034,74.616 C74.5540076,74.616 75.8903276,74.9263302 77.043,75.547 C78.1956724,76.1676698 79.1393297,76.8833293 79.874,77.694 L78.164,79.746 C77.50533,79.0366631 76.7580042,78.4666688 75.922,78.036 C75.0859958,77.6053312 74.1360053,77.39 73.072,77.39 C71.8813274,77.39 70.8046715,77.624331 69.842,78.093 C68.8793285,78.561669 68.0560034,79.2329956 67.372,80.107 C66.6879966,80.9810044 66.1623352,82.0386605 65.795,83.28 C65.4276648,84.5213395 65.244,85.9146589 65.244,87.46 C65.244,89.0306745 65.4276648,90.4429937 65.795,91.697 C66.1623352,92.9510063 66.67533,94.0213289 67.334,94.908 C67.99267,95.7946711 68.7969952,96.4786643 69.747,96.96 C70.6970048,97.4413357 71.7673274,97.682 72.958,97.682 C74.1740061,97.682 75.2379954,97.4350025 76.15,96.941 C77.0620046,96.4469975 77.9233293,95.7566711 78.734,94.87 L80.482,96.846 C79.4939951,97.9860057 78.3793395,98.8726635 77.138,99.506 C75.8966605,100.139336 74.4653414,100.456 72.844,100.456 Z M88.2846667,100 L88.2846667,75.072 L96.0746667,75.072 C97.3413397,75.072 98.5129947,75.1923321 99.5896667,75.433 C100.666339,75.6736679 101.590996,76.0726639 102.363667,76.63 C103.136337,77.1873361 103.737998,77.9093289 104.168667,78.796 C104.599336,79.6826711 104.814667,80.7719935 104.814667,82.064 C104.814667,84.0146764 104.308005,85.5726608 103.294667,86.738 C102.281328,87.9033392 100.913342,88.7013312 99.1906667,89.132 L105.536667,100 L101.964667,100 L95.9606667,89.474 L91.4386667,89.474 L91.4386667,100 L88.2846667,100 Z M91.4386667,86.89 L95.6186667,86.89 C97.5693432,86.89 99.0639949,86.491004 100.102667,85.693 C101.141339,84.894996 101.660667,83.6853414 101.660667,82.064 C101.660667,80.4173251 101.141339,79.26467 100.102667,78.606 C99.0639949,77.94733 97.5693432,77.618 95.6186667,77.618 L91.4386667,77.618 L91.4386667,86.89 Z M113.073333,100 L113.073333,75.072 L127.437333,75.072 L127.437333,77.732 L116.227333,77.732 L116.227333,85.56 L125.689333,85.56 L125.689333,88.258 L116.227333,88.258 L116.227333,97.302 L127.817333,97.302 L127.817333,100 L113.073333,100 Z M140.56,86.054 L139.382,89.854 L146.868,89.854 L145.69,86.054 C145.233998,84.6606597 144.803336,83.2736736 144.398,81.893 C143.992665,80.5123264 143.587336,79.1000072 143.182,77.656 L143.03,77.656 C142.649998,79.1000072 142.257336,80.5123264 141.852,81.893 C141.446665,83.2736736 141.016003,84.6606597 140.56,86.054 Z M132.96,100 L141.396,75.072 L144.968,75.072 L153.404,100 L150.022,100 L147.666,92.4 L138.584,92.4 L136.19,100 L132.96,100 Z M163.182667,100 L163.182667,77.732 L155.658667,77.732 L155.658667,75.072 L173.898667,75.072 L173.898667,77.732 L166.374667,77.732 L166.374667,100 L163.182667,100 Z M181.549334,100 L181.549334,75.072 L184.703334,75.072 L184.703334,100 L181.549334,100 Z M203.906,100.456 C202.335326,100.456 200.897674,100.152003 199.593,99.544 C198.288327,98.935997 197.167338,98.068339 196.23,96.941 C195.292662,95.813661 194.564336,94.4456747 194.045,92.837 C193.525665,91.2283253 193.266,89.4233433 193.266,87.422 C193.266,85.4206567 193.525665,83.6283413 194.045,82.045 C194.564336,80.4616587 195.292662,79.1190055 196.23,78.017 C197.167338,76.9149945 198.288327,76.0726696 199.593,75.49 C200.897674,74.9073304 202.335326,74.616 203.906,74.616 C205.476675,74.616 206.914327,74.9136637 208.219,75.509 C209.523674,76.1043363 210.650996,76.9529945 211.601,78.055 C212.551005,79.1570055 213.285665,80.4996588 213.805,82.083 C214.324336,83.6663413 214.584,85.4459901 214.584,87.422 C214.584,89.4233433 214.324336,91.2283253 213.805,92.837 C213.285665,94.4456747 212.551005,95.813661 211.601,96.941 C210.650996,98.068339 209.523674,98.935997 208.219,99.544 C206.914327,100.152003 205.476675,100.456 203.906,100.456 Z M203.906,97.682 C205.020673,97.682 206.027663,97.4413357 206.927,96.96 C207.826338,96.4786643 208.598997,95.7883378 209.245,94.889 C209.891004,93.9896622 210.391332,92.9130063 210.746,91.659 C211.100669,90.4049937 211.278,88.9926745 211.278,87.422 C211.278,85.8766589 211.100669,84.4833395 210.746,83.242 C210.391332,82.0006605 209.891004,80.9493376 209.245,80.088 C208.598997,79.2266624 207.826338,78.561669 206.927,78.093 C206.027663,77.624331 205.020673,77.39 203.906,77.39 C202.791328,77.39 201.784338,77.624331 200.885,78.093 C199.985663,78.561669 199.213004,79.2266624 198.567,80.088 C197.920997,80.9493376 197.420669,82.0006605 197.066,83.242 C196.711332,84.4833395 196.534,85.8766589 196.534,87.422 C196.534,88.9926745 196.711332,90.4049937 197.066,91.659 C197.420669,92.9130063 197.920997,93.9896622 198.567,94.889 C199.213004,95.7883378 199.985663,96.4786643 200.885,96.96 C201.784338,97.4413357 202.791328,97.682 203.906,97.682 Z M223.108667,100 L223.108667,75.072 L226.376667,75.072 L235.382667,90.728 L238.080667,95.896 L238.232667,95.896 C238.156667,94.629327 238.074334,93.3183401 237.985667,91.963 C237.897,90.6076599 237.852667,89.2713399 237.852667,87.954 L237.852667,75.072 L240.854667,75.072 L240.854667,100 L237.586667,100 L228.542667,84.306 L225.844667,79.176 L225.692667,79.176 C225.794001,80.442673 225.889,81.7283268 225.977667,83.033 C226.066334,84.3376732 226.110667,85.6486601 226.110667,86.966 L226.110667,100 L223.108667,100 Z M257.777334,100.456 C256.029325,100.456 254.408008,100.12667 252.913334,99.468 C251.41866,98.80933 250.126673,97.9100057 249.037334,96.77 L250.937334,94.566 C251.824005,95.503338 252.868995,96.2569972 254.072334,96.827 C255.275673,97.3970029 256.523328,97.682 257.815334,97.682 C259.462009,97.682 260.741329,97.3083371 261.653334,96.561 C262.565339,95.8136629 263.021334,94.8320061 263.021334,93.616 C263.021334,92.9826635 262.913668,92.4443356 262.698334,92.001 C262.483,91.5576645 262.191669,91.1776682 261.824334,90.861 C261.456999,90.5443317 261.020003,90.2593346 260.513334,90.006 C260.006665,89.7526654 259.462004,89.4866681 258.879334,89.208 L255.307334,87.65 C254.724664,87.3966654 254.129337,87.0926684 253.521334,86.738 C252.913331,86.3833316 252.36867,85.9526692 251.887334,85.446 C251.405998,84.9393308 251.013335,84.3376702 250.709334,83.641 C250.405332,82.9443299 250.253334,82.1400046 250.253334,81.228 C250.253334,80.290662 250.449665,79.4166707 250.842334,78.606 C251.235003,77.7953293 251.779664,77.0923363 252.476334,76.497 C253.173004,75.9016637 253.996329,75.439335 254.946334,75.11 C255.896339,74.780665 256.941328,74.616 258.081334,74.616 C259.576008,74.616 260.956661,74.9009971 262.223334,75.471 C263.490007,76.0410028 264.566663,76.7819954 265.453334,77.694 L263.743334,79.746 C262.98333,79.0113297 262.141005,78.4350021 261.216334,78.017 C260.291663,77.5989979 259.246673,77.39 258.081334,77.39 C256.687994,77.39 255.567005,77.7129968 254.718334,78.359 C253.869663,79.0050032 253.445334,79.8979943 253.445334,81.038 C253.445334,81.646003 253.565666,82.1589979 253.806334,82.577 C254.047002,82.9950021 254.369999,83.3623318 254.775334,83.679 C255.180669,83.9956682 255.623998,84.2743321 256.105334,84.515 C256.58667,84.7556679 257.080665,84.9773323 257.587334,85.18 L261.121334,86.7 C261.830671,87.0040015 262.501997,87.3523314 263.135334,87.745 C263.76867,88.1376686 264.313332,88.5936641 264.769334,89.113 C265.225336,89.6323359 265.586333,90.2403298 265.852334,90.937 C266.118335,91.6336702 266.251334,92.4379954 266.251334,93.35 C266.251334,94.3380049 266.055003,95.2626624 265.662334,96.124 C265.269665,96.9853376 264.706004,97.7389968 263.971334,98.385 C263.236664,99.0310032 262.350006,99.5376648 261.311334,99.905 C260.272662,100.272335 259.094674,100.456 257.777334,100.456 Z" id="CREATIONS" fill="#424242"></path>
            </g>
        </g>
    </g>
</svg>